<svg width="81" height="71" viewBox="0 0 81 71" fill="none" xmlns="http://www.w3.org/2000/svg">
<path d="M81 35C81 54.33 53.3251 70 34.3527 70C0 70 0 54.33 0 35C0 15.67 15.3802 0 34.3527 0C67.9821 0 81 15.67 81 35Z" fill="#B3EDF9"/>
<path fill-rule="evenodd" clip-rule="evenodd" d="M32.6604 18.1724C31.4759 18.4668 30.5013 19.1538 29.848 20.1549C29.1043 21.2948 29.0342 21.6911 29.0342 24.7589V27.5188H21.9275C17.3261 27.5188 14.5634 27.5662 14.0913 27.6535C11.7914 28.0785 9.62189 30.2276 9.13488 32.5631C9.03863 33.0242 8.99868 37.8607 9.00003 48.8835C9.00163 62.4187 9.02708 64.6565 9.18749 65.3409C9.62041 67.1885 10.8935 68.7414 12.6848 69.6071L13.7306 70.1125H40.4659H67.2011L68.2469 69.6071C70.0382 68.7414 71.3113 67.1885 71.7442 65.3409C71.9046 64.6565 71.9301 62.4187 71.9317 48.8835C71.933 37.8607 71.8931 33.0242 71.7968 32.5631C71.3098 30.2276 69.1403 28.0785 66.8404 27.6535C66.3683 27.5662 63.6057 27.5188 59.0042 27.5188H51.8975V24.7589C51.8975 21.6911 51.8274 21.2948 51.0837 20.1549C50.4059 19.1164 49.3541 18.4023 48.1116 18.1374C47.1586 17.9342 33.494 17.9651 32.6604 18.1724ZM47.4577 21.8447C48.1365 22.0827 48.2099 22.4007 48.2099 25.1016V27.5188H40.4659H32.7219V25.1136C32.7219 22.4645 32.7881 22.1463 33.395 21.8803C33.8876 21.6644 46.8499 21.6317 47.4577 21.8447ZM66.6479 31.4888C66.8846 31.5982 67.2381 31.8486 67.4334 32.0452C68.1317 32.7476 68.1768 32.9923 68.2227 36.3281L68.2648 39.3881H40.4753H12.6858L12.6888 36.6372C12.6905 35.1241 12.7487 33.6358 12.8183 33.3298C13.0497 32.312 13.7392 31.5987 14.7156 31.3674C15.0143 31.2967 25.1674 31.2589 40.7117 31.2706C63.8725 31.288 66.2573 31.3081 66.6479 31.4888ZM30.0619 44.6594C30.1908 46.9316 30.7793 48.3061 32.2437 49.7553C33.0222 50.5257 34.5142 51.2992 35.6024 51.4963C36.5651 51.6707 44.3666 51.6707 45.3293 51.4963C46.4175 51.2992 47.9096 50.5257 48.688 49.7553C50.1524 48.3061 50.7409 46.9316 50.8699 44.6594L50.9516 43.221H59.6026H68.2538L68.2191 53.8849L68.1844 64.5488L67.8771 65.0997C67.7081 65.4026 67.33 65.8199 67.0369 66.027L66.5039 66.4034H40.4659H14.4278L13.8949 66.027C13.6017 65.8199 13.2236 65.4026 13.0546 65.0997L12.7473 64.5488L12.7126 53.8849L12.6779 43.221H21.3291H29.9801L30.0619 44.6594ZM47.0806 44.4883C47.0458 45.3512 46.964 45.8796 46.8243 46.1443C46.521 46.7187 45.889 47.307 45.2611 47.5993C44.7327 47.8453 44.5074 47.8574 40.4659 47.8574C36.4243 47.8574 36.199 47.8453 35.6706 47.5993C35.0427 47.307 34.4107 46.7187 34.1074 46.1443C33.9677 45.8796 33.8859 45.3512 33.8511 44.4883L33.8002 43.221H40.4659H47.1315L47.0806 44.4883Z" fill="#262961"/>
</svg>
