<svg width="85" height="71" viewBox="0 0 85 71" fill="none" xmlns="http://www.w3.org/2000/svg">
<path d="M7.87015 52.0848C-0.0689583 35.9076 18.7733 12.3789 36.1028 5.23929C67.4805 -7.68814 73.9164 5.42607 81.8555 21.6033C89.7946 37.7805 82.1823 56.6825 64.8528 63.8221C34.1357 76.4774 15.8092 68.262 7.87015 52.0848Z" fill="#B3EDF9"/>
<mask id="path-2-outside-1_24_600" maskUnits="userSpaceOnUse" x="0" y="5.62231" width="65" height="65" fill="black">
<rect fill="white" y="5.62231" width="65" height="65"/>
<path fill-rule="evenodd" clip-rule="evenodd" d="M31.9853 6.77611C30.9134 7.3702 31.3619 9.0763 32.5899 9.0763C33.2164 9.0763 33.8263 8.47232 33.8263 7.8519C33.8263 6.92361 32.8004 6.32421 31.9853 6.77611ZM26.7495 7.71577C26.5634 7.77178 25.9675 8.04205 25.4253 8.31629C21.9508 10.0736 19.1869 13.0344 17.7351 16.5541L17.2753 17.6692L11.9813 17.7311C9.0697 17.7651 6.58801 17.8413 6.46647 17.9006C6.02656 18.1151 5.88376 18.6439 5.88376 20.0589V21.4099L4.7919 21.4622C3.03696 21.5461 1.9153 22.244 1.26038 23.6594L1 24.2221V43.819V63.4158L1.26038 63.9785C1.64095 64.8011 2.22168 65.4001 3.01755 65.7909L3.72007 66.1359L13.8035 66.1695L23.8868 66.2033L24.0344 66.9178C24.3151 68.277 25.2747 69.3368 26.5742 69.7227C27.4884 69.9942 37.6914 69.9942 38.6055 69.7227C39.905 69.3368 40.8647 68.277 41.1454 66.9178L41.293 66.2033L51.3763 66.1695L61.4597 66.1359L62.1622 65.7909C62.9581 65.4001 63.5388 64.8011 63.9194 63.9785L64.1797 63.4158V43.819V24.2221L63.9194 23.6594C63.2645 22.244 62.1428 21.5461 60.3878 21.4622L59.296 21.4099V20.0589C59.296 18.6439 59.1532 18.1151 58.7133 17.9006C58.5917 17.8413 56.1058 17.7651 53.1891 17.7311L47.8859 17.6692L47.4236 16.535C46.3334 13.8598 44.2569 11.2545 41.8443 9.53475C40.9331 8.88515 39.0772 7.90172 38.4205 7.72034C37.8582 7.56518 37.2444 7.82136 36.9872 8.31864C36.5241 9.2144 36.8245 9.62897 38.5526 10.479C46.2504 14.2648 48.5617 23.9902 43.3987 30.8696C42.3965 32.205 41.4308 33.0831 39.682 34.2497C38.6351 34.9478 38.1959 35.3261 37.8515 35.8262C37.2329 36.7243 36.9173 37.7995 36.9173 39.008V39.9862H35.3718H33.8263V33.4694V26.9525L35.6093 25.1546C36.688 24.0668 37.4258 23.2224 37.4772 23.0166C37.7139 22.0703 36.9054 21.2612 35.9602 21.4985C35.7617 21.5483 34.9929 22.2047 34.1056 23.0819L32.5899 24.5804L31.0742 23.0819C30.1868 22.2047 29.418 21.5483 29.2196 21.4985C28.2744 21.2612 27.4659 22.0703 27.7025 23.0166C27.754 23.2224 28.4917 24.0668 29.5705 25.1546L31.3535 26.9525V33.4694V39.9862H29.808H28.2625V39.008C28.2625 37.7995 27.9468 36.7243 27.3283 35.8262C26.9792 35.3194 26.5444 34.9483 25.436 34.2114C21.5044 31.5976 19.2836 27.8556 19.0307 23.4185C18.7117 17.8221 21.8951 12.6134 27.0778 10.2516C28.3091 9.69042 28.6217 9.1485 28.1925 8.31864C28.0408 8.02536 27.3199 7.54317 27.1228 7.60326C27.1036 7.60907 26.9356 7.65976 26.7495 7.71577ZM16.5836 22.4603C16.5825 24.1952 16.6348 24.958 16.8099 25.7611C17.7616 30.1271 20.1222 33.6375 23.7184 36.0339C25.8709 37.4685 25.7138 37.0136 25.7897 42.0262L25.8515 46.1063L26.2428 46.9322C27.0565 48.6497 28.5616 49.7019 30.4041 49.8412L31.3535 49.913V54.6552C31.3535 57.2635 31.3327 59.3975 31.3074 59.3975C31.282 59.3975 30.99 59.2724 30.6583 59.1194L30.0553 58.8412L19.2059 58.807L8.35655 58.7728V39.4884V20.2038H12.4708H16.585L16.5836 22.4603ZM56.8232 39.4884V58.7728L45.9738 58.807L35.1245 58.8412L34.5215 59.1194C34.1898 59.2724 33.8977 59.3975 33.8724 59.3975C33.847 59.3975 33.8263 57.2635 33.8263 54.6552V49.913L34.7757 49.8412C36.6182 49.7019 38.1232 48.6497 38.9369 46.9322L39.3282 46.1063L39.39 42.0262C39.466 37.0151 39.3099 37.4676 41.4546 36.0385C46.1766 32.8918 48.8848 27.5249 48.6181 21.8421L48.5412 20.2038H52.6823H56.8232V39.4884ZM5.88376 42.0942C5.88376 61.5607 5.86002 60.787 6.46647 61.0826C6.58801 61.1418 11.8617 61.2181 18.1859 61.2521L29.6843 61.3139L30.1563 61.6073C30.4159 61.7687 30.7776 62.1261 30.9599 62.4016C31.2849 62.8921 31.2925 62.949 31.3323 65.1683L31.3731 67.4341H29.379C26.7488 67.4341 26.5617 67.3352 26.3507 65.8325C26.2494 65.1118 25.8776 64.5285 25.2582 64.1185L24.7571 63.7867L14.4858 63.7249C8.83664 63.6909 4.11522 63.6146 3.99368 63.5554C3.38624 63.2592 3.4106 64.0948 3.4153 43.7942C3.41888 28.299 3.44967 24.7864 3.58357 24.5448C3.83134 24.0976 4.25827 23.9223 5.11101 23.9174L5.88376 23.913V42.0942ZM61.1327 24.0892C61.3201 24.1861 61.5398 24.4113 61.621 24.5896C61.7335 24.8364 61.7688 29.4277 61.7688 43.831C61.7688 64.0901 61.7934 63.2593 61.1861 63.5554C61.0645 63.6146 56.3431 63.6909 50.6939 63.7249L40.4227 63.7867L39.9216 64.1185C39.3021 64.5285 38.9304 65.1118 38.8291 65.8325C38.618 67.3352 38.431 67.4341 35.8008 67.4341H33.8066L33.8474 65.1683C33.8872 62.949 33.8949 62.8921 34.2198 62.4016C34.4022 62.1261 34.7638 61.7687 35.0235 61.6073L35.4954 61.3139L46.9939 61.2521C53.318 61.2181 58.5917 61.1418 58.7133 61.0826C59.3197 60.787 59.296 61.5607 59.296 42.0942V23.913H60.044C60.4554 23.913 60.9452 23.9923 61.1327 24.0892ZM36.8985 44.0972C36.8599 45.5638 36.8246 45.7848 36.562 46.2073C36.4007 46.467 36.043 46.8286 35.7674 47.011L35.2662 47.3427H32.5899H29.9136L29.4123 47.011C29.1367 46.8286 28.7791 46.467 28.6177 46.2073C28.3551 45.7848 28.3199 45.5638 28.2813 44.0972L28.2383 42.4589H32.5899H36.9415L36.8985 44.0972Z"/>
</mask>
<path fill-rule="evenodd" clip-rule="evenodd" d="M31.9853 6.77611C30.9134 7.3702 31.3619 9.0763 32.5899 9.0763C33.2164 9.0763 33.8263 8.47232 33.8263 7.8519C33.8263 6.92361 32.8004 6.32421 31.9853 6.77611ZM26.7495 7.71577C26.5634 7.77178 25.9675 8.04205 25.4253 8.31629C21.9508 10.0736 19.1869 13.0344 17.7351 16.5541L17.2753 17.6692L11.9813 17.7311C9.0697 17.7651 6.58801 17.8413 6.46647 17.9006C6.02656 18.1151 5.88376 18.6439 5.88376 20.0589V21.4099L4.7919 21.4622C3.03696 21.5461 1.9153 22.244 1.26038 23.6594L1 24.2221V43.819V63.4158L1.26038 63.9785C1.64095 64.8011 2.22168 65.4001 3.01755 65.7909L3.72007 66.1359L13.8035 66.1695L23.8868 66.2033L24.0344 66.9178C24.3151 68.277 25.2747 69.3368 26.5742 69.7227C27.4884 69.9942 37.6914 69.9942 38.6055 69.7227C39.905 69.3368 40.8647 68.277 41.1454 66.9178L41.293 66.2033L51.3763 66.1695L61.4597 66.1359L62.1622 65.7909C62.9581 65.4001 63.5388 64.8011 63.9194 63.9785L64.1797 63.4158V43.819V24.2221L63.9194 23.6594C63.2645 22.244 62.1428 21.5461 60.3878 21.4622L59.296 21.4099V20.0589C59.296 18.6439 59.1532 18.1151 58.7133 17.9006C58.5917 17.8413 56.1058 17.7651 53.1891 17.7311L47.8859 17.6692L47.4236 16.535C46.3334 13.8598 44.2569 11.2545 41.8443 9.53475C40.9331 8.88515 39.0772 7.90172 38.4205 7.72034C37.8582 7.56518 37.2444 7.82136 36.9872 8.31864C36.5241 9.2144 36.8245 9.62897 38.5526 10.479C46.2504 14.2648 48.5617 23.9902 43.3987 30.8696C42.3965 32.205 41.4308 33.0831 39.682 34.2497C38.6351 34.9478 38.1959 35.3261 37.8515 35.8262C37.2329 36.7243 36.9173 37.7995 36.9173 39.008V39.9862H35.3718H33.8263V33.4694V26.9525L35.6093 25.1546C36.688 24.0668 37.4258 23.2224 37.4772 23.0166C37.7139 22.0703 36.9054 21.2612 35.9602 21.4985C35.7617 21.5483 34.9929 22.2047 34.1056 23.0819L32.5899 24.5804L31.0742 23.0819C30.1868 22.2047 29.418 21.5483 29.2196 21.4985C28.2744 21.2612 27.4659 22.0703 27.7025 23.0166C27.754 23.2224 28.4917 24.0668 29.5705 25.1546L31.3535 26.9525V33.4694V39.9862H29.808H28.2625V39.008C28.2625 37.7995 27.9468 36.7243 27.3283 35.8262C26.9792 35.3194 26.5444 34.9483 25.436 34.2114C21.5044 31.5976 19.2836 27.8556 19.0307 23.4185C18.7117 17.8221 21.8951 12.6134 27.0778 10.2516C28.3091 9.69042 28.6217 9.1485 28.1925 8.31864C28.0408 8.02536 27.3199 7.54317 27.1228 7.60326C27.1036 7.60907 26.9356 7.65976 26.7495 7.71577ZM16.5836 22.4603C16.5825 24.1952 16.6348 24.958 16.8099 25.7611C17.7616 30.1271 20.1222 33.6375 23.7184 36.0339C25.8709 37.4685 25.7138 37.0136 25.7897 42.0262L25.8515 46.1063L26.2428 46.9322C27.0565 48.6497 28.5616 49.7019 30.4041 49.8412L31.3535 49.913V54.6552C31.3535 57.2635 31.3327 59.3975 31.3074 59.3975C31.282 59.3975 30.99 59.2724 30.6583 59.1194L30.0553 58.8412L19.2059 58.807L8.35655 58.7728V39.4884V20.2038H12.4708H16.585L16.5836 22.4603ZM56.8232 39.4884V58.7728L45.9738 58.807L35.1245 58.8412L34.5215 59.1194C34.1898 59.2724 33.8977 59.3975 33.8724 59.3975C33.847 59.3975 33.8263 57.2635 33.8263 54.6552V49.913L34.7757 49.8412C36.6182 49.7019 38.1232 48.6497 38.9369 46.9322L39.3282 46.1063L39.39 42.0262C39.466 37.0151 39.3099 37.4676 41.4546 36.0385C46.1766 32.8918 48.8848 27.5249 48.6181 21.8421L48.5412 20.2038H52.6823H56.8232V39.4884ZM5.88376 42.0942C5.88376 61.5607 5.86002 60.787 6.46647 61.0826C6.58801 61.1418 11.8617 61.2181 18.1859 61.2521L29.6843 61.3139L30.1563 61.6073C30.4159 61.7687 30.7776 62.1261 30.9599 62.4016C31.2849 62.8921 31.2925 62.949 31.3323 65.1683L31.3731 67.4341H29.379C26.7488 67.4341 26.5617 67.3352 26.3507 65.8325C26.2494 65.1118 25.8776 64.5285 25.2582 64.1185L24.7571 63.7867L14.4858 63.7249C8.83664 63.6909 4.11522 63.6146 3.99368 63.5554C3.38624 63.2592 3.4106 64.0948 3.4153 43.7942C3.41888 28.299 3.44967 24.7864 3.58357 24.5448C3.83134 24.0976 4.25827 23.9223 5.11101 23.9174L5.88376 23.913V42.0942ZM61.1327 24.0892C61.3201 24.1861 61.5398 24.4113 61.621 24.5896C61.7335 24.8364 61.7688 29.4277 61.7688 43.831C61.7688 64.0901 61.7934 63.2593 61.1861 63.5554C61.0645 63.6146 56.3431 63.6909 50.6939 63.7249L40.4227 63.7867L39.9216 64.1185C39.3021 64.5285 38.9304 65.1118 38.8291 65.8325C38.618 67.3352 38.431 67.4341 35.8008 67.4341H33.8066L33.8474 65.1683C33.8872 62.949 33.8949 62.8921 34.2198 62.4016C34.4022 62.1261 34.7638 61.7687 35.0235 61.6073L35.4954 61.3139L46.9939 61.2521C53.318 61.2181 58.5917 61.1418 58.7133 61.0826C59.3197 60.787 59.296 61.5607 59.296 42.0942V23.913H60.044C60.4554 23.913 60.9452 23.9923 61.1327 24.0892ZM36.8985 44.0972C36.8599 45.5638 36.8246 45.7848 36.562 46.2073C36.4007 46.467 36.043 46.8286 35.7674 47.011L35.2662 47.3427H32.5899H29.9136L29.4123 47.011C29.1367 46.8286 28.7791 46.467 28.6177 46.2073C28.3551 45.7848 28.3199 45.5638 28.2813 44.0972L28.2383 42.4589H32.5899H36.9415L36.8985 44.0972Z" fill="#262961"/>
<path fill-rule="evenodd" clip-rule="evenodd" d="M31.9853 6.77611C30.9134 7.3702 31.3619 9.0763 32.5899 9.0763C33.2164 9.0763 33.8263 8.47232 33.8263 7.8519C33.8263 6.92361 32.8004 6.32421 31.9853 6.77611ZM26.7495 7.71577C26.5634 7.77178 25.9675 8.04205 25.4253 8.31629C21.9508 10.0736 19.1869 13.0344 17.7351 16.5541L17.2753 17.6692L11.9813 17.7311C9.0697 17.7651 6.58801 17.8413 6.46647 17.9006C6.02656 18.1151 5.88376 18.6439 5.88376 20.0589V21.4099L4.7919 21.4622C3.03696 21.5461 1.9153 22.244 1.26038 23.6594L1 24.2221V43.819V63.4158L1.26038 63.9785C1.64095 64.8011 2.22168 65.4001 3.01755 65.7909L3.72007 66.1359L13.8035 66.1695L23.8868 66.2033L24.0344 66.9178C24.3151 68.277 25.2747 69.3368 26.5742 69.7227C27.4884 69.9942 37.6914 69.9942 38.6055 69.7227C39.905 69.3368 40.8647 68.277 41.1454 66.9178L41.293 66.2033L51.3763 66.1695L61.4597 66.1359L62.1622 65.7909C62.9581 65.4001 63.5388 64.8011 63.9194 63.9785L64.1797 63.4158V43.819V24.2221L63.9194 23.6594C63.2645 22.244 62.1428 21.5461 60.3878 21.4622L59.296 21.4099V20.0589C59.296 18.6439 59.1532 18.1151 58.7133 17.9006C58.5917 17.8413 56.1058 17.7651 53.1891 17.7311L47.8859 17.6692L47.4236 16.535C46.3334 13.8598 44.2569 11.2545 41.8443 9.53475C40.9331 8.88515 39.0772 7.90172 38.4205 7.72034C37.8582 7.56518 37.2444 7.82136 36.9872 8.31864C36.5241 9.2144 36.8245 9.62897 38.5526 10.479C46.2504 14.2648 48.5617 23.9902 43.3987 30.8696C42.3965 32.205 41.4308 33.0831 39.682 34.2497C38.6351 34.9478 38.1959 35.3261 37.8515 35.8262C37.2329 36.7243 36.9173 37.7995 36.9173 39.008V39.9862H35.3718H33.8263V33.4694V26.9525L35.6093 25.1546C36.688 24.0668 37.4258 23.2224 37.4772 23.0166C37.7139 22.0703 36.9054 21.2612 35.9602 21.4985C35.7617 21.5483 34.9929 22.2047 34.1056 23.0819L32.5899 24.5804L31.0742 23.0819C30.1868 22.2047 29.418 21.5483 29.2196 21.4985C28.2744 21.2612 27.4659 22.0703 27.7025 23.0166C27.754 23.2224 28.4917 24.0668 29.5705 25.1546L31.3535 26.9525V33.4694V39.9862H29.808H28.2625V39.008C28.2625 37.7995 27.9468 36.7243 27.3283 35.8262C26.9792 35.3194 26.5444 34.9483 25.436 34.2114C21.5044 31.5976 19.2836 27.8556 19.0307 23.4185C18.7117 17.8221 21.8951 12.6134 27.0778 10.2516C28.3091 9.69042 28.6217 9.1485 28.1925 8.31864C28.0408 8.02536 27.3199 7.54317 27.1228 7.60326C27.1036 7.60907 26.9356 7.65976 26.7495 7.71577ZM16.5836 22.4603C16.5825 24.1952 16.6348 24.958 16.8099 25.7611C17.7616 30.1271 20.1222 33.6375 23.7184 36.0339C25.8709 37.4685 25.7138 37.0136 25.7897 42.0262L25.8515 46.1063L26.2428 46.9322C27.0565 48.6497 28.5616 49.7019 30.4041 49.8412L31.3535 49.913V54.6552C31.3535 57.2635 31.3327 59.3975 31.3074 59.3975C31.282 59.3975 30.99 59.2724 30.6583 59.1194L30.0553 58.8412L19.2059 58.807L8.35655 58.7728V39.4884V20.2038H12.4708H16.585L16.5836 22.4603ZM56.8232 39.4884V58.7728L45.9738 58.807L35.1245 58.8412L34.5215 59.1194C34.1898 59.2724 33.8977 59.3975 33.8724 59.3975C33.847 59.3975 33.8263 57.2635 33.8263 54.6552V49.913L34.7757 49.8412C36.6182 49.7019 38.1232 48.6497 38.9369 46.9322L39.3282 46.1063L39.39 42.0262C39.466 37.0151 39.3099 37.4676 41.4546 36.0385C46.1766 32.8918 48.8848 27.5249 48.6181 21.8421L48.5412 20.2038H52.6823H56.8232V39.4884ZM5.88376 42.0942C5.88376 61.5607 5.86002 60.787 6.46647 61.0826C6.58801 61.1418 11.8617 61.2181 18.1859 61.2521L29.6843 61.3139L30.1563 61.6073C30.4159 61.7687 30.7776 62.1261 30.9599 62.4016C31.2849 62.8921 31.2925 62.949 31.3323 65.1683L31.3731 67.4341H29.379C26.7488 67.4341 26.5617 67.3352 26.3507 65.8325C26.2494 65.1118 25.8776 64.5285 25.2582 64.1185L24.7571 63.7867L14.4858 63.7249C8.83664 63.6909 4.11522 63.6146 3.99368 63.5554C3.38624 63.2592 3.4106 64.0948 3.4153 43.7942C3.41888 28.299 3.44967 24.7864 3.58357 24.5448C3.83134 24.0976 4.25827 23.9223 5.11101 23.9174L5.88376 23.913V42.0942ZM61.1327 24.0892C61.3201 24.1861 61.5398 24.4113 61.621 24.5896C61.7335 24.8364 61.7688 29.4277 61.7688 43.831C61.7688 64.0901 61.7934 63.2593 61.1861 63.5554C61.0645 63.6146 56.3431 63.6909 50.6939 63.7249L40.4227 63.7867L39.9216 64.1185C39.3021 64.5285 38.9304 65.1118 38.8291 65.8325C38.618 67.3352 38.431 67.4341 35.8008 67.4341H33.8066L33.8474 65.1683C33.8872 62.949 33.8949 62.8921 34.2198 62.4016C34.4022 62.1261 34.7638 61.7687 35.0235 61.6073L35.4954 61.3139L46.9939 61.2521C53.318 61.2181 58.5917 61.1418 58.7133 61.0826C59.3197 60.787 59.296 61.5607 59.296 42.0942V23.913H60.044C60.4554 23.913 60.9452 23.9923 61.1327 24.0892ZM36.8985 44.0972C36.8599 45.5638 36.8246 45.7848 36.562 46.2073C36.4007 46.467 36.043 46.8286 35.7674 47.011L35.2662 47.3427H32.5899H29.9136L29.4123 47.011C29.1367 46.8286 28.7791 46.467 28.6177 46.2073C28.3551 45.7848 28.3199 45.5638 28.2813 44.0972L28.2383 42.4589H32.5899H36.9415L36.8985 44.0972Z" stroke="#262961" stroke-width="0.736086" mask="url(#path-2-outside-1_24_600)"/>
<path d="M20.8745 13.6152C24.3709 9.19864 34.5289 2.83145 44.2452 13.4311" stroke="#262961" stroke-width="3.49641" stroke-linecap="round"/>
</svg>
