<svg width="79" height="70" viewBox="0 0 79 70" fill="none" xmlns="http://www.w3.org/2000/svg">
<path d="M5.50921 24.1705C1.15128 42.1733 22.3611 63.2669 39.3234 67.7227C70.0363 75.7905 73.5691 61.1964 77.927 43.1936C82.285 25.1908 72.0671 6.9846 55.1048 2.52886C25.0385 -5.36913 9.86713 6.16772 5.50921 24.1705Z" fill="#B3EDF9"/>
<path fill-rule="evenodd" clip-rule="evenodd" d="M29.2396 6.03584C26.3655 6.31131 24.1878 6.73762 21.9449 7.464C17.036 9.05363 13.0533 11.4801 9.34947 15.1376C4.25391 20.1694 1.17888 26.3683 0.166149 33.6501C-0.0802645 35.4217 -0.04614 40.1612 0.225743 41.9339C1.33714 49.1804 4.31734 55.1065 9.34947 60.0755C11.7641 62.46 14.2941 64.3091 17.1417 65.7705C27.2302 70.9484 39.4993 70.2978 48.9206 64.0853C58.6839 57.6473 64.1227 46.4589 63.1144 34.8865C62.8847 32.2504 62.1337 28.7344 61.6651 28.1016C60.7898 26.9195 59.143 26.9269 58.4177 28.1161C58.0123 28.7807 58.0107 29.1648 58.4065 30.7244C59.0498 33.2595 59.2145 34.6636 59.2137 37.6065C59.2129 40.6127 59.0508 41.9234 58.3426 44.6503C55.8392 54.2878 48.0599 62.016 38.4382 64.4238C35.8303 65.0764 34.5122 65.2319 31.5887 65.2319C28.7345 65.2319 27.3558 65.0751 24.974 64.4799C18.7433 62.9229 13.3116 59.3315 9.49004 54.2419C6.66612 50.4807 4.96113 46.4269 4.18356 41.6248C3.87644 39.7276 3.87632 35.4869 4.18332 33.5883C5.17639 27.4488 7.76602 22.3342 12.0436 18.064C16.339 13.7758 21.4423 11.1917 27.5705 10.202C28.5688 10.0408 29.6375 9.98216 31.5887 9.98154C34.5317 9.9808 35.9358 10.1455 38.4709 10.7888C40.1039 11.2032 40.5562 11.1881 41.2018 10.6982C42.2829 9.87769 42.2316 8.37275 41.0936 7.53015C40.4742 7.07144 37.0156 6.3259 34.3706 6.08097C33.1114 5.96438 30.2484 5.93928 29.2396 6.03584ZM51.0001 6.08468C50.6144 6.2438 43.1386 13.6784 42.8865 14.1536C42.762 14.3881 42.5396 16.1593 42.2033 19.5938L41.7047 24.6862L35.7279 30.6827C29.2537 37.1784 29.4563 36.9315 29.6689 38.0641C29.783 38.6727 30.5226 39.4123 31.1311 39.5264C32.2638 39.739 32.0169 39.9417 38.5125 33.467L44.5091 27.4899L49.6003 26.9922C53.0305 26.6569 54.8052 26.4345 55.0404 26.3102C55.2323 26.2088 57.124 24.3832 59.244 22.2533C62.5976 18.8841 63.1097 18.3198 63.1842 17.9126C63.2937 17.3125 63.1859 16.7848 62.8601 16.3273C62.3497 15.6106 62.0045 15.5316 58.0476 15.2267C56.0415 15.0721 54.3655 14.9118 54.3229 14.8704C54.2805 14.8289 54.122 13.1816 53.9707 11.2095C53.6689 7.27409 53.5682 6.83381 52.8545 6.32565C52.4021 6.00345 51.4855 5.88438 51.0001 6.08468ZM50.3115 15.063C50.5859 18.5441 50.6511 18.6092 54.1293 18.8836C55.3663 18.9811 56.4773 19.0749 56.5981 19.0917C56.7541 19.1135 56.3045 19.6343 55.0501 20.8853L53.2823 22.6483L49.5899 23.022C47.5591 23.2278 45.8755 23.3738 45.8484 23.3468C45.8215 23.3198 45.9675 21.6362 46.1732 19.6054L46.547 15.913L48.31 14.1452C49.561 12.8908 50.0817 12.4412 50.1036 12.5971C50.1204 12.7179 50.214 13.8276 50.3115 15.063ZM28.9305 15.9312C22.1068 16.8156 16.03 20.889 12.6201 26.8643C11.8381 28.2346 10.9699 30.297 10.5886 31.6899C9.95851 33.9913 9.89002 34.5714 9.89002 37.6065C9.89002 40.6303 9.96 41.2287 10.5768 43.4794C11.0831 45.327 12.1534 47.6964 13.2575 49.4141C16.1232 53.8727 20.6674 57.2019 25.9013 58.6773C29.9838 59.8283 35.4204 59.5478 39.378 57.9824C45.9485 55.3834 50.7478 50.0758 52.6595 43.294C53.3822 40.7304 53.5689 36.8213 53.1003 34.0641C52.7424 31.9594 52.5651 31.4283 52.0551 30.934C51.6684 30.5591 51.5253 30.5032 50.8447 30.4613C50.1908 30.4211 50.0087 30.458 49.6527 30.7028C49.1534 31.0461 48.7746 31.7062 48.7746 32.2326C48.7746 32.441 48.8905 33.1097 49.0322 33.7182C49.4065 35.3264 49.4983 38.7382 49.2137 40.4723C48.1397 47.0161 43.5055 52.4449 37.2131 54.5305C34.9816 55.2703 33.6224 55.4545 30.9925 55.3738C28.0639 55.2838 26.3694 54.8801 23.8613 53.6746C18.6439 51.1671 14.9288 46.2449 13.98 40.583C13.7243 39.0576 13.7243 36.1555 13.98 34.63C15.2303 27.1695 21.2045 21.2347 28.723 19.9845C30.4531 19.6968 33.8609 19.7869 35.4771 20.1631C36.812 20.4738 37.1703 20.4825 37.7287 20.2175C38.3555 19.92 38.7598 19.2588 38.7598 18.5312C38.7598 16.9982 37.8744 16.4706 34.4705 15.9753C33.6409 15.8547 29.7596 15.8236 28.9305 15.9312ZM29.5291 25.92C27.04 26.3718 25.0083 27.4549 23.1768 29.3066C21.5846 30.9163 20.5592 32.7455 20.005 34.9652C19.7113 36.1412 19.7113 39.0719 20.005 40.2479C20.5689 42.5062 21.5916 44.3131 23.2369 45.9584C24.8822 47.6037 26.689 48.6264 28.9474 49.1903C30.1227 49.4838 33.0542 49.484 34.2288 49.1907C36.5266 48.6168 38.2395 47.6437 39.9328 45.9506C42.1953 43.688 43.3529 41.0683 43.3833 38.1423C43.3974 36.7741 43.2947 36.5048 42.545 35.9451C42.0663 35.5876 40.8935 35.5876 40.4147 35.9451C39.7499 36.4415 39.5998 36.7736 39.4877 37.9974C39.4295 38.6324 39.2714 39.5137 39.1365 39.9557C38.4142 42.323 36.3129 44.4114 33.8761 45.1834C33.1753 45.4055 32.7282 45.4565 31.5269 45.4517C30.2461 45.4465 29.9192 45.4013 29.1363 45.1205C27.8401 44.6555 26.9624 44.0986 25.9652 43.1085C22.9034 40.0687 22.9289 35.1376 26.0222 32.0383C27.6161 30.4414 29.5065 29.7002 31.9967 29.6957C33.3385 29.6934 33.7074 29.5705 34.2273 28.9525C35.1092 27.9046 34.5217 26.2493 33.1342 25.8728C32.4804 25.6954 30.6342 25.7196 29.5291 25.92Z" fill="#262961"/>
</svg>
