<svg width="383" height="277" viewBox="0 0 383 277" fill="none" xmlns="http://www.w3.org/2000/svg">
<path d="M292.457 25.987C300.117 37.5231 304.713 53.9215 304.063 76.5169C304.017 78.233 302.903 79.7584 301.278 80.2828C282.289 85.9555 230.383 86.4799 220.494 82.714C211.115 79.1387 216.269 33.9002 234.004 14.8323C237.858 10.7327 242.918 8.06324 248.35 7.01451C248.582 6.96684 248.815 6.91917 249.047 6.8715C265.854 3.91598 282.892 11.4955 292.457 25.987Z" fill="#FFFEC8"/>
<path d="M292.457 25.987C300.117 37.5231 304.713 53.9215 304.063 76.5169C304.017 78.233 302.903 79.7584 301.278 80.2828C282.289 85.9555 230.383 86.4799 220.494 82.7139C211.115 79.1387 216.269 33.9002 234.004 14.8323C237.858 10.7327 242.918 8.06324 248.35 7.01451C248.582 6.96684 248.815 6.91917 249.047 6.8715C265.854 3.91598 282.892 11.4955 292.457 25.987Z" stroke="#2B2D60" stroke-width="1.8571" stroke-miterlimit="10"/>
<path d="M67.0918 179.056C61.3812 168.235 61.9848 167.377 46.8494 166.042C31.714 164.707 10.8215 164.135 6.82876 155.507C2.83598 146.879 11.518 143.208 27.0712 145.401C42.5781 147.594 49.6815 147.499 49.6815 147.499C49.6815 147.499 40.6281 139.299 44.1566 135.724C47.6851 132.149 54.3707 144.877 63.5633 148.833C72.756 152.79 74.0096 155.269 75.0774 157.986C76.1452 160.703 79.2095 168.425 79.2095 168.425L67.0918 179.056Z" fill="#FCB28D" stroke="#2B2D60" stroke-width="1.39283" stroke-miterlimit="10"/>
<path d="M114.542 263.057C131.256 281.934 145.927 296.664 150.106 296.664C158.788 296.664 182.512 263.677 193.376 247.898C196.812 242.893 198.948 239.651 198.948 239.651L196.859 226.256L192.68 199.465C192.68 199.465 190.916 202.087 188.177 206.235C178.334 220.964 155.631 254.81 152.613 257.289C145.417 252.045 81.2073 163.57 81.2073 163.57C81.2073 163.57 54.5578 178.777 52.0043 182.876C50.3793 185.451 85.6179 230.451 114.542 263.057Z" fill="#43459A" stroke="#2B2D60" stroke-width="1.39283" stroke-miterlimit="10" stroke-linecap="round" stroke-linejoin="round"/>
<path d="M99.2254 718.34C114.546 721.105 176.527 721.724 186.788 722.106C194.356 651.888 214.552 406.39 216.409 375.214C218.962 397.094 221.237 425.934 223.187 457.73C229.501 560.124 232.751 692.932 232.751 721.534C238.601 722.344 259.819 722.201 276.161 721.963C277.182 721.963 278.157 721.915 279.086 721.915C289.021 721.724 310.517 721.963 310.517 721.963C310.517 721.963 304.621 541.581 289.532 409.87C286.607 384.366 283.125 360.674 278.993 340.415C276.068 326.114 272.818 313.482 269.243 303.185L266.783 296.702C263.486 288.693 259.865 282.496 255.826 278.492C255.269 277.92 254.711 277.396 254.154 276.967L180.474 285.928C180.474 285.928 179.499 292.173 177.967 301.755C177.734 303.28 177.456 304.949 177.177 306.665C177.085 307.284 176.992 307.952 176.852 308.572C172.07 338.889 163.945 390.182 162.367 400.193C160.231 414.541 104.518 687.116 99.2254 718.34Z" fill="#00C3EB" stroke="#2B2D60" stroke-width="1.39283" stroke-miterlimit="10" stroke-linecap="round" stroke-linejoin="round"/>
<path d="M225.324 224.771C229.085 220.338 274.77 152.885 275.466 128.764C275.512 127.906 275.466 127.096 275.373 126.333C273.841 114.225 274.027 105.406 274.584 97.779C274.816 94.3468 275.187 91.1053 275.466 87.9114V87.8638C275.698 85.4803 275.884 83.1445 275.977 80.761L273.377 83.5258L254.945 103.166C254.945 103.166 254.991 104.262 254.991 106.026C255.131 112.89 255.27 130.194 254.016 136.391C253.32 139.871 238.835 146.402 238.835 146.402C238.835 146.402 233.263 150.835 228.853 168.235C224.488 185.634 221.424 229.347 225.324 224.771Z" fill="#FCB28D"/>
<path d="M225.324 224.771C229.085 220.338 274.77 152.885 275.466 128.764C275.512 127.906 275.466 127.096 275.373 126.333C273.841 114.225 274.027 105.406 274.584 97.779C274.816 94.3468 275.187 91.1053 275.466 87.9114V87.8638C275.698 85.4803 275.884 83.1445 275.977 80.761L273.377 83.5258L254.945 103.166C254.945 103.166 254.991 104.262 254.991 106.026C255.131 112.89 255.27 130.194 254.016 136.391C253.32 139.871 238.835 146.402 238.835 146.402C238.835 146.402 233.263 150.835 228.853 168.235C224.488 185.634 221.424 229.347 225.324 224.771Z" fill="#FCB28D" stroke="#2B2D60" stroke-width="1.39283" stroke-miterlimit="10"/>
<path d="M177.083 304.953C183.908 313.104 192.868 319.73 210.557 317.49C216.918 316.679 235.071 310.625 246.91 322.781C251.646 327.643 255.963 342.516 260.792 358.533C261.581 361.06 262.324 363.634 263.16 366.208C269.892 387.803 277.877 408.873 289.438 408.205C284.47 364.683 277.877 326.404 269.149 301.52L266.688 295.085C263.392 287.077 259.77 280.879 255.731 276.875L177.083 304.953Z" fill="#43459A"/>
<path d="M180.478 284.451C180.431 284.356 180.431 284.308 180.385 284.213C181.221 281.019 182.01 278.015 182.846 275.251C188.417 255.801 192.921 246.744 192.735 243.646C192.549 240.118 189.113 210.706 191.992 201.506C194.87 192.353 211.538 161.129 218.177 156.839C224.816 152.549 238.884 146.304 238.884 146.304C238.884 146.304 222.356 191.209 226.534 220.288C229.97 215.235 275.33 125.425 275.33 125.425C293.576 113.746 314.561 104.164 333.782 137.009C355.046 173.381 373.06 209.324 376.913 235.399C378.863 248.413 288.422 321.109 288.422 321.109C288.422 321.109 271.43 299.229 269.712 293.556C274.169 286.453 335.825 231.871 335.825 231.871C335.825 231.871 321.85 202.554 311.032 184.44C308.293 179.864 305.74 176.002 303.65 173.524C303.604 173.571 303.558 173.667 303.465 173.714C295.572 183.487 254.994 269.292 254.066 275.251C254.019 275.489 253.88 275.775 253.648 276.061H255.041C259.405 281.066 264.28 288.503 266.74 294.986C269.201 301.469 214.092 308.858 210.795 306.188C207.499 303.519 206.292 297.655 206.292 297.655C206.292 297.655 205.085 303.9 202.02 306.76C198.956 309.62 178.853 307.094 177.182 304.949C176.067 303.614 178.482 292.698 180.478 284.451Z" fill="#00C3EB" stroke="#2B2D60" stroke-width="1.39283" stroke-miterlimit="10" stroke-linecap="round" stroke-linejoin="round"/>
<path d="M226.528 220.291C226.621 220.291 231.264 220.196 250.624 197.982C270.17 175.577 295.148 116.228 292.316 116.181C289.484 116.133 278.016 123.712 275.323 125.381L275.277 125.476L272.724 130.386L226.528 220.291Z" fill="#43459A" stroke="#2B2D60" stroke-width="1.39283" stroke-miterlimit="10" stroke-linecap="round" stroke-linejoin="round"/>
<path d="M238.879 146.403C236.232 147.595 228.897 150.932 227.225 151.933C224.115 153.553 213.343 193.167 226.529 220.291C226.529 220.291 229.036 191.641 231.729 175.958C234.421 160.275 238.879 146.403 238.879 146.403Z" fill="#43459A" stroke="#2B2D60" stroke-width="1.39283" stroke-miterlimit="10" stroke-linecap="round" stroke-linejoin="round"/>
<path d="M279.272 57.5009C288.882 49.1111 298.91 63.6502 279.689 71.9447C261.768 79.7148 279.272 57.5009 279.272 57.5009Z" fill="#FCB28D"/>
<path d="M274.212 106.31L255.084 110.028L255.688 102.305L275.977 85.8118L274.212 106.31Z" fill="#2B2D60"/>
<path d="M228.199 61.1234C228.199 86.0546 237.253 106.314 252.295 106.314C267.338 106.314 280.523 85.7209 280.523 60.8374C280.523 35.9539 272.073 20.8903 257.031 20.8903C241.988 20.8903 228.199 30.5672 228.199 61.1234Z" fill="#FCB28D"/>
<path d="M255.874 19.5546L254.156 26.4667C254.156 26.4667 231.267 40.863 227.228 49.4435C223.189 57.9764 231.453 24.5599 231.639 24.1786C231.824 23.7972 246.217 10.0684 246.217 10.0684L255.874 19.5546Z" fill="#FFFEC8"/>
<path d="M276.208 84.7221C274.211 90.6331 264.183 107.508 251.926 106.269C241.48 105.22 236.791 97.2592 233.448 90.8238C225.602 74.6161 229.269 48.0642 229.269 48.0642C232.705 40.9137 244.219 32.6192 253.087 26.4698" stroke="#2B2D60" stroke-width="1.09978" stroke-miterlimit="10" stroke-linecap="round" stroke-linejoin="round"/>
<path d="M265.436 137.822C264.275 138.299 263.115 138.824 261.954 139.348L260.236 140.158C259.679 140.397 259.076 140.683 258.565 141.016L259.215 141.255L257.126 136.917C257.079 136.821 256.986 136.774 256.893 136.821C256.801 136.869 256.801 136.964 256.801 137.06L258.333 141.636C258.426 141.874 258.658 141.97 258.89 141.922L258.983 141.874C259.586 141.684 260.143 141.398 260.747 141.112L262.465 140.254C263.579 139.682 264.74 139.11 265.854 138.538C266.04 138.442 266.133 138.156 266.04 137.965C265.854 137.822 265.622 137.727 265.436 137.822Z" fill="#2B2D60"/>
<path d="M254.02 30.1843C254.02 30.1843 252.348 23.9396 253.184 19.411C254.019 14.8823 284.012 6.87385 288.701 41.768C285.962 53.9714 279.508 58.1664 279.508 58.1664C279.508 58.1664 258.755 48.9661 254.02 30.1843Z" fill="#FFFEC8"/>
<path d="M283.496 60.0248C281.313 59.1191 279.131 58.118 277.089 56.9263C274.999 55.7822 273.003 54.4951 271.099 53.065C267.292 50.2049 263.903 46.7726 261.21 42.8161C258.471 38.9072 256.382 34.5215 254.943 29.8976C253.503 25.2736 252.714 20.459 252.389 15.5967C252.389 15.406 252.25 15.3107 252.064 15.3107C251.925 15.3107 251.786 15.4537 251.786 15.6444C251.878 18.0755 252.11 20.5543 252.435 22.9855C252.807 25.4166 253.318 27.8001 254.014 30.1836C255.407 34.9029 257.496 39.4315 260.282 43.4834C263.067 47.5354 266.549 51.0629 270.449 53.9231C272.399 55.3532 274.489 56.6403 276.578 57.7843C278.714 58.9284 280.942 59.8818 283.171 60.7399C283.356 60.8352 283.588 60.6922 283.635 60.5015C283.774 60.3108 283.681 60.0725 283.496 60.0248Z" fill="#2B2D60"/>
<path d="M246.213 73.5679C245.284 77.3337 243.613 79.6219 242.592 80.5753L246.213 73.5679Z" fill="#FCB28D"/>
<path d="M246.213 73.5679C245.284 77.3337 243.613 79.6219 242.592 80.5753" stroke="#2B2D60" stroke-width="1.39283" stroke-miterlimit="10" stroke-linecap="round" stroke-linejoin="round"/>
<path d="M250.912 90.7806C250.955 90.9974 250.955 91.2141 250.955 91.4308C250.955 93.8146 249.097 95.7217 246.776 95.7217C244.454 95.7217 242.596 93.8146 242.596 91.4308C242.596 91.2141 242.596 90.9974 242.639 90.7806C243.609 91.0407 244.918 91.3007 246.396 91.3007C248.253 91.3441 249.815 91.0407 250.912 90.7806Z" fill="white" stroke="#2B2D60" stroke-width="1.39283" stroke-miterlimit="10" stroke-linecap="round" stroke-linejoin="round"/>
<path d="M268.358 66.7943C266.594 62.2181 263.019 59.7394 258.887 59.93C254.755 60.1207 252.387 63.8865 251.598 66.7943" stroke="#2B2D60" stroke-width="1.39283" stroke-miterlimit="10" stroke-linecap="round" stroke-linejoin="round"/>
<path d="M241.986 66.3184C241.801 62.3142 234.419 55.4975 228.662 63.2199" stroke="#2B2D60" stroke-width="1.39283" stroke-miterlimit="10" stroke-linecap="round" stroke-linejoin="round"/>
<path d="M257.542 66.7933C256.183 66.7933 255.081 65.2567 255.081 63.3611C255.081 61.4656 256.183 59.929 257.542 59.929C258.901 59.929 260.003 61.4656 260.003 63.3611C260.003 65.2567 258.901 66.7933 257.542 66.7933Z" fill="#2B2D60"/>
<path d="M232.893 66.3192C231.534 66.3192 230.432 64.7825 230.432 62.887C230.432 60.9914 231.534 59.4547 232.893 59.4547C234.252 59.4547 235.354 60.9914 235.354 62.887C235.354 64.7825 234.252 66.3192 232.893 66.3192Z" fill="#2B2D60"/>
<path d="M229.452 56.3588C231.169 56.5018 234.744 56.7878 236.648 56.9785C237.437 57.0262 238.041 57.0262 238.459 56.9308C239.573 56.6925 239.387 55.1193 238.273 55.1193C238.227 55.1193 238.134 55.1193 238.087 55.1193V55.7867H237.855V55.1193C237.623 55.1193 237.344 55.1193 237.112 55.1193V55.453H236.88V55.0716C236.369 55.0716 235.812 55.0716 235.162 55.0239C233.305 55.0239 230.798 55.6437 229.498 56.025C229.22 56.0727 229.22 56.3588 229.452 56.3588Z" fill="#2B2D60"/>
<path d="M265.624 55.883C263.581 55.883 259.356 55.883 257.081 55.9306C256.153 55.9306 255.456 55.8353 254.946 55.6923C253.646 55.2633 254.017 53.3088 255.364 53.3564C255.456 53.3564 255.503 53.3564 255.596 53.3564L255.503 54.2145L255.781 54.2622L255.874 53.4041C256.153 53.4041 256.431 53.4518 256.756 53.4518L256.71 53.9285L256.989 53.9762L257.035 53.4995C257.639 53.5471 258.289 53.5948 259.031 53.6425C261.213 53.8331 264.092 54.8342 265.578 55.4539C265.903 55.5016 265.856 55.883 265.624 55.883Z" fill="#2B2D60"/>
<path d="M279.502 58.168C282.66 55.0218 289.067 53.687 290.413 58.7877C292.316 66.0335 281.499 71.7539 279.735 71.9446C279.41 73.5653 276.438 84.0527 276.438 84.0527" stroke="#2B2D60" stroke-width="1.09978" stroke-miterlimit="10" stroke-linecap="round" stroke-linejoin="round"/>
<path d="M80.0068 180.677C78.7504 180.677 77.7319 179.632 77.7319 178.342C77.7319 177.052 78.7504 176.006 80.0068 176.006C81.2632 176.006 82.2817 177.052 82.2817 178.342C82.2817 179.632 81.2632 180.677 80.0068 180.677Z" fill="#43459A" stroke="#2B2D60" stroke-width="1.39283" stroke-miterlimit="10" stroke-linecap="round" stroke-linejoin="round"/>
<path d="M32.9301 151.268C24.8516 151.506 9.3448 146.549 9.3448 146.549L32.9301 151.268Z" fill="#FCB28D"/>
<path d="M32.9301 151.268C24.8516 151.506 9.3448 146.549 9.3448 146.549" stroke="#2B2D60" stroke-width="1.39283" stroke-miterlimit="10" stroke-linecap="round" stroke-linejoin="round"/>
<path d="M31.0209 157.078C23.3139 156.363 8.27138 152.502 5.90358 151.262L31.0209 157.078Z" fill="#FCB28D"/>
<path d="M31.0209 157.078C23.3139 156.363 8.27138 152.502 5.90358 151.262" stroke="#2B2D60" stroke-width="1.39283" stroke-miterlimit="10" stroke-linecap="round" stroke-linejoin="round"/>
<path d="M204.897 214.956C194.172 211.285 191.665 202.8 191.665 202.8L204.897 214.956Z" fill="#00C3EB"/>
<path d="M204.897 214.956C194.172 211.285 191.665 202.8 191.665 202.8" stroke="#2B2D60" stroke-width="1.39283" stroke-miterlimit="10" stroke-linecap="round" stroke-linejoin="round"/>
<path d="M256.291 6.25504C253.877 6.25504 251.463 6.44571 249.002 6.87474C248.77 6.92241 248.538 6.97008 248.306 7.01775C242.874 8.06648 237.813 10.736 233.96 14.8356C216.224 33.8558 211.071 79.1419 220.449 82.7171C222.445 83.4798 226.206 84.0519 231.035 84.4809C231.685 86.7214 232.474 88.8665 233.402 90.821C233.82 91.679 234.285 92.5371 234.795 93.3951C238.927 101.404 244.916 106.314 252.298 106.314C252.623 106.314 252.948 106.314 253.273 106.266C253.831 106.266 254.434 106.218 254.991 106.123C255.084 113.083 255.27 130.196 254.016 136.298C253.32 139.778 238.834 146.308 238.834 146.308C238.834 146.308 237.581 146.88 235.677 147.739C232.474 149.216 228.388 151.075 227.181 151.838C223.885 153.507 220.542 155.318 218.128 156.843C211.953 160.848 197.003 188.162 192.685 199.317C192.639 199.365 190.921 201.987 188.182 206.086C178.339 220.816 155.636 254.661 152.618 257.14C145.422 252.04 81.2126 163.565 81.2126 163.565C81.2126 163.565 79.9591 164.28 78.0092 165.424C77.0341 162.945 75.7342 159.608 75.0842 158.035C74.0164 155.318 72.7164 152.839 63.5702 148.883C55.4918 145.403 49.3633 135.154 45.6027 135.154C45.092 135.154 44.6277 135.344 44.2098 135.773C40.6813 139.349 49.7347 147.548 49.7347 147.548C49.7347 147.548 49.6883 147.548 49.6419 147.548C48.6669 147.548 41.5634 147.452 27.1709 145.45C24.1995 145.021 21.5067 144.831 19.0925 144.831C14.9604 144.831 11.7105 145.45 9.43558 146.594C7.34631 147.691 6.13919 149.264 5.99991 151.314C5.90704 152.553 6.23206 153.983 6.92847 155.556C10.9212 164.185 31.8601 164.757 46.9491 166.091C59.0667 167.14 61.1095 167.903 64.3594 173.766C58.5096 177.484 53.1704 181.155 52.1025 182.919C50.4776 185.541 85.7161 230.493 114.687 263.099C131.401 281.976 146.072 296.706 150.251 296.706C158.143 296.706 178.571 269.248 190.364 252.469C188.553 257.617 185.907 265.006 182.936 275.35C182.146 278.115 181.311 281.118 180.475 284.312C180.521 284.407 180.521 284.455 180.568 284.55C178.571 292.75 176.157 303.714 177.225 305.048C177.318 305.191 177.457 305.334 177.55 305.43C177.504 305.811 177.411 306.24 177.364 306.621C177.271 307.241 177.179 307.908 177.039 308.528C172.257 338.894 164.132 390.139 162.554 400.149C160.279 414.593 104.612 687.12 99.273 718.344C104.148 719.202 113.805 719.869 124.947 720.394C123.601 729.737 121.094 746.993 119.933 752.046C118.308 759.102 92.0303 789.515 92.7267 790.611C92.7267 790.611 61.3416 793.09 63.8952 796.284C66.4023 799.43 80.0984 805.436 95.2802 807.725C96.7195 807.963 98.0659 808.058 99.3194 808.058C111.251 808.058 115.151 798.81 120.955 792.899C125.272 788.514 131.587 786.941 137.529 784.462C137.529 784.462 131.726 812.301 133.026 813.207C133.397 813.493 133.862 813.588 134.326 813.588C135.44 813.588 136.508 813.064 136.508 813.064C136.508 813.064 145.004 785.034 147.511 776.406C150.9 767.968 145.979 760.961 143.751 756.766C143.101 752.762 140.733 746.517 140.733 746.517L146.118 721.252C164.411 721.776 181.821 722.015 186.835 722.205C194.403 651.988 214.599 406.489 216.456 375.313C219.01 397.194 221.285 426.034 223.235 457.829C229.549 560.224 232.799 693.031 232.799 721.633C236.095 722.11 244.266 722.253 253.691 722.253C259.355 722.253 265.484 722.205 271.287 722.11L270.127 748.138C267.805 749.615 265.67 751.999 265.252 755.765C264.88 759.197 265.391 762.581 266.366 765.775L265.809 764.584C266.227 772.02 265.809 805.913 265.809 805.913H269.291L274.212 782.412L270.452 774.499C271.427 776.024 272.494 777.407 273.516 778.646C278.112 784.033 286.794 806.199 291.669 808.726C293.851 809.87 299.608 810.537 305.319 810.537C312.329 810.537 319.34 809.488 319.665 806.962C320.268 802.386 313.072 798.286 313.072 798.286C313.072 798.286 307.083 786.464 304.251 780.505L299.933 775.023C299.005 764.155 287.769 746.04 287.769 746.04L288.326 721.967C288.698 721.967 289.116 721.967 289.487 721.967C299.422 721.967 310.519 722.062 310.519 722.062C310.519 722.062 304.622 541.68 289.533 409.969C289.487 409.445 289.394 408.873 289.348 408.348C289.348 408.348 289.348 408.348 289.394 408.348C287.305 390.091 284.937 372.787 282.244 356.961C282.848 356.102 283.405 355.149 283.869 354.1C284.148 353.385 284.426 352.67 284.658 351.908C287.676 341.182 286.005 336.034 286.005 336.034C286.005 336.034 278.53 321.065 277.741 318.205C277.416 316.966 279.226 314.487 281.455 312.056C285.216 317.156 288.419 321.256 288.419 321.256C288.419 321.256 378.86 248.417 376.91 235.355C373.057 209.28 355.043 173.337 333.779 136.965C323.936 120.185 313.676 114.465 303.508 114.465C299.84 114.465 296.126 115.228 292.505 116.467C292.458 116.277 292.412 116.181 292.319 116.181C292.319 116.181 292.319 116.181 292.273 116.181C289.441 116.181 277.973 123.713 275.327 125.429L275.28 125.524C274.398 118.04 274.119 111.796 274.212 106.314L275.977 85.8633L275.698 86.1017C275.93 85.625 276.069 85.1483 276.209 84.7193C276.302 84.5286 276.348 84.2902 276.441 84.0995C286.376 83.2892 295.383 82.0498 301.233 80.286C302.858 79.8093 303.972 78.2839 304.019 76.5201C304.669 53.9247 300.072 37.5263 292.412 25.9903C284.241 13.5962 270.591 6.25504 256.291 6.25504ZM268.78 300.567L266.691 295.038C266.227 293.798 265.67 292.559 265.066 291.272C262.234 285.075 259.123 280.165 255.734 276.828L255.641 276.876C255.409 276.637 255.223 276.351 254.991 276.113H253.598C253.831 275.827 253.97 275.541 254.016 275.302C254.945 269.296 295.523 183.491 303.415 173.766C303.462 173.671 303.508 173.623 303.601 173.575C305.69 176.054 308.244 179.916 310.983 184.492C321.847 202.606 335.775 231.923 335.775 231.923C335.775 231.923 274.166 286.457 269.709 293.56C270.08 294.799 271.241 296.897 272.773 299.328C271.287 299.995 270.034 300.329 268.78 300.567ZM256.291 0.0579834V6.25504V0.0579834C272.773 0.0579834 288.141 8.44784 297.473 22.5104C306.479 36.1439 310.751 54.4014 310.101 76.7108C309.962 81.144 307.083 84.9576 302.951 86.197C297.008 87.9608 288.744 89.1049 281.687 89.8199L280.248 106.6C280.201 109.364 280.248 112.129 280.434 114.942C287.351 110.842 290.091 109.936 292.319 109.936C292.365 109.936 292.412 109.936 292.458 109.936C292.505 109.936 292.505 109.936 292.551 109.936C296.358 108.792 299.98 108.22 303.508 108.22C310.147 108.22 316.415 110.223 322.126 114.227C328.254 118.469 333.732 124.857 338.932 133.724C365.489 179.105 379.417 211.091 382.899 234.45C383.549 238.978 381.321 244.794 368.228 258.57C360.846 266.341 350.446 276.16 337.354 287.792C315.161 307.479 292.412 325.785 292.18 325.928C291.112 326.786 289.858 327.215 288.605 327.262C289.533 329.169 290.508 331.171 291.437 332.983C291.576 333.269 291.669 333.555 291.808 333.841C292.18 334.985 293.944 341.42 290.555 353.433C290.323 354.291 289.998 355.149 289.673 356.007C289.58 356.293 289.441 356.627 289.301 356.913C289.116 357.294 288.93 357.676 288.744 358.057C291.205 372.739 293.48 389.328 295.569 407.443C295.569 407.633 295.615 407.824 295.615 408.062V408.11C295.662 408.444 295.708 408.777 295.708 409.111C310.658 539.535 316.647 719.87 316.694 721.681C316.74 723.349 316.136 725.018 314.976 726.21C313.861 727.401 312.283 728.069 310.658 728.069H310.612C310.519 728.069 302.672 727.973 294.362 727.973L293.99 744.133C296.823 748.9 304.205 762.105 305.829 772.306L309.079 776.406C309.358 776.787 309.637 777.168 309.822 777.597C312.004 782.174 316.136 790.373 317.854 793.757C321.011 795.903 326.768 800.86 325.84 807.677C325.283 811.729 322.126 814.398 316.415 815.638C312.701 816.448 308.429 816.591 305.504 816.591C302.022 816.591 293.433 816.353 289.116 814.112C285.216 812.062 282.059 806.676 277.323 797.523L275.327 807.105C274.723 809.965 272.262 812.015 269.43 812.015H265.948C264.323 812.015 262.791 811.347 261.63 810.156C260.516 808.964 259.866 807.391 259.913 805.722C259.913 805.389 260.33 771.972 259.913 764.87C259.913 764.679 259.913 764.488 259.913 764.298C259.263 761.151 259.077 758.005 259.402 755.002C259.82 750.998 261.538 747.565 264.37 744.896L265.112 728.307C261.027 728.355 257.22 728.355 253.831 728.355C242.456 728.355 235.352 728.116 232.102 727.687C229.131 727.258 226.903 724.636 226.903 721.538C226.903 696.13 223.931 564.371 217.385 458.163C217.246 455.541 217.06 452.967 216.874 450.393C209.864 537.199 198.442 672.104 192.964 722.825C192.639 725.971 190.039 728.355 186.975 728.355C186.882 728.355 186.835 728.355 186.743 728.355C184.607 728.259 179.964 728.164 174.114 728.069C167.522 727.926 159.536 727.783 151.04 727.544L147.093 746.04C147.836 748.138 148.951 751.57 149.554 754.573C149.647 754.764 149.74 754.954 149.879 755.145C152.433 759.721 157.215 768.254 153.315 778.36C150.761 787.131 142.451 814.589 142.358 814.875C141.847 816.496 140.733 817.878 139.247 818.593C138.69 818.879 136.74 819.737 134.419 819.737C132.701 819.737 131.076 819.261 129.73 818.307C126.201 815.828 126.758 811.634 127.269 807.534C127.594 805.007 128.151 801.623 128.894 797.476C129.08 796.475 129.265 795.426 129.451 794.425C127.826 795.235 126.387 796.189 125.272 797.333C124.158 798.477 122.998 799.859 121.837 801.337C117.426 806.771 111.391 814.255 99.3658 814.255C97.7873 814.255 96.1624 814.112 94.4445 813.874C87.1554 812.778 79.4484 810.728 72.7628 808.154C65.8915 805.484 61.3416 802.815 59.2524 800.24C57.6739 798.286 57.3024 795.617 58.2774 793.328C59.8095 789.705 63.7094 788.561 67.6094 787.703C70.2557 787.131 73.7378 786.559 78.0092 785.987C82.2805 785.415 86.5054 785.034 89.1982 784.748C89.4768 784.319 89.8482 783.842 90.2196 783.318C91.7517 781.22 93.8874 778.503 96.3945 775.357C100.155 770.59 104.38 765.156 107.909 760.341C113.108 753.191 114.037 750.998 114.176 750.569C114.873 747.518 116.266 738.842 118.123 726.257C108.651 725.733 102.152 725.161 98.3445 724.446C95.0481 723.874 92.866 720.632 93.4231 717.295C96.3945 699.896 114.78 608.513 131.029 527.904C143.704 464.932 155.683 405.488 156.658 399.196L158.236 389.09C161.254 369.974 167.243 332.029 171.097 307.575L171.189 307.003C171.236 306.86 171.236 306.669 171.282 306.526C170.586 304.143 170.957 301.044 171.839 296.229C172.443 293.036 173.325 288.984 174.486 284.169C174.486 283.978 174.486 283.835 174.532 283.645C174.161 284.074 173.836 284.503 173.464 284.932C169.193 290.032 165.386 294.037 162.182 296.849C157.447 301.044 153.779 302.903 150.297 302.903C147.001 302.903 142.961 300.996 133.119 291.51C127.037 285.647 119.376 277.543 110.276 267.294C96.4873 251.754 80.377 232.447 67.2844 215.668C60.9702 207.612 55.7703 200.652 52.2883 195.599C50.3383 192.786 48.9455 190.594 47.9705 188.925C46.9491 187.114 44.8134 183.3 47.0883 179.63C47.8312 178.438 49.1312 176.817 54.2382 173.242C52.3811 172.908 49.7812 172.622 46.5312 172.336C44.8598 172.193 43.142 172.05 41.2849 171.907C24.246 170.572 6.60349 169.19 1.54288 158.273C0.428619 155.89 -0.0821228 153.554 0.0107422 151.314C0.0107422 151.075 0.0107422 150.885 0.0571899 150.646C0.428589 146.69 2.70355 143.401 6.4642 141.303C6.69632 141.16 6.88205 141.065 7.1142 140.969C10.1784 139.492 14.264 138.729 19.1854 138.729C21.8782 138.729 24.896 138.967 28.053 139.396C31.8137 139.921 35.0636 140.302 37.8028 140.588C37.6171 139.778 37.4778 139.015 37.4778 138.205C37.385 135.63 38.3135 133.247 40.0778 131.436C41.6099 129.862 43.6063 129.004 45.7419 129.004C49.9669 129.004 53.1704 132.198 56.8846 135.869C59.7167 138.681 62.8737 141.827 66.0773 143.21C76.0592 147.5 78.9841 150.932 80.8877 155.747L81.5377 157.415C83.3483 157.463 85.1126 158.321 86.2268 159.894C86.3661 160.133 102.152 181.87 118.726 204.132C138.458 230.636 147.929 242.601 152.479 247.988C157.4 241.266 167.15 227.108 183.446 202.749C185.443 199.698 186.928 197.506 187.578 196.505C189.993 190.498 194.821 180.917 199.742 172.384C209.631 155.318 213.764 152.648 215.11 151.743C217.338 150.313 220.542 148.549 224.535 146.499C225.417 145.975 227.413 144.974 233.402 142.209C235.306 141.303 236.559 140.779 236.606 140.731C236.652 140.731 236.652 140.731 236.699 140.683C241.481 138.491 246.681 135.535 248.491 134.01C249.002 130.196 249.281 122.283 249.234 112.272C241.342 111.081 234.47 105.551 229.735 96.3983C229.27 95.5879 228.806 94.7299 228.295 93.7288C228.249 93.6811 228.249 93.6335 228.202 93.5381C227.692 92.4894 227.228 91.393 226.763 90.2013C223.142 89.7722 220.403 89.2002 218.546 88.4852C214.785 87.0551 212.185 83.4798 210.931 77.8548C209.121 69.7987 209.956 57.4046 213.114 44.6768C215.156 36.3822 220.078 20.9373 229.781 10.5453C234.424 5.58766 240.506 2.25079 247.377 0.916037C247.656 0.868367 247.934 0.820698 248.213 0.773028C250.72 0.296332 253.506 0.0579834 256.291 0.0579834ZM328.3 230.302C324.029 221.531 313.954 201.224 305.829 187.638C305.133 186.446 304.483 185.398 303.88 184.444C299.422 192.357 292.04 206.706 282.059 227.49C271.891 248.655 263.905 266.341 261.027 273.443C263.812 276.494 266.366 280.308 268.827 285.122C273.052 280.737 281.78 272.252 300.397 255.329C311.726 245.128 322.822 235.212 328.3 230.302Z" fill="#2B2D60"/>
</svg>
