<svg width="110" height="101" viewBox="0 0 110 101" fill="none" xmlns="http://www.w3.org/2000/svg">
<path d="M4.45534 24.152C4.99988 23.4296 9.00047 18.2895 15.2656 17.4839C22.0378 16.6098 24.9645 21.6398 30.599 22.8009C43.6556 25.4963 50.6285 3.17767 65.2198 0.861551C81.7992 -1.77087 107.553 21.5084 109.102 49.3153C110.196 68.8923 99.2952 90.8077 79.8329 98.0632C58.887 105.874 38.7854 92.6874 31.3247 87.7927C26.9988 84.9561 16.1355 77.116 8.73241 62.907C6.67166 58.947 -4.96324 36.6222 4.45534 24.152Z" fill="#9DFFED"/>
<path d="M90.91 55.1826C90.0036 55.1826 89.2694 55.9192 89.2694 56.8264V62.6848C89.2694 66.0465 86.5393 68.782 83.1842 68.782H73.8327C73.3974 68.782 72.9806 68.9546 72.6724 69.2628L61.3352 80.623V70.4259C61.3352 69.5176 60.6005 68.782 59.6946 68.782H36.2049C32.8499 68.782 30.1197 66.047 30.1197 62.6848V37.8177C30.1197 34.456 32.8499 31.721 36.2049 31.721H83.1842C86.5393 31.721 89.2694 34.456 89.2694 37.8177V43.6755C89.2694 44.5837 90.0036 45.3194 90.91 45.3194C91.8155 45.3194 92.5507 44.5837 92.5507 43.6755V37.8177C92.5507 32.6431 88.3491 28.4332 83.1842 28.4332H36.2049C31.04 28.4332 26.8385 32.6431 26.8385 37.8177V58.9368H14.8973C11.3982 58.9368 8.55066 61.7889 8.55066 65.296V80.4442C8.55066 83.9513 11.3982 86.8034 14.8973 86.8034H19.9151L28.0464 94.9514C28.3607 95.2663 28.7806 95.4332 29.2072 95.4332C29.4184 95.4332 29.6322 95.3921 29.8347 95.3079C30.4479 95.0536 30.8478 94.4546 30.8478 93.7894V86.8034H43.5165C47.0161 86.8034 49.8631 83.9513 49.8631 80.4442V72.0697H58.054V84.5914C58.054 85.2567 58.4539 85.8556 59.067 86.1099C59.2696 86.1942 59.4828 86.2353 59.6946 86.2353C60.1217 86.2353 60.541 86.0683 60.8548 85.7534L74.512 72.0697H83.1842C88.3491 72.0697 92.5507 67.8599 92.5507 62.6848V56.8264C92.5507 55.9192 91.8155 55.1826 90.91 55.1826ZM46.5824 80.4442C46.5824 82.1384 45.2073 83.5157 43.5165 83.5157H29.2072C28.3007 83.5157 27.5665 84.2523 27.5665 85.1596V89.821L21.7546 83.9976C21.447 83.6893 21.0297 83.5157 20.5944 83.5157H14.8973C13.207 83.5157 11.8319 82.1384 11.8319 80.4442V65.296C11.8319 63.6023 13.207 62.2245 14.8973 62.2245H26.8385V62.6848C26.8385 67.8599 31.04 72.0697 36.2049 72.0697H46.5824V80.4442Z" fill="#262961"/>
<path d="M75.6894 39.206H43.6971C42.7912 39.206 42.0565 39.9421 42.0565 40.8499C42.0565 41.7581 42.7912 42.4937 43.6971 42.4937H75.6894C76.5953 42.4937 77.33 41.7581 77.33 40.8499C77.33 39.9421 76.5953 39.206 75.6894 39.206Z" fill="#262961"/>
<path d="M77.33 49.7268C77.33 48.819 76.5953 48.0829 75.6894 48.0829H43.6971C42.7912 48.0829 42.0565 48.819 42.0565 49.7268C42.0565 50.635 42.7912 51.3706 43.6971 51.3706H75.6894C76.5953 51.3706 77.33 50.635 77.33 49.7268Z" fill="#262961"/>
<path d="M43.6971 56.9598C42.7912 56.9598 42.0565 57.6959 42.0565 58.6036C42.0565 59.5119 42.7912 60.2475 43.6971 60.2475H62.1541C63.0601 60.2475 63.7948 59.5119 63.7948 58.6036C63.7948 57.6959 63.0601 56.9598 62.1541 56.9598H43.6971Z" fill="#262961"/>
<path d="M90.91 48.6069C90.0067 48.6069 89.2694 49.3456 89.2694 50.2507C89.2694 51.1564 90.0067 51.8946 90.91 51.8946C91.8134 51.8946 92.5507 51.1564 92.5507 50.2507C92.5507 49.3456 91.8134 48.6069 90.91 48.6069Z" fill="#262961"/>
</svg>
