<svg width="100" height="89" viewBox="0 0 100 89" fill="none" xmlns="http://www.w3.org/2000/svg">
<path d="M99.4173 46.3959C99.2139 47.1735 97.6626 52.7483 92.7725 55.5227C87.4877 58.5244 83.367 55.3753 78.3286 56.32C66.6517 58.5053 68.4858 79.2067 57.2464 86.0299C44.4758 93.7833 15.3421 83.3244 4.62007 60.9833C-2.93175 45.2556 -1.39146 23.5617 12.1848 11.0351C26.7954 -2.44792 47.8424 1.61784 55.6541 3.12725C60.183 4.0013 71.7998 6.78548 82.7279 15.9727C85.7715 18.534 102.944 32.9676 99.4173 46.3959Z" fill="#9DFFED"/>
<g clip-path="url(#clip0_2606_20255)">
<path d="M28.1914 61.8378C28.1914 57.4223 24.5991 53.83 20.1836 53.83C15.7681 53.83 12.1758 57.4223 12.1758 61.8378C12.1758 66.2533 15.7681 69.8456 20.1836 69.8456C24.5991 69.8456 28.1914 66.2535 28.1914 61.8378ZM20.1836 66.6425C17.5343 66.6425 15.3789 64.4871 15.3789 61.8378C15.3789 59.1885 17.5343 57.0331 20.1836 57.0331C22.8329 57.0331 24.9883 59.1885 24.9883 61.8378C24.9883 64.4871 22.8329 66.6425 20.1836 66.6425Z" fill="#262961"/>
<path d="M54.7773 61.8378C54.7773 57.4223 51.185 53.83 46.7695 53.83C42.354 53.83 38.7617 57.4223 38.7617 61.8378C38.7617 66.2533 42.354 69.8456 46.7695 69.8456C51.185 69.8456 54.7773 66.2535 54.7773 61.8378ZM46.7695 66.6425C44.1202 66.6425 41.9648 64.4871 41.9648 61.8378C41.9648 59.1885 44.1202 57.0331 46.7695 57.0331C49.4188 57.0331 51.5742 59.1885 51.5742 61.8378C51.5742 64.4871 49.4188 66.6425 46.7695 66.6425Z" fill="#262961"/>
<path d="M81.3633 61.8378C81.3633 57.4223 77.771 53.83 73.3555 53.83C68.94 53.83 65.3477 57.4223 65.3477 61.8378C65.3477 66.2533 68.94 69.8456 73.3555 69.8456C77.771 69.8456 81.3633 66.2535 81.3633 61.8378ZM73.3555 66.6425C70.7062 66.6425 68.5508 64.4871 68.5508 61.8378C68.5508 59.1885 70.7062 57.0331 73.3555 57.0331C76.0048 57.0331 78.1602 59.1885 78.1602 61.8378C78.1602 64.4871 76.0048 66.6425 73.3555 66.6425Z" fill="#262961"/>
<path d="M76.5586 69.8456H70.1523C66.0786 69.8456 62.5062 72.0303 60.543 75.289C58.5798 72.0304 55.0073 69.8456 50.9336 69.8456H42.6055C38.5317 69.8456 34.9593 72.0303 32.9961 75.289C31.0329 72.0304 27.4605 69.8456 23.3867 69.8456H16.9805C10.7988 69.8456 5.76953 74.8748 5.76953 81.0565C5.76953 81.9409 6.48655 82.6581 7.37109 82.6581H39.5625C40.447 82.6581 41.1641 81.9409 41.1641 81.0565C41.1641 80.1721 40.447 79.455 39.5625 79.455H34.7585C35.5025 75.8044 38.7383 73.0487 42.6055 73.0487H50.9336C54.8007 73.0487 58.0364 75.8044 58.7806 79.455H53.9766C53.092 79.455 52.375 80.1721 52.375 81.0565C52.375 81.9409 53.092 82.6581 53.9766 82.6581H86.168C87.0525 82.6581 87.7695 81.9409 87.7695 81.0565C87.7695 74.875 82.7403 69.8456 76.5586 69.8456ZM9.13361 79.455C9.8777 75.8044 13.1135 73.0487 16.9806 73.0487H23.3869C27.254 73.0487 30.4896 75.8044 31.2339 79.455H9.13361ZM62.3055 79.455C63.0496 75.8044 66.2854 73.0487 70.1525 73.0487H76.5588C80.4259 73.0487 83.6615 75.8044 84.4058 79.455H62.3055Z" fill="#262961"/>
<path d="M70.793 37.4941V43.9003C70.793 44.7847 71.51 45.5019 72.3945 45.5019H78.8008C79.6853 45.5019 80.4023 44.7847 80.4023 43.9003V37.4941C80.4023 35.4063 79.0633 33.626 77.1992 32.9649V19.1722C77.1992 18.0872 76.2426 17.7134 76.2266 17.6993L76.2184 17.6956L47.4201 4.89637C47.0059 4.71219 46.5333 4.71219 46.1191 4.89637L17.291 17.7089C16.7127 17.9658 16.3398 18.5393 16.3398 19.1722C16.3398 19.805 16.7125 20.3787 17.2909 20.6357L29.1523 25.9076V35.3818C29.1523 36.0147 29.5252 36.5883 30.1035 36.8455L46.1191 43.9628C46.3261 44.0547 46.5479 44.1007 46.7695 44.1007C46.9912 44.1007 47.213 44.0547 47.4199 43.9628L63.4356 36.8455C64.0139 36.5884 64.3867 36.0147 64.3867 35.3818V25.9076L73.9961 21.6367V32.965C72.132 33.6262 70.793 35.4063 70.793 37.4941ZM77.1992 42.2988H73.9961V37.4941C73.9961 36.611 74.7146 35.8925 75.5977 35.8925C76.4808 35.8925 77.1992 36.611 77.1992 37.4941V42.2988ZM46.7695 8.11247L68.0506 17.5707H46.7695C45.885 17.5707 45.168 18.2878 45.168 19.1722C45.168 20.0566 45.885 20.7738 46.7695 20.7738H68.0513L46.7695 30.2321L21.8846 19.1724L46.7695 8.11247ZM61.1836 34.3408L46.7695 40.7464L32.3555 34.3408V27.3311L46.1191 33.4482C46.3261 33.5402 46.5479 33.5861 46.7695 33.5861C46.9912 33.5861 47.213 33.5402 47.4199 33.4482L61.1836 27.3312V34.3408Z" fill="#262961"/>
<path d="M46.7695 82.6581C47.654 82.6581 48.3711 81.941 48.3711 81.0565C48.3711 80.172 47.654 79.455 46.7695 79.455C45.885 79.455 45.168 80.172 45.168 81.0565C45.168 81.941 45.885 82.6581 46.7695 82.6581Z" fill="#262961"/>
</g>
<defs>
<clipPath id="clip0_2606_20255">
<rect width="82" height="82" fill="white" transform="translate(5.7699 0.658081)"/>
</clipPath>
</defs>
</svg>
