<svg width="88" height="101" viewBox="0 0 88 101" fill="none" xmlns="http://www.w3.org/2000/svg">
<path d="M51.7696 100.177C50.9689 100.108 45.2127 99.5145 41.6565 95.1597C37.81 90.4541 40.2223 85.863 38.445 81.0548C34.3297 69.9108 14.2304 75.1953 5.61662 65.2613C-4.17134 53.9742 1.24648 23.4978 21.4698 9.17621C35.7059 -0.909544 57.3504 -3.03427 71.979 8.2456C87.7241 20.3844 87.2506 41.8153 87.0745 49.7696C86.9734 54.3809 86.1796 66.3003 78.958 78.616C76.9442 82.0465 65.5995 101.399 51.7696 100.177Z" fill="#9DFFED"/>
<g clip-path="url(#clip0_2606_20256)">
<path fill-rule="evenodd" clip-rule="evenodd" d="M71.9079 30.3562C71.9073 30.3386 71.9066 30.3211 71.9054 30.3036C71.9004 30.2342 71.8935 30.166 71.8797 30.0984C71.8797 30.0984 71.8797 30.0984 71.8797 30.0978C71.866 30.0302 71.8466 29.9633 71.8247 29.8982C71.819 29.8819 71.8134 29.8657 71.8072 29.8494C71.784 29.7875 71.7577 29.7268 71.7277 29.668C71.7258 29.6649 71.7246 29.6617 71.7227 29.6586C71.6902 29.5973 71.6526 29.5391 71.612 29.4822C71.602 29.4678 71.5913 29.454 71.5807 29.4396C71.5375 29.3833 71.4925 29.3289 71.4418 29.2782L56.9489 14.7854C56.8983 14.7347 56.8438 14.6897 56.7875 14.6465C56.7731 14.6358 56.7588 14.6246 56.7444 14.6146C56.6874 14.5739 56.6299 14.5364 56.5692 14.5045C56.5648 14.502 56.5604 14.5007 56.5567 14.4982C56.4991 14.4682 56.4391 14.4425 56.3784 14.4194C56.3615 14.4131 56.3452 14.4075 56.3277 14.4019C56.2626 14.38 56.197 14.3606 56.1288 14.3468C56.1281 14.3468 56.1275 14.3468 56.1275 14.3468C56.0606 14.3337 55.9924 14.3262 55.9236 14.3212C55.9061 14.3205 55.8885 14.3193 55.871 14.3187C55.8529 14.318 55.8347 14.3162 55.8166 14.3162H19.5306C18.646 14.3162 17.9291 15.0331 17.9291 15.9177V84.4682C17.9291 85.3528 18.646 86.0698 19.5306 86.0698H43.6429V94.7144C43.6429 95.2969 43.9594 95.8337 44.4693 96.1158C44.9798 96.398 45.6023 96.3811 46.0959 96.0714L52.1956 92.2445L58.2952 96.0714C58.5549 96.234 58.8508 96.316 59.1467 96.316C59.4132 96.316 59.6804 96.2497 59.9218 96.1164C60.4317 95.8343 60.7483 95.2975 60.7483 94.7144V86.0698H70.3088C71.1934 86.0698 71.9104 85.3528 71.9104 84.4682V30.4106C71.9104 30.3924 71.9085 30.3743 71.9079 30.3562ZM57.4181 19.7846L66.4426 28.809H57.4181V19.7846ZM42.8527 63.7837C42.7401 63.4778 42.5568 62.9779 42.5524 62.7733C42.6775 62.6182 43.1117 62.3435 43.3776 62.1759C43.9482 61.8155 44.595 61.4064 45.0642 60.767C45.5378 60.1208 45.7305 59.3744 45.9007 58.7163C45.9751 58.4285 46.0952 57.9637 46.1978 57.7879C46.2542 57.776 46.3724 57.7591 46.5945 57.7591C46.7728 57.7591 46.9724 57.7691 47.1838 57.7797C47.4265 57.7916 47.6768 57.8041 47.9383 57.8041C48.5151 57.8041 48.9806 57.7391 49.4028 57.5983C50.1404 57.3531 50.7304 56.8782 51.2509 56.4591C51.5387 56.2276 52.0204 55.8397 52.1881 55.8159C52.3714 55.8397 52.8525 56.2276 53.1402 56.4591C53.6607 56.8782 54.2513 57.3531 54.9889 57.5983C55.4112 57.7391 55.876 57.8041 56.4535 57.8041C56.7143 57.8041 56.9652 57.7916 57.2073 57.7797C57.4188 57.7691 57.6183 57.7591 57.7973 57.7591C58.0194 57.7591 58.137 57.7754 58.1939 57.7879C58.2965 57.9637 58.4166 58.4285 58.4904 58.7163C58.6606 59.3744 58.8539 60.1208 59.3275 60.767C59.7961 61.4064 60.443 61.8149 61.0141 62.1759C61.2794 62.3442 61.7136 62.6182 61.8387 62.7733C61.8343 62.9779 61.651 63.4778 61.539 63.7837C61.3007 64.4325 61.031 65.1682 61.031 65.9833C61.031 66.7985 61.3007 67.5342 61.5384 68.1836C61.651 68.4895 61.8343 68.9894 61.8387 69.194C61.7136 69.3491 61.2794 69.6231 61.0141 69.7914C60.443 70.1518 59.7961 70.5609 59.3275 71.2003C58.8539 71.8466 58.6606 72.5929 58.4904 73.251C58.4166 73.5382 58.2959 74.0037 58.1939 74.1794C58.137 74.1913 58.0194 74.2082 57.7973 74.2082C57.6183 74.2082 57.4188 74.1982 57.2073 74.1876C56.9652 74.1757 56.7143 74.1632 56.4535 74.1632C55.876 74.1632 55.4112 74.2282 54.9889 74.369C54.2513 74.6142 53.6607 75.0897 53.1402 75.5082C52.8568 75.7372 52.3839 76.117 52.1956 76.1507C52.0073 76.117 51.5349 75.7372 51.2515 75.5082C50.7304 75.0897 50.1404 74.6142 49.4028 74.369C48.9806 74.2282 48.5151 74.1632 47.9383 74.1632C47.6774 74.1632 47.4265 74.1757 47.1838 74.1876C46.973 74.1982 46.7734 74.2082 46.5945 74.2082C46.3724 74.2082 46.2548 74.1913 46.1978 74.1794C46.0952 74.0037 45.9751 73.5388 45.9007 73.251C45.7311 72.5929 45.5378 71.8466 45.0642 71.2003C44.5957 70.5609 43.9488 70.1518 43.3776 69.7914C43.1123 69.6238 42.6782 69.3491 42.5531 69.194C42.5574 68.99 42.7407 68.4895 42.8527 68.1836C43.0911 67.5349 43.3607 66.7991 43.3607 65.984C43.3607 65.1682 43.0904 64.4325 42.8527 63.7837ZM57.5451 91.8191L53.047 88.997C52.5265 88.6711 51.8646 88.6711 51.3441 88.997L46.846 91.8191V77.4063C47.0161 77.4013 47.1832 77.3951 47.3452 77.3869C47.5573 77.3757 47.7575 77.3657 47.9383 77.3657C48.2223 77.3657 48.3437 77.392 48.3906 77.4076C48.5814 77.4714 48.948 77.7667 49.2427 78.0038C49.9903 78.6056 50.9206 79.3545 52.1956 79.3545C53.4706 79.3545 54.4008 78.6056 55.1484 78.0038C55.4431 77.7667 55.8097 77.4714 55.9999 77.4082C56.0474 77.3926 56.1688 77.3663 56.4528 77.3663C56.6336 77.3663 56.8338 77.3763 57.0459 77.3869C57.2079 77.3951 57.375 77.402 57.5445 77.4063V91.8191H57.5451ZM60.7483 82.8667V76.1157C61.2244 75.4688 61.4233 74.7031 61.5916 74.0524C61.6798 73.7109 61.8005 73.2435 61.9106 73.094C62.0201 72.9439 62.4274 72.6867 62.7246 72.4991C63.5128 72.0011 64.4938 71.3811 64.8835 70.2087C65.2689 69.052 64.8679 67.959 64.5457 67.0807C64.3993 66.6821 64.2335 66.2298 64.2335 65.9833C64.2335 65.7369 64.3993 65.2852 64.5457 64.8867C64.8679 64.0083 65.2689 62.9147 64.8835 61.758C64.4938 60.5862 63.5128 59.9662 62.7246 59.4683C62.4274 59.2806 62.0201 59.0228 61.9106 58.8739C61.8005 58.7238 61.6798 58.2564 61.5916 57.9149C61.3614 57.0234 61.0748 55.9135 60.0939 55.1941C59.3131 54.6223 58.4091 54.556 57.7966 54.556C57.5376 54.556 57.2874 54.5685 57.0459 54.581C56.8338 54.5916 56.6336 54.6016 56.4535 54.6016C56.1688 54.6016 56.0474 54.5754 56.0005 54.5597C55.8103 54.4965 55.4437 54.2012 55.1491 53.9635C54.4008 53.3623 53.4706 52.6134 52.1956 52.6134C50.9212 52.6134 49.9903 53.3623 49.2427 53.9635C48.948 54.2006 48.5814 54.4965 48.3912 54.5597C48.3443 54.5754 48.2223 54.6016 47.9383 54.6016C47.7581 54.6016 47.5573 54.5916 47.3452 54.5804C47.1037 54.5685 46.8541 54.556 46.5945 54.556C45.9826 54.556 45.0786 54.6223 44.2985 55.1941C43.3169 55.9135 43.0298 57.0234 42.7995 57.9149C42.7113 58.2564 42.5906 58.7238 42.4811 58.8733C42.371 59.0228 41.9637 59.2806 41.6666 59.4683C40.8783 59.9662 39.898 60.5862 39.5076 61.758C39.1222 62.9154 39.5232 64.0083 39.8454 64.8867C39.9918 65.2852 40.1576 65.7369 40.1576 65.9833C40.1576 66.2298 39.9918 66.6821 39.8454 67.0807C39.5232 67.959 39.1222 69.052 39.5076 70.2093C39.898 71.3811 40.8789 72.0011 41.6666 72.4991C41.9644 72.6867 42.371 72.9445 42.4811 73.094C42.5906 73.2435 42.7113 73.7109 42.7995 74.0524C42.9678 74.7031 43.1674 75.4695 43.6435 76.1157V82.8667H21.1322V17.5193H54.215V30.4106C54.215 31.2952 54.932 32.0121 55.8166 32.0121H68.7073V82.8667H60.7483Z" fill="#262961"/>
<path fill-rule="evenodd" clip-rule="evenodd" d="M27.3563 32.0122H47.9902C48.8742 32.0122 49.5918 31.2953 49.5918 30.4106C49.5918 29.526 48.8742 28.8091 47.9902 28.8091H27.3563C26.4717 28.8091 25.7548 29.526 25.7548 30.4106C25.7548 31.2953 26.4723 32.0122 27.3563 32.0122Z" fill="#262961"/>
<path fill-rule="evenodd" clip-rule="evenodd" d="M62.662 36.8932H27.3563C26.4717 36.8932 25.7548 37.6101 25.7548 38.4948C25.7548 39.3794 26.4717 40.0963 27.3563 40.0963H62.662C63.5466 40.0963 64.2636 39.3794 64.2636 38.4948C64.2636 37.6101 63.5466 36.8932 62.662 36.8932Z" fill="#262961"/>
<path fill-rule="evenodd" clip-rule="evenodd" d="M56.2558 44.9773H27.3563C26.4717 44.9773 25.7548 45.6949 25.7548 46.5789C25.7548 47.4635 26.4717 48.1804 27.3563 48.1804H56.2558C57.1404 48.1804 57.8573 47.4635 57.8573 46.5789C57.8573 45.6949 57.1404 44.9773 56.2558 44.9773Z" fill="#262961"/>
<path fill-rule="evenodd" clip-rule="evenodd" d="M62.6627 44.9773C61.7806 44.9773 61.0612 45.6967 61.0612 46.5789C61.0612 47.461 61.7806 48.1804 62.6627 48.1804C63.5455 48.1804 64.2643 47.461 64.2643 46.5789C64.2643 45.6967 63.5455 44.9773 62.6627 44.9773Z" fill="#262961"/>
</g>
<defs>
<clipPath id="clip0_2606_20256">
<rect width="82" height="82" fill="white" transform="translate(3.99548 14.3162)"/>
</clipPath>
</defs>
</svg>
