<svg width="97" height="93" viewBox="0 0 97 93" fill="none" xmlns="http://www.w3.org/2000/svg">
<path d="M4.65995 20.9663C5.18309 20.3561 9.01735 16.0221 14.6284 15.6671C20.6938 15.2804 23.0213 19.9151 27.9651 21.2702C39.421 24.4145 46.8299 4.99751 59.9218 3.78008C74.7976 2.39612 96.418 24.5483 96.2835 49.3288C96.1923 66.7753 85.3149 85.6083 67.6262 90.9316C48.5889 96.6625 31.4426 83.7973 25.0788 79.022C21.3889 76.2544 12.1615 68.6679 6.35502 55.6252C4.73896 51.9903 -4.38709 31.4976 4.65995 20.9663Z" fill="#F87CC2"/>
<g clip-path="url(#clip0_2606_20257)">
<path d="M78.1898 16.1949C78.1898 13.2452 75.79 10.8453 72.8403 10.8453H64.5684V8.05006C64.5684 7.16552 63.8512 6.44851 62.9668 6.44851H58.1819C57.4802 6.44851 56.8481 6.00007 56.6088 5.33286C55.4652 2.14304 52.4193 0 49.0293 0C45.6394 0 42.5934 2.14304 41.4499 5.33286C41.2107 6.00023 40.5785 6.44851 39.8769 6.44851H35.0921C34.2077 6.44851 33.4905 7.16552 33.4905 8.05006V10.8454H25.2191C22.2692 10.8454 19.8694 13.2452 19.8694 16.1951V52.0277L9.37221 67.275C7.844 69.5016 7.5751 72.3075 8.65231 74.7832L11.2795 81.0198C11.5374 81.632 12.131 82.0002 12.7561 82C12.9635 82 13.1743 81.9595 13.3772 81.874C14.1924 81.5306 14.5749 80.5914 14.2315 79.7762L11.6001 73.53C11.5974 73.5236 11.5947 73.5172 11.5918 73.511C10.9552 72.0529 11.1128 70.3993 12.0117 69.0894L19.8683 57.6776V70.2025C19.8683 72.9073 22.0421 75.0869 24.7528 75.0869C27.4453 75.0869 29.6361 72.8955 29.6361 70.202V63.5326C29.6361 62.0022 30.8544 60.7855 32.3829 60.7855C33.8802 60.7855 35.1292 62.0369 35.1292 63.5326V80.3981C35.1292 81.2827 35.8464 81.9997 36.7308 81.9997H72.8401C75.7899 81.9997 78.1896 79.5999 78.1896 76.65V53.6313C78.1896 52.7468 77.4725 52.0298 76.5881 52.0298C75.7037 52.0298 74.9865 52.7468 74.9865 53.6313V76.6502C74.9865 77.8339 74.0235 78.7967 72.8401 78.7967H38.3333V63.5326C38.3333 60.2952 35.6235 57.582 32.3837 57.582C29.1011 57.582 26.4328 60.2545 26.4328 63.5326V70.2025C26.4328 71.1291 25.6788 71.8831 24.7521 71.8831C23.8197 71.8831 23.0859 71.1664 23.0727 70.2279V16.1949C23.0727 15.0114 24.0357 14.0484 25.2193 14.0484H33.4904V16.8855C33.4904 17.7701 34.2075 18.4871 35.0919 18.4871H62.9662C63.84 18.4871 64.5686 17.7579 64.5686 16.8852V14.0484H72.8404C74.024 14.0484 74.9868 15.0114 74.9868 16.1949V39.5418C74.9868 40.4263 75.704 41.1433 76.5884 41.1433C77.4728 41.1433 78.19 40.4263 78.19 39.5418V16.1949H78.1898ZM36.6935 9.65162H39.8767C41.9269 9.65162 43.7706 8.35051 44.4649 6.41391C45.1537 4.49349 46.9878 3.20311 49.0293 3.20311C51.0708 3.20311 52.9051 4.49333 53.5936 6.41391C54.288 8.35051 56.132 9.65162 58.1817 9.65162H61.3651L61.3643 15.2838H36.6935V9.65162Z" fill="#262961"/>
<path d="M50.5092 7.83639C50.1735 7.03144 49.2252 6.63474 48.4175 6.96994C47.6126 7.30403 47.216 8.2552 47.5511 9.06158C47.8856 9.86653 48.8366 10.2624 49.6427 9.92803C50.4475 9.59394 50.8449 8.64213 50.5092 7.83639Z" fill="#262961"/>
<path d="M38.8737 44.6044L34.7602 48.7178L33.1563 47.1138C32.5309 46.4884 31.5171 46.4884 30.8912 47.1138C30.2658 47.7392 30.2658 48.7533 30.8912 49.3788L33.6276 52.1152C33.9279 52.4155 34.3353 52.5843 34.7601 52.5843C35.1848 52.5843 35.5921 52.4155 35.8925 52.1152L41.1385 46.8694C41.7639 46.244 41.7639 45.2299 41.1385 44.6045C40.5134 43.9789 39.4996 43.9789 38.8737 44.6044Z" fill="#262961"/>
<path d="M41.1378 28.3541C40.5125 27.7287 39.4988 27.7287 38.8727 28.3541L34.7593 32.4676L33.1553 30.8635C32.5299 30.238 31.5161 30.238 30.8902 30.8635C30.2648 31.4889 30.2648 32.503 30.8902 33.1284L33.6266 35.865C33.9269 36.1653 34.3344 36.3341 34.7591 36.3341C35.1838 36.3341 35.5911 36.1653 35.8916 35.865L41.1375 30.6192C41.7632 29.9936 41.7632 28.9795 41.1378 28.3541Z" fill="#262961"/>
<path d="M66.0143 26.2953H49.0293C48.1449 26.2953 47.4277 27.0123 47.4277 27.8969C47.4277 28.7814 48.1449 29.4984 49.0293 29.4984H66.0143C66.8987 29.4984 67.6159 28.7814 67.6159 27.8969C67.6159 27.0123 66.8989 26.2953 66.0143 26.2953Z" fill="#262961"/>
<path d="M49.0293 36.4095H57.0949C57.9793 36.4095 58.6965 35.6925 58.6965 34.808C58.6965 33.9234 57.9793 33.2064 57.0949 33.2064H49.0293C48.1449 33.2064 47.4277 33.9234 47.4277 34.808C47.4277 35.6925 48.1448 36.4095 49.0293 36.4095Z" fill="#262961"/>
<path d="M66.0143 43.4375H49.0293C48.1449 43.4375 47.4277 44.1545 47.4277 45.0391C47.4277 45.9236 48.1449 46.6406 49.0293 46.6406H66.0143C66.8987 46.6406 67.6159 45.9236 67.6159 45.0391C67.6159 44.1545 66.8989 43.4375 66.0143 43.4375Z" fill="#262961"/>
<path d="M49.0293 53.5516H57.0949C57.9793 53.5516 58.6965 52.8346 58.6965 51.9501C58.6965 51.0655 57.9793 50.3485 57.0949 50.3485H49.0293C48.1449 50.3485 47.4277 51.0655 47.4277 51.9501C47.4277 52.8346 48.1448 53.5516 49.0293 53.5516Z" fill="#262961"/>
<path d="M67.6159 62.1814C67.6159 61.2969 66.8987 60.5798 66.0143 60.5798H49.0293C48.1449 60.5798 47.4277 61.2969 47.4277 62.1814C47.4277 63.0659 48.1449 63.783 49.0293 63.783H66.0143C66.8989 63.783 67.6159 63.0659 67.6159 62.1814Z" fill="#262961"/>
<path d="M49.0293 67.4906C48.1449 67.4906 47.4277 68.2076 47.4277 69.0922C47.4277 69.9767 48.1449 70.6937 49.0293 70.6937H57.0949C57.9793 70.6937 58.6965 69.9767 58.6965 69.0922C58.6965 68.2076 57.9793 67.4906 57.0949 67.4906H49.0293Z" fill="#262961"/>
<path d="M77.9191 45.5372C77.1261 44.3489 75.2138 44.7717 75.0034 46.1918C74.7896 47.6348 76.5508 48.5889 77.6433 47.6302C78.2442 47.1028 78.3547 46.202 77.9191 45.5372Z" fill="#262961"/>
</g>
<defs>
<clipPath id="clip0_2606_20257">
<rect width="82" height="82" fill="white" transform="translate(2.09521)"/>
</clipPath>
</defs>
</svg>
