<svg width="105" height="91" viewBox="0 0 105 91" fill="none" xmlns="http://www.w3.org/2000/svg">
<path d="M99.8964 45.882C99.693 46.6596 98.1417 52.2344 93.2516 55.0088C87.9669 58.0105 83.8461 54.8614 78.8077 55.8061C67.1309 57.9914 68.965 78.6928 57.7255 85.5159C44.9549 93.2694 15.8212 82.8105 5.09919 60.4694C-2.45262 44.7417 -0.912333 23.0478 12.664 10.5212C27.2745 -2.96183 48.3215 1.10393 56.1332 2.61333C60.6622 3.48738 72.2789 6.27156 83.207 15.4588C86.2506 18.0201 103.423 32.4537 99.8964 45.882Z" fill="#F87CC2"/>
<g clip-path="url(#clip0_2606_20258)">
<path d="M34.7708 46.258H46.9164C47.801 46.258 48.5179 45.541 48.5179 44.6564C48.5179 43.7724 47.801 43.0549 46.9164 43.0549H34.7708C33.8861 43.0549 33.1692 43.7724 33.1692 44.6564C33.1692 45.541 33.8861 46.258 34.7708 46.258Z" fill="#262961"/>
<path d="M34.7708 53.9461H47.9843C48.8683 53.9461 49.5858 53.2285 49.5858 52.3445C49.5858 51.4599 48.8683 50.743 47.9843 50.743H34.7708C33.8861 50.743 33.1692 51.4599 33.1692 52.3445C33.1692 53.2285 33.8861 53.9461 34.7708 53.9461Z" fill="#262961"/>
<path d="M54.592 53.9455C55.0131 53.9455 55.4266 53.776 55.7244 53.4763C56.0222 53.1785 56.1936 52.7668 56.1936 52.3439C56.1936 51.9229 56.0222 51.5094 55.7244 51.2116C55.4266 50.9138 55.0131 50.7424 54.592 50.7424C54.171 50.7424 53.7575 50.9138 53.4597 51.2116C53.16 51.5094 52.9905 51.9229 52.9905 52.3439C52.9905 52.7668 53.16 53.1785 53.4597 53.4763C53.7575 53.776 54.1691 53.9455 54.592 53.9455Z" fill="#262961"/>
<path d="M69.5053 43.6086C77.2772 43.6086 83.5996 37.2861 83.5996 29.5142C83.5996 21.7428 77.2772 15.4198 69.5053 15.4198C61.7339 15.4198 55.4109 21.7428 55.4109 29.5142C55.4109 37.2861 61.7339 43.6086 69.5053 43.6086ZM69.5053 18.6236C75.5105 18.6236 80.3965 23.5089 80.3965 29.5142C80.3965 35.5194 75.5105 40.4054 69.5053 40.4054C63.5 40.4054 58.6146 35.5194 58.6146 29.5142C58.6146 23.5089 63.5 18.6236 69.5053 18.6236Z" fill="#262961"/>
<path d="M100.266 52.5961L98.3298 50.6598V28.8705C98.3298 24.455 94.7369 20.8621 90.3214 20.8621H88.4408C85.1494 13.6882 77.8999 8.69336 69.5042 8.69336C61.1092 8.69336 53.859 13.6882 50.5683 20.8621H32.9836C28.5675 20.8621 24.9752 24.455 24.9752 28.8705V69.231C24.9752 73.6472 28.5675 77.2395 32.9836 77.2395H53.6388V81.087C49.2945 81.1708 45.7867 84.728 45.7867 89.0916C45.7867 89.9762 46.5037 90.6932 47.3883 90.6932H75.9048C76.7894 90.6932 77.5064 89.9762 77.5064 89.0916C77.5064 84.728 73.9986 81.1714 69.655 81.087V77.2395H90.3214C94.7375 77.2395 98.3298 73.6472 98.3298 69.231V61.5242C99.048 61.2558 99.7074 60.8354 100.266 60.2767C102.383 58.159 102.383 54.7138 100.266 52.5961ZM90.3214 24.0658C92.9708 24.0658 95.1267 26.221 95.1267 28.8705V47.4567L87.5543 39.8844C89.3166 36.8295 90.3257 33.2879 90.3257 29.5143C90.3257 27.6299 90.0724 25.8031 89.6006 24.0658H90.3214ZM69.5042 11.8965C79.2187 11.8965 87.122 19.7998 87.122 29.5143C87.122 39.2287 79.2187 47.132 69.5042 47.132C59.7897 47.132 51.8864 39.2287 51.8864 29.5143C51.8864 19.7998 59.7897 11.8965 69.5042 11.8965ZM32.9836 24.0658H49.4084C48.9367 25.8031 48.6833 27.6299 48.6833 29.5143C48.6833 31.5462 48.9773 33.5094 49.5222 35.3675H34.7704C33.8858 35.3675 33.1688 36.0844 33.1688 36.969C33.1688 37.853 33.8858 38.5706 34.7704 38.5706H50.7578C54.1324 45.5273 61.2674 50.3358 69.5042 50.3358C73.2773 50.3358 76.8188 49.3267 79.8737 47.565L92.5854 60.2767C93.2974 60.9886 94.1726 61.4779 95.1267 61.7112V63.1451H28.1783V28.8705C28.1783 26.221 30.3342 24.0658 32.9836 24.0658ZM74.0292 87.4901H49.2645C49.9251 85.6251 51.7069 84.2863 53.7952 84.2863H69.4979C71.5862 84.2863 73.368 85.6251 74.0292 87.4901ZM66.4519 81.0832H56.8419V77.2395H66.4519V81.0832ZM90.3214 74.0363H32.9836C30.3342 74.0363 28.1783 71.8805 28.1783 69.231V66.3482H95.1267V69.231C95.1267 71.8805 92.9708 74.0363 90.3214 74.0363ZM98.0007 58.0114C97.1324 58.8803 95.7185 58.8797 94.8501 58.0114L82.56 45.7207C83.7187 44.786 84.7753 43.7293 85.71 42.5707L98.0007 54.8614C98.869 55.7298 98.869 57.143 98.0007 58.0114Z" fill="#262961"/>
<path d="M69.5046 25.511C71.7124 25.511 73.5085 27.3071 73.5085 29.5143C73.5085 30.3989 74.2255 31.1158 75.1101 31.1158C75.9947 31.1158 76.7117 30.3989 76.7117 29.5143C76.7117 25.5404 73.4785 22.3079 69.5046 22.3079C68.62 22.3079 67.9031 23.0254 67.9031 23.9094C67.9031 24.794 68.62 25.511 69.5046 25.511Z" fill="#262961"/>
</g>
<defs>
<clipPath id="clip0_2606_20258">
<rect width="82" height="82" fill="white" transform="translate(22.4131 8.69336)"/>
</clipPath>
</defs>
</svg>
