<svg width="749" height="133" viewBox="0 0 749 133" fill="none" xmlns="http://www.w3.org/2000/svg">
<path d="M2.71747 1.78151C2.5968 1.38526 2.17775 1.16186 1.78151 1.28253C1.38526 1.4032 1.16186 1.82225 1.28253 2.21849L2.71747 1.78151ZM144.5 128.5L144.483 129.25L144.5 128.5ZM379 9.49998L378.978 10.2497L379 9.49998ZM599 128.5L599.15 129.235L599 128.5ZM745.233 9.33964C745.144 8.93499 744.744 8.67872 744.34 8.76724L737.746 10.2097C737.341 10.2982 737.085 10.698 737.173 11.1027C737.262 11.5073 737.661 11.7636 738.066 11.6751L743.928 10.3929L745.21 16.2543C745.298 16.6589 745.698 16.9152 746.103 16.8267C746.507 16.7381 746.764 16.3384 746.675 15.9337L745.233 9.33964ZM2.9112 7.00725C3.05162 7.39694 3.48135 7.59902 3.87104 7.4586C4.26072 7.31819 4.4628 6.88846 4.32239 6.49877L2.9112 7.00725ZM7.99443 15.9314C7.83532 15.549 7.39631 15.368 7.01387 15.5271C6.63144 15.6862 6.45039 16.1252 6.6095 16.5076L7.99443 15.9314ZM10.7287 25.8522C10.9035 26.2277 11.3496 26.3905 11.7251 26.2157C12.1007 26.0409 12.2634 25.5947 12.0886 25.2192L10.7287 25.8522ZM16.5356 34.2937C16.346 33.9255 15.8937 33.7808 15.5254 33.9704C15.1572 34.1601 15.0125 34.6124 15.2022 34.9806L16.5356 34.2937ZM20.0469 43.9356C20.2514 44.2958 20.7092 44.422 21.0694 44.2175C21.4296 44.013 21.5558 43.5552 21.3513 43.195L20.0469 43.9356ZM26.5457 51.911C26.3261 51.5598 25.8634 51.4531 25.5122 51.6727C25.161 51.8924 25.0543 52.3551 25.2739 52.7063L26.5457 51.911ZM30.855 61.2066C31.0901 61.5476 31.5572 61.6335 31.8982 61.3984C32.2392 61.1633 32.3251 60.6963 32.09 60.3552L30.855 61.2066ZM38.0322 68.5536C37.7811 68.2242 37.3105 68.1607 36.981 68.4119C36.6516 68.663 36.5882 69.1336 36.8393 69.463L38.0322 68.5536ZM43.2236 77.4118C43.4913 77.7279 43.9645 77.7672 44.2806 77.4995C44.5967 77.2318 44.636 76.7586 44.3683 76.4425L43.2236 77.4118ZM51.1056 83.9727C50.8209 83.6718 50.3462 83.6587 50.0453 83.9435C49.7445 84.2282 49.7314 84.7029 50.0161 85.0037L51.1056 83.9727ZM57.2431 92.2038C57.5453 92.4871 58.0199 92.4719 58.3032 92.1698C58.5866 91.8676 58.5714 91.393 58.2692 91.1096L57.2431 92.2038ZM65.859 97.7879C65.5393 97.5246 65.0666 97.5702 64.8032 97.8899C64.5399 98.2096 64.5855 98.6823 64.9052 98.9457L65.859 97.7879ZM72.9901 105.156C73.3272 105.397 73.7956 105.319 74.0363 104.982C74.2771 104.645 74.199 104.177 73.8619 103.936L72.9901 105.156ZM82.2831 109.5C81.9293 109.285 81.4679 109.397 81.2525 109.751C81.0371 110.104 81.1493 110.566 81.5031 110.781L82.2831 109.5ZM90.4231 115.752C90.7925 115.939 91.2439 115.792 91.4312 115.422C91.6186 115.053 91.471 114.602 91.1016 114.414L90.4231 115.752ZM100.285 118.618C99.9013 118.461 99.4633 118.644 99.3063 119.027C99.1493 119.411 99.3328 119.849 99.7161 120.006L100.285 118.618ZM109.308 123.481C109.703 123.606 110.125 123.387 110.249 122.992C110.374 122.597 110.155 122.176 109.76 122.051L109.308 123.481ZM119.486 124.688C119.082 124.596 118.68 124.849 118.588 125.253C118.497 125.657 118.75 126.059 119.154 126.151L119.486 124.688ZM129.187 128C129.598 128.058 129.977 127.773 130.036 127.363C130.094 126.953 129.809 126.573 129.399 126.514L129.187 128ZM139.431 127.535C139.017 127.509 138.662 127.824 138.636 128.237C138.61 128.65 138.925 129.006 139.338 129.032L139.431 127.535ZM149.423 129.276C149.837 129.271 150.169 128.931 150.164 128.517C150.158 128.102 149.818 127.771 149.404 127.776L149.423 129.276ZM159.025 127.299C158.612 127.335 158.307 127.699 158.343 128.112C158.379 128.524 158.743 128.829 159.156 128.793L159.025 127.299ZM168.825 127.558C169.234 127.489 169.509 127.102 169.44 126.693C169.371 126.285 168.984 126.01 168.576 126.079L168.825 127.558ZM177.991 124.084C177.59 124.187 177.348 124.595 177.451 124.996C177.553 125.398 177.962 125.64 178.363 125.537L177.991 124.084ZM187.698 122.726C188.089 122.591 188.296 122.163 188.16 121.772C188.024 121.381 187.597 121.174 187.205 121.309L187.698 122.726ZM196.161 117.781C195.782 117.949 195.61 118.392 195.777 118.77C195.945 119.149 196.387 119.321 196.766 119.154L196.161 117.781ZM205.53 114.874C205.895 114.678 206.032 114.223 205.836 113.858C205.641 113.493 205.186 113.356 204.821 113.551L205.53 114.874ZM213.159 108.7C212.808 108.92 212.703 109.383 212.923 109.734C213.143 110.084 213.606 110.19 213.957 109.97L213.159 108.7ZM222.044 104.54C222.381 104.3 222.46 103.831 222.219 103.494C221.978 103.157 221.51 103.079 221.173 103.32L222.044 104.54ZM228.887 97.5052C228.562 97.7624 228.507 98.2341 228.765 98.5588C229.022 98.8835 229.493 98.9382 229.818 98.6811L228.887 97.5052ZM237.319 92.4853C237.633 92.2155 237.669 91.742 237.4 91.4277C237.13 91.1134 236.656 91.0773 236.342 91.347L237.319 92.4853ZM243.588 84.9312C243.281 85.21 243.259 85.6844 243.538 85.9907C243.817 86.297 244.291 86.3193 244.598 86.0404L243.588 84.9312ZM251.711 79.4272C252.012 79.1425 252.025 78.6678 251.741 78.3669C251.456 78.066 250.981 78.0529 250.68 78.3376L251.711 79.4272ZM257.683 71.6367C257.385 71.9242 257.377 72.399 257.664 72.6972C257.952 72.9953 258.427 73.0039 258.725 72.7164L257.683 71.6367ZM265.702 65.9774C266 65.6899 266.008 65.2151 265.721 64.9169C265.433 64.6187 264.959 64.6101 264.66 64.8976L265.702 65.9774ZM271.676 58.1883C271.375 58.4729 271.361 58.9476 271.646 59.2486C271.931 59.5495 272.405 59.5628 272.706 59.2782L271.676 58.1883ZM279.802 52.6883C280.108 52.4096 280.131 51.9353 279.852 51.6288C279.573 51.3223 279.099 51.2998 278.793 51.5784L279.802 52.6883ZM286.076 45.1392C285.762 45.4087 285.725 45.8821 285.995 46.1967C286.264 46.5113 286.738 46.5479 287.052 46.2784L286.076 45.1392ZM294.514 40.1289C294.839 39.8722 294.895 39.4005 294.638 39.0755C294.381 38.7504 293.91 38.695 293.585 38.9518L294.514 40.1289ZM301.368 33.1047C301.03 33.3449 300.951 33.8131 301.192 34.1506C301.432 34.4882 301.9 34.5671 302.237 34.327L301.368 33.1047ZM310.262 28.9647C310.613 28.7453 310.72 28.2827 310.501 27.9313C310.281 27.58 309.819 27.473 309.467 27.6924L310.262 28.9647ZM317.909 22.8122C317.543 23.0067 317.404 23.4608 317.599 23.8265C317.793 24.1922 318.247 24.331 318.613 24.1365L317.909 22.8122ZM327.288 19.937C327.668 19.7712 327.841 19.329 327.675 18.9495C327.509 18.5699 327.067 18.3966 326.688 18.5624L327.288 19.937ZM335.772 15.028C335.38 15.1621 335.171 15.5885 335.305 15.9804C335.439 16.3723 335.865 16.5813 336.257 16.4472L335.772 15.028ZM345.484 13.7182C345.886 13.6176 346.13 13.2103 346.03 12.8085C345.929 12.4067 345.522 12.1625 345.12 12.2631L345.484 13.7182ZM354.669 10.2944C354.26 10.3611 353.983 10.7466 354.049 11.1554C354.116 11.5642 354.501 11.8416 354.91 11.7749L354.669 10.2944ZM364.468 10.6111C364.881 10.5774 365.188 10.2154 365.154 9.80256C365.121 9.38971 364.759 9.08235 364.346 9.11603L364.468 10.6111ZM374.081 8.69311C373.667 8.69576 373.333 9.03369 373.336 9.4479C373.339 9.8621 373.677 10.1957 374.091 10.1931L374.081 8.69311ZM384.029 10.5078C384.442 10.5381 384.801 10.2277 384.832 9.81462C384.862 9.40152 384.552 9.04208 384.138 9.01181L384.029 10.5078ZM394.188 10.2076C393.779 10.1397 393.393 10.4159 393.325 10.8245C393.257 11.2332 393.533 11.6194 393.942 11.6873L394.188 10.2076ZM403.695 13.7885C404.095 13.895 404.506 13.6569 404.613 13.2567C404.719 12.8564 404.481 12.4455 404.081 12.339L403.695 13.7885ZM413.723 15.4099C413.334 15.2654 412.902 15.463 412.758 15.8512C412.614 16.2394 412.811 16.6712 413.199 16.8157L413.723 15.4099ZM422.392 20.7366C422.765 20.9165 423.213 20.7598 423.393 20.3867C423.573 20.0136 423.416 19.5653 423.043 19.3854L422.392 20.7366ZM431.967 24.178C431.611 23.9667 431.151 24.0844 430.94 24.4407C430.728 24.797 430.846 25.2571 431.202 25.4683L431.967 24.178ZM439.603 30.9014C439.943 31.1392 440.41 31.0569 440.648 30.7177C440.886 30.3785 440.803 29.9108 440.464 29.6731L439.603 30.9014ZM448.546 35.751C448.223 35.4917 447.751 35.5434 447.492 35.8664C447.233 36.1894 447.284 36.6615 447.607 36.9208L448.546 35.751ZM455.25 43.4108C455.558 43.687 456.033 43.6606 456.309 43.3519C456.585 43.0431 456.558 42.569 456.25 42.2928L455.25 43.4108ZM463.626 49.1868C463.329 48.898 462.854 48.9046 462.566 49.2015C462.277 49.4985 462.283 49.9733 462.58 50.2621L463.626 49.1868ZM469.666 57.3807C469.954 57.6784 470.429 57.6862 470.727 57.3982C471.025 57.1102 471.033 56.6354 470.745 56.3377L469.666 57.3807ZM477.677 63.6583C477.395 63.355 476.921 63.3379 476.617 63.6201C476.314 63.9022 476.297 64.3768 476.579 64.6801L477.677 63.6583ZM483.393 72.0799C483.673 72.3855 484.147 72.4067 484.453 72.1271C484.759 71.8476 484.78 71.3732 484.5 71.0675L483.393 72.0799ZM491.298 78.4947C491.017 78.1897 490.543 78.1697 490.238 78.45C489.933 78.7304 489.913 79.2048 490.193 79.5098L491.298 78.4947ZM497.061 86.891C497.345 87.192 497.82 87.2053 498.121 86.9207C498.422 86.6361 498.435 86.1615 498.151 85.8605L497.061 86.891ZM505.141 93.0761C504.849 92.7828 504.374 92.7821 504.081 93.0746C503.787 93.367 503.787 93.8419 504.079 94.1352L505.141 93.0761ZM511.336 101.143C511.64 101.424 512.115 101.406 512.396 101.102C512.677 100.798 512.659 100.323 512.355 100.042L511.336 101.143ZM519.896 106.656C519.577 106.392 519.104 106.437 518.84 106.756C518.577 107.076 518.621 107.548 518.941 107.812L519.896 106.656ZM526.961 113.983C527.299 114.223 527.767 114.144 528.007 113.806C528.247 113.469 528.168 113.001 527.831 112.761L526.961 113.983ZM536.218 118.186C535.86 117.978 535.401 118.099 535.192 118.457C534.984 118.815 535.105 119.274 535.463 119.483L536.218 118.186ZM544.477 124.122C544.855 124.291 545.299 124.121 545.468 123.743C545.637 123.365 545.468 122.921 545.089 122.752L544.477 124.122ZM554.409 126.277C554.013 126.155 553.593 126.376 553.47 126.771C553.347 127.167 553.568 127.587 553.964 127.71L554.409 126.277ZM563.839 130.114C564.247 130.187 564.636 129.915 564.709 129.507C564.782 129.099 564.51 128.71 564.102 128.637L563.839 130.114ZM573.99 129.777C573.576 129.755 573.222 130.072 573.2 130.486C573.177 130.899 573.494 131.253 573.908 131.275L573.99 129.777ZM584.026 131.249C584.439 131.226 584.755 130.871 584.732 130.457C584.708 130.044 584.353 129.728 583.94 129.752L584.026 131.249ZM593.853 128.673C593.444 128.738 593.164 129.122 593.229 129.531C593.294 129.94 593.678 130.219 594.087 130.155L593.853 128.673ZM603.863 128.167C604.265 128.067 604.51 127.66 604.41 127.258C604.31 126.856 603.904 126.611 603.502 126.711L603.863 128.167ZM612.674 124.05C612.281 124.18 612.068 124.604 612.198 124.998C612.329 125.391 612.753 125.604 613.146 125.473L612.674 124.05ZM622.201 122.111C622.585 121.954 622.768 121.516 622.61 121.133C622.453 120.75 622.015 120.566 621.632 120.724L622.201 122.111ZM630.355 116.816C629.982 116.997 629.827 117.445 630.008 117.818C630.188 118.191 630.637 118.346 631.01 118.166L630.355 116.816ZM639.57 113.709C639.932 113.508 640.062 113.051 639.861 112.689C639.659 112.327 639.203 112.197 638.841 112.398L639.57 113.709ZM647.087 107.536C646.735 107.755 646.628 108.217 646.847 108.569C647.066 108.92 647.529 109.028 647.88 108.809L647.087 107.536ZM655.946 103.523C656.287 103.288 656.373 102.821 656.139 102.48C655.904 102.138 655.437 102.052 655.096 102.287L655.946 103.523ZM662.877 96.6977C662.545 96.946 662.478 97.416 662.726 97.7476C662.974 98.0791 663.444 98.1465 663.776 97.8982L662.877 96.6977ZM671.381 91.9757C671.703 91.7153 671.753 91.2431 671.493 90.9209C671.233 90.5988 670.76 90.5488 670.438 90.8092L671.381 91.9757ZM677.788 84.6574C677.475 84.9285 677.441 85.4021 677.712 85.7153C677.983 86.0285 678.456 86.0626 678.77 85.7915L677.788 84.6574ZM685.948 79.3778C686.252 79.0972 686.272 78.6227 685.991 78.318C685.71 78.0134 685.236 77.994 684.931 78.2747L685.948 79.3778ZM691.893 71.6703C691.597 71.9596 691.591 72.4344 691.88 72.7309C692.17 73.0273 692.645 73.0331 692.941 72.7438L691.893 71.6703ZM699.747 65.9193C700.036 65.6221 700.029 65.1473 699.731 64.8587C699.434 64.5701 698.959 64.5771 698.671 64.8742L699.747 65.9193ZM705.257 57.9182C704.976 58.2225 704.995 58.697 705.299 58.978C705.603 59.2591 706.078 59.2402 706.359 58.9359L705.257 57.9182ZM712.813 51.7757C713.087 51.4647 713.056 50.9908 712.745 50.7172C712.434 50.4435 711.961 50.4738 711.687 50.7847L712.813 51.7757ZM717.94 43.5111C717.674 43.8283 717.715 44.3014 718.032 44.5678C718.349 44.8342 718.822 44.7931 719.089 44.4759L717.94 43.5111ZM725.205 37.0254C725.464 36.7023 725.413 36.2303 725.09 35.9711C724.766 35.7119 724.294 35.7637 724.035 36.0867L725.205 37.0254ZM729.944 28.549C729.693 28.8778 729.755 29.3486 730.084 29.6004C730.413 29.8522 730.883 29.7898 731.135 29.4609L729.944 28.549ZM736.91 21.7327C737.154 21.3979 737.081 20.9288 736.746 20.6849C736.411 20.441 735.942 20.5147 735.698 20.8495L736.91 21.7327ZM741.239 13.023C741.005 13.3647 741.092 13.8315 741.433 14.0657C741.775 14.2998 742.242 14.2127 742.476 13.871L741.239 13.023ZM2 2C1.28253 2.21849 1.28254 2.21853 1.28256 2.21858C1.28256 2.2186 1.28258 2.21865 1.28259 2.2187C1.28262 2.21879 1.28266 2.21891 1.2827 2.21906C1.28279 2.21935 1.28292 2.21975 1.28307 2.22026C1.28338 2.22126 1.28381 2.22269 1.28438 2.22453C1.2855 2.22821 1.28714 2.23356 1.2893 2.24056C1.2936 2.25456 1.29997 2.27519 1.30841 2.30233C1.32527 2.35661 1.35042 2.43696 1.38393 2.54261C1.45096 2.7539 1.55147 3.06638 1.6862 3.47377C1.95565 4.28855 2.362 5.48307 2.9112 7.00725L4.32239 6.49877C3.77791 4.9877 3.37587 3.80572 3.11034 3.0028C2.97758 2.60135 2.87895 2.29468 2.81372 2.08904C2.7811 1.98623 2.75683 1.90867 2.74082 1.85715C2.73282 1.83139 2.72688 1.81214 2.72299 1.7995C2.72104 1.79318 2.71961 1.78852 2.71869 1.78551C2.71823 1.78401 2.7179 1.78293 2.7177 1.78226C2.7176 1.78192 2.71753 1.78169 2.71749 1.78157C2.71747 1.78151 2.71746 1.78147 2.71745 1.78146C2.71745 1.78145 2.71746 1.78147 2.71746 1.78146C2.71746 1.78148 2.71747 1.78151 2 2ZM6.6095 16.5076C7.77792 19.3161 9.14796 22.4564 10.7287 25.8522L12.0886 25.2192C10.5172 21.8434 9.15547 18.7222 7.99443 15.9314L6.6095 16.5076ZM15.2022 34.9806C16.688 37.8652 18.3016 40.8616 20.0469 43.9356L21.3513 43.195C19.6166 40.1397 18.0127 37.1613 16.5356 34.2937L15.2022 34.9806ZM25.2739 52.7063C27.0284 55.5118 28.8878 58.353 30.855 61.2066L32.09 60.3552C30.1362 57.521 28.289 54.6985 26.5457 51.911L25.2739 52.7063ZM36.8393 69.463C38.8704 72.1274 40.9977 74.7833 43.2236 77.4118L44.3683 76.4425C42.1599 73.8345 40.0486 71.1986 38.0322 68.5536L36.8393 69.463ZM50.0161 85.0037C52.3321 87.4511 54.7404 89.8566 57.2431 92.2038L58.2692 91.1096C55.7893 88.7838 53.4021 86.3994 51.1056 83.9727L50.0161 85.0037ZM64.9052 98.9457C67.5093 101.091 70.2036 103.166 72.9901 105.156L73.8619 103.936C71.1046 101.966 68.4375 99.9121 65.859 97.7879L64.9052 98.9457ZM81.5031 110.781C84.3874 112.537 87.3601 114.199 90.4231 115.752L91.1016 114.414C88.0743 112.879 85.1353 111.236 82.2831 109.5L81.5031 110.781ZM99.7161 120.006C102.829 121.28 106.025 122.443 109.308 123.481L109.76 122.051C106.518 121.025 103.36 119.877 100.285 118.618L99.7161 120.006ZM119.154 126.151C122.42 126.893 125.764 127.512 129.187 128L129.399 126.514C126.016 126.033 122.712 125.421 119.486 124.688L119.154 126.151ZM139.338 129.032C141.035 129.137 142.75 129.21 144.483 129.25L144.517 127.75C142.804 127.711 141.108 127.639 139.431 127.535L139.338 129.032ZM144.483 129.25C146.15 129.288 147.797 129.297 149.423 129.276L149.404 127.776C147.796 127.797 146.167 127.788 144.517 127.75L144.483 129.25ZM159.156 128.793C162.465 128.503 165.686 128.088 168.825 127.558L168.576 126.079C165.476 126.603 162.295 127.012 159.025 127.299L159.156 128.793ZM178.363 125.537C181.56 124.719 184.669 123.778 187.698 122.726L187.205 121.309C184.215 122.348 181.147 123.276 177.991 124.084L178.363 125.537ZM196.766 119.154C199.763 117.831 202.681 116.4 205.53 114.874L204.821 113.551C202.004 115.061 199.121 116.475 196.161 117.781L196.766 119.154ZM213.957 109.97C216.712 108.24 219.404 106.426 222.044 104.54L221.173 103.32C218.555 105.189 215.887 106.987 213.159 108.7L213.957 109.97ZM229.818 98.6811C232.358 96.6692 234.855 94.5995 237.319 92.4853L236.342 91.347C233.891 93.4501 231.41 95.5071 228.887 97.5052L229.818 98.6811ZM244.598 86.0404C246.99 83.8628 249.358 81.654 251.711 79.4272L250.68 78.3376C248.332 80.5596 245.971 82.7616 243.588 84.9312L244.598 86.0404ZM258.725 72.7164C261.062 70.4621 263.366 68.2293 265.702 65.9774L264.66 64.8976C262.342 67.1334 260.001 69.4019 257.683 71.6367L258.725 72.7164ZM272.706 59.2782C275.056 57.0567 277.418 54.8559 279.802 52.6883L278.793 51.5784C276.4 53.7542 274.03 55.9619 271.676 58.1883L272.706 59.2782ZM287.052 46.2784C289.505 44.1773 291.989 42.1232 294.514 40.1289L293.585 38.9518C291.042 40.9599 288.542 43.0269 286.076 45.1392L287.052 46.2784ZM302.237 34.327C304.859 32.462 307.53 30.6703 310.262 28.9647L309.467 27.6924C306.708 29.4152 304.012 31.2238 301.368 33.1047L302.237 34.327ZM318.613 24.1365C321.434 22.6361 324.323 21.232 327.288 19.937L326.688 18.5624C323.686 19.8736 320.762 21.2945 317.909 22.8122L318.613 24.1365ZM336.257 16.4472C339.252 15.4226 342.325 14.5093 345.484 13.7182L345.12 12.2631C341.919 13.0646 338.805 13.99 335.772 15.028L336.257 16.4472ZM354.91 11.7749C358.012 11.269 361.195 10.8781 364.468 10.6111L364.346 9.11603C361.034 9.38628 357.81 9.78207 354.669 10.2944L354.91 11.7749ZM374.091 10.1931C375.699 10.1828 377.328 10.2013 378.978 10.2497L379.022 8.75031C377.354 8.70147 375.707 8.68271 374.081 8.69311L374.091 10.1931ZM378.978 10.2497C380.686 10.2997 382.369 10.3862 384.029 10.5078L384.138 9.01181C382.457 8.88855 380.752 8.80095 379.022 8.75031L378.978 10.2497ZM393.942 11.6873C397.291 12.2437 400.539 12.9483 403.695 13.7885L404.081 12.339C400.879 11.4866 397.584 10.7718 394.188 10.2076L393.942 11.6873ZM413.199 16.8157C416.355 17.99 419.415 19.302 422.392 20.7366L423.043 19.3854C420.027 17.9314 416.923 16.601 413.723 15.4099L413.199 16.8157ZM431.202 25.4683C434.078 27.1727 436.875 28.9891 439.603 30.9014L440.464 29.6731C437.707 27.7405 434.878 25.9031 431.967 24.178L431.202 25.4683ZM447.607 36.9208C450.21 39.0099 452.754 41.1787 455.25 43.4108L456.25 42.2928C453.737 40.0449 451.172 37.8586 448.546 35.751L447.607 36.9208ZM462.58 50.2621C464.978 52.5939 467.336 54.9721 469.666 57.3807L470.745 56.3377C468.406 53.9203 466.036 51.5311 463.626 49.1868L462.58 50.2621ZM476.579 64.6801C478.867 67.1382 481.134 69.61 483.393 72.0799L484.5 71.0675C482.24 68.5968 479.969 66.1213 477.677 63.6583L476.579 64.6801ZM490.193 79.5098C492.478 81.9952 494.764 84.4616 497.061 86.891L498.151 85.8605C495.86 83.4381 493.58 80.9774 491.298 78.4947L490.193 79.5098ZM504.079 94.1352C506.471 96.5342 508.886 98.8764 511.336 101.143L512.355 100.042C509.922 97.7913 507.522 95.4633 505.141 93.0761L504.079 94.1352ZM518.941 107.812C521.56 109.978 524.23 112.042 526.961 113.983L527.831 112.761C525.132 110.842 522.491 108.801 519.896 106.656L518.941 107.812ZM535.463 119.483C538.385 121.185 541.386 122.739 544.477 124.122L545.089 122.752C542.05 121.393 539.097 119.864 536.218 118.186L535.463 119.483ZM553.964 127.71C557.155 128.701 560.442 129.509 563.839 130.114L564.102 128.637C560.768 128.043 557.541 127.25 554.409 126.277L553.964 127.71ZM573.908 131.275C577.18 131.454 580.55 131.45 584.026 131.249L583.94 129.752C580.518 129.949 577.205 129.953 573.99 129.777L573.908 131.275ZM594.087 130.155C595.751 129.891 597.439 129.585 599.15 129.235L598.85 127.765C597.16 128.111 595.494 128.413 593.853 128.673L594.087 130.155ZM599.15 129.235C600.727 128.912 602.298 128.556 603.863 128.167L603.502 126.711C601.956 127.095 600.405 127.447 598.85 127.765L599.15 129.235ZM613.146 125.473C616.192 124.463 619.212 123.339 622.201 122.111L621.632 120.724C618.673 121.939 615.686 123.051 612.674 124.05L613.146 125.473ZM631.01 118.166C633.896 116.766 636.75 115.277 639.57 113.709L638.841 112.398C636.044 113.953 633.215 115.429 630.355 116.816L631.01 118.166ZM647.88 108.809C650.606 107.11 653.296 105.344 655.946 103.523L655.096 102.287C652.464 104.096 649.793 105.849 647.087 107.536L647.88 108.809ZM663.776 97.8982C666.355 95.9667 668.891 93.989 671.381 91.9757L670.438 90.8092C667.961 92.8114 665.44 94.7777 662.877 96.6977L663.776 97.8982ZM678.77 85.7915C681.214 83.6759 683.607 81.5343 685.948 79.3778L684.931 78.2747C682.602 80.4212 680.22 82.5524 677.788 84.6574L678.77 85.7915ZM692.941 72.7438C695.272 70.4685 697.542 68.1894 699.747 65.9193L698.671 64.8742C696.475 67.1352 694.215 69.4048 691.893 71.6703L692.941 72.7438ZM706.359 58.9359C708.592 56.518 710.745 54.1259 712.813 51.7757L711.687 50.7847C709.626 53.1263 707.481 55.5095 705.257 57.9182L706.359 58.9359ZM719.089 44.4759C721.247 41.9071 723.288 39.4155 725.205 37.0254L724.035 36.0867C722.124 38.4685 720.091 40.9514 717.94 43.5111L719.089 44.4759ZM731.135 29.4609C733.293 26.6427 735.224 24.0481 736.91 21.7327L735.698 20.8495C734.018 23.1557 732.095 25.7408 729.944 28.549L731.135 29.4609ZM742.476 13.871C743.345 12.603 744.008 11.6129 744.454 10.939C744.677 10.6021 744.846 10.3442 744.959 10.1703C745.016 10.0833 745.059 10.0172 745.087 9.97277C745.102 9.95053 745.113 9.93369 745.12 9.92232C745.124 9.91663 745.126 9.91231 745.128 9.90936C745.129 9.90789 745.13 9.90676 745.13 9.90598C745.131 9.90558 745.131 9.90528 745.131 9.90506C745.131 9.90495 745.131 9.90486 745.131 9.90479C745.131 9.90476 745.131 9.90473 745.131 9.90471C745.131 9.90468 745.131 9.90466 744.5 9.49991C743.869 9.09516 743.869 9.09515 743.869 9.09515C743.869 9.09515 743.869 9.09515 743.869 9.09516C743.869 9.09518 743.868 9.09522 743.868 9.09528C743.868 9.09541 743.868 9.09562 743.868 9.09592C743.868 9.09652 743.867 9.09747 743.866 9.09875C743.865 9.10133 743.862 9.10528 743.859 9.11059C743.852 9.12122 743.841 9.13731 743.828 9.15879C743.8 9.20175 743.758 9.26626 743.702 9.35172C743.591 9.52263 743.424 9.77734 743.203 10.1111C742.762 10.7785 742.103 11.7619 741.239 13.023L742.476 13.871ZM3.43494 1.56301C3.1936 0.77052 2.35551 0.323723 1.56301 0.565063C0.77052 0.806404 0.323723 1.64449 0.565063 2.43699L3.43494 1.56301ZM144.5 128.5L144.465 130L144.5 128.5ZM379 9.49998L378.956 10.9993L379 9.49998ZM599 128.5L599.301 129.969L599 128.5ZM745.965 9.17936C745.788 8.37007 744.989 7.85753 744.179 8.03456L730.991 10.9195C730.182 11.0965 729.669 11.8961 729.846 12.7054C730.023 13.5147 730.823 14.0272 731.632 13.8502L743.355 11.2858L745.92 23.0086C746.097 23.8179 746.896 24.3304 747.705 24.1534C748.515 23.9764 749.027 23.1768 748.85 22.3675L745.965 9.17936ZM2.20561 7.2615C2.48644 8.04087 3.3459 8.44502 4.12528 8.16419C4.90465 7.88337 5.30881 7.0239 5.02798 6.24452L2.20561 7.2615ZM8.68689 15.6433C8.36867 14.8785 7.49066 14.5164 6.72578 14.8346C5.96091 15.1528 5.59882 16.0308 5.91704 16.7957L8.68689 15.6433ZM10.0487 26.1687C10.3983 26.9198 11.2906 27.2452 12.0416 26.8956C12.7927 26.546 13.1181 25.6537 12.7685 24.9027L10.0487 26.1687ZM17.2024 33.9503C16.823 33.2138 15.9185 32.9243 15.182 33.3037C14.4455 33.6831 14.156 34.5876 14.5354 35.3241L17.2024 33.9503ZM19.3947 44.3059C19.8037 45.0263 20.7193 45.2787 21.4397 44.8697C22.1601 44.4607 22.4126 43.5451 22.0035 42.8247L19.3947 44.3059ZM27.1816 51.5133C26.7424 50.8109 25.8169 50.5976 25.1145 51.0368C24.4121 51.4761 24.1988 52.4016 24.6381 53.104L27.1816 51.5133ZM30.2375 61.6323C30.7077 62.3143 31.6418 62.4861 32.3239 62.0159C33.0059 61.5457 33.1777 60.6116 32.7075 59.9296L30.2375 61.6323ZM38.6286 68.0989C38.1264 67.4401 37.1852 67.3132 36.5264 67.8154C35.8675 68.3176 35.7406 69.2589 36.2428 69.9177L38.6286 68.0989ZM42.6512 77.8965C43.1866 78.5287 44.1331 78.6072 44.7653 78.0719C45.3975 77.5365 45.476 76.59 44.9407 75.9578L42.6512 77.8965ZM51.6503 83.4572C51.0809 82.8555 50.1315 82.8293 49.5298 83.3987C48.9281 83.9681 48.9019 84.9175 49.4714 85.5192L51.6503 83.4572ZM56.7301 92.7508C57.3343 93.3175 58.2836 93.2871 58.8503 92.6828C59.417 92.0786 59.3866 91.1293 58.7823 90.5626L56.7301 92.7508ZM66.3358 97.2091C65.6964 96.6823 64.7511 96.7737 64.2244 97.4131C63.6976 98.0525 63.7889 98.9978 64.4284 99.5245L66.3358 97.2091ZM72.5542 105.767C73.2283 106.248 74.1651 106.092 74.6466 105.418C75.1281 104.744 74.972 103.807 74.2978 103.325L72.5542 105.767ZM82.6731 108.859C81.9655 108.429 81.0426 108.653 80.6118 109.361C80.1811 110.068 80.4055 110.991 81.1132 111.422L82.6731 108.859ZM90.0838 116.421C90.8227 116.796 91.7254 116.5 92.1001 115.762C92.4748 115.023 92.1797 114.12 91.4408 113.745L90.0838 116.421ZM100.569 117.924C99.8023 117.61 98.9263 117.977 98.6123 118.743C98.2983 119.51 98.6652 120.386 99.4319 120.7L100.569 117.924ZM109.082 124.196C109.872 124.446 110.715 124.008 110.965 123.218C111.214 122.428 110.776 121.586 109.987 121.336L109.082 124.196ZM119.652 123.957C118.844 123.773 118.04 124.279 117.857 125.087C117.673 125.895 118.18 126.699 118.987 126.882L119.652 123.957ZM129.082 128.742C129.902 128.859 130.661 128.289 130.778 127.468C130.895 126.648 130.325 125.889 129.504 125.772L129.082 128.742ZM139.477 126.786C138.65 126.735 137.939 127.364 137.887 128.191C137.836 129.017 138.465 129.729 139.292 129.78L139.477 126.786ZM149.433 130.026C150.261 130.016 150.924 129.336 150.913 128.507C150.903 127.679 150.223 127.016 149.395 127.026L149.433 130.026ZM158.959 126.552C158.134 126.624 157.524 127.352 157.596 128.177C157.668 129.002 158.396 129.613 159.221 129.54L158.959 126.552ZM168.95 128.297C169.767 128.159 170.318 127.385 170.18 126.569C170.042 125.752 169.267 125.201 168.451 125.339L168.95 128.297ZM177.805 123.357C177.003 123.563 176.519 124.38 176.724 125.182C176.929 125.985 177.747 126.469 178.549 126.264L177.805 123.357ZM187.944 123.435C188.726 123.163 189.14 122.308 188.869 121.526C188.597 120.743 187.742 120.329 186.959 120.601L187.944 123.435ZM195.858 117.095C195.1 117.43 194.757 118.315 195.091 119.073C195.426 119.831 196.311 120.174 197.069 119.84L195.858 117.095ZM205.884 115.535C206.614 115.143 206.889 114.234 206.497 113.504C206.106 112.774 205.197 112.499 204.467 112.89L205.884 115.535ZM212.76 108.064C212.059 108.505 211.847 109.431 212.288 110.132C212.728 110.834 213.654 111.046 214.356 110.605L212.76 108.064ZM222.48 105.151C223.154 104.669 223.311 103.732 222.829 103.058C222.348 102.384 221.411 102.228 220.737 102.709L222.48 105.151ZM228.421 96.9173C227.772 97.4316 227.662 98.375 228.177 99.0244C228.691 99.6738 229.634 99.7833 230.284 99.269L228.421 96.9173ZM237.807 93.0544C238.436 92.5149 238.508 91.5679 237.969 90.9393C237.429 90.3106 236.482 90.2384 235.853 90.7779L237.807 93.0544ZM243.083 84.3766C242.47 84.9343 242.426 85.883 242.983 86.4956C243.541 87.1082 244.49 87.1527 245.102 86.595L243.083 84.3766ZM252.227 79.9719C252.828 79.4026 252.855 78.4532 252.285 77.8514C251.716 77.2497 250.767 77.2235 250.165 77.7928L252.227 79.9719ZM257.163 71.0969C256.566 71.672 256.549 72.6215 257.124 73.2178C257.699 73.8141 258.649 73.8313 259.245 73.2562L257.163 71.0969ZM266.222 66.5173C266.819 65.9422 266.836 64.9927 266.261 64.3963C265.686 63.7999 264.736 63.7827 264.14 64.3577L266.222 66.5173ZM271.16 57.6434C270.558 58.2125 270.532 59.1619 271.101 59.7638C271.67 60.3658 272.62 60.3923 273.222 59.8232L271.16 57.6434ZM280.306 53.2432C280.919 52.6859 280.964 51.7372 280.407 51.1242C279.85 50.5113 278.901 50.4662 278.288 51.0235L280.306 53.2432ZM285.588 44.5696C284.959 45.1085 284.886 46.0555 285.425 46.6846C285.964 47.3138 286.911 47.3869 287.54 46.848L285.588 44.5696ZM294.979 40.7175C295.629 40.204 295.74 39.2607 295.226 38.6106C294.713 37.9605 293.77 37.8497 293.12 38.3632L294.979 40.7175ZM300.933 32.4936C300.258 32.9739 300.1 33.9104 300.58 34.5854C301.061 35.2604 301.997 35.4183 302.672 34.9381L300.933 32.4936ZM310.659 29.6009C311.362 29.1621 311.576 28.2368 311.137 27.5341C310.698 26.8314 309.773 26.6175 309.07 27.0562L310.659 29.6009ZM317.556 22.15C316.825 22.539 316.547 23.4473 316.936 24.1787C317.325 24.9101 318.234 25.1877 318.965 24.7987L317.556 22.15ZM327.588 20.6243C328.348 20.2927 328.694 19.4084 328.363 18.6493C328.031 17.8901 327.147 17.5435 326.388 17.875L327.588 20.6243ZM335.529 14.3184C334.745 14.5866 334.327 15.4394 334.595 16.2232C334.864 17.007 335.716 17.425 336.5 17.1568L335.529 14.3184ZM345.666 14.4457C346.47 14.2445 346.958 13.43 346.757 12.6263C346.556 11.8227 345.742 11.3344 344.938 11.5356L345.666 14.4457ZM354.548 9.55423C353.73 9.68759 353.176 10.4585 353.309 11.2761C353.442 12.0938 354.213 12.6485 355.031 12.5151L354.548 9.55423ZM364.529 11.3586C365.354 11.2912 365.969 10.5672 365.902 9.74156C365.834 8.91588 365.11 8.30115 364.285 8.36852L364.529 11.3586ZM374.076 7.94313C373.248 7.94843 372.581 8.62428 372.586 9.45269C372.591 10.2811 373.267 10.9484 374.096 10.9431L374.076 7.94313ZM383.974 11.2558C384.8 11.3163 385.519 10.6957 385.58 9.86945C385.64 9.04324 385.02 8.32437 384.193 8.26381L383.974 11.2558ZM394.311 9.46774C393.494 9.33197 392.721 9.8844 392.585 10.7016C392.449 11.5189 393.002 12.2914 393.819 12.4272L394.311 9.46774ZM403.502 14.5132C404.303 14.7264 405.124 14.2501 405.337 13.4496C405.551 12.6491 405.074 11.8273 404.274 11.6142L403.502 14.5132ZM413.984 14.707C413.208 14.418 412.344 14.8132 412.055 15.5896C411.766 16.366 412.161 17.2296 412.938 17.5186L413.984 14.707ZM422.066 21.4122C422.812 21.772 423.709 21.4586 424.069 20.7124C424.428 19.9661 424.115 19.0695 423.369 18.7098L422.066 21.4122ZM432.35 23.5328C431.637 23.1104 430.717 23.3456 430.294 24.0583C429.872 24.7709 430.107 25.6911 430.82 26.1135L432.35 23.5328ZM439.173 31.5156C439.851 31.9911 440.787 31.8266 441.262 31.1482C441.738 30.4697 441.573 29.5344 440.895 29.0589L439.173 31.5156ZM449.016 35.1661C448.37 34.6476 447.426 34.7509 446.907 35.3969C446.389 36.043 446.492 36.9871 447.138 37.5057L449.016 35.1661ZM454.75 43.9698C455.367 44.5221 456.315 44.4693 456.868 43.8519C457.42 43.2344 457.367 42.2862 456.75 41.7338L454.75 43.9698ZM464.149 48.6492C463.555 48.0716 462.606 48.0847 462.028 48.6786C461.45 49.2725 461.463 50.2221 462.057 50.7997L464.149 48.6492ZM469.127 57.9021C469.703 58.4976 470.653 58.5133 471.248 57.9373C471.844 57.3613 471.86 56.4117 471.284 55.8163L469.127 57.9021ZM478.227 63.1474C477.662 62.5409 476.713 62.5067 476.107 63.071C475.5 63.6353 475.466 64.5845 476.03 65.191L478.227 63.1474ZM482.84 72.5861C483.399 73.1974 484.348 73.2397 484.959 72.6805C485.57 72.1214 485.613 71.1726 485.054 70.5613L482.84 72.5861ZM491.85 77.9871C491.289 77.3772 490.34 77.3373 489.73 77.8979C489.12 78.4585 489.08 79.4074 489.641 80.0173L491.85 77.9871ZM496.516 87.4063C497.085 88.0082 498.034 88.0348 498.636 87.4657C499.238 86.8965 499.265 85.9472 498.696 85.3452L496.516 87.4063ZM505.672 92.5466C505.088 91.9599 504.138 91.9585 503.551 92.5434C502.964 93.1284 502.963 94.0781 503.548 94.6648L505.672 92.5466ZM510.827 101.693C511.435 102.256 512.384 102.219 512.946 101.611C513.509 101.003 513.472 100.054 512.864 99.4912L510.827 101.693ZM520.374 106.078C519.736 105.55 518.79 105.64 518.262 106.279C517.735 106.917 517.824 107.863 518.463 108.39L520.374 106.078ZM526.527 114.595C527.202 115.075 528.139 114.916 528.619 114.241C529.099 113.566 528.94 112.629 528.265 112.149L526.527 114.595ZM536.595 117.538C535.879 117.121 534.961 117.364 534.544 118.079C534.127 118.795 534.369 119.714 535.085 120.131L536.595 117.538ZM544.171 124.806C544.927 125.144 545.814 124.805 546.153 124.049C546.491 123.293 546.152 122.406 545.396 122.068L544.171 124.806ZM554.631 125.561C553.84 125.315 553 125.758 552.754 126.549C552.508 127.34 552.95 128.18 553.741 128.426L554.631 125.561ZM563.708 130.852C564.523 130.998 565.302 130.454 565.447 129.639C565.593 128.823 565.049 128.044 564.234 127.899L563.708 130.852ZM574.031 129.029C573.203 128.983 572.496 129.617 572.451 130.445C572.406 131.272 573.04 131.979 573.867 132.024L574.031 129.029ZM584.069 131.998C584.896 131.95 585.528 131.241 585.48 130.414C585.433 129.587 584.723 128.955 583.896 129.003L584.069 131.998ZM593.736 127.932C592.917 128.062 592.359 128.83 592.488 129.648C592.618 130.466 593.386 131.025 594.204 130.895L593.736 127.932ZM604.044 128.895C604.848 128.695 605.338 127.882 605.138 127.078C604.939 126.274 604.125 125.784 603.321 125.983L604.044 128.895ZM612.438 123.338C611.652 123.598 611.226 124.447 611.487 125.234C611.747 126.02 612.596 126.446 613.383 126.185L612.438 123.338ZM622.486 122.805C623.253 122.491 623.619 121.614 623.304 120.848C622.99 120.082 622.113 119.715 621.347 120.03L622.486 122.805ZM630.028 116.141C629.282 116.503 628.971 117.4 629.333 118.145C629.694 118.891 630.592 119.202 631.337 118.84L630.028 116.141ZM639.934 114.365C640.658 113.962 640.919 113.049 640.516 112.325C640.114 111.601 639.2 111.34 638.476 111.743L639.934 114.365ZM646.69 106.899C645.987 107.337 645.772 108.263 646.211 108.966C646.649 109.669 647.574 109.883 648.277 109.445L646.69 106.899ZM656.371 104.141C657.053 103.671 657.226 102.738 656.757 102.055C656.288 101.372 655.354 101.199 654.671 101.669L656.371 104.141ZM662.427 96.0974C661.764 96.594 661.629 97.5342 662.126 98.1972C662.622 98.8602 663.562 98.9951 664.225 98.4985L662.427 96.0974ZM671.853 92.559C672.497 92.0382 672.597 91.0937 672.076 90.4495C671.556 89.8052 670.611 89.7051 669.967 90.2259L671.853 92.559ZM677.297 84.0904C676.671 84.6326 676.602 85.5799 677.145 86.2062C677.687 86.8325 678.634 86.9007 679.261 86.3585L677.297 84.0904ZM686.456 79.9294C687.065 79.368 687.104 78.4191 686.543 77.8098C685.981 77.2006 685.032 77.1618 684.423 77.7231L686.456 79.9294ZM691.37 71.1335C690.777 71.7121 690.765 72.6618 691.344 73.2547C691.922 73.8476 692.872 73.8591 693.465 73.2805L691.37 71.1335ZM700.285 66.4418C700.862 65.8475 700.848 64.8979 700.254 64.3207C699.66 63.7435 698.71 63.7574 698.133 64.3517L700.285 66.4418ZM704.706 57.4094C704.144 58.018 704.182 58.967 704.79 59.529C705.399 60.0911 706.348 60.0533 706.91 59.4447L704.706 57.4094ZM713.376 52.2712C713.923 51.6493 713.863 50.7015 713.241 50.1542C712.619 49.6069 711.671 49.6673 711.124 50.2892L713.376 52.2712ZM717.366 43.0287C716.833 43.6631 716.915 44.6092 717.55 45.1421C718.184 45.6749 719.13 45.5927 719.663 44.9583L717.366 43.0287ZM725.79 37.4947C726.309 36.8486 726.205 35.9045 725.559 35.3861C724.913 34.8677 723.969 34.9712 723.45 35.6174L725.79 37.4947ZM729.349 28.093C728.845 28.7507 728.97 29.6922 729.628 30.1959C730.286 30.6995 731.227 30.5747 731.731 29.9169L729.349 28.093ZM737.517 22.1744C738.004 21.5048 737.857 20.5665 737.188 20.0787C736.518 19.5909 735.58 19.7383 735.092 20.4078L737.517 22.1744ZM740.62 12.599C740.152 13.2823 740.326 14.2159 741.009 14.6843C741.693 15.1526 742.626 14.9784 743.095 14.2951L740.62 12.599ZM2 2C0.565063 2.43699 0.565085 2.43706 0.565108 2.43713C0.565118 2.43717 0.565144 2.43725 0.565164 2.43732C0.565206 2.43745 0.565256 2.43762 0.565313 2.43781C0.565429 2.43818 0.565576 2.43867 0.565756 2.43926C0.566114 2.44043 0.566601 2.44202 0.567217 2.44404C0.568448 2.44806 0.570192 2.45374 0.572451 2.46109C0.576969 2.47578 0.583547 2.49708 0.592197 2.52491C0.609495 2.58057 0.635079 2.66233 0.669043 2.76939C0.736968 2.98352 0.838414 3.29889 0.974123 3.70926C1.24554 4.52997 1.65404 5.73075 2.20561 7.2615L5.02798 6.24452C4.48587 4.74002 4.08598 3.5643 3.82241 2.76732C3.69063 2.36884 3.59294 2.06507 3.52861 1.86226C3.49644 1.76086 3.47261 1.6847 3.45703 1.63456C3.44924 1.6095 3.44351 1.59093 3.43983 1.57898C3.43799 1.573 3.43667 1.56867 3.43585 1.56601C3.43544 1.56467 3.43516 1.56376 3.43501 1.56326C3.43493 1.56301 3.43489 1.56286 3.43488 1.56282C3.43487 1.5628 3.43487 1.56281 3.43488 1.56284C3.43489 1.56286 3.4349 1.5629 3.4349 1.56291C3.43492 1.56296 3.43494 1.56301 2 2ZM5.91704 16.7957C7.08915 19.613 8.46335 22.7629 10.0487 26.1687L12.7685 24.9027C11.2018 21.537 9.84424 18.4252 8.68689 15.6433L5.91704 16.7957ZM14.5354 35.3241C16.0257 38.2172 17.6441 41.2225 19.3947 44.3059L22.0035 42.8247C20.2742 39.7787 18.6751 36.8093 17.2024 33.9503L14.5354 35.3241ZM24.6381 53.104C26.3981 55.9184 28.2637 58.7689 30.2375 61.6323L32.7075 59.9296C30.7603 57.105 28.9193 54.2919 27.1816 51.5133L24.6381 53.104ZM36.2428 69.9177C38.2813 72.5917 40.4167 75.2577 42.6512 77.8965L44.9407 75.9578C42.7409 73.3601 40.6376 70.7343 38.6286 68.0989L36.2428 69.9177ZM49.4714 85.5192C51.7971 87.9769 54.216 90.393 56.7301 92.7508L58.7823 90.5626C56.3137 88.2474 53.937 85.8736 51.6503 83.4572L49.4714 85.5192ZM64.4284 99.5245C67.0451 101.68 69.7531 103.766 72.5542 105.767L74.2978 103.325C71.5551 101.366 68.9017 99.3228 66.3358 97.2091L64.4284 99.5245ZM81.1132 111.422C84.0134 113.187 87.0031 114.858 90.0838 116.421L91.4408 113.745C88.4313 112.219 85.5093 110.586 82.6731 108.859L81.1132 111.422ZM99.4319 120.7C102.563 121.982 105.779 123.152 109.082 124.196L109.987 121.336C106.764 120.317 103.625 119.175 100.569 117.924L99.4319 120.7ZM118.987 126.882C122.274 127.628 125.638 128.252 129.082 128.742L129.504 125.772C126.142 125.293 122.859 124.685 119.652 123.957L118.987 126.882ZM139.292 129.78C140.998 129.886 142.723 129.96 144.465 130L144.534 127C142.831 126.961 141.145 126.889 139.477 126.786L139.292 129.78ZM144.465 130C146.142 130.038 147.798 130.047 149.433 130.026L149.395 127.026C147.796 127.046 146.176 127.038 144.534 127L144.465 130ZM159.221 129.54C162.551 129.249 165.792 128.831 168.95 128.297L168.451 125.339C165.371 125.86 162.209 126.267 158.959 126.552L159.221 129.54ZM178.549 126.264C181.766 125.44 184.895 124.494 187.944 123.435L186.959 120.601C183.989 121.633 180.94 122.555 177.805 123.357L178.549 126.264ZM197.069 119.84C200.084 118.509 203.019 117.07 205.884 115.535L204.467 112.89C201.666 114.391 198.799 115.797 195.858 117.095L197.069 119.84ZM214.356 110.605C217.124 108.867 219.829 107.044 222.48 105.151L220.737 102.709C218.13 104.571 215.474 106.36 212.76 108.064L214.356 110.605ZM230.284 99.269C232.833 97.2503 235.337 95.1742 237.807 93.0544L235.853 90.7779C233.41 92.8754 230.935 94.926 228.421 96.9173L230.284 99.269ZM245.102 86.595C247.499 84.4134 249.871 82.2012 252.227 79.9719L250.165 77.7928C247.819 80.0124 245.462 82.211 243.083 84.3766L245.102 86.595ZM259.245 73.2562C261.593 70.9922 263.878 68.7773 266.222 66.5173L264.14 64.3577C261.83 66.5854 259.47 68.8718 257.163 71.0969L259.245 73.2562ZM273.222 59.8232C275.568 57.6041 277.927 55.4067 280.306 53.2432L278.288 51.0235C275.891 53.2033 273.518 55.4145 271.16 57.6434L273.222 59.8232ZM287.54 46.848C289.986 44.7525 292.463 42.7048 294.979 40.7175L293.12 38.3632C290.568 40.3783 288.061 42.4517 285.588 44.5696L287.54 46.848ZM302.672 34.9381C305.282 33.0811 307.941 31.2978 310.659 29.6009L309.07 27.0562C306.297 28.7876 303.588 30.6047 300.933 32.4936L302.672 34.9381ZM318.965 24.7987C321.77 23.3068 324.642 21.9113 327.588 20.6243L326.388 17.875C323.367 19.1944 320.426 20.6238 317.556 22.15L318.965 24.7987ZM336.5 17.1568C339.475 16.1389 342.528 15.2316 345.666 14.4457L344.938 11.5356C341.716 12.3423 338.582 13.2737 335.529 14.3184L336.5 17.1568ZM355.031 12.5151C358.112 12.0125 361.276 11.624 364.529 11.3586L364.285 8.36852C360.953 8.64039 357.709 9.03861 354.548 9.55423L355.031 12.5151ZM374.096 10.9431C375.695 10.9328 377.315 10.9513 378.956 10.9993L379.044 8.00063C377.367 7.95154 375.712 7.93267 374.076 7.94313L374.096 10.9431ZM378.956 10.9993C380.653 11.049 382.325 11.135 383.974 11.2558L384.193 8.26381C382.501 8.13975 380.784 8.05159 379.044 8.00063L378.956 10.9993ZM393.819 12.4272C397.144 12.9796 400.369 13.6792 403.502 14.5132L404.274 11.6142C401.049 10.7557 397.731 10.0359 394.311 9.46774L393.819 12.4272ZM412.938 17.5186C416.07 18.6844 419.11 19.9873 422.066 21.4122L423.369 18.7098C420.332 17.2461 417.207 15.9065 413.984 14.707L412.938 17.5186ZM430.82 26.1135C433.678 27.8075 436.459 29.6135 439.173 31.5156L440.895 29.0589C438.123 27.1162 435.278 25.2684 432.35 23.5328L430.82 26.1135ZM447.138 37.5057C449.729 39.5856 452.263 41.7456 454.75 43.9698L456.75 41.7338C454.228 39.478 451.653 37.283 449.016 35.1661L447.138 37.5057ZM462.057 50.7997C464.448 53.1253 466.802 55.498 469.127 57.9021L471.284 55.8163C468.941 53.3944 466.566 50.9997 464.149 48.6492L462.057 50.7997ZM476.03 65.191C478.315 67.6467 480.581 70.1166 482.84 72.5861L485.054 70.5613C482.793 68.0902 480.52 65.6128 478.227 63.1474L476.03 65.191ZM489.641 80.0173C491.927 82.5042 494.215 84.9734 496.516 87.4063L498.696 85.3452C496.409 82.9264 494.131 80.4684 491.85 77.9871L489.641 80.0173ZM503.548 94.6648C505.946 97.0696 508.368 99.4189 510.827 101.693L512.864 99.4912C510.44 97.2487 508.047 94.9279 505.672 92.5466L503.548 94.6648ZM518.463 108.39C521.095 110.566 523.779 112.641 526.527 114.595L528.265 112.149C525.583 110.243 522.957 108.213 520.374 106.078L518.463 108.39ZM535.085 120.131C538.029 121.846 541.053 123.412 544.171 124.806L545.396 122.068C542.383 120.72 539.454 119.204 536.595 117.538L535.085 120.131ZM553.741 128.426C556.961 129.426 560.279 130.242 563.708 130.852L564.234 127.899C560.931 127.311 557.734 126.525 554.631 125.561L553.741 128.426ZM573.867 132.024C577.168 132.204 580.566 132.2 584.069 131.998L583.896 129.003C580.503 129.199 577.217 129.202 574.031 129.029L573.867 132.024ZM594.204 130.895C595.88 130.63 597.579 130.322 599.301 129.969L598.699 127.03C597.02 127.374 595.366 127.674 593.736 127.932L594.204 130.895ZM599.301 129.969C600.888 129.645 602.469 129.286 604.044 128.895L603.321 125.983C601.785 126.365 600.245 126.714 598.699 127.03L599.301 129.969ZM613.383 126.185C616.446 125.169 619.481 124.039 622.486 122.805L621.347 120.03C618.403 121.238 615.432 122.345 612.438 123.338L613.383 126.185ZM631.337 118.84C634.236 117.434 637.103 115.938 639.934 114.365L638.476 111.743C635.691 113.291 632.874 114.76 630.028 116.141L631.337 118.84ZM648.277 109.445C651.013 107.74 653.712 105.968 656.371 104.141L654.671 101.669C652.047 103.472 649.386 105.219 646.69 106.899L648.277 109.445ZM664.225 98.4985C666.812 96.5612 669.355 94.5778 671.853 92.559L669.967 90.2259C667.497 92.2226 664.982 94.1833 662.427 96.0974L664.225 98.4985ZM679.261 86.3585C681.711 84.2376 684.11 82.0909 686.456 79.9294L684.423 77.7231C682.099 79.8646 679.723 81.9907 677.297 84.0904L679.261 86.3585ZM693.465 73.2805C695.801 71.0003 698.076 68.7165 700.285 66.4418L698.133 64.3517C695.941 66.6081 693.686 68.8729 691.37 71.1335L693.465 73.2805ZM706.91 59.4447C709.147 57.0222 711.304 54.6256 713.376 52.2712L711.124 50.2892C709.067 52.6266 706.926 55.0053 704.706 57.4094L706.91 59.4447ZM719.663 44.9583C721.825 42.385 723.869 39.889 725.79 37.4947L723.45 35.6174C721.543 37.995 719.512 40.4735 717.366 43.0287L719.663 44.9583ZM731.731 29.9169C733.893 27.0937 735.827 24.4942 737.517 22.1744L735.092 20.4078C733.415 22.7096 731.496 25.2898 729.349 28.093L731.731 29.9169ZM743.095 14.2951C743.966 13.0235 744.631 12.03 745.08 11.353C745.304 11.0145 745.474 10.7551 745.588 10.5795C745.645 10.4918 745.688 10.425 745.717 10.3798C745.732 10.3571 745.743 10.3399 745.751 10.3282C745.754 10.3223 745.757 10.3178 745.759 10.3147C745.76 10.3131 745.761 10.3119 745.762 10.311C745.762 10.3106 745.762 10.3102 745.762 10.3099C745.763 10.3098 745.763 10.3097 745.763 10.3096C745.763 10.3096 745.763 10.3095 745.763 10.3095C745.763 10.3094 745.763 10.3094 744.5 9.49991C743.237 8.69042 743.237 8.69039 743.237 8.69036C743.237 8.69036 743.237 8.69034 743.237 8.69034C743.237 8.69034 743.237 8.69036 743.237 8.6904C743.237 8.69048 743.237 8.69065 743.237 8.6909C743.237 8.6914 743.236 8.69226 743.235 8.69345C743.234 8.69584 743.231 8.6996 743.228 8.70473C743.221 8.71499 743.211 8.7307 743.198 8.75181C743.17 8.79401 743.129 8.85776 743.074 8.94244C742.964 9.11182 742.798 9.36496 742.578 9.69707C742.138 10.3613 741.482 11.3414 740.62 12.599L743.095 14.2951Z" fill="#8C8EC4"/>
</svg>
