<svg width="20" height="20" viewBox="0 0 20 20" fill="none" xmlns="http://www.w3.org/2000/svg">
<path d="M3.19742 17.7777C11.4914 17.7894 17.7866 11.4194 17.7778 3.19731C17.7778 2.65967 17.3423 2.22217 16.8056 2.22217H14.2389C13.7577 2.22217 13.3484 2.57606 13.2774 3.05244C13.1081 4.19486 12.7758 5.30707 12.2906 6.35508L12.1905 6.57091C12.1232 6.71615 12.1087 6.88032 12.1496 7.03508C12.1904 7.18985 12.2839 7.32552 12.4141 7.41869C13.2094 7.98647 13.5127 9.12883 12.8934 10.0194C12.1166 11.1374 11.1376 12.1174 10.0195 12.8942C9.12797 13.5126 7.98561 13.2092 7.4188 12.4149C7.32573 12.2844 7.18995 12.1905 7.03496 12.1495C6.87996 12.1085 6.71551 12.1229 6.57005 12.1904L6.35519 12.2895C5.30714 12.7756 4.19492 13.1081 3.05256 13.2773C2.57617 13.3483 2.22228 13.7576 2.22228 14.2398V16.8055C2.22228 16.9332 2.24746 17.0597 2.29638 17.1778C2.3453 17.2958 2.417 17.403 2.50738 17.4933C2.59776 17.5836 2.70505 17.6552 2.82312 17.704C2.94119 17.7528 3.06772 17.7778 3.19547 17.7777H3.19742Z" fill="#262961"/>
</svg>
