<svg width="20" height="18" viewBox="0 0 20 18" fill="none" xmlns="http://www.w3.org/2000/svg">
<path d="M10 1.66667C5.39763 1.66667 1.66667 5.39763 1.66667 10V11.6667H3.33333C4.25381 11.6667 5 12.4129 5 13.3333V18.3333C5 19.2538 4.25381 20 3.33333 20H1.66667C0.746192 20 0 19.2538 0 18.3333V10C0 4.47715 4.47715 0 10 0C15.5228 0 20 4.47715 20 10V18.3333C20 19.2538 19.2538 20 18.3333 20H16.6667C15.7462 20 15 19.2538 15 18.3333V13.3333C15 12.4129 15.7462 11.6667 16.6667 11.6667H18.3333V10C18.3333 5.39763 14.6024 1.66667 10 1.66667Z" fill="#262961"/>
</svg>
