<svg width="20" height="19" viewBox="0 0 20 19" fill="none" xmlns="http://www.w3.org/2000/svg">
<path d="M3.34736 13.8674C3.61035 14.1312 3.74204 14.4985 3.70654 14.8692C3.62699 15.7001 3.44377 16.5648 3.20846 17.3681C4.95208 16.9651 6.01697 16.4976 6.50102 16.2523C6.77578 16.1131 7.09227 16.0802 7.38978 16.16C8.21208 16.3805 9.08845 16.5 10 16.5C14.9945 16.5 18.75 12.9906 18.75 9C18.75 5.00943 14.9945 1.5 10 1.5C5.0055 1.5 1.25 5.00943 1.25 9C1.25 10.8351 2.02163 12.538 3.34736 13.8674ZM2.73112 18.7487C2.7227 18.7503 2.71427 18.752 2.70583 18.7537C2.59104 18.7763 2.47403 18.7986 2.35477 18.8204C2.1875 18.851 2.0158 18.8808 1.83965 18.9097C1.59088 18.9504 1.40046 18.6902 1.49872 18.458C1.56292 18.3064 1.62621 18.1474 1.68788 17.9826C1.72705 17.8779 1.76556 17.7708 1.80323 17.6618C1.80486 17.6571 1.80648 17.6524 1.8081 17.6476C2.11778 16.748 2.36996 15.7139 2.46223 14.7501C0.928827 13.2124 0 11.2011 0 9C0 4.16751 4.47715 0.25 10 0.25C15.5228 0.25 20 4.16751 20 9C20 13.8325 15.5228 17.75 10 17.75C8.97906 17.75 7.99385 17.6161 7.06605 17.3674C6.41671 17.6964 5.01792 18.2954 2.73112 18.7487Z" fill="#262961"/>
<path d="M5 5.875C5 5.52982 5.27982 5.25 5.625 5.25H14.375C14.7202 5.25 15 5.52982 15 5.875C15 6.22018 14.7202 6.5 14.375 6.5H5.625C5.27982 6.5 5 6.22018 5 5.875ZM5 9C5 8.65482 5.27982 8.375 5.625 8.375H14.375C14.7202 8.375 15 8.65482 15 9C15 9.34518 14.7202 9.625 14.375 9.625H5.625C5.27982 9.625 5 9.34518 5 9ZM5 12.125C5 11.7798 5.27982 11.5 5.625 11.5H10.625C10.9702 11.5 11.25 11.7798 11.25 12.125C11.25 12.4702 10.9702 12.75 10.625 12.75H5.625C5.27982 12.75 5 12.4702 5 12.125Z" fill="#262961"/>
</svg>
