<svg width="20" height="18" viewBox="0 0 20 18" fill="none" xmlns="http://www.w3.org/2000/svg">
<path d="M7.5 10.25C7.5 9.90482 7.77982 9.625 8.125 9.625H11.875C12.2202 9.625 12.5 9.90482 12.5 10.25C12.5 10.5952 12.2202 10.875 11.875 10.875H8.125C7.77982 10.875 7.5 10.5952 7.5 10.25Z" fill="#262961"/>
<path d="M4.81694 4.18306C4.57286 3.93898 4.17714 3.93898 3.93306 4.18306C3.68898 4.42714 3.68898 4.82286 3.93306 5.06694L5.99112 7.125L3.93306 9.18306C3.68898 9.42714 3.68898 9.82286 3.93306 10.0669C4.17714 10.311 4.57286 10.311 4.81694 10.0669L7.31694 7.56694C7.56102 7.32286 7.56102 6.92714 7.31694 6.68306L4.81694 4.18306Z" fill="#262961"/>
<path d="M2.5 0.25C1.11929 0.25 0 1.36929 0 2.75V15.25C0 16.6307 1.11929 17.75 2.5 17.75H17.5C18.8807 17.75 20 16.6307 20 15.25V2.75C20 1.36929 18.8807 0.25 17.5 0.25H2.5ZM17.5 1.5C18.1904 1.5 18.75 2.05964 18.75 2.75V15.25C18.75 15.9404 18.1904 16.5 17.5 16.5H2.5C1.80964 16.5 1.25 15.9404 1.25 15.25V2.75C1.25 2.05964 1.80964 1.5 2.5 1.5H17.5Z" fill="#262961"/>
</svg>
