<svg width="20" height="16" viewBox="0 0 20 16" fill="none" xmlns="http://www.w3.org/2000/svg">
<path d="M10 3C10.3452 3 10.625 3.27982 10.625 3.625V5.5C10.625 5.84518 10.3452 6.125 10 6.125C9.65482 6.125 9.375 5.84518 9.375 5.5V3.625C9.375 3.27982 9.65482 3 10 3Z" fill="#262961"/>
<path d="M4.66529 5.16529C4.90937 4.92121 5.3051 4.92121 5.54918 5.16529L6.69194 6.30806C6.93602 6.55214 6.93602 6.94786 6.69194 7.19194C6.44786 7.43602 6.05214 7.43602 5.80806 7.19194L4.66529 6.04917C4.42121 5.8051 4.42121 5.40937 4.66529 5.16529Z" fill="#262961"/>
<path d="M2.5 10.5C2.5 10.1548 2.77982 9.875 3.125 9.875H5.10723C5.45241 9.875 5.73223 10.1548 5.73223 10.5C5.73223 10.8452 5.45241 11.125 5.10723 11.125H3.125C2.77982 11.125 2.5 10.8452 2.5 10.5Z" fill="#262961"/>
<path d="M14.375 10.5C14.375 10.1548 14.6548 9.875 15 9.875H16.875C17.2202 9.875 17.5 10.1548 17.5 10.5C17.5 10.8452 17.2202 11.125 16.875 11.125H15C14.6548 11.125 14.375 10.8452 14.375 10.5Z" fill="#262961"/>
<path d="M15.3179 5.19278C15.1386 5.01342 14.8514 5.00227 14.6587 5.1672L9.43408 9.6382C8.93059 10.0691 8.90077 10.8375 9.36936 11.3061C9.84876 11.7855 10.6385 11.7415 11.0617 11.2118L15.354 5.83941C15.5084 5.64614 15.4929 5.3677 15.3179 5.19278Z" fill="#262961"/>
<path fill-rule="evenodd" clip-rule="evenodd" d="M0 10.5C0 4.97715 4.47715 0.5 10 0.5C15.5228 0.5 20 4.97715 20 10.5C20 11.6651 19.8005 12.785 19.4332 13.8265C18.8808 15.393 17.1279 15.8293 15.7684 15.3887C14.1365 14.8599 11.8426 14.25 10 14.25C8.15737 14.25 5.8635 14.8599 4.23163 15.3887C2.87211 15.8293 1.11918 15.393 0.566788 13.8265C0.199525 12.785 0 11.6651 0 10.5ZM10 1.75C5.16751 1.75 1.25 5.66751 1.25 10.5C1.25 11.5216 1.42481 12.501 1.74564 13.4108C1.99943 14.1305 2.89974 14.5063 3.84629 14.1996C5.49515 13.6653 7.94798 13 10 13C12.052 13 14.5049 13.6653 16.1537 14.1996C17.1003 14.5063 18.0006 14.1305 18.2544 13.4108C18.5752 12.501 18.75 11.5216 18.75 10.5C18.75 5.66751 14.8325 1.75 10 1.75Z" fill="#262961"/>
</svg>
