<svg width="20" height="20" viewBox="0 0 20 20" fill="none" xmlns="http://www.w3.org/2000/svg">
<path fill-rule="evenodd" clip-rule="evenodd" d="M7.28562 12.7143C7.04154 12.4702 6.64582 12.4702 6.40174 12.7143L1.2815 17.8345L1.2815 14.3748C1.2815 14.0297 1.00167 13.7498 0.656495 13.7498C0.311317 13.7498 0.0314941 14.0297 0.0314946 14.3748L0.0314941 19.3434C0.0314941 19.6886 0.311317 19.9684 0.656495 19.9684L5.62504 19.9684C5.97022 19.9684 6.25004 19.6886 6.25004 19.3434C6.25004 18.9983 5.97022 18.7184 5.62504 18.7184L2.16538 18.7184L7.28562 13.5982C7.5297 13.3541 7.5297 12.9584 7.28562 12.7143Z" fill="#262961"/>
<path fill-rule="evenodd" clip-rule="evenodd" d="M12.7145 12.7143C12.9586 12.4702 13.3543 12.4702 13.5984 12.7143L18.7186 17.8345L18.7186 14.3748C18.7186 14.0297 18.9984 13.7498 19.3436 13.7498C19.6888 13.7498 19.9686 14.0297 19.9686 14.3748L19.9686 19.3434C19.9686 19.6886 19.6888 19.9684 19.3436 19.9684L14.3751 19.9684C14.0299 19.9684 13.7501 19.6886 13.7501 19.3434C13.7501 18.9983 14.0299 18.7184 14.3751 18.7184L17.8347 18.7184L12.7145 13.5982C12.4704 13.3541 12.4704 12.9584 12.7145 12.7143Z" fill="#262961"/>
<path fill-rule="evenodd" clip-rule="evenodd" d="M12.7145 7.28569C12.9586 7.52977 13.3543 7.52977 13.5984 7.28569L18.7186 2.16545L18.7186 5.62517C18.7186 5.97034 18.9984 6.25017 19.3436 6.25017C19.6888 6.25017 19.9686 5.97034 19.9686 5.62517L19.9686 0.656566C19.9686 0.311388 19.6888 0.0315647 19.3436 0.0315647L14.3751 0.0315685C14.0299 0.0315685 13.7501 0.311391 13.7501 0.656569C13.7501 1.00175 14.0299 1.28157 14.3751 1.28157L17.8347 1.28157L12.7145 6.40181C12.4704 6.64589 12.4704 7.04161 12.7145 7.28569Z" fill="#262961"/>
<path fill-rule="evenodd" clip-rule="evenodd" d="M7.28562 7.28569C7.04154 7.52977 6.64582 7.52977 6.40174 7.28569L1.2815 2.16545L1.2815 5.62517C1.2815 5.97034 1.00167 6.25017 0.656495 6.25017C0.311317 6.25017 0.0314941 5.97034 0.0314946 5.62517L0.0314941 0.656566C0.0314941 0.311388 0.311317 0.0315647 0.656495 0.0315647L5.62504 0.0315685C5.97022 0.0315685 6.25004 0.311391 6.25004 0.656569C6.25004 1.00175 5.97022 1.28157 5.62504 1.28157L2.16538 1.28157L7.28562 6.40181C7.5297 6.64589 7.5297 7.04161 7.28562 7.28569Z" fill="#262961"/>
</svg>
