<svg width="60" height="52" viewBox="0 0 60 52" fill="none" xmlns="http://www.w3.org/2000/svg">
<path d="M38.454 2.14039C38.9453 2.42305 42.4552 4.49452 43.6642 7.51875C44.9729 10.7879 42.3375 12.0366 42.3086 14.6992C42.2388 20.869 56.2646 24.8849 59.3405 31.9416C62.8361 39.9598 52.0658 51.5844 35.7872 51.4822C24.327 51.4121 10.081 45.5277 3.51202 35.9889C-3.55883 25.7228 1.89769 16.4982 3.92317 13.0745C5.09676 11.0893 8.46814 6.12576 16.0137 3.01229C18.1169 2.14575 29.972 -2.74768 38.454 2.14039Z" fill="white"/>
<path d="M38.454 2.14039C38.9453 2.42305 42.4552 4.49452 43.6642 7.51875C44.9729 10.7879 42.3375 12.0366 42.3086 14.6992C42.2388 20.869 56.2646 24.8849 59.3405 31.9416C62.8361 39.9598 52.0658 51.5844 35.7872 51.4822C24.327 51.4121 10.081 45.5277 3.51202 35.9889C-3.55883 25.7228 1.89769 16.4982 3.92317 13.0745C5.09676 11.0893 8.46814 6.12576 16.0137 3.01229C18.1169 2.14575 29.972 -2.74768 38.454 2.14039Z" fill="#3AFFDC" fill-opacity="0.6"/>
<path fill-rule="evenodd" clip-rule="evenodd" d="M16.4332 16.025C3.80413 21.4747 4.17264 21.2952 4.0265 22.0707C3.99117 22.2586 3.99117 22.5658 4.0265 22.7537C4.16182 23.4718 4.38755 23.6008 8.9155 25.5479L13.1292 27.36L13.1771 32.6819L13.225 38.0036L13.4947 38.7665C14.59 41.865 18.1184 44.3725 22.8795 45.4358C25.0153 45.9127 25.885 46 28.4998 46C31.1147 46 31.9844 45.9127 34.1202 45.4358C38.8776 44.3732 42.4106 41.8626 43.505 38.7665L43.7747 38.0036L43.8031 32.6986L43.8315 27.3937L44.5692 27.0635L45.3069 26.7334L45.3548 35.1508C45.4021 43.4663 45.4051 43.5715 45.6002 43.8316C45.9754 44.3321 46.2815 44.4882 46.8871 44.4882C47.4927 44.4882 47.7988 44.3321 48.174 43.8316C48.3698 43.5706 48.3717 43.4906 48.3969 34.4854L48.4222 25.4025L50.394 24.5511C52.515 23.6351 52.8514 23.4001 52.9742 22.748C53.009 22.5634 53.0085 22.2586 52.9732 22.0707C52.8264 21.2915 53.1971 21.4725 40.6622 16.063C32.5924 12.5805 28.8945 11.0294 28.5956 11.002C28.1992 10.9656 27.2241 11.3683 16.4332 16.025ZM38.0931 18.2879C43.2963 20.53 47.5536 22.386 47.5539 22.4122C47.5541 22.4384 47.2296 22.5966 46.8326 22.7637L46.1108 23.0674L37.3293 21.971C32.4995 21.3678 28.4037 20.8966 28.2276 20.9235C27.7941 20.9901 27.2657 21.4096 27.091 21.8259C26.7928 22.5366 27.178 23.5144 27.8661 23.7931C28.0303 23.8596 30.8581 24.2441 34.1501 24.6475C37.4421 25.0507 40.2093 25.4102 40.2994 25.4461C40.4092 25.49 38.5497 26.336 34.6465 28.018C31.4474 29.3966 28.7393 30.5482 28.6286 30.577C28.4935 30.6122 25.7191 29.4619 20.2036 27.084C9.66124 22.5389 9.59909 22.5119 9.52305 22.432C9.45582 22.3614 28.2533 14.2187 28.4945 14.214C28.5706 14.2125 32.89 16.0457 38.0931 18.2879ZM22.551 31.4226C27.6601 33.628 28.278 33.8725 28.6322 33.8292C28.8491 33.8027 31.5261 32.6999 34.581 31.3785C37.636 30.0571 40.2772 28.9167 40.4503 28.8444L40.7652 28.7128L40.7376 33.1697L40.7101 37.6266L40.4017 38.2503C39.049 40.9856 33.9866 43.0101 28.4998 43.0101C23.0143 43.0101 17.9504 40.985 16.598 38.2503L16.2896 37.6266L16.262 33.1635L16.2345 28.7005L16.5493 28.8342C16.7225 28.9077 19.4232 30.0725 22.551 31.4226Z" fill="#262961"/>
</svg>
