<svg width="65" height="65" viewBox="0 0 65 65" fill="none" xmlns="http://www.w3.org/2000/svg">
<path d="M6.55591 7.5C6.98832 7.05603 11.2524 2.22316 14.8848 1.67486C18.8119 1.08019 19.5419 4.10782 22.4715 4.76009C29.2593 6.27433 37.0854 1.86892 45.624 0.324756C60.2769 -2.50492 67.4576 13.6246 63.3468 30.5C60.4548 42.3808 51.3277 55.9097 39.1935 60.5C26.134 65.4414 14.5 65.4443 8.34681 60C4 56.1539 1.90121 50.0608 0.320489 41.5C-0.118679 39.1141 -1.24085 15.5 6.55591 7.5Z" fill="white"/>
<path d="M6.55591 7.5C6.98832 7.05603 11.2524 2.22316 14.8848 1.67486C18.8119 1.08019 19.5419 4.10782 22.4715 4.76009C29.2593 6.27433 37.0854 1.86892 45.624 0.324756C60.2769 -2.50492 67.4576 13.6246 63.3468 30.5C60.4548 42.3808 51.3277 55.9097 39.1935 60.5C26.134 65.4414 14.5 65.4443 8.34681 60C4 56.1539 1.90121 50.0608 0.320489 41.5C-0.118679 39.1141 -1.24085 15.5 6.55591 7.5Z" fill="#3AFFDC" fill-opacity="0.6"/>
<mask id="path-2-inside-1_644_10751" fill="white">
<path fill-rule="evenodd" clip-rule="evenodd" d="M10.263 5.0447C9.07002 5.35729 8.21795 5.85533 7.27836 6.78915C6.68872 7.37527 6.33527 7.84257 6.05522 8.40625C5.28059 9.9658 5.30685 9.44993 5.34164 22.4387L5.37281 34.091L5.61403 34.7229C6.23287 36.3442 7.11689 37.4775 8.41945 38.3196C9.52193 39.0323 10.2444 39.2082 12.3631 39.2801L14.212 39.3428L14.3967 39.9992C14.8525 41.6198 15.7878 43.2561 16.9981 44.5501L17.6625 45.2605L17.1514 45.5291C16.257 45.9992 14.5545 47.3542 13.6857 48.2872C11.2131 50.9422 9.78546 54.2814 9.6275 57.7786C9.56952 59.0631 9.58122 59.1761 9.82123 59.6372C9.96749 59.918 10.2796 60.269 10.5511 60.4577L11.0254 60.7874L24.4442 60.8198C34.209 60.8433 37.9795 60.8184 38.2906 60.7281C38.9171 60.5464 39.3065 60.2132 39.6141 59.596C39.9205 58.9809 39.9519 58.4774 39.7752 57.0099C39.3951 53.8524 38.2671 51.2637 36.1918 48.7853C35.1919 47.5913 33.4345 46.1302 32.2225 45.4856L31.8407 45.2824L32.5366 44.5556C33.7151 43.3245 34.5214 41.9656 35.0672 40.291L35.3762 39.3428H37.5495H39.7227L39.7774 42.8986C39.8241 45.9326 39.8587 46.5027 40.0131 46.7827C40.5491 47.7544 41.7091 48.1765 42.7072 47.7631C42.9827 47.649 44.4565 46.2543 47.2742 43.4413L51.4345 39.2881H53.5688C55.1409 39.2881 55.8748 39.2435 56.355 39.1188C58.7446 38.4984 60.4922 36.723 61.1164 34.2818C61.319 33.4896 61.3281 32.9676 61.3281 22.0558C61.3281 11.0627 61.3205 10.6272 61.1121 9.81219C60.7959 8.57628 60.3103 7.73687 59.3627 6.78915C58.4152 5.84143 57.5759 5.35575 56.3402 5.03955C55.5119 4.82773 55.0554 4.82358 33.2783 4.82948C11.7639 4.83528 11.0361 4.84218 10.263 5.0447ZM55.8931 9.51426C56.1228 9.65704 56.4428 9.97346 56.6041 10.2174L56.8976 10.6609L56.9305 21.829C56.9531 29.5701 56.9271 33.1213 56.8455 33.4023C56.6925 33.9287 56.265 34.4295 55.7396 34.6976C55.3608 34.8909 55.0862 34.9116 52.9029 34.9116C51.4548 34.9116 50.2797 34.9619 49.9722 35.0372C49.5055 35.1513 49.2173 35.4024 46.806 37.7949L44.1532 40.4269V38.7572C44.1532 36.6984 44.0452 36.2203 43.445 35.6199C42.7794 34.9543 42.4928 34.9117 38.6623 34.9107L35.3469 34.91L35.1011 34.0272C34.6333 32.3475 33.7395 30.8464 32.3946 29.4817C28.7558 25.7898 23.0575 25.2401 18.7189 28.1626C16.7178 29.5105 15.0411 31.8263 14.418 34.1028L14.2117 34.8569L12.7751 34.8874C11.2185 34.9205 10.8125 34.8149 10.2735 34.237C9.66994 33.5898 9.6939 34.0893 9.69455 22.1413C9.69488 14.7158 9.73295 10.9783 9.81106 10.6972C9.95262 10.1873 10.6512 9.46437 11.1391 9.3229C11.3629 9.25802 19.8132 9.22542 33.4872 9.23658L55.4755 9.25463L55.8931 9.51426ZM15.2183 13.6188C14.7387 13.8281 14.0943 14.5919 14.0077 15.0538C13.8134 16.0899 14.2473 17.0946 15.0817 17.5404L15.5465 17.7887H33.3231H51.0997L51.5646 17.5404C52.3989 17.0946 52.8329 16.0899 52.6386 15.0538C52.5495 14.5794 51.9001 13.822 51.4041 13.6143C50.8899 13.399 15.7118 13.4034 15.2183 13.6188ZM32.627 22.16C31.466 22.5775 30.8429 23.9341 31.3046 25.0392C31.5201 25.5551 31.8484 25.9062 32.3615 26.1693C32.751 26.3691 33.1385 26.3775 41.9097 26.3775C49.328 26.3775 51.1184 26.3497 51.4041 26.2301C51.9001 26.0225 52.5495 25.2651 52.6386 24.7907C52.8329 23.7546 52.3989 22.7499 51.5646 22.3041L51.0997 22.0558L42.0747 22.0319C34.6046 22.0122 32.9768 22.0343 32.627 22.16ZM26.0452 30.8099C28.4705 31.3238 30.4789 33.2809 31.0287 35.6665C31.5322 37.8508 30.7444 40.3057 29.0466 41.8424C27.4168 43.3175 24.9648 43.845 22.8543 43.1746C19.8686 42.2263 17.8991 39.0678 18.4445 36.1027C18.8615 33.8353 20.258 32.0596 22.3143 31.1823C23.589 30.6384 24.7083 30.5267 26.0452 30.8099ZM26.6501 48.062C29.533 48.544 32.2936 50.4343 33.88 53.0125C34.4298 53.906 34.9846 55.2 35.168 56.0161L35.2689 56.4657H24.7153H14.1617L14.2385 56.1101C14.586 54.5004 15.6361 52.6129 16.9399 51.2548C19.5332 48.5531 22.9225 47.4387 26.6501 48.062Z"/>
</mask>
<path fill-rule="evenodd" clip-rule="evenodd" d="M10.263 5.0447C9.07002 5.35729 8.21795 5.85533 7.27836 6.78915C6.68872 7.37527 6.33527 7.84257 6.05522 8.40625C5.28059 9.9658 5.30685 9.44993 5.34164 22.4387L5.37281 34.091L5.61403 34.7229C6.23287 36.3442 7.11689 37.4775 8.41945 38.3196C9.52193 39.0323 10.2444 39.2082 12.3631 39.2801L14.212 39.3428L14.3967 39.9992C14.8525 41.6198 15.7878 43.2561 16.9981 44.5501L17.6625 45.2605L17.1514 45.5291C16.257 45.9992 14.5545 47.3542 13.6857 48.2872C11.2131 50.9422 9.78546 54.2814 9.6275 57.7786C9.56952 59.0631 9.58122 59.1761 9.82123 59.6372C9.96749 59.918 10.2796 60.269 10.5511 60.4577L11.0254 60.7874L24.4442 60.8198C34.209 60.8433 37.9795 60.8184 38.2906 60.7281C38.9171 60.5464 39.3065 60.2132 39.6141 59.596C39.9205 58.9809 39.9519 58.4774 39.7752 57.0099C39.3951 53.8524 38.2671 51.2637 36.1918 48.7853C35.1919 47.5913 33.4345 46.1302 32.2225 45.4856L31.8407 45.2824L32.5366 44.5556C33.7151 43.3245 34.5214 41.9656 35.0672 40.291L35.3762 39.3428H37.5495H39.7227L39.7774 42.8986C39.8241 45.9326 39.8587 46.5027 40.0131 46.7827C40.5491 47.7544 41.7091 48.1765 42.7072 47.7631C42.9827 47.649 44.4565 46.2543 47.2742 43.4413L51.4345 39.2881H53.5688C55.1409 39.2881 55.8748 39.2435 56.355 39.1188C58.7446 38.4984 60.4922 36.723 61.1164 34.2818C61.319 33.4896 61.3281 32.9676 61.3281 22.0558C61.3281 11.0627 61.3205 10.6272 61.1121 9.81219C60.7959 8.57628 60.3103 7.73687 59.3627 6.78915C58.4152 5.84143 57.5759 5.35575 56.3402 5.03955C55.5119 4.82773 55.0554 4.82358 33.2783 4.82948C11.7639 4.83528 11.0361 4.84218 10.263 5.0447ZM55.8931 9.51426C56.1228 9.65704 56.4428 9.97346 56.6041 10.2174L56.8976 10.6609L56.9305 21.829C56.9531 29.5701 56.9271 33.1213 56.8455 33.4023C56.6925 33.9287 56.265 34.4295 55.7396 34.6976C55.3608 34.8909 55.0862 34.9116 52.9029 34.9116C51.4548 34.9116 50.2797 34.9619 49.9722 35.0372C49.5055 35.1513 49.2173 35.4024 46.806 37.7949L44.1532 40.4269V38.7572C44.1532 36.6984 44.0452 36.2203 43.445 35.6199C42.7794 34.9543 42.4928 34.9117 38.6623 34.9107L35.3469 34.91L35.1011 34.0272C34.6333 32.3475 33.7395 30.8464 32.3946 29.4817C28.7558 25.7898 23.0575 25.2401 18.7189 28.1626C16.7178 29.5105 15.0411 31.8263 14.418 34.1028L14.2117 34.8569L12.7751 34.8874C11.2185 34.9205 10.8125 34.8149 10.2735 34.237C9.66994 33.5898 9.6939 34.0893 9.69455 22.1413C9.69488 14.7158 9.73295 10.9783 9.81106 10.6972C9.95262 10.1873 10.6512 9.46437 11.1391 9.3229C11.3629 9.25802 19.8132 9.22542 33.4872 9.23658L55.4755 9.25463L55.8931 9.51426ZM15.2183 13.6188C14.7387 13.8281 14.0943 14.5919 14.0077 15.0538C13.8134 16.0899 14.2473 17.0946 15.0817 17.5404L15.5465 17.7887H33.3231H51.0997L51.5646 17.5404C52.3989 17.0946 52.8329 16.0899 52.6386 15.0538C52.5495 14.5794 51.9001 13.822 51.4041 13.6143C50.8899 13.399 15.7118 13.4034 15.2183 13.6188ZM32.627 22.16C31.466 22.5775 30.8429 23.9341 31.3046 25.0392C31.5201 25.5551 31.8484 25.9062 32.3615 26.1693C32.751 26.3691 33.1385 26.3775 41.9097 26.3775C49.328 26.3775 51.1184 26.3497 51.4041 26.2301C51.9001 26.0225 52.5495 25.2651 52.6386 24.7907C52.8329 23.7546 52.3989 22.7499 51.5646 22.3041L51.0997 22.0558L42.0747 22.0319C34.6046 22.0122 32.9768 22.0343 32.627 22.16ZM26.0452 30.8099C28.4705 31.3238 30.4789 33.2809 31.0287 35.6665C31.5322 37.8508 30.7444 40.3057 29.0466 41.8424C27.4168 43.3175 24.9648 43.845 22.8543 43.1746C19.8686 42.2263 17.8991 39.0678 18.4445 36.1027C18.8615 33.8353 20.258 32.0596 22.3143 31.1823C23.589 30.6384 24.7083 30.5267 26.0452 30.8099ZM26.6501 48.062C29.533 48.544 32.2936 50.4343 33.88 53.0125C34.4298 53.906 34.9846 55.2 35.168 56.0161L35.2689 56.4657H24.7153H14.1617L14.2385 56.1101C14.586 54.5004 15.6361 52.6129 16.9399 51.2548C19.5332 48.5531 22.9225 47.4387 26.6501 48.062Z" fill="#262961" stroke="#89FFEA" mask="url(#path-2-inside-1_644_10751)"/>
</svg>
