<svg width="60" height="52" viewBox="0 0 60 52" fill="none" xmlns="http://www.w3.org/2000/svg">
<path d="M38.454 2.14039C38.9453 2.42305 42.4552 4.49452 43.6642 7.51875C44.9729 10.7879 42.3375 12.0366 42.3086 14.6992C42.2388 20.869 56.2646 24.8849 59.3405 31.9416C62.8361 39.9598 52.0658 51.5844 35.7872 51.4822C24.327 51.4121 10.081 45.5277 3.51202 35.9889C-3.55883 25.7228 1.89769 16.4982 3.92317 13.0745C5.09676 11.0893 8.46814 6.12576 16.0137 3.01229C18.1169 2.14575 29.972 -2.74768 38.454 2.14039Z" fill="white"/>
<path d="M38.454 2.14039C38.9453 2.42305 42.4552 4.49452 43.6642 7.51875C44.9729 10.7879 42.3375 12.0366 42.3086 14.6992C42.2388 20.869 56.2646 24.8849 59.3405 31.9416C62.8361 39.9598 52.0658 51.5844 35.7872 51.4822C24.327 51.4121 10.081 45.5277 3.51202 35.9889C-3.55883 25.7228 1.89769 16.4982 3.92317 13.0745C5.09676 11.0893 8.46814 6.12576 16.0137 3.01229C18.1169 2.14575 29.972 -2.74768 38.454 2.14039Z" fill="#3AFFDC" fill-opacity="0.6"/>
<path d="M17.6387 19.5552L17.6137 19.3568C18.7949 19.208 19.9286 19.5867 20.7576 20.4109C21.2812 20.9317 21.6883 21.6647 21.7949 22.3032M17.6387 19.5552L21.5976 22.3361M17.6387 19.5552L17.6137 19.3568C16.8674 19.4508 16.0414 19.8589 15.497 20.4001M17.6387 19.5552L15.497 20.4001M21.7949 22.3032L21.5976 22.3361M21.7949 22.3032C21.7949 22.3032 21.7948 22.3032 21.7948 22.3032L21.5976 22.3361M21.7949 22.3032C21.8187 22.4456 21.8407 22.4944 21.8556 22.5142L21.8559 22.5146C21.861 22.5214 21.8729 22.5374 21.9515 22.5545L21.9515 22.5545C23.3117 22.852 24.2234 23.5851 24.8064 24.8498C24.9896 25.2473 25.0706 25.7773 25.0638 26.2961C25.0569 26.8155 24.9616 27.3499 24.7694 27.7576C24.2545 28.8501 23.1534 29.7347 22.06 29.9085M21.5976 22.3361C21.6456 22.6237 21.7075 22.706 21.9088 22.7499C23.2077 23.034 24.068 23.7257 24.6247 24.9336C24.9579 25.6563 24.9411 26.9242 24.5885 27.6723C24.098 28.713 23.0484 29.5489 22.0286 29.711M22.06 29.9085L22.0286 29.711M22.06 29.9085C22.06 29.9085 22.06 29.9085 22.06 29.9085L22.0286 29.711M22.06 29.9085C21.9897 29.9197 21.9361 29.9309 21.8952 29.9423C21.8643 29.9509 21.8445 29.9587 21.8323 29.9646M22.0286 29.711C21.7315 29.7583 21.6326 29.8177 21.6326 29.9489C21.6326 30.0452 21.5431 30.3617 21.4338 30.6523C20.7128 32.5684 18.5046 33.4929 16.6536 32.6535C15.6773 32.2107 14.8106 31.1515 14.6475 30.202C14.5827 29.8245 14.5689 29.8128 13.9972 29.6572M13.9972 29.6572L13.9446 29.8502M13.9972 29.6572C12.6305 29.2853 11.7521 28.4035 11.4046 27.055L14.4314 22.4199C14.4314 22.5086 14.4081 22.5297 14.3945 22.5398C14.3663 22.5606 14.2956 22.5878 14.1336 22.5878C14.0783 22.5878 14.0136 22.6024 13.9587 22.6172C13.8981 22.6335 13.8276 22.6563 13.7524 22.6833C13.6017 22.7374 13.4235 22.8112 13.2527 22.8922L13.2527 22.8923C11.6306 23.6621 10.775 25.4129 11.2109 27.1049L11.2109 27.1049C11.5767 28.5244 12.5101 29.4598 13.9446 29.8502M13.9972 29.6572L13.9446 29.8502C13.9446 29.8502 13.9446 29.8502 13.9446 29.8502M21.8323 29.9646C21.8325 29.9593 21.8326 29.954 21.8326 29.9489C21.8326 29.9449 21.833 29.9455 21.8321 29.9489C21.8314 29.9516 21.8299 29.9559 21.8271 29.961C21.8226 29.9689 21.8183 29.9724 21.8183 29.9725C21.8183 29.9725 21.8194 29.9716 21.8222 29.9699C21.8247 29.9684 21.828 29.9666 21.8323 29.9646ZM21.8323 29.9646C21.8305 30.0075 21.8218 30.0562 21.8126 30.0999C21.8013 30.1534 21.7854 30.2156 21.7666 30.2821C21.729 30.4153 21.6775 30.5724 21.621 30.7227C20.8598 32.7456 18.5286 33.7234 16.571 32.8356C16.0505 32.5995 15.5661 32.2031 15.1908 31.7444C14.8162 31.2866 14.5393 30.7534 14.4504 30.2359C14.4144 30.0262 14.4 30.0131 14.384 29.9997C14.3705 29.9884 14.3405 29.9701 14.2649 29.9437C14.1902 29.9176 14.0895 29.8896 13.9446 29.8502M39.1465 19.8228L39.1465 19.8227C39.47 19.6724 39.7738 19.6324 40.2586 19.6548C40.661 19.6733 41.0122 19.761 41.3213 19.9343C41.6306 20.1078 41.8862 20.3605 42.1068 20.692M39.1465 19.8228L41.9402 20.8028M39.1465 19.8228C37.5043 20.5865 37.3781 22.8833 38.9003 23.8839C39.0819 24.0033 39.2285 24.0842 39.4214 24.1289C39.6057 24.1717 39.822 24.1788 40.1367 24.178L40.1368 24.178M39.1465 19.8228L40.1368 24.178M42.1068 20.692L41.9402 20.8028M42.1068 20.692C42.1067 20.692 42.1067 20.692 42.1067 20.692L41.9402 20.8028M42.1068 20.692C42.227 20.8725 42.3085 21.0186 42.3539 21.2118C42.3972 21.3963 42.4049 21.6134 42.4049 21.9295C42.4049 22.2456 42.3972 22.4627 42.3538 22.6472C42.3084 22.8404 42.2269 22.9865 42.1067 23.1672L41.9401 23.0564M41.9402 20.8028C42.1712 21.1497 42.2049 21.2931 42.2049 21.9295C42.2049 22.566 42.1712 22.7092 41.9401 23.0564M41.9401 23.0564L42.1066 23.1672C41.9456 23.4093 41.6235 23.7252 41.3768 23.8835M41.9401 23.0564L41.3768 23.8835M40.1368 24.178C40.4487 24.1771 40.6652 24.1682 40.851 24.1251C41.0446 24.0802 41.1937 24.0009 41.3768 23.8835L41.3768 23.8835M40.1368 24.178L41.3768 23.8835M15.497 20.4001C15.2414 20.6543 14.9788 21.0389 14.7809 21.4082C14.6812 21.5941 14.5954 21.7808 14.534 21.9505C14.4743 22.1158 14.4314 22.2815 14.4314 22.4199L15.497 20.4001ZM16.0581 13.3808L16.0581 13.3808C14.9717 13.5874 14.3226 13.8185 13.4643 14.3083C11.5763 15.3859 9.92991 17.3328 8.57665 20.0018C7.22259 22.6724 6.15522 26.0787 5.43207 30.0956L5.62891 30.1311L5.43207 30.0956C4.94806 32.7845 4.80235 34.3288 4.80004 36.8066C4.79773 39.2341 4.90062 40.2568 5.29724 41.6273C5.74027 43.1584 6.50362 44.2974 7.53509 44.9738C8.56888 45.6517 9.84746 45.8487 11.2861 45.541C13.5867 45.049 16.2736 43.3529 20.0456 40.0572C21.4799 38.8042 22.2125 38.3428 23.5498 37.8385C25.5913 37.0687 28.1426 36.7653 30.6027 36.9021C33.0647 37.0389 35.4117 37.6152 37.0512 38.5837C37.4009 38.7903 38.2564 39.4526 38.9485 40.0572C41.3607 42.1648 43.364 43.64 45.0933 44.546C46.8236 45.4524 48.2942 45.7966 49.6341 45.6202C50.8128 45.465 51.77 44.9364 52.5022 44.0268C53.23 43.1228 53.7269 41.8535 54.0147 40.2272C54.1371 39.5357 54.1978 38.2466 54.1999 36.9015C54.202 35.5531 54.1452 34.1278 54.0272 33.1587C53.3153 27.3078 51.6582 21.7314 49.6787 18.5819C47.9246 15.791 46.0488 14.1875 43.6982 13.5187C43.0194 13.3256 42.6578 13.2929 41.3896 13.2933C39.6455 13.2939 39.1236 13.3843 35.1863 14.3408C32.0974 15.0911 30.539 15.3699 29.497 15.3699C28.4756 15.3699 27.0361 15.1149 23.8284 14.3537C22.4087 14.0168 20.7462 13.6497 20.1339 13.5384C18.6725 13.2724 16.9932 13.2031 16.0581 13.3808ZM23.2548 16.8887L23.3033 16.6947L23.2548 16.8887C27.029 17.8315 28.8786 18.1086 30.4145 17.9364C31.8449 17.7759 32.7619 17.5986 35.3935 16.9764C39.2833 16.0566 39.6751 15.9916 41.1016 15.994C41.6726 15.9949 42.0077 16.0032 42.2825 16.0371C42.5523 16.0704 42.7687 16.1291 43.1014 16.2385C45.1312 16.9064 46.6456 18.4253 48.1163 21.3487C49.5598 24.2179 50.5623 27.7962 51.2767 32.662C51.4151 33.6049 51.4946 35.1811 51.5072 36.672C51.5198 38.1699 51.4643 39.5463 51.3425 40.1018C51.0598 41.3912 50.6713 42.2036 50.1486 42.6447C49.64 43.074 48.9643 43.1828 48.0151 42.9615C46.2415 42.548 43.957 41.0776 40.7549 38.2435C38.8938 36.5962 37.832 35.9164 36.1578 35.3158C34.1845 34.6081 32.607 34.3291 30.1746 34.2543C27.5047 34.1721 25.5316 34.4279 23.2503 35.1549C21.2169 35.803 19.7527 36.7047 17.6152 38.61C15.9946 40.0547 13.9181 41.5564 12.7194 42.1572C11.5492 42.7438 10.6262 42.9993 9.90928 42.9566C9.2103 42.915 8.69022 42.5892 8.30761 41.9545C7.94432 41.3517 7.77032 40.8039 7.57683 39.5887L7.37932 39.6201L7.57683 39.5887C7.47649 38.9586 7.44366 37.6908 7.47155 36.3264C7.49937 34.966 7.58703 33.5315 7.72199 32.5745C8.6129 26.2577 10.4952 21.0189 12.7961 18.3518C13.8047 17.1826 15.1775 16.3301 16.4459 16.0695L16.4056 15.8735L16.4459 16.0695C17.4063 15.8721 19.1655 15.9474 20.5828 16.2571C21.2134 16.3949 22.4164 16.6792 23.2548 16.8887ZM19.2225 23.4219L19.2225 23.4219C19.2709 24.0578 19.3735 24.5245 19.6767 24.8165C19.9825 25.111 20.443 25.1812 21.0571 25.1812C21.4447 25.1812 21.706 25.2202 21.8971 25.2998C22.0797 25.3758 22.2114 25.4946 22.3291 25.6865L22.3291 25.6865C22.4813 25.9347 22.5141 26.2524 22.4395 26.543C22.3647 26.8344 22.1894 27.0724 21.9571 27.1822L21.9571 27.1823C21.9134 27.2029 21.7828 27.2364 21.5838 27.2682C21.3945 27.2984 21.1676 27.3235 20.9501 27.336L20.9501 27.336C20.3368 27.3713 19.8818 27.463 19.5934 27.7442C19.2994 28.031 19.2267 28.4652 19.2267 29.0326C19.2267 29.5746 19.1194 29.9378 18.9365 30.1634C18.7605 30.3805 18.4876 30.5026 18.0728 30.5029C17.7165 30.5032 17.4711 30.3866 17.3087 30.1801C17.1397 29.9652 17.0372 29.6235 17.0372 29.1314C17.0372 28.5017 16.9325 28.0161 16.6224 27.6946C16.3103 27.3712 15.8369 27.2615 15.226 27.2612C14.6931 27.2609 14.3326 27.1589 14.1086 26.987C13.895 26.8231 13.7763 26.5725 13.7763 26.1953C13.7763 25.8586 13.893 25.6179 14.1009 25.4547C14.3165 25.2855 14.6553 25.1801 15.1318 25.1759H15.1318C15.7852 25.17 16.2697 25.0914 16.5865 24.7826C16.9018 24.4752 17.002 23.987 17.0401 23.3199C17.0642 22.8982 17.082 22.6933 17.1196 22.5589C17.1509 22.4467 17.1949 22.3856 17.3165 22.2594C17.7089 21.8521 18.2715 21.7798 18.7194 22.0617C18.887 22.1672 18.9874 22.2784 19.0602 22.4633C19.1386 22.6623 19.1868 22.9518 19.2225 23.4219ZM35.0483 24.0323L35.0483 24.0323C34.7851 24.1084 34.4939 24.3075 34.2511 24.5341C34.0071 24.7618 33.7842 25.043 33.6755 25.3087L33.6755 25.3087C33.042 26.8585 34.1065 28.5329 35.7601 28.5326C36.7399 28.5325 37.4869 28.079 37.8877 27.223L37.7066 27.1382L37.8877 27.223C38.3037 26.3345 38.1777 25.4472 37.5272 24.7299C36.8822 24.0184 35.9757 23.7642 35.0483 24.0323ZM39.5023 32.7703L39.5579 32.5782L39.5024 32.7703C40.9664 33.1935 42.4436 32.1007 42.4507 30.582C42.4553 29.5793 41.7761 28.6419 40.8311 28.3628C40.5446 28.2782 40.3355 28.2286 40.1196 28.2296C39.9036 28.2306 39.6954 28.2823 39.4106 28.3695L39.4692 28.5608L39.4106 28.3695C38.3426 28.6969 37.8313 29.6509 37.8519 30.5838C37.8725 31.5163 38.4246 32.4588 39.5023 32.7703ZM42.396 27.2127L42.396 27.2127C42.6026 27.6482 42.8785 27.9823 43.237 28.2059C43.5953 28.4293 44.0206 28.5327 44.5104 28.5327C45.7564 28.5327 46.7824 27.5149 46.7824 26.2735C46.7824 25.7854 46.6783 25.3617 46.4535 25.005C46.2285 24.6481 45.8925 24.3738 45.4547 24.1685L45.3698 24.3496L45.4547 24.1685C44.8282 23.8748 44.1484 23.852 43.5605 24.1202C42.3385 24.6775 41.8284 26.0156 42.396 27.2127Z" fill="#262961" stroke="#262961" stroke-width="0.4"/>
</svg>
