<svg width="58" height="56" viewBox="0 0 58 56" fill="none" xmlns="http://www.w3.org/2000/svg">
<path d="M2.41134 20.0102C2.72977 19.5539 5.06347 16.294 8.47053 15.1712C12.1535 13.9557 13.5602 16.4033 16.5599 16.4301C23.5107 16.4949 28.035 3.46844 35.985 0.611609C45.0182 -2.63487 58.1143 7.36808 57.9992 22.487C57.9203 33.1307 51.291 46.3618 40.5446 52.4628C28.979 59.0299 18.5866 53.9621 14.7295 52.0809C12.4931 50.991 6.9012 47.8598 3.39361 40.8517C2.41738 38.8984 -3.09551 27.8879 2.41134 20.0102Z" fill="white"/>
<path d="M2.41134 20.0102C2.72977 19.5539 5.06347 16.294 8.47053 15.1712C12.1535 13.9557 13.5602 16.4033 16.5599 16.4301C23.5107 16.4949 28.035 3.46844 35.985 0.611609C45.0182 -2.63487 58.1143 7.36808 57.9992 22.487C57.9203 33.1307 51.291 46.3618 40.5446 52.4628C28.979 59.0299 18.5866 53.9621 14.7295 52.0809C12.4931 50.991 6.9012 47.8598 3.39361 40.8517C2.41738 38.8984 -3.09551 27.8879 2.41134 20.0102Z" fill="#3AFFDC" fill-opacity="0.6"/>
<path fill-rule="evenodd" clip-rule="evenodd" d="M14.4992 8.37859V9.93296L13.3532 9.93428C12.6488 9.93513 11.9977 9.97967 11.6633 10.0498C9.91458 10.4171 8.45685 11.8753 8.08966 13.6246C7.91803 14.4426 7.91803 42.1065 8.08966 42.9245C8.45685 44.6737 9.91458 46.1319 11.6633 46.4992C12.482 46.6711 43.2438 46.6711 44.0624 46.4992C45.8112 46.1319 47.2689 44.6737 47.6361 42.9245C47.8078 42.1065 47.8078 14.4426 47.6361 13.6246C47.2689 11.8753 45.8112 10.4171 44.0624 10.0498C43.7281 9.97967 43.077 9.93513 42.3726 9.93428L41.2266 9.93296V8.37859C41.2266 7.52039 40.5308 6.82422 39.6726 6.82422C38.8144 6.82422 38.1187 7.52039 38.1187 8.37859V9.93296H27.8629H17.6071V8.37859C17.6071 7.52039 16.9114 6.82422 16.0532 6.82422C15.195 6.82422 14.4992 7.52039 14.4992 8.37859ZM14.4992 14.5961C14.4992 15.4543 15.195 16.1504 16.0532 16.1504C16.9114 16.1504 17.6071 15.4543 17.6071 14.5961V13.0417H27.8629H38.1187V14.5961C38.1187 15.4543 38.8144 16.1504 39.6726 16.1504C40.5308 16.1504 41.2266 15.4473 41.2266 14.5891V13.0278L42.4173 13.0541C43.5369 13.079 43.6252 13.0922 43.8948 13.2749C44.0525 13.3817 44.2771 13.6059 44.3939 13.7732L44.6063 14.0772L44.6301 16.3573L44.6538 18.6374H27.8672H11.0806L11.0811 16.5196C11.0813 15.3274 11.116 14.2777 11.1603 14.1179C11.2565 13.7718 11.7878 13.2224 12.1194 13.1263C12.2532 13.0875 12.8434 13.0526 13.4309 13.0487L14.4992 13.0417V14.5961ZM20.0933 26.4093V31.0724H15.587H11.0806V26.4093V21.7462H15.587H20.0933V26.4093ZM32.5246 26.4093V31.0724H27.8629H23.2012V26.4093V21.7462H27.8629H32.5246V26.4093ZM44.6452 26.4093V31.0724H40.1388H35.6325V26.4093V21.7462H40.1388H44.6452V26.4093ZM20.0933 38.847V43.5127L16.1057 43.4906L12.1179 43.4685L11.8311 43.2742C11.6734 43.1673 11.4487 42.943 11.3319 42.7758L11.1195 42.4716L11.0975 38.3264L11.0754 34.1811H15.5844H20.0933V38.847ZM32.5246 38.8442V43.5073H27.8629H23.2012V38.8442V34.1811H27.8629H32.5246V38.8442ZM44.6283 38.3254L44.6063 42.4697L44.4121 42.7567C44.3052 42.9144 44.081 43.1392 43.9138 43.256L43.6097 43.4685L39.6211 43.4906L35.6325 43.5127V38.847V34.1811H40.1414H44.6504L44.6283 38.3254Z" fill="#262961"/>
</svg>
