<svg width="48" height="47" viewBox="0 0 48 47" fill="none" xmlns="http://www.w3.org/2000/svg">
<mask id="path-1-outside-1_1408_14967" maskUnits="userSpaceOnUse" x="0" y="0.277344" width="48" height="47" fill="black">
<rect fill="white" y="0.277344" width="48" height="47"/>
<path fill-rule="evenodd" clip-rule="evenodd" d="M3.02337 1.3314C2.27212 1.55599 1.59361 2.11489 1.21187 2.82373L1 3.21714V23.6306V44.0441L1.21187 44.4375C1.50054 44.9735 1.98983 45.4555 2.52877 45.7346L2.97841 45.9675H19.1204H35.2625L35.7121 45.7346C36.251 45.4555 36.7403 44.9735 37.029 44.4375L37.2409 44.0441V23.6306V3.21714L37.0013 2.78002C36.7143 2.25608 36.2185 1.78041 35.6671 1.49978L35.2625 1.29381L19.2553 1.27895C10.4514 1.27082 3.14702 1.29442 3.02337 1.3314ZM35.1929 3.28472L35.4423 3.52705V23.6306V43.7342L35.1929 43.9766L34.9437 44.219H19.1204H3.2972L3.04792 43.9766L2.79855 43.7342V23.6378C2.79855 3.66457 2.79963 3.54026 2.97841 3.34714C3.07733 3.24022 3.2392 3.12045 3.33812 3.08084C3.43704 3.04124 10.5887 3.01641 19.2308 3.02559L34.9437 3.04229L35.1929 3.28472ZM42.8164 6.05265C41.8361 6.28441 40.9534 6.98284 40.4984 7.88654L40.2085 8.46258L40.1834 15.3229C40.1647 20.4118 40.2017 29.5007 40.2017 29.5007L41.8924 29.2967C41.8924 29.2967 41.9621 22.6721 41.9621 17.1656V12.0907H43.5808H45.1995V25.4665V38.8424H43.5808H41.9621V34.292L41.8924 29.2967L40.2017 29.5007C40.2017 29.5007 40.1635 30.5955 40.1635 34.8191V39.8966L41.5114 42.8009C42.2527 44.3983 42.9306 45.7561 43.0176 45.8182C43.3559 46.0597 43.8057 46.0597 44.1439 45.8182C44.2309 45.7561 44.9093 44.3973 45.6511 42.7988L47 39.8924L46.9765 24.2212L46.9531 8.55L46.7459 8.05151C46.5018 7.46419 45.877 6.75632 45.3252 6.44195C44.6096 6.03429 43.5738 5.8736 42.8164 6.05265ZM44.1874 7.85393C44.9157 8.14977 45.1945 8.64966 45.1975 9.66465L45.1995 10.3422H43.5808H41.9621V9.68371C41.9621 8.68935 42.2251 8.18798 42.9063 7.88392C43.348 7.68669 43.7524 7.67725 44.1874 7.85393ZM17.7814 8.19121C17.3559 8.42044 17.2141 8.92417 17.45 9.36785C17.681 9.802 17.8111 9.81765 21.1975 9.81765C23.8291 9.81765 24.3882 9.79597 24.6078 9.68564C24.9246 9.52635 25.0557 9.30919 25.0557 8.94341C25.0557 8.57762 24.9246 8.36046 24.6078 8.20118C24.2442 8.01837 18.1188 8.00937 17.7814 8.19121ZM27.7345 8.32252C27.4932 8.53216 27.4428 8.63917 27.4428 8.94341C27.4428 9.24764 27.4932 9.35465 27.7345 9.56429L28.0262 9.81765H29.8726C31.8822 9.81765 32.1198 9.77122 32.3223 9.33926C32.5325 8.89069 32.3809 8.40182 31.9671 8.19375C31.7761 8.09776 31.295 8.06917 29.8726 8.06917H28.0262L27.7345 8.32252ZM17.7814 13.7863C17.1787 14.111 17.1985 15.0357 17.814 15.3083C18.153 15.4585 31.5986 15.4585 31.9377 15.3083C32.1954 15.1941 32.4297 14.8276 32.4297 14.5385C32.4297 14.2495 32.1954 13.8829 31.9377 13.7688C31.5764 13.6088 18.0799 13.6255 17.7814 13.7863ZM17.7814 20.0809C17.3559 20.3101 17.2141 20.8138 17.45 21.2575C17.681 21.6917 17.8111 21.7073 21.1975 21.7073C23.8291 21.7073 24.3882 21.6856 24.6078 21.5753C24.9246 21.416 25.0557 21.1989 25.0557 20.8331C25.0557 20.4673 24.9246 20.2501 24.6078 20.0908C24.2442 19.908 18.1188 19.899 17.7814 20.0809ZM27.7345 20.2122C27.4932 20.4218 27.4428 20.5288 27.4428 20.8331C27.4428 21.1373 27.4932 21.2443 27.7345 21.454L28.0262 21.7073H29.8726C31.8822 21.7073 32.1198 21.6609 32.3223 21.2289C32.5325 20.7803 32.3809 20.2915 31.9671 20.0834C31.7761 19.9874 31.295 19.9588 29.8726 19.9588H28.0262L27.7345 20.2122ZM17.7814 25.676C17.1787 26.0007 17.1985 26.9254 17.814 27.198C18.153 27.3482 31.5986 27.3482 31.9377 27.198C32.1954 27.0838 32.4297 26.7172 32.4297 26.4282C32.4297 26.1392 32.1954 25.7726 31.9377 25.6584C31.5764 25.4984 18.0799 25.5151 17.7814 25.676ZM17.7814 31.9705C17.3559 32.1998 17.2141 32.7035 17.45 33.1472C17.681 33.5813 17.8111 33.597 21.1975 33.597C23.8291 33.597 24.3882 33.5753 24.6078 33.465C24.9246 33.3057 25.0557 33.0885 25.0557 32.7227C25.0557 32.3569 24.9246 32.1398 24.6078 31.9805C24.2442 31.7977 18.1188 31.7887 17.7814 31.9705ZM27.7345 32.1018C27.4932 32.3115 27.4428 32.4185 27.4428 32.7227C27.4428 33.027 27.4932 33.134 27.7345 33.3436L28.0262 33.597H29.8726C31.8822 33.597 32.1198 33.5505 32.3223 33.1186C32.5325 32.67 32.3809 32.1811 31.9671 31.9731C31.7761 31.8771 31.295 31.8485 29.8726 31.8485H28.0262L27.7345 32.1018ZM17.7814 37.5657C17.1787 37.8904 17.1985 38.815 17.814 39.0876C18.153 39.2378 31.5986 39.2378 31.9377 39.0876C32.1954 38.9734 32.4297 38.6069 32.4297 38.3179C32.4297 38.0288 32.1954 37.6623 31.9377 37.5481C31.5764 37.3881 18.0799 37.4048 17.7814 37.5657ZM44.622 40.7358C44.4288 41.2252 43.6181 42.9468 43.5808 42.9468C43.5435 42.9468 42.7328 41.2252 42.5396 40.7358C42.4882 40.6057 42.595 40.5909 43.5808 40.5909C44.5666 40.5909 44.6733 40.6057 44.622 40.7358Z"/>
</mask>
<path fill-rule="evenodd" clip-rule="evenodd" d="M3.02337 1.3314C2.27212 1.55599 1.59361 2.11489 1.21187 2.82373L1 3.21714V23.6306V44.0441L1.21187 44.4375C1.50054 44.9735 1.98983 45.4555 2.52877 45.7346L2.97841 45.9675H19.1204H35.2625L35.7121 45.7346C36.251 45.4555 36.7403 44.9735 37.029 44.4375L37.2409 44.0441V23.6306V3.21714L37.0013 2.78002C36.7143 2.25608 36.2185 1.78041 35.6671 1.49978L35.2625 1.29381L19.2553 1.27895C10.4514 1.27082 3.14702 1.29442 3.02337 1.3314ZM35.1929 3.28472L35.4423 3.52705V23.6306V43.7342L35.1929 43.9766L34.9437 44.219H19.1204H3.2972L3.04792 43.9766L2.79855 43.7342V23.6378C2.79855 3.66457 2.79963 3.54026 2.97841 3.34714C3.07733 3.24022 3.2392 3.12045 3.33812 3.08084C3.43704 3.04124 10.5887 3.01641 19.2308 3.02559L34.9437 3.04229L35.1929 3.28472ZM42.8164 6.05265C41.8361 6.28441 40.9534 6.98284 40.4984 7.88654L40.2085 8.46258L40.1834 15.3229C40.1647 20.4118 40.2017 29.5007 40.2017 29.5007L41.8924 29.2967C41.8924 29.2967 41.9621 22.6721 41.9621 17.1656V12.0907H43.5808H45.1995V25.4665V38.8424H43.5808H41.9621V34.292L41.8924 29.2967L40.2017 29.5007C40.2017 29.5007 40.1635 30.5955 40.1635 34.8191V39.8966L41.5114 42.8009C42.2527 44.3983 42.9306 45.7561 43.0176 45.8182C43.3559 46.0597 43.8057 46.0597 44.1439 45.8182C44.2309 45.7561 44.9093 44.3973 45.6511 42.7988L47 39.8924L46.9765 24.2212L46.9531 8.55L46.7459 8.05151C46.5018 7.46419 45.877 6.75632 45.3252 6.44195C44.6096 6.03429 43.5738 5.8736 42.8164 6.05265ZM44.1874 7.85393C44.9157 8.14977 45.1945 8.64966 45.1975 9.66465L45.1995 10.3422H43.5808H41.9621V9.68371C41.9621 8.68935 42.2251 8.18798 42.9063 7.88392C43.348 7.68669 43.7524 7.67725 44.1874 7.85393ZM17.7814 8.19121C17.3559 8.42044 17.2141 8.92417 17.45 9.36785C17.681 9.802 17.8111 9.81765 21.1975 9.81765C23.8291 9.81765 24.3882 9.79597 24.6078 9.68564C24.9246 9.52635 25.0557 9.30919 25.0557 8.94341C25.0557 8.57762 24.9246 8.36046 24.6078 8.20118C24.2442 8.01837 18.1188 8.00937 17.7814 8.19121ZM27.7345 8.32252C27.4932 8.53216 27.4428 8.63917 27.4428 8.94341C27.4428 9.24764 27.4932 9.35465 27.7345 9.56429L28.0262 9.81765H29.8726C31.8822 9.81765 32.1198 9.77122 32.3223 9.33926C32.5325 8.89069 32.3809 8.40182 31.9671 8.19375C31.7761 8.09776 31.295 8.06917 29.8726 8.06917H28.0262L27.7345 8.32252ZM17.7814 13.7863C17.1787 14.111 17.1985 15.0357 17.814 15.3083C18.153 15.4585 31.5986 15.4585 31.9377 15.3083C32.1954 15.1941 32.4297 14.8276 32.4297 14.5385C32.4297 14.2495 32.1954 13.8829 31.9377 13.7688C31.5764 13.6088 18.0799 13.6255 17.7814 13.7863ZM17.7814 20.0809C17.3559 20.3101 17.2141 20.8138 17.45 21.2575C17.681 21.6917 17.8111 21.7073 21.1975 21.7073C23.8291 21.7073 24.3882 21.6856 24.6078 21.5753C24.9246 21.416 25.0557 21.1989 25.0557 20.8331C25.0557 20.4673 24.9246 20.2501 24.6078 20.0908C24.2442 19.908 18.1188 19.899 17.7814 20.0809ZM27.7345 20.2122C27.4932 20.4218 27.4428 20.5288 27.4428 20.8331C27.4428 21.1373 27.4932 21.2443 27.7345 21.454L28.0262 21.7073H29.8726C31.8822 21.7073 32.1198 21.6609 32.3223 21.2289C32.5325 20.7803 32.3809 20.2915 31.9671 20.0834C31.7761 19.9874 31.295 19.9588 29.8726 19.9588H28.0262L27.7345 20.2122ZM17.7814 25.676C17.1787 26.0007 17.1985 26.9254 17.814 27.198C18.153 27.3482 31.5986 27.3482 31.9377 27.198C32.1954 27.0838 32.4297 26.7172 32.4297 26.4282C32.4297 26.1392 32.1954 25.7726 31.9377 25.6584C31.5764 25.4984 18.0799 25.5151 17.7814 25.676ZM17.7814 31.9705C17.3559 32.1998 17.2141 32.7035 17.45 33.1472C17.681 33.5813 17.8111 33.597 21.1975 33.597C23.8291 33.597 24.3882 33.5753 24.6078 33.465C24.9246 33.3057 25.0557 33.0885 25.0557 32.7227C25.0557 32.3569 24.9246 32.1398 24.6078 31.9805C24.2442 31.7977 18.1188 31.7887 17.7814 31.9705ZM27.7345 32.1018C27.4932 32.3115 27.4428 32.4185 27.4428 32.7227C27.4428 33.027 27.4932 33.134 27.7345 33.3436L28.0262 33.597H29.8726C31.8822 33.597 32.1198 33.5505 32.3223 33.1186C32.5325 32.67 32.3809 32.1811 31.9671 31.9731C31.7761 31.8771 31.295 31.8485 29.8726 31.8485H28.0262L27.7345 32.1018ZM17.7814 37.5657C17.1787 37.8904 17.1985 38.815 17.814 39.0876C18.153 39.2378 31.5986 39.2378 31.9377 39.0876C32.1954 38.9734 32.4297 38.6069 32.4297 38.3179C32.4297 38.0288 32.1954 37.6623 31.9377 37.5481C31.5764 37.3881 18.0799 37.4048 17.7814 37.5657ZM44.622 40.7358C44.4288 41.2252 43.6181 42.9468 43.5808 42.9468C43.5435 42.9468 42.7328 41.2252 42.5396 40.7358C42.4882 40.6057 42.595 40.5909 43.5808 40.5909C44.5666 40.5909 44.6733 40.6057 44.622 40.7358Z" fill="#40439D"/>
<path d="M40.2197 29.6496L41.9103 29.4456L41.8744 29.1478L40.1838 29.3518L40.2197 29.6496ZM3.02337 1.3314L3.1093 1.61883L3.10933 1.61882L3.02337 1.3314ZM1.21187 2.82373L0.947738 2.68148L0.947738 2.68148L1.21187 2.82373ZM1 3.21714L0.735868 3.07489L0.7 3.14149V3.21714H1ZM1 44.0441H0.7V44.1198L0.735868 44.1864L1 44.0441ZM1.21187 44.4375L0.947738 44.5798L0.94774 44.5798L1.21187 44.4375ZM2.52877 45.7346L2.66675 45.4682L2.66671 45.4682L2.52877 45.7346ZM2.97841 45.9675L2.84043 46.2338L2.90533 46.2675H2.97841V45.9675ZM35.2625 45.9675V46.2675H35.3355L35.4004 46.2338L35.2625 45.9675ZM35.7121 45.7346L35.5742 45.4682L35.5741 45.4682L35.7121 45.7346ZM37.029 44.4375L37.2931 44.5798L37.2931 44.5798L37.029 44.4375ZM37.2409 44.0441L37.505 44.1864L37.5409 44.1198V44.0441H37.2409ZM37.2409 3.21714H37.5409V3.14032L37.5039 3.07295L37.2409 3.21714ZM37.0013 2.78002L36.7382 2.92416L36.7382 2.9242L37.0013 2.78002ZM35.6671 1.49978L35.8032 1.23242L35.8032 1.23242L35.6671 1.49978ZM35.2625 1.29381L35.3985 1.02645L35.3345 0.993876L35.2627 0.993809L35.2625 1.29381ZM19.2553 1.27895L19.2556 0.978947L19.2556 0.978947L19.2553 1.27895ZM35.1929 3.28472L34.9838 3.49978L34.9839 3.49986L35.1929 3.28472ZM35.4423 3.52705H35.7423V3.40027L35.6514 3.31191L35.4423 3.52705ZM35.4423 43.7342L35.6514 43.9493L35.7423 43.861V43.7342H35.4423ZM35.1929 43.9766L34.9839 43.7614L34.9838 43.7615L35.1929 43.9766ZM34.9437 44.219V44.519H35.0655L35.1528 44.434L34.9437 44.219ZM3.2972 44.219L3.08805 44.434L3.17538 44.519H3.2972V44.219ZM3.04792 43.9766L3.25708 43.7615L3.257 43.7614L3.04792 43.9766ZM2.79855 43.7342H2.49855V43.861L2.58947 43.9493L2.79855 43.7342ZM2.97841 3.34714L3.19856 3.55093L3.19862 3.55087L2.97841 3.34714ZM19.2308 3.02559L19.2311 2.72559L19.2308 3.02559ZM34.9437 3.04229L35.1528 2.82722L35.0656 2.74242L34.944 2.74229L34.9437 3.04229ZM42.8164 6.05265L42.7474 5.76069L42.7474 5.76069L42.8164 6.05265ZM40.4984 7.88654L40.2304 7.75164L40.2304 7.75167L40.4984 7.88654ZM40.2085 8.46258L39.9405 8.3277L39.9087 8.39082L39.9085 8.46148L40.2085 8.46258ZM40.1834 15.3229L40.4834 15.324V15.324L40.1834 15.3229ZM40.2017 29.5007L40.5018 29.5112L40.5017 29.4995L40.2017 29.5007ZM41.8924 29.2967L41.5923 29.2936L41.5924 29.3009L41.8924 29.2967ZM41.9621 12.0907V11.7907H41.6621V12.0907H41.9621ZM45.1995 12.0907H45.4995V11.7907H45.1995V12.0907ZM45.1995 38.8424V39.1424H45.4995V38.8424H45.1995ZM41.9621 38.8424H41.6621V39.1424H41.9621V38.8424ZM41.9621 34.292H42.2621L42.262 34.2878L41.9621 34.292ZM40.1635 39.8966H39.8635V39.9628L39.8914 40.0229L40.1635 39.8966ZM41.5114 42.8009L41.2392 42.9272V42.9272L41.5114 42.8009ZM43.0176 45.8182L42.8433 46.0624L42.8433 46.0624L43.0176 45.8182ZM44.1439 45.8182L44.3182 46.0624L44.3182 46.0624L44.1439 45.8182ZM45.6511 42.7988L45.379 42.6725L45.379 42.6725L45.6511 42.7988ZM47 39.8924L47.2721 40.0187L47.3001 39.9584L47.3 39.8919L47 39.8924ZM46.9765 24.2212L47.2765 24.2207L46.9765 24.2212ZM46.9531 8.55L47.2531 8.54955L47.253 8.48992L47.2301 8.43486L46.9531 8.55ZM46.7459 8.05151L46.4688 8.16663L46.4688 8.16665L46.7459 8.05151ZM45.3252 6.44195L45.4737 6.18128L45.4737 6.18128L45.3252 6.44195ZM44.1874 7.85393L44.3003 7.57599L44.3003 7.57598L44.1874 7.85393ZM45.1975 9.66465L45.4975 9.66378V9.66378L45.1975 9.66465ZM45.1995 10.3422V10.6422H45.5003L45.4995 10.3413L45.1995 10.3422ZM41.9621 10.3422H41.6621V10.6422H41.9621V10.3422ZM42.9063 7.88392L43.0286 8.15786L43.0286 8.15785L42.9063 7.88392ZM17.7814 8.19121L17.9237 8.45533L17.9237 8.4553L17.7814 8.19121ZM17.45 9.36785L17.1852 9.50872L17.1852 9.50874L17.45 9.36785ZM24.6078 9.68564L24.7425 9.95371L24.7426 9.95367L24.6078 9.68564ZM24.6078 8.20118L24.7426 7.93315L24.7426 7.93314L24.6078 8.20118ZM27.7345 8.32252L27.9312 8.54902L27.9313 8.549L27.7345 8.32252ZM27.7345 9.56429L27.9313 9.33782L27.9312 9.3378L27.7345 9.56429ZM28.0262 9.81765L27.8294 10.0441L27.914 10.1176H28.0262V9.81765ZM32.3223 9.33926L32.0506 9.21194L32.0506 9.21196L32.3223 9.33926ZM31.9671 8.19375L31.8323 8.46177L31.8323 8.46178L31.9671 8.19375ZM28.0262 8.06917V7.76917H27.914L27.8294 7.84269L28.0262 8.06917ZM17.7814 13.7863L17.9237 14.0505L17.9237 14.0504L17.7814 13.7863ZM17.814 15.3083L17.9355 15.034L17.9355 15.034L17.814 15.3083ZM31.9377 15.3083L31.8161 15.034L31.8161 15.034L31.9377 15.3083ZM31.9377 13.7688L32.0592 13.4945L32.0591 13.4945L31.9377 13.7688ZM17.7814 20.0809L17.9237 20.345L17.9237 20.345L17.7814 20.0809ZM17.45 21.2575L17.1852 21.3984L17.1852 21.3984L17.45 21.2575ZM24.6078 21.5753L24.7425 21.8434L24.7426 21.8433L24.6078 21.5753ZM24.6078 20.0908L24.7426 19.8228L24.7426 19.8228L24.6078 20.0908ZM27.7345 20.2122L27.9312 20.4387L27.9313 20.4387L27.7345 20.2122ZM27.7345 21.454L27.9313 21.2275L27.9312 21.2275L27.7345 21.454ZM28.0262 21.7073L27.8294 21.9338L27.914 22.0073H28.0262V21.7073ZM32.3223 21.2289L32.0506 21.1016L32.0506 21.1016L32.3223 21.2289ZM31.9671 20.0834L31.8323 20.3514L31.8323 20.3514L31.9671 20.0834ZM28.0262 19.9588V19.6588H27.914L27.8294 19.7324L28.0262 19.9588ZM17.7814 25.676L17.9237 25.9401L17.9237 25.9401L17.7814 25.676ZM17.814 27.198L17.9355 26.9237L17.9355 26.9237L17.814 27.198ZM31.9377 27.198L31.8161 26.9237L31.8161 26.9237L31.9377 27.198ZM31.9377 25.6584L32.0592 25.3841L32.0591 25.3841L31.9377 25.6584ZM17.7814 31.9705L17.9237 32.2346L17.9237 32.2346L17.7814 31.9705ZM17.45 33.1472L17.1852 33.288L17.1852 33.2881L17.45 33.1472ZM24.6078 33.465L24.7425 33.733L24.7426 33.733L24.6078 33.465ZM24.6078 31.9805L24.7426 31.7125L24.7426 31.7125L24.6078 31.9805ZM27.7345 32.1018L27.9312 32.3283L27.9313 32.3283L27.7345 32.1018ZM27.7345 33.3436L27.9313 33.1171L27.9312 33.1171L27.7345 33.3436ZM28.0262 33.597L27.8294 33.8234L27.914 33.897H28.0262V33.597ZM32.3223 33.1186L32.0506 32.9913L32.0506 32.9913L32.3223 33.1186ZM31.9671 31.9731L31.8323 32.2411L31.8323 32.2411L31.9671 31.9731ZM28.0262 31.8485V31.5485H27.914L27.8294 31.622L28.0262 31.8485ZM17.7814 37.5657L17.9237 37.8298L17.9237 37.8298L17.7814 37.5657ZM17.814 39.0876L17.9355 38.8133L17.9355 38.8133L17.814 39.0876ZM31.9377 39.0876L31.8161 38.8133L31.8161 38.8133L31.9377 39.0876ZM31.9377 37.5481L32.0592 37.2738L32.0591 37.2738L31.9377 37.5481ZM44.622 40.7358L44.3429 40.6257V40.6257L44.622 40.7358ZM42.5396 40.7358L42.8186 40.6257L42.8186 40.6257L42.5396 40.7358ZM2.93744 1.04397C2.10763 1.29205 1.36613 1.9046 0.947738 2.68148L1.476 2.96598C1.8211 2.32519 2.43661 1.81994 3.1093 1.61883L2.93744 1.04397ZM0.947738 2.68148L0.735868 3.07489L1.26413 3.35938L1.476 2.96598L0.947738 2.68148ZM0.7 3.21714V23.6306H1.3V3.21714H0.7ZM0.7 23.6306V44.0441H1.3V23.6306H0.7ZM0.735868 44.1864L0.947738 44.5798L1.476 44.2953L1.26413 43.9019L0.735868 44.1864ZM0.94774 44.5798C1.26492 45.1687 1.7981 45.6941 2.39083 46.001L2.66671 45.4682C2.18157 45.2169 1.73616 44.7783 1.476 44.2953L0.94774 44.5798ZM2.39079 46.0009L2.84043 46.2338L3.11639 45.7011L2.66675 45.4682L2.39079 46.0009ZM2.97841 46.2675H19.1204V45.6675H2.97841V46.2675ZM19.1204 46.2675H35.2625V45.6675H19.1204V46.2675ZM35.4004 46.2338L35.8501 46.0009L35.5741 45.4682L35.1245 45.7011L35.4004 46.2338ZM35.85 46.001C36.4428 45.6941 36.9759 45.1687 37.2931 44.5798L36.7649 44.2953C36.5047 44.7783 36.0593 45.2169 35.5742 45.4682L35.85 46.001ZM37.2931 44.5798L37.505 44.1864L36.9767 43.9019L36.7649 44.2953L37.2931 44.5798ZM37.5409 44.0441V23.6306H36.9409V44.0441H37.5409ZM37.5409 23.6306V3.21714H36.9409V23.6306H37.5409ZM37.5039 3.07295L37.2644 2.63583L36.7382 2.9242L36.9778 3.36132L37.5039 3.07295ZM37.2644 2.63587C36.9473 2.05705 36.4063 1.53937 35.8032 1.23242L35.531 1.76714C36.0307 2.02145 36.4812 2.45512 36.7382 2.92416L37.2644 2.63587ZM35.8032 1.23242L35.3985 1.02645L35.1264 1.56117L35.5311 1.76714L35.8032 1.23242ZM35.2627 0.993809L19.2556 0.978947L19.255 1.57895L35.2622 1.59381L35.2627 0.993809ZM19.2556 0.978947C14.8534 0.974882 10.8258 0.97875 7.88328 0.988259C6.41207 0.993013 5.21167 0.999179 4.37113 1.00647C3.95099 1.01012 3.61999 1.01405 3.38978 1.01825C3.27488 1.02034 3.18376 1.02252 3.11875 1.02482C3.0865 1.02595 3.05867 1.02718 3.03675 1.02858C3.026 1.02927 3.01424 1.03014 3.00294 1.03133C3.00018 1.03162 2.96985 1.03428 2.93741 1.04398L3.10933 1.61882C3.09066 1.62441 3.07619 1.62658 3.07386 1.62695C3.06909 1.62769 3.06606 1.628 3.06587 1.62802C3.06541 1.62807 3.06794 1.62781 3.07491 1.62737C3.08842 1.62651 3.1097 1.62551 3.13989 1.62444C3.19976 1.62233 3.28684 1.62022 3.40071 1.61815C3.62801 1.614 3.95674 1.61009 4.37633 1.60645C5.21526 1.59917 6.41438 1.59301 7.88522 1.58826C10.8267 1.57875 14.8534 1.57488 19.255 1.57895L19.2556 0.978947ZM34.9839 3.49986L35.2332 3.7422L35.6514 3.31191L35.402 3.06957L34.9839 3.49986ZM35.1423 3.52705V23.6306H35.7423V3.52705H35.1423ZM35.1423 23.6306V43.7342H35.7423V23.6306H35.1423ZM35.2332 43.5191L34.9839 43.7614L35.402 44.1917L35.6514 43.9493L35.2332 43.5191ZM34.9838 43.7615L34.7345 44.0039L35.1528 44.434L35.4021 44.1916L34.9838 43.7615ZM34.9437 43.919H19.1204V44.519H34.9437V43.919ZM19.1204 43.919H3.2972V44.519H19.1204V43.919ZM3.50636 44.0039L3.25708 43.7615L2.83877 44.1916L3.08805 44.434L3.50636 44.0039ZM3.257 43.7614L3.00763 43.5191L2.58947 43.9493L2.83884 44.1917L3.257 43.7614ZM3.09855 43.7342V23.6378H2.49855V43.7342H3.09855ZM3.09855 23.6378C3.09855 13.6502 3.09883 8.62773 3.12143 6.07759C3.13276 4.79965 3.14967 4.15158 3.17411 3.81181C3.18656 3.63877 3.19982 3.56606 3.20813 3.53651C3.21121 3.52558 3.211 3.53037 3.20424 3.54165C3.19742 3.55302 3.19032 3.55984 3.19856 3.55093L2.75826 3.14334C2.74415 3.15858 2.71609 3.189 2.68962 3.23315C2.6632 3.27723 2.64464 3.32399 2.63057 3.37395C2.60461 3.46619 2.58845 3.59091 2.57566 3.76876C2.54962 4.13078 2.53274 4.79833 2.52145 6.07227C2.49882 8.62587 2.49855 13.6522 2.49855 23.6378H3.09855ZM3.19862 3.55087C3.23269 3.51405 3.28305 3.46962 3.33675 3.42988C3.3936 3.38779 3.43492 3.36524 3.44962 3.35935L3.22662 2.80233C3.1424 2.83605 3.05332 2.89318 2.97978 2.94761C2.90309 3.00438 2.82305 3.0733 2.7582 3.1434L3.19862 3.55087ZM3.44962 3.35935C3.42223 3.37032 3.39984 3.37425 3.39732 3.37472C3.39037 3.37603 3.38556 3.37663 3.38455 3.37675C3.38232 3.37702 3.38333 3.37684 3.38954 3.37639C3.40132 3.37554 3.4209 3.3745 3.44974 3.37336C3.50674 3.37112 3.59057 3.36888 3.70097 3.36666C3.92125 3.36224 4.24122 3.35807 4.65063 3.3542C5.46915 3.34645 6.64175 3.33993 8.08182 3.33492C10.9618 3.32491 14.9097 3.321 19.2305 3.32559L19.2311 2.72559C14.9098 2.721 10.9608 2.72491 8.07973 2.73492C6.63926 2.73993 5.46526 2.74646 4.64495 2.75422C4.23495 2.7581 3.91245 2.7623 3.68893 2.76678C3.57743 2.76902 3.48902 2.77136 3.42618 2.77383C3.3951 2.77505 3.36784 2.77639 3.34624 2.77796C3.33575 2.77871 3.32342 2.77975 3.31125 2.78124C3.30528 2.78198 3.29635 2.78319 3.28613 2.78511C3.28035 2.7862 3.25556 2.79075 3.22662 2.80233L3.44962 3.35935ZM19.2305 3.32559L34.9433 3.34229L34.944 2.74229L19.2311 2.72559L19.2305 3.32559ZM34.7345 3.25736L34.9838 3.49978L35.4021 3.06965L35.1528 2.82722L34.7345 3.25736ZM42.7474 5.76069C41.6803 6.01295 40.725 6.76919 40.2304 7.75164L40.7664 8.02144C41.1817 7.19649 41.9918 6.55586 42.8854 6.3446L42.7474 5.76069ZM40.2304 7.75167L39.9405 8.3277L40.4765 8.59745L40.7664 8.02141L40.2304 7.75167ZM39.9085 8.46148L39.8834 15.3218L40.4834 15.324L40.5085 8.46367L39.9085 8.46148ZM39.8834 15.3218C39.874 17.8672 39.8786 21.4125 39.8855 24.3208C39.889 25.7751 39.8931 27.0704 39.8962 28.0021C39.8978 28.4679 39.8992 28.8429 39.9002 29.1014C39.9007 29.2306 39.9011 29.3308 39.9013 29.3986C39.9015 29.4325 39.9016 29.4583 39.9016 29.4757C39.9017 29.4844 39.9017 29.4909 39.9017 29.4953C39.9017 29.4975 39.9017 29.4992 39.9017 29.5003C39.9017 29.5008 39.9017 29.5012 39.9017 29.5015C39.9017 29.5017 39.9017 29.5018 39.9017 29.5018C39.9017 29.5019 39.9017 29.5019 40.2017 29.5007C40.5017 29.4995 40.5017 29.4995 40.5017 29.4994C40.5017 29.4993 40.5017 29.4992 40.5017 29.4991C40.5017 29.4988 40.5017 29.4984 40.5017 29.4978C40.5017 29.4967 40.5017 29.4951 40.5017 29.4929C40.5017 29.4885 40.5017 29.482 40.5016 29.4733C40.5016 29.4559 40.5015 29.4301 40.5013 29.3962C40.5011 29.3284 40.5007 29.2283 40.5002 29.0991C40.4992 28.8407 40.4978 28.4658 40.4962 28C40.4931 27.0685 40.489 25.7735 40.4855 24.3194C40.4786 21.4111 40.474 17.8675 40.4834 15.324L39.8834 15.3218ZM41.8924 29.2967C42.1923 29.2999 42.1923 29.2999 42.1923 29.2998C42.1923 29.2998 42.1923 29.2997 42.1923 29.2996C42.1923 29.2994 42.1923 29.2991 42.1923 29.2987C42.1924 29.2979 42.1924 29.2966 42.1924 29.295C42.1924 29.2918 42.1925 29.287 42.1925 29.2807C42.1927 29.268 42.1929 29.249 42.1931 29.2241C42.1936 29.1742 42.1944 29.1003 42.1953 29.0043C42.1972 28.8123 42.2 28.532 42.2032 28.1784C42.2098 27.4711 42.2185 26.4708 42.2272 25.2983C42.2446 22.9536 42.2621 19.92 42.2621 17.1656H41.6621C41.6621 19.9178 41.6446 22.9497 41.6272 25.2939C41.6185 26.4659 41.6098 27.4659 41.6033 28.1728C41.6 28.5263 41.5973 28.8065 41.5954 28.9983C41.5944 29.0943 41.5937 29.1681 41.5932 29.2179C41.5929 29.2428 41.5927 29.2618 41.5926 29.2744C41.5925 29.2808 41.5925 29.2856 41.5924 29.2888C41.5924 29.2904 41.5924 29.2916 41.5924 29.2924C41.5924 29.2928 41.5924 29.2931 41.5924 29.2933C41.5924 29.2934 41.5924 29.2934 41.5924 29.2935C41.5924 29.2935 41.5924 29.2936 41.8924 29.2967ZM42.2621 17.1656V12.0907H41.6621V17.1656H42.2621ZM41.9621 12.3907H43.5808V11.7907H41.9621V12.3907ZM43.5808 12.3907H45.1995V11.7907H43.5808V12.3907ZM44.8995 12.0907V25.4665H45.4995V12.0907H44.8995ZM44.8995 25.4665V38.8424H45.4995V25.4665H44.8995ZM45.1995 38.5424H43.5808V39.1424H45.1995V38.5424ZM43.5808 38.5424H41.9621V39.1424H43.5808V38.5424ZM42.2621 38.8424V34.292H41.6621V38.8424H42.2621ZM42.262 34.2878L42.1923 29.2925L41.5924 29.3009L41.6621 34.2962L42.262 34.2878ZM40.2017 29.5007C39.9019 29.4902 39.9019 29.4903 39.9019 29.4903C39.9019 29.4903 39.9019 29.4903 39.9019 29.4904C39.9019 29.4904 39.9019 29.4905 39.9019 29.4906C39.9019 29.4908 39.9019 29.491 39.9019 29.4914C39.9019 29.492 39.9018 29.4929 39.9018 29.4941C39.9017 29.4965 39.9016 29.5001 39.9015 29.5048C39.9012 29.5142 39.9007 29.5284 39.9002 29.5478C39.8991 29.5867 39.8976 29.6465 39.8958 29.7314C39.8922 29.9011 39.8874 30.1709 39.8826 30.5725C39.8731 31.3756 39.8635 32.7065 39.8635 34.8191H40.4635C40.4635 32.7081 40.4731 31.3798 40.4826 30.5796C40.4874 30.1796 40.4921 29.9117 40.4957 29.7441C40.4975 29.6604 40.499 29.6017 40.5 29.5642C40.5005 29.5455 40.5009 29.532 40.5012 29.5233C40.5013 29.519 40.5014 29.5158 40.5015 29.5138C40.5015 29.5128 40.5015 29.5121 40.5015 29.5117C40.5015 29.5115 40.5015 29.5113 40.5016 29.5112C40.5016 29.5112 40.5016 29.5112 40.5016 29.5112C40.5016 29.5111 40.5016 29.5112 40.5016 29.5112C40.5016 29.5112 40.5016 29.5112 40.2017 29.5007ZM39.8635 34.8191V39.8966H40.4635V34.8191H39.8635ZM39.8914 40.0229L41.2392 42.9272L41.7835 42.6746L40.4356 39.7703L39.8914 40.0229ZM41.2392 42.9272C41.6108 43.7278 41.9669 44.4692 42.2415 45.0193C42.3786 45.2939 42.4964 45.5229 42.5861 45.6883C42.6308 45.7705 42.6702 45.8402 42.7026 45.893C42.7185 45.9191 42.7351 45.9448 42.7513 45.9673C42.7593 45.9783 42.7927 46.0262 42.8433 46.0624L43.192 45.5741C43.2317 45.6025 43.2497 45.6325 43.2378 45.616C43.2341 45.611 43.2264 45.5996 43.2141 45.5795C43.1898 45.5399 43.1562 45.4808 43.1135 45.4021C43.0285 45.2455 42.9142 45.0235 42.7783 44.7513C42.5068 44.2075 42.1533 43.4714 41.7835 42.6746L41.2392 42.9272ZM42.8433 46.0624C43.2858 46.3783 43.8757 46.3783 44.3182 46.0624L43.9696 45.5741C43.7356 45.7411 43.4259 45.7411 43.192 45.5741L42.8433 46.0624ZM44.3182 46.0624C44.3689 46.0262 44.4023 45.9782 44.4103 45.9672C44.4265 45.9448 44.443 45.919 44.459 45.893C44.4914 45.8401 44.5308 45.7704 44.5755 45.6881C44.6653 45.5226 44.7832 45.2935 44.9204 45.0186C45.1951 44.4682 45.5514 43.7262 45.9232 42.9251L45.379 42.6725C45.0089 43.4699 44.6552 44.2065 44.3835 44.7507C44.2476 45.0231 44.1332 45.2452 44.0481 45.4019C44.0054 45.4807 43.9717 45.5398 43.9474 45.5794C43.9351 45.5996 43.9274 45.611 43.9238 45.616C43.9119 45.6325 43.9298 45.6025 43.9696 45.5741L44.3182 46.0624ZM45.9232 42.9251L47.2721 40.0187L46.7279 39.7661L45.379 42.6725L45.9232 42.9251ZM47.3 39.8919L47.2765 24.2207L46.6765 24.2216L46.7 39.8928L47.3 39.8919ZM47.2765 24.2207L47.2531 8.54955L46.6531 8.55045L46.6765 24.2216L47.2765 24.2207ZM47.2301 8.43486L47.0229 7.93636L46.4688 8.16665L46.676 8.66514L47.2301 8.43486ZM47.0229 7.93638C46.8846 7.60368 46.6462 7.2522 46.3758 6.94585C46.1055 6.63952 45.7864 6.35945 45.4737 6.18128L45.1767 6.70261C45.4157 6.83881 45.685 7.06987 45.926 7.3429C46.167 7.61591 46.363 7.91202 46.4688 8.16663L47.0229 7.93638ZM45.4737 6.18128C44.6964 5.73844 43.5832 5.56311 42.7474 5.76069L42.8854 6.3446C43.5644 6.18409 44.5229 6.33013 45.1767 6.70261L45.4737 6.18128ZM44.0745 8.13187C44.393 8.26126 44.5828 8.42128 44.7024 8.63576C44.8277 8.86023 44.8961 9.17973 44.8975 9.66553L45.4975 9.66378C45.4959 9.13458 45.4234 8.69665 45.2264 8.34346C45.0238 7.98029 44.7101 7.74244 44.3003 7.57599L44.0745 8.13187ZM44.8975 9.66553L44.8995 10.3431L45.4995 10.3413L45.4975 9.66378L44.8975 9.66553ZM45.1995 10.0422H43.5808V10.6422H45.1995V10.0422ZM43.5808 10.0422H41.9621V10.6422H43.5808V10.0422ZM42.2621 10.3422V9.68371H41.6621V10.3422H42.2621ZM42.2621 9.68371C42.2621 9.2077 42.326 8.88995 42.4444 8.66433C42.5574 8.44895 42.7352 8.28883 43.0286 8.15786L42.784 7.60997C42.3962 7.78306 42.1019 8.02566 41.9131 8.38558C41.7296 8.73525 41.6621 9.16536 41.6621 9.68371H42.2621ZM43.0286 8.15785C43.3983 7.99279 43.7178 7.98696 44.0745 8.13188L44.3003 7.57598C43.7871 7.36753 43.2978 7.38058 42.784 7.60998L43.0286 8.15785ZM17.6391 7.92709C17.0587 8.23975 16.8769 8.92909 17.1852 9.50872L17.7149 9.22698C17.5512 8.91925 17.653 8.60112 17.9237 8.45533L17.6391 7.92709ZM17.1852 9.50874C17.2468 9.62453 17.3282 9.76707 17.4949 9.87389C17.651 9.97389 17.8502 10.0229 18.1047 10.0534C18.6122 10.1143 19.5157 10.1176 21.1975 10.1176V9.51765C19.4928 9.51765 18.6381 9.51313 18.1762 9.45769C17.946 9.43006 17.8577 9.39372 17.8186 9.36868C17.7902 9.35047 17.7688 9.32824 17.7149 9.22696L17.1852 9.50874ZM21.1975 10.1176C22.5118 10.1176 23.3157 10.1123 23.8188 10.0928C24.0699 10.0831 24.2547 10.0696 24.3943 10.0499C24.533 10.0303 24.6457 10.0023 24.7425 9.95371L24.4731 9.41757C24.4601 9.42412 24.4206 9.44022 24.3105 9.45575C24.2013 9.47115 24.0406 9.48375 23.7956 9.49324C23.3063 9.51218 22.5148 9.51765 21.1975 9.51765V10.1176ZM24.7426 9.95367C24.9353 9.85676 25.0977 9.7288 25.2074 9.54694C25.3166 9.366 25.3557 9.16146 25.3557 8.94341H24.7557C24.7557 9.09113 24.7292 9.17807 24.6937 9.23697C24.6587 9.29497 24.5971 9.35523 24.4731 9.41761L24.7426 9.95367ZM25.3557 8.94341C25.3557 8.72535 25.3166 8.52081 25.2074 8.33987C25.0977 8.15802 24.9353 8.03005 24.7426 7.93315L24.4731 8.46921C24.5971 8.53159 24.6587 8.59185 24.6937 8.64984C24.7292 8.70875 24.7557 8.79568 24.7557 8.94341H25.3557ZM24.7426 7.93314C24.6716 7.89749 24.5807 7.88176 24.5209 7.87248C24.4463 7.86093 24.3541 7.85086 24.2495 7.8419C24.0396 7.82392 23.7637 7.80907 23.4465 7.79714C22.8111 7.77325 21.9969 7.76064 21.1852 7.75945C20.3735 7.75826 19.561 7.76849 18.9288 7.79053C18.6132 7.80153 18.3392 7.81559 18.1316 7.83298C18.0283 7.84164 17.9371 7.85148 17.8636 7.86292C17.8269 7.86862 17.7908 7.87531 17.7577 7.88348C17.7295 7.89044 17.6837 7.9031 17.6391 7.92712L17.9237 8.4553C17.9002 8.46796 17.8868 8.46963 17.9016 8.46597C17.9115 8.46352 17.929 8.45996 17.9558 8.45578C18.0093 8.44746 18.0846 8.43902 18.1817 8.43089C18.3751 8.41468 18.6379 8.40103 18.9497 8.39016C19.5723 8.36846 20.3771 8.35827 21.1843 8.35945C21.9916 8.36063 22.798 8.37319 23.4239 8.39672C23.7374 8.4085 24.0023 8.42292 24.1983 8.43971C24.2967 8.44814 24.3737 8.45683 24.429 8.4654C24.499 8.47625 24.4986 8.48202 24.4731 8.46922L24.7426 7.93314ZM27.5378 8.09603C27.4109 8.20622 27.2974 8.31939 27.2266 8.46989C27.1549 8.62252 27.1428 8.78002 27.1428 8.94341H27.7428C27.7428 8.80256 27.7559 8.75443 27.7697 8.72509C27.7844 8.69362 27.8167 8.64846 27.9312 8.54902L27.5378 8.09603ZM27.1428 8.94341C27.1428 9.10679 27.1549 9.26429 27.2266 9.41692C27.2974 9.56742 27.4109 9.68059 27.5378 9.79078L27.9312 9.3378C27.8167 9.23835 27.7844 9.19319 27.7697 9.16172C27.7559 9.13238 27.7428 9.08425 27.7428 8.94341H27.1428ZM27.5378 9.79077L27.8294 10.0441L28.2229 9.59117L27.9313 9.33782L27.5378 9.79077ZM28.0262 10.1176H29.8726V9.51765H28.0262V10.1176ZM29.8726 10.1176C30.8649 10.1176 31.4614 10.1074 31.8326 10.0349C32.026 9.99711 32.1892 9.93744 32.323 9.83137C32.4582 9.72422 32.5352 9.59183 32.5939 9.46656L32.0506 9.21196C32.0081 9.30267 31.9795 9.33807 31.9504 9.36112C31.9199 9.38524 31.8601 9.41817 31.7176 9.446C31.417 9.50471 30.8899 9.51765 29.8726 9.51765V10.1176ZM32.5939 9.46658C32.8653 8.88766 32.6768 8.2148 32.1018 7.92572L31.8323 8.46178C32.085 8.58883 32.1998 8.89372 32.0506 9.21194L32.5939 9.46658ZM32.1018 7.92572C31.9438 7.84626 31.716 7.81481 31.3995 7.79599C31.0676 7.77625 30.5835 7.76917 29.8726 7.76917V8.36917C30.5842 8.36917 31.0519 8.37638 31.3638 8.39493C31.6912 8.4144 31.7994 8.44524 31.8323 8.46177L32.1018 7.92572ZM29.8726 7.76917H28.0262V8.36917H29.8726V7.76917ZM27.8294 7.84269L27.5378 8.09605L27.9313 8.549L28.2229 8.29564L27.8294 7.84269ZM17.6391 13.5222C16.8307 13.9578 16.8347 15.2027 17.6925 15.5826L17.9355 15.034C17.5623 14.8688 17.5268 14.2643 17.9237 14.0505L17.6391 13.5222ZM17.6924 15.5826C17.7301 15.5993 17.7662 15.6066 17.7816 15.6096C17.8027 15.6138 17.8249 15.617 17.8463 15.6197C17.8895 15.625 17.9429 15.6297 18.0037 15.634C18.1261 15.6426 18.2922 15.6503 18.4937 15.6574C18.8976 15.6716 19.4544 15.6834 20.1119 15.6928C21.4273 15.7116 23.1519 15.721 24.8758 15.721C26.5997 15.721 28.3243 15.7116 29.6398 15.6928C30.2972 15.6834 30.854 15.6716 31.2579 15.6574C31.4594 15.6503 31.6255 15.6426 31.7479 15.634C31.8087 15.6297 31.8622 15.625 31.9053 15.6197C31.9267 15.617 31.9489 15.6138 31.97 15.6096C31.9854 15.6066 32.0215 15.5993 32.0592 15.5826L31.8161 15.034C31.8432 15.022 31.8623 15.0193 31.8545 15.0208C31.8524 15.0213 31.8452 15.0225 31.8313 15.0242C31.8036 15.0277 31.7623 15.0315 31.7059 15.0354C31.5939 15.0433 31.436 15.0508 31.2368 15.0578C30.8392 15.0717 30.2872 15.0834 29.6312 15.0928C28.3196 15.1116 26.5981 15.121 24.8758 15.121C23.1536 15.121 21.432 15.1116 20.1204 15.0928C19.4644 15.0834 18.9125 15.0717 18.5148 15.0578C18.3156 15.0508 18.1577 15.0433 18.0457 15.0354C17.9893 15.0315 17.948 15.0277 17.9204 15.0242C17.9064 15.0225 17.8992 15.0213 17.8971 15.0208C17.8893 15.0193 17.9084 15.022 17.9355 15.034L17.6924 15.5826ZM32.0592 15.5826C32.2584 15.4943 32.4219 15.3245 32.5331 15.1506C32.6446 14.9761 32.7297 14.7566 32.7297 14.5385H32.1297C32.1297 14.6095 32.0976 14.7178 32.0276 14.8274C31.9571 14.9376 31.8746 15.0081 31.8161 15.034L32.0592 15.5826ZM32.7297 14.5385C32.7297 14.3205 32.6446 14.101 32.5331 13.9265C32.4219 13.7526 32.2584 13.5828 32.0592 13.4945L31.8161 14.0431C31.8746 14.069 31.9571 14.1395 32.0276 14.2497C32.0976 14.3593 32.1297 14.4675 32.1297 14.5385H32.7297ZM32.0591 13.4945C32.0011 13.4688 31.9325 13.4604 31.9044 13.4568C31.8603 13.4511 31.8059 13.4461 31.7442 13.4416C31.6199 13.4326 31.452 13.4245 31.2487 13.4172C30.8412 13.4025 30.2806 13.3907 29.6195 13.3814C28.2967 13.363 26.5648 13.3551 24.8356 13.3572C23.1064 13.3594 21.3785 13.3716 20.0635 13.3933C19.4063 13.4041 18.8506 13.4174 18.4489 13.4331C18.2485 13.4409 18.0835 13.4494 17.9625 13.4588C17.9024 13.4634 17.8492 13.4686 17.8062 13.4745C17.7849 13.4775 17.762 13.4812 17.74 13.486C17.7257 13.4892 17.6829 13.4987 17.6391 13.5223L17.9237 14.0504C17.9028 14.0617 17.8862 14.0671 17.881 14.0687C17.8742 14.0709 17.87 14.0718 17.87 14.0718C17.8695 14.0719 17.8708 14.0716 17.8743 14.071C17.8776 14.0704 17.8823 14.0697 17.8884 14.0689C17.9139 14.0653 17.9535 14.0613 18.0087 14.057C18.1184 14.0485 18.2744 14.0403 18.4723 14.0326C18.8672 14.0172 19.4177 14.004 20.0734 13.9932C21.3843 13.9715 23.109 13.9594 24.8364 13.9572C26.5638 13.9551 28.2924 13.963 29.6111 13.9814C30.2708 13.9906 30.8262 14.0024 31.2271 14.0168C31.428 14.024 31.5874 14.0318 31.7007 14.0401C31.7577 14.0442 31.7996 14.0482 31.8278 14.0518C31.872 14.0575 31.8516 14.0588 31.8162 14.0431L32.0591 13.4945ZM17.6391 19.8168C17.0587 20.1294 16.8769 20.8188 17.1852 21.3984L17.7149 21.1166C17.5512 20.8089 17.653 20.4908 17.9237 20.345L17.6391 19.8168ZM17.1852 21.3984C17.2468 21.5142 17.3282 21.6567 17.4949 21.7636C17.651 21.8635 17.8502 21.9125 18.1047 21.9431C18.6122 22.004 19.5157 22.0073 21.1975 22.0073V21.4073C19.4928 21.4073 18.6381 21.4028 18.1762 21.3474C17.946 21.3197 17.8577 21.2834 17.8186 21.2583C17.7902 21.2401 17.7688 21.2179 17.7149 21.1166L17.1852 21.3984ZM21.1975 22.0073C22.5118 22.0073 23.3157 22.0019 23.8188 21.9825C24.0699 21.9727 24.2547 21.9592 24.3943 21.9395C24.533 21.92 24.6457 21.892 24.7425 21.8434L24.4731 21.3072C24.4601 21.3138 24.4206 21.3299 24.3105 21.3454C24.2013 21.3608 24.0406 21.3734 23.7956 21.3829C23.3063 21.4018 22.5148 21.4073 21.1975 21.4073V22.0073ZM24.7426 21.8433C24.9353 21.7464 25.0977 21.6185 25.2074 21.4366C25.3166 21.2557 25.3557 21.0511 25.3557 20.8331H24.7557C24.7557 20.9808 24.7292 21.0677 24.6937 21.1266C24.6587 21.1846 24.5971 21.2449 24.4731 21.3073L24.7426 21.8433ZM25.3557 20.8331C25.3557 20.615 25.3166 20.4105 25.2074 20.2295C25.0977 20.0477 24.9353 19.9197 24.7426 19.8228L24.4731 20.3589C24.5971 20.4212 24.6587 20.4815 24.6937 20.5395C24.7292 20.5984 24.7557 20.6853 24.7557 20.8331H25.3557ZM24.7426 19.8228C24.6716 19.7871 24.5807 19.7714 24.5209 19.7621C24.4463 19.7506 24.3541 19.7405 24.2495 19.7316C24.0396 19.7136 23.7637 19.6987 23.4465 19.6868C22.8111 19.6629 21.9969 19.6503 21.1852 19.6491C20.3735 19.6479 19.561 19.6582 18.9288 19.6802C18.6132 19.6912 18.3392 19.7052 18.1316 19.7226C18.0283 19.7313 17.9371 19.7411 17.8636 19.7526C17.8269 19.7583 17.7908 19.765 17.7577 19.7731C17.7295 19.7801 17.6837 19.7928 17.6391 19.8168L17.9237 20.345C17.9002 20.3576 17.8868 20.3593 17.9016 20.3556C17.9115 20.3532 17.929 20.3496 17.9558 20.3454C18.0093 20.3371 18.0846 20.3287 18.1817 20.3205C18.3751 20.3043 18.6379 20.2907 18.9497 20.2798C19.5723 20.2581 20.3771 20.2479 21.1843 20.2491C21.9916 20.2503 22.798 20.2628 23.4239 20.2864C23.7374 20.2982 24.0023 20.3126 24.1983 20.3294C24.2967 20.3378 24.3737 20.3465 24.429 20.3551C24.499 20.3659 24.4986 20.3717 24.4731 20.3589L24.7426 19.8228ZM27.5378 19.9857C27.4109 20.0959 27.2974 20.2091 27.2266 20.3596C27.1549 20.5122 27.1428 20.6697 27.1428 20.8331H27.7428C27.7428 20.6922 27.7559 20.6441 27.7697 20.6148C27.7844 20.5833 27.8167 20.5381 27.9312 20.4387L27.5378 19.9857ZM27.1428 20.8331C27.1428 20.9965 27.1549 21.154 27.2266 21.3066C27.2974 21.4571 27.4109 21.5702 27.5378 21.6804L27.9312 21.2275C27.8167 21.128 27.7844 21.0829 27.7697 21.0514C27.7559 21.022 27.7428 20.9739 27.7428 20.8331H27.1428ZM27.5378 21.6804L27.8294 21.9338L28.2229 21.4808L27.9313 21.2275L27.5378 21.6804ZM28.0262 22.0073H29.8726V21.4073H28.0262V22.0073ZM29.8726 22.0073C30.8649 22.0073 31.4614 21.997 31.8326 21.9245C32.026 21.8868 32.1892 21.8271 32.323 21.721C32.4582 21.6139 32.5352 21.4815 32.5939 21.3562L32.0506 21.1016C32.0081 21.1923 31.9795 21.2277 31.9504 21.2508C31.9199 21.2749 31.8601 21.3078 31.7176 21.3357C31.417 21.3944 30.8899 21.4073 29.8726 21.4073V22.0073ZM32.5939 21.3562C32.8653 20.7773 32.6768 20.1045 32.1018 19.8154L31.8323 20.3514C32.085 20.4785 32.1998 20.7834 32.0506 21.1016L32.5939 21.3562ZM32.1018 19.8154C31.9438 19.7359 31.716 19.7045 31.3995 19.6856C31.0676 19.6659 30.5835 19.6588 29.8726 19.6588V20.2588C30.5842 20.2588 31.0519 20.266 31.3638 20.2846C31.6912 20.3041 31.7994 20.3349 31.8323 20.3514L32.1018 19.8154ZM29.8726 19.6588H28.0262V20.2588H29.8726V19.6588ZM27.8294 19.7324L27.5378 19.9857L27.9313 20.4387L28.2229 20.1853L27.8294 19.7324ZM17.6391 25.4119C16.8307 25.8474 16.8347 27.0923 17.6925 27.4723L17.9355 26.9237C17.5623 26.7584 17.5268 26.1539 17.9237 25.9401L17.6391 25.4119ZM17.6924 27.4723C17.7301 27.4889 17.7662 27.4963 17.7816 27.4993C17.8027 27.5034 17.8249 27.5067 17.8463 27.5093C17.8895 27.5147 17.9429 27.5194 18.0037 27.5236C18.1261 27.5322 18.2922 27.54 18.4937 27.5471C18.8976 27.5613 19.4544 27.573 20.1119 27.5824C21.4273 27.6012 23.1519 27.6106 24.8758 27.6106C26.5997 27.6106 28.3243 27.6012 29.6398 27.5824C30.2972 27.573 30.854 27.5613 31.2579 27.5471C31.4594 27.54 31.6255 27.5322 31.7479 27.5236C31.8087 27.5194 31.8622 27.5147 31.9053 27.5093C31.9267 27.5067 31.9489 27.5034 31.97 27.4993C31.9854 27.4963 32.0215 27.4889 32.0592 27.4723L31.8161 26.9237C31.8432 26.9117 31.8623 26.909 31.8545 26.9105C31.8524 26.9109 31.8452 26.9122 31.8313 26.9139C31.8036 26.9173 31.7623 26.9212 31.7059 26.9251C31.5939 26.933 31.436 26.9404 31.2368 26.9474C30.8392 26.9614 30.2872 26.9731 29.6312 26.9825C28.3196 27.0012 26.5981 27.0106 24.8758 27.0106C23.1536 27.0106 21.432 27.0012 20.1204 26.9825C19.4644 26.9731 18.9125 26.9614 18.5148 26.9474C18.3156 26.9404 18.1577 26.933 18.0457 26.9251C17.9893 26.9212 17.948 26.9173 17.9204 26.9139C17.9064 26.9122 17.8992 26.9109 17.8971 26.9105C17.8893 26.909 17.9084 26.9117 17.9355 26.9237L17.6924 27.4723ZM32.0592 27.4723C32.2584 27.384 32.4219 27.2141 32.5331 27.0402C32.6446 26.8658 32.7297 26.6462 32.7297 26.4282H32.1297C32.1297 26.4992 32.0976 26.6075 32.0276 26.7171C31.9571 26.8273 31.8746 26.8978 31.8161 26.9237L32.0592 27.4723ZM32.7297 26.4282C32.7297 26.2102 32.6446 25.9906 32.5331 25.8162C32.4219 25.6423 32.2584 25.4724 32.0592 25.3841L31.8161 25.9327C31.8746 25.9586 31.9571 26.0291 32.0276 26.1393C32.0976 26.2489 32.1297 26.3572 32.1297 26.4282H32.7297ZM32.0591 25.3841C32.0011 25.3584 31.9325 25.35 31.9044 25.3464C31.8603 25.3407 31.8059 25.3358 31.7442 25.3313C31.6199 25.3223 31.452 25.3142 31.2487 25.3069C30.8412 25.2922 30.2806 25.2803 29.6195 25.2711C28.2967 25.2526 26.5648 25.2448 24.8356 25.2469C23.1064 25.249 21.3785 25.2612 20.0635 25.2829C19.4063 25.2938 18.8506 25.3071 18.4489 25.3227C18.2485 25.3305 18.0835 25.3391 17.9625 25.3484C17.9024 25.3531 17.8492 25.3582 17.8062 25.3642C17.7849 25.3671 17.762 25.3708 17.74 25.3757C17.7257 25.3789 17.6829 25.3883 17.6391 25.4119L17.9237 25.9401C17.9028 25.9514 17.8862 25.9567 17.881 25.9584C17.8742 25.9605 17.87 25.9614 17.87 25.9614C17.8695 25.9615 17.8708 25.9612 17.8743 25.9607C17.8776 25.9601 17.8823 25.9594 17.8884 25.9585C17.9139 25.955 17.9535 25.9509 18.0087 25.9466C18.1184 25.9382 18.2744 25.93 18.4723 25.9223C18.8672 25.9069 19.4177 25.8937 20.0734 25.8829C21.3843 25.8612 23.109 25.849 24.8364 25.8469C26.5638 25.8448 28.2924 25.8526 29.6111 25.871C30.2708 25.8802 30.8262 25.892 31.2271 25.9065C31.428 25.9137 31.5874 25.9215 31.7007 25.9297C31.7577 25.9339 31.7996 25.9379 31.8278 25.9415C31.872 25.9472 31.8516 25.9484 31.8162 25.9327L32.0591 25.3841ZM17.6391 31.7064C17.0587 32.0191 16.8769 32.7084 17.1852 33.288L17.7149 33.0063C17.5512 32.6986 17.653 32.3804 17.9237 32.2346L17.6391 31.7064ZM17.1852 33.2881C17.2468 33.4039 17.3282 33.5464 17.4949 33.6532C17.651 33.7532 17.8502 33.8022 18.1047 33.8327C18.6122 33.8937 19.5157 33.897 21.1975 33.897V33.297C19.4928 33.297 18.6381 33.2925 18.1762 33.237C17.946 33.2094 17.8577 33.173 17.8186 33.148C17.7902 33.1298 17.7688 33.1076 17.7149 33.0063L17.1852 33.2881ZM21.1975 33.897C22.5118 33.897 23.3157 33.8916 23.8188 33.8721C24.0699 33.8624 24.2547 33.8489 24.3943 33.8292C24.533 33.8096 24.6457 33.7816 24.7425 33.733L24.4731 33.1969C24.4601 33.2034 24.4206 33.2195 24.3105 33.2351C24.2013 33.2505 24.0406 33.2631 23.7956 33.2726C23.3063 33.2915 22.5148 33.297 21.1975 33.297V33.897ZM24.7426 33.733C24.9353 33.6361 25.0977 33.5081 25.2074 33.3263C25.3166 33.1453 25.3557 32.9408 25.3557 32.7227H24.7557C24.7557 32.8705 24.7292 32.9574 24.6937 33.0163C24.6587 33.0743 24.5971 33.1345 24.4731 33.1969L24.7426 33.733ZM25.3557 32.7227C25.3557 32.5047 25.3166 32.3001 25.2074 32.1192C25.0977 31.9373 24.9353 31.8094 24.7426 31.7125L24.4731 32.2485C24.5971 32.3109 24.6587 32.3712 24.6937 32.4292C24.7292 32.4881 24.7557 32.575 24.7557 32.7227H25.3557ZM24.7426 31.7125C24.6716 31.6768 24.5807 31.6611 24.5209 31.6518C24.4463 31.6402 24.3541 31.6302 24.2495 31.6212C24.0396 31.6032 23.7637 31.5884 23.4465 31.5765C22.8111 31.5526 21.9969 31.54 21.1852 31.5388C20.3735 31.5376 19.561 31.5478 18.9288 31.5698C18.6132 31.5809 18.3392 31.5949 18.1316 31.6123C18.0283 31.621 17.9371 31.6308 17.8636 31.6422C17.8269 31.6479 17.7908 31.6546 17.7577 31.6628C17.7295 31.6698 17.6837 31.6824 17.6391 31.7064L17.9237 32.2346C17.9002 32.2473 17.8868 32.2489 17.9016 32.2453C17.9115 32.2428 17.929 32.2393 17.9558 32.2351C18.0093 32.2268 18.0846 32.2183 18.1817 32.2102C18.3751 32.194 18.6379 32.1804 18.9497 32.1695C19.5723 32.1478 20.3771 32.1376 21.1843 32.1388C21.9916 32.14 22.798 32.1525 23.4239 32.176C23.7374 32.1878 24.0023 32.2022 24.1983 32.219C24.2967 32.2275 24.3737 32.2362 24.429 32.2447C24.499 32.2556 24.4986 32.2613 24.4731 32.2485L24.7426 31.7125ZM27.5378 31.8753C27.4109 31.9855 27.2974 32.0987 27.2266 32.2492C27.1549 32.4018 27.1428 32.5593 27.1428 32.7227H27.7428C27.7428 32.5819 27.7559 32.5338 27.7697 32.5044C27.7844 32.4729 27.8167 32.4278 27.9312 32.3283L27.5378 31.8753ZM27.1428 32.7227C27.1428 32.8861 27.1549 33.0436 27.2266 33.1962C27.2974 33.3467 27.4109 33.4599 27.5378 33.5701L27.9312 33.1171C27.8167 33.0177 27.7844 32.9725 27.7697 32.941C27.7559 32.9117 27.7428 32.8636 27.7428 32.7227H27.1428ZM27.5378 33.5701L27.8294 33.8234L28.2229 33.3705L27.9313 33.1171L27.5378 33.5701ZM28.0262 33.897H29.8726V33.297H28.0262V33.897ZM29.8726 33.897C30.8649 33.897 31.4614 33.8867 31.8326 33.8142C32.026 33.7764 32.1892 33.7168 32.323 33.6107C32.4582 33.5035 32.5352 33.3712 32.5939 33.2459L32.0506 32.9913C32.0081 33.082 31.9795 33.1174 31.9504 33.1404C31.9199 33.1646 31.8601 33.1975 31.7176 33.2253C31.417 33.284 30.8899 33.297 29.8726 33.297V33.897ZM32.5939 33.2459C32.8653 32.667 32.6768 31.9941 32.1018 31.705L31.8323 32.2411C32.085 32.3681 32.1998 32.673 32.0506 32.9913L32.5939 33.2459ZM32.1018 31.705C31.9438 31.6256 31.716 31.5941 31.3995 31.5753C31.0676 31.5556 30.5835 31.5485 29.8726 31.5485V32.1485C30.5842 32.1485 31.0519 32.1557 31.3638 32.1743C31.6912 32.1937 31.7994 32.2246 31.8323 32.2411L32.1018 31.705ZM29.8726 31.5485H28.0262V32.1485H29.8726V31.5485ZM27.8294 31.622L27.5378 31.8754L27.9313 32.3283L28.2229 32.075L27.8294 31.622ZM17.6391 37.3016C16.8307 37.7371 16.8347 38.982 17.6925 39.3619L17.9355 38.8133C17.5623 38.6481 17.5268 38.0436 17.9237 37.8298L17.6391 37.3016ZM17.6924 39.3619C17.7301 39.3786 17.7662 39.3859 17.7816 39.389C17.8027 39.3931 17.8249 39.3963 17.8463 39.399C17.8895 39.4043 17.9429 39.409 18.0037 39.4133C18.1261 39.4219 18.2922 39.4296 18.4937 39.4367C18.8976 39.4509 19.4544 39.4627 20.1119 39.4721C21.4273 39.4909 23.1519 39.5003 24.8758 39.5003C26.5997 39.5003 28.3243 39.4909 29.6398 39.4721C30.2972 39.4627 30.854 39.4509 31.2579 39.4367C31.4594 39.4296 31.6255 39.4219 31.7479 39.4133C31.8087 39.409 31.8622 39.4043 31.9053 39.399C31.9267 39.3963 31.9489 39.3931 31.97 39.389C31.9854 39.3859 32.0215 39.3786 32.0592 39.3619L31.8161 38.8133C31.8432 38.8014 31.8623 38.7986 31.8545 38.8002C31.8524 38.8006 31.8452 38.8018 31.8313 38.8036C31.8036 38.807 31.7623 38.8108 31.7059 38.8148C31.5939 38.8226 31.436 38.8301 31.2368 38.8371C30.8392 38.8511 30.2872 38.8628 29.6312 38.8721C28.3196 38.8909 26.5981 38.9003 24.8758 38.9003C23.1536 38.9003 21.432 38.8909 20.1204 38.8721C19.4644 38.8628 18.9125 38.8511 18.5148 38.8371C18.3156 38.8301 18.1577 38.8226 18.0457 38.8148C17.9893 38.8108 17.948 38.807 17.9204 38.8036C17.9064 38.8018 17.8992 38.8006 17.8971 38.8002C17.8893 38.7986 17.9084 38.8014 17.9355 38.8133L17.6924 39.3619ZM32.0592 39.3619C32.2584 39.2736 32.4219 39.1038 32.5331 38.9299C32.6446 38.7554 32.7297 38.5359 32.7297 38.3179H32.1297C32.1297 38.3889 32.0976 38.4971 32.0276 38.6067C31.9571 38.7169 31.8746 38.7874 31.8161 38.8133L32.0592 39.3619ZM32.7297 38.3179C32.7297 38.0998 32.6446 37.8803 32.5331 37.7058C32.4219 37.5319 32.2584 37.3621 32.0592 37.2738L31.8161 37.8224C31.8746 37.8483 31.9571 37.9188 32.0276 38.029C32.0976 38.1386 32.1297 38.2469 32.1297 38.3179H32.7297ZM32.0591 37.2738C32.0011 37.2481 31.9325 37.2397 31.9044 37.2361C31.8603 37.2304 31.8059 37.2254 31.7442 37.2209C31.6199 37.2119 31.452 37.2038 31.2487 37.1965C30.8412 37.1819 30.2806 37.17 29.6195 37.1608C28.2967 37.1423 26.5648 37.1344 24.8356 37.1366C23.1064 37.1387 21.3785 37.1509 20.0635 37.1726C19.4063 37.1835 18.8506 37.1967 18.4489 37.2124C18.2485 37.2202 18.0835 37.2287 17.9625 37.2381C17.9024 37.2427 17.8492 37.2479 17.8062 37.2538C17.7849 37.2568 17.762 37.2605 17.74 37.2654C17.7257 37.2685 17.6829 37.278 17.6391 37.3016L17.9237 37.8298C17.9028 37.841 17.8862 37.8464 17.881 37.848C17.8742 37.8502 17.87 37.8511 17.87 37.8511C17.8695 37.8512 17.8708 37.8509 17.8743 37.8503C17.8776 37.8497 17.8823 37.849 17.8884 37.8482C17.9139 37.8446 17.9535 37.8406 18.0087 37.8363C18.1184 37.8278 18.2744 37.8197 18.4723 37.8119C18.8672 37.7965 19.4177 37.7833 20.0734 37.7725C21.3843 37.7509 23.109 37.7387 24.8364 37.7366C26.5638 37.7344 28.2924 37.7423 29.6111 37.7607C30.2708 37.7699 30.8262 37.7817 31.2271 37.7961C31.428 37.8033 31.5874 37.8111 31.7007 37.8194C31.7577 37.8235 31.7996 37.8275 31.8278 37.8312C31.872 37.8369 31.8516 37.8381 31.8162 37.8224L32.0591 37.2738ZM44.3429 40.6257C44.2504 40.8601 44.0035 41.4044 43.7715 41.897C43.6562 42.1418 43.5464 42.3701 43.4636 42.5363C43.4219 42.6199 43.3883 42.6853 43.3647 42.7285C43.3525 42.751 43.3455 42.7629 43.3428 42.7672C43.3408 42.7705 43.3446 42.7639 43.3528 42.7537C43.3562 42.7495 43.3679 42.7351 43.3864 42.719C43.3957 42.7109 43.4136 42.6964 43.4389 42.6827C43.4617 42.6703 43.512 42.6468 43.5808 42.6468V43.2468C43.6501 43.2468 43.7011 43.223 43.7247 43.2103C43.7508 43.1961 43.7695 43.181 43.7797 43.1721C43.8002 43.1544 43.8141 43.1375 43.8202 43.13C43.8336 43.1132 43.8442 43.0969 43.8502 43.0875C43.8635 43.0663 43.8779 43.0408 43.8919 43.0152C43.9206 42.9624 43.9579 42.8894 44.0005 42.804C44.0862 42.6322 44.1981 42.3994 44.3143 42.1526C44.5453 41.6622 44.8004 41.101 44.901 40.846L44.3429 40.6257ZM43.5808 42.6468C43.6495 42.6468 43.6998 42.6703 43.7227 42.6827C43.748 42.6964 43.7658 42.7109 43.7751 42.719C43.7936 42.7351 43.8053 42.7495 43.8087 42.7537C43.8169 42.7639 43.8208 42.7705 43.8187 42.7672C43.816 42.7629 43.809 42.751 43.7968 42.7285C43.7733 42.6853 43.7397 42.6199 43.698 42.5363C43.6151 42.3701 43.5053 42.1418 43.39 41.897C43.158 41.4044 42.9111 40.8601 42.8186 40.6257L42.2605 40.846C42.3612 41.101 42.6162 41.6622 42.8472 42.1526C42.9634 42.3994 43.0754 42.6322 43.161 42.804C43.2036 42.8894 43.241 42.9624 43.2697 43.0152C43.2836 43.0408 43.298 43.0663 43.3114 43.0875C43.3173 43.0969 43.3279 43.1132 43.3414 43.13C43.3474 43.1375 43.3614 43.1544 43.3818 43.1721C43.3921 43.181 43.4107 43.1961 43.4369 43.2103C43.4605 43.223 43.5114 43.2468 43.5808 43.2468V42.6468ZM42.8186 40.6257C42.8187 40.6259 42.8193 40.6273 42.82 40.6296C42.8208 40.6319 42.8219 40.6356 42.8232 40.6406C42.8255 40.65 42.829 40.6675 42.8291 40.6906C42.8295 40.7461 42.8098 40.8105 42.7623 40.8619C42.724 40.9034 42.6859 40.9159 42.6838 40.9166C42.6793 40.9181 42.686 40.9154 42.7126 40.9117C42.8302 40.8953 43.0772 40.8909 43.5808 40.8909V40.2909C43.0986 40.2909 42.7993 40.2939 42.6299 40.3174C42.5848 40.3237 42.5359 40.333 42.4893 40.349C42.445 40.3642 42.3782 40.3935 42.3216 40.4547C42.1738 40.6147 42.2432 40.8021 42.2605 40.846L42.8186 40.6257ZM43.5808 40.8909C44.0844 40.8909 44.3313 40.8953 44.4489 40.9117C44.4755 40.9154 44.4822 40.9181 44.4777 40.9166C44.4756 40.9159 44.4376 40.9034 44.3992 40.8619C44.3517 40.8105 44.3321 40.7461 44.3324 40.6906C44.3325 40.6675 44.336 40.65 44.3384 40.6406C44.3396 40.6356 44.3408 40.6319 44.3415 40.6296C44.3423 40.6273 44.3428 40.6259 44.3429 40.6257L44.901 40.846C44.9183 40.8021 44.9877 40.6147 44.8399 40.4547C44.7833 40.3935 44.7166 40.3642 44.6723 40.349C44.6256 40.333 44.5768 40.3237 44.5317 40.3174C44.3623 40.2939 44.063 40.2909 43.5808 40.2909V40.8909Z" fill="#40439D" mask="url(#path-1-outside-1_1408_14967)"/>
<mask id="mask0_1408_14967" style="mask-type:alpha" maskUnits="userSpaceOnUse" x="1" y="1" width="46" height="45">
<path fill-rule="evenodd" clip-rule="evenodd" d="M3.02337 1.3314C2.27212 1.55599 1.59361 2.11489 1.21187 2.82373L1 3.21714V23.6306V44.0441L1.21187 44.4375C1.50054 44.9735 1.98983 45.4555 2.52877 45.7346L2.97841 45.9675H19.1204H35.2625L35.7121 45.7346C36.251 45.4555 36.7403 44.9735 37.029 44.4375L37.2409 44.0441V23.6306V3.21714L37.0013 2.78002C36.7143 2.25608 36.2185 1.78041 35.6671 1.49978L35.2625 1.29381L19.2553 1.27895C10.4514 1.27082 3.14702 1.29442 3.02337 1.3314ZM35.1929 3.28472L35.4423 3.52705V23.6306V43.7342L35.1929 43.9766L34.9437 44.219H19.1204H3.2972L3.04792 43.9766L2.79855 43.7342V23.6378C2.79855 3.66457 2.79963 3.54026 2.97841 3.34714C3.07733 3.24022 3.2392 3.12045 3.33812 3.08084C3.43704 3.04124 10.5887 3.01641 19.2308 3.02559L34.9437 3.04229L35.1929 3.28472ZM42.8164 6.05265C41.8361 6.28441 40.9534 6.98284 40.4984 7.88654L40.2085 8.46257L40.1834 15.3229C40.1647 20.4118 40.2017 29.5007 40.2017 29.5007L41.8923 29.2967C41.8923 29.2967 41.9621 22.6721 41.9621 17.1656V12.0907H43.5808H45.1995V25.4665V38.8424H43.5808H41.9621V34.292L41.8923 29.2967L40.2017 29.5007C40.2017 29.5007 40.1635 30.5955 40.1635 34.8191V39.8966L41.5114 42.8009C42.2527 44.3983 42.9306 45.7561 43.0176 45.8182C43.3559 46.0597 43.8057 46.0597 44.1439 45.8182C44.2309 45.7561 44.9093 44.3973 45.6511 42.7988L47 39.8924L46.9765 24.2212L46.9531 8.55L46.7459 8.05151C46.5018 7.46419 45.877 6.75632 45.3252 6.44194C44.6096 6.03429 43.5738 5.8736 42.8164 6.05265ZM44.1874 7.85393C44.9157 8.14977 45.1945 8.64966 45.1975 9.66465L45.1995 10.3422H43.5808H41.9621V9.68371C41.9621 8.68935 42.2251 8.18798 42.9063 7.88392C43.348 7.68669 43.7524 7.67725 44.1874 7.85393ZM17.7814 8.19121C17.3559 8.42044 17.2141 8.92417 17.45 9.36785C17.681 9.802 17.8111 9.81765 21.1975 9.81765C23.8291 9.81765 24.3882 9.79597 24.6078 9.68564C24.9246 9.52635 25.0557 9.30919 25.0557 8.94341C25.0557 8.57762 24.9246 8.36046 24.6078 8.20118C24.2442 8.01837 18.1188 8.00937 17.7814 8.19121ZM27.7345 8.32252C27.4932 8.53216 27.4428 8.63917 27.4428 8.94341C27.4428 9.24764 27.4932 9.35465 27.7345 9.56429L28.0262 9.81765H29.8726C31.8822 9.81765 32.1198 9.77122 32.3223 9.33926C32.5325 8.89069 32.3809 8.40182 31.9671 8.19375C31.7761 8.09775 31.295 8.06917 29.8726 8.06917H28.0262L27.7345 8.32252ZM12.0611 10.0055C11.9622 10.0578 11.143 10.8132 10.2407 11.6842L8.60024 13.2678L7.94755 12.6453C6.96158 11.7049 6.64278 11.6144 6.11689 12.1256C5.54414 12.6824 5.67795 12.9875 7.08658 14.3351C8.12138 15.325 8.389 15.483 8.84421 15.3719C8.99664 15.3347 9.80167 14.6271 10.9686 13.5047C12.9665 11.5827 13.3651 11.1353 13.3651 10.814C13.3651 10.1547 12.635 9.70198 12.0611 10.0055ZM17.7814 13.7863C17.1787 14.111 17.1985 15.0357 17.814 15.3083C18.153 15.4585 31.5986 15.4585 31.9377 15.3083C32.1954 15.1941 32.4297 14.8276 32.4297 14.5385C32.4297 14.2495 32.1954 13.8829 31.9377 13.7688C31.5764 13.6088 18.0799 13.6255 17.7814 13.7863ZM6.27066 20.0809C5.86743 20.2981 5.7034 20.813 5.91077 21.2104C5.96563 21.3154 6.52075 21.9023 7.14449 22.5145L8.27857 23.6277L7.09719 24.7876C6.39359 25.4783 5.89063 26.0447 5.85367 26.1878C5.68092 26.857 6.26931 27.429 6.95771 27.2611C7.10492 27.2252 7.68702 26.7366 8.39655 26.0537L9.5881 24.9066L10.7796 26.0537C11.4892 26.7366 12.0713 27.2252 12.2185 27.2611C12.9069 27.429 13.4953 26.857 13.3225 26.1878C13.2856 26.0447 12.783 25.4788 12.0805 24.789L10.9006 23.6306L12.0805 22.4723C12.783 21.7825 13.2856 21.2166 13.3225 21.0735C13.4953 20.4043 12.9069 19.8322 12.2185 20.0002C12.0713 20.0361 11.4886 20.5251 10.7782 21.2091L9.58513 22.3576L8.43999 21.2551C7.81023 20.6487 7.20654 20.109 7.09854 20.0557C6.84045 19.9284 6.5364 19.9377 6.27066 20.0809ZM17.7814 20.0809C17.3559 20.3101 17.2141 20.8138 17.45 21.2575C17.681 21.6917 17.8111 21.7073 21.1975 21.7073C23.8291 21.7073 24.3882 21.6856 24.6078 21.5753C24.9246 21.416 25.0557 21.1988 25.0557 20.8331C25.0557 20.4673 24.9246 20.2501 24.6078 20.0908C24.2442 19.908 18.1188 19.899 17.7814 20.0809ZM27.7345 20.2122C27.4932 20.4218 27.4428 20.5288 27.4428 20.8331C27.4428 21.1373 27.4932 21.2443 27.7345 21.454L28.0262 21.7073H29.8726C31.8822 21.7073 32.1198 21.6609 32.3223 21.2289C32.5325 20.7803 32.3809 20.2915 31.9671 20.0834C31.7761 19.9874 31.295 19.9588 29.8726 19.9588H28.0262L27.7345 20.2122ZM17.7814 25.676C17.1787 26.0007 17.1985 26.9254 17.814 27.198C18.153 27.3482 31.5986 27.3482 31.9377 27.198C32.1954 27.0838 32.4297 26.7172 32.4297 26.4282C32.4297 26.1392 32.1954 25.7726 31.9377 25.6584C31.5764 25.4984 18.0799 25.5151 17.7814 25.676ZM6.27066 31.9705C5.86743 32.1878 5.7034 32.7026 5.91077 33.1C5.96563 33.205 6.52075 33.7919 7.14449 34.4042L8.27857 35.5174L7.09719 36.6773C6.39359 37.3679 5.89063 37.9343 5.85367 38.0774C5.68092 38.7467 6.26931 39.3187 6.95771 39.1507C7.10492 39.1148 7.68702 38.6263 8.39655 37.9433L9.5881 36.7962L10.7796 37.9433C11.4892 38.6263 12.0713 39.1148 12.2185 39.1507C12.9069 39.3187 13.4953 38.7467 13.3225 38.0774C13.2856 37.9343 12.783 37.3684 12.0805 36.6787L10.9006 35.5203L12.0805 34.3619C12.783 33.6721 13.2856 33.1063 13.3225 32.9631C13.4953 32.2939 12.9069 31.7219 12.2185 31.8898C12.0713 31.9258 11.4886 32.4147 10.7782 33.0987L9.58513 34.2472L8.43999 33.1447C7.81023 32.5383 7.20654 31.9987 7.09854 31.9454C6.84045 31.8181 6.5364 31.8273 6.27066 31.9705ZM17.7814 31.9705C17.3559 32.1998 17.2141 32.7035 17.45 33.1472C17.681 33.5813 17.8111 33.597 21.1975 33.597C23.8291 33.597 24.3882 33.5753 24.6078 33.465C24.9246 33.3057 25.0557 33.0885 25.0557 32.7227C25.0557 32.3569 24.9246 32.1398 24.6078 31.9805C24.2442 31.7977 18.1188 31.7887 17.7814 31.9705ZM27.7345 32.1018C27.4932 32.3115 27.4428 32.4185 27.4428 32.7227C27.4428 33.027 27.4932 33.134 27.7345 33.3436L28.0262 33.597H29.8726C31.8822 33.597 32.1198 33.5505 32.3223 33.1186C32.5325 32.67 32.3809 32.1811 31.9671 31.9731C31.7761 31.8771 31.295 31.8485 29.8726 31.8485H28.0262L27.7345 32.1018ZM17.7814 37.5657C17.1787 37.8904 17.1985 38.815 17.814 39.0876C18.153 39.2378 31.5986 39.2378 31.9377 39.0876C32.1954 38.9735 32.4297 38.6069 32.4297 38.3179C32.4297 38.0288 32.1954 37.6623 31.9377 37.5481C31.5764 37.3881 18.0799 37.4048 17.7814 37.5657ZM44.622 40.7358C44.4288 41.2252 43.6181 42.9468 43.5808 42.9468C43.5434 42.9468 42.7328 41.2252 42.5396 40.7358C42.4882 40.6057 42.595 40.5909 43.5808 40.5909C44.5666 40.5909 44.6733 40.6057 44.622 40.7358Z" fill="#40439D"/>
</mask>
<g mask="url(#mask0_1408_14967)">
<rect x="4.83203" y="30.6641" width="10.2222" height="8.9444" fill="#F4259A"/>
</g>
<mask id="mask1_1408_14967" style="mask-type:alpha" maskUnits="userSpaceOnUse" x="5" y="19" width="28" height="20">
<path fill-rule="evenodd" clip-rule="evenodd" d="M17.7866 19.6944C17.3611 19.9236 17.2193 20.4273 17.4552 20.871C17.6862 21.3051 17.8163 21.3208 21.2027 21.3208C23.8344 21.3208 24.3934 21.2991 24.613 21.1888C24.9299 21.0295 25.0609 20.8123 25.0609 20.4465C25.0609 20.0808 24.9299 19.8636 24.613 19.7043C24.2494 19.5215 18.124 19.5125 17.7866 19.6944ZM27.7397 19.8257C27.4984 20.0353 27.448 20.1423 27.448 20.4465C27.448 20.7508 27.4984 20.8578 27.7397 21.0674L28.0314 21.3208H29.8779C31.8874 21.3208 32.1251 21.2744 32.3275 20.8424C32.5377 20.3938 32.3861 19.905 31.9723 19.6969C31.7814 19.6009 31.3002 19.5723 29.8779 19.5723H28.0314L27.7397 19.8257ZM12.0663 21.5087C11.9674 21.5609 11.1483 22.3164 10.2459 23.1874L8.60546 24.771L7.95277 24.1484C6.9668 23.208 6.64801 23.1175 6.12211 23.6288C5.54936 24.1856 5.68317 24.4906 7.0918 25.8382C8.1266 26.8281 8.39422 26.9861 8.84944 26.875C9.00186 26.8379 9.8069 26.1302 10.9738 25.0078C12.9717 23.0859 13.3703 22.6384 13.3703 22.3172C13.3703 21.6578 12.6403 21.2051 12.0663 21.5087ZM17.7866 25.2895C17.1839 25.6142 17.2037 26.5389 17.8192 26.8114C18.1582 26.9616 31.6038 26.9616 31.9429 26.8114C32.2006 26.6973 32.435 26.3307 32.435 26.0417C32.435 25.7527 32.2006 25.3861 31.9429 25.2719C31.5816 25.1119 18.0851 25.1286 17.7866 25.2895ZM6.27589 31.584C5.87265 31.8013 5.70862 32.3161 5.916 32.7135C5.97085 32.8185 6.52598 33.4054 7.14971 34.0176L8.28379 35.1309L7.10241 36.2907C6.39882 36.9814 5.89585 37.5478 5.85889 37.6909C5.68614 38.3602 6.27454 38.9322 6.96293 38.7642C7.11015 38.7283 7.69225 38.2398 8.40178 37.5568L9.59332 36.4097L10.7849 37.5568C11.4944 38.2398 12.0765 38.7283 12.2237 38.7642C12.9121 38.9322 13.5005 38.3602 13.3277 37.6909C13.2908 37.5478 12.7883 36.9819 12.0858 36.2921L10.9058 35.1338L12.0858 33.9754C12.7883 33.2856 13.2908 32.7197 13.3277 32.5766C13.5005 31.9074 12.9121 31.3354 12.2237 31.5033C12.0765 31.5393 11.4939 32.0282 10.7834 32.7122L9.59035 33.8607L8.44521 32.7582C7.81545 32.1518 7.21176 31.6122 7.10376 31.5588C6.84567 31.4315 6.54162 31.4408 6.27589 31.584ZM17.7866 31.584C17.3611 31.8132 17.2193 32.317 17.4552 32.7606C17.6862 33.1948 17.8163 33.2104 21.2027 33.2104C23.8344 33.2104 24.3934 33.1888 24.613 33.0784C24.9299 32.9191 25.0609 32.702 25.0609 32.3362C25.0609 31.9704 24.9299 31.7533 24.613 31.594C24.2494 31.4112 18.124 31.4022 17.7866 31.584ZM27.7397 31.7153C27.4984 31.925 27.448 32.032 27.448 32.3362C27.448 32.6404 27.4984 32.7474 27.7397 32.9571L28.0314 33.2104H29.8779C31.8874 33.2104 32.1251 33.164 32.3275 32.7321C32.5377 32.2835 32.3861 31.7946 31.9723 31.5865C31.7814 31.4906 31.3002 31.462 29.8779 31.462H28.0314L27.7397 31.7153ZM17.7866 37.1791C17.1839 37.5038 17.2037 38.4285 17.8192 38.7011C18.1582 38.8513 31.6038 38.8513 31.9429 38.7011C32.2006 38.5869 32.435 38.2204 32.435 37.9313C32.435 37.6423 32.2006 37.2757 31.9429 37.1616C31.5816 37.0016 18.0851 37.0183 17.7866 37.1791Z" fill="#3AFFDC"/>
</mask>
<g mask="url(#mask1_1408_14967)">
<rect x="4.83594" y="20.4453" width="10.2222" height="7.66663" fill="#3AFFDC"/>
</g>
<mask id="mask2_1408_14967" style="mask-type:alpha" maskUnits="userSpaceOnUse" x="5" y="7" width="28" height="20">
<path fill-rule="evenodd" clip-rule="evenodd" d="M17.7866 7.79982C17.3611 8.02905 17.2193 8.53278 17.4552 8.97646C17.6862 9.41061 17.8163 9.42626 21.2027 9.42626C23.8344 9.42626 24.3934 9.40457 24.613 9.29425C24.9299 9.13496 25.0609 8.9178 25.0609 8.55202C25.0609 8.18623 24.9299 7.96907 24.613 7.80979C24.2494 7.62698 18.124 7.61798 17.7866 7.79982ZM27.7397 7.93113C27.4984 8.14077 27.448 8.24778 27.448 8.55202C27.448 8.85625 27.4984 8.96326 27.7397 9.1729L28.0314 9.42626H29.8779C31.8874 9.42626 32.1251 9.37983 32.3275 8.94787C32.5377 8.4993 32.3861 8.01042 31.9723 7.80236C31.7814 7.70636 31.3002 7.67778 29.8779 7.67778H28.0314L27.7397 7.93113ZM12.0663 9.61413C11.9674 9.66641 11.1483 10.4218 10.2459 11.2928L8.60546 12.8764L7.95277 12.2539C6.9668 11.3135 6.64801 11.223 6.12211 11.7342C5.54936 12.2911 5.68317 12.5961 7.0918 13.9437C8.1266 14.9336 8.39422 15.0916 8.84944 14.9805C9.00186 14.9433 9.8069 14.2357 10.9738 13.1133C12.9717 11.1913 13.3703 10.7439 13.3703 10.4226C13.3703 9.76327 12.6403 9.31059 12.0663 9.61413ZM17.7866 13.395C17.1839 13.7196 17.2037 14.6443 17.8192 14.9169C18.1582 15.0671 31.6038 15.0671 31.9429 14.9169C32.2006 14.8027 32.435 14.4362 32.435 14.1471C32.435 13.8581 32.2006 13.4916 31.9429 13.3774C31.5816 13.2174 18.0851 13.2341 17.7866 13.395ZM6.27589 19.6895C5.87265 19.9067 5.70862 20.4216 5.916 20.819C5.97085 20.924 6.52598 21.5109 7.14971 22.1231L8.28379 23.2364L7.10241 24.3962C6.39882 25.0869 5.89585 25.6533 5.85889 25.7964C5.68614 26.4656 6.27454 27.0376 6.96293 26.8697C7.11015 26.8338 7.69225 26.3452 8.40178 25.6623L9.59332 24.5152L10.7849 25.6623C11.4944 26.3452 12.0765 26.8338 12.2237 26.8697C12.9121 27.0376 13.5005 26.4656 13.3277 25.7964C13.2908 25.6533 12.7883 25.0874 12.0858 24.3976L10.9058 23.2392L12.0858 22.0809C12.7883 21.3911 13.2908 20.8252 13.3277 20.6821C13.5005 20.0129 12.9121 19.4408 12.2237 19.6088C12.0765 19.6447 11.4939 20.1337 10.7834 20.8177L9.59035 21.9662L8.44521 20.8637C7.81545 20.2573 7.21176 19.7176 7.10376 19.6643C6.84567 19.537 6.54162 19.5463 6.27589 19.6895ZM17.7866 19.6895C17.3611 19.9187 17.2193 20.4224 17.4552 20.8661C17.6862 21.3003 17.8163 21.3159 21.2027 21.3159C23.8344 21.3159 24.3934 21.2942 24.613 21.1839C24.9299 21.0246 25.0609 20.8075 25.0609 20.4417C25.0609 20.0759 24.9299 19.8587 24.613 19.6994C24.2494 19.5166 18.124 19.5076 17.7866 19.6895ZM27.7397 19.8208C27.4984 20.0304 27.448 20.1374 27.448 20.4417C27.448 20.7459 27.4984 20.8529 27.7397 21.0626L28.0314 21.3159H29.8779C31.8874 21.3159 32.1251 21.2695 32.3275 20.8375C32.5377 20.389 32.3861 19.9001 31.9723 19.692C31.7814 19.596 31.3002 19.5674 29.8779 19.5674H28.0314L27.7397 19.8208ZM17.7866 25.2846C17.1839 25.6093 17.2037 26.534 17.8192 26.8066C18.1582 26.9568 31.6038 26.9568 31.9429 26.8066C32.2006 26.6924 32.435 26.3258 32.435 26.0368C32.435 25.7478 32.2006 25.3812 31.9429 25.267C31.5816 25.1071 18.0851 25.1238 17.7866 25.2846Z" fill="#3AFFDC"/>
</mask>
<g mask="url(#mask2_1408_14967)">
<rect x="4.83594" y="8.55078" width="10.2222" height="7.66663" fill="#3AFFDC"/>
</g>
</svg>
