<svg width="19" height="21" viewBox="0 0 19 21" fill="none" xmlns="http://www.w3.org/2000/svg">
<path d="M15.0417 0.5H3.95833C2.9089 0.501444 1.90282 0.980802 1.16076 1.83293C0.418698 2.68505 0.00125705 3.84037 0 5.04545L0 12.3182C0.00125705 13.5233 0.418698 14.6786 1.16076 15.5307C1.90282 16.3828 2.9089 16.8622 3.95833 16.8636H8.70833V18.6818H5.54167C5.3317 18.6818 5.13034 18.7776 4.98187 18.9481C4.83341 19.1186 4.75 19.3498 4.75 19.5909C4.75 19.832 4.83341 20.0632 4.98187 20.2337C5.13034 20.4042 5.3317 20.5 5.54167 20.5H13.4583C13.6683 20.5 13.8697 20.4042 14.0181 20.2337C14.1666 20.0632 14.25 19.832 14.25 19.5909C14.25 19.3498 14.1666 19.1186 14.0181 18.9481C13.8697 18.7776 13.6683 18.6818 13.4583 18.6818H10.2917V16.8636H15.0417C16.0911 16.8622 17.0972 16.3828 17.8392 15.5307C18.5813 14.6786 18.9987 13.5233 19 12.3182V5.04545C18.9987 3.84037 18.5813 2.68505 17.8392 1.83293C17.0972 0.980802 16.0911 0.501444 15.0417 0.5ZM3.95833 2.31818H15.0417C15.6716 2.31818 16.2756 2.60552 16.721 3.11698C17.1664 3.62844 17.4167 4.32214 17.4167 5.04545V11.4091H1.58333V5.04545C1.58333 4.32214 1.83356 3.62844 2.27895 3.11698C2.72435 2.60552 3.32844 2.31818 3.95833 2.31818ZM15.0417 15.0455H3.95833C3.46888 15.0431 2.992 14.8672 2.59295 14.5417C2.19389 14.2163 1.89215 13.7572 1.729 13.2273H17.271C17.1079 13.7572 16.8061 14.2163 16.4071 14.5417C16.008 14.8672 15.5311 15.0431 15.0417 15.0455Z" fill="#262961"/>
</svg>
