<svg width="51" height="49" viewBox="0 0 51 49" fill="none" xmlns="http://www.w3.org/2000/svg">
<path d="M2.12032 17.5959C2.40032 17.1947 4.45236 14.3282 7.44822 13.3409C10.6867 12.2721 11.9237 14.4243 14.5613 14.448C20.6732 14.5049 24.6515 3.0506 31.6419 0.538565C39.585 -2.31611 51.1005 6.4796 50.9993 19.7738C50.9299 29.133 45.1007 40.7672 35.6513 46.1318C25.4816 51.9064 16.3434 47.4502 12.9518 45.7961C10.9853 44.8376 6.0683 42.0844 2.98403 35.9221C2.12563 34.2045 -2.72191 24.5229 2.12032 17.5959Z" fill="white"/>
<path d="M2.12032 17.5959C2.40032 17.1947 4.45236 14.3282 7.44822 13.3409C10.6867 12.2721 11.9237 14.4243 14.5613 14.448C20.6732 14.5049 24.6515 3.0506 31.6419 0.538565C39.585 -2.31611 51.1005 6.4796 50.9993 19.7738C50.9299 29.133 45.1007 40.7672 35.6513 46.1318C25.4816 51.9064 16.3434 47.4502 12.9518 45.7961C10.9853 44.8376 6.0683 42.0844 2.98403 35.9221C2.12563 34.2045 -2.72191 24.5229 2.12032 17.5959Z" fill="#3AFFDC" fill-opacity="0.6"/>
<path fill-rule="evenodd" clip-rule="evenodd" d="M19.7477 5.57883C16.1341 5.90206 12.715 7.2474 9.61479 9.56579C8.68401 10.2619 6.75868 12.187 6.06256 13.1177C4.06112 15.7935 2.83062 18.5813 2.29799 21.6469C1.35609 27.0675 2.65676 32.3325 6.06256 36.8859C6.75868 37.8166 8.68401 39.7418 9.61479 40.4378C14.1687 43.8433 19.4341 45.1439 24.8552 44.202C27.9211 43.6695 30.7091 42.4391 33.3852 40.4378C34.316 39.7418 36.2413 37.8166 36.9374 36.8859C40.3432 32.3325 41.6439 27.0675 40.702 21.6469C40.1694 18.5813 38.9389 15.7935 36.9374 13.1177C36.2413 12.187 34.316 10.2619 33.3852 9.56579C29.3067 6.51577 24.6133 5.14361 19.7477 5.57883ZM20.3572 11.3275V14.6413H17.7317H15.1062L15.4459 13.8307C16.2638 11.8785 17.0818 10.5944 18.2574 9.41694C18.9285 8.74472 19.2147 8.51596 19.6627 8.29328C19.9721 8.13947 20.2549 8.01362 20.2912 8.01362C20.3275 8.01362 20.3572 9.50485 20.3572 11.3275ZM23.4428 8.34356C24.0579 8.66184 25.4434 10.0462 26.0197 10.9185C26.5709 11.7526 27.1206 12.7958 27.5541 13.8307L27.8938 14.6413H25.2683H22.6428V11.3224V8.00334L22.8142 8.05522C22.9086 8.08379 23.1914 8.21352 23.4428 8.34356ZM15.0444 9.70863C14.4038 10.654 13.4584 12.5541 12.9977 13.8219L12.7004 14.6404L10.234 14.6408C7.89677 14.6413 7.77304 14.6343 7.87018 14.508C9.6618 12.1792 12.2185 10.2185 14.9098 9.1094C15.245 8.97128 15.5431 8.85671 15.5723 8.85488C15.6014 8.85313 15.3639 9.23731 15.0444 9.70863ZM28.0126 9.07961C30.6656 10.1333 33.3244 12.1613 35.1298 14.508C35.227 14.6343 35.1032 14.6413 32.766 14.6408L30.2996 14.6404L30.0023 13.8219C29.5416 12.5541 28.5962 10.654 27.9556 9.70863C27.6361 9.23731 27.3892 8.85161 27.4067 8.85161C27.4242 8.85161 27.6969 8.95422 28.0126 9.07961ZM12.0167 17.0981C11.6112 18.8778 11.2161 21.7126 11.2139 22.8579C11.2134 23.0943 11.1918 23.4163 11.1658 23.5734L11.1186 23.8591H7.73822H4.35787V23.5539C4.35787 23.386 4.41051 22.8975 4.47489 22.4683C4.71778 20.8488 5.22267 19.1862 5.92496 17.6932L6.28556 16.9267H9.17062H12.0557L12.0167 17.0981ZM20.3572 20.3929V23.8591H16.8991H13.441L13.4757 23.1925C13.5788 21.2102 13.93 18.7953 14.3455 17.2124L14.4205 16.9267H17.3889H20.3572V20.3929ZM28.6545 17.2124C29.07 18.7953 29.4212 21.2102 29.5243 23.1925L29.559 23.8591H26.1009H22.6428V20.3929V16.9267H25.6111H28.5795L28.6545 17.2124ZM37.0696 17.6817C37.5394 18.6805 37.9121 19.7232 38.1855 20.8044C38.4254 21.7528 38.6421 23.0579 38.6421 23.5539V23.8591H35.2618H31.8814L31.8342 23.5734C31.8082 23.4163 31.7866 23.0943 31.7861 22.8579C31.7839 21.7126 31.3888 18.8778 30.9833 17.0981L30.9443 16.9267H33.8294H36.7144L37.0696 17.6817ZM11.1658 26.4302C11.1918 26.5873 11.2134 26.9093 11.2139 27.1457C11.2161 28.291 11.6112 31.1258 12.0167 32.9055L12.0557 33.0769H9.17062H6.28556L5.93037 32.3219C5.4606 31.3232 5.08789 30.2804 4.81453 29.1993C4.57462 28.2508 4.35787 26.9457 4.35787 26.4498V26.1445H7.73822H11.1186L11.1658 26.4302ZM20.3572 29.6107V33.0769H17.3889H14.4205L14.3455 32.7912C13.93 31.2083 13.5788 28.7934 13.4757 26.8111L13.441 26.1445H16.8991H20.3572V29.6107ZM29.5243 26.8111C29.4212 28.7934 29.07 31.2083 28.6545 32.7912L28.5795 33.0769H25.6111H22.6428V29.6107V26.1445H26.1009H29.559L29.5243 26.8111ZM38.6421 26.4057C38.6421 26.7653 38.508 27.7435 38.3644 28.4299C38.0734 29.822 37.6561 31.0747 37.0638 32.3342L36.7144 33.0769H33.8294H30.9443L30.9833 32.9055C31.3888 31.1258 31.7839 28.291 31.7861 27.1457C31.7866 26.9093 31.8082 26.5873 31.8342 26.4302L31.8814 26.1445H35.2618H38.6421V26.4057ZM12.9977 36.1817C13.4584 37.4495 14.4038 39.3496 15.0444 40.295C15.3639 40.7664 15.6108 41.152 15.5933 41.152C15.4977 41.152 14.3278 40.653 13.7928 40.384C11.5519 39.2574 9.39407 37.4764 7.87018 35.4956C7.77304 35.3693 7.89677 35.3623 10.234 35.3628L12.7004 35.3632L12.9977 36.1817ZM20.3572 38.6813V42.0003L20.1858 41.9484C19.6206 41.7774 19.0494 41.373 18.2574 40.5831C17.083 39.4119 16.266 38.1302 15.4459 36.1729L15.1062 35.3623H17.7317H20.3572V38.6813ZM27.6956 35.8384C26.7768 38.0996 25.5947 39.9301 24.3756 40.9795C23.8578 41.4252 23.2055 41.83 22.8142 41.9484L22.6428 42.0003V38.6813V35.3623H25.2659H27.8891L27.6956 35.8384ZM34.8568 35.8321C33.5678 37.4825 31.4949 39.1712 29.4087 40.2707C28.7632 40.6109 27.534 41.152 27.4067 41.152C27.3892 41.152 27.6335 40.7692 27.9498 40.3014C28.5989 39.3408 29.5623 37.4055 30.0007 36.1813L30.2939 35.3623H32.7589H35.2238L34.8568 35.8321Z" fill="#262961"/>
</svg>
