<svg width="58" height="49" viewBox="0 0 58 49" fill="none" xmlns="http://www.w3.org/2000/svg">
<path d="M36.5994 2.03717C37.067 2.30619 40.4077 4.27776 41.5583 7.15614C42.804 10.2676 40.2957 11.4561 40.2682 13.9902C40.2018 19.8625 53.5511 23.6847 56.4787 30.4011C59.8056 38.0326 49.5548 49.0966 34.0613 48.9994C23.1537 48.9326 9.59477 43.332 3.34264 34.2532C-3.3872 24.4823 1.80617 15.7025 3.73396 12.4439C4.85095 10.5545 8.05974 5.83033 15.2414 2.86701C17.2432 2.04227 28.5265 -2.61517 36.5994 2.03717Z" fill="white"/>
<path d="M36.5994 2.03717C37.067 2.30619 40.4077 4.27776 41.5583 7.15614C42.804 10.2676 40.2957 11.4561 40.2682 13.9902C40.2018 19.8625 53.5511 23.6847 56.4787 30.4011C59.8056 38.0326 49.5548 49.0966 34.0613 48.9994C23.1537 48.9326 9.59477 43.332 3.34264 34.2532C-3.3872 24.4823 1.80617 15.7025 3.73396 12.4439C4.85095 10.5545 8.05974 5.83033 15.2414 2.86701C17.2432 2.04227 28.5265 -2.61517 36.5994 2.03717Z" fill="#3AFFDC" fill-opacity="0.6"/>
<path d="M26.0887 21.1565L26.1594 21.2272L26.0887 21.1565C25.5662 21.6791 25.5663 22.5263 26.0889 23.0487L28.1529 25.1122L31.0926 28.0509L31.1633 28.1216L31.234 28.0509L37.2171 22.0673L42.3041 16.98C42.8379 16.4461 42.8372 15.5803 42.3025 15.0473C41.7674 14.5138 40.9014 14.5145 40.3671 15.0488L36.1571 19.2588L31.1215 24.2944L29.1488 22.3231L27.9813 21.1562C27.4585 20.6338 26.6113 20.6339 26.0887 21.1565ZM23.9377 39.0043C23.822 39.1622 23.7248 39.2922 23.6545 39.3825C23.6303 39.2764 23.5986 39.127 23.5616 38.9447C23.4867 38.5761 23.3905 38.0751 23.2909 37.5309C23.1493 36.7573 23.0514 36.2593 22.9762 35.9543C22.9388 35.8026 22.9058 35.6933 22.874 35.6203C22.8583 35.5842 22.8402 35.5507 22.8176 35.5246C22.795 35.4985 22.7574 35.4685 22.7045 35.4685C22.6886 35.4685 22.6603 35.4725 22.6334 35.4764C22.602 35.481 22.5598 35.4877 22.5083 35.4961C22.4054 35.513 22.2641 35.5371 22.0966 35.5663C21.7615 35.6248 21.3207 35.7037 20.8703 35.7856C20.0288 35.9385 19.1492 36.1027 18.8652 36.1631C18.8824 36.1361 18.9029 36.1043 18.9265 36.068C19.0021 35.9519 19.1083 35.792 19.235 35.6028C19.4885 35.2246 19.8234 34.7309 20.1585 34.2405C20.4936 33.7501 20.8287 33.2634 21.0826 32.8992C21.2096 32.7171 21.316 32.5659 21.3919 32.4603C21.4157 32.4272 21.4364 32.3988 21.4536 32.3754C21.4973 32.4138 21.5578 32.4686 21.6312 32.5363C21.7836 32.6767 21.9897 32.871 22.2128 33.0852C23.1692 34.0032 24.4676 34.9923 25.4531 35.5528C25.6421 35.6603 25.8107 35.7651 25.9299 35.8469C25.9856 35.8851 26.0287 35.9171 26.0577 35.9413C26.0559 35.9444 26.054 35.9477 26.0519 35.9512C26.0317 35.9858 26.003 36.0322 25.9668 36.089C25.8944 36.2025 25.7936 36.3546 25.6737 36.5323C25.434 36.8875 25.1191 37.343 24.8044 37.7911C24.4897 38.2392 24.1757 38.6794 23.9377 39.0043ZM49.5448 36.1602C49.271 36.1007 48.4048 35.9385 47.5707 35.7868C47.1196 35.7048 46.6763 35.6256 46.3379 35.5668C46.1688 35.5375 46.0256 35.5132 45.9208 35.4962C45.8684 35.4878 45.8251 35.481 45.7928 35.4764C45.7645 35.4724 45.7358 35.4685 45.7193 35.4685C45.6283 35.4685 45.5767 35.5417 45.546 35.6036C45.5121 35.6719 45.4792 35.7751 45.4423 35.9212C45.368 36.2158 45.2709 36.7144 45.1214 37.5309C45.0219 38.0751 44.9256 38.5761 44.8507 38.9447C44.8137 39.127 44.7821 39.2764 44.7579 39.3825C44.6875 39.2922 44.5903 39.1622 44.4747 39.0043C44.2367 38.6794 43.9226 38.2392 43.6079 37.7911C43.2932 37.343 42.9783 36.8875 42.7386 36.5323C42.6187 36.3546 42.518 36.2025 42.4456 36.089C42.4093 36.0322 42.3807 35.9858 42.3604 35.9512C42.3585 35.9478 42.3566 35.9446 42.3549 35.9416C42.3849 35.9166 42.4299 35.8834 42.4882 35.8436C42.6111 35.7597 42.7848 35.652 42.9794 35.5412C44.0005 34.9602 45.2102 34.0371 46.1704 33.1069C46.3959 32.8884 46.6054 32.6899 46.7612 32.546C46.8391 32.474 46.9031 32.4162 46.9487 32.3767C46.9489 32.3764 46.9492 32.3762 46.9495 32.376C46.965 32.3965 46.9835 32.4213 47.0047 32.4502C47.0767 32.5481 47.1784 32.6902 47.3026 32.8663C47.5509 33.2183 47.8879 33.7043 48.2535 34.2392C48.6192 34.7741 48.9549 35.2703 49.2011 35.6387C49.3243 35.823 49.4249 35.975 49.4956 36.0839C49.5086 36.104 49.5206 36.1225 49.5315 36.1395C49.5361 36.1467 49.5406 36.1536 49.5448 36.1602ZM32.4126 3.45725C25.624 4.1732 19.8355 8.88658 17.7402 15.4038C16.7301 18.5455 16.6645 22.0166 17.552 25.3065C17.9146 26.6509 18.7255 28.5198 19.4155 29.5994C19.4912 29.718 19.5594 29.8366 19.6081 29.9316C19.6325 29.9793 19.6513 30.0196 19.6637 30.0503C19.6674 30.0597 19.6704 30.0676 19.6726 30.0742C19.662 30.0926 19.646 30.1191 19.6242 30.1538C19.5801 30.2243 19.5149 30.3254 19.4304 30.4542C19.2617 30.7115 19.0176 31.0774 18.7163 31.5248C18.1138 32.4197 17.283 33.6401 16.3694 34.9699C15.9697 35.5518 15.5864 36.1112 15.2316 36.6302C14.3662 37.8958 15.4502 39.567 16.9584 39.2859C17.9991 39.092 18.9514 38.923 19.6473 38.807C19.9954 38.749 20.2786 38.7044 20.4765 38.6765C20.5757 38.6625 20.6523 38.6529 20.7044 38.6479C20.706 38.6478 20.7076 38.6476 20.7092 38.6475C20.7101 38.6512 20.7111 38.6551 20.7121 38.6592C20.7247 38.7118 20.7416 38.7881 20.7625 38.8859C20.8041 39.0814 20.8606 39.3603 20.9281 39.7023C21.0629 40.3862 21.241 41.3208 21.4298 42.3409C21.5426 42.9503 21.6944 43.4325 21.8844 43.7801C22.0739 44.1268 22.309 44.3527 22.5935 44.4215C22.879 44.4906 23.1846 44.3943 23.4981 44.1641C23.8118 43.9339 24.1456 43.5614 24.4967 43.0505C24.7975 42.6127 25.1396 42.1138 25.5284 41.5453C26.3832 40.2956 27.1618 39.1578 27.7275 38.3314L28.3995 37.3502L28.5837 37.0816L28.6126 37.0396C28.6131 37.0397 28.6137 37.0398 28.6142 37.04C28.6567 37.0504 28.7182 37.0667 28.7945 37.0876C28.9469 37.1295 29.1558 37.1895 29.3843 37.2574C31.0996 37.7674 31.9479 37.8755 34.2062 37.8755C35.9664 37.8755 36.3917 37.8501 37.2296 37.69C38.0218 37.5387 39.2034 37.2377 39.7018 37.0607C39.7047 37.0634 39.7078 37.0664 39.7112 37.0697C39.7437 37.1015 39.7908 37.1547 39.8545 37.2333C39.9813 37.3896 40.1662 37.6364 40.4195 37.9883C40.9258 38.6915 41.7008 39.8081 42.8208 41.4441C43.1879 41.9804 43.5493 42.5051 43.8902 42.9978C44.4621 43.8244 45.1347 44.1975 45.7357 44.0703C46.337 43.943 46.7984 43.3294 46.9813 42.3409C47.17 41.3208 47.3484 40.386 47.4837 39.7017C47.5513 39.3595 47.6082 39.0804 47.6501 38.8847C47.6711 38.7867 47.6882 38.7103 47.701 38.6577C47.7021 38.6531 47.7032 38.6488 47.7042 38.6447C47.7062 38.6449 47.7082 38.6451 47.7103 38.6453C47.7625 38.6501 47.8392 38.6596 47.9385 38.6734C48.1367 38.7011 48.4202 38.7455 48.7684 38.8034C49.4647 38.9191 50.4171 39.088 51.4575 39.2822C52.9627 39.563 54.0457 37.8941 53.1817 36.6311C52.8266 36.1119 52.443 35.5522 52.0429 34.9699C51.1294 33.6401 50.2986 32.4197 49.696 31.5248C49.3947 31.0774 49.1507 30.7115 48.9819 30.4542C48.8975 30.3254 48.8322 30.2243 48.7881 30.1538C48.7664 30.1191 48.7503 30.0926 48.7397 30.0742C48.742 30.0676 48.7449 30.0597 48.7487 30.0503C48.761 30.0196 48.7798 29.9793 48.8042 29.9316C48.8529 29.8366 48.9211 29.718 48.9969 29.5994C49.7689 28.3913 50.5236 26.5883 50.9375 24.9667C52.9218 17.1933 49.3737 9.17835 42.2585 5.35853C39.4208 3.83513 35.6786 3.11273 32.4126 3.45725ZM36.71 6.31092C43.8203 7.53098 49.0334 13.9495 48.7539 21.139C48.6082 24.8881 47.2316 28.1186 44.648 30.7756C41.8071 33.6974 38.2237 35.2149 34.1645 35.2152C30.2993 35.2155 26.7426 33.7396 23.952 30.9761C20.0197 27.0819 18.6393 21.3291 20.3744 16.0661C20.724 15.0059 21.6786 13.1254 22.3179 12.2373C24.7922 8.80076 28.5032 6.63743 32.7583 6.1522C33.712 6.04346 35.5871 6.11828 36.71 6.31092Z" fill="#262961" stroke="#262961" stroke-width="0.2"/>
</svg>
