<svg width="53" height="50" viewBox="0 0 53 50" fill="none" xmlns="http://www.w3.org/2000/svg">
<path d="M50.0492 10.4511C50.3371 10.8933 52.3652 14.0909 51.7987 16.8962C51.188 19.9295 48.1302 19.5963 46.6465 21.5459C43.206 26.0622 53.6431 35.6973 52.5511 42.3645C51.3106 49.9403 35.2439 53.3874 20.6346 45.5662C10.3486 40.0614 0.735962 28.9437 0.0401189 18.7842C-0.709779 7.84966 9.25597 3.64387 12.955 2.08304C15.0991 1.17763 20.8536 -0.878236 29.3558 0.416315C31.7249 0.778114 45.0839 2.81071 50.0492 10.4511Z" fill="white"/>
<path d="M50.0492 10.4511C50.3371 10.8933 52.3652 14.0909 51.7987 16.8962C51.188 19.9295 48.1302 19.5963 46.6465 21.5459C43.206 26.0622 53.6431 35.6973 52.5511 42.3645C51.3106 49.9403 35.2439 53.3874 20.6346 45.5662C10.3486 40.0614 0.735962 28.9437 0.0401189 18.7842C-0.709779 7.84966 9.25597 3.64387 12.955 2.08304C15.0991 1.17763 20.8536 -0.878236 29.3558 0.416315C31.7249 0.778114 45.0839 2.81071 50.0492 10.4511Z" fill="#3AFFDC" fill-opacity="0.6"/>
<path fill-rule="evenodd" clip-rule="evenodd" d="M25.8372 2.19445C25.4268 2.38548 25.2093 2.64607 22.2369 6.50879C20.497 8.76982 18.9754 10.7678 18.8558 10.9486C18.3953 11.6442 18.6724 12.7263 19.4185 13.1455C19.7384 13.3252 19.865 13.338 21.319 13.338H22.8769V17.8957V22.4533L19.6733 22.4308L16.4697 22.4083L16.4267 20.9038C16.3891 19.588 16.3615 19.3615 16.2068 19.0984C15.848 18.4877 14.8925 18.2211 14.251 18.5527C13.8668 18.7513 5.64425 25.2426 5.38151 25.5547C4.95081 26.0664 4.87908 26.8127 5.1954 27.4918C5.38942 27.9084 5.63814 28.1152 9.68586 31.2269C12.2379 33.1887 14.1099 34.5688 14.3145 34.6393C14.9547 34.8598 15.8017 34.5201 16.1481 33.904C16.3278 33.5843 16.3407 33.4577 16.3407 32.0042V30.4469H19.6069H22.8731L22.8965 37.7914C22.9196 45.0568 22.9217 45.1384 23.0972 45.3732C23.1947 45.5038 23.3813 45.6904 23.5119 45.7879C23.7398 45.9581 23.8726 45.9661 26.8485 45.9897C29.8461 46.0136 29.96 46.0085 30.3203 45.8341C30.5927 45.7023 30.7403 45.5556 30.8699 45.288C31.0454 44.9256 31.0471 44.8349 31.0471 35.836V26.75H34.3152H37.5833V28.2418C37.5833 29.6512 37.5941 29.7497 37.7789 30.0237C38.0438 30.4168 38.4641 30.6845 38.9245 30.7534C39.2329 30.7997 39.3858 30.771 39.7137 30.6053C39.9374 30.4923 41.9974 28.9205 44.2915 27.1123C47.2693 24.7653 48.53 23.7204 48.698 23.4604C49.1422 22.773 49.0919 21.8734 48.5768 21.2868C48.313 20.9865 40.5673 14.9891 39.9914 14.6392C39.4518 14.3114 38.6379 14.4137 38.1564 14.8696C37.7349 15.2687 37.7145 15.3614 37.6693 17.0779L37.6263 18.7114L34.3367 18.7339L31.0471 18.7565V16.0902V13.424H32.4317C33.9936 13.424 34.2465 13.3574 34.6392 12.8427C34.9402 12.4482 35.0068 11.6303 34.7719 11.2135C34.531 10.7861 28.1283 2.69972 27.8088 2.41927C27.2805 1.95552 26.5335 1.87032 25.8372 2.19445ZM28.985 7.96493L31.2216 10.8018L30.269 10.8535C29.2226 10.9102 29.0277 10.9925 28.6605 11.5317L28.467 11.816V16.0817C28.467 20.9266 28.4445 20.7618 29.16 21.1401L29.5338 21.3377L34.4553 21.3142C39.3057 21.291 39.3804 21.2881 39.6196 21.1097C40.1035 20.749 40.2023 20.4507 40.2494 19.2084L40.2924 18.0719L43.0875 20.2216C44.6248 21.404 45.894 22.4044 45.908 22.4447C45.929 22.5051 40.3123 27.0079 40.2158 27.0079C40.1988 27.0079 40.1679 26.5625 40.1471 26.018C40.1053 24.9271 40.0298 24.7409 39.4762 24.3642L39.1919 24.1708H34.2722H29.3525L29.0603 24.3659C28.4263 24.7893 28.4673 24.1026 28.4672 34.2942L28.467 43.4289H26.9634H25.4598L25.4368 35.986L25.4139 28.5431L25.0518 28.2053L24.6895 27.8676H19.6868C14.8935 27.8676 14.6726 27.8746 14.4157 28.0337C13.9146 28.3438 13.811 28.6425 13.7618 29.9184L13.7176 31.0663L10.8607 28.8753L8.00382 26.6843L10.9037 24.3986L13.8036 22.1129L13.8535 23.0875C13.9103 24.1939 14.0397 24.5201 14.5376 24.8126C14.8279 24.983 14.9624 24.9875 19.6948 24.9875C24.4014 24.9875 24.5629 24.9821 24.8394 24.8156C24.9964 24.721 25.1995 24.523 25.2909 24.3755C25.4509 24.1171 25.4569 23.8836 25.4569 17.8978C25.4569 10.9666 25.4936 11.387 24.8549 10.9894C24.5968 10.8286 24.3901 10.7958 23.4047 10.7589L22.2556 10.7158L24.4243 7.89607C25.6171 6.3451 26.6279 5.0879 26.6707 5.10208C26.7134 5.11636 27.7548 6.40459 28.985 7.96493Z" fill="#262961"/>
</svg>
