<svg width="56" height="57" viewBox="0 0 56 57" fill="none" xmlns="http://www.w3.org/2000/svg">
<path d="M4.38548 15.0541C4.77387 14.63 7.60302 11.6098 10.99 10.982C14.6517 10.3014 15.4551 13.0694 18.2295 13.5724C24.6579 14.7408 31.5137 1.91176 39.4653 0.200328C48.5005 -1.74471 58.5926 10.7313 55.3953 26.4345C53.1463 37.49 44.2979 50.1984 33.0915 54.8403C21.0307 59.8372 12.4355 52.9213 9.24545 50.3542C7.39562 48.8665 2.85343 44.7248 1.03535 36.8819C0.529946 34.696 -2.32835 22.3734 4.38548 15.0541Z" fill="white"/>
<path d="M4.38548 15.0541C4.77387 14.63 7.60302 11.6098 10.99 10.982C14.6517 10.3014 15.4551 13.0694 18.2295 13.5724C24.6579 14.7408 31.5137 1.91176 39.4653 0.200328C48.5005 -1.74471 58.5926 10.7313 55.3953 26.4345C53.1463 37.49 44.2979 50.1984 33.0915 54.8403C21.0307 59.8372 12.4355 52.9213 9.24545 50.3542C7.39562 48.8665 2.85343 44.7248 1.03535 36.8819C0.529946 34.696 -2.32835 22.3734 4.38548 15.0541Z" fill="#3AFFDC" fill-opacity="0.6"/>
<mask id="path-2-outside-1_779_6435" maskUnits="userSpaceOnUse" x="7" y="8" width="38" height="45" fill="black">
<rect fill="white" x="7" y="8" width="38" height="45"/>
<path fill-rule="evenodd" clip-rule="evenodd" d="M18.8042 9.1178C17.5751 9.3912 16.4404 10.1795 15.8644 11.1602C15.7479 11.3586 15.6289 11.5098 15.6 11.4963C15.571 11.4827 15.2656 11.3294 14.9211 11.1555C12.3146 9.83962 9.2017 10.9657 8.22165 13.579L8.03517 14.0763L8.00745 21.5122C7.97146 31.1573 8.04252 32.3932 8.74967 34.4252C9.13865 35.5431 9.59878 36.3459 10.6814 37.796C11.2223 38.5204 11.7929 39.3593 11.9495 39.66C12.4777 40.6745 12.5094 40.9046 12.5796 44.2399C12.6365 46.9421 12.6624 47.3363 12.8224 47.9368C13.3212 49.8099 14.4828 51.0272 16.2572 51.5363C17.6729 51.9425 17.7998 51.9497 24.1905 51.9886C31.472 52.0328 32.4961 51.9715 34.0689 51.397C35.5844 50.8436 36.519 49.862 37.0035 48.3149C37.298 47.3745 37.384 46.4059 37.3875 43.9878C37.3926 40.4353 37.5186 40.0397 39.4003 37.669C41.4501 35.0864 42.4509 33.0153 43.2693 29.6621C44.0676 26.3907 44.2156 23.8413 43.6945 22.3338C43.17 20.8164 42.0101 19.7868 40.1249 19.1655L39.5665 18.9814L39.5382 16.3187C39.5061 13.3022 39.4884 13.2073 38.7785 12.2552C37.8609 11.0243 36.5355 10.3946 34.8795 10.4026C33.8995 10.4073 32.962 10.6823 32.2748 11.1666L31.8097 11.4943L31.6205 11.1556C31.3014 10.5844 30.529 9.87978 29.8572 9.54714C27.9534 8.60451 25.7622 8.89724 24.2889 10.2912L23.7312 10.8188L23.2617 10.343C22.1875 9.25416 20.4 8.76289 18.8042 9.1178ZM21.3733 10.9095C22.0082 11.224 22.6054 11.8351 22.8077 12.3772C22.9873 12.8588 23.5434 22.0941 23.4249 22.6273C23.2542 23.3949 22.645 24.0902 21.8221 24.4564C20.2546 25.1541 18.3074 24.5408 17.6233 23.1339C17.4001 22.6748 17.3951 22.6256 17.1176 18.1212C16.9635 15.6193 16.849 13.3442 16.8632 13.0657C16.9052 12.2436 17.382 11.4969 18.16 11.0347C18.7585 10.6791 19.1546 10.5895 20.0217 10.6138C20.7307 10.6337 20.8842 10.6672 21.3733 10.9095ZM28.9922 10.8703C29.6147 11.1582 30.1613 11.6778 30.4209 12.2278C30.6162 12.6421 30.619 12.6849 30.6198 15.281L30.6206 17.9141L30.3075 17.8655C28.5929 17.5998 27.9525 17.5601 27.3665 17.683C26.6091 17.8419 26.0417 18.153 25.3838 18.7701L24.8586 19.2628V19.0108C24.8586 18.8721 24.7808 17.5161 24.6857 15.9974C24.5907 14.4787 24.5336 13.0756 24.5588 12.8795C24.6536 12.1435 25.2444 11.3333 25.96 10.9582C26.518 10.6656 26.8954 10.5911 27.6978 10.615C28.3558 10.6345 28.5767 10.6781 28.9922 10.8703ZM35.8299 12.0607C36.743 12.3 37.4649 12.8866 37.8321 13.688C37.9975 14.0486 38.0122 14.2403 38.0386 16.3755C38.0542 17.6401 38.0357 18.7033 37.9973 18.7382C37.9485 18.7827 32.4645 18.1514 32.2282 18.0741C32.2167 18.0704 32.2073 17.0078 32.2073 15.7129V13.3583L32.5574 12.9762C33.3777 12.0809 34.6009 11.7387 35.8299 12.0607ZM13.6661 12.3189C14.1989 12.4781 14.6105 12.7324 15.0003 13.1431L15.2883 13.4465L15.5246 17.2903C15.6546 19.4044 15.7418 21.2954 15.7183 21.4926C15.6625 21.9603 15.4874 22.2894 15.0361 22.7748C13.7514 24.1567 11.0593 23.9384 10.0722 22.3723C9.93624 22.1566 9.78175 21.8465 9.72897 21.6832C9.59193 21.2594 9.53072 14.9553 9.65765 14.34C9.8397 13.4577 10.5418 12.7031 11.4973 12.3627C12.0741 12.1572 13.0583 12.1373 13.6661 12.3189ZM33.5774 19.8278C36.5671 20.1953 39.2011 20.5403 39.4307 20.5943C40.0748 20.746 40.9759 21.1983 41.411 21.5883C41.8952 22.0223 42.2708 22.7711 42.4043 23.5683C42.7516 25.6426 41.6731 30.6933 40.2865 33.4852C39.7213 34.6232 39.2792 35.2973 38.2198 36.636C37.1334 38.0087 36.7257 38.6339 36.3965 39.4322C36.1605 40.0042 35.8816 41.1273 35.8816 41.5057V41.6772H24.9889H14.0963L14.0426 41.2781C13.9627 40.6839 13.7 39.7373 13.4695 39.2127C13.2277 38.6627 12.8215 38.049 11.7768 36.6554C10.949 35.5511 10.3514 34.4533 10.0834 33.5447C9.68989 32.2103 9.64496 31.7101 9.60246 28.1918C9.58016 26.3434 9.57456 24.6855 9.5901 24.5075L9.61832 24.184L9.83878 24.3593C10.7832 25.11 12.4301 25.4591 13.7213 25.182C14.5216 25.0103 15.111 24.7443 15.7224 24.2788L16.2313 23.8912L16.4578 24.2515C16.7913 24.7819 17.5994 25.4967 18.1969 25.7896C19.0446 26.2053 19.6741 26.3291 20.6832 26.2788C22.0868 26.2087 23.0747 25.7602 23.971 24.7861L24.4243 24.2934L24.531 24.5525C24.7143 24.9979 25.2409 25.5916 25.7646 25.9435C26.2955 26.3002 27.4415 26.758 28.178 26.9077C28.4191 26.9567 28.6164 27.0223 28.6164 27.0534C28.6164 27.0846 28.4998 27.2212 28.3571 27.3569C27.4552 28.2154 26.6961 29.9395 26.3565 31.9009C26.1451 33.1214 26.0361 35.7496 26.1852 36.0299C26.3268 36.2963 26.7424 36.4894 27.0349 36.4248C27.4852 36.3253 27.5925 36.0712 27.647 34.9757C27.7226 33.4552 27.8545 32.1543 27.9948 31.5456C28.3944 29.8119 29.1156 28.5819 30.2094 27.7689L30.5916 27.4848L32.7982 27.8581C34.0118 28.0634 35.1248 28.2319 35.2715 28.2326C35.6912 28.2345 36.0031 27.9127 36.0031 27.4777C36.0031 26.8723 35.8468 26.7983 33.698 26.3857C28.3973 25.3681 27.8229 25.2415 27.2067 24.9558C26.0517 24.4201 25.5672 23.5998 25.5699 22.1843C25.5712 21.4903 25.6016 21.3208 25.8029 20.8855C26.1039 20.2345 26.3691 19.8921 26.8026 19.5945C27.2163 19.3105 27.5621 19.1754 27.8988 19.1662C28.0324 19.1626 30.5877 19.4603 33.5774 19.8278ZM35.7981 44.9467C35.7981 46.8094 35.6842 47.6542 35.3367 48.3688C34.7841 49.5052 33.7109 50.0903 31.748 50.325C30.7418 50.4454 19.1384 50.4473 18.1757 50.3272C16.2725 50.0899 15.2433 49.5514 14.6877 48.5025C14.2632 47.7012 14.1666 47.131 14.1114 45.1011L14.0617 43.2736H24.9299H35.7981V44.9467Z"/>
</mask>
<path fill-rule="evenodd" clip-rule="evenodd" d="M18.8042 9.1178C17.5751 9.3912 16.4404 10.1795 15.8644 11.1602C15.7479 11.3586 15.6289 11.5098 15.6 11.4963C15.571 11.4827 15.2656 11.3294 14.9211 11.1555C12.3146 9.83962 9.2017 10.9657 8.22165 13.579L8.03517 14.0763L8.00745 21.5122C7.97146 31.1573 8.04252 32.3932 8.74967 34.4252C9.13865 35.5431 9.59878 36.3459 10.6814 37.796C11.2223 38.5204 11.7929 39.3593 11.9495 39.66C12.4777 40.6745 12.5094 40.9046 12.5796 44.2399C12.6365 46.9421 12.6624 47.3363 12.8224 47.9368C13.3212 49.8099 14.4828 51.0272 16.2572 51.5363C17.6729 51.9425 17.7998 51.9497 24.1905 51.9886C31.472 52.0328 32.4961 51.9715 34.0689 51.397C35.5844 50.8436 36.519 49.862 37.0035 48.3149C37.298 47.3745 37.384 46.4059 37.3875 43.9878C37.3926 40.4353 37.5186 40.0397 39.4003 37.669C41.4501 35.0864 42.4509 33.0153 43.2693 29.6621C44.0676 26.3907 44.2156 23.8413 43.6945 22.3338C43.17 20.8164 42.0101 19.7868 40.1249 19.1655L39.5665 18.9814L39.5382 16.3187C39.5061 13.3022 39.4884 13.2073 38.7785 12.2552C37.8609 11.0243 36.5355 10.3946 34.8795 10.4026C33.8995 10.4073 32.962 10.6823 32.2748 11.1666L31.8097 11.4943L31.6205 11.1556C31.3014 10.5844 30.529 9.87978 29.8572 9.54714C27.9534 8.60451 25.7622 8.89724 24.2889 10.2912L23.7312 10.8188L23.2617 10.343C22.1875 9.25416 20.4 8.76289 18.8042 9.1178ZM21.3733 10.9095C22.0082 11.224 22.6054 11.8351 22.8077 12.3772C22.9873 12.8588 23.5434 22.0941 23.4249 22.6273C23.2542 23.3949 22.645 24.0902 21.8221 24.4564C20.2546 25.1541 18.3074 24.5408 17.6233 23.1339C17.4001 22.6748 17.3951 22.6256 17.1176 18.1212C16.9635 15.6193 16.849 13.3442 16.8632 13.0657C16.9052 12.2436 17.382 11.4969 18.16 11.0347C18.7585 10.6791 19.1546 10.5895 20.0217 10.6138C20.7307 10.6337 20.8842 10.6672 21.3733 10.9095ZM28.9922 10.8703C29.6147 11.1582 30.1613 11.6778 30.4209 12.2278C30.6162 12.6421 30.619 12.6849 30.6198 15.281L30.6206 17.9141L30.3075 17.8655C28.5929 17.5998 27.9525 17.5601 27.3665 17.683C26.6091 17.8419 26.0417 18.153 25.3838 18.7701L24.8586 19.2628V19.0108C24.8586 18.8721 24.7808 17.5161 24.6857 15.9974C24.5907 14.4787 24.5336 13.0756 24.5588 12.8795C24.6536 12.1435 25.2444 11.3333 25.96 10.9582C26.518 10.6656 26.8954 10.5911 27.6978 10.615C28.3558 10.6345 28.5767 10.6781 28.9922 10.8703ZM35.8299 12.0607C36.743 12.3 37.4649 12.8866 37.8321 13.688C37.9975 14.0486 38.0122 14.2403 38.0386 16.3755C38.0542 17.6401 38.0357 18.7033 37.9973 18.7382C37.9485 18.7827 32.4645 18.1514 32.2282 18.0741C32.2167 18.0704 32.2073 17.0078 32.2073 15.7129V13.3583L32.5574 12.9762C33.3777 12.0809 34.6009 11.7387 35.8299 12.0607ZM13.6661 12.3189C14.1989 12.4781 14.6105 12.7324 15.0003 13.1431L15.2883 13.4465L15.5246 17.2903C15.6546 19.4044 15.7418 21.2954 15.7183 21.4926C15.6625 21.9603 15.4874 22.2894 15.0361 22.7748C13.7514 24.1567 11.0593 23.9384 10.0722 22.3723C9.93624 22.1566 9.78175 21.8465 9.72897 21.6832C9.59193 21.2594 9.53072 14.9553 9.65765 14.34C9.8397 13.4577 10.5418 12.7031 11.4973 12.3627C12.0741 12.1572 13.0583 12.1373 13.6661 12.3189ZM33.5774 19.8278C36.5671 20.1953 39.2011 20.5403 39.4307 20.5943C40.0748 20.746 40.9759 21.1983 41.411 21.5883C41.8952 22.0223 42.2708 22.7711 42.4043 23.5683C42.7516 25.6426 41.6731 30.6933 40.2865 33.4852C39.7213 34.6232 39.2792 35.2973 38.2198 36.636C37.1334 38.0087 36.7257 38.6339 36.3965 39.4322C36.1605 40.0042 35.8816 41.1273 35.8816 41.5057V41.6772H24.9889H14.0963L14.0426 41.2781C13.9627 40.6839 13.7 39.7373 13.4695 39.2127C13.2277 38.6627 12.8215 38.049 11.7768 36.6554C10.949 35.5511 10.3514 34.4533 10.0834 33.5447C9.68989 32.2103 9.64496 31.7101 9.60246 28.1918C9.58016 26.3434 9.57456 24.6855 9.5901 24.5075L9.61832 24.184L9.83878 24.3593C10.7832 25.11 12.4301 25.4591 13.7213 25.182C14.5216 25.0103 15.111 24.7443 15.7224 24.2788L16.2313 23.8912L16.4578 24.2515C16.7913 24.7819 17.5994 25.4967 18.1969 25.7896C19.0446 26.2053 19.6741 26.3291 20.6832 26.2788C22.0868 26.2087 23.0747 25.7602 23.971 24.7861L24.4243 24.2934L24.531 24.5525C24.7143 24.9979 25.2409 25.5916 25.7646 25.9435C26.2955 26.3002 27.4415 26.758 28.178 26.9077C28.4191 26.9567 28.6164 27.0223 28.6164 27.0534C28.6164 27.0846 28.4998 27.2212 28.3571 27.3569C27.4552 28.2154 26.6961 29.9395 26.3565 31.9009C26.1451 33.1214 26.0361 35.7496 26.1852 36.0299C26.3268 36.2963 26.7424 36.4894 27.0349 36.4248C27.4852 36.3253 27.5925 36.0712 27.647 34.9757C27.7226 33.4552 27.8545 32.1543 27.9948 31.5456C28.3944 29.8119 29.1156 28.5819 30.2094 27.7689L30.5916 27.4848L32.7982 27.8581C34.0118 28.0634 35.1248 28.2319 35.2715 28.2326C35.6912 28.2345 36.0031 27.9127 36.0031 27.4777C36.0031 26.8723 35.8468 26.7983 33.698 26.3857C28.3973 25.3681 27.8229 25.2415 27.2067 24.9558C26.0517 24.4201 25.5672 23.5998 25.5699 22.1843C25.5712 21.4903 25.6016 21.3208 25.8029 20.8855C26.1039 20.2345 26.3691 19.8921 26.8026 19.5945C27.2163 19.3105 27.5621 19.1754 27.8988 19.1662C28.0324 19.1626 30.5877 19.4603 33.5774 19.8278ZM35.7981 44.9467C35.7981 46.8094 35.6842 47.6542 35.3367 48.3688C34.7841 49.5052 33.7109 50.0903 31.748 50.325C30.7418 50.4454 19.1384 50.4473 18.1757 50.3272C16.2725 50.0899 15.2433 49.5514 14.6877 48.5025C14.2632 47.7012 14.1666 47.131 14.1114 45.1011L14.0617 43.2736H24.9299H35.7981V44.9467Z" fill="#262961"/>
<path fill-rule="evenodd" clip-rule="evenodd" d="M18.8042 9.1178C17.5751 9.3912 16.4404 10.1795 15.8644 11.1602C15.7479 11.3586 15.6289 11.5098 15.6 11.4963C15.571 11.4827 15.2656 11.3294 14.9211 11.1555C12.3146 9.83962 9.2017 10.9657 8.22165 13.579L8.03517 14.0763L8.00745 21.5122C7.97146 31.1573 8.04252 32.3932 8.74967 34.4252C9.13865 35.5431 9.59878 36.3459 10.6814 37.796C11.2223 38.5204 11.7929 39.3593 11.9495 39.66C12.4777 40.6745 12.5094 40.9046 12.5796 44.2399C12.6365 46.9421 12.6624 47.3363 12.8224 47.9368C13.3212 49.8099 14.4828 51.0272 16.2572 51.5363C17.6729 51.9425 17.7998 51.9497 24.1905 51.9886C31.472 52.0328 32.4961 51.9715 34.0689 51.397C35.5844 50.8436 36.519 49.862 37.0035 48.3149C37.298 47.3745 37.384 46.4059 37.3875 43.9878C37.3926 40.4353 37.5186 40.0397 39.4003 37.669C41.4501 35.0864 42.4509 33.0153 43.2693 29.6621C44.0676 26.3907 44.2156 23.8413 43.6945 22.3338C43.17 20.8164 42.0101 19.7868 40.1249 19.1655L39.5665 18.9814L39.5382 16.3187C39.5061 13.3022 39.4884 13.2073 38.7785 12.2552C37.8609 11.0243 36.5355 10.3946 34.8795 10.4026C33.8995 10.4073 32.962 10.6823 32.2748 11.1666L31.8097 11.4943L31.6205 11.1556C31.3014 10.5844 30.529 9.87978 29.8572 9.54714C27.9534 8.60451 25.7622 8.89724 24.2889 10.2912L23.7312 10.8188L23.2617 10.343C22.1875 9.25416 20.4 8.76289 18.8042 9.1178ZM21.3733 10.9095C22.0082 11.224 22.6054 11.8351 22.8077 12.3772C22.9873 12.8588 23.5434 22.0941 23.4249 22.6273C23.2542 23.3949 22.645 24.0902 21.8221 24.4564C20.2546 25.1541 18.3074 24.5408 17.6233 23.1339C17.4001 22.6748 17.3951 22.6256 17.1176 18.1212C16.9635 15.6193 16.849 13.3442 16.8632 13.0657C16.9052 12.2436 17.382 11.4969 18.16 11.0347C18.7585 10.6791 19.1546 10.5895 20.0217 10.6138C20.7307 10.6337 20.8842 10.6672 21.3733 10.9095ZM28.9922 10.8703C29.6147 11.1582 30.1613 11.6778 30.4209 12.2278C30.6162 12.6421 30.619 12.6849 30.6198 15.281L30.6206 17.9141L30.3075 17.8655C28.5929 17.5998 27.9525 17.5601 27.3665 17.683C26.6091 17.8419 26.0417 18.153 25.3838 18.7701L24.8586 19.2628V19.0108C24.8586 18.8721 24.7808 17.5161 24.6857 15.9974C24.5907 14.4787 24.5336 13.0756 24.5588 12.8795C24.6536 12.1435 25.2444 11.3333 25.96 10.9582C26.518 10.6656 26.8954 10.5911 27.6978 10.615C28.3558 10.6345 28.5767 10.6781 28.9922 10.8703ZM35.8299 12.0607C36.743 12.3 37.4649 12.8866 37.8321 13.688C37.9975 14.0486 38.0122 14.2403 38.0386 16.3755C38.0542 17.6401 38.0357 18.7033 37.9973 18.7382C37.9485 18.7827 32.4645 18.1514 32.2282 18.0741C32.2167 18.0704 32.2073 17.0078 32.2073 15.7129V13.3583L32.5574 12.9762C33.3777 12.0809 34.6009 11.7387 35.8299 12.0607ZM13.6661 12.3189C14.1989 12.4781 14.6105 12.7324 15.0003 13.1431L15.2883 13.4465L15.5246 17.2903C15.6546 19.4044 15.7418 21.2954 15.7183 21.4926C15.6625 21.9603 15.4874 22.2894 15.0361 22.7748C13.7514 24.1567 11.0593 23.9384 10.0722 22.3723C9.93624 22.1566 9.78175 21.8465 9.72897 21.6832C9.59193 21.2594 9.53072 14.9553 9.65765 14.34C9.8397 13.4577 10.5418 12.7031 11.4973 12.3627C12.0741 12.1572 13.0583 12.1373 13.6661 12.3189ZM33.5774 19.8278C36.5671 20.1953 39.2011 20.5403 39.4307 20.5943C40.0748 20.746 40.9759 21.1983 41.411 21.5883C41.8952 22.0223 42.2708 22.7711 42.4043 23.5683C42.7516 25.6426 41.6731 30.6933 40.2865 33.4852C39.7213 34.6232 39.2792 35.2973 38.2198 36.636C37.1334 38.0087 36.7257 38.6339 36.3965 39.4322C36.1605 40.0042 35.8816 41.1273 35.8816 41.5057V41.6772H24.9889H14.0963L14.0426 41.2781C13.9627 40.6839 13.7 39.7373 13.4695 39.2127C13.2277 38.6627 12.8215 38.049 11.7768 36.6554C10.949 35.5511 10.3514 34.4533 10.0834 33.5447C9.68989 32.2103 9.64496 31.7101 9.60246 28.1918C9.58016 26.3434 9.57456 24.6855 9.5901 24.5075L9.61832 24.184L9.83878 24.3593C10.7832 25.11 12.4301 25.4591 13.7213 25.182C14.5216 25.0103 15.111 24.7443 15.7224 24.2788L16.2313 23.8912L16.4578 24.2515C16.7913 24.7819 17.5994 25.4967 18.1969 25.7896C19.0446 26.2053 19.6741 26.3291 20.6832 26.2788C22.0868 26.2087 23.0747 25.7602 23.971 24.7861L24.4243 24.2934L24.531 24.5525C24.7143 24.9979 25.2409 25.5916 25.7646 25.9435C26.2955 26.3002 27.4415 26.758 28.178 26.9077C28.4191 26.9567 28.6164 27.0223 28.6164 27.0534C28.6164 27.0846 28.4998 27.2212 28.3571 27.3569C27.4552 28.2154 26.6961 29.9395 26.3565 31.9009C26.1451 33.1214 26.0361 35.7496 26.1852 36.0299C26.3268 36.2963 26.7424 36.4894 27.0349 36.4248C27.4852 36.3253 27.5925 36.0712 27.647 34.9757C27.7226 33.4552 27.8545 32.1543 27.9948 31.5456C28.3944 29.8119 29.1156 28.5819 30.2094 27.7689L30.5916 27.4848L32.7982 27.8581C34.0118 28.0634 35.1248 28.2319 35.2715 28.2326C35.6912 28.2345 36.0031 27.9127 36.0031 27.4777C36.0031 26.8723 35.8468 26.7983 33.698 26.3857C28.3973 25.3681 27.8229 25.2415 27.2067 24.9558C26.0517 24.4201 25.5672 23.5998 25.5699 22.1843C25.5712 21.4903 25.6016 21.3208 25.8029 20.8855C26.1039 20.2345 26.3691 19.8921 26.8026 19.5945C27.2163 19.3105 27.5621 19.1754 27.8988 19.1662C28.0324 19.1626 30.5877 19.4603 33.5774 19.8278ZM35.7981 44.9467C35.7981 46.8094 35.6842 47.6542 35.3367 48.3688C34.7841 49.5052 33.7109 50.0903 31.748 50.325C30.7418 50.4454 19.1384 50.4473 18.1757 50.3272C16.2725 50.0899 15.2433 49.5514 14.6877 48.5025C14.2632 47.7012 14.1666 47.131 14.1114 45.1011L14.0617 43.2736H24.9299H35.7981V44.9467Z" stroke="#262961" mask="url(#path-2-outside-1_779_6435)"/>
</svg>
