<svg width="52" height="50" viewBox="0 0 52 50" fill="none" xmlns="http://www.w3.org/2000/svg">
<path d="M49.4486 10.3146C49.733 10.751 51.7368 13.9068 51.1771 16.6755C50.5737 19.6692 47.5527 19.3403 46.0868 21.2645C42.6876 25.7218 52.9994 35.2311 51.9204 41.8111C50.6948 49.288 34.821 52.6901 20.387 44.9711C10.2244 39.5382 0.727131 28.5657 0.0396374 18.5389C-0.701261 7.74713 9.14489 3.59627 12.7995 2.05583C14.9179 1.16225 20.6033 -0.866766 29.0035 0.410878C31.3442 0.767951 44.5429 2.774 49.4486 10.3146Z" fill="white"/>
<path d="M49.4486 10.3146C49.733 10.751 51.7368 13.9068 51.1771 16.6755C50.5737 19.6692 47.5527 19.3403 46.0868 21.2645C42.6876 25.7218 52.9994 35.2311 51.9204 41.8111C50.6948 49.288 34.821 52.6901 20.387 44.9711C10.2244 39.5382 0.727131 28.5657 0.0396374 18.5389C-0.701261 7.74713 9.14489 3.59627 12.7995 2.05583C14.9179 1.16225 20.6033 -0.866766 29.0035 0.410878C31.3442 0.767951 44.5429 2.774 49.4486 10.3146Z" fill="#3AFFDC" fill-opacity="0.6"/>
<mask id="path-2-outside-1_779_6413" maskUnits="userSpaceOnUse" x="5.79199" y="10.4375" width="45" height="29" fill="black">
<rect fill="white" x="5.79199" y="10.4375" width="45" height="29"/>
<path fill-rule="evenodd" clip-rule="evenodd" d="M27.4657 11.4662C26.6644 11.5398 25.7135 11.8485 24.9926 12.269C24.3294 12.6558 23.2178 13.7634 22.8349 14.4189C21.7135 16.3384 21.7018 18.8873 22.8055 20.7642C23.2008 21.4365 23.9796 22.2992 24.5253 22.6696C24.7994 22.8556 24.9022 22.9677 24.824 22.9953C24.1364 23.2377 23.5361 23.4827 23.1591 23.6748C22.6046 23.9572 21.3934 24.7528 21.2467 24.9308C21.1882 25.002 21.1096 25.0601 21.0721 25.0601C21.0346 25.0601 20.7143 24.8507 20.3602 24.5947C19.8029 24.1919 18.8812 23.6898 18.3797 23.5161C18.2492 23.4709 18.3196 23.362 18.8387 22.806C20.0791 21.4775 20.5053 19.9012 20.0787 18.2204C19.0379 14.1204 13.6708 13.1755 11.3429 16.6824C10.7635 17.5552 10.5315 18.3306 10.5332 19.3886C10.5353 20.8215 11.0385 22.0126 12.0409 22.9578L12.5529 23.4405L12.0826 23.6323C11.0532 24.052 10.304 24.5724 9.3611 25.5225C7.73531 27.1606 6.96153 28.9096 6.84278 31.2148C6.81516 31.7516 7.243 32.2021 7.78056 32.2021H11.9712H17.1506L17.1038 33.3154C17.0487 34.6256 17.1747 35.3839 17.5884 36.2325C17.9502 36.9745 18.8642 37.8906 19.5812 38.2299C20.6311 38.7267 20.4014 38.7138 28.2072 38.7138H35.3788L35.9725 38.5257C37.0705 38.1777 38.1668 37.2449 38.6788 36.223C39.0884 35.4053 39.196 34.7642 39.1523 33.3994L39.1139 32.2021H44.3261H48.5918C49.1065 32.2021 49.5163 31.7709 49.49 31.2568C49.399 29.4741 48.928 28.0845 47.9103 26.5968C47.094 25.4035 45.571 24.1545 44.3357 23.6653L43.7861 23.4477L44.3811 22.8403C45.3457 21.8556 45.7929 20.7483 45.7916 19.3466C45.7899 17.2693 44.47 15.447 42.467 14.7565C41.6328 14.4689 40.4314 14.434 39.6317 14.6741C37.9556 15.1772 36.605 16.5999 36.213 18.275C35.8318 19.9042 36.2915 21.5396 37.4855 22.8023L38.0916 23.4431L37.6302 23.6318C37.0649 23.863 36.1684 24.3958 35.6888 24.7856C35.4923 24.9454 35.285 25.058 35.2279 25.0359C35.171 25.0139 34.8393 24.7898 34.4909 24.5379C33.7603 24.0098 32.5822 23.383 31.9181 23.169C31.6658 23.0877 31.4284 23.0033 31.3904 22.9814C31.3524 22.9595 31.5056 22.8166 31.7309 22.6637C32.2688 22.2987 33.049 21.4327 33.4421 20.7642C34.536 18.9041 34.5346 16.3767 33.4387 14.4693C33.039 13.7736 31.9454 12.6717 31.2549 12.269C30.1487 11.6237 28.8185 11.3419 27.4657 11.4662ZM29.2721 12.9248C30.9953 13.3747 32.3915 14.7928 32.7906 16.4985C33.3478 18.8804 32.0339 21.3115 29.7082 22.2018C29.0219 22.4645 27.7475 22.5286 26.9975 22.3381C26.0626 22.1006 25.4341 21.7368 24.7465 21.0351C23.7288 19.9968 23.3111 19.0045 23.3169 17.6393C23.3229 16.2196 23.7298 15.2426 24.7436 14.214C25.416 13.5318 26.1239 13.1121 26.9373 12.9136C27.5521 12.7634 28.6749 12.7688 29.2721 12.9248ZM16.324 16.0049C18.3471 16.6137 19.4087 18.9152 18.544 20.8181C17.8794 22.281 16.354 23.1305 14.8346 22.884C12.9248 22.5741 11.5802 20.7442 11.8878 18.8736C12.2377 16.7464 14.318 15.4011 16.324 16.0049ZM41.925 16.0049C43.9441 16.6125 45.0079 18.919 44.145 20.8181C43.4793 22.2834 41.9552 23.1306 40.4301 22.883C38.8919 22.6335 37.7474 21.476 37.4897 19.9094C37.2689 18.5667 37.9057 17.1713 39.088 16.4069C39.9011 15.8812 40.9977 15.7257 41.925 16.0049ZM29.8587 24.0094C30.7793 24.1868 31.6598 24.5009 32.5816 24.9807C34.9828 26.2302 36.755 28.4587 37.4608 31.116C37.6862 31.9646 37.8778 33.7934 37.7986 34.34C37.6028 35.6906 37.0092 36.5543 35.9247 37.0669L35.4622 37.2854H28.1238H20.7854L20.2615 37.0417C19.5936 36.7309 18.9167 36.0151 18.6476 35.3348C18.4758 34.9007 18.4562 34.7185 18.464 33.6304C18.4698 32.8397 18.5224 32.1762 18.6139 31.7399C19.4532 27.7392 22.3933 24.8079 26.3726 24.0048C27.1059 23.8569 29.0809 23.8594 29.8587 24.0094ZM17.1977 24.5569C17.9574 24.7619 18.8037 25.168 19.508 25.6658C19.7749 25.8544 19.9932 26.0202 19.9932 26.0342C19.9932 26.0482 19.8125 26.2791 19.5917 26.5472C18.7349 27.5874 18.1176 28.7078 17.6567 30.0595L17.4275 30.7317L12.8196 30.7534L8.21164 30.7751L8.26126 30.3536C8.28844 30.1217 8.42153 29.6084 8.55688 29.2127C9.37894 26.8097 11.3936 25.0201 13.9056 24.4617C14.8267 24.257 16.2369 24.2977 17.1977 24.5569ZM42.8726 24.5947C44.8937 25.1913 46.4756 26.5113 47.4081 28.379C47.6956 28.9549 47.9641 29.7915 48.0484 30.3746L48.1061 30.7737H43.4468H38.7876L38.6842 30.3669C38.4264 29.3535 37.5536 27.7113 36.7065 26.6458L36.2636 26.0889L36.4467 25.9195C37.1173 25.2986 38.5191 24.6476 39.6512 24.4312C40.5986 24.2502 41.9352 24.318 42.8726 24.5947Z"/>
</mask>
<path fill-rule="evenodd" clip-rule="evenodd" d="M27.4657 11.4662C26.6644 11.5398 25.7135 11.8485 24.9926 12.269C24.3294 12.6558 23.2178 13.7634 22.8349 14.4189C21.7135 16.3384 21.7018 18.8873 22.8055 20.7642C23.2008 21.4365 23.9796 22.2992 24.5253 22.6696C24.7994 22.8556 24.9022 22.9677 24.824 22.9953C24.1364 23.2377 23.5361 23.4827 23.1591 23.6748C22.6046 23.9572 21.3934 24.7528 21.2467 24.9308C21.1882 25.002 21.1096 25.0601 21.0721 25.0601C21.0346 25.0601 20.7143 24.8507 20.3602 24.5947C19.8029 24.1919 18.8812 23.6898 18.3797 23.5161C18.2492 23.4709 18.3196 23.362 18.8387 22.806C20.0791 21.4775 20.5053 19.9012 20.0787 18.2204C19.0379 14.1204 13.6708 13.1755 11.3429 16.6824C10.7635 17.5552 10.5315 18.3306 10.5332 19.3886C10.5353 20.8215 11.0385 22.0126 12.0409 22.9578L12.5529 23.4405L12.0826 23.6323C11.0532 24.052 10.304 24.5724 9.3611 25.5225C7.73531 27.1606 6.96153 28.9096 6.84278 31.2148C6.81516 31.7516 7.243 32.2021 7.78056 32.2021H11.9712H17.1506L17.1038 33.3154C17.0487 34.6256 17.1747 35.3839 17.5884 36.2325C17.9502 36.9745 18.8642 37.8906 19.5812 38.2299C20.6311 38.7267 20.4014 38.7138 28.2072 38.7138H35.3788L35.9725 38.5257C37.0705 38.1777 38.1668 37.2449 38.6788 36.223C39.0884 35.4053 39.196 34.7642 39.1523 33.3994L39.1139 32.2021H44.3261H48.5918C49.1065 32.2021 49.5163 31.7709 49.49 31.2568C49.399 29.4741 48.928 28.0845 47.9103 26.5968C47.094 25.4035 45.571 24.1545 44.3357 23.6653L43.7861 23.4477L44.3811 22.8403C45.3457 21.8556 45.7929 20.7483 45.7916 19.3466C45.7899 17.2693 44.47 15.447 42.467 14.7565C41.6328 14.4689 40.4314 14.434 39.6317 14.6741C37.9556 15.1772 36.605 16.5999 36.213 18.275C35.8318 19.9042 36.2915 21.5396 37.4855 22.8023L38.0916 23.4431L37.6302 23.6318C37.0649 23.863 36.1684 24.3958 35.6888 24.7856C35.4923 24.9454 35.285 25.058 35.2279 25.0359C35.171 25.0139 34.8393 24.7898 34.4909 24.5379C33.7603 24.0098 32.5822 23.383 31.9181 23.169C31.6658 23.0877 31.4284 23.0033 31.3904 22.9814C31.3524 22.9595 31.5056 22.8166 31.7309 22.6637C32.2688 22.2987 33.049 21.4327 33.4421 20.7642C34.536 18.9041 34.5346 16.3767 33.4387 14.4693C33.039 13.7736 31.9454 12.6717 31.2549 12.269C30.1487 11.6237 28.8185 11.3419 27.4657 11.4662ZM29.2721 12.9248C30.9953 13.3747 32.3915 14.7928 32.7906 16.4985C33.3478 18.8804 32.0339 21.3115 29.7082 22.2018C29.0219 22.4645 27.7475 22.5286 26.9975 22.3381C26.0626 22.1006 25.4341 21.7368 24.7465 21.0351C23.7288 19.9968 23.3111 19.0045 23.3169 17.6393C23.3229 16.2196 23.7298 15.2426 24.7436 14.214C25.416 13.5318 26.1239 13.1121 26.9373 12.9136C27.5521 12.7634 28.6749 12.7688 29.2721 12.9248ZM16.324 16.0049C18.3471 16.6137 19.4087 18.9152 18.544 20.8181C17.8794 22.281 16.354 23.1305 14.8346 22.884C12.9248 22.5741 11.5802 20.7442 11.8878 18.8736C12.2377 16.7464 14.318 15.4011 16.324 16.0049ZM41.925 16.0049C43.9441 16.6125 45.0079 18.919 44.145 20.8181C43.4793 22.2834 41.9552 23.1306 40.4301 22.883C38.8919 22.6335 37.7474 21.476 37.4897 19.9094C37.2689 18.5667 37.9057 17.1713 39.088 16.4069C39.9011 15.8812 40.9977 15.7257 41.925 16.0049ZM29.8587 24.0094C30.7793 24.1868 31.6598 24.5009 32.5816 24.9807C34.9828 26.2302 36.755 28.4587 37.4608 31.116C37.6862 31.9646 37.8778 33.7934 37.7986 34.34C37.6028 35.6906 37.0092 36.5543 35.9247 37.0669L35.4622 37.2854H28.1238H20.7854L20.2615 37.0417C19.5936 36.7309 18.9167 36.0151 18.6476 35.3348C18.4758 34.9007 18.4562 34.7185 18.464 33.6304C18.4698 32.8397 18.5224 32.1762 18.6139 31.7399C19.4532 27.7392 22.3933 24.8079 26.3726 24.0048C27.1059 23.8569 29.0809 23.8594 29.8587 24.0094ZM17.1977 24.5569C17.9574 24.7619 18.8037 25.168 19.508 25.6658C19.7749 25.8544 19.9932 26.0202 19.9932 26.0342C19.9932 26.0482 19.8125 26.2791 19.5917 26.5472C18.7349 27.5874 18.1176 28.7078 17.6567 30.0595L17.4275 30.7317L12.8196 30.7534L8.21164 30.7751L8.26126 30.3536C8.28844 30.1217 8.42153 29.6084 8.55688 29.2127C9.37894 26.8097 11.3936 25.0201 13.9056 24.4617C14.8267 24.257 16.2369 24.2977 17.1977 24.5569ZM42.8726 24.5947C44.8937 25.1913 46.4756 26.5113 47.4081 28.379C47.6956 28.9549 47.9641 29.7915 48.0484 30.3746L48.1061 30.7737H43.4468H38.7876L38.6842 30.3669C38.4264 29.3535 37.5536 27.7113 36.7065 26.6458L36.2636 26.0889L36.4467 25.9195C37.1173 25.2986 38.5191 24.6476 39.6512 24.4312C40.5986 24.2502 41.9352 24.318 42.8726 24.5947Z" fill="#262961"/>
<path fill-rule="evenodd" clip-rule="evenodd" d="M27.4657 11.4662C26.6644 11.5398 25.7135 11.8485 24.9926 12.269C24.3294 12.6558 23.2178 13.7634 22.8349 14.4189C21.7135 16.3384 21.7018 18.8873 22.8055 20.7642C23.2008 21.4365 23.9796 22.2992 24.5253 22.6696C24.7994 22.8556 24.9022 22.9677 24.824 22.9953C24.1364 23.2377 23.5361 23.4827 23.1591 23.6748C22.6046 23.9572 21.3934 24.7528 21.2467 24.9308C21.1882 25.002 21.1096 25.0601 21.0721 25.0601C21.0346 25.0601 20.7143 24.8507 20.3602 24.5947C19.8029 24.1919 18.8812 23.6898 18.3797 23.5161C18.2492 23.4709 18.3196 23.362 18.8387 22.806C20.0791 21.4775 20.5053 19.9012 20.0787 18.2204C19.0379 14.1204 13.6708 13.1755 11.3429 16.6824C10.7635 17.5552 10.5315 18.3306 10.5332 19.3886C10.5353 20.8215 11.0385 22.0126 12.0409 22.9578L12.5529 23.4405L12.0826 23.6323C11.0532 24.052 10.304 24.5724 9.3611 25.5225C7.73531 27.1606 6.96153 28.9096 6.84278 31.2148C6.81516 31.7516 7.243 32.2021 7.78056 32.2021H11.9712H17.1506L17.1038 33.3154C17.0487 34.6256 17.1747 35.3839 17.5884 36.2325C17.9502 36.9745 18.8642 37.8906 19.5812 38.2299C20.6311 38.7267 20.4014 38.7138 28.2072 38.7138H35.3788L35.9725 38.5257C37.0705 38.1777 38.1668 37.2449 38.6788 36.223C39.0884 35.4053 39.196 34.7642 39.1523 33.3994L39.1139 32.2021H44.3261H48.5918C49.1065 32.2021 49.5163 31.7709 49.49 31.2568C49.399 29.4741 48.928 28.0845 47.9103 26.5968C47.094 25.4035 45.571 24.1545 44.3357 23.6653L43.7861 23.4477L44.3811 22.8403C45.3457 21.8556 45.7929 20.7483 45.7916 19.3466C45.7899 17.2693 44.47 15.447 42.467 14.7565C41.6328 14.4689 40.4314 14.434 39.6317 14.6741C37.9556 15.1772 36.605 16.5999 36.213 18.275C35.8318 19.9042 36.2915 21.5396 37.4855 22.8023L38.0916 23.4431L37.6302 23.6318C37.0649 23.863 36.1684 24.3958 35.6888 24.7856C35.4923 24.9454 35.285 25.058 35.2279 25.0359C35.171 25.0139 34.8393 24.7898 34.4909 24.5379C33.7603 24.0098 32.5822 23.383 31.9181 23.169C31.6658 23.0877 31.4284 23.0033 31.3904 22.9814C31.3524 22.9595 31.5056 22.8166 31.7309 22.6637C32.2688 22.2987 33.049 21.4327 33.4421 20.7642C34.536 18.9041 34.5346 16.3767 33.4387 14.4693C33.039 13.7736 31.9454 12.6717 31.2549 12.269C30.1487 11.6237 28.8185 11.3419 27.4657 11.4662ZM29.2721 12.9248C30.9953 13.3747 32.3915 14.7928 32.7906 16.4985C33.3478 18.8804 32.0339 21.3115 29.7082 22.2018C29.0219 22.4645 27.7475 22.5286 26.9975 22.3381C26.0626 22.1006 25.4341 21.7368 24.7465 21.0351C23.7288 19.9968 23.3111 19.0045 23.3169 17.6393C23.3229 16.2196 23.7298 15.2426 24.7436 14.214C25.416 13.5318 26.1239 13.1121 26.9373 12.9136C27.5521 12.7634 28.6749 12.7688 29.2721 12.9248ZM16.324 16.0049C18.3471 16.6137 19.4087 18.9152 18.544 20.8181C17.8794 22.281 16.354 23.1305 14.8346 22.884C12.9248 22.5741 11.5802 20.7442 11.8878 18.8736C12.2377 16.7464 14.318 15.4011 16.324 16.0049ZM41.925 16.0049C43.9441 16.6125 45.0079 18.919 44.145 20.8181C43.4793 22.2834 41.9552 23.1306 40.4301 22.883C38.8919 22.6335 37.7474 21.476 37.4897 19.9094C37.2689 18.5667 37.9057 17.1713 39.088 16.4069C39.9011 15.8812 40.9977 15.7257 41.925 16.0049ZM29.8587 24.0094C30.7793 24.1868 31.6598 24.5009 32.5816 24.9807C34.9828 26.2302 36.755 28.4587 37.4608 31.116C37.6862 31.9646 37.8778 33.7934 37.7986 34.34C37.6028 35.6906 37.0092 36.5543 35.9247 37.0669L35.4622 37.2854H28.1238H20.7854L20.2615 37.0417C19.5936 36.7309 18.9167 36.0151 18.6476 35.3348C18.4758 34.9007 18.4562 34.7185 18.464 33.6304C18.4698 32.8397 18.5224 32.1762 18.6139 31.7399C19.4532 27.7392 22.3933 24.8079 26.3726 24.0048C27.1059 23.8569 29.0809 23.8594 29.8587 24.0094ZM17.1977 24.5569C17.9574 24.7619 18.8037 25.168 19.508 25.6658C19.7749 25.8544 19.9932 26.0202 19.9932 26.0342C19.9932 26.0482 19.8125 26.2791 19.5917 26.5472C18.7349 27.5874 18.1176 28.7078 17.6567 30.0595L17.4275 30.7317L12.8196 30.7534L8.21164 30.7751L8.26126 30.3536C8.28844 30.1217 8.42153 29.6084 8.55688 29.2127C9.37894 26.8097 11.3936 25.0201 13.9056 24.4617C14.8267 24.257 16.2369 24.2977 17.1977 24.5569ZM42.8726 24.5947C44.8937 25.1913 46.4756 26.5113 47.4081 28.379C47.6956 28.9549 47.9641 29.7915 48.0484 30.3746L48.1061 30.7737H43.4468H38.7876L38.6842 30.3669C38.4264 29.3535 37.5536 27.7113 36.7065 26.6458L36.2636 26.0889L36.4467 25.9195C37.1173 25.2986 38.5191 24.6476 39.6512 24.4312C40.5986 24.2502 41.9352 24.318 42.8726 24.5947Z" stroke="#262961" mask="url(#path-2-outside-1_779_6413)"/>
</svg>
