<svg width="56" height="57" viewBox="0 0 56 57" fill="none" xmlns="http://www.w3.org/2000/svg">
<path d="M4.38548 15.0541C4.77387 14.63 7.60302 11.6098 10.99 10.982C14.6517 10.3014 15.4551 13.0694 18.2295 13.5724C24.6579 14.7408 31.5137 1.91176 39.4653 0.200328C48.5005 -1.74471 58.5926 10.7313 55.3953 26.4345C53.1463 37.49 44.2979 50.1984 33.0915 54.8403C21.0307 59.8372 12.4355 52.9213 9.24545 50.3542C7.39562 48.8665 2.85343 44.7248 1.03535 36.8819C0.529946 34.696 -2.32835 22.3734 4.38548 15.0541Z" fill="white"/>
<path d="M4.38548 15.0541C4.77387 14.63 7.60302 11.6098 10.99 10.982C14.6517 10.3014 15.4551 13.0694 18.2295 13.5724C24.6579 14.7408 31.5137 1.91176 39.4653 0.200328C48.5005 -1.74471 58.5926 10.7313 55.3953 26.4345C53.1463 37.49 44.2979 50.1984 33.0915 54.8403C21.0307 59.8372 12.4355 52.9213 9.24545 50.3542C7.39562 48.8665 2.85343 44.7248 1.03535 36.8819C0.529946 34.696 -2.32835 22.3734 4.38548 15.0541Z" fill="#3AFFDC" fill-opacity="0.6"/>
<path fill-rule="evenodd" clip-rule="evenodd" d="M6.2978 9.7309C5.7201 9.91136 4.97901 10.4852 4.59956 11.046C3.96252 11.9875 4.00043 10.9689 4.00043 27.1335C4.00043 41.6089 4.00292 41.8041 4.19513 42.4223C4.45445 43.2564 5.17391 44.047 6.03149 44.4403L6.63283 44.7162L19.3246 44.7417L32.0165 44.7671L31.6458 46.9285C31.2009 49.5235 31.1915 50.2277 31.5939 50.8317C31.9359 51.3449 32.4643 51.6117 33.1205 51.6023C33.3991 51.5983 33.7586 51.5448 33.9196 51.4834C34.0806 51.422 35.4224 50.7407 36.9014 49.9694C38.7625 48.9988 39.6862 48.5669 39.9014 48.5669C40.1142 48.5669 40.9257 48.9395 42.4716 49.7472C46.1861 51.6879 46.0103 51.6085 46.5912 51.609C47.7021 51.6101 48.4263 50.9448 48.4917 49.8632C48.5207 49.3843 48.0553 46.1316 47.7943 44.9884C47.749 44.79 47.7782 44.7843 49.0632 44.7464C50.2603 44.7111 50.4326 44.6833 50.9799 44.4361C51.8454 44.0452 52.5602 43.2568 52.8195 42.4068C53.0121 41.7752 53.0139 41.6153 52.9887 26.9362L52.9631 12.1036L52.7085 11.564C52.3679 10.8424 51.7678 10.2158 51.1101 9.89491L50.57 9.63154L28.6493 9.61395C9.98211 9.59902 6.66461 9.61633 6.2978 9.7309ZM49.9902 12.6478C50.1235 12.8367 50.1393 14.3672 50.1393 27.1263C50.1393 39.8854 50.1235 41.4159 49.9902 41.6049C49.8489 41.8053 49.7753 41.8162 48.5646 41.8162H47.288L47.1913 41.2695C47.1381 40.9688 47.0194 40.2522 46.9275 39.6769L46.7603 38.631L47.2426 37.898C49.4153 34.5964 49.1434 30.3605 46.5681 27.3849C45.4249 26.0641 44.0236 25.1758 42.242 24.6426C41.4752 24.4132 41.2228 24.3844 39.9447 24.3804C38.2733 24.3752 37.4137 24.5545 36.0981 25.1828C32.1322 27.0766 30.1554 31.603 31.4915 35.7311C31.7458 36.5168 32.2617 37.5496 32.6942 38.1383L33.0306 38.5964L32.7643 40.2063L32.498 41.8162H19.8341H7.17013L7.02118 41.6049C6.88793 41.4159 6.87214 39.8854 6.87214 27.1263C6.87214 14.3672 6.88793 12.8367 7.02118 12.6478L7.17013 12.4364H28.5057H49.8413L49.9902 12.6478ZM10.9356 17.9893C10.0814 18.3601 9.79114 19.4028 10.3321 20.1573C10.756 20.7486 9.46587 20.7084 28.0081 20.7084H44.9418L45.2671 20.4926C46.1413 19.9125 46.1189 18.7659 45.2205 18.0996L44.9562 17.9035L28.0919 17.8831C14.2174 17.8663 11.1758 17.8851 10.9356 17.9893ZM10.6913 25.9635C9.81708 26.5436 9.83948 27.69 10.7379 28.3565C10.9988 28.55 11.0981 28.5528 18.3664 28.578C25.6371 28.6032 25.7355 28.601 26.1167 28.4078C26.6043 28.1607 26.8775 27.7248 26.878 27.1929C26.8785 26.7004 26.7 26.3308 26.3001 25.9967L26.0022 25.7477H18.5094H11.0166L10.6913 25.9635ZM41.6194 27.4771C43.3266 27.9911 44.863 29.4411 45.4458 31.0885C46.644 34.4745 44.6315 38.0424 41.081 38.827C38.5107 39.395 35.8197 38.0849 34.6242 35.6835C33.4825 33.3903 33.8944 30.8023 35.6903 28.9844C37.2384 27.4175 39.5066 26.8408 41.6194 27.4771ZM36.1318 40.9985C37.2623 41.5562 38.4348 41.8123 39.8667 41.8146C41.3046 41.8168 42.5996 41.5312 43.7157 40.9656C43.942 40.8509 44.1383 40.7707 44.1519 40.7875C44.186 40.8295 45.3494 47.9382 45.3249 47.9549C45.3141 47.9623 44.3815 47.4851 43.2526 46.8944C41.6136 46.0367 41.0686 45.7969 40.5484 45.7046C39.4154 45.5035 38.9154 45.652 36.541 46.8944C35.4122 47.4851 34.4772 47.96 34.4636 47.9499C34.432 47.9263 35.6073 40.7703 35.6429 40.7703C35.6573 40.7703 35.8774 40.873 36.1318 40.9985Z" fill="#262961"/>
</svg>
