<svg width="51" height="49" viewBox="0 0 51 49" fill="none" xmlns="http://www.w3.org/2000/svg">
<path d="M2.12032 17.5959C2.40032 17.1947 4.45236 14.3282 7.44822 13.3409C10.6867 12.2721 11.9237 14.4243 14.5613 14.448C20.6732 14.5049 24.6515 3.0506 31.6419 0.538565C39.585 -2.31611 51.1005 6.4796 50.9993 19.7738C50.9299 29.133 45.1007 40.7672 35.6513 46.1318C25.4816 51.9064 16.3434 47.4502 12.9518 45.7961C10.9853 44.8376 6.0683 42.0844 2.98403 35.9221C2.12563 34.2045 -2.72191 24.5229 2.12032 17.5959Z" fill="white"/>
<path d="M2.12032 17.5959C2.40032 17.1947 4.45236 14.3282 7.44822 13.3409C10.6867 12.2721 11.9237 14.4243 14.5613 14.448C20.6732 14.5049 24.6515 3.0506 31.6419 0.538565C39.585 -2.31611 51.1005 6.4796 50.9993 19.7738C50.9299 29.133 45.1007 40.7672 35.6513 46.1318C25.4816 51.9064 16.3434 47.4502 12.9518 45.7961C10.9853 44.8376 6.0683 42.0844 2.98403 35.9221C2.12563 34.2045 -2.72191 24.5229 2.12032 17.5959Z" fill="#3AFFDC" fill-opacity="0.6"/>
<path fill-rule="evenodd" clip-rule="evenodd" d="M1 24.7329V34.7588C1 37.3584 3.10737 39.4657 5.70695 39.4657H10.4139L10.7432 40.1113C12.5499 43.6539 15.985 46.1824 19.9082 46.8575C21.0155 47.0481 22.9914 47.0474 24.0918 46.856C28.0386 46.1698 31.4551 43.6581 33.2288 40.139L33.5682 39.4657H38.2841C40.8886 39.4657 43 37.3544 43 34.7498V24.7329V15.0128C43 12.2464 40.7536 10.0057 37.9872 10.0128L33.751 10.0237C25.0029 10.0459 24.4775 10.0554 24.0508 10.1983C23.4109 10.4126 22.917 10.6747 22.4258 11.061L22 11.3959L21.5742 11.061C21.083 10.6747 20.5891 10.4126 19.9492 10.1983C19.5225 10.0554 18.9971 10.0459 10.249 10.0237L6.01279 10.0128C3.24638 10.0057 1 12.2464 1 15.0128V24.7329ZM19.5801 12.6703C20.0162 12.9048 20.3947 13.3092 20.599 13.7588C20.7594 14.1116 20.766 14.2805 20.7677 18.06L20.7695 21.9939L20.4619 22.0416C18.5981 22.3304 17.2188 22.7895 15.7564 23.6077L15.1268 23.9599H10.9755H6.82422V25.183V26.406L9.57711 26.4276L12.33 26.449L11.9474 26.9387C11.5581 27.437 10.8033 28.6554 10.6734 28.9956L10.6018 29.1829H8.71299H6.82422V30.4071V31.6312H8.25977C9.35455 31.6312 9.69482 31.6555 9.69334 31.7332C9.69228 31.7894 9.65651 31.9822 9.61377 32.1617C9.57112 32.3412 9.49581 32.9534 9.44643 33.522C9.36177 34.4979 9.41321 35.6936 9.5835 36.7114L9.63477 37.0175H6.54785H6.46094C4.80408 37.0175 3.46094 35.6743 3.46094 34.0175V24.7333V15.4576C3.46094 13.7974 4.80927 12.4529 6.46943 12.4576L11.3564 12.4715L19.252 12.4938L19.5801 12.6703ZM40.5391 24.7352V34.0175C40.5391 35.6743 39.1959 37.0175 37.5391 37.0175H37.4521H34.3652L34.417 36.7114C34.6488 35.3391 34.6343 33.2088 34.386 32.1617C34.3434 31.9822 34.3077 31.7894 34.3067 31.7332C34.3052 31.6555 34.6454 31.6312 35.7402 31.6312H37.1758V30.4071V29.1829H35.2973H33.419L33.1536 28.6729C32.8386 28.0673 32.2982 27.2295 31.9298 26.7755L31.6649 26.449L34.4204 26.4276L37.1758 26.406V25.183V23.9599H33.0239H28.8721L28.1636 23.5654C26.7048 22.7533 25.4388 22.3362 23.5381 22.0416L23.2305 21.9939V18.1103C23.2305 15.3696 23.2589 14.1323 23.3269 13.9062C23.5055 13.3133 24.1929 12.6836 24.8301 12.5293C24.9654 12.4965 28.5554 12.466 32.8076 12.4613L37.5358 12.4562C39.1939 12.4545 40.5391 13.7981 40.5391 15.4562V24.7352ZM6.82422 19.9611V21.1852H12.1152H17.4062V19.9611V18.7369H12.1152H6.82422V19.9611ZM26.5938 19.9611V21.1852H31.8848H37.1758V19.9611V18.7369H31.8848H26.5938V19.9611ZM23.8848 24.5765C26.8968 25.1449 29.5728 27.1291 30.9779 29.8357C31.7751 31.3713 32.116 32.7646 32.116 34.4876C32.116 35.1766 32.0652 35.8504 31.9804 36.2865C31.3798 39.375 29.4211 42.0088 26.6759 43.4193C25.1124 44.2227 23.7276 44.5543 21.959 44.5491C20.316 44.5443 18.945 44.2268 17.53 43.5238C14.6481 42.092 12.6346 39.4511 12.0221 36.3001C11.8383 35.3543 11.8383 33.6209 12.0221 32.675C12.7395 28.9841 15.3894 26.0072 18.9648 24.8756C19.6423 24.6612 20.0723 24.5735 21.2207 24.4153C21.6583 24.355 23.2082 24.4489 23.8848 24.5765ZM18.4316 29.0529L17.5293 29.5719L17.5081 34.4741L17.487 39.3762L18.0824 39.7186C18.4098 39.9069 18.8279 40.147 19.0115 40.2521L19.3453 40.4433L23.6258 37.9873L27.9062 35.5314V34.4878V33.4443L23.6667 31.0076C21.335 29.6674 19.4063 28.5626 19.3806 28.5523C19.355 28.5421 18.9279 28.7673 18.4316 29.0529ZM22.5127 33.1834C23.7195 33.8751 24.707 34.462 24.707 34.4876C24.707 34.5131 23.7195 35.1 22.5127 35.7918C21.3058 36.4834 20.2353 37.1015 20.1338 37.1652L19.9492 37.2811V34.4876V31.6941L20.1338 31.8099C20.2353 31.8736 21.3058 32.4917 22.5127 33.1834Z" fill="#262961"/>
</svg>
