<svg width="48" height="49" viewBox="0 0 48 49" fill="none" xmlns="http://www.w3.org/2000/svg">
<path d="M4.23759 11.8949C4.58352 11.5397 7.10096 9.01191 10.0069 8.57327C13.1486 8.09753 13.7326 10.5196 16.0762 11.0415C21.5065 12.2528 27.8058 1.35525 34.6367 0.119917C42.3984 -1.28409 50.5392 9.83387 47.2505 23.3342C44.9369 32.8388 36.9456 43.57 27.2383 47.2422C16.7907 51.1953 9.72341 44.9391 7.10047 42.6169C5.57945 41.2711 1.86228 37.5432 0.597707 30.6945C0.246373 28.7858 -1.742 18.0253 4.23759 11.8949Z" fill="white"/>
<path d="M4.23759 11.8949C4.58352 11.5397 7.10096 9.01191 10.0069 8.57327C13.1486 8.09753 13.7326 10.5196 16.0762 11.0415C21.5065 12.2528 27.8058 1.35525 34.6367 0.119917C42.3984 -1.28409 50.5392 9.83387 47.2505 23.3342C44.9369 32.8388 36.9456 43.57 27.2383 47.2422C16.7907 51.1953 9.72341 44.9391 7.10047 42.6169C5.57945 41.2711 1.86228 37.5432 0.597707 30.6945C0.246373 28.7858 -1.742 18.0253 4.23759 11.8949Z" fill="#3AFFDC" fill-opacity="0.6"/>
<path fill-rule="evenodd" clip-rule="evenodd" d="M6.76452 4.11278C6.39804 4.26852 6.08807 4.66987 6.03098 5.06247C6.0038 5.24964 5.9923 14.1201 6.00544 24.7747L6.02942 44.1466L6.20125 44.3729C6.29578 44.4974 6.49529 44.6803 6.64461 44.7796L6.91614 44.9599H21.6278C35.707 44.9599 36.3518 44.9537 36.6257 44.8137C36.8035 44.7229 36.9819 44.5343 37.0967 44.3158L37.2815 43.9641V24.4883C37.2815 5.17605 37.2801 5.00973 37.1172 4.68133C37.0125 4.47028 36.8371 4.28664 36.6338 4.17506L36.3146 4L21.6648 4.00313C9.67027 4.00569 6.96961 4.02557 6.76452 4.11278ZM34.8175 24.48V42.5552H21.6349H8.45238V24.48V6.40469H21.6349H34.8175V24.48ZM43.5238 10.5025C43.2865 10.5949 42.9701 10.8676 42.852 11.0815C42.7754 11.2202 42.0233 13.3309 40.5913 17.4262L39.9748 19.1896L39.983 31.243C39.9893 40.2474 40.0159 43.3762 40.0883 43.6119C40.2108 44.011 40.7317 44.593 41.1724 44.823C41.5001 44.9941 41.5924 45 43.9344 45C46.2744 45 46.3689 44.994 46.6954 44.8235C47.2403 44.5389 47.5248 44.2612 47.7699 43.7739L48 43.3167L47.9991 31.173L47.9983 19.0293L46.5053 15.0311C44.914 10.7694 44.8562 10.6522 44.2676 10.4926C43.9143 10.3969 43.7912 10.3985 43.5238 10.5025ZM12.5767 10.5489C12.2627 10.6088 11.7597 11.1389 11.6943 11.4788C11.6152 11.8904 11.8359 12.4396 12.1754 12.6759L12.4359 12.8573L21.6349 12.8776C30.6999 12.8976 30.8378 12.8956 31.1016 12.7381C31.8794 12.2736 31.8747 11.1475 31.0932 10.6858C30.8425 10.5378 30.5371 10.5324 21.7992 10.523C16.8301 10.5175 12.6799 10.5292 12.5767 10.5489ZM44.9546 18.0073L45.0132 18.1877H43.9809C43.4132 18.1877 42.9487 18.1748 42.9487 18.159C42.9487 18.1248 43.812 15.6482 43.8994 15.4317C43.9437 15.3219 44.0876 15.6273 44.4282 16.5539C44.6856 17.2541 44.9224 17.9081 44.9546 18.0073ZM12.2241 15.805C11.8551 16.0476 11.6117 16.6115 11.6931 17.0349C11.7766 17.4695 12.274 17.9205 12.7418 17.9858C12.9349 18.0128 17.0847 18.0242 21.9635 18.0111C30.5259 17.9881 30.843 17.982 31.0932 17.8342C31.8747 17.3726 31.8794 16.2453 31.1016 15.7826C30.8388 15.6261 30.6693 15.6232 21.6676 15.623L12.5013 15.6227L12.2241 15.805ZM45.577 29.0489V37.5054H44.0165H42.4559V29.0489V20.5924H44.0165H45.577V29.0489ZM12.4318 20.7853C12.0972 20.9275 11.7564 21.3357 11.6918 21.6716C11.5908 22.1971 11.955 22.7899 12.5028 22.9919C12.661 23.0503 15.5604 23.0772 21.6846 23.0772C30.493 23.0772 30.6403 23.0747 30.9593 22.9159C31.3237 22.7344 31.6142 22.2726 31.6142 21.8749C31.6142 21.4771 31.3237 21.0154 30.9593 20.8339C30.6402 20.675 30.4963 20.6726 21.6587 20.6757C14.3812 20.6782 12.6349 20.699 12.4318 20.7853ZM13.7783 25.9922C12.9065 26.3025 12.2049 26.9405 11.8842 27.7145C11.6977 28.1648 11.6966 28.1905 11.6729 32.7219C11.6524 36.6559 11.6668 37.3437 11.7785 37.7691C12.0127 38.6616 12.6271 39.3709 13.5102 39.7683C13.9027 39.9449 13.9871 39.9501 16.4622 39.9501H19.0101L19.5523 39.6896C20.1951 39.3808 20.6998 38.8777 21.0058 38.2408L21.2243 37.7859V32.9365V28.087L21.0041 27.6287C20.7128 27.0221 20.1207 26.4173 19.5508 26.1442L19.0888 25.9228L16.5837 25.904C14.6616 25.8897 14.0087 25.9102 13.7783 25.9922ZM18.6734 28.4656C18.7785 28.6118 18.8013 28.9201 18.8013 30.1889V31.7341H16.4605H14.1196V30.1711C14.1196 28.7149 14.1309 28.597 14.2839 28.4477C14.4394 28.296 14.5577 28.2874 16.4969 28.2874C18.5208 28.2874 18.5471 28.2896 18.6734 28.4656ZM18.8013 35.7019C18.8013 37.1581 18.79 37.2759 18.637 37.4252C18.4817 37.5768 18.3633 37.5855 16.4637 37.5855C14.5026 37.5855 14.4506 37.5814 14.2871 37.4101C14.1306 37.2462 14.1196 37.1338 14.1196 35.6867V34.1388H16.4605H18.8013V35.7019ZM45.577 41.2727V42.6354H44.0165H42.4559V41.2727V39.9101H44.0165H45.577V41.2727Z" fill="#262961"/>
</svg>
