<svg width="58" height="49" viewBox="0 0 58 49" fill="none" xmlns="http://www.w3.org/2000/svg">
<path d="M36.5994 2.03717C37.067 2.30619 40.4077 4.27776 41.5583 7.15614C42.804 10.2676 40.2957 11.4561 40.2682 13.9902C40.2018 19.8625 53.5511 23.6847 56.4787 30.4011C59.8056 38.0326 49.5548 49.0966 34.0613 48.9994C23.1537 48.9326 9.59477 43.332 3.34264 34.2532C-3.3872 24.4823 1.80617 15.7025 3.73396 12.4439C4.85095 10.5545 8.05974 5.83033 15.2414 2.86701C17.2432 2.04227 28.5265 -2.61517 36.5994 2.03717Z" fill="white"/>
<path d="M36.5994 2.03717C37.067 2.30619 40.4077 4.27776 41.5583 7.15614C42.804 10.2676 40.2957 11.4561 40.2682 13.9902C40.2018 19.8625 53.5511 23.6847 56.4787 30.4011C59.8056 38.0326 49.5548 49.0966 34.0613 48.9994C23.1537 48.9326 9.59477 43.332 3.34264 34.2532C-3.3872 24.4823 1.80617 15.7025 3.73396 12.4439C4.85095 10.5545 8.05974 5.83033 15.2414 2.86701C17.2432 2.04227 28.5265 -2.61517 36.5994 2.03717Z" fill="#3AFFDC" fill-opacity="0.6"/>
<path fill-rule="evenodd" clip-rule="evenodd" d="M27.9292 8.02968C26.5579 8.28126 25.3831 9.14031 24.7958 10.3212C24.3357 11.246 24.3348 11.262 24.3348 18.6086C24.3348 22.3759 24.3149 25.4581 24.2905 25.4581C24.266 25.4581 23.3413 24.9975 22.2354 24.4348L20.2248 23.4113L20.6271 22.8549C21.5257 21.6122 21.9183 20.4124 21.9183 18.9099C21.9183 15.8414 19.9411 13.3004 16.9599 12.5378C16.6822 12.4667 16.0465 12.4163 15.4837 12.4207C13.6788 12.435 12.3448 13.0185 11.0339 14.3673C10.1966 15.2287 9.63681 16.2024 9.36993 17.2614C8.82332 19.4299 9.40489 21.7123 10.9264 23.3701C11.1497 23.6133 11.3162 23.826 11.2963 23.8427C11.2766 23.8592 11.0037 24.0483 10.6901 24.2628C8.99261 25.4233 7.71265 27.3417 7.20405 29.4878C7.09658 29.9413 7.05237 30.7973 7.0184 33.0821C6.9803 35.6439 6.99531 36.1796 7.12129 36.7569C7.38925 37.9843 8.16977 39.029 9.25186 39.6086L9.86209 39.9354L9.88725 44.0007C9.91169 47.943 9.91798 48.0736 10.0977 48.3188C10.1996 48.4578 10.3946 48.6566 10.531 48.7604C10.773 48.9447 10.8928 48.9499 15.4228 48.9746L20.0665 49L20.4688 48.7915C20.7077 48.6677 20.945 48.4526 21.0529 48.2624C21.231 47.9484 21.2352 47.7808 21.2596 40.0886C21.2732 35.7692 21.3008 32.2353 21.3209 32.2353C21.3408 32.2353 22.4379 32.7813 23.7588 33.4488L26.1603 34.6622L27.2021 34.6613C28.1668 34.6604 28.2829 34.6408 28.7743 34.3961C29.2868 34.1409 29.9388 33.5623 30.3107 33.033L30.4902 32.7775L32.8819 32.804L35.2736 32.8306L32.6797 40.0994C31.2531 44.0973 30.0858 47.4677 30.0858 47.5892C30.0858 47.9405 30.3075 48.3882 30.6096 48.6473C31.1522 49.1126 31.9193 49.0515 32.4151 48.5035C32.5643 48.3386 33.4979 45.8388 35.3867 40.5468L38.1409 32.8306L38.6288 32.806L39.1167 32.7815L41.8041 40.2701C43.2822 44.3888 44.5848 47.95 44.6987 48.1839C44.9703 48.7413 45.5279 49.0441 46.1031 48.9463C46.6028 48.8614 47.116 48.3357 47.2013 47.8211C47.2635 47.4459 47.2061 47.2796 42.9091 35.3773L41.9769 32.7954L45.8036 32.7612C49.007 32.7327 49.6961 32.7035 50.0346 32.5818C51.4621 32.0689 52.509 30.9182 52.8551 29.4819C52.9831 28.9509 53 27.889 53 20.3752C53 12.8614 52.9831 11.7995 52.8551 11.2685C52.5094 9.83351 51.4752 8.69559 50.0346 8.16495C49.6705 8.03087 48.5606 8.01466 38.8921 8.00221C32.9861 7.9947 28.0528 8.00697 27.9292 8.02968ZM49.2875 10.8106C49.6317 10.9431 50.0309 11.3383 50.1805 11.6948C50.2826 11.9378 50.3042 13.457 50.3042 20.3663C50.3042 26.0623 50.2737 28.8257 50.2086 29.001C50.0786 29.3519 49.6908 29.7587 49.3411 29.9112C49.1019 30.0155 47.4688 30.0373 39.8832 30.0373H30.7144L32.4669 26.466C34.3481 22.6324 34.3939 22.4997 34.0401 21.9084C33.7887 21.488 33.3586 21.246 32.8623 21.2456C32.0621 21.245 32.002 21.3266 30.3554 24.65C29.54 26.2959 28.8471 27.6683 28.8158 27.6998C28.7844 27.7313 28.3699 27.5601 27.8947 27.3195L27.0306 26.8821V19.4074V11.9326L27.2376 11.5338C27.379 11.2612 27.5683 11.0682 27.8358 10.9241L28.2271 10.7132H38.6308C45.763 10.7132 49.114 10.7438 49.2875 10.8106ZM31.0387 13.9221C30.1904 14.1809 29.8378 15.2842 30.3632 16.0363C30.753 16.594 30.4513 16.5745 38.6884 16.5745C45.8694 16.5745 46.233 16.5665 46.5316 16.4034C46.9782 16.1594 47.2875 15.5212 47.2039 15.0165C47.124 14.5344 46.7081 14.0438 46.2756 13.9213C45.8666 13.8056 31.4185 13.8063 31.0387 13.9221ZM16.1026 15.1986C18.1304 15.537 19.4597 17.3684 19.191 19.4534C19.0925 20.218 18.7629 20.8887 18.1797 21.512C16.1051 23.7287 12.3877 22.5129 11.9222 19.4653C11.628 17.5393 12.8872 15.659 14.7472 15.2471C15.4456 15.0923 15.4628 15.0918 16.1026 15.1986ZM38.428 19.0394C37.7329 19.1831 37.3495 19.6621 37.3495 20.3868C37.3495 20.8869 37.5861 21.3167 37.9966 21.5626C38.297 21.7424 38.4469 21.749 42.2618 21.749C46.659 21.749 46.6063 21.7559 46.9831 21.1263C47.2759 20.6372 47.295 20.2931 47.0567 19.8051C46.656 18.9846 46.7624 19.0037 42.4865 18.9864C40.4354 18.9781 38.6091 19.0019 38.428 19.0394ZM38.1701 24.251C37.6635 24.4799 37.3504 24.944 37.3425 25.4775C37.3353 25.9651 37.5417 26.3859 37.9247 26.6644L38.2181 26.8776L41.9473 26.9059C43.9983 26.9215 45.8512 26.9082 46.0648 26.8765C46.5907 26.7982 47.1144 26.2737 47.2035 25.7362C47.2875 25.2291 46.9791 24.5916 46.5316 24.347C46.2388 24.1871 45.9605 24.1764 42.2632 24.1823C40.0878 24.1859 38.246 24.2168 38.1701 24.251ZM18.4884 25.6885C19.3025 25.9548 27.8934 30.3662 28.0546 30.6009C28.283 30.9331 28.2335 31.2836 27.9068 31.6468C27.3891 32.2224 27.3374 32.2062 23.5443 30.2767C21.2888 29.1294 20.0987 28.572 19.905 28.5721C19.5284 28.5723 19.0478 28.8276 18.8149 29.151C18.6307 29.407 18.6283 29.494 18.5838 37.8057L18.5389 46.2018L15.5511 46.2258L12.5633 46.25V42.352C12.5633 38.0883 12.5725 38.1689 12.0269 37.701C11.8549 37.5534 11.5957 37.4467 11.3272 37.4129C10.6503 37.3274 10.1351 37.0164 9.89489 36.5482C9.69235 36.1535 9.68776 36.0857 9.68929 33.4802C9.69109 30.5406 9.75687 29.979 10.2173 28.9763C11.016 27.2367 12.3796 26.0832 14.2257 25.5852C14.8988 25.4036 17.835 25.4748 18.4884 25.6885Z" fill="#262961"/>
</svg>
