<svg width="16" height="12" viewBox="0 0 16 12" fill="none" xmlns="http://www.w3.org/2000/svg">
<path d="M1 5.2C0.558172 5.2 0.2 5.55817 0.2 6C0.2 6.44183 0.558172 6.8 1 6.8L1 5.2ZM15.5657 6.56568C15.8781 6.25326 15.8781 5.74673 15.5657 5.43431L10.4745 0.343145C10.1621 0.0307256 9.65556 0.0307257 9.34314 0.343145C9.03073 0.655565 9.03073 1.1621 9.34314 1.47452L13.8686 6L9.34315 10.5255C9.03073 10.8379 9.03073 11.3444 9.34315 11.6569C9.65557 11.9693 10.1621 11.9693 10.4745 11.6569L15.5657 6.56568ZM1 6.8L15 6.8L15 5.2L1 5.2L1 6.8Z" fill="#262961"/>
</svg>
