<svg width="45" height="13" viewBox="0 0 45 13" fill="none" xmlns="http://www.w3.org/2000/svg">
<path d="M1.0186 5.20022C0.576891 5.18994 0.210489 5.53969 0.200216 5.9814C0.189944 6.42311 0.539692 6.78951 0.9814 6.79978L1.0186 5.20022ZM44.5524 7.57869C44.872 7.27362 44.8838 6.76722 44.5787 6.44762L39.6073 1.23946C39.3022 0.919864 38.7958 0.908087 38.4762 1.21316C38.1566 1.51823 38.1448 2.02462 38.4499 2.34422L42.8689 6.9737L38.2395 11.3927C37.9199 11.6978 37.9081 12.2042 38.2132 12.5238C38.5182 12.8434 39.0246 12.8552 39.3442 12.5501L44.5524 7.57869ZM0.9814 6.79978L43.9814 7.79979L44.0186 6.20022L1.0186 5.20022L0.9814 6.79978Z" fill="#00C3EB"/>
</svg>
