<svg width="33" height="12" viewBox="0 0 33 12" fill="none" xmlns="http://www.w3.org/2000/svg">
<path d="M1 5.2C0.558172 5.2 0.2 5.55817 0.2 6C0.2 6.44183 0.558172 6.8 1 6.8V5.2ZM32.5657 6.56569C32.8781 6.25327 32.8781 5.74673 32.5657 5.43431L27.4745 0.343146C27.1621 0.0307264 26.6556 0.0307264 26.3431 0.343146C26.0307 0.655565 26.0307 1.1621 26.3431 1.47452L30.8686 6L26.3431 10.5255C26.0307 10.8379 26.0307 11.3444 26.3431 11.6569C26.6556 11.9693 27.1621 11.9693 27.4745 11.6569L32.5657 6.56569ZM1 6.8H32V5.2H1V6.8Z" fill="#00C3EB"/>
</svg>
