<svg width="23" height="21" viewBox="0 0 23 21" fill="none" xmlns="http://www.w3.org/2000/svg">
<path fill-rule="evenodd" clip-rule="evenodd" d="M1.40601 11.6704C1.0331 11.6704 0.675451 11.5222 0.41176 11.2585C0.148069 10.9948 -7.10185e-05 10.6372 -7.10022e-05 10.2643C-7.09859e-05 9.89135 0.148069 9.53371 0.41176 9.27002C0.675451 9.00633 1.0331 8.85819 1.40601 8.85819L17.6969 8.85819L11.6592 2.82329C11.3951 2.55926 11.2468 2.20117 11.2468 1.82778C11.2468 1.45439 11.3951 1.0963 11.6592 0.832274C11.9232 0.568249 12.2813 0.419921 12.6547 0.419921C13.0281 0.419921 13.3862 0.568249 13.6502 0.832274L22.0867 9.26877C22.2176 9.39938 22.3215 9.55454 22.3924 9.72537C22.4633 9.89619 22.4998 10.0793 22.4998 10.2643C22.4998 10.4492 22.4633 10.6323 22.3924 10.8032C22.3215 10.974 22.2176 11.1292 22.0867 11.2598L13.6502 19.6963C13.3861 19.9603 13.0281 20.1086 12.6547 20.1086C12.2813 20.1086 11.9232 19.9603 11.6592 19.6963C11.3951 19.4322 11.2468 19.0741 11.2468 18.7008C11.2468 18.3274 11.3951 17.9693 11.6592 17.7053L17.6969 11.6704L1.40601 11.6704Z" fill="#262961"/>
</svg>
