<svg width="19" height="20" viewBox="0 0 19 20" fill="none" xmlns="http://www.w3.org/2000/svg">
<path fill-rule="evenodd" clip-rule="evenodd" d="M8.78569 0.517875C7.9221 0.600601 7.26777 0.728626 6.59383 0.946766C5.11885 1.42415 3.92217 2.15283 2.80926 3.25122C1.27818 4.76234 0.354221 6.62394 0.0499232 8.81072C-0.0241173 9.34276 -0.0138638 10.7661 0.0678296 11.2984C0.401773 13.4747 1.29724 15.2543 2.80926 16.7466C3.5348 17.4627 4.29497 18.0179 5.15061 18.4568C8.18193 20.0118 11.8685 19.8164 14.6993 17.9507C17.6329 16.0173 19.2671 12.6573 18.9642 9.18203C18.8951 8.39037 18.6695 7.3345 18.5287 7.14447C18.2657 6.78947 17.7709 6.79169 17.5529 7.14881C17.4311 7.34839 17.4306 7.46375 17.5495 7.93211C17.7428 8.69343 17.7923 9.11508 17.7921 9.99889C17.7918 10.9017 17.7431 11.2953 17.5303 12.1142C16.7782 15.0085 14.4407 17.3293 11.5496 18.0524C10.766 18.2484 10.37 18.2951 9.49155 18.2951C8.63393 18.2951 8.21967 18.248 7.50401 18.0693C5.63186 17.6017 3.99977 16.5231 2.8515 14.9947C2.00299 13.8652 1.49068 12.6477 1.25705 11.2056C1.16477 10.6359 1.16473 9.36233 1.25697 8.79216C1.55536 6.94842 2.33347 5.41246 3.61876 4.13005C4.90944 2.84226 6.44281 2.06624 8.28416 1.76901C8.58415 1.7206 8.90524 1.703 9.49155 1.70281C10.3758 1.70259 10.7977 1.75205 11.5594 1.94523C12.0501 2.0697 12.186 2.06517 12.38 1.91802C12.7049 1.67162 12.6894 1.21967 12.3475 0.966631C12.1614 0.828878 11.1222 0.604982 10.3274 0.531427C9.94905 0.496414 9.0888 0.488876 8.78569 0.517875ZM15.3241 0.532541C15.2082 0.580328 12.962 2.813 12.8862 2.95573C12.8488 3.02613 12.782 3.55806 12.6809 4.58946L12.5311 6.11878L10.7353 7.9196C8.78993 9.87031 8.85082 9.79616 8.91468 10.1363C8.94897 10.3191 9.1712 10.5412 9.35405 10.5754C9.69439 10.6393 9.6202 10.7002 11.572 8.75573L13.3737 6.96075L14.9035 6.8113C15.9342 6.7106 16.4675 6.6438 16.5381 6.60649C16.5958 6.57604 17.1642 6.02778 17.8012 5.38813C18.8089 4.37634 18.9627 4.20687 18.9851 4.0846C19.018 3.90437 18.9856 3.7459 18.8877 3.60852C18.7344 3.39328 18.6307 3.36955 17.4417 3.27799C16.8389 3.23157 16.3353 3.18342 16.3225 3.17098C16.3098 3.15854 16.2622 2.66382 16.2167 2.07159C16.126 0.889734 16.0958 0.757513 15.8813 0.604908C15.7454 0.508147 15.47 0.47239 15.3241 0.532541ZM15.1172 3.22883C15.1997 4.27423 15.2193 4.2938 16.2644 4.37619C16.6361 4.40548 16.9699 4.43363 17.0062 4.43868C17.053 4.44525 16.918 4.60164 16.541 4.97733L16.0099 5.50677L14.9004 5.61901C14.2902 5.6808 13.7843 5.72465 13.7762 5.71655C13.7681 5.70842 13.812 5.20282 13.8738 4.59295L13.9861 3.4841L14.5158 2.95321C14.8917 2.57649 15.0482 2.44148 15.0548 2.4883C15.0598 2.52458 15.0879 2.85782 15.1172 3.22883ZM8.69282 3.48956C6.64249 3.75515 4.81656 4.97844 3.79199 6.77287C3.55702 7.18438 3.29615 7.80375 3.18158 8.22206C2.99226 8.9132 2.97168 9.08742 2.97168 9.99889C2.97168 10.9069 2.99271 11.0867 3.17805 11.7626C3.33018 12.3174 3.65175 13.029 3.9835 13.5448C4.84457 14.8838 6.20999 15.8836 7.78264 16.3267C9.0093 16.6723 10.6429 16.5881 11.832 16.118C13.8063 15.3375 15.2483 13.7435 15.8227 11.7069C16.0399 10.937 16.096 9.76308 15.9552 8.93507C15.8477 8.30301 15.7944 8.14349 15.6411 7.99505C15.5249 7.88247 15.482 7.86569 15.2774 7.8531C15.081 7.84103 15.0262 7.8521 14.9193 7.92561C14.7693 8.02873 14.6554 8.22696 14.6554 8.38503C14.6554 8.44763 14.6902 8.64843 14.7328 8.83118C14.8453 9.31414 14.8729 10.3387 14.7874 10.8595C14.4647 12.8247 13.0722 14.455 11.1815 15.0814C10.511 15.3035 10.1026 15.3588 9.31241 15.3346C8.43243 15.3075 7.92329 15.1863 7.16966 14.8243C5.60199 14.0713 4.4857 12.5931 4.20061 10.8928C4.12378 10.4347 4.12378 9.56313 4.20061 9.10502C4.57627 6.86454 6.37137 5.08226 8.63048 4.7068C9.15032 4.62039 10.1743 4.64746 10.6599 4.76045C11.061 4.85376 11.1687 4.85636 11.3364 4.77679C11.5248 4.68745 11.6463 4.48888 11.6463 4.27037C11.6463 3.80999 11.3802 3.65155 10.3574 3.50281C10.1082 3.46657 8.94195 3.45725 8.69282 3.48956ZM8.8727 6.48931C8.12479 6.62498 7.5143 6.95024 6.96399 7.50634C6.48557 7.98974 6.17748 8.53908 6.01094 9.20568C5.92271 9.55882 5.92271 10.439 6.01094 10.7921C6.18038 11.4703 6.48769 12.0129 6.98205 12.507C7.47641 13.0011 8.01932 13.3083 8.69791 13.4776C9.05106 13.5658 9.93189 13.5658 10.2848 13.4777C10.9753 13.3054 11.4899 13.0132 11.9987 12.5047C12.6785 11.8252 13.0264 11.0385 13.0355 10.1598C13.0397 9.74889 13.0089 9.66802 12.7836 9.49994C12.6398 9.39259 12.2874 9.39259 12.1435 9.49994C11.9438 9.64901 11.8987 9.74875 11.865 10.1163C11.8475 10.307 11.8 10.5716 11.7595 10.7044C11.5424 11.4153 10.911 12.0425 10.1788 12.2743C9.96826 12.341 9.83392 12.3563 9.47297 12.3549C9.08813 12.3533 8.98991 12.3397 8.75467 12.2554C8.36519 12.1158 8.10146 11.9485 7.80184 11.6512C6.88185 10.7383 6.88951 9.25744 7.81897 8.32669C8.29787 7.84712 8.8659 7.62453 9.61414 7.62319C10.0173 7.62248 10.1282 7.58558 10.2844 7.4C10.5494 7.08528 10.3728 6.58818 9.95592 6.47512C9.75947 6.42184 9.20475 6.42912 8.8727 6.48931Z" fill="#262961"/>
</svg>
