<svg width="209" height="47" viewBox="0 0 209 47" fill="none" xmlns="http://www.w3.org/2000/svg">
<path fill-rule="evenodd" clip-rule="evenodd" d="M13.2114 0.195018C6.64926 0.833932 3.461 2.90769 1.06911 8.09209C0.18998 9.99759 0.147792 10.5686 0.0260473 22.2349C-0.0559191 30.0782 0.0569868 35.1534 0.344673 36.5376C0.984734 39.6198 2.99331 42.7537 5.32895 44.3162C9.00981 46.7775 10.4932 47 23.2563 47C33.9244 47.0004 34.902 46.9398 37.5542 46.1169C43.3172 44.3283 45.9325 40.6386 46.6348 33.3049C47.2222 27.1708 46.8036 11.9063 45.9739 9.19202C44.7146 5.07382 40.9514 1.55758 36.8234 0.642779C34.3306 0.0898034 17.5564 -0.227846 13.2114 0.195018ZM37.1126 5.18024C39.1554 6.09745 40.3897 7.2556 41.4766 9.27475C42.3099 10.822 42.3416 11.3473 42.3416 23.5308C42.3416 35.8063 42.3155 36.2296 41.4553 37.8367C40.9675 38.7479 40.0229 39.9519 39.3559 40.5129C37.0234 42.4746 36.0001 42.6059 23.0554 42.6059H11.0015L8.99535 41.602C6.34952 40.2779 4.92113 38.162 4.38755 34.7751C3.85476 31.395 3.85476 15.6667 4.38755 12.2866C5.06457 7.99009 7.33512 5.4758 11.2639 4.67264C12.2246 4.47627 18.0731 4.34816 24.2608 4.38832C34.1092 4.45177 35.7108 4.55056 37.1126 5.18024ZM33.7323 9.32896C32.7411 10.5883 32.7246 10.7839 33.488 12.2593C34.1747 13.5861 35.7502 14.1126 37.0263 13.4407C38.228 12.8087 38.5113 12.3155 38.5185 10.8429C38.531 8.29931 35.3375 7.28893 33.7323 9.32896ZM62.0296 9.73857C58.7586 11.4545 55.7126 15.8619 55.6399 18.9834C55.5933 20.9909 56.6223 22.5723 58.7237 23.722C60.4823 24.6846 61.0183 24.3075 60.0998 22.7538C59.3059 21.4097 59.1994 18.1292 59.8764 15.8695C60.3582 14.2632 62.4009 11.4834 63.0996 11.4834C63.7148 11.4834 63.3355 34.6313 62.6954 36.1457C62.4202 36.7966 62.3535 37.4681 62.5455 37.66C63.1531 38.2672 65.6149 36.2417 66.5402 34.3731C67.3904 32.6551 67.4398 32.0174 67.5447 21.3908C67.65 10.7232 67.6194 10.1891 66.8749 9.6446C65.8551 8.89847 63.5452 8.94344 62.0296 9.73857ZM105.491 9.34181C105.343 9.48879 105.223 10.6634 105.223 11.9521V14.2945H103.027C101.267 14.2945 100.749 14.4487 100.415 15.0712C99.6587 16.4843 99.9271 16.704 102.41 16.704H104.821V21.4442C104.821 26.0138 104.778 26.2528 103.624 28.0703C102.272 30.2011 101.834 30.4059 101.749 28.9457C101.659 27.3916 100.626 26.123 97.9976 24.3388L95.5921 22.706L96.6802 20.7579C97.6107 19.0922 97.6899 18.7155 97.2274 18.1585C96.0947 16.7947 92.6345 17.7128 91.5954 19.6528C91.0912 20.5941 91.1217 21.3298 91.7485 23.3301C92.1025 24.4609 87.6654 30.9601 86.5392 30.9601C85.7782 30.9601 85.7324 30.6733 85.6782 25.5387C85.6468 22.557 85.6014 19.8825 85.5777 19.5958C85.5174 18.8641 82.4891 17.5863 81.3375 17.8063C79.8204 18.0963 77.8805 20.2857 76.4437 23.3301L75.117 26.1411L75.1025 22.2687C75.0868 18.0762 74.9948 17.9087 72.7066 17.9087H71.5964L71.328 24.4577C70.9592 33.4443 71.2979 34.7751 73.9517 34.7751C74.8477 34.7751 75.1218 34.5534 75.3162 33.6707C76.4059 28.7313 77.9086 25.0597 79.9598 22.3261L81.3159 20.519L81.5168 26.8804C81.7112 33.0419 81.7486 33.2668 82.7073 34.0414C84.8055 35.7377 87.1885 34.2538 91.0036 28.8747C92.4613 26.819 93.745 25.1372 93.8559 25.1372C93.9668 25.1372 94.7387 25.6761 95.5704 26.3347C99.5634 29.4955 97.9056 33.7217 93.6341 31.2717C92.481 30.6103 92.3894 30.6131 91.5926 31.334C89.7142 33.0326 90.9469 34.2281 95.0195 34.6586C98.5887 35.0357 101.816 33.4507 103.906 30.2947L104.968 28.6899L105.457 30.6143C105.983 32.6853 107.359 34.1884 109.135 34.6341C110.539 34.9863 112.796 33.7647 113.855 32.0801C114.301 31.3705 114.767 30.7834 114.892 30.775C115.017 30.7661 115.407 31.3633 115.759 32.1018C116.43 33.5073 118.5 34.7751 120.123 34.7751C121.457 34.7751 124.45 33.225 124.962 32.2704C125.384 31.4813 125.431 31.4978 126.197 32.7057C127.721 35.112 131.572 35.2947 133.155 33.0359L133.734 32.2102L134.646 33.0411C136.929 35.1196 139.591 35.2233 142.074 33.3306C143.297 32.3977 143.393 32.3813 143.393 33.0993C143.393 33.5627 142.519 34.5486 141.217 35.5526C140.02 36.4758 138.212 38.1162 137.199 39.1985C135.715 40.7835 135.357 41.4477 135.357 42.6151C135.357 45.4262 137.064 46.8225 140.501 46.8225C143.082 46.8225 144.904 45.6145 146.169 43.0645C146.986 41.4168 147.144 40.4779 147.184 37.0035L147.233 32.8921L148.974 30.9223C150.746 28.9168 154.242 23.3196 154.242 22.4875C154.242 22.0719 157.022 21.3571 157.353 21.6876C157.43 21.7647 157.279 23.3405 157.018 25.189C156.279 30.4216 157.484 33.4667 160.671 34.4213C162.466 34.9586 164.331 34.4177 165.261 33.0901C165.787 32.3399 165.832 32.3471 166.901 33.337C169.039 35.3172 172.389 35.0486 174.73 32.709L175.931 31.5082L176.393 32.5198C176.883 33.5956 178.929 34.7751 180.305 34.7751C180.761 34.7751 181.773 34.2141 182.554 33.5286C183.856 32.3865 183.975 32.3516 183.975 33.1129C183.975 34.1663 185.25 34.8594 186.891 34.6988L188.164 34.5743L188.652 30.6733C188.966 28.1623 189.529 25.9062 190.232 24.3404C190.833 23.0024 191.378 21.9615 191.444 22.0273C191.51 22.0928 191.763 24.1103 192.008 26.5106C192.5 31.3484 193.105 32.9531 194.577 33.3222C196.281 33.7499 196.763 33.2664 197.06 30.8264C197.37 28.2815 198.552 24.2553 199.437 22.7277C199.974 21.7992 200.019 22.0105 200.035 25.5387C200.054 30.0682 200.495 31.9014 201.905 33.3101C204.686 36.0899 208.732 34.2936 208.991 30.1637C209.093 28.543 208.263 27.7085 207.853 29.0192C207.073 31.5102 206.439 32.4166 205.565 32.2921C204.199 32.0982 203.711 30.0192 203.685 24.2826C203.66 18.4609 203.511 18.1697 200.553 18.1328L198.717 18.1095L197.586 20.8507C196.964 22.3586 196.339 24.2107 196.197 24.9669C195.73 27.4587 195.225 26.4009 195.225 22.9285C195.225 18.9384 194.609 17.9087 192.221 17.9087C190.599 17.9087 190.116 18.4894 188.718 22.1253L187.792 24.5348L187.591 21.3222L187.39 18.1095L185.742 17.989L184.093 17.8682L183.833 20.3568C183.69 21.7257 183.573 24.2826 183.573 26.0391C183.573 30.7292 181.985 33.5483 180.113 32.1825C179.439 31.691 179.332 30.9006 179.153 25.0701L178.952 18.5111L177.4 18.128C176.137 17.8164 175.76 17.8641 175.379 18.3842C174.955 18.9637 174.823 18.9524 173.974 18.2653C172.765 17.2867 170.094 17.2766 168.506 18.2448C167.842 18.6492 166.762 19.9588 166.105 21.1551C165.019 23.1305 164.905 23.6955 164.864 27.3093C164.823 30.9255 164.736 31.3556 163.913 32.0223C162.759 32.9559 161.73 32.4724 161.115 30.7079C160.498 28.9397 160.559 26.8716 161.333 23.3538C162.234 19.254 161.96 18.9223 157.977 19.2829C155.437 19.513 155.089 19.4665 155.298 18.9239C155.929 17.2782 152.612 16.3807 151.291 17.8401C150.468 18.7484 150.428 20.6391 151.213 21.5061C151.732 22.0787 151.682 22.4104 150.784 24.3485C149.501 27.1174 147.72 29.9545 147.263 29.9553C147.07 29.9557 146.98 27.3812 147.062 24.2336L147.21 18.5111L145.658 18.128C144.41 17.82 144.016 17.8662 143.649 18.3625C143.242 18.9139 143.063 18.9014 141.987 18.2456C140.182 17.1457 137.697 17.2806 136.174 18.5617C134.012 20.3804 133.242 22.4337 132.98 27.0804C132.77 30.8007 132.648 31.3111 131.804 31.9937C131.085 32.576 130.683 32.6592 130.097 32.3455C129.675 32.1202 129.301 31.897 129.265 31.8496C129.23 31.8022 129.094 28.7815 128.964 25.1372L128.728 18.5111L127.175 18.128C125.912 17.8164 125.535 17.8641 125.155 18.3842C124.731 18.9637 124.599 18.9524 123.75 18.2653C122.523 17.2726 119.866 17.2786 118.227 18.2778C116.588 19.2769 114.961 22.6401 114.618 25.7395C114.059 30.787 111.245 33.692 109.759 30.7557C109.215 29.6802 109.062 22.865 109.501 19.2139L109.755 17.1056H112.296C114.435 17.1056 114.906 16.9771 115.272 16.294C115.866 15.1852 115.459 14.6969 113.938 14.6917C113.233 14.6893 111.978 14.5752 111.149 14.4383L109.642 14.1893V11.8794C109.642 9.82331 109.543 9.5426 108.738 9.32695C107.529 9.00288 105.822 9.01051 105.491 9.34181ZM19.5208 12.0384C12.4279 14.6804 9.32361 22.2771 12.6007 28.9715C13.745 31.3095 15.5281 33.0768 18.1446 34.4667C19.5196 35.1971 20.4879 35.3678 23.2563 35.367C26.1749 35.3662 26.9637 35.2116 28.6806 34.3032C31.3264 32.9037 33.0196 31.0793 34.3266 28.2209C36.2805 23.9473 35.3335 18.7219 31.9604 15.1623C29.057 12.0987 23.2643 10.6437 19.5208 12.0384ZM26.2987 16.3462C27.6166 16.7441 29.6585 18.6705 30.5075 20.3166C31.2215 21.7008 31.1536 25.4853 30.3886 26.9443C28.114 31.2817 22.3627 32.6238 18.5396 29.7092C14.6486 26.7431 14.6579 20.3118 18.5573 17.3389C20.7648 15.6559 23.047 15.3631 26.2987 16.3462ZM123.944 21.1647C125.074 22.4136 125.049 28.3767 123.906 30.3151C122.882 32.052 122.078 32.5483 120.805 32.2291C119.423 31.8821 118.781 30.1449 118.813 26.8302C118.852 22.6405 120.024 20.3182 122.098 20.3182C122.693 20.3182 123.523 20.6989 123.944 21.1647ZM142.47 21.39C142.982 22.1711 143.166 23.2433 143.147 25.3448C143.106 30.0152 141.121 33.121 138.755 32.2138C137.207 31.6199 136.489 27.1005 137.407 23.7316C138.305 20.4407 141.024 19.1833 142.47 21.39ZM174.151 21.1443C175.075 22.1643 175.414 26.2267 174.773 28.6048C173.762 32.358 171.014 33.6772 169.658 31.0605C168.864 29.5288 168.772 24.803 169.5 22.9293C170.522 20.2989 172.647 19.4833 174.151 21.1443ZM143.591 39.2929C143.227 42.9999 142.525 44.7066 141.149 45.2294C140.321 45.5439 139.85 45.4945 139.12 45.017C137.863 44.1934 137.917 42.9613 139.305 40.7771C140.33 39.164 143.08 36.3814 143.649 36.3814C143.774 36.3814 143.748 37.6914 143.591 39.2929Z" fill="url(#paint0_linear_580_2757)"/>
<defs>
<linearGradient id="paint0_linear_580_2757" x1="-8.73907" y1="23.6932" x2="209.035" y2="23.6932" gradientUnits="userSpaceOnUse">
<stop stop-color="#F39746"/>
<stop offset="0.118158" stop-color="#EC4345"/>
<stop offset="0.259363" stop-color="#8A22A3"/>
<stop offset="0.304455" stop-color="#F39C43"/>
<stop offset="0.624614" stop-color="#EB4344"/>
<stop offset="1" stop-color="#6E21C0"/>
</linearGradient>
</defs>
</svg>
