<svg width="30" height="31" viewBox="0 0 30 31" fill="none" xmlns="http://www.w3.org/2000/svg">
<path fill-rule="evenodd" clip-rule="evenodd" d="M15 0.419922C6.71573 0.419922 0 7.13565 0 15.4199C0 23.7042 6.71573 30.4199 15 30.4199C23.2843 30.4199 30 23.7042 30 15.4199C30 7.13565 23.2843 0.419922 15 0.419922ZM11.7021 7.4683C12.5554 7.42947 12.8281 7.41997 15.0008 7.41997H14.9983C17.1716 7.41997 17.4433 7.42947 18.2966 7.4683C19.1483 7.5073 19.73 7.64214 20.24 7.83997C20.7666 8.04414 21.2116 8.31748 21.6567 8.76248C22.1017 9.20716 22.375 9.65349 22.58 10.1797C22.7767 10.6883 22.9117 11.2697 22.9517 12.1214C22.99 12.9747 23 13.2474 23 15.4201C23 17.5927 22.99 17.8647 22.9517 18.7181C22.9117 19.5694 22.7767 20.1509 22.58 20.6598C22.375 21.1858 22.1017 21.6321 21.6567 22.0768C21.2121 22.5218 20.7665 22.7958 20.2405 23.0001C19.7315 23.198 19.1495 23.3328 18.2978 23.3718C17.4444 23.4106 17.1726 23.4201 14.9998 23.4201C12.8272 23.4201 12.5547 23.4106 11.7014 23.3718C10.8499 23.3328 10.2684 23.198 9.75937 23.0001C9.23353 22.7958 8.78719 22.5218 8.34268 22.0768C7.89785 21.6321 7.62451 21.1858 7.42001 20.6596C7.22234 20.1509 7.0875 19.5696 7.04834 18.7179C7.00967 17.8646 7 17.5927 7 15.4201C7 13.2474 7.01 12.9745 7.04817 12.1212C7.0865 11.2698 7.22151 10.6883 7.41984 10.1795C7.62484 9.65349 7.89818 9.20716 8.34318 8.76248C8.78785 8.31765 9.23419 8.04431 9.76036 7.83997C10.269 7.64214 10.8504 7.5073 11.7021 7.4683Z" fill="white"/>
<path fill-rule="evenodd" clip-rule="evenodd" d="M14.2831 8.86186C14.4225 8.86165 14.5724 8.86171 14.7341 8.86179L15.0008 8.86186C17.1368 8.86186 17.39 8.86953 18.2335 8.90786C19.0135 8.94353 19.4368 9.07387 19.7188 9.18337C20.0922 9.32837 20.3583 9.5017 20.6382 9.78171C20.9182 10.0617 21.0915 10.3284 21.2368 10.7017C21.3463 10.9834 21.4769 11.4067 21.5124 12.1867C21.5507 13.0301 21.559 13.2834 21.559 15.4184C21.559 17.5535 21.5507 17.8068 21.5124 18.6501C21.4767 19.4301 21.3463 19.8535 21.2368 20.1351C21.0918 20.5085 20.9182 20.7743 20.6382 21.0542C20.3582 21.3342 20.0923 21.5075 19.7188 21.6525C19.4372 21.7625 19.0135 21.8925 18.2335 21.9282C17.3901 21.9665 17.1368 21.9748 15.0008 21.9748C12.8646 21.9748 12.6114 21.9665 11.7681 21.9282C10.9881 21.8922 10.5647 21.7618 10.2826 21.6523C9.90923 21.5073 9.64256 21.334 9.36256 21.054C9.08256 20.774 8.90922 20.508 8.76389 20.1345C8.65439 19.8528 8.52388 19.4295 8.48838 18.6495C8.45005 17.8061 8.44238 17.5528 8.44238 15.4164C8.44238 13.2801 8.45005 13.0281 8.48838 12.1847C8.52405 11.4047 8.65439 10.9814 8.76389 10.6994C8.90889 10.326 9.08256 10.0594 9.36256 9.77937C9.64256 9.49937 9.90923 9.32603 10.2826 9.1807C10.5646 9.0707 10.9881 8.9407 11.7681 8.90486C12.5061 8.87153 12.7921 8.86153 14.2831 8.85986V8.86186ZM19.2712 10.1902C18.7412 10.1902 18.3111 10.6197 18.3111 11.1499C18.3111 11.6799 18.7412 12.1099 19.2712 12.1099C19.8012 12.1099 20.2312 11.6799 20.2312 11.1499C20.2312 10.6199 19.8012 10.1899 19.2712 10.1899V10.1902ZM10.8924 15.4202C10.8924 13.1514 12.7318 11.3119 15.0006 11.3119C17.2695 11.3119 19.1085 13.1514 19.1085 15.4202C19.1085 17.6891 17.2696 19.5278 15.0008 19.5278C12.7319 19.5278 10.8924 17.6891 10.8924 15.4202Z" fill="white"/>
<path d="M15.0008 12.7534C16.4735 12.7534 17.6675 13.9473 17.6675 15.4201C17.6675 16.8928 16.4735 18.0868 15.0008 18.0868C13.528 18.0868 12.3341 16.8928 12.3341 15.4201C12.3341 13.9473 13.528 12.7534 15.0008 12.7534Z" fill="white"/>
</svg>
