<svg width="30" height="30" viewBox="0 0 30 30" fill="none" xmlns="http://www.w3.org/2000/svg">
<path d="M0 15C0 6.71573 6.71573 0 15 0C23.2843 0 30 6.71573 30 15C30 23.2843 23.2843 30 15 30C6.71573 30 0 23.2843 0 15Z" fill="#262961"/>
<path fill-rule="evenodd" clip-rule="evenodd" d="M15 0C6.71573 0 0 6.71573 0 15C0 23.2843 6.71573 30 15 30C23.2843 30 30 23.2843 30 15C30 6.71573 23.2843 0 15 0ZM11.7021 7.04838C12.5554 7.00955 12.8281 7.00005 15.0008 7.00005H14.9983C17.1716 7.00005 17.4433 7.00955 18.2966 7.04838C19.1483 7.08738 19.73 7.22222 20.24 7.42005C20.7666 7.62422 21.2116 7.89756 21.6567 8.34256C22.1017 8.78723 22.375 9.23357 22.58 9.75974C22.7767 10.2684 22.9117 10.8498 22.9517 11.7014C22.99 12.5548 23 12.8274 23 15.0001C23 17.1728 22.99 17.4448 22.9517 18.2982C22.9117 19.1495 22.7767 19.731 22.58 20.2399C22.375 20.7659 22.1017 21.2122 21.6567 21.6569C21.2121 22.1019 20.7665 22.3759 20.2405 22.5802C19.7315 22.778 19.1495 22.9129 18.2978 22.9519C17.4444 22.9907 17.1726 23.0002 14.9998 23.0002C12.8272 23.0002 12.5547 22.9907 11.7014 22.9519C10.8499 22.9129 10.2684 22.778 9.75937 22.5802C9.23353 22.3759 8.78719 22.1019 8.34268 21.6569C7.89785 21.2122 7.62451 20.7659 7.42001 20.2397C7.22234 19.731 7.0875 19.1497 7.04834 18.298C7.00967 17.4447 7 17.1728 7 15.0001C7 12.8274 7.01 12.5546 7.04817 11.7013C7.0865 10.8499 7.22151 10.2684 7.41984 9.75958C7.62484 9.23357 7.89818 8.78723 8.34318 8.34256C8.78786 7.89772 9.23419 7.62439 9.76036 7.42005C10.269 7.22222 10.8504 7.08738 11.7021 7.04838Z" fill="white"/>
<path fill-rule="evenodd" clip-rule="evenodd" d="M14.2831 8.44145C14.4225 8.44124 14.5724 8.4413 14.7341 8.44137L15.0008 8.44145C17.1368 8.44145 17.39 8.44912 18.2335 8.48745C19.0135 8.52312 19.4368 8.65346 19.7188 8.76296C20.0922 8.90796 20.3583 9.08129 20.6382 9.3613C20.9182 9.6413 21.0915 9.90797 21.2368 10.2813C21.3463 10.563 21.4769 10.9863 21.5124 11.7663C21.5507 12.6097 21.559 12.863 21.559 14.998C21.559 17.133 21.5507 17.3864 21.5124 18.2297C21.4767 19.0097 21.3463 19.4331 21.2368 19.7147C21.0918 20.0881 20.9182 20.3539 20.6382 20.6337C20.3582 20.9137 20.0923 21.0871 19.7188 21.2321C19.4372 21.3421 19.0135 21.4721 18.2335 21.5078C17.3901 21.5461 17.1368 21.5544 15.0008 21.5544C12.8646 21.5544 12.6114 21.5461 11.7681 21.5078C10.9881 21.4718 10.5647 21.3414 10.2826 21.2319C9.90923 21.0869 9.64256 20.9136 9.36256 20.6336C9.08256 20.3536 8.90922 20.0876 8.76389 19.7141C8.65439 19.4324 8.52388 19.0091 8.48838 18.2291C8.45005 17.3857 8.44238 17.1324 8.44238 14.996C8.44238 12.8597 8.45005 12.6077 8.48838 11.7643C8.52405 10.9843 8.65439 10.561 8.76389 10.279C8.90889 9.90563 9.08256 9.63897 9.36256 9.35896C9.64256 9.07896 9.90923 8.90562 10.2826 8.76029C10.5646 8.65029 10.9881 8.52029 11.7681 8.48445C12.5061 8.45112 12.7921 8.44112 14.2831 8.43945V8.44145ZM19.2712 9.76983C18.7412 9.76983 18.3111 10.1993 18.3111 10.7295C18.3111 11.2595 18.7412 11.6895 19.2712 11.6895C19.8012 11.6895 20.2312 11.2595 20.2312 10.7295C20.2312 10.1995 19.8012 9.7695 19.2712 9.7695V9.76983ZM10.8924 14.9998C10.8924 12.731 12.7318 10.8915 15.0006 10.8914C17.2695 10.8914 19.1085 12.731 19.1085 14.9998C19.1085 17.2687 17.2696 19.1074 15.0008 19.1074C12.7319 19.1074 10.8924 17.2687 10.8924 14.9998Z" fill="white"/>
<path d="M15.0007 12.333C16.4734 12.333 17.6674 13.5269 17.6674 14.9997C17.6674 16.4724 16.4734 17.6664 15.0007 17.6664C13.5278 17.6664 12.334 16.4724 12.334 14.9997C12.334 13.5269 13.5278 12.333 15.0007 12.333V12.333Z" fill="white"/>
</svg>
