<svg width="30" height="31" viewBox="0 0 30 31" fill="none" xmlns="http://www.w3.org/2000/svg">
<path fill-rule="evenodd" clip-rule="evenodd" d="M15 0.419922C6.71573 0.419922 0 7.13565 0 15.4199C0 23.7042 6.71573 30.4199 15 30.4199C23.2843 30.4199 30 23.7042 30 15.4199C30 7.13565 23.2843 0.419922 15 0.419922ZM7.20101 12.8435H10.6003V23.0571H7.20101V12.8435ZM10.8242 9.68411C10.8022 8.68267 10.086 7.91992 8.92315 7.91992C7.76026 7.91992 7 8.68267 7 9.68411C7 10.6648 7.73779 11.4495 8.87902 11.4495H8.90075C10.086 11.4495 10.8242 10.6648 10.8242 9.68411ZM18.9457 12.6037C21.1826 12.6037 22.8596 14.0638 22.8596 17.201L22.8595 23.0571H19.4603V17.5929C19.4603 16.2204 18.9684 15.2838 17.7378 15.2838C16.7987 15.2838 16.2393 15.9152 15.9936 16.525C15.9037 16.7436 15.8817 17.0481 15.8817 17.3533V23.0574H12.4819C12.4819 23.0574 12.5267 13.8022 12.4819 12.8438H15.8817V14.2905C16.3328 13.5951 17.1409 12.6037 18.9457 12.6037Z" fill="white"/>
</svg>
