<svg width="135" height="46" viewBox="0 0 135 46" fill="none" xmlns="http://www.w3.org/2000/svg">
<path d="M60.34 29.5998C65.24 29.5998 69.01 26.8298 69.01 22.7398C69.01 18.8898 65.83 16.9998 60.93 16.4998C59.12 16.2998 55.93 15.9798 55.93 15.0698C55.93 14.4598 57.62 14.0698 60.07 14.0698C62.87 14.0698 64.77 14.6298 64.77 15.3898H68.71C68.71 11.7398 65.21 8.81985 60.28 8.81985C55.61 8.81985 51.96 11.4498 51.96 15.4398C51.96 19.2398 55.32 21.3098 59.75 21.7398C61.68 21.9498 65.12 22.3298 65.12 23.2298C65.12 23.8998 63.12 24.3998 60.65 24.3998C57.71 24.3998 55.58 23.6998 55.58 22.8198H51.59C51.59 26.6098 55.24 29.6498 60.34 29.6498V29.5998ZM80.98 29.6498C83.027 29.5889 85.0106 28.9262 86.6831 27.7443C88.3556 26.5625 89.6428 24.9141 90.3839 23.005C91.1249 21.0958 91.287 19.0106 90.8498 17.01C90.4126 15.0093 89.3955 13.1817 87.9257 11.7557C86.4558 10.3297 84.5984 9.36845 82.5853 8.99201C80.5723 8.61557 78.493 8.84065 76.6072 9.63914C74.7214 10.4376 73.1126 11.7741 71.982 13.4816C70.8513 15.1891 70.2489 17.1919 70.25 19.2398C70.2505 20.6316 70.5311 22.0091 71.0752 23.2901C71.6193 24.5712 72.4158 25.7296 73.417 26.6963C74.4183 27.663 75.6039 28.4183 76.9032 28.9172C78.2026 29.416 79.589 29.6482 80.98 29.5998V29.6498ZM80.98 23.9098C77.13 23.9098 74.19 21.9098 74.19 19.1898C74.19 16.4698 77.13 14.4598 80.98 14.4598C84.83 14.4598 87.75 16.4598 87.75 19.1898C87.75 21.9198 84.83 23.9098 80.98 23.9098ZM97.71 23.6798V9.11984H93.91V29.2498H107.51V23.6798H97.71ZM109.49 29.2498H113.29V9.11984H109.49V29.2498ZM124.49 9.11984H116.42V29.2498H124.49C130.42 29.2498 134.88 24.9298 134.88 19.1898C134.88 13.4498 130.42 9.11984 124.49 9.11984ZM124.35 23.6798H120.21V14.6798H124.35C128.11 14.6798 130.91 16.6098 130.91 19.1698C130.91 21.7298 128.11 23.6698 124.35 23.6698" fill="white"/>
<path d="M45.42 22.66C45.4298 27.1542 44.1061 31.5502 41.6163 35.2916C39.1264 39.0331 35.5825 41.9516 31.4331 43.6779C27.2837 45.4041 22.7154 45.8604 18.3065 44.989C13.8976 44.1176 9.84644 41.9576 6.66578 38.7826C3.48512 35.6075 1.31803 31.5601 0.438825 27.1528C-0.440376 22.7455 0.00785613 18.1764 1.72678 14.0239C3.4457 9.87147 6.35802 6.32239 10.095 3.82596C13.8321 1.32954 18.2258 -0.00196587 22.72 2.17851e-06C25.701 2.17851e-06 28.6528 0.587156 31.4069 1.72794C34.161 2.86872 36.6634 4.54079 38.7713 6.64868C40.8792 8.75657 42.5512 11.259 43.692 14.0131C44.8328 16.7672 45.42 19.719 45.42 22.7" fill="white"/>
<path d="M21.6299 8.04004L9.2699 13.44V20.08L21.6299 25.48V19L16.4599 16.76L21.6299 14.52V8.04004Z" fill="#262961"/>
<path d="M23.8099 37.3001L36.1599 31.8901V25.2501L23.8099 19.8501V26.3301L28.9799 28.5701L23.8099 30.8101V37.3001Z" fill="#262961"/>
<path d="M55.6 40.08H52.13V35.02H55.6V35.8H53.02V37.11H55.54V37.9H53.02V39.3H55.6V40.08Z" fill="white"/>
<path d="M59.76 40.0799H58.96V37.7899C58.9766 37.6881 58.969 37.5839 58.938 37.4855C58.907 37.3871 58.8534 37.2974 58.7814 37.2235C58.7095 37.1496 58.6212 37.0936 58.5237 37.06C58.4262 37.0264 58.3222 37.0161 58.22 37.0299C58.0342 37.0302 57.8517 37.0784 57.69 37.1699C57.5343 37.2622 57.3956 37.3806 57.28 37.5199V40.0799H56.49V36.4199H57.28V36.9199C57.4354 36.7467 57.622 36.6043 57.83 36.4999C58.0592 36.3839 58.3132 36.3256 58.57 36.3299C58.7308 36.3181 58.8924 36.3385 59.0453 36.39C59.1981 36.4416 59.3391 36.5231 59.46 36.6299C59.5657 36.7474 59.6468 36.885 59.6983 37.0345C59.7498 37.1839 59.7708 37.3422 59.76 37.4999V40.0799Z" fill="white"/>
<path d="M62.2699 41.5698C61.7086 41.5876 61.1615 41.3909 60.7399 41.0198L61.1099 40.4398C61.2559 40.5998 61.4359 40.7251 61.6366 40.8064C61.8373 40.8878 62.0537 40.9231 62.2699 40.9098C62.5453 40.9231 62.817 40.842 63.0399 40.6798C63.1493 40.5873 63.2353 40.4702 63.291 40.3382C63.3466 40.2061 63.3702 40.0628 63.3599 39.9198V39.4798C63.2273 39.6694 63.0506 39.8239 62.8451 39.9302C62.6395 40.0364 62.4113 40.0912 62.1799 40.0898C61.9603 40.0966 61.7418 40.0554 61.5397 39.9691C61.3376 39.8827 61.1568 39.7533 61.0099 39.5898C60.7174 39.1892 60.5597 38.7059 60.5597 38.2098C60.5597 37.7137 60.7174 37.2305 61.0099 36.8298C61.1568 36.6664 61.3376 36.5369 61.5397 36.4506C61.7418 36.3642 61.9603 36.323 62.1799 36.3298C62.4095 36.3262 62.6366 36.3779 62.842 36.4806C63.0474 36.5833 63.2251 36.734 63.3599 36.9198V36.4198H64.1499V39.8898C64.1578 40.1716 64.1031 40.4516 63.9899 40.7098C63.8938 40.9203 63.7416 41.1002 63.5499 41.2298C63.3635 41.345 63.1614 41.4326 62.9499 41.4898C62.7272 41.5434 62.499 41.5703 62.2699 41.5698ZM62.4199 39.3798C62.6084 39.3759 62.7933 39.3279 62.9599 39.2398C63.1166 39.1529 63.253 39.0336 63.3599 38.8898V37.5198C63.2558 37.3735 63.1188 37.2537 62.9599 37.1698C62.7933 37.0817 62.6084 37.0338 62.4199 37.0298C62.2795 37.0275 62.1401 37.0548 62.0108 37.1099C61.8816 37.165 61.7654 37.2468 61.6699 37.3498C61.4887 37.5981 61.391 37.8975 61.391 38.2048C61.391 38.5122 61.4887 38.8116 61.6699 39.0598C61.7654 39.1629 61.8816 39.2446 62.0108 39.2997C62.1401 39.3549 62.2795 39.3822 62.4199 39.3798Z" fill="white"/>
<path d="M65.9899 35.02H65.1899V40.08H65.9899V35.02Z" fill="white"/>
<path d="M67.4099 35.9998C67.278 35.9979 67.1522 35.944 67.0599 35.8498C67.0142 35.8039 66.9782 35.7493 66.9541 35.6891C66.9301 35.629 66.9184 35.5646 66.9199 35.4998C66.9198 35.4367 66.9321 35.3742 66.9561 35.3159C66.9801 35.2575 67.0154 35.2045 67.0599 35.1598C67.1053 35.1127 67.1597 35.0752 67.2198 35.0494C67.2799 35.0237 67.3445 35.0102 67.4099 35.0098C67.4755 35.009 67.5405 35.0219 67.6008 35.0478C67.6611 35.0736 67.7153 35.1118 67.7599 35.1598C67.8077 35.2025 67.8458 35.255 67.8717 35.3136C67.8975 35.3722 67.9106 35.4357 67.9099 35.4998C67.912 35.5656 67.8997 35.631 67.8738 35.6914C67.8479 35.7519 67.809 35.806 67.7599 35.8498C67.7153 35.8978 67.6611 35.936 67.6008 35.9618C67.5405 35.9877 67.4755 36.0006 67.4099 35.9998ZM67.8099 40.1098H67.0199V36.4098H67.8099V40.1098Z" fill="white"/>
<path d="M70.0999 40.1698C69.8134 40.1844 69.5269 40.1414 69.2573 40.0435C68.9877 39.9456 68.7403 39.7948 68.5299 39.5998L68.8899 39.0198C69.0475 39.1823 69.2386 39.3086 69.4499 39.3898C69.6671 39.487 69.902 39.5381 70.1399 39.5398C70.3274 39.5554 70.5145 39.5059 70.6699 39.3998C70.7287 39.3625 70.777 39.3107 70.8103 39.2495C70.8435 39.1882 70.8606 39.1195 70.8599 39.0498C70.8562 38.9813 70.8324 38.9154 70.7915 38.8603C70.7506 38.8052 70.6944 38.7633 70.6299 38.7398C70.4528 38.6623 70.2686 38.602 70.0799 38.5598C69.8567 38.5207 69.6362 38.4673 69.4199 38.3998C69.21 38.3418 69.0199 38.2277 68.8699 38.0698C68.714 37.8979 68.6315 37.6718 68.6399 37.4398C68.6403 37.2871 68.6756 37.1365 68.7432 36.9996C68.8108 36.8626 68.9089 36.743 69.0299 36.6498C69.3153 36.428 69.6685 36.3114 70.0299 36.3198C70.5548 36.3083 71.065 36.4938 71.4599 36.8398L71.1299 37.3998C70.9997 37.2588 70.8389 37.1493 70.6599 37.0798C70.4795 37.0199 70.2899 36.9928 70.0999 36.9998C69.9239 36.9915 69.7496 37.0369 69.5999 37.1298C69.5447 37.1629 69.499 37.2098 69.4674 37.2659C69.4358 37.3221 69.4195 37.3854 69.4199 37.4498C69.4199 37.5012 69.4351 37.5514 69.4636 37.5941C69.4921 37.6368 69.5325 37.6701 69.5799 37.6898C69.7066 37.7618 69.8457 37.8093 69.9899 37.8298C70.1599 37.8298 70.3299 37.9098 70.5299 37.9598C70.7112 38.0094 70.8884 38.073 71.0599 38.1498C71.2277 38.2192 71.3707 38.3377 71.4699 38.4898C71.6081 38.7122 71.6599 38.9774 71.6157 39.2354C71.5715 39.4934 71.4342 39.7262 71.2299 39.8898C70.903 40.1191 70.5086 40.2318 70.1099 40.2098" fill="white"/>
<path d="M75.6999 40.08H74.9099V37.77C74.9186 37.6663 74.9052 37.5619 74.8707 37.4637C74.8363 37.3654 74.7815 37.2756 74.7099 37.2C74.5532 37.0787 74.3578 37.0183 74.1599 37.03C73.9744 37.0325 73.7924 37.0805 73.6299 37.17C73.4761 37.2649 73.3378 37.383 73.2199 37.52V40.08H72.4299V35H73.2199V36.9C73.3754 36.7268 73.5619 36.5844 73.7699 36.48C74.0023 36.3628 74.2598 36.3044 74.5199 36.31C74.68 36.278 74.8454 36.2856 75.0018 36.3322C75.1582 36.3788 75.3008 36.463 75.4172 36.5774C75.5336 36.6918 75.6202 36.833 75.6695 36.9886C75.7188 37.1442 75.7292 37.3094 75.6999 37.47V40.08Z" fill="white"/>
<path d="M79.6699 40.08H78.8699V37.08H78.2699V36.38H78.8699V36.18C78.8538 35.8405 78.9683 35.5078 79.1899 35.25C79.2996 35.1367 79.4321 35.0478 79.5786 34.9892C79.7251 34.9306 79.8823 34.9037 80.0399 34.91C80.2006 34.9011 80.3614 34.9248 80.5127 34.9798C80.664 35.0348 80.8025 35.12 80.9199 35.23L80.6099 35.73C80.4934 35.6218 80.3388 35.5643 80.1799 35.57C80.111 35.5663 80.0421 35.5779 79.9782 35.6038C79.9142 35.6297 79.8568 35.6694 79.8099 35.72C79.7104 35.852 79.6608 36.015 79.6699 36.18V36.38H80.4199V37.08H79.6699V40.08Z" fill="white"/>
<path d="M82.6699 40.1699C82.4163 40.1795 82.1637 40.1344 81.929 40.0378C81.6944 39.9412 81.4832 39.7953 81.3099 39.6099C80.9695 39.2354 80.7837 38.7459 80.7899 38.2399C80.7801 37.7362 80.9666 37.2485 81.3099 36.8799C81.4832 36.6945 81.6944 36.5485 81.929 36.4519C82.1637 36.3553 82.4163 36.3103 82.6699 36.3199C82.9266 36.3093 83.1825 36.3539 83.4205 36.4505C83.6586 36.547 83.8732 36.6935 84.0499 36.8799C84.3905 37.2495 84.5735 37.7374 84.5599 38.2399C84.5714 38.748 84.3891 39.2414 84.0499 39.6199C83.8731 39.8055 83.6582 39.9508 83.42 40.0457C83.1819 40.1406 82.926 40.183 82.6699 40.1699ZM82.6699 39.4699C82.8192 39.4762 82.9678 39.4468 83.1034 39.3842C83.2391 39.3216 83.3579 39.2275 83.4499 39.1099C83.6373 38.8604 83.7387 38.5569 83.7387 38.2449C83.7387 37.9329 83.6373 37.6293 83.4499 37.3799C83.3561 37.2649 83.2379 37.1722 83.1039 37.1085C82.9698 37.0449 82.8233 37.0118 82.6749 37.0118C82.5265 37.0118 82.38 37.0449 82.2459 37.1085C82.1119 37.1722 81.9937 37.2649 81.8999 37.3799C81.7133 37.6273 81.6148 37.93 81.6199 38.2399C81.6067 38.554 81.706 38.8625 81.8999 39.1099C81.9904 39.2268 82.1075 39.3204 82.2414 39.383C82.3753 39.4456 82.5222 39.4754 82.6699 39.4699Z" fill="white"/>
<path d="M86.16 40.0799H85.37V36.4099H86.16V36.9999C86.3068 36.8167 86.4909 36.6667 86.7 36.5599C86.9002 36.4425 87.1279 36.3804 87.36 36.3799V37.1699H87.11C86.9204 37.175 86.735 37.2265 86.57 37.3199C86.4112 37.3947 86.2736 37.5082 86.17 37.6499V40.1499L86.16 40.0799Z" fill="white"/>
<path d="M90.86 35.02H89.97V40.08H90.86V35.02Z" fill="white"/>
<path d="M94.03 40.08H93.14V35.8H91.61V35.02H95.56V35.8H94.03V40.08Z" fill="white"/>
<path d="M102.48 40.08H101.48C101.326 39.941 101.179 39.7942 101.04 39.64C100.648 39.9848 100.142 40.1734 99.6199 40.17C99.1981 40.191 98.7829 40.0597 98.4499 39.8C98.2953 39.6697 98.1732 39.5051 98.0934 39.3194C98.0135 39.1337 97.9781 38.9318 97.9899 38.73C97.9728 38.4137 98.0765 38.1028 98.2799 37.86C98.5107 37.6092 98.7851 37.4025 99.0899 37.25C98.8769 36.9169 98.7529 36.5347 98.7299 36.14C98.7277 35.9768 98.7615 35.8151 98.8289 35.6665C98.8963 35.5178 98.9957 35.3859 99.1199 35.28C99.3855 35.0698 99.7115 34.9506 100.05 34.9398C100.388 34.929 100.721 35.0272 101 35.22C101.116 35.309 101.209 35.4243 101.272 35.5565C101.334 35.6886 101.365 35.8338 101.36 35.98C101.36 36.1516 101.326 36.3215 101.26 36.48C101.184 36.6296 101.079 36.7623 100.95 36.87C100.826 36.9688 100.696 37.059 100.56 37.14L100.09 37.39C100.244 37.6067 100.411 37.8138 100.59 38.01C100.78 38.24 100.94 38.43 101.09 38.59C101.297 38.2785 101.465 37.9426 101.59 37.59L102.24 37.88C102.05 38.3227 101.815 38.7449 101.54 39.14C101.82 39.44 102.14 39.77 102.54 40.14L102.48 40.08ZM99.7399 39.59C100.063 39.5847 100.373 39.46 100.61 39.24C100.29 38.89 100.08 38.66 99.9899 38.54C99.8999 38.42 99.5899 38.04 99.4299 37.81C99.2638 37.8988 99.1238 38.0295 99.0238 38.1891C98.9238 38.3488 98.8673 38.5318 98.8599 38.72C98.8554 38.839 98.8762 38.9576 98.9211 39.068C98.9659 39.1783 99.0337 39.2779 99.1199 39.36C99.2899 39.5126 99.5115 39.5948 99.7399 39.59ZM99.5599 36.22C99.5748 36.4909 99.6611 36.7531 99.8099 36.98C100.043 36.8807 100.259 36.7457 100.45 36.58C100.52 36.5168 100.575 36.4396 100.613 36.3534C100.651 36.2673 100.67 36.1741 100.67 36.08C100.673 36.0127 100.661 35.9455 100.635 35.8833C100.609 35.8211 100.57 35.7654 100.52 35.72C100.42 35.6333 100.292 35.587 100.16 35.59C100.08 35.588 99.9998 35.603 99.9257 35.634C99.8515 35.6651 99.7848 35.7114 99.7299 35.77C99.672 35.8292 99.6271 35.8998 99.5978 35.9772C99.5686 36.0547 99.5557 36.1373 99.5599 36.22Z" fill="white"/>
<path d="M107.66 40.0801H105.1V35.0001H107.59C107.782 34.9888 107.975 35.0156 108.157 35.0791C108.339 35.1426 108.506 35.2415 108.65 35.3701C108.774 35.4885 108.872 35.6315 108.937 35.7899C109.003 35.9484 109.034 36.1187 109.03 36.2901C109.039 36.5681 108.951 36.8405 108.78 37.0601C108.624 37.2616 108.4 37.4001 108.15 37.4501C108.429 37.4931 108.681 37.6439 108.85 37.8701C109.037 38.1021 109.136 38.3924 109.13 38.6901C109.139 38.8749 109.109 39.0595 109.042 39.2319C108.975 39.4042 108.872 39.5604 108.74 39.6901C108.444 39.9546 108.056 40.0912 107.66 40.0701V40.0801ZM107.41 37.0701C107.504 37.0762 107.599 37.0634 107.688 37.0325C107.777 37.0016 107.86 36.9532 107.93 36.8901C107.993 36.8299 108.043 36.7569 108.076 36.6758C108.109 36.5947 108.124 36.5075 108.12 36.4201C108.125 36.3311 108.11 36.2422 108.077 36.1594C108.045 36.0765 107.994 36.0017 107.93 35.9401C107.86 35.877 107.777 35.8286 107.688 35.7977C107.599 35.7668 107.504 35.754 107.41 35.7601H105.99V37.0701H107.41ZM107.41 39.2601C107.617 39.2732 107.822 39.2051 107.98 39.0701C108.049 39.0028 108.102 38.9216 108.137 38.8319C108.171 38.7421 108.186 38.646 108.18 38.5501C108.18 38.3638 108.109 38.1846 107.98 38.0501C107.823 37.9124 107.619 37.8408 107.41 37.8501H105.95V39.3001L107.41 39.2601Z" fill="white"/>
<path d="M113.26 40.0799H112.47V39.5899C112.309 39.7764 112.11 39.9251 111.885 40.0254C111.66 40.1256 111.416 40.175 111.17 40.1699C111.01 40.2005 110.844 40.1915 110.688 40.1435C110.532 40.0956 110.39 40.0102 110.275 39.8948C110.16 39.7794 110.074 39.6375 110.026 39.4815C109.978 39.3255 109.969 39.1602 110 38.9999V36.3999H110.79V38.7099C110.781 38.8129 110.793 38.9167 110.825 39.0148C110.858 39.1128 110.911 39.2031 110.98 39.2799C111.134 39.4055 111.332 39.4665 111.53 39.4499C111.718 39.4522 111.904 39.4075 112.07 39.3199C112.227 39.2338 112.364 39.1143 112.47 38.9699V36.4099H113.26V40.0799Z" fill="white"/>
<path d="M115.55 40.17C115.263 40.1845 114.977 40.1416 114.707 40.0437C114.438 39.9458 114.19 39.7949 113.98 39.6L114.34 39.02C114.5 39.1801 114.69 39.3061 114.9 39.39C115.117 39.4871 115.352 39.5382 115.59 39.54C115.777 39.5555 115.965 39.5061 116.12 39.4C116.179 39.3626 116.227 39.3108 116.26 39.2496C116.294 39.1883 116.311 39.1196 116.31 39.05C116.306 38.9814 116.282 38.9155 116.242 38.8604C116.201 38.8053 116.144 38.7634 116.08 38.74C115.904 38.6606 115.719 38.6003 115.53 38.56C115.31 38.522 115.093 38.4686 114.88 38.4C114.667 38.3422 114.474 38.2282 114.32 38.07C114.167 37.897 114.088 37.6707 114.1 37.44C114.099 37.2881 114.133 37.138 114.199 37.0011C114.265 36.8642 114.361 36.7441 114.48 36.65C114.782 36.4154 115.158 36.2981 115.54 36.32C116.064 36.3113 116.574 36.4965 116.97 36.84L116.63 37.4C116.502 37.2614 116.345 37.1522 116.17 37.08C115.973 36.9989 115.763 36.9581 115.55 36.96C115.374 36.9483 115.198 36.9939 115.05 37.09C114.994 37.1225 114.946 37.1691 114.913 37.2251C114.88 37.2812 114.862 37.3448 114.86 37.41C114.863 37.4618 114.881 37.5117 114.911 37.5541C114.941 37.5965 114.982 37.6297 115.03 37.65C115.156 37.7234 115.295 37.7709 115.44 37.79L115.97 37.92C116.16 37.98 116.34 38.04 116.51 38.11C116.675 38.1842 116.817 38.3016 116.92 38.45C117.058 38.6723 117.11 38.9375 117.066 39.1955C117.022 39.4535 116.884 39.6864 116.68 39.85C116.349 40.0779 115.952 40.1903 115.55 40.17Z" fill="white"/>
<path d="M118.27 36C118.206 36 118.143 35.9867 118.084 35.9609C118.026 35.935 117.973 35.8973 117.93 35.85C117.881 35.8062 117.842 35.7521 117.816 35.6916C117.79 35.6312 117.778 35.5658 117.78 35.5C117.779 35.4359 117.792 35.3724 117.818 35.3138C117.844 35.2551 117.882 35.2027 117.93 35.16C117.973 35.1127 118.026 35.075 118.084 35.0491C118.143 35.0233 118.206 35.01 118.27 35.01C118.336 35.0079 118.401 35.0202 118.462 35.0462C118.522 35.0721 118.576 35.1109 118.62 35.16C118.666 35.2032 118.703 35.256 118.727 35.3147C118.751 35.3734 118.762 35.4366 118.76 35.5C118.763 35.565 118.752 35.6299 118.728 35.6904C118.704 35.7508 118.667 35.8052 118.62 35.85C118.576 35.8991 118.522 35.9379 118.462 35.9638C118.401 35.9898 118.336 36.0021 118.27 36ZM118.67 40.11H117.88V36.41H118.67V40.11Z" fill="white"/>
<path d="M122.98 40.0799H122.18V37.7899C122.197 37.6881 122.189 37.5839 122.158 37.4855C122.127 37.3871 122.073 37.2974 122.001 37.2235C121.929 37.1496 121.841 37.0936 121.744 37.06C121.646 37.0264 121.542 37.0161 121.44 37.0299C121.254 37.0302 121.072 37.0784 120.91 37.1699C120.754 37.2622 120.616 37.3806 120.5 37.5199V40.0799H119.71V36.4199H120.5V36.9199C120.655 36.7467 120.842 36.6043 121.05 36.4999C121.279 36.3839 121.533 36.3256 121.79 36.3299C121.951 36.3181 122.112 36.3385 122.265 36.39C122.418 36.4416 122.559 36.5231 122.68 36.6299C122.786 36.7474 122.867 36.885 122.918 37.0345C122.97 37.1839 122.991 37.3422 122.98 37.4999V40.0799Z" fill="white"/>
<path d="M125.7 40.1698C125.444 40.1797 125.189 40.1365 124.951 40.0429C124.713 39.9493 124.497 39.8073 124.317 39.626C124.136 39.4446 123.995 39.2277 123.903 38.9892C123.811 38.7506 123.769 38.4954 123.78 38.2398C123.771 37.7344 123.961 37.2457 124.31 36.8798C124.479 36.6973 124.685 36.5529 124.915 36.4563C125.144 36.3598 125.391 36.3132 125.64 36.3198C125.886 36.3115 126.131 36.3573 126.357 36.4541C126.584 36.5508 126.786 36.6962 126.95 36.8798C127.287 37.2822 127.461 37.7956 127.44 38.3198V38.5098H124.62C124.64 38.7858 124.765 39.0435 124.97 39.2298C125.193 39.4267 125.483 39.5305 125.78 39.5198C125.975 39.5171 126.168 39.4799 126.35 39.4098C126.528 39.3484 126.689 39.2456 126.82 39.1098L127.19 39.6398C126.782 40.0048 126.247 40.1951 125.7 40.1698ZM126.7 37.9498C126.692 37.6986 126.596 37.4582 126.43 37.2698C126.332 37.1691 126.213 37.0904 126.082 37.0387C125.951 36.987 125.811 36.9635 125.67 36.9698C125.533 36.9663 125.396 36.9911 125.269 37.0428C125.141 37.0944 125.026 37.1717 124.93 37.2698C124.76 37.4576 124.658 37.697 124.64 37.9498H126.7Z" fill="white"/>
<path d="M129.49 40.1701C129.203 40.1858 128.917 40.1434 128.647 40.0454C128.377 39.9475 128.13 39.796 127.92 39.6001L128.28 39.0201C128.436 39.1803 128.623 39.3063 128.83 39.3901C129.051 39.4865 129.289 39.5375 129.53 39.5401C129.717 39.5556 129.905 39.5062 130.06 39.4001C130.117 39.3614 130.165 39.3094 130.198 39.2485C130.231 39.1875 130.249 39.1195 130.25 39.0501C130.246 38.9816 130.222 38.9157 130.182 38.8606C130.141 38.8054 130.084 38.7636 130.02 38.7401C129.84 38.6609 129.652 38.6006 129.46 38.5601C129.24 38.5198 129.023 38.4664 128.81 38.4001C128.6 38.3421 128.41 38.228 128.26 38.0701C128.104 37.8982 128.021 37.6721 128.03 37.4401C128.03 37.2874 128.066 37.1368 128.133 36.9999C128.201 36.8629 128.299 36.7433 128.42 36.6501C128.719 36.417 129.092 36.2998 129.47 36.3201C129.995 36.3086 130.505 36.4941 130.9 36.8401L130.57 37.4001C130.441 37.2615 130.285 37.1524 130.11 37.0801C129.91 36.9991 129.696 36.9583 129.48 36.9601C129.307 36.9499 129.135 36.9955 128.99 37.0901C128.932 37.1211 128.884 37.1673 128.85 37.2237C128.817 37.2801 128.799 37.3445 128.8 37.4101C128.8 37.4615 128.815 37.5116 128.844 37.5544C128.872 37.5971 128.913 37.6304 128.96 37.6501C129.087 37.7221 129.226 37.7696 129.37 37.7901C129.54 37.7901 129.72 37.8701 129.91 37.9201C130.09 37.9742 130.267 38.0376 130.44 38.1101C130.608 38.1795 130.751 38.298 130.85 38.4501C130.927 38.5576 130.981 38.6792 131.011 38.808C131.04 38.9367 131.044 39.07 131.022 39.2001C130.999 39.3303 130.951 39.4548 130.881 39.5663C130.81 39.6779 130.718 39.7743 130.61 39.8501C130.283 40.0794 129.889 40.1921 129.49 40.1701Z" fill="white"/>
<path d="M133.1 40.1698C132.813 40.1855 132.527 40.1431 132.257 40.0452C131.987 39.9472 131.74 39.7957 131.53 39.5998L131.89 39.0198C132.046 39.18 132.233 39.306 132.44 39.3898C132.661 39.4862 132.899 39.5372 133.14 39.5398C133.327 39.5554 133.515 39.5059 133.67 39.3998C133.727 39.3611 133.775 39.3091 133.808 39.2482C133.841 39.1872 133.859 39.1192 133.86 39.0498C133.856 38.9813 133.832 38.9154 133.792 38.8603C133.751 38.8052 133.694 38.7633 133.63 38.7398C133.45 38.6606 133.262 38.6003 133.07 38.5598C132.85 38.5195 132.633 38.4661 132.42 38.3998C132.21 38.3418 132.02 38.2277 131.87 38.0698C131.714 37.8979 131.631 37.6718 131.64 37.4398C131.64 37.2871 131.676 37.1365 131.743 36.9996C131.811 36.8626 131.909 36.743 132.03 36.6498C132.315 36.428 132.669 36.3114 133.03 36.3198C133.555 36.3083 134.065 36.4938 134.46 36.8398L134.13 37.3998C134.001 37.2612 133.845 37.1521 133.67 37.0798C133.486 37.0198 133.293 36.9927 133.1 36.9998C132.927 36.9896 132.755 37.0352 132.61 37.1298C132.552 37.1608 132.504 37.207 132.47 37.2634C132.437 37.3198 132.419 37.3843 132.42 37.4498C132.422 37.5006 132.438 37.5497 132.467 37.592C132.495 37.6343 132.534 37.6681 132.58 37.6898C132.707 37.7618 132.846 37.8093 132.99 37.8298C133.16 37.8298 133.34 37.9098 133.53 37.9598C133.71 38.0139 133.887 38.0774 134.06 38.1498C134.228 38.2192 134.371 38.3377 134.47 38.4898C134.547 38.5973 134.601 38.7189 134.631 38.8477C134.66 38.9764 134.664 39.1097 134.642 39.2399C134.619 39.37 134.571 39.4945 134.501 39.606C134.43 39.7176 134.338 39.8141 134.23 39.8898C133.903 40.1191 133.509 40.2318 133.11 40.2098" fill="white"/>
</svg>
