<svg width="18" height="11" viewBox="0 0 18 11" fill="none" xmlns="http://www.w3.org/2000/svg">
<path d="M17.7123 1.07347L17.1227 0.479759C16.9371 0.294343 16.6902 0.192196 16.4264 0.192196C16.1627 0.192196 15.9155 0.294343 15.7299 0.479759L9.00402 7.20596L2.27036 0.472293C2.08509 0.286877 1.83792 0.184876 1.57421 0.184876C1.3105 0.184876 1.06318 0.286877 0.877763 0.472293L0.288002 1.06235C-0.096001 1.44606 -0.0960011 2.07109 0.288002 2.4548L8.30524 10.5009C8.49051 10.6861 8.73739 10.8167 9.00344 10.8167L9.00651 10.8167C9.27037 10.8167 9.51725 10.686 9.70252 10.5009L17.7123 2.4766C17.8979 2.29133 17.9997 2.03699 18 1.77328C18 1.50943 17.8979 1.25859 17.7123 1.07347Z" fill="#262961"/>
</svg>
