<svg width="34" height="34" viewBox="0 0 34 34" fill="none" xmlns="http://www.w3.org/2000/svg">
<path fill-rule="evenodd" clip-rule="evenodd" d="M4.72741 13.294C2.69635 15.7921 2 16.7578 2 17.076C2 17.393 2.67817 18.3419 4.62716 20.7518C7.0974 23.8061 7.28635 24 7.79202 24C8.41842 24 8.77885 23.5209 8.77885 22.6882C8.77885 22.2525 8.43558 21.7391 6.73005 19.6232L4.68111 17.0817L6.73005 14.5402C8.58572 12.2382 8.77885 11.9396 8.77885 11.3745C8.77885 10.6732 8.48808 10.2567 7.86443 10.0653C7.48092 9.94752 7.28144 10.1528 4.72741 13.294ZM21.2548 10.1618C21.0962 10.2443 18.7974 12.9864 16.1466 16.2552C11.916 21.4722 11.327 22.2649 11.327 22.7421C11.327 23.5068 11.7366 24 12.3718 24C12.8616 24 13.1678 23.6596 17.782 17.9825C22.1257 12.6384 22.673 11.9027 22.673 11.4091C22.673 10.5157 21.8932 9.82973 21.2548 10.1618ZM25.9423 10.1118C25.473 10.3241 25.2212 10.7651 25.2212 11.3745C25.2212 11.9396 25.4143 12.2382 27.27 14.5402L29.3189 17.0817L27.27 19.6232C25.5644 21.7391 25.2212 22.2525 25.2212 22.6882C25.2212 23.5209 25.5816 24 26.208 24C26.7137 24 26.9026 23.8061 29.3728 20.7518C31.3218 18.3419 32 17.393 32 17.076C32 16.7578 31.3078 15.7972 29.2915 13.3173C27.8017 11.4852 26.4875 9.9924 26.3708 10C26.2541 10.0077 26.0613 10.058 25.9423 10.1118Z" fill="#262961"/>
</svg>
