<svg width="34" height="34" viewBox="0 0 34 34" fill="none" xmlns="http://www.w3.org/2000/svg">
<path fill-rule="evenodd" clip-rule="evenodd" d="M13.7707 6.04534C13.172 6.1624 12.5664 6.63017 12.3115 7.17248C12.1389 7.5398 12.0781 7.85453 12.0781 8.38157V8.79529H8.81497H5.55181L5.36483 8.89994C5.25509 8.96136 5.14109 9.07627 5.08892 9.17812C5.00267 9.34647 5 9.58591 5 17.1884C5 22.3237 5.0165 25.1117 5.04786 25.2764C5.20752 26.1146 5.88739 26.7916 6.72927 26.9506C7.0782 27.0165 26.9218 27.0165 27.2707 26.9506C27.6689 26.8754 28.083 26.6572 28.3702 26.3712C28.6575 26.0851 28.8766 25.6729 28.9521 25.2764C28.9835 25.1118 29 22.3274 29 17.2001V9.37517L28.8945 9.16691C28.696 8.77485 28.9013 8.79543 25.1914 8.79539L21.9219 8.79529V8.38157C21.9219 8.15408 21.9004 7.85486 21.874 7.7167C21.7144 6.87843 21.0345 6.20147 20.1926 6.0425C19.8834 5.98411 14.0707 5.98667 13.7707 6.04534ZM20.1418 7.48902C20.4217 7.63119 20.5156 7.85346 20.5156 8.37336V8.79529H17H13.4844V8.37336C13.4844 7.86176 13.5787 7.63297 13.8482 7.49131C14.0172 7.40249 14.129 7.39913 16.9902 7.39712C19.8731 7.39511 19.9621 7.39773 20.1418 7.48902ZM27.301 10.2539C27.2891 10.286 26.7891 11.778 26.1899 13.5695C25.4241 15.859 25.066 16.8674 24.9847 16.9636C24.921 17.0389 24.7912 17.1221 24.6962 17.1483C24.5908 17.1775 23.7418 17.1962 22.5195 17.1964L20.5156 17.1966V16.7747C20.5156 16.2548 20.4217 16.0325 20.1418 15.8904C19.9622 15.7992 19.871 15.7964 17 15.7964C14.129 15.7964 14.0378 15.7992 13.8582 15.8904C13.5783 16.0325 13.4844 16.2548 13.4844 16.7747V17.1966L11.4805 17.1964C10.2583 17.1962 9.40916 17.1775 9.30378 17.1483C9.20877 17.1221 9.07897 17.0389 9.01531 16.9636C8.93398 16.8674 8.57591 15.859 7.81006 13.5695C7.21086 11.778 6.71089 10.286 6.69903 10.2539C6.68183 10.2073 8.76172 10.1955 17 10.1955C25.2383 10.1955 27.3182 10.2073 27.301 10.2539ZM7.67042 17.4746C7.8237 17.7727 8.23906 18.187 8.53316 18.3351C9.03589 18.5884 9.116 18.5957 11.3867 18.5963L13.4844 18.5969V19.0188C13.4844 19.5387 13.5783 19.761 13.8582 19.9031C14.0378 19.9943 14.129 19.9971 17 19.9971C19.871 19.9971 19.9622 19.9943 20.1418 19.9031C20.4217 19.761 20.5156 19.5387 20.5156 19.0188V18.5969L22.6133 18.5963C24.884 18.5957 24.9641 18.5884 25.4668 18.3351C25.7609 18.187 26.1763 17.7727 26.3296 17.4746C26.3884 17.3602 26.6952 16.5 27.0115 15.5631L27.5864 13.8594L27.5901 19.4505C27.5937 24.9657 27.5925 25.0441 27.4994 25.2258C27.4386 25.3444 27.3391 25.4436 27.22 25.504C27.0363 25.5973 26.9648 25.598 17 25.598C7.03517 25.598 6.96373 25.5973 6.78003 25.504C6.66092 25.4436 6.56136 25.3444 6.50061 25.2258C6.40752 25.0441 6.4063 24.9657 6.40991 19.4505L6.41356 13.8594L6.98853 15.5631C7.30475 16.5 7.61159 17.3602 7.67042 17.4746ZM19.1094 17.8968V18.5969H17H14.8906V17.8968V17.1966H17H19.1094V17.8968Z" fill="#262961"/>
</svg>
