<svg width="32" height="32" viewBox="0 0 32 32" fill="none" xmlns="http://www.w3.org/2000/svg">
<path d="M26.4954 28C13.6989 28.018 3.98641 18.19 3.99991 5.5045C3.99991 4.675 4.67191 4 5.49991 4H9.4599C10.2024 4 10.8339 4.546 10.9434 5.281C11.2046 7.04358 11.7173 8.75957 12.4659 10.3765L12.6204 10.7095C12.7242 10.9336 12.7465 11.1869 12.6835 11.4256C12.6205 11.6644 12.4762 11.8737 12.2754 12.0175C11.0484 12.8935 10.5804 14.656 11.5359 16.03C12.7344 17.755 14.2449 19.267 15.9699 20.4655C17.3454 21.4195 19.1079 20.9515 19.9824 19.726C20.126 19.5246 20.3355 19.3797 20.5746 19.3164C20.8137 19.2531 21.0675 19.2755 21.2919 19.3795L21.6234 19.5325C23.2404 20.2825 24.9564 20.7955 26.7189 21.0565C27.4539 21.166 27.9999 21.7975 27.9999 22.5415V26.5C27.9999 26.6971 27.961 26.8923 27.8856 27.0744C27.8101 27.2564 27.6995 27.4219 27.56 27.5612C27.4206 27.7005 27.255 27.8109 27.0729 27.8862C26.8907 27.9615 26.6955 28.0002 26.4984 28H26.4954Z" fill="#262961"/>
</svg>
