<svg width="34" height="34" viewBox="0 0 34 34" fill="none" xmlns="http://www.w3.org/2000/svg">
<mask id="path-1-inside-1_1683_17764" fill="white">
<path fill-rule="evenodd" clip-rule="evenodd" d="M15.6395 4.08774C14.1007 4.34881 12.5839 5.18962 11.6096 6.32162C9.45657 8.82321 9.35152 12.3279 11.2304 14.8704C10.4438 15.5651 9.70723 16.3151 9.09662 16.9907C8.79304 17.2803 8.38075 17.7459 8.07724 18.1562C7.97418 18.2956 7.87476 18.4372 7.779 18.5811L7.75993 18.6073L7.76107 18.6081C6.71187 20.1951 6.10849 22.0482 6.00939 24.0023C5.95038 25.1651 6.16045 25.7673 6.89931 26.5535C9.5207 29.3428 17.6139 30.2866 23.2073 28.4554C24.7387 27.954 25.8567 27.3217 26.588 26.5435C27.3169 25.7679 27.5273 25.1605 27.4685 24.0023C27.3376 21.4218 26.307 18.9829 24.5935 17.1989C24.5753 17.18 24.5574 17.1615 24.5398 17.1435C23.8911 16.4134 23.085 15.6317 22.1878 14.9468C22.6416 14.3351 23.0183 13.6342 23.2351 12.9692C24.267 9.80416 22.862 6.33463 19.9293 4.80596C18.5825 4.10387 17.0534 3.84787 15.6395 4.08774ZM20.8376 16.3038C18.333 18.1635 14.9697 18.1187 12.5541 16.2304C11.8619 16.836 11.2066 17.4945 10.6538 18.0959C10.5638 18.2368 10.4276 18.3995 10.2307 18.6125C8.90699 20.0446 8.08683 21.9896 7.96466 23.9863C7.91732 24.7592 7.97786 24.9207 8.49364 25.3982C9.28094 26.1271 11.0489 26.8056 13.0434 27.1442C17.6578 27.9275 23.1533 27.1098 25.022 25.3617C25.5083 24.9067 25.564 24.7462 25.5119 23.9499C25.38 21.9383 24.5666 20.0456 23.1927 18.5536C23.005 18.3498 22.8661 18.177 22.7723 18.0209C22.2209 17.4401 21.5609 16.8327 20.8376 16.3038ZM17.4908 6.02017C20.1084 6.42522 21.9493 8.90446 21.5681 11.5115C21.058 15 17.1772 16.8301 14.1891 14.9912C12.4808 13.9399 11.5669 11.9024 11.9387 9.97378C12.4479 7.33212 14.8616 5.61336 17.4908 6.02017Z"/>
</mask>
<path fill-rule="evenodd" clip-rule="evenodd" d="M15.6395 4.08774C14.1007 4.34881 12.5839 5.18962 11.6096 6.32162C9.45657 8.82321 9.35152 12.3279 11.2304 14.8704C10.4438 15.5651 9.70723 16.3151 9.09662 16.9907C8.79304 17.2803 8.38075 17.7459 8.07724 18.1562C7.97418 18.2956 7.87476 18.4372 7.779 18.5811L7.75993 18.6073L7.76107 18.6081C6.71187 20.1951 6.10849 22.0482 6.00939 24.0023C5.95038 25.1651 6.16045 25.7673 6.89931 26.5535C9.5207 29.3428 17.6139 30.2866 23.2073 28.4554C24.7387 27.954 25.8567 27.3217 26.588 26.5435C27.3169 25.7679 27.5273 25.1605 27.4685 24.0023C27.3376 21.4218 26.307 18.9829 24.5935 17.1989C24.5753 17.18 24.5574 17.1615 24.5398 17.1435C23.8911 16.4134 23.085 15.6317 22.1878 14.9468C22.6416 14.3351 23.0183 13.6342 23.2351 12.9692C24.267 9.80416 22.862 6.33463 19.9293 4.80596C18.5825 4.10387 17.0534 3.84787 15.6395 4.08774ZM20.8376 16.3038C18.333 18.1635 14.9697 18.1187 12.5541 16.2304C11.8619 16.836 11.2066 17.4945 10.6538 18.0959C10.5638 18.2368 10.4276 18.3995 10.2307 18.6125C8.90699 20.0446 8.08683 21.9896 7.96466 23.9863C7.91732 24.7592 7.97786 24.9207 8.49364 25.3982C9.28094 26.1271 11.0489 26.8056 13.0434 27.1442C17.6578 27.9275 23.1533 27.1098 25.022 25.3617C25.5083 24.9067 25.564 24.7462 25.5119 23.9499C25.38 21.9383 24.5666 20.0456 23.1927 18.5536C23.005 18.3498 22.8661 18.177 22.7723 18.0209C22.2209 17.4401 21.5609 16.8327 20.8376 16.3038ZM17.4908 6.02017C20.1084 6.42522 21.9493 8.90446 21.5681 11.5115C21.058 15 17.1772 16.8301 14.1891 14.9912C12.4808 13.9399 11.5669 11.9024 11.9387 9.97378C12.4479 7.33212 14.8616 5.61336 17.4908 6.02017Z" fill="#262961"/>
<path d="M11.6096 6.32162L11.4899 6.21858V6.21858L11.6096 6.32162ZM15.6395 4.08774L15.613 3.93202L15.613 3.93202L15.6395 4.08774ZM11.2304 14.8704L11.335 14.9888L11.4435 14.893L11.3574 14.7766L11.2304 14.8704ZM9.09662 16.9907L9.20595 17.1053L9.2138 17.0966L9.09662 16.9907ZM8.07724 18.1562L8.20423 18.2502L8.07724 18.1562ZM7.779 18.5811L7.90685 18.6741L7.91049 18.6686L7.779 18.5811ZM7.75993 18.6073L7.6322 18.5144L7.53911 18.6424L7.66727 18.7352L7.75993 18.6073ZM7.76107 18.6081L7.89283 18.6952L7.97629 18.569L7.85373 18.4802L7.76107 18.6081ZM6.00939 24.0023L6.16714 24.0103L6.16714 24.0103L6.00939 24.0023ZM6.89931 26.5535L6.78421 26.6616L6.78421 26.6616L6.89931 26.5535ZM23.2073 28.4554L23.2565 28.6055L23.2073 28.4554ZM26.588 26.5435L26.4729 26.4353L26.4729 26.4353L26.588 26.5435ZM27.4685 24.0023L27.3108 24.0103V24.0103L27.4685 24.0023ZM24.5935 17.1989L24.7075 17.0895L24.7074 17.0895L24.5935 17.1989ZM24.5398 17.1435L24.4215 17.2485L24.427 17.2541L24.5398 17.1435ZM22.1878 14.9468L22.061 14.8527L21.9682 14.9778L22.092 15.0724L22.1878 14.9468ZM23.2351 12.9692L23.3853 13.0182L23.3853 13.0181L23.2351 12.9692ZM19.9293 4.80596L19.8563 4.94602L19.8563 4.94603L19.9293 4.80596ZM20.8376 16.3038L20.9309 16.1763L20.8369 16.1076L20.7435 16.177L20.8376 16.3038ZM12.5541 16.2304L12.6514 16.1059L12.5485 16.0255L12.4501 16.1115L12.5541 16.2304ZM10.6538 18.0959L10.5376 17.989L10.5282 17.9992L10.5208 18.0108L10.6538 18.0959ZM10.2307 18.6125L10.3467 18.7198L10.3467 18.7198L10.2307 18.6125ZM7.96466 23.9863L8.12232 23.9959L8.12232 23.9959L7.96466 23.9863ZM8.49364 25.3982L8.60095 25.2823L8.60094 25.2823L8.49364 25.3982ZM13.0434 27.1442L13.0699 26.9884H13.0699L13.0434 27.1442ZM25.022 25.3617L25.1299 25.477L25.1299 25.477L25.022 25.3617ZM25.5119 23.9499L25.6695 23.9396L25.6695 23.9396L25.5119 23.9499ZM23.1927 18.5536L23.3089 18.4466L23.3089 18.4466L23.1927 18.5536ZM22.7723 18.0209L22.9077 17.9396L22.8988 17.9247L22.8869 17.9122L22.7723 18.0209ZM21.5681 11.5115L21.7244 11.5343L21.7244 11.5343L21.5681 11.5115ZM17.4908 6.02017L17.5149 5.86408L17.5149 5.86408L17.4908 6.02017ZM14.1891 14.9912L14.2719 14.8566L14.2719 14.8566L14.1891 14.9912ZM11.9387 9.97378L12.0938 10.0037L11.9387 9.97378ZM11.7293 6.42466C12.6785 5.32189 14.1617 4.49869 15.6659 4.24347L15.613 3.93202C14.0398 4.19894 12.4893 5.05736 11.4899 6.21858L11.7293 6.42466ZM11.3574 14.7766C9.52285 12.2939 9.62386 8.87098 11.7293 6.42466L11.4899 6.21858C9.28929 8.77544 9.18018 12.3618 11.1034 14.9643L11.3574 14.7766ZM9.2138 17.0966C9.82129 16.4245 10.5537 15.6788 11.335 14.9888L11.1259 14.752C10.3339 15.4514 9.59316 16.2057 8.97943 16.8848L9.2138 17.0966ZM8.20423 18.2502C8.50267 17.8467 8.90901 17.388 9.20565 17.105L8.98759 16.8764C8.67707 17.1726 8.25882 17.6451 7.95025 18.0623L8.20423 18.2502ZM7.91049 18.6686C8.0048 18.5269 8.10273 18.3874 8.20423 18.2502L7.95025 18.0623C7.84564 18.2037 7.74471 18.3475 7.64751 18.4936L7.91049 18.6686ZM7.88767 18.7002L7.90674 18.674L7.65127 18.4882L7.6322 18.5144L7.88767 18.7002ZM7.85373 18.4802L7.8526 18.4794L7.66727 18.7352L7.6684 18.736L7.85373 18.4802ZM6.16714 24.0103C6.26484 22.0838 6.8596 20.2581 7.89283 18.6952L7.6293 18.521C6.56414 20.1321 5.95214 22.0127 5.85164 23.9943L6.16714 24.0103ZM7.01441 26.4453C6.65367 26.0615 6.43192 25.733 6.30429 25.3671C6.17627 25.0001 6.13814 24.5818 6.16714 24.0103L5.85164 23.9943C5.82163 24.5855 5.85903 25.0498 6.00601 25.4711C6.15337 25.8936 6.40609 26.2593 6.78421 26.6616L7.01441 26.4453ZM23.1582 28.3053C20.3873 29.2124 16.9893 29.4339 13.9571 29.0802C12.4418 28.9035 11.0224 28.5837 9.82185 28.1369C8.61941 27.6893 7.64683 27.1182 7.01441 26.4453L6.78421 26.6616C7.46248 27.3834 8.48456 27.9762 9.71166 28.4329C10.9407 28.8904 12.3856 29.215 13.9205 29.394C16.9886 29.7518 20.4339 29.5296 23.2565 28.6055L23.1582 28.3053ZM26.4729 26.4353C25.7667 27.1869 24.6761 27.8083 23.1582 28.3053L23.2565 28.6055C24.8012 28.0997 25.9468 27.4565 26.7031 26.6516L26.4729 26.4353ZM27.3108 24.0103C27.3397 24.5794 27.3014 24.998 27.1744 25.3646C27.0478 25.7301 26.8283 26.0571 26.4729 26.4353L26.7031 26.6516C27.0766 26.2542 27.3267 25.8898 27.4729 25.4681C27.6186 25.0475 27.6562 24.5834 27.6263 23.9943L27.3108 24.0103ZM24.4796 17.3083C26.1655 19.0636 27.1817 21.4659 27.3108 24.0103L27.6263 23.9943C27.4935 21.3776 26.4485 18.9023 24.7075 17.0895L24.4796 17.3083ZM24.427 17.2541C24.4442 17.2717 24.4618 17.2897 24.4796 17.3083L24.7074 17.0895C24.6889 17.0702 24.6706 17.0513 24.6525 17.0329L24.427 17.2541ZM24.6578 17.0386C24.0036 16.3022 23.1902 15.5133 22.2837 14.8213L22.092 15.0724C22.9799 15.7501 23.7786 16.5246 24.4217 17.2484L24.6578 17.0386ZM23.0849 12.9202C22.8741 13.5667 22.5061 14.2525 22.061 14.8527L22.3147 15.0409C22.777 14.4176 23.1624 13.7017 23.3853 13.0182L23.0849 12.9202ZM19.8563 4.94603C22.7199 6.43866 24.0931 9.82786 23.0849 12.9202L23.3853 13.0181C24.4408 9.78045 23.0042 6.2306 20.0023 4.66589L19.8563 4.94603ZM15.6659 4.24347C17.0437 4.00971 18.5381 4.25886 19.8563 4.94602L20.0023 4.6659C18.6269 3.94889 17.063 3.68603 15.613 3.93202L15.6659 4.24347ZM20.7435 16.177C18.2955 17.9947 15.0105 17.9501 12.6514 16.1059L12.4569 16.3548C14.9289 18.2872 18.3706 18.3323 20.9318 16.4307L20.7435 16.177ZM12.4501 16.1115C11.7527 16.7217 11.0933 17.3844 10.5376 17.989L10.7701 18.2028C11.3199 17.6046 11.9712 16.9503 12.6581 16.3493L12.4501 16.1115ZM10.5208 18.0108C10.4387 18.1392 10.3106 18.2934 10.1147 18.5053L10.3467 18.7198C10.5446 18.5056 10.6889 18.3343 10.7869 18.181L10.5208 18.0108ZM10.1147 18.5053C8.76559 19.9648 7.93133 21.9446 7.807 23.9766L8.12232 23.9959C8.24232 22.0346 9.04839 20.1243 10.3467 18.7198L10.1147 18.5053ZM7.807 23.9766C7.7835 24.3603 7.78304 24.6261 7.87007 24.8584C7.9582 25.0937 8.12872 25.2756 8.38634 25.5141L8.60094 25.2823C8.34277 25.0433 8.22513 24.9057 8.16589 24.7476C8.10554 24.5865 8.09848 24.3851 8.12232 23.9959L7.807 23.9766ZM8.38633 25.5141C8.80138 25.8984 9.46164 26.259 10.2592 26.565C11.0598 26.8723 12.0107 27.1291 13.017 27.2999L13.0699 26.9884C12.0816 26.8207 11.1512 26.569 10.3724 26.2701C9.59056 25.9701 8.97321 25.627 8.60095 25.2823L8.38633 25.5141ZM13.017 27.2999C15.3416 27.6945 17.8859 27.6857 20.0856 27.3584C22.2763 27.0324 24.1587 26.3856 25.1299 25.477L24.9141 25.2463C24.0167 26.0858 22.2169 26.7219 20.0391 27.046C17.8702 27.3687 15.3596 27.3771 13.0699 26.9884L13.017 27.2999ZM25.1299 25.477C25.3737 25.249 25.536 25.0722 25.6181 24.8356C25.6982 24.6046 25.6953 24.3342 25.6695 23.9396L25.3542 23.9603C25.3806 24.362 25.3759 24.57 25.3196 24.732C25.2653 24.8885 25.1566 25.0194 24.9141 25.2463L25.1299 25.477ZM25.6695 23.9396C25.5353 21.8918 24.7071 19.965 23.3089 18.4466L23.0765 18.6606C24.4261 20.1262 25.2248 21.9849 25.3542 23.9603L25.6695 23.9396ZM23.3089 18.4466C23.1239 18.2457 22.9934 18.0822 22.9077 17.9396L22.6369 18.1023C22.7389 18.2719 22.8861 18.4538 23.0765 18.6606L23.3089 18.4466ZM20.7444 16.4313C21.4585 16.9536 22.1115 17.5543 22.6578 18.1297L22.8869 17.9122C22.3303 17.326 21.6632 16.7119 20.9309 16.1763L20.7444 16.4313ZM21.7244 11.5343C22.1182 8.84073 20.2175 6.28226 17.5149 5.86408L17.4666 6.17627C19.9994 6.56817 21.7803 8.96819 21.4118 11.4886L21.7244 11.5343ZM14.1063 15.1257C17.1923 17.0248 21.1981 15.1337 21.7244 11.5343L21.4118 11.4886C20.918 14.8662 17.1621 16.6353 14.2719 14.8566L14.1063 15.1257ZM11.7836 9.94389C11.399 11.9389 12.3436 14.0409 14.1063 15.1257L14.2719 14.8566C12.6179 13.8388 11.7348 11.866 12.0938 10.0037L11.7836 9.94389ZM17.5149 5.86408C14.8002 5.44403 12.3086 7.22034 11.7836 9.94389L12.0938 10.0037C12.5872 7.4439 14.9229 5.78269 17.4666 6.17627L17.5149 5.86408Z" fill="white" mask="url(#path-1-inside-1_1683_17764)"/>
<path d="M18.1625 16.7939H15.3193L16.7409 19.3212L18.1625 16.7939Z" fill="#262961" stroke="#262961" stroke-width="1.57953"/>
<path d="M15.6348 24.3767L16.7404 19.3223L17.6881 24.3767L16.7404 25.4824L15.6348 24.3767Z" fill="#262961" stroke="#262961" stroke-width="1.57953"/>
</svg>
