<svg width="34" height="34" viewBox="0 0 34 34" fill="none" xmlns="http://www.w3.org/2000/svg">
<path fill-rule="evenodd" clip-rule="evenodd" d="M21.6151 4.03146C23.0192 4.20503 24.4963 4.72224 25.6051 5.4288C28.0543 6.98934 29.631 9.53167 29.9478 12.4314C30.0172 13.0668 30.0174 14.9252 29.9482 15.5631C29.8761 16.2266 29.6733 17.1207 29.4632 17.7015C28.9265 19.1849 27.956 20.6187 26.8544 21.5555L26.4438 21.9047V25.1492C26.4438 28.3006 26.4408 28.3995 26.3415 28.5945C26.2756 28.7237 26.1676 28.8317 26.0385 28.8976C25.8417 28.9981 25.7481 29 21.1068 29C16.4654 29 16.3718 28.9981 16.1751 28.8976C16.0459 28.8317 15.9379 28.7237 15.8721 28.5945C15.7776 28.4091 15.7698 28.2962 15.7698 27.1203V25.8469H14.5269C13.8072 25.8469 13.1708 25.823 13.0148 25.7901C12.3656 25.6533 11.7883 25.2187 11.4872 24.6403C11.2496 24.1836 11.1952 23.891 11.1952 23.0707C11.1952 22.1428 11.2178 22.1004 11.956 21.6423C12.2636 21.4514 12.5153 21.2838 12.5153 21.2698C12.5153 21.2558 12.2638 21.0883 11.9564 20.8975C11.5778 20.6625 11.3689 20.4985 11.309 20.3889C11.2388 20.2606 11.2154 20.0548 11.1952 19.3911L11.1698 18.5551L10.4327 18.3699C10.0274 18.2681 9.62162 18.146 9.53105 18.0988C9.34212 18.0002 9.16203 17.6862 9.16203 17.4555C9.16203 17.235 9.24554 17.0922 10.2774 15.5484L11.1951 14.1752V13.5503C11.1952 11.973 11.5263 10.5259 12.1897 9.20232C13.5481 6.49237 16.055 4.62923 19.0482 4.10494C19.5984 4.00857 21.0854 3.966 21.6151 4.03146ZM19.5666 5.57928C16.0417 6.04869 13.2643 8.82766 12.7951 12.3545C12.7549 12.6567 12.7216 13.2769 12.7211 13.7328C12.7202 14.4032 12.704 14.5928 12.6359 14.7245C12.5897 14.814 12.2567 15.3293 11.896 15.8696C11.5353 16.4099 11.2287 16.8819 11.2147 16.9185C11.1965 16.9659 11.3251 17.0181 11.6624 17.1004C12.6673 17.3456 12.72 17.425 12.72 18.6942V19.5809L13.6374 20.1524C14.6145 20.7612 14.7532 20.9001 14.7532 21.2698C14.7532 21.6394 14.6145 21.7783 13.6374 22.3871L12.72 22.9587V23.3368C12.72 23.8156 12.8379 24.0721 13.1253 24.2188C13.3144 24.3153 13.4225 24.3212 15.0073 24.3212C16.5922 24.3212 16.7002 24.3271 16.8893 24.4236C17.0185 24.4895 17.1264 24.5975 17.1923 24.7267C17.2868 24.912 17.2946 25.0249 17.2946 26.2008V27.4743H21.1068H24.9189V24.4246C24.9189 20.8925 24.8772 21.1784 25.4573 20.7338C25.9884 20.3268 26.776 19.4858 27.1415 18.9355C27.7229 18.06 28.1202 17.1105 28.3328 16.0876C28.463 15.4614 28.5204 13.3707 28.4294 12.5666C28.1785 10.3492 27.0662 8.39746 25.3001 7.07539C24.1704 6.22974 22.8747 5.72733 21.3355 5.53814C20.9583 5.49181 20.0681 5.51246 19.5666 5.57928ZM6.34104 17.5835C6.45286 17.6242 6.54923 17.6578 6.55523 17.6582C6.56123 17.6586 6.6241 17.7443 6.69501 17.8487C6.94392 18.2152 6.85954 18.5658 6.39812 19.0829C5.70339 19.8614 5.37926 21.0366 5.5565 22.1343C5.67396 22.862 5.95139 23.439 6.48971 24.0753C6.75992 24.3947 6.79316 24.4592 6.81339 24.7037C6.83154 24.9223 6.81375 25.0122 6.72373 25.1579C6.5441 25.4487 6.2221 25.5747 5.88638 25.4856C5.31501 25.3339 4.41483 23.9403 4.11596 22.7446C3.96083 22.1241 3.96144 20.9219 4.11723 20.2975C4.32888 19.4491 4.76433 18.6131 5.32675 17.9755C5.68611 17.568 5.98285 17.4534 6.34104 17.5835ZM8.60373 19.786C8.96746 19.9765 9.10652 20.5205 8.87434 20.8449C8.47869 21.3975 8.46115 21.5796 8.76038 22.028C9.02296 22.4214 9.05615 22.642 8.89833 22.9443C8.70671 23.3113 8.25077 23.4646 7.89634 23.2812C7.54441 23.0991 7.16731 22.4621 7.06784 21.8818C6.95906 21.2472 7.1513 20.5418 7.56459 20.0587C7.66604 19.9401 7.81421 19.8094 7.89391 19.7682C8.09061 19.6664 8.38969 19.6739 8.60373 19.786Z" fill="#262961"/>
</svg>
