<svg width="28" height="28" viewBox="0 0 28 28" fill="none" xmlns="http://www.w3.org/2000/svg">
<path d="M20.997 22C12.466 22.012 5.99101 15.46 6.00001 7.003C6.00001 6.45 6.44801 6 7.00001 6H9.64001C10.135 6 10.556 6.364 10.629 6.854C10.8031 8.02905 11.1449 9.17304 11.644 10.251L11.747 10.473C11.8162 10.6224 11.8311 10.7912 11.7891 10.9504C11.7471 11.1096 11.6509 11.2492 11.517 11.345C10.699 11.929 10.387 13.104 11.024 14.02C11.823 15.17 12.83 16.178 13.98 16.977C14.897 17.613 16.072 17.301 16.655 16.484C16.7507 16.3497 16.8904 16.2531 17.0498 16.2109C17.2092 16.1688 17.3784 16.1836 17.528 16.253L17.749 16.355C18.827 16.855 19.971 17.197 21.146 17.371C21.636 17.444 22 17.865 22 18.361V21C22 21.1314 21.9741 21.2615 21.9238 21.3829C21.8735 21.5043 21.7997 21.6146 21.7067 21.7074C21.6138 21.8003 21.5034 21.874 21.382 21.9242C21.2605 21.9743 21.1304 22.0001 20.999 22H20.997Z" fill="white"/>
</svg>
