<svg width="44" height="44" viewBox="0 0 44 44" fill="none" xmlns="http://www.w3.org/2000/svg">
<circle cx="22" cy="22" r="22" transform="rotate(-180 22 22)" fill="#00C3EB"/>
<path d="M23.4973 23.4962L32.6084 23.5068C33.0079 23.5068 33.391 23.3481 33.6734 23.0656C33.9559 22.7832 34.1145 22.4001 34.1145 22.0006C34.1145 21.6012 33.9559 21.2181 33.6734 20.9356C33.391 20.6532 33.0079 20.4945 32.6084 20.4945L23.4973 20.5051L23.5079 11.394C23.5079 10.9946 23.3493 10.6115 23.0668 10.329C22.7844 10.0466 22.4013 9.88788 22.0018 9.88788C21.6024 9.88788 21.2193 10.0466 20.9368 10.329C20.6544 10.6115 20.4957 10.9946 20.4957 11.394L20.5063 20.5051L11.3952 20.4945C11.1972 20.4937 11.001 20.5321 10.8179 20.6075C10.6348 20.6829 10.4684 20.7938 10.3284 20.9338C10.1884 21.0738 10.0775 21.2402 10.0021 21.4233C9.92666 21.6064 9.88826 21.8026 9.88907 22.0006C9.88826 22.1986 9.92666 22.3949 10.0021 22.578C10.0775 22.7611 10.1884 22.9274 10.3284 23.0674C10.4684 23.2074 10.6348 23.3184 10.8179 23.3938C11.001 23.4692 11.1972 23.5076 11.3952 23.5068L20.5063 23.4962L20.4957 32.6072C20.4949 32.8052 20.5333 33.0015 20.6087 33.1846C20.6841 33.3677 20.795 33.534 20.935 33.674C21.075 33.8141 21.2414 33.925 21.4245 34.0004C21.6076 34.0758 21.8038 34.1142 22.0018 34.1134C22.1998 34.1142 22.396 34.0758 22.5791 34.0004C22.7622 33.925 22.9286 33.8141 23.0686 33.674C23.2086 33.534 23.3196 33.3677 23.395 33.1846C23.4704 33.0015 23.5088 32.8052 23.5079 32.6072L23.4973 23.4962Z" fill="#262961"/>
</svg>
