<svg width="20" height="20" viewBox="0 0 20 20" fill="none" xmlns="http://www.w3.org/2000/svg">
<path d="M9.47456 1.58889C9.60671 1.14965 10.2287 1.14965 10.3608 1.58889L11.8737 6.61744C12.0502 7.20412 12.5904 7.60573 13.203 7.60573H18.2414C18.681 7.60573 18.8729 8.16115 18.5271 8.43253L14.3315 11.7247C13.8819 12.0774 13.6945 12.6696 13.8591 13.2168L15.4323 18.4459C15.5624 18.8786 15.059 19.2222 14.7035 18.9433L10.7747 15.8605C10.2715 15.4657 9.56383 15.4657 9.06071 15.8605L5.13189 18.9433C4.77642 19.2222 4.27293 18.8786 4.4031 18.4459L5.9763 13.2168C6.14092 12.6696 5.95344 12.0774 5.5039 11.7247L1.30831 8.43253C0.96246 8.16115 1.15436 7.60573 1.59397 7.60573H6.63234C7.24499 7.60573 7.78521 7.20412 7.96171 6.61744L9.47456 1.58889Z" stroke="#262961" stroke-width="0.92549"/>
</svg>
