<svg width="22" height="22" viewBox="0 0 22 22" fill="none" xmlns="http://www.w3.org/2000/svg">
<path d="M12.4078 2.32226C12.0114 1.00454 10.1455 1.00454 9.74908 2.32226L8.23623 7.35081C8.17739 7.54637 7.99732 7.68024 7.7931 7.68024H2.75473C1.43591 7.68024 0.860211 9.3465 1.89776 10.1606L6.09335 13.4528C6.2432 13.5703 6.30569 13.7677 6.25081 13.9501L4.67762 19.1793C4.2871 20.4773 5.79756 21.5081 6.86397 20.6714L10.7928 17.5886C10.9605 17.457 11.1964 17.457 11.3641 17.5886L15.2929 20.6714C16.3593 21.5081 17.8698 20.4773 17.4793 19.1793L15.9061 13.9501C15.8512 13.7677 15.9137 13.5703 16.0636 13.4528L20.2591 10.1606C21.2967 9.3465 20.721 7.68024 19.4022 7.68024H14.3638C14.1596 7.68024 13.9795 7.54637 13.9207 7.35081L12.4078 2.32226Z" fill="#00C3EB" stroke="#262961" stroke-width="0.92549"/>
</svg>
