<svg width="30" height="31" viewBox="0 0 30 31" fill="none" xmlns="http://www.w3.org/2000/svg">
<path fill-rule="evenodd" clip-rule="evenodd" d="M0 15.4199C0 23.7042 6.71573 30.4199 15 30.4199C23.2843 30.4199 30 23.7042 30 15.4199C30 7.13565 23.2843 0.419922 15 0.419922C6.71573 0.419922 0 7.13565 0 15.4199ZM12.25 22.2949L12.5052 18.4713L12.505 18.4712L19.4606 12.1943C19.7658 11.9234 19.3939 11.7913 18.9887 12.037L10.4046 17.4526L6.69668 16.2953C5.89594 16.0502 5.89019 15.4999 6.87645 15.1043L21.3252 9.53296C21.9851 9.23337 22.622 9.69147 22.3701 10.7015L19.9095 22.2969C19.7377 23.1209 19.2398 23.3179 18.55 22.9373L14.8017 20.168L13 21.9199C12.9943 21.9254 12.9887 21.931 12.983 21.9364C12.7815 22.1326 12.6148 22.2949 12.25 22.2949Z" fill="white"/>
</svg>
