<svg width="309" height="326" viewBox="0 0 309 326" fill="none" xmlns="http://www.w3.org/2000/svg">
<path d="M180.231 223.16C176.169 239.756 169.838 264.631 163.741 261.205C153.826 259.189 104.597 239.918 85.2138 230.219C84.559 230.69 83.432 231.124 80.8871 232.064C75.0344 233.979 64.3218 231.235 64.3218 231.235C64.3218 231.235 59.5995 230.863 58.1568 225.047C58.1568 225.047 56.643 218.323 61.7439 210.267C62.8371 208.453 64.8736 207.33 67.0533 207.407C69.233 207.483 72.3572 207.634 75.4442 208.257C75.4442 208.257 72.6297 197.535 79.393 194.313C79.393 194.313 80.5922 194.17 80.9168 195.479C81.2414 196.787 81.4828 203.981 82.3484 207.471C83.214 210.96 89.5955 218.02 89.5955 218.02C90.3574 218.602 91.6636 219.513 93.2246 220.206C94.7856 220.899 96.129 221.337 97.0002 221.739C99.4335 222.215 102.048 222.801 104.844 223.497C124.492 227.419 146.862 232.982 158.083 235.909C157.829 215.6 160.457 188.865 161.89 179.712C162.035 179.676 184.733 204.604 180.231 223.16ZM155.793 75.5048C165.186 84.7497 160.095 87.2473 160.997 90.882C162.044 94.4807 165.567 94.9956 169.124 96.8913C172.645 98.6415 175.031 105.149 185.207 103.242C192.585 101.875 201.841 106.215 210.013 107.428C213.21 107.87 216.152 107.912 218.806 106.79C228.368 103.029 222.166 97.3139 226.166 95.3956C230.166 93.4773 234.956 96.6104 234.79 87.8544C234.733 78.917 244.313 85.1831 244.907 78.245C245.465 71.1616 239.212 73.3301 238.418 70.1316C237.625 66.9331 251.689 64.5243 247.019 55.6512C242.638 47.3236 235.17 58.2819 229.053 45.4462C228.51 44.5006 227.462 41.5196 227.426 41.3742C226.703 39.0841 225.908 37.1208 225.257 35.1214C221.137 23.4882 218.17 16.5073 208.396 16.9257C197.206 17.2324 191.893 21.9458 191.893 21.9458C182.824 14.627 167.276 13.5454 157.734 26.7162C151.397 35.3878 153.891 42.3314 154.457 50.8338C154.877 59.3723 147.016 66.8786 155.793 75.5048ZM155.793 75.5048C165.186 84.7497 160.095 87.2473 160.997 90.882C162.044 94.4807 165.567 94.9956 169.124 96.8913C172.645 98.6415 175.031 105.149 185.207 103.242C192.585 101.875 201.841 106.215 210.013 107.428C213.21 107.87 216.152 107.912 218.806 106.79C228.368 103.029 222.166 97.3139 226.166 95.3956C230.166 93.4773 234.956 96.6104 234.79 87.8544C234.733 78.917 244.313 85.1831 244.907 78.245C245.465 71.1616 239.212 73.3301 238.418 70.1316C237.625 66.9331 251.689 64.5243 247.019 55.6512C242.638 47.3236 235.17 58.2819 229.053 45.4462C228.51 44.5006 228.04 43.2282 227.57 41.9558C227.534 41.8104 227.462 41.5196 227.462 41.5196C226.739 39.2295 225.944 37.2662 225.293 35.2668C221.173 23.6336 218.206 16.6527 208.432 17.071C197.242 17.3778 191.929 22.0912 191.929 22.0912C182.86 14.7724 167.312 13.6907 157.77 26.8616C151.433 35.5332 153.927 42.4768 154.493 50.9792C154.877 59.3723 147.016 66.8786 155.793 75.5048ZM179.931 248.7C184.212 272.178 231.9 259.73 228.805 243.521C223.801 217.753 239.299 186.282 245.935 173.215C252.57 160.148 249.916 141.36 241.329 128.52C232.741 115.68 216.157 125.35 214.567 120.806C213.989 119.098 213.09 113.61 212.338 107.469C211.837 103.581 211.191 99.1107 210.69 94.6048C209.83 88.0274 208.97 81.45 208.252 76.6893C208.109 75.4902 206.511 75.2693 206 76.322L194.703 95.4842C194.594 95.6656 194.521 95.9925 194.593 96.2833L198.866 124.084C199.01 124.665 198.682 125.21 198.101 125.354C196.247 125.968 191.266 127.667 181.379 130.737C164.766 135.939 167.256 145.353 165.681 152.689C164.105 160.025 160.597 171.39 162.181 179.64C165.06 194.977 170.787 201.89 171.911 203.309C172.092 203.418 172.165 203.709 172.201 203.854C172.741 206.653 176.047 226.822 179.931 248.7ZM233.442 170.141C239.142 172.585 245.888 178.628 256.169 199.537C266.449 220.446 280.736 235.731 283.424 235.99C286.112 236.249 290.658 233.423 289.329 224.956C288.036 216.634 279.851 202.305 260.561 161.253C241.162 120.382 236.726 122.408 228.952 121.559C228.988 121.704 227.743 167.697 233.442 170.141ZM284.618 215.298C279.042 225.169 282.495 206.742 281.511 208.375C280.528 210.008 275.177 235.72 284.804 235.956C294.431 236.191 291.877 224.649 294.394 218.623C296.219 214.157 289.724 223.177 289.657 219.798C289.445 216.455 288.372 208.656 284.618 215.298ZM214.402 151.869C213.129 152.339 187.743 167.588 187.085 169.912C186.281 172.272 187.982 176.017 187.982 176.017L212.196 165.997L214.402 151.869ZM180.953 265.887C185.623 275.377 214.486 266.056 224.83 251.76C226.323 249.692 227.344 247.587 227.893 245.444C228.04 244.791 228.222 244.282 228.369 243.629C228.552 242.503 228.555 241.268 228.412 240.068C226.58 228.33 229.256 214.856 232.399 204.508C235.652 193.978 239.299 186.282 239.299 186.282C239.299 186.282 229.08 171.841 224.051 160.278C222.567 156.788 221.447 153.516 221.306 151.082C221.058 147.594 223.964 127.581 228.044 121.63C228.044 121.63 225.828 121.408 224.956 121.624C220.623 127.175 218.219 150.459 218.219 150.459C218.219 150.459 194.942 164.259 189.442 172.568C187.531 164.245 178.584 149.333 178.296 148.17C178.007 147.007 179.017 131.169 179.017 131.169L175.962 132.544C175.962 132.544 176.631 144.571 175.825 148.166C175.019 151.761 162.277 166.343 161.467 172.409C160.621 178.329 163.798 189.271 166.44 194.943C169.046 200.47 171.221 203.017 172.626 209.922C174.03 216.828 178.369 248.625 180.485 263.997C180.483 264.614 180.628 265.196 180.953 265.887ZM207.532 73.164C221.465 62.7622 210.474 53.2964 204.428 61.8959C204.246 61.7865 194.508 82.8771 207.532 73.164ZM163.678 74.9377C168.547 94.565 179.493 108.826 191.706 105.797C203.918 102.767 211.145 83.997 206.276 64.3697C201.407 44.7423 191.289 34.4425 179.222 37.4362C167.01 40.4659 157.69 50.8033 163.678 74.9377ZM203.518 62.5845C203.518 62.5845 209.449 57.8722 210.96 45.9222C202.808 13.0645 174.124 23.7303 173.826 28.1258C173.527 32.5213 175.733 38.3018 175.733 38.3018C182.343 59.3492 203.518 62.5845 203.518 62.5845ZM228.48 121.522L226.254 126.858C225.853 127.729 225.488 128.746 225.268 129.726C224.61 132.05 223.366 136.989 222.702 142.401C221.595 152.245 222.967 156.534 222.967 156.534C228.214 168.351 236.147 181.045 239.771 186.32L228.48 121.522ZM187.853 207.225C184.984 206.856 182.224 206.307 179.463 205.757C178.156 205.464 176.667 205.061 175.469 204.587C174.126 204.148 172.746 203.565 171.839 203.018L171.803 202.873C171.258 202.545 170.531 202.725 170.204 203.269C169.876 203.814 170.056 204.541 170.6 204.869C172.197 205.707 173.505 206 174.957 206.257C176.446 206.659 177.754 206.952 179.17 207.064C182.076 207.578 184.909 207.801 187.852 207.843C187.997 207.807 188.288 207.734 188.216 207.444C188.216 207.444 188.035 207.334 187.853 207.225ZM168.225 31.0585C168.225 31.0585 159.3 44.848 159.226 45.1748C159.153 45.5017 158.994 73.476 160.678 65.9586C162.218 58.4773 177.978 42.3749 177.978 42.3749L178.061 36.4895L168.225 31.0585ZM176.96 42.6274C171.027 49.1925 163.199 58.0794 161.844 64.4348C161.844 64.4348 163.984 86.1281 173.555 97.3352C177.58 101.738 182.911 107.052 191.56 105.833C201.844 104.362 208.587 92.3485 209.032 87.2993L176.96 42.6274ZM209.722 87.5912C209.722 87.5912 207.573 90.7481 206.075 95.2867C204.577 99.8254 195.304 104.75 195.304 104.75C195.304 104.75 195.45 104.714 195.701 106.349C200.277 107.374 211.066 107.939 213.391 107.979L209.722 87.5912ZM211.113 101.908L207.096 73.2722C207.096 73.2722 215.387 68.7458 214.091 62.2766C212.795 55.8074 205.015 58.6635 203.773 62.367L211.113 101.908ZM231.337 169.12C235.693 171.126 239.72 174.294 241.856 178.549C242.109 178.949 242.618 179.131 243.018 178.878C243.418 178.624 243.601 178.116 243.347 177.716C240.412 173.351 235.985 170.436 231.374 168.648C231.193 168.538 231.083 168.72 230.974 168.901C231.119 168.865 231.156 169.011 231.337 169.12ZM161.871 170.302C162.53 167.361 175.057 151.289 175.679 148.82C176.265 146.205 176.761 132.654 176.761 132.654L161.871 170.302ZM208.741 127.807L206.267 129.656C205.503 130.308 204.558 130.852 203.83 131.65L204.629 131.76L201.909 128.885C201.873 128.74 201.728 128.776 201.582 128.812C201.437 128.848 201.473 128.993 201.509 129.139L203.574 132.485C203.791 132.74 203.973 132.849 204.228 132.631L204.373 132.595C205.318 132.052 206.047 131.254 206.811 130.601L209.248 128.608C209.503 128.39 209.431 128.099 209.359 127.809C209.323 127.663 208.996 127.59 208.741 127.807ZM208.205 62.8109C204.355 62.2227 200.578 61.3076 196.802 59.7749C193.208 58.3515 189.76 56.2745 186.968 53.7263C184.029 51.2142 181.419 48.1577 179.39 44.9569C177.325 41.6108 175.806 37.975 174.432 34.3031C174.396 34.1577 174.215 34.0484 173.924 34.1205C173.778 34.1566 173.669 34.338 173.741 34.6288C174.861 38.5182 176.38 42.154 178.335 45.6816C180.436 49.1732 183.047 52.2297 186.021 54.8872C189.141 57.5086 192.588 59.5857 196.364 61.1184C200.139 62.6511 204.062 63.5301 208.021 63.9369C208.348 64.0101 208.457 63.8287 208.53 63.5018C208.713 62.9935 208.531 62.8842 208.205 62.8109ZM179.096 87.318C179.788 86.3746 180.627 84.1599 180.633 81.0719L179.096 87.318ZM179.096 87.318C179.788 86.3746 180.627 84.1599 180.633 81.0719L179.096 87.318ZM188.13 93.8738C187.77 92.4199 186.318 91.5453 184.864 91.906C183.41 92.2667 182.536 93.7184 182.896 95.1722C183.257 96.6261 184.709 97.5007 186.163 97.14C187.616 96.7793 188.491 95.3277 188.13 93.8738ZM180.244 95.0585C184.419 96.9552 189.511 93.8399 190.314 91.4799L180.244 95.0585ZM197.363 71.3654C195.007 68.0914 191.63 66.9227 188.323 67.8977C185.015 68.8727 183.882 72.3947 183.842 74.7198L197.363 71.3654ZM175.882 76.2313C174.943 73.0688 167.648 69.1683 164.511 76.4288L175.882 76.2313ZM193.04 70.74C192.68 69.2861 191.519 68.3394 190.356 68.628C189.338 68.8805 188.609 70.296 188.97 71.7499C189.33 73.2038 190.491 74.1505 191.654 73.8619C192.817 73.5734 193.401 72.1939 193.04 70.74ZM173.122 75.6814C172.762 74.2275 171.601 73.2808 170.438 73.5693C169.42 73.8218 168.691 75.2374 169.051 76.6913C169.412 78.1451 170.573 79.0918 171.736 78.8033C172.899 78.5147 173.483 77.1352 173.122 75.6814ZM236.964 171.274C237.726 171.856 241.892 178.694 242.254 179.53C242.616 180.366 243.129 177.461 243.129 177.461L236.964 171.274ZM162.74 71.1576C164.012 70.6876 166.812 69.5301 168.375 68.9879C168.92 68.6983 169.502 68.554 169.757 68.3365C170.521 67.6839 169.796 66.629 168.996 67.1362L168.851 67.1723L169.104 67.5724L168.959 67.6084L168.669 67.063C168.524 67.099 168.269 67.3166 168.124 67.3526L168.196 67.6434L168.05 67.6795L167.978 67.3887C167.578 67.6423 167.142 67.7505 166.742 68.0041C165.36 68.6555 163.687 69.9967 162.813 70.8308C162.558 71.0483 162.594 71.1937 162.74 71.1576ZM193.308 63.111C192.001 62.818 189.458 62.5228 187.642 62.6648C187.06 62.8091 186.443 62.808 186.006 62.9162L185.933 63.2431L185.642 63.3152L185.57 63.0244C185.279 63.0966 185.134 63.1326 184.807 63.0594L184.842 63.8224L184.551 63.8945L184.516 63.1315L184.371 63.1676C183.317 63.2747 183.278 64.9821 184.404 65.1658C184.876 65.203 185.494 65.2041 186.221 65.0238C188.147 64.7003 191.527 64.0161 193.126 63.6193C193.562 63.5111 193.49 63.2204 193.308 63.111ZM59.9936 213.788C59.9936 213.788 63.9834 217.428 68.7058 217.8L59.9936 213.788ZM58.5286 220.325C58.5286 220.325 62.5184 223.965 67.2407 224.337L58.5286 220.325Z" fill="#FFB28B"/>
<path d="M155.793 75.5048C165.186 84.7497 160.095 87.2473 160.997 90.882C162.044 94.4806 165.567 94.9956 169.124 96.8913C172.645 98.6415 175.031 105.149 185.207 103.242C192.585 101.875 201.841 106.215 210.013 107.428C213.21 107.87 216.152 107.912 218.806 106.79C228.368 103.029 222.166 97.3139 226.166 95.3956C230.166 93.4773 234.956 96.6104 234.79 87.8544C234.733 78.917 244.313 85.1831 244.907 78.2451C245.465 71.1616 239.212 73.3301 238.418 70.1316C237.625 66.9331 251.689 64.5243 247.019 55.6512C242.638 47.3236 235.17 58.2819 229.053 45.4462M155.793 75.5048C147.016 66.8786 154.877 59.3723 154.457 50.8338C153.891 42.3314 151.397 35.3878 157.734 26.7162C167.276 13.5454 182.824 14.627 191.893 21.9458C191.893 21.9458 197.206 17.2324 208.396 16.9257C218.17 16.5073 221.137 23.4882 225.257 35.1214C225.908 37.1208 226.703 39.0841 227.426 41.3742C227.462 41.5196 228.51 44.5006 229.053 45.4462M155.793 75.5048C147.016 66.8786 154.877 59.3723 154.493 50.9792C153.927 42.4768 151.433 35.5332 157.77 26.8616C167.312 13.6908 182.86 14.7724 191.929 22.0912C191.929 22.0912 197.242 17.3778 208.432 17.071C218.206 16.6527 221.173 23.6336 225.293 35.2668C225.944 37.2662 226.739 39.2295 227.462 41.5196C227.462 41.5196 227.534 41.8104 227.57 41.9558C228.04 43.2282 228.51 44.5006 229.053 45.4462M233.442 170.141C239.142 172.585 245.888 178.628 256.169 199.537C266.449 220.446 280.736 235.731 283.424 235.99M233.442 170.141C227.743 167.697 228.988 121.704 228.952 121.559C236.726 122.408 241.162 120.382 260.561 161.253C279.851 202.305 288.036 216.634 289.329 224.956C290.658 233.423 286.112 236.249 283.424 235.99M233.442 170.141C227.743 167.697 228.988 121.704 228.988 121.704C236.798 122.699 245.126 117.701 262.054 159.184C270.88 181.071 277.863 196.779 282.459 206.596M283.424 235.99C283.75 236.063 284.187 235.955 284.623 235.847C294.25 236.082 287.605 234.181 290.123 228.154M284.587 235.701C284.15 235.809 283.714 235.918 283.387 235.844C280.699 235.585 266.413 220.3 256.133 199.392C250.92 188.955 246.79 182.263 243.056 177.788C235.799 192.707 223.978 220.333 228.333 243.483C231.464 259.838 183.749 287.109 180.486 263.379C176.793 236.052 171.003 203.38 171.003 203.38C171.003 203.38 165.566 196.395 162.218 179.168C160.634 170.918 164.143 159.553 165.718 152.217C167.184 145.062 164.694 135.648 181.161 130.483C191.34 127.34 196.175 125.678 198.029 125.063C198.465 124.955 198.793 124.411 198.685 123.975L195.523 104.387C195.523 104.387 210.825 100.745 211.326 104.633C212.114 110.92 213.626 118.879 214.168 120.442C215.071 123.459 229.062 121.377 229.062 121.377C237.454 121.61 244.872 117.918 262.199 159.766C271.315 181.581 277.827 196.633 282.423 206.451M58.5286 220.325C58.5286 220.325 62.5184 223.965 67.2407 224.337M180.231 223.16C176.169 239.756 169.838 264.631 163.741 261.205C153.826 259.189 104.597 239.918 85.2138 230.219C84.559 230.69 83.432 231.124 80.8871 232.064C75.0344 233.979 64.3218 231.235 64.3218 231.235C64.3218 231.235 59.5995 230.863 58.1568 225.047C58.1568 225.047 56.643 218.323 61.7439 210.267C62.8371 208.453 64.8736 207.33 67.0533 207.407C69.233 207.483 72.3572 207.634 75.4442 208.257C75.4442 208.257 72.6297 197.535 79.393 194.314C79.393 194.314 80.5922 194.17 80.9168 195.479C81.2414 196.787 81.4828 203.981 82.3484 207.471C83.214 210.96 89.5955 218.02 89.5955 218.02C90.3574 218.602 91.6636 219.513 93.2246 220.206C94.7856 220.899 96.129 221.337 97.0002 221.739C99.4335 222.215 102.048 222.801 104.844 223.497C124.492 227.419 146.862 232.982 158.083 235.909C157.829 215.6 160.457 188.865 161.89 179.712C162.035 179.676 184.733 204.604 180.231 223.16ZM179.931 248.7C184.212 272.178 231.9 259.73 228.805 243.521C223.801 217.753 239.299 186.282 245.935 173.215C252.57 160.148 249.916 141.36 241.329 128.52C232.741 115.68 216.157 125.35 214.567 120.806C213.989 119.098 213.09 113.61 212.338 107.469C211.837 103.581 211.191 99.1107 210.69 94.6048C209.83 88.0274 208.97 81.45 208.252 76.6893C208.109 75.4902 206.511 75.2693 206 76.322L194.703 95.4842C194.594 95.6656 194.521 95.9925 194.593 96.2833L198.866 124.084C199.01 124.665 198.682 125.21 198.101 125.354C196.247 125.968 191.266 127.667 181.379 130.737C164.766 135.939 167.256 145.353 165.681 152.689C164.105 160.025 160.597 171.39 162.181 179.64C165.06 194.977 170.787 201.89 171.911 203.309C172.092 203.418 172.165 203.709 172.201 203.854C172.741 206.653 176.047 226.822 179.931 248.7ZM284.618 215.298C279.042 225.169 282.495 206.742 281.511 208.375C280.528 210.008 275.177 235.72 284.804 235.956C294.431 236.191 291.877 224.649 294.394 218.623C296.219 214.157 289.724 223.177 289.657 219.798C289.445 216.455 288.372 208.656 284.618 215.298ZM214.402 151.869C213.129 152.339 187.743 167.588 187.085 169.912C186.281 172.272 187.982 176.017 187.982 176.017L212.196 165.997L214.402 151.869ZM180.953 265.887C185.623 275.377 214.486 266.056 224.83 251.76C226.323 249.692 227.344 247.587 227.893 245.444C228.04 244.791 228.222 244.282 228.369 243.629C228.552 242.503 228.555 241.268 228.412 240.068C226.58 228.33 229.256 214.856 232.399 204.508C235.652 193.978 239.299 186.282 239.299 186.282C239.299 186.282 229.08 171.841 224.051 160.278C222.567 156.788 221.447 153.516 221.306 151.082C221.058 147.594 223.964 127.581 228.044 121.63C228.044 121.63 225.828 121.408 224.956 121.624C220.622 127.175 218.219 150.459 218.219 150.459C218.219 150.459 194.942 164.259 189.442 172.568C187.531 164.245 178.584 149.333 178.296 148.17C178.007 147.007 179.017 131.169 179.017 131.169L175.962 132.544C175.962 132.544 176.631 144.571 175.825 148.166C175.019 151.761 162.277 166.343 161.467 172.409C160.621 178.329 163.798 189.271 166.44 194.943C169.046 200.47 171.221 203.017 172.626 209.922C174.03 216.828 178.369 248.625 180.485 263.997C180.483 264.614 180.628 265.196 180.953 265.887ZM207.532 73.164C221.465 62.7622 210.474 53.2964 204.428 61.8959C204.246 61.7865 194.508 82.8771 207.532 73.164ZM163.678 74.9377C168.547 94.565 179.493 108.826 191.706 105.797C203.918 102.767 211.145 83.997 206.276 64.3697C201.407 44.7423 191.289 34.4425 179.222 37.4362C167.01 40.4659 157.69 50.8033 163.678 74.9377ZM203.518 62.5845C203.518 62.5845 209.449 57.8722 210.96 45.9222C202.808 13.0645 174.124 23.7303 173.826 28.1258C173.527 32.5213 175.733 38.3018 175.733 38.3018C182.343 59.3492 203.518 62.5845 203.518 62.5845ZM228.48 121.522L226.254 126.858C225.853 127.729 225.488 128.746 225.268 129.726C224.61 132.05 223.366 136.989 222.702 142.401C221.595 152.245 222.967 156.534 222.967 156.534C228.214 168.351 236.147 181.045 239.771 186.32L228.48 121.522ZM187.853 207.225C184.984 206.856 182.224 206.307 179.463 205.757C178.156 205.464 176.667 205.061 175.469 204.587C174.126 204.148 172.746 203.565 171.839 203.018L171.803 202.873C171.258 202.545 170.531 202.725 170.204 203.269C169.876 203.814 170.056 204.541 170.6 204.869C172.197 205.707 173.505 206 174.957 206.257C176.446 206.659 177.754 206.952 179.17 207.064C182.076 207.578 184.909 207.801 187.852 207.843C187.997 207.807 188.288 207.734 188.216 207.444C188.216 207.444 188.035 207.334 187.853 207.225ZM168.225 31.0585C168.225 31.0585 159.3 44.848 159.226 45.1749C159.153 45.5017 158.994 73.476 160.678 65.9586C162.218 58.4773 177.978 42.3749 177.978 42.3749L178.061 36.4895L168.225 31.0585ZM176.96 42.6274C171.027 49.1925 163.199 58.0794 161.844 64.4348C161.844 64.4348 163.984 86.1281 173.555 97.3352C177.58 101.738 182.911 107.052 191.56 105.833C201.844 104.362 208.587 92.3485 209.032 87.2993L176.96 42.6274ZM209.722 87.5912C209.722 87.5912 207.573 90.7481 206.075 95.2867C204.577 99.8254 195.304 104.75 195.304 104.75C195.304 104.75 195.45 104.714 195.701 106.349C200.277 107.374 211.066 107.939 213.391 107.979L209.722 87.5912ZM211.113 101.908L207.096 73.2722C207.096 73.2722 215.387 68.7458 214.091 62.2766C212.795 55.8074 205.015 58.6635 203.773 62.367L211.113 101.908ZM231.337 169.12C235.693 171.126 239.72 174.294 241.856 178.549C242.109 178.949 242.618 179.131 243.018 178.878C243.418 178.624 243.601 178.116 243.347 177.716C240.412 173.351 235.985 170.436 231.374 168.648C231.193 168.538 231.083 168.72 230.974 168.901C231.119 168.865 231.156 169.011 231.337 169.12ZM161.871 170.302C162.53 167.361 175.057 151.289 175.679 148.82C176.265 146.205 176.761 132.654 176.761 132.654L161.871 170.302ZM208.741 127.807L206.267 129.656C205.503 130.308 204.558 130.852 203.83 131.65L204.629 131.76L201.909 128.885C201.873 128.74 201.728 128.776 201.582 128.812C201.437 128.848 201.473 128.993 201.509 129.139L203.574 132.485C203.791 132.74 203.973 132.849 204.228 132.631L204.373 132.595C205.318 132.052 206.047 131.254 206.811 130.601L209.248 128.608C209.503 128.39 209.431 128.099 209.359 127.809C209.323 127.663 208.996 127.59 208.741 127.807ZM208.205 62.8109C204.355 62.2227 200.578 61.3076 196.802 59.7749C193.208 58.3515 189.76 56.2745 186.968 53.7263C184.029 51.2142 181.419 48.1577 179.39 44.9569C177.325 41.6108 175.806 37.975 174.432 34.3031C174.396 34.1577 174.215 34.0484 173.924 34.1205C173.778 34.1566 173.669 34.338 173.741 34.6288C174.861 38.5182 176.38 42.154 178.335 45.6816C180.436 49.1732 183.047 52.2297 186.021 54.8872C189.141 57.5086 192.588 59.5857 196.364 61.1184C200.139 62.6511 204.062 63.5301 208.021 63.9369C208.348 64.0101 208.457 63.8287 208.53 63.5018C208.713 62.9935 208.531 62.8842 208.205 62.8109ZM179.096 87.318C179.788 86.3746 180.627 84.1599 180.633 81.0719L179.096 87.318ZM188.13 93.8738C187.77 92.4199 186.318 91.5453 184.864 91.906C183.41 92.2667 182.536 93.7184 182.896 95.1722C183.257 96.6261 184.709 97.5007 186.163 97.14C187.616 96.7793 188.491 95.3277 188.13 93.8738ZM180.244 95.0585C184.419 96.9552 189.511 93.8399 190.314 91.4799L180.244 95.0585ZM197.363 71.3654C195.007 68.0914 191.63 66.9227 188.323 67.8977C185.015 68.8726 183.882 72.3947 183.842 74.7198L197.363 71.3654ZM175.882 76.2313C174.943 73.0688 167.648 69.1683 164.511 76.4288L175.882 76.2313ZM193.04 70.74C192.68 69.2861 191.519 68.3394 190.356 68.628C189.338 68.8805 188.609 70.296 188.97 71.7499C189.33 73.2038 190.491 74.1505 191.654 73.8619C192.817 73.5734 193.401 72.1939 193.04 70.74ZM173.122 75.6814C172.762 74.2275 171.601 73.2808 170.438 73.5693C169.42 73.8218 168.691 75.2374 169.051 76.6913C169.412 78.1451 170.573 79.0918 171.736 78.8033C172.899 78.5147 173.483 77.1352 173.122 75.6814ZM236.964 171.274C237.726 171.856 241.892 178.694 242.254 179.53C242.616 180.366 243.129 177.461 243.129 177.461L236.964 171.274ZM162.74 71.1576C164.012 70.6876 166.812 69.5301 168.375 68.9879C168.92 68.6983 169.502 68.554 169.757 68.3365C170.521 67.6839 169.796 66.629 168.996 67.1362L168.851 67.1723L169.104 67.5724L168.959 67.6084L168.669 67.063C168.524 67.099 168.269 67.3165 168.124 67.3526L168.196 67.6434L168.05 67.6795L167.978 67.3887C167.578 67.6423 167.142 67.7505 166.742 68.0041C165.36 68.6555 163.687 69.9967 162.813 70.8308C162.558 71.0483 162.594 71.1937 162.74 71.1576ZM193.308 63.111C192.001 62.818 189.458 62.5228 187.642 62.6648C187.06 62.8091 186.443 62.808 186.006 62.9162L185.933 63.2431L185.642 63.3152L185.57 63.0244C185.279 63.0966 185.134 63.1326 184.807 63.0594L184.842 63.8224L184.551 63.8945L184.516 63.1315L184.371 63.1676C183.317 63.2747 183.278 64.9821 184.404 65.1658C184.876 65.203 185.494 65.2041 186.221 65.0238C188.147 64.7003 191.527 64.0161 193.126 63.6193C193.562 63.5111 193.49 63.2204 193.308 63.111ZM59.9936 213.788C59.9936 213.788 63.9834 217.428 68.7058 217.8L59.9936 213.788Z" stroke="#262961" stroke-width="7.48975" stroke-miterlimit="10"/>
<path d="M162.035 179.678C160.602 188.831 157.792 215.456 158.228 235.875C146.862 232.984 124.637 227.386 104.99 223.463C102.193 222.767 99.5786 222.181 97.1453 221.705C96.1648 221.485 94.7853 220.901 93.3697 220.172C91.8087 219.479 90.5025 218.568 89.7406 217.986C89.7406 217.986 83.3591 210.926 82.4935 207.437C81.6278 203.947 81.4226 196.899 81.0619 195.445C80.7012 193.991 79.5381 194.28 79.5381 194.28C72.9202 197.465 75.5892 208.223 75.5892 208.223C72.5022 207.6 69.3781 207.449 67.1984 207.373C65.0187 207.296 62.9821 208.419 61.8889 210.233C56.6788 218.471 58.3019 225.013 58.3019 225.013C59.7446 230.829 64.4669 231.201 64.4669 231.201C64.4669 231.201 75.1795 233.945 81.0322 232.03C83.4677 231.271 84.7041 230.656 85.3589 230.185C104.742 239.884 154.153 259.265 163.886 261.171C169.984 264.597 176.314 239.722 180.376 223.127C184.733 204.606 162.035 179.678 162.035 179.678Z" fill="#FFB28B" stroke="#262961" stroke-width="1.04856" stroke-miterlimit="10"/>
<path d="M155.793 75.5078C165.186 84.7527 160.095 87.2503 160.997 90.885C162.044 94.4837 165.567 94.9987 169.124 96.8943C172.645 98.6445 175.031 105.152 185.207 103.245C192.585 101.878 201.841 106.218 210.013 107.431C213.21 107.873 216.152 107.915 218.807 106.793C228.368 103.032 222.166 97.317 226.166 95.3987C230.166 93.4804 234.956 96.6134 234.79 87.8574C234.733 78.92 244.313 85.1862 244.907 78.2481C245.465 71.1646 239.212 73.3332 238.419 70.1346C237.625 66.9361 251.69 64.5273 247.019 55.6542C242.638 47.3266 235.17 58.285 229.054 45.4492C228.51 44.5036 227.462 41.5226 227.426 41.3772C226.704 39.0871 225.908 37.1238 225.258 35.1244C221.137 23.4912 218.17 16.5103 208.397 16.9287C197.206 17.2355 191.893 21.9489 191.893 21.9489C182.824 14.63 167.276 13.5484 157.734 26.7192C151.397 35.3908 153.891 42.3344 154.457 50.8368C154.878 59.3753 147.017 66.8816 155.793 75.5078Z" fill="#FFFDC6"/>
<path d="M155.793 75.505C165.186 84.7499 160.095 87.2475 160.997 90.8822C162.044 94.4809 165.567 94.9958 169.124 96.8915C172.645 98.6417 175.031 105.149 185.207 103.242C192.584 101.875 201.841 106.215 210.013 107.428C213.209 107.87 216.152 107.912 218.806 106.79C228.368 103.029 222.166 97.3141 226.166 95.3958C230.165 93.4775 234.955 96.6106 234.79 87.8546C234.733 78.9172 244.313 85.1833 244.907 78.2453C245.465 71.1618 239.212 73.3303 238.418 70.1318C237.625 66.9333 251.689 64.5245 247.018 55.6514C242.637 47.3238 235.17 58.2821 229.053 45.4464C228.51 44.5008 228.04 43.2284 227.57 41.956C227.534 41.8106 227.462 41.5198 227.462 41.5198C226.739 39.2297 225.944 37.2664 225.293 35.267C221.172 23.6338 218.206 16.6529 208.432 17.0713C197.242 17.378 191.929 22.0914 191.929 22.0914C182.86 14.7726 167.312 13.691 157.77 26.8618C151.432 35.5334 153.927 42.477 154.493 50.9794C154.877 59.3725 147.016 66.8788 155.793 75.505Z" stroke="#262961" stroke-width="1.37587" stroke-miterlimit="10"/>
<path d="M179.93 248.7C184.211 272.178 231.9 259.73 228.804 243.521C223.801 217.753 239.298 186.282 245.934 173.215C252.57 160.148 249.915 141.361 241.328 128.52C232.741 115.68 216.157 125.35 214.566 120.806C213.988 119.098 213.09 113.61 212.338 107.469C211.836 103.581 211.19 99.1108 210.69 94.6049C209.83 88.0275 208.97 81.4501 208.252 76.6895C208.109 75.4903 206.51 75.2694 206 76.3221L194.703 95.4843C194.594 95.6657 194.52 95.9926 194.592 96.2834L198.866 124.084C199.01 124.666 198.682 125.21 198.1 125.354C196.246 125.969 191.266 127.667 181.379 130.737C164.766 135.939 167.256 145.353 165.68 152.689C164.105 160.025 160.597 171.39 162.18 179.64C165.059 194.977 170.787 201.89 171.911 203.309C172.092 203.418 172.164 203.709 172.2 203.854C172.74 206.653 176.046 226.822 179.93 248.7Z" fill="#FFB28B"/>
<path d="M228.989 121.706C236.653 122.737 241.198 120.529 260.597 161.4C279.997 202.271 288.182 216.6 289.365 225.103C290.658 233.425 286.003 236.432 283.46 236.137C280.772 235.878 266.631 220.557 256.205 199.685C245.925 178.776 239.178 172.733 233.479 170.288C227.779 167.844 228.989 121.706 228.989 121.706Z" fill="#FFB28B"/>
<path d="M214.401 151.87C213.129 152.34 187.743 167.589 187.084 169.913C186.281 172.273 187.982 176.018 187.982 176.018L212.196 165.998L214.401 151.87Z" fill="#262961"/>
<path d="M180.953 265.889C185.622 275.38 214.486 266.059 224.83 251.763C226.323 249.695 227.344 247.59 227.893 245.447C228.039 244.793 228.222 244.285 228.368 243.631C228.552 242.506 228.554 241.27 228.411 240.071C226.579 228.333 229.256 214.859 232.399 204.511C235.651 193.981 239.298 186.285 239.298 186.285C239.298 186.285 229.079 171.843 224.05 160.281C222.567 156.791 221.446 153.519 221.305 151.085C221.057 147.596 223.964 127.583 228.043 121.633C228.043 121.633 225.828 121.411 224.955 121.627C220.622 127.178 218.218 150.461 218.218 150.461C218.218 150.461 194.942 164.261 189.441 172.571C187.531 164.248 178.584 149.336 178.295 148.173C178.007 147.01 179.016 131.172 179.016 131.172L175.962 132.547C175.962 132.547 176.631 144.573 175.825 148.169C175.019 151.764 162.277 166.346 161.467 172.412C160.62 178.332 163.798 189.273 166.44 194.946C169.046 200.473 171.221 203.02 172.625 209.925C174.03 216.83 178.368 248.628 180.484 263.999C180.483 264.617 180.627 265.198 180.953 265.889Z" fill="#00C3EB"/>
<path d="M204.246 61.7884C210.292 53.189 221.283 62.6548 207.35 73.0565C194.507 82.879 204.246 61.7884 204.246 61.7884Z" fill="#FFB28B"/>
<path d="M261.945 159.369C270.77 181.256 277.754 196.963 282.35 206.781C287.087 199.124 279.98 224.6 284.9 215.817C288.654 209.175 293.222 214.524 293.289 217.903C293.355 221.282 286.965 239.072 285.141 243.538C282.768 249.528 294.14 236.266 284.513 236.031C284.077 236.139 283.605 236.102 283.314 236.174C280.626 235.915 266.485 220.594 256.059 199.722C245.779 178.813 239.032 172.77 233.333 170.326C227.633 167.881 228.879 121.889 228.879 121.889C236.798 122.702 245.126 117.704 261.945 159.369Z" fill="#FFB28B"/>
<path d="M170.82 203.891C170.82 203.891 165.237 196.942 162.035 179.679C160.488 171.574 163.96 160.064 165.535 152.728C167.111 145.392 164.657 136.123 180.979 130.994C191.121 127.706 196.137 126.153 197.846 125.574C198.282 125.466 198.61 124.922 198.502 124.486L195.34 104.898C195.34 104.898 210.642 101.256 211.143 105.144C211.895 111.286 213.407 119.245 213.985 120.953C214.997 123.789 228.879 121.888 228.879 121.888C237.307 122.267 244.689 118.429 262.016 160.277C271.132 182.092 277.644 197.145 282.24 206.962C288.236 219.769 284.686 224.483 284.686 224.483L287.283 227.289L289.725 232.434C289.725 232.434 294.031 236.448 284.404 236.212C283.968 236.32 283.495 236.283 283.205 236.355C280.517 236.096 266.375 220.776 255.95 199.903C250.737 189.467 246.571 182.629 242.873 178.299C235.617 193.218 223.614 220.735 228.15 243.994C231.281 260.349 183.566 287.62 180.303 263.89C176.793 236.054 170.82 203.891 170.82 203.891Z" stroke="#262961" stroke-width="1.37587" stroke-miterlimit="10"/>
<path d="M163.677 74.9396C168.547 94.567 179.493 108.828 191.705 105.799C203.918 102.769 211.145 83.999 206.276 64.3716C201.407 44.7443 191.289 34.4445 179.222 37.4381C167.009 40.4679 157.69 50.8053 163.677 74.9396Z" fill="#FFB28B"/>
<path d="M175.733 38.3049C175.733 38.3049 173.528 32.5243 173.826 28.1289C174.125 23.7334 202.954 13.0315 210.96 45.9252C209.449 57.8753 203.519 62.5876 203.519 62.5876C203.519 62.5876 182.344 59.3523 175.733 38.3049Z" fill="#FFFDC6"/>
<path d="M239.734 186.177C236.256 180.867 228.177 168.209 222.93 156.392C222.93 156.392 221.594 152.248 222.665 142.259C223.329 136.847 224.464 132.09 225.231 129.584C225.451 128.604 225.852 127.733 226.217 126.716L228.443 121.379" stroke="#262961" stroke-width="1.37587" stroke-miterlimit="10" stroke-linecap="round" stroke-linejoin="round"/>
<path d="M187.853 207.226C184.983 206.857 182.223 206.308 179.463 205.758C178.156 205.465 176.667 205.062 175.469 204.588C174.125 204.149 172.746 203.566 171.839 203.019L171.802 202.874C171.258 202.546 170.531 202.726 170.203 203.27C169.875 203.815 170.056 204.542 170.6 204.87C172.197 205.708 173.504 206.001 174.957 206.258C176.446 206.66 177.753 206.953 179.17 207.065C182.076 207.579 184.909 207.802 187.852 207.844C187.997 207.807 188.288 207.735 188.216 207.445C188.216 207.445 188.034 207.335 187.853 207.226Z" fill="#262961"/>
<path d="M177.952 36.6755L177.869 42.5609C177.869 42.5609 162.218 58.4819 160.569 66.1446C159.029 73.626 159.044 45.6877 159.117 45.3609C159.263 44.7072 168.225 31.063 168.225 31.063L177.952 36.6755Z" fill="#FFFDC6"/>
<path d="M209.177 87.2655C208.732 92.3146 201.989 104.328 191.705 105.799C183.056 107.019 177.725 101.705 173.7 97.3014C164.129 86.0943 161.988 64.401 161.988 64.401C163.344 58.0456 171.026 49.1948 177.105 42.5936" stroke="#262961" stroke-width="0.917194" stroke-miterlimit="10" stroke-linecap="round" stroke-linejoin="round"/>
<path d="M213.426 108.127C211.101 108.087 200.276 107.377 195.736 106.497C195.485 104.862 195.34 104.898 195.34 104.898C195.34 104.898 204.613 99.9734 206.11 95.4348C207.608 90.8961 209.757 87.7392 209.757 87.7392L213.426 108.127Z" fill="#262961"/>
<path d="M211.112 101.908L207.094 73.2726C207.094 73.2726 215.386 68.7462 214.09 62.277C212.793 55.8078 205.013 58.6639 203.771 62.3674" stroke="#262961" stroke-width="1.37587" stroke-miterlimit="10" stroke-linecap="round" stroke-linejoin="round"/>
<path d="M231.337 169.122C235.693 171.128 239.72 174.296 241.856 178.55C242.109 178.95 242.618 179.133 243.018 178.879C243.418 178.626 243.6 178.117 243.347 177.717C240.412 173.352 235.985 170.438 231.374 168.649C231.193 168.54 231.083 168.721 230.974 168.903C231.119 168.867 231.155 169.012 231.337 169.122Z" fill="#262961"/>
<path d="M161.871 170.307C162.53 167.365 175.057 151.293 175.679 148.824C176.265 146.209 176.762 132.659 176.762 132.659" stroke="#262961" stroke-width="0.917194" stroke-miterlimit="10" stroke-linecap="round" stroke-linejoin="round"/>
<path d="M208.741 127.808L206.267 129.657C205.503 130.309 204.557 130.852 203.829 131.65L204.628 131.761L201.909 128.886C201.873 128.74 201.727 128.776 201.582 128.813C201.437 128.849 201.473 128.994 201.509 129.139L203.573 132.486C203.791 132.74 203.972 132.85 204.227 132.632L204.373 132.596C205.318 132.053 206.046 131.255 206.81 130.602L209.248 128.608C209.503 128.391 209.431 128.1 209.358 127.809C209.322 127.664 208.996 127.591 208.741 127.808Z" fill="#262961"/>
<path d="M208.205 62.8136C204.355 62.2254 200.579 61.3103 196.803 59.7776C193.209 58.3542 189.761 56.2771 186.968 53.7289C184.03 51.2168 181.42 48.1603 179.391 44.9596C177.326 41.6134 175.807 37.9776 174.433 34.3057C174.397 34.1604 174.215 34.051 173.925 34.1232C173.779 34.1592 173.67 34.3407 173.742 34.6315C174.861 38.5209 176.381 42.1567 178.336 45.6843C180.437 49.1758 183.047 52.2323 186.022 54.8898C189.141 57.5113 192.589 59.5883 196.365 61.121C200.14 62.6537 204.062 63.5328 208.022 63.9395C208.348 64.0128 208.458 63.8313 208.531 63.5045C208.714 62.9962 208.532 62.8869 208.205 62.8136Z" fill="#262961"/>
<path d="M180.633 81.0745C180.627 84.1626 179.788 86.3773 179.096 87.3206L180.633 81.0745Z" fill="#FFB28B"/>
<path d="M180.633 81.0745C180.627 84.1626 179.788 86.3773 179.096 87.3206" stroke="#262961" stroke-width="0.917194" stroke-miterlimit="10" stroke-linecap="round" stroke-linejoin="round"/>
<path d="M186.161 97.1414C184.707 97.5021 183.256 96.6275 182.895 95.1736C182.534 93.7197 183.409 92.2681 184.863 91.9074C186.316 91.5467 187.768 92.4213 188.129 93.8752C188.489 95.329 187.615 96.7807 186.161 97.1414Z" fill="#F4259A"/>
<path d="M190.314 91.4821C189.365 93.8782 184.273 96.9935 180.244 95.0607" stroke="#262961" stroke-width="0.917194" stroke-miterlimit="10" stroke-linecap="round" stroke-linejoin="round"/>
<path d="M197.362 71.3678C195.006 68.0937 191.63 66.9251 188.322 67.9C185.014 68.875 183.881 72.397 183.841 74.7221" stroke="#262961" stroke-width="0.863118" stroke-miterlimit="10" stroke-linecap="round" stroke-linejoin="round"/>
<path d="M175.882 76.233C174.943 73.0706 167.648 69.17 164.51 76.4305" stroke="#262961" stroke-width="0.874353" stroke-miterlimit="10" stroke-linecap="round" stroke-linejoin="round"/>
<path d="M191.654 73.8647C190.636 74.1172 189.33 73.2066 188.969 71.7527C188.608 70.2988 189.192 68.9193 190.355 68.6308C191.373 68.3783 192.679 69.2889 193.04 70.7428C193.401 72.1967 192.817 73.5762 191.654 73.8647Z" fill="#262961"/>
<path d="M171.735 78.8071C170.718 79.0596 169.411 78.149 169.051 76.6951C168.69 75.2412 169.274 73.8617 170.437 73.5732C171.455 73.3207 172.761 74.2313 173.121 75.6852C173.482 77.1391 172.898 78.5186 171.735 78.8071Z" fill="#262961"/>
<path d="M236.965 171.275C237.727 171.858 241.892 178.696 242.254 179.532C242.616 180.368 243.13 177.463 243.13 177.463L236.965 171.275Z" fill="#262961"/>
<path d="M162.739 71.1598C164.012 70.6898 166.811 69.5323 168.375 68.9901C168.92 68.7005 169.502 68.5562 169.756 68.3387C170.52 67.6861 169.796 66.6312 168.996 67.1384L168.85 67.1745L169.104 67.5746L168.958 67.6106L168.669 67.0651C168.523 67.1012 168.269 67.3187 168.123 67.3548L168.195 67.6456L168.05 67.6817L167.978 67.3909C167.578 67.6445 167.142 67.7527 166.741 68.0063C165.36 68.6577 163.686 69.9989 162.813 70.833C162.558 71.0505 162.594 71.1959 162.739 71.1598Z" fill="#262961"/>
<path d="M193.235 63.4401C191.599 63.6915 188.074 64.4117 186.329 64.8445C185.602 65.0249 184.985 65.0238 184.512 64.9866C183.387 64.8029 183.462 63.2408 184.48 62.9883L184.625 62.9523L184.66 63.7153L184.951 63.6431L184.916 62.8801C185.207 62.808 185.352 62.7719 185.679 62.8452L185.751 63.1359L186.042 63.0638L186.115 62.737C186.551 62.6288 187.169 62.6299 187.75 62.4856C189.567 62.3436 192.11 62.6388 193.417 62.9318C193.489 63.2226 193.561 63.5133 193.235 63.4401Z" fill="#262961"/>
<path d="M59.9937 213.79C59.9937 213.79 63.9835 217.43 68.7058 217.802" stroke="#2B2D60" stroke-width="1.04856" stroke-miterlimit="10" stroke-linecap="round"/>
<path d="M58.5283 220.328C58.5283 220.328 62.5181 223.968 67.2404 224.34" stroke="#2B2D60" stroke-width="1.04856" stroke-miterlimit="10" stroke-linecap="round"/>
<path d="M59.718 206.731C57.1472 210.292 55.4026 215.219 54.9305 216.886L34.4795 198.711C43.911 200.135 62.2888 203.171 59.718 206.731Z" fill="white"/>
<path d="M240.342 194.471L243.641 186.346L248.773 201.679L246.578 204.881L240.342 194.471Z" fill="#D0FFF7"/>
<path d="M233.21 117.526L223.984 117.822L223.128 115.71L229.632 107.122L233.21 117.526Z" fill="white"/>
<path d="M217.976 111.011L219.147 111.716C218.417 112.341 216.939 113.526 216.877 113.276C216.815 113.026 216.698 111.66 216.647 111.008L217.976 111.011Z" fill="#D8FFF8"/>
<path d="M171.422 130.864L160.054 105.121L170.456 102.873L171.705 103.891L171.938 104.83C172.037 105.229 173.349 106.343 177.741 107.708C177.936 107.768 179.075 107.596 179.282 107.658C181.271 108.248 182.008 108.745 183.926 108.971C187.447 109.387 190.877 109.405 192.648 109.324L191.921 122.457C189.413 123.352 188.096 124.441 183.471 125.882C178.23 127.514 173.692 129.304 171.422 130.864Z" fill="white"/>
<rect x="184.264" y="200.825" width="123.808" height="123.808" rx="6.26469" fill="white" stroke="#262961" stroke-width="1.85621"/>
<rect x="179.516" y="195.928" width="123.808" height="123.808" rx="6.26469" fill="white" stroke="#262961" stroke-width="1.85621"/>
<line x1="178.588" y1="203.715" x2="304.252" y2="203.715" stroke="#262961" stroke-width="1.85621"/>
<circle cx="185.561" cy="199.896" r="1.52939" stroke="#262961" stroke-width="1.39215"/>
<circle cx="193.869" cy="199.896" r="1.52939" stroke="#2B2D60" stroke-width="1.39215"/>
<circle cx="202.178" cy="199.896" r="1.52939" stroke="#2B2D60" stroke-width="1.39215"/>
<path fill-rule="evenodd" clip-rule="evenodd" d="M239.412 228.729C232.434 229.231 225.835 232.258 220.82 237.255C216.131 241.93 213.232 247.922 212.399 254.665C212.195 256.317 212.223 259.867 212.454 261.593C213.331 268.149 216.21 273.999 220.823 278.6C225.566 283.331 231.5 286.202 238.233 287.025C239.887 287.227 243.44 287.199 245.162 286.971C255.352 285.617 263.981 279.223 268.201 269.896C270.754 264.255 271.421 257.643 270.055 251.515C267.401 239.614 257.341 230.437 245.276 228.911C243.51 228.687 241.049 228.611 239.412 228.729ZM255.642 247.721C256.134 247.944 256.791 248.616 256.965 249.073C257.129 249.505 257.092 250.558 256.896 251.032C256.773 251.329 254.243 253.936 248.512 259.671C239.53 268.659 239.795 268.429 238.584 268.326C238.265 268.299 237.821 268.189 237.598 268.082C237.367 267.972 235.335 266.022 232.891 263.567C228.948 259.606 228.578 259.2 228.444 258.702C228.142 257.581 228.506 256.507 229.391 255.906C230.052 255.458 230.67 255.345 231.451 255.528C232.026 255.662 232.178 255.796 235.401 259L238.752 262.333L245.994 255.096C250.633 250.46 253.38 247.797 253.636 247.687C254.183 247.454 255.087 247.469 255.642 247.721Z" fill="#49E859"/>
</svg>
