<svg width="27" height="28" viewBox="0 0 27 28" fill="none" xmlns="http://www.w3.org/2000/svg">
<path d="M2.35616 7.08252L2.44054 7.13619L2.35616 7.08252C2.03066 7.59431 1.40205 8.88107 1.17572 9.4982L1.2696 9.53264L1.17571 9.49821C0.922722 10.1881 0.654203 11.2384 0.521906 12.054C0.359365 13.0561 0.359365 14.9495 0.521906 15.9516L0.620606 15.9356L0.521906 15.9516C0.75085 17.3629 1.11353 18.5055 1.73364 19.769C2.41138 21.1498 3.11741 22.1302 4.24499 23.2572C5.37264 24.3842 6.35363 25.0898 7.73517 25.7671L7.77919 25.6773L7.73518 25.7671C8.99939 26.3869 10.1426 26.7494 11.5547 26.9782C12.5574 27.1406 14.4519 27.1406 15.4545 26.9782C16.8666 26.7494 18.0099 26.3869 19.2741 25.7671L19.2301 25.6773L19.2741 25.7671C20.6556 25.0898 21.6366 24.3842 22.7643 23.2572L22.6936 23.1865L22.7643 23.2572C23.8919 22.1302 24.5979 21.1498 25.2756 19.769L25.1858 19.725L25.2756 19.769C25.7251 18.8531 25.9523 18.2503 26.1948 17.3285C26.5178 16.1009 26.6 15.4244 26.6 14.0028C26.6 12.5812 26.5178 11.9047 26.1948 10.6771C25.9523 9.75531 25.7251 9.15246 25.2756 8.23657L25.1858 8.28063L25.2756 8.23656C24.5979 6.8558 23.8919 5.87536 22.7643 4.74837L22.6936 4.8191L22.7643 4.74836C21.6366 3.62142 20.6556 2.9158 19.2741 2.23846L19.2301 2.32825L19.2741 2.23846C18.0113 1.61934 16.8454 1.24948 15.4795 1.03472L15.464 1.13351L15.4795 1.03472C14.7236 0.915889 13.0447 0.860686 12.3242 0.931241C9.79279 1.17908 7.45306 2.11185 5.40258 3.69002C4.40097 4.46091 3.10579 5.90395 2.35616 7.08252ZM15.4193 15.8848H18.2033L11.9811 7.96603C11.9448 8.06217 11.927 9.2623 11.927 11.6171C11.927 14.6589 11.9373 15.1499 12.0052 15.3123C12.1063 15.5539 12.2133 15.6694 12.4466 15.7884C12.6251 15.8795 12.788 15.8848 15.4193 15.8848ZM12.676 7.27257C12.6065 7.29101 12.5325 7.31651 12.4702 7.34534L18.4196 15.7581L18.4701 15.8443C19.2064 15.4131 19.1365 14.361 18.3574 14.0074C18.2445 13.9561 18.1333 13.9323 17.8124 13.9194C17.4918 13.9066 16.9479 13.9044 15.9614 13.9039L13.9119 13.9028L13.8984 10.9849L13.8845 7.96746L13.8844 7.93703L13.8673 7.91184L13.7401 7.724C13.7401 7.724 13.7401 7.724 13.7401 7.724C13.6553 7.59875 13.5026 7.47921 13.3468 7.39218C13.1922 7.30574 13.0137 7.23975 12.8705 7.24077C12.8153 7.24116 12.744 7.25451 12.676 7.27257ZM18.3161 14.0984C18.1271 14.0126 17.9363 14.0049 15.9614 14.0039L13.8123 14.0028L13.7984 10.9854L18.3161 14.0984ZM15.0159 3.09647C19.3798 3.66653 23.0689 6.95187 24.1715 11.2519C24.4177 12.2117 24.5111 12.9674 24.5111 14.0028C24.5111 15.0381 24.4177 15.7939 24.1715 16.7537C23.1807 20.6178 20.1235 23.6732 16.2571 24.6635C15.2967 24.9095 14.5406 25.0029 13.5046 25.0029C12.4687 25.0029 11.7125 24.9095 10.7521 24.6635C6.88577 23.6732 3.82859 20.6178 2.83773 16.7537C2.59159 15.7939 2.4982 15.0381 2.4982 14.0028C2.4982 12.9674 2.59159 12.2117 2.83773 11.2519C3.81626 7.43607 6.84151 4.37759 10.631 3.37224C12.109 2.98013 13.4695 2.89446 15.0159 3.09647Z" fill="#262961" stroke="#262961" stroke-width="0.2"/>
</svg>
