<svg width="24" height="24" viewBox="0 0 24 24" fill="none" xmlns="http://www.w3.org/2000/svg">
<path d="M23.8475 11.5321C23.6331 11.2388 18.5245 4.35059 11.9999 4.35059C5.47529 4.35059 0.366469 11.2388 0.152297 11.5319C-0.0507657 11.8101 -0.0507657 12.1875 0.152297 12.4657C0.366469 12.759 5.47529 19.6473 11.9999 19.6473C18.5245 19.6473 23.6331 12.759 23.8475 12.466C24.0508 12.1878 24.0508 11.8101 23.8475 11.5321ZM11.9999 18.0649C7.19383 18.0649 3.03127 13.493 1.79907 11.9984C3.02968 10.5025 7.18351 5.933 11.9999 5.933C16.8057 5.933 20.968 10.5041 22.2007 11.9995C20.9701 13.4954 16.8163 18.0649 11.9999 18.0649Z" fill="#3AFFDC"/>
<path d="M11.9992 7.25293C9.38163 7.25293 7.25195 9.38261 7.25195 12.0002C7.25195 14.6178 9.38163 16.7475 11.9992 16.7475C14.6168 16.7475 16.7465 14.6178 16.7465 12.0002C16.7465 9.38261 14.6168 7.25293 11.9992 7.25293ZM11.9992 15.165C10.2541 15.165 8.83441 13.7453 8.83441 12.0002C8.83441 10.2551 10.2541 8.83539 11.9992 8.83539C13.7443 8.83539 15.164 10.2551 15.164 12.0002C15.164 13.7453 13.7444 15.165 11.9992 15.165Z" fill="#3AFFDC"/>
</svg>
