<svg width="30" height="31" viewBox="0 0 30 31" fill="none" xmlns="http://www.w3.org/2000/svg">
<path fill-rule="evenodd" clip-rule="evenodd" d="M15 0.419922C6.71573 0.419922 0 7.13565 0 15.4199C0 23.7042 6.71573 30.4199 15 30.4199C23.2843 30.4199 30 23.7042 30 15.4199C30 7.13565 23.2843 0.419922 15 0.419922ZM21.251 10.2633C21.9395 10.4522 22.4816 11.0089 22.6656 11.7157C23 12.9969 23 15.67 23 15.67C23 15.67 23 18.343 22.6656 19.6242C22.4816 20.3311 21.9395 20.8877 21.251 21.0767C20.0034 21.42 15 21.42 15 21.42C15 21.42 9.99664 21.42 8.74891 21.0767C8.06046 20.8877 7.51828 20.3311 7.33428 19.6242C7 18.343 7 15.67 7 15.67C7 15.67 7 12.9969 7.33428 11.7157C7.51828 11.0089 8.06046 10.4522 8.74891 10.2633C9.99664 9.91997 15 9.91997 15 9.91997C15 9.91997 20.0034 9.91997 21.251 10.2633Z" fill="white"/>
<path d="M13.5 18.4199V13.4199L17.5 15.92L13.5 18.4199Z" fill="white"/>
</svg>
