<svg width="285" height="72" viewBox="0 0 285 72" fill="none" xmlns="http://www.w3.org/2000/svg">
<g clip-path="url(#clip0_2706_20253)">
<path d="M122.585 24.6756C118.848 24.6756 115.62 26.3746 113.411 29.7725V16.5205C108.485 16.5205 107.635 16.5205 107.635 19.7486V51.0097H113.411V37.4179C113.411 32.4909 116.809 29.9424 119.867 29.9424C123.265 29.9424 124.964 32.4909 124.964 36.0587V50.8398C129.891 50.8398 130.74 50.8398 130.74 47.9515V33.3403C130.91 27.7337 127.852 24.6756 122.585 24.6756ZM88.0979 16.6904H84.3603C79.2636 16.6904 78.2443 16.6904 78.2443 19.9185V50.6699H84.3603V40.1362H87.7581C96.4224 40.1362 102.538 35.549 102.538 27.7337C102.538 19.7486 96.9321 16.6904 88.4376 16.6904H88.0979ZM87.2484 35.0393H84.5302V22.297H87.928C92.1752 22.297 96.0827 23.4863 96.0827 27.9036C95.9128 32.321 92.515 35.0393 87.2484 35.0393ZM148.239 24.6756C140.424 24.6756 135.837 29.6026 135.837 37.4179C135.837 45.7428 140.764 51.3495 148.239 51.3495C155.884 51.3495 160.98 45.7428 160.98 37.5878C160.98 29.4327 156.224 24.6756 148.239 24.6756ZM148.239 46.2525C144.161 46.2525 142.123 42.0051 142.123 37.4179C142.123 32.8307 143.822 29.6026 148.239 29.6026C152.996 29.6026 154.695 33.0005 154.695 37.5878C154.864 42.175 152.656 46.2525 148.239 46.2525ZM245.076 25.3552H238.62C237.431 27.9036 235.732 31.1317 233.693 34.0199L227.237 25.3552H220.612V26.0348L229.276 38.0975C225.539 41.8352 223.16 45.573 220.272 51.0097H226.898C228.597 47.2719 230.295 44.8934 232.334 42.175L238.79 51.1796H245.585V50.3301L236.921 38.4373C240.149 34.6995 243.037 30.2822 245.076 25.3552ZM181.367 24.6756C177.63 24.6756 174.402 26.3746 172.193 29.7725V25.0154C167.266 25.0154 166.417 25.0154 166.417 28.0735V50.6699H172.193V37.0781C172.193 32.1511 175.591 29.6026 178.819 29.6026C182.217 29.6026 183.746 32.1511 183.746 35.7189V50.5C189.012 50.5 189.692 50.5 189.692 47.6117V33.3403C189.522 27.7337 186.804 24.6756 181.367 24.6756ZM270.219 48.4612L269.37 34.8694C268.69 26.2047 263.424 24.6756 258.837 24.6756C255.099 24.6756 250.003 26.2047 250.003 29.2628V31.1317C252.041 30.2822 254.08 29.6026 256.458 29.6026C260.196 29.6026 263.084 30.7919 263.424 35.3791L256.968 36.2286C250.512 36.9082 247.794 39.6265 247.794 43.7041C247.794 47.4418 250.003 51.5194 255.269 51.5194C259.347 51.5194 262.235 49.8204 264.103 46.5923V51.3495C268.521 51.1796 270.389 51.1796 270.219 48.4612ZM257.648 47.2719C255.099 47.2719 254.25 45.573 254.25 43.5342C254.25 41.6653 255.439 40.476 257.648 40.1362L263.424 39.4566C263.254 43.1944 260.876 47.102 257.648 47.2719ZM207.021 24.6756C199.545 24.6756 194.619 30.1123 194.619 37.248C194.619 46.7622 199.885 51.3495 207.36 51.3495C211.438 51.3495 216.025 50.1602 216.025 47.102V45.4031C214.156 46.0826 212.117 46.5923 209.909 46.5923C204.812 46.5923 201.924 44.3837 201.074 40.476H213.816C215.855 40.476 218.063 39.6265 218.063 36.7383C217.893 29.6026 213.816 24.6756 207.021 24.6756ZM210.588 36.2286H200.735C200.905 32.1511 202.773 29.2628 206.681 29.2628C209.739 29.2628 211.947 31.3016 211.947 34.6995C211.947 35.3791 211.608 36.3985 210.588 36.2286Z" fill="white"/>
<path d="M31.1863 39.9668C36.0653 39.9668 40.0206 36.0114 40.0206 31.1321C40.0206 26.2529 36.0653 22.2975 31.1863 22.2975C26.3073 22.2975 22.3521 26.2529 22.3521 31.1321C22.3521 36.0114 26.3073 39.9668 31.1863 39.9668Z" fill="#2F62D3"/>
<path d="M30.847 0.210938C14.3677 0.210938 0.266846 13.8027 0.266846 30.7925C0.266846 39.2873 3.32486 46.0832 7.91188 51.5199C13.3483 57.8061 13.0086 63.7526 8.76132 68.8495C23.5417 76.325 35.9437 66.4709 38.8318 61.0342C52.0832 57.6362 61.9368 45.4036 61.9368 30.9624C61.9368 14.3124 48.3456 0.380835 31.3566 0.380835L30.847 0.210938ZM31.3566 50.8404C30.847 53.2189 29.1481 58.1459 22.8622 60.3546C22.8622 53.5587 19.4644 48.4618 16.0666 44.3843C13.1785 40.9863 10.9699 35.8894 10.9699 30.7925C10.9699 20.0889 20.1439 11.0844 31.0169 11.0844C42.2296 11.0844 51.2337 20.0889 51.2337 30.7925C51.2337 42.0057 42.7392 50.8404 31.6964 50.8404H31.3566Z" fill="#2F62D3"/>
<path d="M275.995 20.2589H277.184C277.524 20.2589 277.694 20.2589 277.863 20.4288C278.033 20.5987 278.033 20.7686 278.033 21.1084V21.6181C278.033 21.788 278.033 21.9579 278.033 22.1278C278.033 22.1278 278.033 22.2977 278.033 22.4676H279.392V22.2977C279.223 22.2977 279.223 22.1278 279.223 21.9579C279.223 21.788 279.223 21.6181 279.223 21.4482V21.1084C279.223 20.7686 279.223 20.4288 279.053 20.2589C278.883 20.089 278.713 19.9191 278.543 19.7492C278.883 19.5793 279.053 19.4094 279.223 19.2395C279.392 18.8997 279.392 18.7298 279.392 18.39C279.392 18.2201 279.392 17.8803 279.223 17.7104C279.223 17.5405 279.053 17.3706 278.883 17.2007C278.713 17.0308 278.543 16.8609 278.373 16.8609C278.203 16.691 277.863 16.691 277.524 16.691H274.805V22.4676H275.995C275.995 22.6374 275.995 20.2589 275.995 20.2589ZM275.995 17.7104H277.354C277.524 17.7104 277.863 17.7104 277.863 17.8803C278.033 18.0502 278.203 18.2201 278.203 18.5599C278.203 18.8997 278.033 19.0696 277.863 19.2395C277.694 19.2395 277.524 19.4094 277.354 19.4094H275.995V17.7104Z" fill="white"/>
<path d="M277.185 24.8458C280.073 24.8458 282.451 22.4672 282.451 19.5789C282.451 16.6907 280.073 14.3121 277.185 14.3121C274.297 14.3121 271.918 16.6907 271.918 19.5789C271.918 22.6371 274.297 24.8458 277.185 24.8458ZM277.185 15.1616C279.733 15.1616 281.602 17.2004 281.602 19.5789C281.602 21.9575 279.563 23.9963 277.185 23.9963C274.636 23.9963 272.768 21.9575 272.768 19.5789C272.598 17.2004 274.636 15.1616 277.185 15.1616Z" fill="white"/>
</g>
<defs>
<clipPath id="clip0_2706_20253">
<rect width="284.055" height="71.3569" fill="white" transform="translate(0.266846 0.210938)"/>
</clipPath>
</defs>
</svg>
