<svg width="385" height="345" viewBox="0 0 385 345" fill="none" xmlns="http://www.w3.org/2000/svg">
<path d="M22.0488 215.782C22.0443 213.04 22.3214 193.299 36.1343 179.78C51.0592 165.159 67.4967 171.827 83.402 164.197C120.267 146.527 96.0759 80.0362 127.433 47.4942C163.062 10.5164 268.953 18.8019 324.093 82.7161C362.922 127.707 376.776 200.493 342.645 253.903C305.916 311.39 232.469 316.892 205.209 318.932C189.405 320.119 148.394 321.378 104.072 300.944C91.7249 295.244 22.0778 263.144 22.0488 215.782Z" fill="white"/>
<path d="M22.0488 215.782C22.0443 213.04 22.3214 193.299 36.1343 179.78C51.0592 165.159 67.4967 171.827 83.402 164.197C120.267 146.527 96.0759 80.0362 127.433 47.4942C163.062 10.5164 268.953 18.8019 324.093 82.7161C362.922 127.707 376.776 200.493 342.645 253.903C305.916 311.39 232.469 316.892 205.209 318.932C189.405 320.119 148.394 321.378 104.072 300.944C91.7249 295.244 22.0778 263.144 22.0488 215.782Z" fill="#3AFFDC" fill-opacity="0.15"/>
<mask id="mask0_17_594" style="mask-type:alpha" maskUnits="userSpaceOnUse" x="22" y="25" width="341" height="295">
<path d="M22.0488 215.782C22.0443 213.04 22.3214 193.299 36.1343 179.78C51.0592 165.159 67.4967 171.827 83.402 164.197C120.267 146.527 96.0759 80.0362 127.433 47.4942C163.062 10.5164 268.953 18.8019 324.093 82.7161C362.922 127.707 376.776 200.493 342.645 253.903C305.916 311.39 232.469 316.892 205.209 318.932C189.405 320.119 148.394 321.378 104.072 300.944C91.7249 295.244 22.0778 263.144 22.0488 215.782Z" fill="white"/>
<path d="M22.0488 215.782C22.0443 213.04 22.3214 193.299 36.1343 179.78C51.0592 165.159 67.4967 171.827 83.402 164.197C120.267 146.527 96.0759 80.0362 127.433 47.4942C163.062 10.5164 268.953 18.8019 324.093 82.7161C362.922 127.707 376.776 200.493 342.645 253.903C305.916 311.39 232.469 316.892 205.209 318.932C189.405 320.119 148.394 321.378 104.072 300.944C91.7249 295.244 22.0778 263.144 22.0488 215.782Z" fill="#3AFFDC" fill-opacity="0.15"/>
</mask>
<g mask="url(#mask0_17_594)">
<path d="M179.374 216.24C173.414 217.523 168.357 213.851 167.308 210.29C166.724 208.208 166.819 206.003 169.028 202.501L173.595 192.614L175.717 201.524L173.943 202.76C176.475 204.554 184.649 206.913 185.142 208.053C185.844 209.718 182.694 215.537 179.374 216.24ZM233.122 193.129C220.082 191.96 207.041 190.791 194.001 189.621C193.895 196.078 193 202.99 192.402 210.348C192.265 212.04 192.127 213.731 191.54 215.816L232.303 218.673L233.676 201.758L233.122 193.129ZM192.196 212.885C192.196 212.885 183.404 236.68 183.882 254.491L183.426 319.962L203.873 321.331L213.285 241.667L235.452 321.124L256.159 323.494C256.159 323.494 239.994 232.141 232.952 215.827C231.711 215.655 219.096 216.472 215.345 216.294C203.705 215.393 196.085 213.413 192.196 212.885ZM195.291 172.701L209.809 156.707L204.899 145.05L203.255 144.68L193.386 146.71C193.386 146.71 190.502 147.188 188.216 148.559C184.793 150.531 182.479 152.24 181.195 159.805L173.3 196.251L188.919 197.601L195.291 172.701ZM236.941 201.732C235.414 198.903 236.456 184.006 236.456 184.006L235.793 160.229L221.898 156.193L207.716 157.751L200.814 152.079L199.874 155.415L198.778 154.488L195.215 172.61L190.427 202.725C190.427 202.725 192.425 203.885 195.835 203.104C199.328 202.328 205.095 201.371 210.185 203.599C215.441 205.839 238.462 204.645 236.941 201.732ZM222.23 208.781L215.95 183.079C215.512 181.263 213.944 179.962 212.114 179.834L171.268 176.971C169.854 176.872 168.745 178.155 169.052 179.537L175.707 206.796C175.888 207.66 176.672 208.31 177.587 208.374L220.014 211.348C221.428 211.447 222.536 210.164 222.23 208.781ZM219.568 208.595L213.288 182.893C212.85 181.076 211.282 179.775 209.452 179.647L168.606 176.784C167.192 176.685 166.083 177.968 166.389 179.351L173.045 206.61C173.226 207.473 174.009 208.123 174.925 208.188L217.352 211.161C218.766 211.26 219.874 209.977 219.568 208.595ZM191.323 195.813C192.322 195.883 193.5 195.795 193.624 194.273C193.74 192.835 192.166 191.619 191.167 191.549C190.169 191.479 188.97 191.821 188.888 192.835C188.785 194.104 190.242 195.737 191.323 195.813ZM206.834 208.808L212.656 208.195L209.379 201.161C209.379 201.161 204.346 192.048 202.674 189.974C201.917 188.985 201.238 189.108 200.704 189.496C199.998 189.957 199.749 190.96 200.103 191.75C200.735 193.24 201.867 195.786 201.202 195.74C199.87 195.647 195.209 192.258 193.545 191.12C192.116 190.17 190.945 190.173 190.203 190.036C188.13 189.805 185.317 192.5 185.145 193.594C184.855 195.104 185.064 196.65 186.237 197.668C188.026 199.324 193.235 203.177 195.843 204.04C197.631 204.676 204.6 206.44 204.6 206.44L206.834 208.808ZM186.983 194.658C187.677 196.408 193.177 199.77 193.177 199.77L186.983 194.658ZM189.616 193.142C191.142 194.95 195.165 196.933 195.165 196.933L189.616 193.142ZM170.266 207.861C170.266 207.861 171.605 208.89 172.16 210.29C172.716 211.69 175.17 211.352 175.17 211.352C175.17 211.352 177.291 210.99 178.387 211.918C179.483 212.845 182.351 210.494 183.251 209.707C184.152 208.919 185.327 204.749 184.23 202.801C183.133 200.853 180.816 198.479 176.657 198.187C172.497 197.896 171.253 202.912 171.253 202.912C167.651 206.062 170.266 207.861 170.266 207.861ZM174.375 205.682C174.375 205.682 175.276 204.895 177.048 201.617L174.375 205.682ZM177.565 207.607C177.565 207.607 178.466 206.82 180.238 203.542L177.565 207.607ZM221.891 156.278L234.591 175.03L240.263 203.071C237.973 200.358 239.294 204.704 239.294 204.704L212.01 197.603C211.296 197.128 210.277 197.312 209.792 198.128L205.487 206.842C204.629 208.143 204.991 209.87 206.26 210.724L230.777 216.865C238.126 219.082 244.782 219.548 248.109 219.781C256.428 220.364 253.985 198.929 253.985 198.929C253.985 198.929 253.145 188.663 251.397 168.978C251.183 161.308 249.213 158.788 246.604 155.883C244.835 153.973 240.673 151.64 240.673 151.64L231.866 146.77L230.202 146.654L221.891 156.278ZM235.332 191.668L235.744 186.593L237.812 171.428L232.469 165.1L227.058 159.617L224.425 161.134L222.555 163.554L221.058 181.992L229.262 194.304L235.332 191.668ZM222.295 140.996L221.684 140.273L220.11 139.057L214.155 138.214C207.472 138.086 200.46 142.017 197.64 143.776C194.813 145.619 194.994 147.503 195.126 147.938C195.259 148.372 201.52 159.868 207.346 163.339C213.088 166.803 216.588 165.943 219.658 164.202C223.164 162.236 236.604 151.27 236.741 149.579C236.879 147.887 234.867 145.875 234.867 145.875C230.392 141.223 222.295 140.996 222.295 140.996L223.361 120.657C223.361 120.657 228.364 118.796 228.25 115.046C228.137 111.295 223.624 112.255 222.628 114.227L222.295 140.996ZM194.916 117.558C199.281 123.562 196.197 124.452 196.441 126.596C196.685 128.739 198.564 129.296 200.381 130.614C202.199 131.932 202.895 135.724 208.607 135.444C212.717 135.306 217.475 138.532 221.885 139.862C223.598 140.407 225.255 140.608 226.787 140.29C232.414 138.983 229.452 135.288 231.856 134.521C234.254 133.839 236.592 135.959 237.247 130.987C237.992 125.935 242.737 130.351 243.725 126.422C244.623 122.573 241.06 123.174 240.879 121.29C240.697 119.406 248.738 119.289 246.918 113.888C245.229 108.921 240.187 114.352 237.963 106.711C237.761 106.101 237.399 104.375 237.399 104.375C237.17 103.083 236.933 101.875 236.773 100.758C235.575 93.8699 234.484 89.7958 229.097 89.1631C222.878 88.472 219.608 90.6244 219.608 90.6244C215.313 85.8154 206.854 83.8617 200.385 90.3828C196.104 94.6758 196.863 98.7267 196.381 103.626C195.907 108.441 190.849 111.999 194.916 117.558ZM213.083 151.408C217.312 150.853 222.578 147.82 222.578 147.82L222.677 141.448L222.768 124.868L220.988 127.21L214.167 136.003L214.113 137.701L213.083 151.408ZM194.916 117.558C199.281 123.562 196.197 124.452 196.441 126.596C196.685 128.739 198.564 129.296 200.381 130.614C202.199 131.932 202.895 135.724 208.607 135.444C212.717 135.306 217.475 138.532 221.885 139.862C223.598 140.407 225.255 140.608 226.787 140.29C232.414 138.983 229.452 135.288 231.856 134.521C234.254 133.839 236.592 135.959 237.247 130.987C237.992 125.935 242.737 130.351 243.725 126.422C244.623 122.573 241.06 123.174 240.879 121.29C240.697 119.406 248.738 119.289 246.918 113.888C245.229 108.921 240.187 114.352 237.963 106.711C237.761 106.101 237.65 105.413 237.462 104.634C237.469 104.55 237.399 104.375 237.399 104.375C237.17 103.083 236.933 101.875 236.773 100.758C235.575 93.8699 234.484 89.7958 229.097 89.1631C222.878 88.472 219.608 90.6244 219.608 90.6244C215.313 85.8154 206.854 83.8617 200.385 90.3828C196.104 94.6758 196.863 98.7267 196.381 103.626C195.907 108.441 190.849 111.999 194.916 117.558ZM223.617 120.59C232.195 115.918 227.012 109.686 222.898 113.99C222.898 113.99 215.565 124.959 223.617 120.59ZM199.318 117.951C200.235 129.328 204.949 138.249 211.95 137.549C218.951 136.849 224.606 126.954 223.689 115.577C222.772 104.2 218.206 97.5858 211.205 98.2859C204.294 98.9073 198.281 103.929 199.318 117.951ZM222.364 114.378C222.364 114.378 226.051 112.255 227.924 105.667C226.461 86.5967 209.694 90.0997 209.156 92.6136C208.541 95.0372 209.264 98.4901 209.264 98.4901C211.028 110.777 222.364 114.378 222.364 114.378ZM205.801 93.7394C205.801 93.7394 199.63 100.707 199.533 100.87C199.436 101.033 196.905 116.762 198.413 112.614C199.997 108.558 210.07 100.928 210.07 100.928L210.588 97.6473L205.801 93.7394ZM221.716 136.788L223.458 120.494C223.458 120.494 228.593 119.068 228.729 115.335C228.948 111.607 224.304 112.133 223.148 114.008L221.716 136.788ZM209.564 100.978C205.706 104.195 200.669 108.52 199.306 111.912C199.306 111.912 198.56 124.192 202.753 131.291C204.536 134.053 207.014 137.543 211.866 137.543C217.634 137.607 221.478 133.539 222.204 130.783L209.564 100.978ZM222.943 127.858C222.943 127.858 222.127 129.672 220.846 132.049C218.097 136.024 214.064 137.272 214.064 137.272C214.064 137.272 214.147 137.278 214.155 138.214C216.588 139.15 221.443 141.191 222.677 141.448L222.943 127.858ZM224.916 114.897C222.794 114.238 220.853 113.422 218.938 112.267C217.107 111.118 215.38 109.721 214.013 108.009C212.639 106.382 211.459 104.428 210.619 102.413C209.779 100.397 209.285 98.2364 208.881 95.9966C208.888 95.9121 208.728 95.8158 208.645 95.81C208.562 95.8042 208.465 95.9675 208.458 96.0521C208.696 98.2802 209.183 100.526 210.016 102.626C210.85 104.725 211.946 106.673 213.39 108.476C214.84 110.193 216.56 111.675 218.558 112.836C220.472 113.99 222.58 114.819 224.708 115.393C224.875 115.405 224.965 115.326 225.055 115.247C225.152 115.084 225.082 114.909 224.916 114.897ZM206.679 126.207C207.136 125.729 207.815 124.586 208.126 122.821L206.679 126.207ZM206.679 126.207C207.136 125.729 207.815 124.586 208.126 122.821L206.679 126.207ZM211.092 130.599C210.994 129.742 210.286 129.182 209.448 129.208C208.602 129.319 208.041 130.045 208.056 130.897C208.153 131.754 208.861 132.314 209.7 132.288C210.545 132.177 211.113 131.366 211.092 130.599ZM206.572 130.623C208.632 132.043 211.75 130.731 212.436 129.503L206.572 130.623ZM218.091 119.607C217.085 117.581 215.323 116.607 213.459 116.901C211.594 117.196 210.611 118.998 210.335 120.34L218.091 119.607ZM205.801 120.532C205.53 118.727 201.909 115.922 199.513 119.666L205.801 120.532ZM214.784 119.12C214.687 118.263 214.152 117.63 213.563 117.674C212.974 117.718 212.496 118.45 212.594 119.307C212.692 120.165 213.226 120.797 213.815 120.754C214.404 120.71 214.882 119.978 214.784 119.12ZM203.403 120.194C203.305 119.337 202.771 118.704 202.181 118.747C201.592 118.791 201.115 119.523 201.212 120.381C201.31 121.238 201.844 121.871 202.433 121.827C203.023 121.783 203.5 121.051 203.403 120.194ZM199.095 116.575C199.864 116.374 201.486 115.977 202.339 115.782C202.678 115.72 202.942 115.569 203.115 115.496C203.558 115.187 203.274 114.571 202.761 114.705L202.677 114.7L202.74 114.959L202.65 115.038L202.594 114.694C202.511 114.688 202.338 114.761 202.255 114.755L202.324 114.93L202.234 115.009L202.165 114.834C201.908 114.901 201.652 114.968 201.395 115.035C200.536 115.315 199.566 115.927 199.032 116.315C199.019 116.484 199.012 116.569 199.095 116.575ZM216.569 114.653C215.834 114.431 214.531 113.999 213.533 113.929C213.2 113.906 212.867 113.883 212.611 113.95L212.597 114.119L212.431 114.107L212.444 113.938C212.278 113.926 212.195 113.921 212.028 113.909L211.994 114.332L211.828 114.32L211.862 113.897L211.779 113.891C211.19 113.935 211.038 114.775 211.606 114.985C211.849 115.087 212.182 115.11 212.605 115.055C213.61 115.04 215.627 114.927 216.549 114.906C216.722 114.833 216.736 114.664 216.569 114.653ZM210.158 159.623C210.573 159.652 210.934 159.337 210.968 158.914C211.002 158.492 210.697 158.13 210.281 158.101C209.865 158.072 209.505 158.387 209.471 158.81C209.436 159.232 209.825 159.6 210.158 159.623ZM214.525 160.44C214.941 160.469 215.302 160.154 215.336 159.731C215.37 159.308 215.065 158.946 214.649 158.917C214.233 158.888 213.873 159.203 213.838 159.626C213.894 159.97 214.193 160.416 214.525 160.44ZM210.226 158.777C209.036 161.076 207.251 165.544 207.761 170.598L210.226 158.777ZM213.125 177.693C213.125 177.693 213.125 177.693 213.931 171.881C214.738 166.068 214.345 160.597 214.428 159.582L213.125 177.693ZM207.629 170.163C207.38 171.166 207.429 171.595 207.471 172.108C207.513 172.622 208.344 172.68 208.406 171.919C208.461 171.242 207.629 170.163 207.629 170.163ZM213.256 177.107C212.764 178.008 212.564 178.419 212.522 178.927C212.481 179.434 213.209 179.74 213.431 179.075C213.735 178.416 213.256 177.107 213.256 177.107ZM222.578 147.82C220.777 149.395 212.32 150.504 209.481 154.557L222.578 147.82Z" fill="#43459A"/>
<path d="M222.295 140.996L221.684 140.273L220.11 139.057L214.155 138.214M222.295 140.996C222.295 140.996 230.392 141.223 234.867 145.875C234.867 145.875 236.879 147.887 236.741 149.579C236.604 151.27 223.164 162.236 219.658 164.202C216.588 165.943 213.088 166.803 207.346 163.339C201.52 159.868 195.259 148.372 195.126 147.938C194.994 147.503 194.813 145.619 197.64 143.776C200.46 142.017 207.472 138.086 214.155 138.214M222.295 140.996L223.361 120.657C223.361 120.657 228.364 118.796 228.25 115.046C228.137 111.295 223.624 112.255 222.628 114.227L222.295 140.996ZM214.155 138.214C214.147 137.278 214.064 137.272 214.064 137.272C214.064 137.272 218.097 136.024 220.846 132.049C222.127 129.672 222.943 127.858 222.943 127.858L222.677 141.448M214.155 138.214C216.588 139.15 221.443 141.191 222.677 141.448M237.963 106.711C240.187 114.352 245.229 108.921 246.918 113.888C248.738 119.289 240.697 119.406 240.879 121.29C241.06 123.174 244.623 122.573 243.725 126.422C242.737 130.351 237.992 125.935 237.247 130.987C236.592 135.959 234.254 133.839 231.856 134.521C229.452 135.288 232.414 138.983 226.787 140.29C225.255 140.608 223.598 140.407 221.885 139.862C217.475 138.532 212.717 135.306 208.607 135.444C202.895 135.724 202.199 131.932 200.381 130.614C198.564 129.296 196.685 128.739 196.441 126.596C196.197 124.452 199.281 123.562 194.916 117.558C190.849 111.999 195.907 108.441 196.381 103.626C196.863 98.7267 196.104 94.6758 200.385 90.3828C206.854 83.8617 215.313 85.8154 219.608 90.6244C219.608 90.6244 222.878 88.472 229.097 89.1631C234.484 89.7958 235.575 93.8699 236.773 100.758C236.933 101.875 237.17 103.083 237.399 104.375M237.963 106.711C237.761 106.101 237.399 104.375 237.399 104.375M237.963 106.711C237.761 106.101 237.65 105.413 237.462 104.634C237.469 104.55 237.399 104.375 237.399 104.375M222.578 147.82C222.578 147.82 217.312 150.853 213.083 151.408L214.113 137.701L214.167 136.003L220.988 127.21L222.768 124.868L222.677 141.448M222.578 147.82L222.677 141.448M222.578 147.82C220.777 149.395 212.32 150.504 209.481 154.557M179.374 216.24C173.414 217.523 168.357 213.851 167.308 210.29C166.724 208.208 166.819 206.003 169.028 202.501L173.595 192.614L175.717 201.524L173.943 202.76C176.475 204.554 184.649 206.913 185.142 208.053C185.844 209.718 182.694 215.537 179.374 216.24ZM233.122 193.129C220.082 191.96 207.041 190.791 194.001 189.621C193.895 196.078 193 202.99 192.402 210.348C192.265 212.04 192.127 213.731 191.54 215.816L232.303 218.673L233.676 201.758L233.122 193.129ZM192.196 212.885C192.196 212.885 183.404 236.68 183.882 254.491L183.426 319.962L203.873 321.331L213.285 241.667L235.452 321.124L256.159 323.494C256.159 323.494 239.994 232.141 232.952 215.827C231.711 215.655 219.096 216.472 215.345 216.294C203.705 215.393 196.085 213.413 192.196 212.885ZM195.291 172.701L209.809 156.707L204.899 145.05L203.255 144.68L193.386 146.71C193.386 146.71 190.502 147.188 188.216 148.559C184.793 150.531 182.479 152.24 181.195 159.805L173.3 196.251L188.919 197.601L195.291 172.701ZM236.941 201.732C235.414 198.903 236.456 184.006 236.456 184.006L235.793 160.229L221.898 156.193L207.716 157.751L200.814 152.079L199.874 155.415L198.778 154.488L195.215 172.61L190.427 202.725C190.427 202.725 192.425 203.885 195.835 203.104C199.328 202.328 205.095 201.371 210.185 203.599C215.441 205.839 238.462 204.645 236.941 201.732ZM222.23 208.781L215.95 183.079C215.512 181.263 213.944 179.962 212.114 179.834L171.268 176.971C169.854 176.872 168.745 178.155 169.052 179.537L175.707 206.796C175.888 207.66 176.672 208.31 177.587 208.374L220.014 211.348C221.428 211.447 222.536 210.164 222.23 208.781ZM219.568 208.595L213.288 182.893C212.85 181.076 211.282 179.775 209.452 179.647L168.606 176.784C167.192 176.685 166.083 177.968 166.389 179.351L173.045 206.61C173.226 207.473 174.009 208.123 174.925 208.188L217.352 211.161C218.766 211.26 219.874 209.977 219.568 208.595ZM191.323 195.813C192.322 195.883 193.5 195.795 193.624 194.273C193.74 192.835 192.166 191.619 191.167 191.549C190.169 191.479 188.97 191.821 188.888 192.835C188.785 194.104 190.242 195.737 191.323 195.813ZM206.834 208.808L212.656 208.195L209.379 201.161C209.379 201.161 204.346 192.048 202.674 189.974C201.917 188.985 201.238 189.108 200.704 189.496C199.998 189.957 199.749 190.96 200.103 191.75C200.735 193.24 201.867 195.786 201.202 195.74C199.87 195.647 195.209 192.258 193.545 191.12C192.116 190.17 190.945 190.173 190.203 190.036C188.13 189.805 185.317 192.5 185.145 193.594C184.855 195.104 185.064 196.65 186.237 197.668C188.026 199.324 193.235 203.177 195.843 204.04C197.631 204.676 204.6 206.44 204.6 206.44L206.834 208.808ZM186.983 194.658C187.677 196.408 193.177 199.77 193.177 199.77L186.983 194.658ZM189.616 193.142C191.142 194.95 195.165 196.933 195.165 196.933L189.616 193.142ZM170.266 207.861C170.266 207.861 171.605 208.89 172.16 210.29C172.716 211.69 175.17 211.352 175.17 211.352C175.17 211.352 177.291 210.99 178.387 211.918C179.483 212.845 182.351 210.494 183.251 209.707C184.152 208.919 185.327 204.749 184.23 202.801C183.133 200.853 180.816 198.479 176.657 198.187C172.497 197.896 171.253 202.912 171.253 202.912C167.651 206.062 170.266 207.861 170.266 207.861ZM174.375 205.682C174.375 205.682 175.276 204.895 177.048 201.617L174.375 205.682ZM177.565 207.607C177.565 207.607 178.466 206.82 180.238 203.542L177.565 207.607ZM221.891 156.278L234.591 175.03L240.263 203.071C237.973 200.358 239.294 204.704 239.294 204.704L212.01 197.603C211.296 197.128 210.277 197.312 209.792 198.128L205.487 206.842C204.629 208.143 204.991 209.87 206.26 210.724L230.777 216.865C238.126 219.082 244.782 219.548 248.109 219.781C256.428 220.364 253.985 198.929 253.985 198.929C253.985 198.929 253.145 188.663 251.397 168.978C251.183 161.308 249.213 158.788 246.604 155.883C244.835 153.973 240.673 151.64 240.673 151.64L231.866 146.77L230.202 146.654L221.891 156.278ZM235.332 191.668L235.744 186.593L237.812 171.428L232.469 165.1L227.058 159.617L224.425 161.134L222.555 163.554L221.058 181.992L229.262 194.304L235.332 191.668ZM223.617 120.59C232.195 115.918 227.012 109.686 222.898 113.99C222.898 113.99 215.565 124.959 223.617 120.59ZM199.318 117.951C200.235 129.328 204.949 138.249 211.95 137.549C218.951 136.849 224.606 126.954 223.689 115.577C222.772 104.2 218.206 97.5858 211.205 98.2859C204.294 98.9073 198.281 103.929 199.318 117.951ZM222.364 114.378C222.364 114.378 226.051 112.255 227.924 105.667C226.461 86.5967 209.694 90.0997 209.156 92.6136C208.541 95.0372 209.264 98.4901 209.264 98.4901C211.028 110.777 222.364 114.378 222.364 114.378ZM205.801 93.7394C205.801 93.7394 199.63 100.707 199.533 100.87C199.436 101.033 196.905 116.762 198.413 112.614C199.997 108.558 210.07 100.928 210.07 100.928L210.588 97.6473L205.801 93.7394ZM221.716 136.788L223.458 120.494C223.458 120.494 228.593 119.068 228.729 115.335C228.948 111.608 224.304 112.133 223.148 114.008L221.716 136.788ZM209.564 100.978C205.706 104.195 200.669 108.52 199.306 111.912C199.306 111.912 198.56 124.192 202.753 131.291C204.536 134.053 207.014 137.543 211.866 137.543C217.634 137.607 221.478 133.539 222.204 130.783L209.564 100.978ZM224.916 114.897C222.794 114.238 220.853 113.422 218.938 112.267C217.107 111.118 215.38 109.721 214.013 108.009C212.639 106.382 211.459 104.428 210.619 102.413C209.779 100.397 209.285 98.2364 208.881 95.9966C208.888 95.9121 208.728 95.8158 208.645 95.81C208.562 95.8042 208.465 95.9675 208.458 96.0521C208.696 98.2802 209.183 100.526 210.016 102.626C210.85 104.725 211.946 106.673 213.39 108.476C214.84 110.193 216.56 111.675 218.558 112.836C220.472 113.99 222.58 114.819 224.708 115.393C224.875 115.405 224.965 115.326 225.055 115.247C225.152 115.084 225.082 114.909 224.916 114.897ZM206.679 126.207C207.136 125.729 207.815 124.586 208.125 122.821L206.679 126.207ZM211.092 130.599C210.994 129.742 210.286 129.182 209.448 129.208C208.602 129.319 208.041 130.045 208.056 130.897C208.153 131.754 208.861 132.314 209.7 132.288C210.545 132.177 211.113 131.366 211.092 130.599ZM206.572 130.623C208.632 132.043 211.75 130.731 212.436 129.503L206.572 130.623ZM218.091 119.607C217.085 117.581 215.323 116.607 213.459 116.901C211.594 117.196 210.611 118.998 210.335 120.34L218.091 119.607ZM205.801 120.532C205.53 118.727 201.909 115.921 199.513 119.666L205.801 120.532ZM214.784 119.12C214.687 118.263 214.152 117.63 213.563 117.674C212.974 117.718 212.496 118.45 212.594 119.307C212.692 120.165 213.226 120.797 213.815 120.754C214.404 120.71 214.882 119.978 214.784 119.12ZM203.403 120.194C203.305 119.337 202.771 118.704 202.181 118.747C201.592 118.791 201.115 119.523 201.212 120.381C201.31 121.238 201.844 121.871 202.433 121.827C203.023 121.783 203.5 121.051 203.403 120.194ZM199.095 116.575C199.864 116.374 201.486 115.977 202.339 115.782C202.678 115.72 202.942 115.569 203.115 115.496C203.558 115.187 203.274 114.571 202.761 114.705L202.677 114.7L202.74 114.959L202.65 115.038L202.594 114.694C202.511 114.688 202.338 114.761 202.255 114.755L202.324 114.93L202.234 115.009L202.165 114.834C201.908 114.901 201.652 114.968 201.395 115.035C200.536 115.315 199.566 115.927 199.032 116.315C199.019 116.484 199.012 116.569 199.095 116.575ZM216.569 114.653C215.834 114.431 214.531 113.999 213.533 113.929C213.2 113.906 212.867 113.883 212.611 113.95L212.597 114.119L212.431 114.107L212.444 113.938C212.278 113.926 212.195 113.921 212.028 113.909L211.994 114.332L211.828 114.32L211.862 113.897L211.779 113.891C211.19 113.935 211.038 114.775 211.606 114.985C211.849 115.087 212.182 115.11 212.605 115.055C213.61 115.04 215.627 114.927 216.549 114.906C216.722 114.833 216.736 114.664 216.569 114.653ZM210.158 159.623C210.573 159.652 210.934 159.337 210.968 158.914C211.002 158.492 210.697 158.13 210.281 158.101C209.865 158.072 209.505 158.387 209.471 158.81C209.436 159.232 209.825 159.6 210.158 159.623ZM214.525 160.44C214.941 160.469 215.302 160.154 215.336 159.731C215.37 159.308 215.065 158.946 214.649 158.917C214.233 158.888 213.873 159.203 213.838 159.626C213.894 159.97 214.193 160.416 214.525 160.44ZM210.226 158.777C209.036 161.076 207.251 165.544 207.761 170.598L210.226 158.777ZM213.125 177.693C213.125 177.693 213.125 177.693 213.931 171.881C214.738 166.068 214.345 160.597 214.428 159.582L213.125 177.693ZM207.629 170.163C207.38 171.166 207.429 171.595 207.471 172.108C207.513 172.622 208.344 172.68 208.406 171.919C208.461 171.242 207.629 170.163 207.629 170.163ZM213.256 177.107C212.764 178.008 212.564 178.419 212.522 178.927C212.481 179.434 213.209 179.74 213.431 179.075C213.735 178.416 213.256 177.107 213.256 177.107Z" stroke="#262961" stroke-width="5.07493" stroke-miterlimit="10"/>
<path d="M184.641 207.793C184.149 206.649 175.96 204.3 173.427 202.505L175.209 201.261L173.106 192.325L168.5 202.256C166.277 205.775 166.175 207.988 166.755 210.076C167.797 213.647 172.856 217.321 178.836 216.02C182.166 215.308 185.339 209.462 184.641 207.793Z" fill="#43459A" stroke="#262961" stroke-width="0.845822" stroke-miterlimit="10"/>
<path d="M233.819 201.678L232.389 218.754L191.306 215.959C191.904 213.853 192.047 212.145 192.19 210.438C192.812 203.009 193.734 196.031 193.859 189.513C207 190.665 220.142 191.817 233.284 192.968L233.819 201.678Z" fill="#FFB28B" stroke="#262961" stroke-width="0.845822" stroke-miterlimit="10"/>
<path d="M192.845 212.673C192.845 212.673 183.973 236.559 184.404 254.423L183.754 321.7L204.187 321.522L213.892 241.496L235.88 321.245L256.622 322.977C256.622 322.977 240.672 231.884 233.663 215.535C232.42 215.366 219.78 216.212 216.024 216.042C204.367 215.164 196.739 213.194 192.845 212.673Z" fill="#00C3EB" stroke="#2B2D60" stroke-width="0.886675" stroke-miterlimit="10" stroke-linecap="round" stroke-linejoin="round"/>
<path d="M194.742 172.621L209.302 156.56L204.423 144.887L202.781 144.52L192.906 146.576C192.906 146.576 190.021 147.061 187.731 148.44C184.303 150.423 181.984 152.141 180.68 159.726L172.687 196.272L188.302 197.591L194.742 172.621Z" fill="#43459A" stroke="#262961" stroke-width="0.845822" stroke-miterlimit="10"/>
<path d="M236.793 201.846C235.267 199.008 236.354 184.042 236.354 184.042L235.753 160.16L221.813 156.136L207.57 157.731L200.655 152.049L199.702 155.402L198.604 154.473C198.604 154.473 194.315 168.252 192.658 177.312C190.847 187.219 190.089 202.944 190.089 202.944C190.089 202.944 192.091 204.106 195.517 203.313C199.027 202.526 204.819 201.553 209.924 203.78C215.195 206.018 238.312 204.77 236.793 201.846Z" fill="#3AFFDC" stroke="#262961" stroke-width="0.845822" stroke-miterlimit="10"/>
<path d="M235.834 201.842C234.31 198.912 235.439 183.442 235.439 183.442L234.896 158.76L220.919 154.629L206.623 156.308L199.7 150.448L198.735 153.916L197.636 152.958C197.636 152.958 193.296 167.209 191.611 176.576C189.769 186.819 188.969 203.073 188.969 203.073C188.969 203.073 190.975 204.269 194.414 203.443C197.938 202.623 203.752 201.604 208.868 203.896C214.152 206.198 237.35 204.86 235.834 201.842Z" fill="#3AFFDC"/>
<path d="M191.977 173.309C191.977 173.309 191.645 175.333 191.606 176.64C191.583 177.424 191.644 178.645 191.644 178.645L190.288 178.552L191.977 173.309Z" fill="#2B2D60"/>
<path d="M213.882 181.788L213.882 181.789L220.008 207.875C220.258 209.063 219.307 210.156 218.119 210.079L175.435 207.298C174.679 207.249 174.082 206.716 173.853 205.949L167.363 178.292C167.114 177.105 168.064 176.01 169.253 176.088L210.346 178.765C212.04 178.876 213.487 180.085 213.882 181.788Z" fill="white" stroke="#262961" stroke-width="0.676657"/>
<path d="M212.803 182.614L212.803 182.615L218.993 208.649C219.245 209.831 218.298 210.922 217.106 210.843L174.372 208.003C173.614 207.952 173.015 207.42 172.785 206.655L166.227 179.052C165.975 177.87 166.922 176.779 168.114 176.858L209.256 179.593C210.952 179.705 212.404 180.915 212.803 182.614Z" fill="white" stroke="#262961" stroke-width="0.676657"/>
<path d="M188.833 192.73C188.864 192.372 189.082 192.118 189.441 191.947C189.811 191.772 190.3 191.703 190.76 191.733C191.157 191.759 191.729 192.029 192.192 192.486C192.652 192.94 192.946 193.517 192.893 194.11C192.863 194.452 192.777 194.69 192.669 194.856C192.562 195.021 192.423 195.134 192.256 195.213C191.906 195.379 191.439 195.395 190.943 195.363C190.536 195.337 189.979 194.991 189.518 194.439C189.062 193.892 188.787 193.246 188.833 192.73Z" fill="#E2FFFA" stroke="#262961" stroke-width="0.676657"/>
<path d="M204.199 206.392C204.199 206.392 197.181 204.627 195.38 203.99C192.754 203.125 187.522 199.164 185.716 197.582C184.537 196.557 184.247 194.992 184.627 193.473C184.888 192.375 187.729 189.65 189.734 189.872C190.565 190.015 191.662 190.003 193.099 190.96C194.858 192.109 199.462 195.512 200.803 195.604C201.474 195.649 200.431 193.003 199.707 191.581C199.352 190.784 199.599 189.857 200.319 189.305C200.858 188.912 201.536 188.872 202.302 189.783C203.982 191.871 209.029 201.056 209.029 201.056L212.313 208.146L206.444 208.777L204.199 206.392Z" fill="#FFB28B" stroke="#262961" stroke-width="0.845822" stroke-miterlimit="10"/>
<path d="M192.809 199.637C192.809 199.637 187.277 196.259 186.582 194.496" stroke="#262961" stroke-width="0.592075" stroke-miterlimit="10" stroke-linecap="round"/>
<path d="M194.815 196.818C194.815 196.818 190.763 194.823 189.228 193" stroke="#262961" stroke-width="0.592075" stroke-miterlimit="10" stroke-linecap="round"/>
<path d="M170.723 202.661C170.723 202.661 171.988 197.612 176.17 197.896C180.353 198.18 182.677 200.563 183.775 202.521C184.873 204.479 183.679 208.677 182.771 209.471C181.863 210.265 178.972 212.636 177.873 211.706C176.773 210.775 174.639 211.144 174.639 211.144C174.639 211.144 172.17 211.489 171.615 210.082C171.06 208.675 169.716 207.642 169.716 207.642C169.716 207.642 167.091 205.838 170.723 202.661Z" fill="#FFB28B" stroke="#262961" stroke-width="0.845822" stroke-miterlimit="10"/>
<path d="M176.52 201.355C174.742 204.642 173.84 205.433 173.84 205.433" stroke="#262961" stroke-width="0.592075" stroke-miterlimit="10" stroke-linecap="round"/>
<path d="M179.767 203.296C177.988 206.583 177.087 207.374 177.087 207.374" stroke="#262961" stroke-width="0.592075" stroke-miterlimit="10" stroke-linecap="round"/>
<path d="M230.368 146.713L232.033 146.826L240.838 151.691C240.838 151.691 244.998 154.021 246.764 155.933C249.368 158.84 251.334 161.362 251.528 169.053C253.225 188.79 254.038 199.083 254.038 199.083C254.038 199.083 256.426 220.573 248.098 220.006C244.767 219.779 238.105 219.326 230.752 217.119L206.222 211.014C204.954 210.16 204.68 208.435 205.459 207.123L209.793 198.375C210.274 197.64 211.301 197.369 212.015 197.844L239.313 204.905C239.313 204.905 238.002 200.551 240.288 203.266L234.685 175.159L222.02 156.382L230.368 146.713Z" fill="#3AFFDC" stroke="#262961" stroke-width="0.845822" stroke-miterlimit="10"/>
<path d="M235.267 191.823L235.691 186.743L237.792 171.558L232.487 165.235L227.112 159.759L224.486 161.283L222.617 163.71L221.084 182.084L229.221 194.391L235.267 191.823Z" fill="#3AFFDC"/>
<path d="M222.231 114.232C223.238 112.247 227.753 111.264 227.847 115.032C227.941 118.8 222.929 120.69 222.929 120.69L221.756 141.131C221.756 141.131 229.848 141.326 234.207 146.06C234.207 146.06 236.207 148.074 236.061 149.774C235.914 151.474 222.421 162.548 218.905 164.537C215.828 166.3 212.324 167.178 206.602 163.721C200.88 160.264 194.599 148.733 194.469 148.297C194.339 147.861 194.092 145.878 197.003 144.105C199.839 142.241 206.863 138.347 213.542 138.448L219.491 139.271L221.059 140.486L221.665 141.21" fill="#43459A"/>
<path d="M222.231 114.232C223.238 112.247 227.753 111.264 227.847 115.032C227.941 118.8 222.929 120.69 222.929 120.69L221.756 141.131C221.756 141.131 229.848 141.326 234.207 146.06C234.207 146.06 236.207 148.074 236.061 149.774C235.914 151.474 222.421 162.548 218.905 164.537C215.828 166.3 212.324 167.178 206.602 163.721C200.88 160.264 194.599 148.733 194.469 148.297C194.339 147.861 194.092 145.878 197.003 144.105C199.839 142.241 206.863 138.347 213.542 138.448L219.491 139.271L221.059 140.486L221.665 141.21" stroke="#262961" stroke-width="0.776887" stroke-miterlimit="10" stroke-linecap="round" stroke-linejoin="round"/>
<path d="M194.25 117.927C198.596 123.956 195.498 124.864 195.731 127.022C195.965 129.18 197.846 129.733 199.662 131.053C201.477 132.373 202.155 136.188 207.885 135.883C212.008 135.727 216.762 138.956 221.178 140.277C222.892 140.819 224.553 141.015 226.091 140.689C231.742 139.349 228.79 135.64 231.206 134.858C233.614 134.161 235.947 136.286 236.631 131.276C237.404 126.186 242.139 130.613 243.152 126.653C244.073 122.772 240.497 123.392 240.325 121.495C240.153 119.599 248.217 119.448 246.421 114.016C244.754 109.021 239.668 114.511 237.478 106.825C237.28 106.212 236.926 104.475 236.926 104.475C236.702 103.175 236.472 101.96 236.317 100.836C235.153 93.9033 234.08 89.8048 228.681 89.1899C222.448 88.5196 219.157 90.7007 219.157 90.7007C214.876 85.8753 206.403 83.9426 199.88 90.5366C195.564 94.8777 196.304 98.9541 195.795 103.89C195.293 108.741 190.202 112.345 194.25 117.927Z" fill="#FFFDC6"/>
<path d="M213.763 137.889L213.825 136.19L220.592 127.365L222.357 125.014L222.182 141.603L222.051 147.979C222.051 147.979 216.847 151.035 212.678 151.607L213.763 137.889Z" fill="#FFB28B" stroke="#262961" stroke-width="0.517897" stroke-miterlimit="10"/>
<path d="M194.25 117.927C198.596 123.956 195.498 124.864 195.731 127.022C195.965 129.18 197.846 129.733 199.662 131.053C201.477 132.373 202.155 136.188 207.885 135.883C212.008 135.728 216.762 138.956 221.178 140.277C222.892 140.819 224.553 141.015 226.091 140.689C231.742 139.349 228.79 135.64 231.206 134.858C233.614 134.161 235.947 136.286 236.631 131.276C237.404 126.186 242.139 130.613 243.152 126.653C244.073 122.772 240.497 123.392 240.325 121.495C240.153 119.599 248.217 119.448 246.421 114.016C244.754 109.021 239.668 114.511 237.478 106.825C237.28 106.212 237.171 105.52 236.987 104.736C236.995 104.651 236.926 104.475 236.926 104.475C236.702 103.175 236.472 101.96 236.317 100.836C235.153 93.9033 234.08 89.8048 228.681 89.1899C222.448 88.5196 219.157 90.7007 219.157 90.7007C214.876 85.8753 206.403 83.9426 199.88 90.5366C195.564 94.8777 196.304 98.9541 195.795 103.89C195.293 108.741 190.202 112.345 194.25 117.927Z" stroke="#262961" stroke-width="0.776887" stroke-miterlimit="10"/>
<path d="M222.419 114.23C226.559 109.885 231.713 116.13 223.103 120.863C215.022 125.289 222.419 114.23 222.419 114.23Z" fill="#FFB28B"/>
<path d="M198.695 118.169C199.549 129.581 204.201 138.513 211.183 137.782C218.166 137.05 223.857 127.098 223.003 115.686C222.149 104.274 217.632 97.6555 210.65 98.3868C203.757 99.0387 197.736 104.103 198.695 118.169Z" fill="#FFB28B"/>
<path d="M208.599 98.7508C208.599 98.7508 207.894 95.2815 208.522 92.8419C209.151 90.4023 225.959 86.7256 227.239 105.891C225.245 112.518 221.627 114.674 221.627 114.674C221.627 114.674 210.299 111.099 208.599 98.7508Z" fill="#FFFDC6"/>
<path d="M209.82 97.7636L209.288 101.056C209.288 101.056 199.222 108.748 197.624 112.823C196.026 116.898 198.704 101.205 198.802 101.041C198.899 100.877 205.077 93.8645 205.077 93.8645L209.82 97.7636Z" fill="#FFFDC6"/>
<path d="M221.312 137.036L223.093 120.745C223.093 120.745 228.108 119.299 228.259 115.567C228.492 111.842 223.96 112.386 222.823 114.265" stroke="#262961" stroke-width="0.776887" stroke-miterlimit="10" stroke-linecap="round" stroke-linejoin="round"/>
<path d="M221.545 130.947C220.806 133.717 216.949 137.816 211.195 137.776C206.354 137.796 203.901 134.302 202.136 131.537C197.991 124.429 198.8 112.099 198.8 112.099C200.186 108.604 205.226 104.327 209.093 101.082" stroke="#262961" stroke-width="0.517897" stroke-miterlimit="10" stroke-linecap="round" stroke-linejoin="round"/>
<path d="M222.184 141.637C220.955 141.384 216.124 139.356 213.701 138.426C213.706 137.402 213.616 137.481 213.616 137.481C213.616 137.481 217.645 136.212 220.408 132.211C221.615 129.814 222.522 127.996 222.522 127.996L222.184 141.637Z" fill="#262961"/>
<path d="M224.212 115.157C222.089 114.502 220.147 113.688 218.234 112.533C216.404 111.384 214.68 109.984 213.319 108.266C211.95 106.634 210.778 104.671 209.946 102.646C209.114 100.62 208.631 98.4467 208.238 96.1934C208.245 96.1082 208.086 96.0119 208.003 96.0064C207.919 96.0009 207.821 96.1657 207.814 96.2509C208.04 98.4932 208.516 100.752 209.341 102.863C210.165 104.973 211.254 106.93 212.691 108.739C214.136 110.462 215.853 111.947 217.849 113.107C219.762 114.262 221.871 115.087 224.002 115.657C224.168 115.668 224.259 115.588 224.35 115.508C224.448 115.344 224.379 115.168 224.212 115.157Z" fill="#262961"/>
<path d="M207.457 122.944C207.142 124.711 206.468 125.857 206.015 126.337L207.457 122.944Z" fill="#FFB28B"/>
<path d="M207.457 122.944C207.142 124.711 206.468 125.857 206.015 126.337" stroke="#262961" stroke-width="0.517897" stroke-miterlimit="10" stroke-linecap="round" stroke-linejoin="round"/>
<path d="M209.105 132.34C208.256 132.455 207.557 131.809 207.464 130.946C207.371 130.084 208.02 129.356 208.869 129.241C209.717 129.126 210.416 129.772 210.509 130.634C210.519 131.492 209.946 132.31 209.105 132.34Z" fill="#F4259A"/>
<path d="M211.963 129.522C211.264 130.78 208.107 132.135 206.034 130.691" stroke="#262961" stroke-width="0.517897" stroke-miterlimit="10" stroke-linecap="round" stroke-linejoin="round"/>
<path d="M217.504 119.79C216.5 117.735 214.729 116.752 212.847 117.059C210.965 117.366 209.964 119.202 209.678 120.566" stroke="#262961" stroke-width="0.487363" stroke-miterlimit="10" stroke-linecap="round" stroke-linejoin="round"/>
<path d="M205.056 120.656C204.792 118.816 201.151 115.969 198.713 119.799" stroke="#262961" stroke-width="0.493706" stroke-miterlimit="10" stroke-linecap="round" stroke-linejoin="round"/>
<path d="M213.188 120.939C212.599 120.985 211.985 120.347 211.975 119.491C211.965 118.636 212.363 117.894 212.952 117.847C213.541 117.801 214.155 118.44 214.165 119.295C214.258 120.156 213.776 120.893 213.188 120.939Z" fill="#262961"/>
<path d="M201.661 121.936C201.072 121.982 200.459 121.344 200.449 120.488C200.356 119.628 200.837 118.891 201.426 118.844C202.015 118.798 202.628 119.437 202.638 120.292C202.731 121.153 202.25 121.89 201.661 121.936Z" fill="#262961"/>
<path d="M198.261 116.703C199.038 116.496 200.675 116.086 201.535 115.884C201.878 115.821 202.144 115.666 202.319 115.591C202.768 115.275 202.484 114.652 201.967 114.79L201.883 114.785L201.945 115.048L201.853 115.128L201.799 114.779C201.715 114.773 201.54 114.848 201.456 114.843L201.525 115.02L201.434 115.1L201.365 114.923C201.106 114.992 200.847 115.061 200.588 115.13C199.721 115.418 198.739 116.044 198.2 116.44C198.185 116.612 198.177 116.698 198.261 116.703Z" fill="#262961"/>
<path d="M215.935 115.012C215.002 115.037 212.961 115.163 211.944 115.183C211.516 115.242 211.18 115.219 210.935 115.115C210.361 114.9 210.519 114.032 211.115 113.985L211.199 113.99L211.162 114.427L211.331 114.438L211.368 114.002C211.536 114.013 211.62 114.019 211.788 114.03L211.773 114.205L211.942 114.216L211.956 114.041C212.209 114.058 212.545 114.081 212.889 114.016C213.898 114.084 215.306 114.443 215.957 114.75C216.118 114.849 216.103 115.024 215.935 115.012Z" fill="#262961"/>
<path d="M201.43 136.225C200.489 135.478 199.495 134.386 199.115 133.933L197.72 135.551L197.88 138.556C199.455 138.09 202.37 136.971 201.43 136.225Z" fill="#E2FFFA"/>
<path d="M209.768 159.697C210.185 159.725 210.548 159.407 210.584 158.981C210.62 158.555 210.316 158.192 209.899 158.165C209.482 158.137 209.119 158.455 209.082 158.881C209.046 159.306 209.434 159.675 209.768 159.697Z" fill="white"/>
<path d="M214.2 160.54C214.617 160.568 214.98 160.25 215.016 159.824C215.053 159.399 214.748 159.036 214.331 159.008C213.914 158.98 213.551 159.298 213.514 159.724C213.569 160.07 213.866 160.518 214.2 160.54Z" fill="white"/>
<path d="M209.84 158.828C208.681 161.127 206.939 165.595 207.41 170.64" stroke="#2B2D60" stroke-width="0.886675" stroke-miterlimit="10" stroke-linecap="round" stroke-linejoin="round"/>
<path d="M214.244 159.683C214.247 160.617 214.504 166.151 213.741 171.95C212.979 177.75 212.979 177.75 212.979 177.75" stroke="#2B2D60" stroke-width="0.886675" stroke-miterlimit="10" stroke-linecap="round" stroke-linejoin="round"/>
<path d="M207.308 170.189C207.057 171.194 207.103 171.623 207.143 172.137C207.182 172.651 208.007 172.707 208.072 171.944C208.129 171.266 207.308 170.189 207.308 170.189Z" fill="#2B2D60"/>
<path d="M213.048 177.149C212.557 178.053 212.357 178.466 212.313 178.974C212.27 179.482 212.99 179.786 213.213 179.12C213.517 178.459 213.048 177.149 213.048 177.149Z" fill="#2B2D60"/>
<path d="M222.279 147.896C220.459 149.491 211.929 150.628 209.055 154.728" stroke="#262961" stroke-width="0.845822" stroke-miterlimit="10" stroke-linecap="round" stroke-linejoin="round"/>
</g>
<path d="M172.38 218.028C167.084 216.271 164.869 212.655 164.423 211.066L162.673 211.782L159.212 218.307L163.533 222.874C168.689 221.99 177.677 219.784 172.38 218.028Z" fill="#E2FFFA"/>
<circle cx="170.962" cy="180.599" r="1.48019" transform="rotate(4.31321 170.962 180.599)" fill="white" stroke="#262961" stroke-width="0.422911"/>
<circle cx="174.336" cy="180.853" r="0.676657" transform="rotate(4.31321 174.336 180.853)" fill="white" stroke="#262961" stroke-width="0.338329"/>
<path d="M264.02 103.173L263.894 102.65C263.894 102.65 264.671 102.447 265.882 102.103L266.008 102.626C264.797 102.97 264.02 103.173 264.02 103.173ZM268.094 101.915L267.961 101.477C268.654 101.268 269.27 100.968 269.886 100.669L270.103 101.112C269.403 101.406 268.703 101.7 268.094 101.915ZM302.604 102.526C302.436 102.514 302.267 102.502 302.015 102.485L302.057 101.973C302.729 102.02 303.485 102.073 304.158 102.12L304.116 102.631C303.696 102.602 303.108 102.561 302.604 102.526ZM299.999 102.344C299.327 102.297 298.578 102.159 297.905 102.112L297.947 101.6C298.612 101.733 299.285 101.78 300.041 101.832L299.999 102.344ZM306.223 102.693L306.265 102.181C306.937 102.228 307.616 102.19 308.379 102.158L308.338 102.669C307.659 102.707 306.979 102.746 306.223 102.693ZM271.944 100.298L271.726 99.8544C272.342 99.5546 272.958 99.2547 273.581 98.8697L273.798 99.3134C273.267 99.6191 272.644 100.004 271.944 100.298ZM295.826 101.709C295.161 101.577 294.411 101.439 293.746 101.307L293.872 100.801C294.537 100.934 295.202 101.066 295.952 101.204L295.826 101.709ZM310.452 102.645L310.41 102.128C311.089 102.09 311.768 102.052 312.531 102.019L312.573 102.536C311.894 102.575 311.131 102.607 310.452 102.645ZM291.758 100.825C291.092 100.693 290.434 100.476 289.776 100.258L289.902 99.7527C290.56 99.9701 291.225 100.102 291.883 100.32L291.758 100.825ZM314.611 102.422L314.568 101.904C315.247 101.866 315.933 101.743 316.612 101.704L316.655 102.222C316.06 102.266 315.297 102.298 314.611 102.422ZM318.79 101.942L318.748 101.425C319.434 101.301 320.113 101.263 320.799 101.14L320.841 101.657C320.246 101.701 319.476 101.819 318.79 101.942ZM287.71 99.6853C287.052 99.4679 286.394 99.2505 285.742 98.9478L285.952 98.4482C286.61 98.6656 287.262 98.9683 287.92 99.1857L287.71 99.6853ZM275.66 98.2435L275.359 97.7939C275.982 97.4089 276.52 97.018 277.059 96.627L277.361 97.0767C276.913 97.3882 276.283 97.8585 275.66 98.2435ZM322.99 101.207L322.864 100.684C323.55 100.56 324.236 100.437 324.929 100.228L325.055 100.751C324.362 100.96 323.676 101.084 322.99 101.207ZM283.774 98.2104C283.123 97.9078 282.472 97.6051 281.905 97.3084L282.114 96.8087C282.766 97.1114 283.333 97.4081 283.991 97.6256L283.774 98.2104ZM327.12 100.296L326.987 99.8577C327.68 99.649 328.366 99.5255 328.975 99.3109L329.101 99.834C328.499 99.9634 327.806 100.172 327.12 100.296ZM280.035 96.4063C279.383 96.1037 278.823 95.7217 278.172 95.4191L278.458 95.0106C278.619 95.1075 278.781 95.2045 278.858 95.2956C279.312 94.8988 279.774 94.4168 280.236 93.9348L280.628 94.305C280.257 94.7077 279.796 95.1897 279.341 95.5865C279.663 95.7804 279.992 95.8891 280.23 96.0772L280.035 96.4063ZM276.407 94.2672C275.846 93.8853 275.202 93.4974 274.641 93.1154L274.928 92.7069C275.489 93.0889 276.049 93.4709 276.609 93.8529L276.407 94.2672ZM282.041 92.5181L281.642 92.2331C282.027 91.66 282.411 91.0869 282.796 90.5138L283.195 90.7988C282.818 91.2867 282.426 91.945 282.041 92.5181ZM273.058 91.8049C272.505 91.3376 271.951 90.8704 271.482 90.4091L271.853 90.0064C272.322 90.4678 272.876 90.935 273.436 91.317L273.058 91.8049ZM269.906 89.0133C269.443 88.4667 268.89 87.9995 268.512 87.4588L268.875 87.1414C269.338 87.688 269.807 88.1493 270.27 88.6959L269.906 89.0133ZM284.118 88.8062L283.628 88.6005C283.852 87.9304 284.075 87.2604 284.299 86.5903L284.796 86.7107C284.649 87.4719 284.426 88.142 284.118 88.8062ZM267.215 85.7397C266.844 85.1138 266.465 84.5731 266.094 83.9472L266.535 83.7208C266.822 84.3409 267.201 84.8816 267.572 85.5075L267.215 85.7397ZM285.221 84.5977L284.717 84.5625C284.731 84.392 284.752 84.1363 284.766 83.9659C284.808 83.4545 284.842 83.0284 284.8 82.5112L285.311 82.4612C285.353 82.9784 285.312 83.4898 285.277 83.9159C285.256 84.1716 285.235 84.4272 285.221 84.5977ZM265.238 82.0018C264.958 81.2965 264.761 80.5971 264.642 79.9887L265.16 79.8535C265.272 80.5471 265.476 81.1612 265.756 81.8665L265.238 82.0018ZM284.715 80.4481C284.602 79.7546 284.49 79.0611 284.377 78.3675L284.895 78.2323C285.092 78.9317 285.204 79.6252 285.233 80.3129L284.715 80.4481ZM264.311 77.8229C264.276 77.2204 264.241 76.618 264.289 76.0214C264.303 75.8509 264.31 75.7657 264.317 75.6805L264.821 75.7157C264.814 75.8009 264.8 75.9714 264.793 76.0566C264.745 76.6532 264.703 77.1645 264.738 77.767L264.311 77.8229ZM283.781 76.3545C283.717 76.0929 283.57 75.8255 283.507 75.564C283.374 75.1261 283.234 74.7735 283.093 74.4208L283.534 74.1945C283.674 74.5471 283.808 74.985 283.941 75.4229C284.004 75.6844 284.151 75.9518 284.215 76.2134L283.781 76.3545ZM265.331 73.6085L264.833 73.4881C265.057 72.818 265.365 72.1538 265.672 71.4896L266.078 71.6894C265.771 72.3536 265.547 73.0237 265.331 73.6085ZM282.238 72.4754C281.866 71.8495 281.495 71.2235 281.109 70.7681L281.473 70.4506C281.852 70.9913 282.223 71.6173 282.595 72.2432L282.238 72.4754ZM267.226 70.0553L266.826 69.7703C267.295 69.2031 267.841 68.7269 268.387 68.2508L268.695 68.6152C268.156 69.0061 267.694 69.4881 267.226 70.0553ZM279.799 69.2194C279.33 68.7581 278.776 68.2909 278.209 67.9941L278.496 67.5856C279.056 67.9676 279.61 68.4348 280.163 68.902L279.799 69.2194ZM270.479 67.4541L270.262 67.0104C270.878 66.7106 271.571 66.5019 272.348 66.299L272.474 66.8221C271.704 66.9397 271.095 67.1543 270.479 67.4541ZM276.339 67.0921C275.681 66.8747 275.1 66.7484 274.428 66.7014L274.344 66.6956L274.385 66.1842L274.469 66.1901C275.141 66.237 275.807 66.3692 276.465 66.5866L276.339 67.0921Z" fill="#FCB28D"/>
<path d="M144.422 76.842C143.749 76.7949 142.993 76.742 142.32 76.6949L142.362 76.1827C143.034 76.2297 143.707 76.2768 144.464 76.3297L144.422 76.842ZM146.44 76.9831L146.481 76.4709C147.154 76.518 147.833 76.4797 148.59 76.5326L148.548 77.0448C147.876 76.9978 147.196 77.0361 146.44 76.9831ZM140.225 76.4625C139.56 76.3301 138.803 76.2771 138.137 76.1447L138.263 75.6384C138.929 75.7708 139.601 75.8178 140.351 75.9561L140.225 76.4625ZM150.664 77.0211L150.706 76.5089C151.385 76.4706 152.058 76.5177 152.821 76.4852L152.864 77.0033C152.1 77.0358 151.343 76.9828 150.664 77.0211ZM136.057 75.7415C135.391 75.6091 134.641 75.4708 133.983 75.253L134.108 74.7467C134.774 74.8791 135.44 75.0115 136.098 75.2293L136.057 75.7415ZM154.902 76.8884L154.86 76.3703C155.539 76.332 156.219 76.2937 156.905 76.17L156.948 76.6881C156.268 76.7264 155.589 76.7647 154.902 76.8884ZM131.993 74.7704C131.334 74.5526 130.668 74.4201 130.01 74.2023L130.135 73.696C130.794 73.9138 131.453 74.1316 132.118 74.264L131.993 74.7704ZM159.077 76.4937L159.035 75.9756C159.721 75.8519 160.401 75.8136 161.087 75.6899L161.13 76.208C160.45 76.2463 159.764 76.37 159.077 76.4937ZM128.041 73.4636C127.382 73.2458 126.73 72.9427 126.071 72.7249L126.281 72.2244C126.933 72.5276 127.592 72.7454 128.25 72.9632L128.041 73.4636ZM163.189 75.837L163.147 75.3189C163.833 75.1952 164.519 75.0715 165.206 74.9479L165.248 75.466C164.562 75.5896 163.875 75.7133 163.189 75.837ZM167.308 75.0949L167.181 74.571C167.868 74.4473 168.561 74.2382 169.247 74.1146L169.374 74.6385C168.688 74.7622 168.001 74.8859 167.308 75.0949ZM124.109 71.9008C123.458 71.5976 122.806 71.2944 122.238 70.9972L122.441 70.5821C123.009 70.8794 123.66 71.1825 124.312 71.4857L124.109 71.9008ZM171.447 74.0968L171.321 73.5728C172.014 73.3637 172.701 73.2401 173.31 73.0251L173.436 73.5491C172.743 73.7581 172.134 73.9731 171.447 74.0968ZM120.374 70.0082C119.729 69.6197 119.162 69.3224 118.601 68.9397L118.888 68.5306C119.449 68.9132 120.093 69.3017 120.661 69.599L120.374 70.0082ZM175.51 73.0073L175.383 72.4834C176.077 72.2743 176.686 72.0594 177.379 71.8504L177.506 72.3743C176.812 72.5834 176.119 72.7924 175.51 73.0073ZM116.926 67.7064C116.365 67.3238 115.811 66.8558 115.25 66.4731L115.537 66.0639C116.091 66.532 116.652 66.9146 117.213 67.2972L116.926 67.7064ZM179.502 71.7413L179.375 71.2173C180.069 71.0083 180.678 70.7934 181.378 70.499L181.512 70.9376C180.811 71.232 180.202 71.4469 179.502 71.7413ZM183.424 70.2987L183.297 69.7747C183.648 69.6275 184.082 69.4862 184.432 69.339L184.649 69.7834C184.208 70.0101 183.858 70.1573 183.424 70.2987ZM113.589 65.0691C113.035 64.6011 112.566 64.139 112.103 63.5915L112.474 63.1882C112.944 63.6503 113.497 64.1183 113.967 64.5804L113.589 65.0691ZM110.617 62.1138C110.154 61.5663 109.691 61.0188 109.312 60.4772L109.761 60.1652C110.139 60.7068 110.602 61.2543 111.065 61.8018L110.617 62.1138ZM108.106 58.6757C107.734 58.0488 107.363 57.4218 107.068 56.886L107.509 56.6594C107.797 57.2805 108.176 57.8221 108.547 58.4491L108.106 58.6757ZM106.121 55.0169C105.833 54.3958 105.553 53.6893 105.356 52.9887L105.79 52.8474C105.994 53.4626 106.274 54.1691 106.562 54.7902L106.121 55.0169ZM104.759 50.9723C104.646 50.2776 104.45 49.577 104.428 48.8028L104.94 48.7528C105.052 49.4475 105.165 50.1422 105.277 50.8369L104.759 50.9723ZM104.174 46.7246C104.237 45.9563 104.208 45.2675 104.264 44.5845L104.768 44.6198C104.713 45.3028 104.741 45.9916 104.686 46.6745L104.174 46.7246ZM105.026 42.4915L104.529 42.3709C104.668 41.6938 104.815 40.9314 105.038 40.2602L105.536 40.3809C105.305 41.1374 105.166 41.8145 105.026 42.4915ZM106.2 38.4527L105.71 38.2467C106.017 37.5814 106.325 36.9161 106.626 36.3362L107.032 36.5363C106.809 37.2075 106.501 37.8728 106.2 38.4527ZM108.187 34.8142L107.787 34.5287C108.172 33.9546 108.557 33.3806 109.026 32.8124L109.426 33.0979C108.957 33.6661 108.572 34.2402 108.187 34.8142ZM110.742 31.4729L110.349 31.1021C110.895 30.6252 111.357 30.1424 111.91 29.5801L112.219 29.9451C111.75 30.5132 111.204 30.9902 110.742 31.4729ZM113.85 28.5997L113.541 28.2347C114.088 27.7578 114.627 27.3663 115.25 26.9806L115.551 27.431C114.935 27.7313 114.305 28.2023 113.85 28.5997ZM117.176 26.171L116.874 25.7206C117.497 25.3349 118.037 24.9434 118.653 24.6431L118.87 25.0876C118.422 25.3996 117.799 25.7853 117.176 26.171ZM120.817 24.0219L120.6 23.5774C121.216 23.2771 121.832 22.9768 122.532 22.6824L122.75 23.1268C122.134 23.4271 121.433 23.7216 120.817 24.0219ZM124.676 22.3172L124.458 21.8727C125.075 21.5724 125.768 21.3634 126.468 21.069L126.602 21.5076C125.986 21.8079 125.285 22.1023 124.676 22.3172ZM128.598 20.8746L128.465 20.436C129.158 20.2269 129.767 20.012 130.461 19.8029L130.587 20.3269C129.901 20.4506 129.207 20.6596 128.598 20.8746ZM132.583 19.6939L132.457 19.1699C133.15 18.9609 133.837 18.8372 134.53 18.6282L134.656 19.1521C133.963 19.3612 133.277 19.4849 132.583 19.6939ZM136.639 18.6898L136.512 18.1659C137.199 18.0422 137.892 17.8332 138.578 17.7095L138.705 18.2334C138.019 18.3571 137.332 18.4808 136.639 18.6898ZM140.771 17.777L140.645 17.2531C141.331 17.1294 142.018 17.0057 142.704 16.882L142.831 17.406C142.144 17.5297 141.458 17.6534 140.771 17.777ZM242.111 24.4382C242.111 24.4382 241.368 24.2146 240.128 23.8702L240.254 23.3639C241.578 23.7141 242.321 23.9378 242.321 23.9378L242.111 24.4382ZM144.883 17.1204L144.841 16.6023C145.527 16.4786 146.214 16.3549 146.893 16.3166L146.935 16.8347C146.256 16.873 145.569 16.9967 144.883 17.1204ZM238.138 23.3876C237.556 23.261 236.814 23.0374 236.148 22.9049L236.274 22.3986C237.023 22.5369 237.682 22.7547 238.348 22.8871L238.138 23.3876ZM234.067 22.5018C233.401 22.3694 232.736 22.2369 231.993 22.0133L232.119 21.5069C232.869 21.6452 233.534 21.7777 234.193 21.9955L234.067 22.5018ZM149.079 16.4695L149.036 15.9515C149.716 15.9131 150.402 15.7895 151.082 15.7512L151.124 16.2692C150.445 16.3075 149.758 16.4312 149.079 16.4695ZM229.912 21.6101C229.247 21.4777 228.581 21.3453 227.831 21.2069L227.957 20.7006C228.623 20.833 229.372 20.9714 230.038 21.1038L229.912 21.6101ZM153.177 15.9836L153.134 15.4655C153.814 15.4272 154.5 15.3035 155.264 15.2711L155.306 15.7892C154.62 15.9128 153.94 15.9511 153.177 15.9836ZM225.841 20.7243C225.176 20.5919 224.51 20.4595 223.76 20.3211L223.886 19.8148C224.552 19.9472 225.301 20.0856 225.967 20.218L225.841 20.7243ZM157.345 15.6742L157.302 15.1561C157.982 15.1178 158.661 15.0795 159.425 15.0471L159.467 15.5652C158.795 15.5181 158.115 15.5564 157.345 15.6742ZM221.757 20.0092C221.091 19.8768 220.425 19.7444 219.676 19.6061L219.801 19.0998C220.467 19.2322 221.217 19.3705 221.882 19.5029L221.757 20.0092ZM161.513 15.3649L161.47 14.8468C162.15 14.8085 162.829 14.7702 163.593 14.7377L163.635 15.2558C162.956 15.2941 162.276 15.3325 161.513 15.3649ZM217.679 19.2088C217.013 19.0764 216.348 18.944 215.591 18.891L215.717 18.3847C216.382 18.5171 217.132 18.6554 217.805 18.7025L217.679 19.2088ZM213.503 18.5732C212.837 18.4408 212.165 18.3937 211.415 18.2554L211.457 17.7432C212.122 17.8757 212.879 17.9286 213.545 18.061L213.503 18.5732ZM165.751 15.2322L165.709 14.7141C166.388 14.6758 167.068 14.6374 167.824 14.6904L167.867 15.2085C167.11 15.1555 166.431 15.1938 165.751 15.2322ZM209.411 17.9435C208.746 17.8111 208.073 17.7641 207.324 17.6257L207.365 17.1135C208.031 17.246 208.787 17.2989 209.453 17.4313L209.411 17.9435ZM169.905 15.0935L169.947 14.5813C170.626 14.543 171.299 14.5901 172.063 14.5577L172.021 15.0699C171.257 15.1023 170.578 15.1406 169.905 15.0935ZM205.313 17.3992C204.64 17.3521 203.975 17.2197 203.218 17.1668L203.26 16.6546C203.932 16.7016 204.682 16.8399 205.354 16.887L205.313 17.3992ZM174.046 15.1257L174.087 14.6135C174.76 14.6605 175.523 14.6281 176.196 14.6752L176.154 15.1874C175.482 15.1403 174.809 15.0932 174.046 15.1257ZM201.13 16.849C200.458 16.8019 199.792 16.6695 199.035 16.6166L199.077 16.1044C199.749 16.1514 200.499 16.2897 201.172 16.3368L201.13 16.849ZM178.27 15.1637L178.312 14.6515C178.984 14.6985 179.748 14.6661 180.42 14.7132L180.379 15.2254C179.615 15.2578 178.942 15.2107 178.27 15.1637ZM196.934 16.4695C196.261 16.4225 195.588 16.3754 194.839 16.2371L194.88 15.7249C195.553 15.7719 196.31 15.8249 196.975 15.9573L196.934 16.4695ZM182.396 15.3665L182.438 14.8543C183.11 14.9014 183.867 14.9543 184.54 15.0014L184.498 15.5136C183.832 15.3812 183.069 15.4136 182.396 15.3665ZM192.828 16.0106C192.155 15.9635 191.483 15.9164 190.726 15.8635L190.768 15.3513C191.44 15.3984 192.197 15.4513 192.87 15.4984L192.828 16.0106ZM186.607 15.5753L186.648 15.0631C187.321 15.1101 187.909 15.1513 188.582 15.1984L188.666 15.2042L188.624 15.7164L188.456 15.7047C187.868 15.6635 187.195 15.6165 186.607 15.5753Z" fill="#FCB28D"/>
<path d="M191.682 67.398L198.533 72.7324L207.306 56.2353L191.682 67.398Z" fill="#2B2D60"/>
<path d="M190.013 78.8545L207.306 56.228L191.731 67.37L190.013 78.8545Z" fill="white"/>
<path d="M191.375 62.2036L195.016 65.0285L207.306 56.2363L191.375 62.2036Z" fill="#2B2D60"/>
<path d="M207.306 56.1753L193.796 64.0894L180.884 62.7723L207.306 56.1753Z" fill="white"/>
</svg>
