<svg width="358" height="324" viewBox="0 0 358 324" fill="none" xmlns="http://www.w3.org/2000/svg">
<path d="M357.903 129.509C357.728 132.523 356.147 154.193 340.817 167.834C324.252 182.588 307.497 173.812 290.364 180.797C250.653 196.968 271.603 272.17 236.68 305.171C197 342.671 86.7972 324.239 33.3112 249.143C-4.35503 196.279 -14.0824 115.07 25.1065 59.3789C67.2793 -0.56283 144.452 -0.139902 173.096 0.018445C189.702 0.106402 232.674 2.33511 277.692 28.6954C290.231 36.0464 360.971 77.457 357.903 129.509Z" fill="white"/>
<path d="M357.903 129.509C357.728 132.523 356.147 154.193 340.817 167.834C324.252 182.588 307.497 173.812 290.364 180.797C250.653 196.968 271.603 272.17 236.68 305.171C197 342.671 86.7972 324.239 33.3112 249.143C-4.35503 196.279 -14.0824 115.07 25.1065 59.3789C67.2793 -0.56283 144.452 -0.139902 173.096 0.018445C189.702 0.106402 232.674 2.33511 277.692 28.6954C290.231 36.0464 360.971 77.457 357.903 129.509Z" fill="#00C3EB" fill-opacity="0.15"/>
<path d="M151.349 158.054C151.349 158.054 144.831 167.786 145.824 174.403C145.824 174.403 146.649 181.309 148.248 185.654C149.853 189.925 146.757 206.274 146.757 206.274L139.072 236.199L187.129 243.331C188.575 233.511 189.696 227.172 190.882 216.889C191.865 208.382 191.043 199.39 191.823 190.647C192.218 186.201 195.31 181.101 195.638 176.577C195.852 173.61 195.981 171.829 195.265 168.507C190.479 160.389 185.768 152.276 180.982 144.159L162.592 143.026L151.349 158.054ZM174.787 134.166L176.277 144.092L179.73 142.144C179.73 142.144 178.381 135.356 177.498 134.333L174.787 134.166ZM224.804 266.81C216.406 264.877 200.082 264.692 200.082 264.692L199.199 266.724L197.275 277.036C197.275 277.036 214.477 281.373 223.123 281.906C223.562 281.933 224.075 281.964 224.447 281.913C225.185 281.884 225.871 281.553 226.354 280.987C229.841 277.551 229.766 272.48 227.532 268.766C226.723 267.748 225.892 267.026 224.804 266.81ZM192.906 276.394L197.642 277.058C198.955 277.214 200.306 276.85 201.334 275.87C202.435 274.895 203.049 273.517 203.309 271.968C203.521 270.044 203.143 268.158 202.151 266.607C201.154 265.13 199.68 264.145 197.995 264.042L194.849 263.774L192.906 276.394ZM89.7644 258.569C86.5082 261.871 85.2319 267.305 88.25 271.366C88.6467 271.986 89.2793 272.398 89.9333 272.512C90.3676 272.614 90.8804 272.645 91.3093 272.821C99.8603 273.645 117.638 272.058 117.638 272.058L117.29 261.605L116.708 259.483C116.708 259.483 99.8846 257.032 91.3621 257.848C90.8546 257.743 90.1737 257.999 89.7644 258.569ZM122.115 258.997L118.965 258.803C117.28 258.699 115.676 259.494 114.413 260.683C113.144 261.946 112.418 263.839 112.284 265.693C112.172 267.251 112.729 268.701 113.533 269.793C114.484 270.895 115.686 271.565 117.011 271.572L121.789 271.643L122.115 258.997ZM131.253 224.244L129.858 243.53L178.606 256.366L197.142 237.167L194.534 223.372L131.253 224.244ZM230.796 234.844C227.823 226.093 219.2 224.221 211.296 227.683C211.207 227.901 161.915 250.048 119.285 258.45C120.167 262.528 120.526 266.722 120.293 270.955C120.224 271.919 120.165 272.735 120.095 273.699C152.31 273.969 187.912 265.06 218.435 257.179C228.039 254.641 234.071 244.508 230.796 234.844ZM195.058 276.154C195.328 271.403 196.456 267.002 198.661 262.965C198.751 262.747 198.761 262.599 198.924 262.385C196.56 261.495 193.631 260.271 189.708 258.54C160.791 246.254 138.924 234.179 118.117 220.679C110.107 215.417 100.278 218.016 96.827 228.085C93.7491 237.059 98.8864 244.379 106.249 248.409C121.386 256.866 117.249 255.047 124.901 258.125C145.446 266.096 171.011 273.854 194.999 276.97C195.083 276.826 195.104 276.53 195.058 276.154ZM207.858 227.397L210.68 188.381C210.997 184.004 207.732 180.302 203.629 180.049L134.977 175.822C130.727 175.56 127.094 178.987 126.788 183.215L123.965 222.231C123.649 226.607 126.913 230.31 131.017 230.563L199.669 234.79C203.761 235.191 207.541 231.773 207.858 227.397ZM195.795 170.328C195.008 165.958 193.694 162.748 192.819 160.608C192.006 158.621 191.261 156.712 188.89 150.829C188.327 149.454 184.826 142.905 184.06 141.293L182.073 140.277C172.796 144.4 166.352 138.862 166.352 138.862L164.038 139.315C162.469 141.678 160.816 144.183 159.236 146.694C156.008 151.636 151.56 157.173 148.223 164.642C147.535 166.015 147.066 167.402 147.066 167.402L195.79 170.402L195.795 170.328ZM166.095 139.368L166.211 138.779L166.165 138.403L164.263 139.255L166.095 139.368ZM212.53 269.631C212.16 271.694 211.863 273.762 211.629 275.983L212.53 269.631ZM217.146 269.915C216.776 271.978 216.479 274.046 216.245 276.267L217.146 269.915ZM99.3213 261.766C98.9513 263.829 98.6545 265.897 98.4203 268.118L99.3213 261.766ZM103.937 262.05C103.567 264.113 103.27 266.181 103.036 268.402L103.937 262.05ZM149.581 163.161L147.229 167.188C146.319 169.591 147.181 167.856 147.458 168.097L151.813 170.972L194.232 172.616L195.324 170.746L193.905 164.922L149.581 163.161ZM168.784 204.949C166.512 204.809 164.468 206.62 164.296 208.994C164.124 211.367 165.817 213.409 168.161 213.553C170.433 213.693 172.477 211.882 172.649 209.508C172.821 207.134 171.055 205.089 168.784 204.949ZM169.979 124.333L170.062 133.354L179.328 135.489L179.945 126.959L169.979 124.333ZM182.459 78.9831C182.532 78.9876 182.747 79.0753 182.82 79.0798C185.561 79.8446 188.102 81.3422 189.93 83.5409C198.307 93.8914 199.26 117.345 194.285 118.975C189.09 120.593 162.515 118.658 152.98 115.165C152.195 114.819 151.663 114.041 151.654 113.147C152.124 101.553 155.159 93.1717 159.399 87.4723C164.991 80.3661 174.067 76.9762 182.459 78.9831ZM175.757 86.1699C167.991 85.6917 163.11 93.1397 162.182 105.972C161.253 118.804 167.232 129.752 174.925 130.226C182.692 130.704 187.991 120.525 188.919 107.693C190.277 91.9813 183.524 86.6481 175.757 86.1699ZM183.052 80.9567C183.052 80.9567 189.943 88.459 189.994 88.7602C190.052 88.9872 193.968 103.012 189.695 101.035C182.295 97.5248 178.332 89.2342 178.332 89.2342L177.643 85.541L183.052 80.9567ZM175.851 130.655C181.012 130.526 183.594 126.364 185.369 123.195C185.61 122.912 185.705 122.619 185.862 122.48C190.499 114.346 189.701 100.961 189.67 100.363C189.676 100.289 189.618 100.062 189.472 100.053C189.399 100.048 183.85 97.397 180.307 91.4419C180.25 91.2149 179.956 91.1968 179.872 91.3407C179.647 91.4013 179.626 91.698 179.767 91.7812C183.039 97.4215 187.928 100.032 189.068 100.549C189.159 102.343 189.519 114.659 185.382 122.003C185.14 122.287 185.046 122.579 184.888 122.718C183.124 125.739 180.783 129.618 175.994 129.695C175.701 129.677 175.329 129.729 175.036 129.711C167.27 129.233 164.554 119.976 164.023 118.155C164.029 118.081 161.132 110.303 163.59 99.7257C163.606 99.5032 163.544 99.3503 163.329 99.2626C163.11 99.2491 162.958 99.3142 162.868 99.5322C160.332 110.179 163.087 117.874 163.269 118.407C163.784 120.45 166.698 130.017 174.904 130.522C175.254 130.767 175.474 130.781 175.851 130.655ZM166.46 104.82C166.46 104.82 163.318 102.466 162.382 96.0751C166.099 78.2737 181.19 83.3007 181.458 85.7014C181.653 88.0975 180.611 91.3116 180.611 91.3116C177.422 100.801 166.46 104.82 166.46 104.82ZM164.256 110.868C165.218 108.767 167.067 107.614 169.113 107.814C171.233 108.019 172.108 110.159 172.389 111.369C172.373 111.591 172.593 111.605 172.666 111.609C172.886 111.623 172.902 111.4 172.907 111.326C172.596 109.519 171.338 107.579 169.219 107.374C167.026 107.164 164.951 108.378 163.822 110.767C163.732 110.985 163.8 111.063 164.015 111.151L164.088 111.156C164.104 110.933 164.177 110.938 164.256 110.868ZM179.56 110.916C179.855 109.891 181.271 108.637 182.752 108.505C183.794 108.346 185.165 108.728 186.045 110.794C186.103 111.021 186.322 111.035 186.406 110.891C186.632 110.83 186.648 110.608 186.507 110.524C185.365 107.995 183.69 107.743 182.722 107.907C180.942 108.096 179.369 109.489 178.985 110.732C178.969 110.954 179.037 111.033 179.183 111.042C179.183 111.042 179.183 111.042 179.256 111.047C179.324 111.125 179.403 111.056 179.56 110.916ZM167.462 109.277C167.532 108.313 168.177 107.533 168.91 107.578C169.569 107.619 170.175 108.401 170.1 109.44C170.03 110.404 169.385 111.184 168.652 111.139C167.852 111.015 167.398 110.167 167.462 109.277ZM181.603 110.148C181.673 109.184 182.318 108.404 183.051 108.449C183.71 108.49 184.316 109.272 184.241 110.31C184.171 111.275 183.526 112.055 182.793 112.009C182.066 111.89 181.539 111.038 181.603 110.148ZM186.132 106.553C185.494 106.215 184.364 105.55 183.422 105.343C183.135 105.25 182.768 105.228 182.633 105.071L182.616 105.293L182.543 105.289L182.559 105.066C182.486 105.062 182.272 104.974 182.198 104.969L182.098 105.336L182.025 105.331L182.052 104.96L181.979 104.956C181.398 104.845 181.124 105.574 181.616 105.902C181.83 105.99 182.186 106.161 182.552 106.183C183.572 106.32 185.315 106.651 186.189 106.78C186.194 106.705 186.351 106.566 186.132 106.553ZM164.978 104.952C165.733 104.7 167.241 104.197 168.492 104.2C168.858 104.222 169.23 104.171 169.523 104.189L169.501 104.485L169.721 104.499L169.737 104.277C169.957 104.29 170.03 104.295 170.177 104.304L170.218 104.753L170.438 104.767L170.47 104.322C170.543 104.326 170.543 104.326 170.543 104.326C171.208 104.293 171.426 105.349 170.683 105.452C170.384 105.508 170.018 105.486 169.578 105.459C168.406 105.387 166.281 105.256 165.255 105.193C164.884 105.244 164.894 105.096 164.978 104.952ZM158.871 95.7844L165.74 94.4192L168.256 104.409C168.256 104.409 163.536 106.577 160.421 106.907L158.871 95.7844ZM181.851 85.3531C181.778 85.3486 181.626 85.4137 181.615 85.5621C181.293 86.9579 181.05 88.284 180.661 89.6011C180.271 90.9182 179.735 92.2262 179.199 93.5343C178.521 94.7592 177.923 95.9144 177.031 97.0516C176.218 98.1191 175.336 99.1079 174.241 100.009C172.196 101.82 169.812 103.238 167.377 104.355C166.156 104.95 164.868 105.467 163.59 105.835C162.228 106.347 161.024 106.72 159.667 107.158C159.594 107.154 159.589 107.228 159.578 107.376C159.572 107.45 159.646 107.455 159.792 107.464C161.143 107.1 162.421 106.732 163.777 106.294C165.128 105.93 166.344 105.409 167.711 104.822C170.22 103.71 172.677 102.297 174.795 100.49C176.845 98.6047 178.628 96.3304 179.921 93.7278C180.603 92.4287 181.066 91.1161 181.388 89.7204C181.783 88.3291 182.026 87.003 182.275 85.6027C181.987 85.5105 181.924 85.3576 181.851 85.3531ZM178.659 123.378C178.664 123.303 178.675 123.155 178.68 123.081C178.696 122.858 178.482 122.771 178.409 122.766L173.5 122.464C173.28 122.45 173.201 122.52 173.185 122.743C173.18 122.817 173.169 122.965 173.164 123.039C173.051 124.597 174.132 125.93 175.744 126.029C177.209 126.12 178.546 124.935 178.659 123.378ZM178.073 123.342C177.981 124.602 176.891 125.429 175.719 125.357C174.547 125.285 173.664 124.262 173.677 123.071L178.073 123.342ZM176.345 117.722C176.565 117.735 176.654 117.517 176.592 117.364L176.124 112.642C176.14 112.419 175.925 112.332 175.773 112.397C175.554 112.383 175.464 112.601 175.527 112.754L175.995 117.477C176.057 117.63 176.198 117.713 176.345 117.722ZM194.918 163.121L190.855 155.197L193.814 163.128L194.918 163.121ZM149.924 158.414L154.221 152.941L150.997 158.852L149.924 158.414ZM176.979 129.309C177.254 130.593 179.122 142.405 179.803 142.149L169.365 142.996L170.438 128.161L176.979 129.309ZM224.804 266.81C216.406 264.877 200.082 264.692 200.082 264.692L199.199 266.724L197.275 277.036C197.275 277.036 214.477 281.373 223.123 281.906C223.562 281.933 224.075 281.964 224.447 281.913C225.185 281.884 225.871 281.553 226.354 280.987C229.841 277.551 229.766 272.48 227.532 268.766C226.723 267.748 225.892 267.026 224.804 266.81ZM194.849 263.774L197.995 264.042C199.674 264.22 201.149 265.205 202.151 266.607C203.148 268.084 203.595 270.049 203.309 271.968C203.123 273.522 202.435 274.895 201.334 275.87C200.233 276.845 198.95 277.288 197.642 277.058L192.906 276.394L194.849 263.774ZM91.4461 257.704C99.9686 256.888 116.792 259.34 116.792 259.34L117.374 261.462L117.649 271.909C117.649 271.909 99.9443 273.501 91.32 272.672C90.8804 272.645 90.3729 272.539 89.944 272.364C89.29 272.249 88.6574 271.838 88.2607 271.217C85.248 267.083 86.4511 261.644 89.7752 258.421C90.1737 257.999 90.8546 257.743 91.4461 257.704ZM122.115 258.997L118.965 258.803C117.28 258.699 115.676 259.494 114.413 260.683C113.144 261.946 112.418 263.839 112.284 265.693C112.172 267.251 112.729 268.701 113.533 269.793C114.484 270.895 115.686 271.565 117.011 271.572L121.789 271.643L122.115 258.997ZM131.253 224.244L129.858 243.53L178.606 256.366L197.142 237.167L194.607 223.377L131.253 224.244ZM230.34 235.039C233.563 244.402 227.694 254.322 218.389 256.804C188.017 264.619 152.641 273.468 120.64 273.286C120.862 269.201 120.571 265.086 119.678 261.156C140.883 256.949 163.659 249.336 181.205 242.817C190.056 239.488 197.562 236.448 202.873 234.242C205.529 233.139 207.656 232.227 209.101 231.571C209.788 231.241 210.395 230.98 210.772 230.854C210.924 230.789 211.076 230.724 211.228 230.659C211.301 230.663 211.307 230.589 211.38 230.594C211.38 230.594 211.38 230.594 211.453 230.598C215.256 228.895 219.261 228.471 222.64 229.573C226.123 228.223 228.882 230.777 230.34 235.039ZM194.618 276.127L194.613 276.201C194.602 276.35 194.67 276.428 194.659 276.577C170.892 273.474 145.473 265.725 125.143 257.842C124.573 257.584 124.07 257.404 123.568 257.224C120.995 256.171 120.21 255.825 118.652 254.984C117.873 254.563 116.885 253.981 115.473 253.149C113.565 252.063 110.882 250.482 106.563 248.13C102.955 246.12 99.8461 243.321 98.0986 240.009C96.3511 236.698 95.8295 232.717 97.3238 228.339C99.0021 223.45 102.164 220.441 105.934 219.183C109.7 218 113.996 218.637 117.932 221.189C138.74 234.689 160.607 246.764 189.598 259.054C193.311 260.624 196.166 261.843 198.457 262.729L198.452 262.803C196.027 266.826 194.82 271.297 194.618 276.127ZM169.836 128.348L180.569 120.366L181.429 122.729C181.429 122.729 180.054 127.487 179.943 128.002C179.822 128.665 179.387 134.673 179.843 137.532C180.298 140.391 200.624 145.294 201.34 145.561C203.485 146.438 206.649 147.453 207.344 154.126C208.219 162.376 209.418 171.241 209.862 180.358C210.676 196.576 204.225 201.32 203.945 211.286C198.477 213.631 198.33 216.677 192.861 219.023L194.1 184.603C194.113 180.357 194.28 171.948 194.28 171.948C194.333 171.206 194.085 166.497 193.405 163.699L169.836 128.348ZM150.655 162.557C149.577 165.247 148.653 169.884 148.6 170.626C148.6 170.626 147.554 178.98 146.955 183.19L143.332 215.973C138.25 212.978 138.543 209.941 133.461 206.946C134.62 197.034 128.332 186.29 131.319 175.522C133.799 166.659 136.27 157.946 138.325 149.877C139.975 143.347 143.258 142.73 145.51 142.123C146.259 141.946 167.916 139.629 168.706 136.846C169.496 134.064 169.925 128.13 169.979 127.388C169.943 126.864 168.534 121.935 168.534 121.935L169.726 119.698L179.214 128.925L150.655 162.557ZM151.349 158.054C151.349 158.054 144.831 167.786 145.824 174.403C145.824 174.403 146.649 181.309 148.248 185.654C149.853 189.925 146.757 206.274 146.757 206.274L140.878 221.41L188.935 228.541C190.381 218.721 189.696 227.172 190.882 216.889C191.865 208.382 191.043 199.39 191.823 190.647C192.218 186.201 195.31 181.101 195.638 176.577C195.852 173.61 195.981 171.829 195.265 168.507C190.479 160.389 185.768 152.276 180.982 144.159L162.592 143.026L151.349 158.054ZM199.585 234.934L131.006 230.711C126.756 230.449 123.649 226.607 123.955 222.379L126.777 183.363C127.094 178.987 130.863 175.717 134.966 175.97L203.618 180.197C207.868 180.459 210.975 184.301 210.669 188.529L207.847 227.545C207.541 231.773 203.761 235.191 199.585 234.934ZM146.925 167.319C146.925 167.319 147.394 165.932 148.082 164.559C151.419 157.09 155.867 151.553 159.095 146.611C160.674 144.1 162.317 141.743 163.897 139.232L166.211 138.779C166.211 138.779 173.205 143.829 182.482 139.706L184.626 140.583C185.461 142.274 188.254 149.449 188.743 150.82C191.114 156.703 191.854 158.686 192.672 160.599C193.548 162.739 194.856 166.023 195.649 170.319L146.925 167.319ZM164.263 139.255L166.165 138.403L166.211 138.779L166.095 139.368L164.263 139.255ZM212.53 269.631C212.16 271.694 211.863 273.762 211.629 275.983L212.53 269.631ZM217.146 269.915C216.776 271.978 216.479 274.046 216.245 276.267L217.146 269.915ZM99.3213 261.766C98.9513 263.829 98.6545 265.897 98.4203 268.118L99.3213 261.766ZM103.937 262.05C103.567 264.113 103.27 266.181 103.036 268.402L103.937 262.05ZM149.581 163.161L147.229 167.188C146.319 169.591 147.181 167.856 147.458 168.097L151.813 170.972L194.232 172.616L195.324 170.746L193.905 164.922L149.581 163.161ZM168.161 213.553C170.433 213.693 172.477 211.882 172.649 209.508C172.821 207.134 171.128 205.093 168.784 204.949C166.512 204.809 164.468 206.62 164.296 208.994C164.124 211.367 165.817 213.409 168.161 213.553ZM170.14 122.108L169.491 131.083L179.641 133.198L180.117 124.585L170.14 122.108ZM159.466 87.551C155.075 93.3155 152.198 101.557 151.722 113.225C151.657 114.115 152.258 114.972 153.047 115.244C162.578 118.811 189.079 120.741 194.28 119.05C199.171 117.563 198.297 94.0397 189.925 83.6151C188.17 81.4209 185.561 79.8446 182.815 79.154C182.741 79.1495 182.527 79.0618 182.454 79.0573C174.067 76.9762 164.991 80.3661 159.466 87.551ZM189.134 107.781C188.205 120.613 182.833 130.787 175.14 130.313C167.446 129.84 161.468 118.892 162.396 106.06C163.324 93.2274 168.205 85.7794 175.972 86.2576C183.524 86.6482 190.277 91.9813 189.134 107.781ZM177.789 85.55L178.479 89.2432C178.479 89.2432 182.442 97.5338 189.842 101.044C194.109 103.095 190.277 88.9266 190.141 88.7692C190.084 88.5422 183.199 80.9658 183.199 80.9658L177.789 85.55ZM174.82 130.666C166.54 130.156 163.553 120.585 163.033 118.616C162.846 118.157 160.096 110.388 162.627 99.8154C162.643 99.5929 162.868 99.5322 163.088 99.5458C163.308 99.5593 163.365 99.7863 163.349 100.009C160.818 110.582 163.719 118.285 163.782 118.438C164.307 120.333 167.102 129.52 174.941 130.003C175.234 130.021 175.601 130.044 175.899 129.988C180.767 129.84 183.103 126.035 184.94 123.019C185.108 122.732 185.271 122.518 185.439 122.23C189.723 114.895 189.284 102.649 189.193 100.855C188.126 100.342 183.091 97.7227 179.746 92.0779C179.61 91.9205 179.699 91.7025 179.856 91.5632C180.014 91.4239 180.228 91.5116 180.364 91.6689C183.98 97.6285 189.608 100.21 189.681 100.215C189.822 100.298 189.89 100.377 189.879 100.525C189.91 101.123 190.713 114.434 186.077 122.568C185.909 122.855 185.746 123.069 185.578 123.357C183.741 126.373 181.153 130.609 175.919 130.734C175.552 130.711 175.186 130.689 174.82 130.666ZM180.469 91.2284C180.469 91.2284 181.511 88.0143 181.317 85.6182C181.122 83.222 165.958 78.1905 162.241 95.9919C163.177 102.382 166.319 104.737 166.319 104.737C166.319 104.737 177.422 100.801 180.469 91.2284ZM163.958 110.924L163.884 110.92C163.67 110.832 163.681 110.684 163.691 110.535C164.821 108.146 166.822 106.928 169.088 107.142C171.208 107.347 172.46 109.362 172.777 111.095C172.761 111.317 172.682 111.387 172.535 111.378C172.316 111.364 172.248 111.286 172.258 111.137C172.046 110.007 171.102 107.788 168.983 107.583C166.937 107.382 165.093 108.461 164.126 110.636C164.177 110.938 164.104 110.933 163.958 110.924ZM179.251 111.121C179.178 111.116 179.178 111.116 179.251 111.121C179.031 111.107 178.974 110.88 178.979 110.806C179.364 109.563 180.936 108.17 182.716 107.981C183.685 107.818 185.354 108.144 186.501 110.599C186.569 110.677 186.48 110.895 186.401 110.965C186.322 111.035 186.108 110.947 186.04 110.868C185.086 108.798 183.715 108.415 182.747 108.579C181.265 108.712 179.777 109.961 179.555 110.99C179.403 111.056 179.324 111.125 179.251 111.121ZM168.404 112.539C169.063 112.58 169.776 111.878 169.851 110.84C169.921 109.876 169.394 109.024 168.661 108.979C168.002 108.938 167.289 109.639 167.214 110.678C167.29 111.651 167.744 112.498 168.404 112.539ZM182.691 113.419C183.35 113.459 184.063 112.758 184.139 111.72C184.208 110.755 183.681 109.903 182.949 109.858C182.289 109.818 181.576 110.519 181.501 111.557C181.431 112.522 181.958 113.374 182.691 113.419ZM186.121 106.701C185.174 106.568 183.505 106.242 182.484 106.104C182.118 106.082 181.757 105.985 181.548 105.823C180.978 105.565 181.324 104.841 181.911 104.877L181.984 104.882L181.884 105.248L181.957 105.252L182.057 104.886C182.13 104.891 182.35 104.904 182.418 104.983L182.402 105.205L182.475 105.21L182.491 104.987C182.784 105.005 183.072 105.098 183.281 105.259C184.218 105.541 185.352 106.132 185.99 106.469C186.351 106.566 186.194 106.705 186.121 106.701ZM164.957 105.249C165.983 105.312 168.181 105.447 169.28 105.515C169.719 105.542 170.086 105.565 170.384 105.508C171.06 105.326 170.915 104.275 170.245 104.382L170.172 104.378L170.139 104.823L169.92 104.809L169.878 104.36C169.659 104.346 169.585 104.342 169.439 104.333L169.423 104.555L169.203 104.542L169.224 104.245C168.931 104.227 168.56 104.278 168.193 104.256C167.089 104.262 165.581 104.766 164.68 105.008C164.894 105.096 164.884 105.244 164.957 105.249ZM160.427 106.832C163.609 106.581 168.261 104.335 168.261 104.335L165.746 94.3451L158.876 95.7102L160.427 106.832ZM181.982 85.5846C181.806 86.9894 181.49 88.311 181.095 89.7023C180.7 91.0936 180.237 92.4062 179.627 93.7097C178.409 96.3169 176.698 98.5957 174.502 100.472C172.452 102.358 169.927 103.692 167.418 104.804C166.197 105.4 164.846 105.763 163.484 106.276C162.133 106.639 160.85 107.082 159.499 107.446C159.426 107.441 159.279 107.432 159.285 107.358C159.29 107.284 159.301 107.136 159.374 107.14C160.725 106.776 162.008 106.334 163.297 105.817C164.658 105.305 165.868 104.858 167.084 104.337C169.598 103.15 171.977 101.807 173.948 99.991C174.97 99.0853 175.924 98.101 176.738 97.0335C177.551 95.966 178.301 94.7457 178.906 93.5163C179.583 92.2914 180.046 90.9788 180.368 89.583C180.757 88.2659 181.152 86.8747 181.322 85.544C181.327 85.4698 181.412 85.326 181.558 85.335C181.924 85.3576 181.987 85.5105 181.982 85.5846ZM176.272 117.717C176.198 117.713 175.984 117.625 176 117.403L175.532 112.68C175.548 112.457 175.627 112.388 175.779 112.323C175.999 112.336 176.067 112.415 176.129 112.568L176.597 117.29C176.654 117.517 176.565 117.735 176.272 117.717C176.345 117.722 176.345 117.722 176.272 117.717ZM178.816 123.238C178.627 123.823 176.945 124.688 175.428 124.296L178.816 123.238Z" fill="#FFB28B"/>
<path d="M146.757 206.274C146.757 206.274 149.853 189.925 148.248 185.654C146.649 181.309 145.824 174.403 145.824 174.403C144.831 167.786 151.349 158.054 151.349 158.054L162.592 143.026L180.982 144.159C185.768 152.276 190.479 160.389 195.265 168.507C195.981 171.829 195.852 173.61 195.638 176.577C195.31 181.101 192.218 186.201 191.823 190.647C191.043 199.39 191.865 208.382 190.882 216.889M146.757 206.274L139.072 236.199L187.129 243.331C188.575 233.511 189.696 227.172 190.882 216.889M146.757 206.274L140.878 221.41L188.935 228.541C190.381 218.721 189.696 227.172 190.882 216.889M197.642 277.058L192.906 276.394L194.849 263.774L197.995 264.042M197.642 277.058C198.955 277.214 200.306 276.85 201.334 275.87M197.642 277.058C198.95 277.288 200.233 276.845 201.334 275.87M201.334 275.87C202.435 274.895 203.049 273.517 203.309 271.968M201.334 275.87C202.435 274.895 203.123 273.522 203.309 271.968M203.309 271.968C203.521 270.044 203.143 268.158 202.151 266.607M203.309 271.968C203.595 270.049 203.148 268.084 202.151 266.607M202.151 266.607C201.154 265.13 199.68 264.145 197.995 264.042M202.151 266.607C201.149 265.204 199.674 264.22 197.995 264.042M131.253 224.244L129.858 243.53L178.606 256.366L197.142 237.167M131.253 224.244L194.534 223.372L197.142 237.167M131.253 224.244L194.607 223.377L197.142 237.167M166.211 138.779L166.095 139.368L164.263 139.255L166.165 138.403L166.211 138.779ZM166.211 138.779L163.897 139.232C162.317 141.743 160.674 144.1 159.095 146.611C155.867 151.553 151.419 157.09 148.082 164.559C147.394 165.932 146.925 167.319 146.925 167.319L195.649 170.319C194.856 166.023 193.548 162.739 192.672 160.599C191.854 158.686 191.114 156.703 188.743 150.82C188.254 149.449 185.461 142.274 184.626 140.583L182.482 139.706C173.205 143.829 166.211 138.779 166.211 138.779ZM168.784 204.949C166.512 204.809 164.468 206.62 164.296 208.994C164.125 211.367 165.817 213.409 168.161 213.553C170.433 213.693 172.477 211.882 172.649 209.508M168.784 204.949C171.055 205.089 172.821 207.134 172.649 209.508M168.784 204.949C171.128 205.093 172.821 207.134 172.649 209.508M179.251 111.121C179.178 111.116 179.178 111.116 179.251 111.121ZM179.251 111.121C179.031 111.107 178.974 110.88 178.979 110.806C179.364 109.563 180.936 108.17 182.716 107.981C183.685 107.818 185.354 108.144 186.501 110.599C186.569 110.677 186.48 110.895 186.401 110.965C186.322 111.035 186.108 110.947 186.04 110.868C185.086 108.798 183.715 108.415 182.747 108.579C181.265 108.712 179.777 109.961 179.555 110.99C179.403 111.056 179.324 111.125 179.251 111.121ZM176.272 117.717C176.198 117.713 175.984 117.625 176 117.403L175.532 112.68C175.548 112.457 175.627 112.388 175.779 112.323C175.999 112.336 176.067 112.415 176.129 112.568L176.597 117.29C176.654 117.517 176.565 117.735 176.272 117.717ZM176.272 117.717C176.345 117.722 176.345 117.722 176.272 117.717ZM178.816 123.238C178.627 123.823 176.945 124.688 175.428 124.296M174.787 134.166L176.277 144.092L179.73 142.144C179.73 142.144 178.381 135.356 177.498 134.333L174.787 134.166ZM224.804 266.81C216.406 264.877 200.082 264.692 200.082 264.692L199.199 266.724L197.275 277.036C197.275 277.036 214.477 281.373 223.123 281.906C223.562 281.933 224.075 281.964 224.447 281.913C225.185 281.884 225.871 281.553 226.354 280.987C229.841 277.551 229.766 272.48 227.532 268.766C226.723 267.748 225.892 267.026 224.804 266.81ZM89.7644 258.569C86.5082 261.871 85.2319 267.305 88.25 271.366C88.6467 271.986 89.2793 272.398 89.9333 272.512C90.3676 272.614 90.8804 272.645 91.3093 272.821C99.8603 273.645 117.638 272.058 117.638 272.058L117.29 261.605L116.708 259.483C116.708 259.483 99.8846 257.032 91.3621 257.848C90.8546 257.743 90.1737 257.999 89.7644 258.569ZM122.115 258.997L118.965 258.803C117.28 258.699 115.676 259.494 114.413 260.683C113.144 261.946 112.418 263.839 112.284 265.693C112.172 267.251 112.729 268.701 113.533 269.793C114.484 270.895 115.686 271.565 117.011 271.572L121.789 271.643L122.115 258.997ZM230.796 234.844C227.823 226.093 219.2 224.221 211.296 227.683C211.207 227.901 161.915 250.048 119.285 258.45C120.167 262.528 120.526 266.722 120.293 270.955C120.224 271.919 120.165 272.735 120.095 273.699C152.31 273.969 187.912 265.06 218.435 257.179C228.039 254.641 234.071 244.508 230.796 234.844ZM195.058 276.154C195.328 271.403 196.456 267.002 198.661 262.965C198.751 262.747 198.761 262.599 198.924 262.385C196.56 261.495 193.631 260.271 189.708 258.54C160.791 246.254 138.924 234.179 118.117 220.679C110.107 215.417 100.278 218.016 96.827 228.085C93.7491 237.059 98.8864 244.379 106.249 248.409C121.386 256.866 117.249 255.047 124.901 258.125C145.446 266.096 171.011 273.854 194.999 276.97C195.083 276.826 195.104 276.53 195.058 276.154ZM207.858 227.397L210.68 188.381C210.997 184.004 207.732 180.302 203.629 180.049L134.977 175.822C130.727 175.56 127.094 178.987 126.788 183.215L123.965 222.231C123.649 226.607 126.913 230.31 131.017 230.563L199.669 234.79C203.761 235.191 207.541 231.773 207.858 227.397ZM195.795 170.328C195.008 165.958 193.694 162.748 192.819 160.608C192.006 158.621 191.261 156.712 188.89 150.829C188.327 149.454 184.826 142.905 184.06 141.293L182.073 140.277C172.796 144.4 166.352 138.862 166.352 138.862L164.038 139.315C162.469 141.678 160.816 144.183 159.236 146.694C156.008 151.636 151.56 157.173 148.223 164.642C147.535 166.015 147.066 167.402 147.066 167.402L195.79 170.402L195.795 170.328ZM212.53 269.631C212.16 271.694 211.863 273.762 211.629 275.983L212.53 269.631ZM217.146 269.915C216.776 271.978 216.479 274.046 216.245 276.267L217.146 269.915ZM99.3213 261.766C98.9513 263.829 98.6545 265.897 98.4203 268.118L99.3213 261.766ZM103.937 262.05C103.567 264.113 103.27 266.181 103.036 268.402L103.937 262.05ZM149.581 163.161L147.229 167.188C146.319 169.591 147.181 167.856 147.458 168.097L151.813 170.972L194.232 172.616L195.324 170.746L193.905 164.922L149.581 163.161ZM169.979 124.333L170.062 133.354L179.328 135.489L179.945 126.959L169.979 124.333ZM182.459 78.9831C182.532 78.9876 182.747 79.0753 182.82 79.0798C185.561 79.8446 188.102 81.3422 189.93 83.5409C198.307 93.8914 199.26 117.345 194.285 118.975C189.09 120.593 162.515 118.658 152.98 115.165C152.195 114.819 151.663 114.041 151.654 113.147C152.124 101.553 155.159 93.1717 159.399 87.4723C164.991 80.3661 174.067 76.9762 182.459 78.9831ZM175.757 86.1699C167.991 85.6917 163.11 93.1397 162.182 105.972C161.253 118.804 167.232 129.752 174.925 130.226C182.692 130.704 187.991 120.525 188.919 107.693C190.277 91.9813 183.524 86.6481 175.757 86.1699ZM183.052 80.9567C183.052 80.9567 189.943 88.459 189.994 88.7602C190.052 88.9872 193.968 103.012 189.695 101.035C182.295 97.5248 178.332 89.2342 178.332 89.2342L177.643 85.541L183.052 80.9567ZM175.851 130.655C181.012 130.526 183.594 126.364 185.369 123.195C185.61 122.912 185.705 122.619 185.862 122.48C190.499 114.346 189.701 100.961 189.67 100.363C189.676 100.289 189.618 100.062 189.472 100.053C189.399 100.048 183.85 97.397 180.307 91.4419C180.25 91.2149 179.956 91.1968 179.872 91.3407C179.647 91.4013 179.626 91.698 179.767 91.7812C183.039 97.4215 187.928 100.032 189.068 100.549C189.159 102.343 189.519 114.659 185.382 122.003C185.14 122.287 185.046 122.579 184.888 122.718C183.124 125.739 180.783 129.618 175.994 129.695C175.701 129.677 175.329 129.729 175.036 129.711C167.27 129.233 164.554 119.976 164.023 118.155C164.029 118.081 161.132 110.303 163.59 99.7257C163.606 99.5032 163.544 99.3503 163.329 99.2626C163.11 99.2491 162.958 99.3142 162.868 99.5322C160.332 110.179 163.087 117.874 163.269 118.407C163.784 120.45 166.698 130.017 174.904 130.522C175.254 130.767 175.474 130.781 175.851 130.655ZM166.46 104.82C166.46 104.82 163.318 102.466 162.382 96.0751C166.099 78.2737 181.19 83.3007 181.458 85.7014C181.653 88.0975 180.611 91.3116 180.611 91.3116C177.422 100.801 166.46 104.82 166.46 104.82ZM164.256 110.868C165.218 108.767 167.067 107.614 169.113 107.814C171.233 108.019 172.108 110.159 172.389 111.369C172.373 111.591 172.593 111.605 172.666 111.609C172.886 111.623 172.902 111.4 172.907 111.326C172.596 109.519 171.338 107.579 169.219 107.374C167.026 107.164 164.951 108.378 163.822 110.767C163.732 110.985 163.8 111.063 164.015 111.151L164.088 111.156C164.104 110.933 164.177 110.938 164.256 110.868ZM179.56 110.916C179.855 109.891 181.271 108.637 182.752 108.505C183.794 108.346 185.165 108.728 186.045 110.794C186.103 111.021 186.322 111.035 186.406 110.891C186.632 110.83 186.648 110.608 186.507 110.524C185.365 107.995 183.69 107.743 182.722 107.907C180.942 108.096 179.369 109.489 178.985 110.732C178.969 110.954 179.037 111.033 179.183 111.042C179.183 111.042 179.183 111.042 179.256 111.047C179.324 111.125 179.403 111.056 179.56 110.916ZM167.462 109.277C167.532 108.313 168.177 107.533 168.91 107.578C169.569 107.619 170.175 108.401 170.1 109.44C170.03 110.404 169.385 111.184 168.652 111.139C167.852 111.015 167.398 110.167 167.462 109.277ZM181.603 110.148C181.673 109.184 182.318 108.404 183.051 108.449C183.71 108.49 184.316 109.272 184.241 110.31C184.171 111.275 183.526 112.055 182.793 112.009C182.066 111.89 181.539 111.038 181.603 110.148ZM186.132 106.553C185.494 106.215 184.364 105.55 183.422 105.343C183.135 105.25 182.768 105.228 182.633 105.071L182.616 105.293L182.543 105.289L182.559 105.066C182.486 105.062 182.272 104.974 182.198 104.969L182.098 105.336L182.025 105.331L182.052 104.96L181.979 104.956C181.398 104.845 181.124 105.574 181.616 105.902C181.83 105.99 182.186 106.161 182.552 106.183C183.572 106.32 185.315 106.651 186.189 106.78C186.194 106.705 186.351 106.566 186.132 106.553ZM164.978 104.952C165.733 104.7 167.241 104.197 168.492 104.2C168.858 104.222 169.23 104.171 169.523 104.189L169.501 104.485L169.721 104.499L169.737 104.277C169.957 104.29 170.03 104.295 170.177 104.304L170.218 104.753L170.438 104.767L170.47 104.322C170.543 104.326 170.543 104.326 170.543 104.326C171.208 104.293 171.426 105.349 170.683 105.452C170.384 105.508 170.018 105.486 169.578 105.459C168.406 105.387 166.281 105.256 165.255 105.193C164.884 105.244 164.894 105.096 164.978 104.952ZM158.871 95.7844L165.74 94.4192L168.256 104.409C168.256 104.409 163.536 106.577 160.421 106.907L158.871 95.7844ZM181.851 85.3531C181.778 85.3486 181.626 85.4137 181.615 85.5621C181.293 86.9579 181.05 88.284 180.661 89.6011C180.271 90.9182 179.735 92.2262 179.199 93.5343C178.521 94.7592 177.923 95.9144 177.031 97.0516C176.218 98.1191 175.336 99.1079 174.241 100.009C172.196 101.82 169.812 103.238 167.377 104.355C166.156 104.95 164.868 105.467 163.59 105.835C162.228 106.347 161.024 106.72 159.667 107.158C159.594 107.154 159.589 107.228 159.578 107.376C159.572 107.45 159.646 107.455 159.792 107.464C161.143 107.1 162.421 106.732 163.777 106.294C165.128 105.93 166.344 105.409 167.711 104.822C170.22 103.71 172.677 102.297 174.795 100.49C176.845 98.6047 178.628 96.3304 179.921 93.7278C180.603 92.4287 181.066 91.1161 181.388 89.7204C181.783 88.3291 182.026 87.003 182.275 85.6027C181.987 85.5105 181.924 85.3576 181.851 85.3531ZM178.659 123.378C178.664 123.303 178.675 123.155 178.68 123.081C178.696 122.858 178.482 122.771 178.409 122.766L173.5 122.464C173.28 122.45 173.201 122.52 173.185 122.743C173.18 122.817 173.169 122.965 173.164 123.039C173.051 124.597 174.132 125.93 175.744 126.029C177.209 126.12 178.546 124.935 178.659 123.378ZM178.073 123.342C177.981 124.602 176.891 125.429 175.719 125.357C174.547 125.285 173.664 124.262 173.677 123.071L178.073 123.342ZM176.345 117.722C176.565 117.735 176.654 117.517 176.592 117.364L176.124 112.642C176.14 112.419 175.925 112.332 175.773 112.397C175.554 112.383 175.464 112.601 175.527 112.754L175.995 117.477C176.057 117.63 176.198 117.713 176.345 117.722ZM194.918 163.121L190.855 155.197L193.814 163.128L194.918 163.121ZM149.924 158.414L154.221 152.941L150.997 158.852L149.924 158.414ZM176.979 129.309C177.254 130.593 179.122 142.405 179.803 142.149L169.365 142.996L170.438 128.161L176.979 129.309ZM91.4461 257.704C99.9686 256.888 116.792 259.34 116.792 259.34L117.374 261.462L117.649 271.909C117.649 271.909 99.9443 273.501 91.32 272.672C90.8804 272.645 90.3729 272.539 89.944 272.364C89.29 272.249 88.6574 271.838 88.2607 271.217C85.248 267.083 86.4511 261.644 89.7752 258.421C90.1737 257.999 90.8546 257.743 91.4461 257.704ZM230.34 235.039C233.563 244.402 227.694 254.322 218.389 256.804C188.017 264.619 152.641 273.468 120.64 273.286C120.862 269.201 120.571 265.086 119.678 261.156C140.883 256.949 163.659 249.336 181.205 242.817C190.056 239.488 197.562 236.448 202.873 234.242C205.529 233.139 207.656 232.227 209.101 231.571C209.788 231.241 210.395 230.98 210.772 230.854C210.924 230.789 211.076 230.724 211.228 230.659C211.301 230.663 211.307 230.589 211.38 230.594C211.38 230.594 211.38 230.594 211.453 230.598C215.256 228.895 219.261 228.471 222.64 229.573C226.123 228.223 228.882 230.777 230.34 235.039ZM194.618 276.127L194.613 276.201C194.602 276.35 194.67 276.428 194.659 276.577C170.892 273.474 145.473 265.725 125.143 257.842C124.573 257.584 124.07 257.404 123.568 257.224C120.995 256.171 120.21 255.825 118.652 254.984C117.873 254.563 116.885 253.981 115.473 253.149C113.565 252.063 110.882 250.482 106.563 248.13C102.955 246.12 99.8461 243.321 98.0986 240.009C96.3511 236.698 95.8295 232.717 97.3238 228.339C99.0021 223.45 102.164 220.441 105.934 219.183C109.7 218 113.996 218.637 117.932 221.189C138.74 234.689 160.607 246.764 189.598 259.054C193.311 260.624 196.166 261.843 198.457 262.729L198.452 262.803C196.027 266.826 194.82 271.297 194.618 276.127ZM169.836 128.348L180.569 120.366L181.429 122.729C181.429 122.729 180.054 127.487 179.943 128.002C179.822 128.665 179.387 134.673 179.843 137.532C180.298 140.391 200.624 145.294 201.34 145.561C203.485 146.438 206.649 147.453 207.344 154.126C208.219 162.376 209.418 171.241 209.862 180.358C210.676 196.576 204.225 201.32 203.945 211.286C198.477 213.631 198.33 216.677 192.861 219.023L194.1 184.603C194.113 180.357 194.28 171.948 194.28 171.948C194.333 171.206 194.085 166.497 193.405 163.699L169.836 128.348ZM150.655 162.557C149.577 165.247 148.653 169.884 148.6 170.626C148.6 170.626 147.554 178.98 146.955 183.19L143.332 215.973C138.25 212.978 138.543 209.941 133.461 206.946C134.62 197.034 128.332 186.29 131.319 175.522C133.799 166.659 136.27 157.946 138.325 149.877C139.975 143.347 143.258 142.73 145.51 142.123C146.259 141.946 167.916 139.629 168.706 136.846C169.496 134.064 169.925 128.13 169.979 127.388C169.943 126.864 168.534 121.935 168.534 121.935L169.726 119.698L179.214 128.925L150.655 162.557ZM199.585 234.934L131.006 230.711C126.756 230.449 123.649 226.607 123.955 222.379L126.777 183.363C127.094 178.987 130.863 175.717 134.966 175.97L203.618 180.197C207.868 180.459 210.975 184.301 210.669 188.529L207.847 227.545C207.541 231.773 203.761 235.191 199.585 234.934ZM170.14 122.108L169.491 131.083L179.641 133.198L180.117 124.585L170.14 122.108ZM159.466 87.551C155.075 93.3155 152.198 101.557 151.722 113.225C151.657 114.115 152.258 114.972 153.047 115.244C162.578 118.811 189.079 120.741 194.28 119.05C199.171 117.563 198.297 94.0397 189.925 83.6151C188.17 81.4209 185.561 79.8446 182.815 79.154C182.741 79.1495 182.527 79.0618 182.454 79.0573C174.067 76.9762 164.991 80.3661 159.466 87.551ZM189.134 107.781C188.205 120.613 182.833 130.787 175.14 130.313C167.446 129.84 161.468 118.892 162.396 106.06C163.324 93.2274 168.205 85.7794 175.972 86.2576C183.524 86.6482 190.277 91.9813 189.134 107.781ZM177.789 85.55L178.479 89.2432C178.479 89.2432 182.442 97.5338 189.842 101.044C194.109 103.095 190.277 88.9266 190.141 88.7692C190.084 88.5422 183.199 80.9658 183.199 80.9658L177.789 85.55ZM174.82 130.666C166.54 130.156 163.553 120.585 163.033 118.616C162.846 118.157 160.096 110.388 162.627 99.8154C162.643 99.5929 162.868 99.5322 163.088 99.5458C163.308 99.5593 163.365 99.7863 163.349 100.009C160.818 110.582 163.719 118.285 163.782 118.438C164.307 120.333 167.102 129.52 174.941 130.003C175.234 130.021 175.601 130.044 175.899 129.988C180.767 129.84 183.103 126.035 184.94 123.019C185.108 122.732 185.271 122.518 185.439 122.23C189.723 114.895 189.284 102.649 189.193 100.855C188.126 100.342 183.091 97.7227 179.746 92.0779C179.61 91.9205 179.699 91.7025 179.856 91.5632C180.014 91.4239 180.228 91.5116 180.364 91.6689C183.98 97.6285 189.608 100.21 189.681 100.215C189.822 100.298 189.89 100.377 189.879 100.525C189.91 101.123 190.713 114.434 186.077 122.568C185.909 122.855 185.746 123.069 185.578 123.357C183.741 126.373 181.153 130.609 175.919 130.734C175.552 130.711 175.186 130.689 174.82 130.666ZM180.469 91.2284C180.469 91.2284 181.511 88.0143 181.317 85.6182C181.122 83.222 165.958 78.1905 162.241 95.9919C163.177 102.382 166.319 104.737 166.319 104.737C166.319 104.737 177.422 100.801 180.469 91.2284ZM163.958 110.924L163.884 110.92C163.67 110.832 163.681 110.684 163.691 110.535C164.821 108.146 166.822 106.928 169.088 107.142C171.208 107.347 172.46 109.362 172.777 111.095C172.761 111.317 172.682 111.387 172.535 111.378C172.316 111.364 172.248 111.286 172.258 111.137C172.046 110.007 171.102 107.788 168.983 107.583C166.937 107.382 165.093 108.461 164.126 110.636C164.177 110.938 164.104 110.933 163.958 110.924ZM168.404 112.539C169.063 112.58 169.776 111.878 169.851 110.84C169.921 109.876 169.394 109.024 168.661 108.979C168.002 108.938 167.289 109.639 167.214 110.678C167.29 111.651 167.744 112.498 168.404 112.539ZM182.691 113.419C183.35 113.459 184.063 112.758 184.139 111.72C184.208 110.755 183.681 109.903 182.949 109.858C182.289 109.818 181.576 110.519 181.501 111.557C181.431 112.522 181.958 113.374 182.691 113.419ZM186.121 106.701C185.174 106.568 183.505 106.242 182.484 106.104C182.118 106.082 181.757 105.985 181.548 105.823C180.978 105.565 181.324 104.841 181.911 104.877L181.984 104.882L181.884 105.248L181.957 105.252L182.057 104.886C182.13 104.891 182.35 104.904 182.418 104.983L182.402 105.205L182.475 105.21L182.491 104.987C182.784 105.005 183.072 105.098 183.281 105.259C184.218 105.541 185.352 106.132 185.99 106.469C186.351 106.566 186.194 106.705 186.121 106.701ZM164.957 105.249C165.983 105.312 168.181 105.447 169.28 105.515C169.719 105.542 170.086 105.565 170.384 105.508C171.06 105.326 170.915 104.275 170.245 104.382L170.172 104.378L170.139 104.823L169.92 104.809L169.879 104.36C169.659 104.346 169.585 104.342 169.439 104.333L169.423 104.555L169.203 104.542L169.224 104.245C168.931 104.227 168.56 104.278 168.193 104.256C167.089 104.262 165.581 104.766 164.68 105.008C164.894 105.096 164.884 105.244 164.957 105.249ZM160.427 106.832C163.609 106.581 168.261 104.335 168.261 104.335L165.746 94.3451L158.876 95.7102L160.427 106.832ZM181.982 85.5846C181.806 86.9894 181.49 88.311 181.095 89.7023C180.7 91.0936 180.237 92.4062 179.627 93.7097C178.409 96.3169 176.698 98.5957 174.502 100.472C172.452 102.358 169.927 103.692 167.418 104.804C166.197 105.4 164.846 105.763 163.484 106.276C162.133 106.639 160.85 107.082 159.499 107.446C159.426 107.441 159.279 107.432 159.285 107.358C159.29 107.284 159.301 107.136 159.374 107.14C160.725 106.776 162.008 106.334 163.297 105.817C164.658 105.305 165.868 104.858 167.084 104.337C169.598 103.15 171.977 101.807 173.948 99.991C174.97 99.0853 175.924 98.101 176.738 97.0335C177.551 95.966 178.301 94.7457 178.906 93.5163C179.583 92.2914 180.046 90.9788 180.368 89.583C180.757 88.2659 181.152 86.8747 181.322 85.544C181.328 85.4698 181.412 85.326 181.558 85.335C181.924 85.3576 181.987 85.5105 181.982 85.5846Z" stroke="#2B2D60" stroke-width="3.70186" stroke-miterlimit="10"/>
<path d="M151.534 158.056C151.534 158.056 145.035 167.777 146.025 174.387C146.025 174.387 146.848 181.284 148.442 185.625C150.042 189.891 146.955 206.222 146.955 206.222L139.025 239.818L186.943 246.941C188.385 237.132 189.77 227.096 190.952 216.824C191.933 208.326 191.114 199.345 191.891 190.612C192.285 186.171 195.368 181.077 195.695 176.557C195.909 173.594 196.037 171.816 195.323 168.497C190.551 160.389 185.853 152.285 181.082 144.176L162.744 143.045L151.534 158.056Z" fill="#FFB28B"/>
<path d="M174.641 134.385L176.128 144.303L179.574 142.357C179.574 142.357 178.228 135.574 177.347 134.552L174.641 134.385Z" fill="#FFB28B"/>
<path d="M225.861 266.71C217.421 264.765 201.014 264.579 201.014 264.579L200.126 266.623L198.193 277.002C198.193 277.002 215.482 281.367 224.172 281.903C224.614 281.93 225.129 281.962 225.503 281.91C226.245 281.88 226.934 281.548 227.419 280.978C230.924 277.52 230.849 272.417 228.604 268.679C227.79 267.654 226.955 266.928 225.861 266.71Z" fill="#FFB28B"/>
<path d="M193.768 276.259L198.506 276.923C199.82 277.078 201.172 276.715 202.2 275.735C203.302 274.759 203.917 273.381 204.177 271.832C204.389 269.907 204.011 268.021 203.018 266.469C202.02 264.992 200.545 264.007 198.859 263.903L195.712 263.635L193.768 276.259Z" fill="#FFB28B"/>
<path d="M89.778 257.834C86.505 261.157 85.2222 266.628 88.2558 270.715C88.6545 271.34 89.2904 271.754 89.9478 271.869C90.3843 271.971 90.8998 272.003 91.3309 272.18C99.926 273.01 117.795 271.412 117.795 271.412L117.446 260.89L116.86 258.754C116.86 258.754 99.9504 256.286 91.3839 257.108C90.8738 257.002 90.1894 257.259 89.778 257.834Z" fill="#FFB28B"/>
<path d="M122.311 258.398L119.158 258.204C117.472 258.1 115.868 258.896 114.604 260.085C113.334 261.348 112.608 263.241 112.474 265.095C112.361 266.654 112.919 268.104 113.724 269.197C114.675 270.299 115.878 270.969 117.203 270.976L121.985 271.047L122.311 258.398Z" fill="#FFB28B"/>
<path d="M131.226 227.622L129.824 247.03L178.819 259.948L197.449 240.627L194.828 226.744L131.226 227.622Z" fill="#FFB28B"/>
<path d="M231.637 234.54C228.649 225.729 219.981 223.844 212.036 227.33C211.946 227.549 162.397 249.849 119.544 258.308C120.431 262.413 120.792 266.636 120.558 270.898C120.488 271.869 120.429 272.69 120.359 273.661C152.742 273.933 188.53 264.963 219.212 257.028C228.866 254.473 234.929 244.27 231.637 234.54Z" fill="#FFB28B"/>
<path d="M195.611 275.984C195.883 271.202 197.017 266.773 199.233 262.711C199.323 262.492 199.334 262.343 199.497 262.128C197.121 261.232 194.177 260.001 190.235 258.258C161.172 245.895 139.194 233.743 118.281 220.158C110.232 214.863 100.353 217.478 96.8841 227.611C93.7907 236.642 98.954 244.008 106.354 248.063C121.568 256.574 117.41 254.743 125.1 257.841C145.749 265.862 171.444 273.669 195.552 276.805C195.637 276.66 195.658 276.362 195.611 275.984Z" fill="#FFB28B"/>
<path d="M207.959 231.104L211.062 188.219C211.38 183.826 208.102 180.109 203.983 179.856L135.059 175.613C130.793 175.35 127.145 178.79 126.838 183.034L123.735 225.919C123.418 230.312 126.695 234.029 130.814 234.282L199.738 238.526C203.846 238.928 207.641 235.497 207.959 231.104Z" fill="#FFB28B"/>
<path d="M195.808 170.54C195.017 166.149 193.698 162.924 192.818 160.773C192.002 158.777 191.253 156.859 188.872 150.948C188.306 149.565 184.79 142.985 184.02 141.366L182.024 140.344C172.706 144.487 166.233 138.923 166.233 138.923L163.909 139.378C162.332 141.752 160.672 144.27 159.085 146.792C155.843 151.758 151.375 157.322 148.023 164.827C147.332 166.207 146.861 167.6 146.861 167.6L195.803 170.615L195.808 170.54Z" fill="#FFB28B"/>
<path d="M165.852 139.518L165.968 138.925L165.922 138.547L164.011 139.405L165.852 139.518Z" fill="#FFB28B"/>
<path d="M213.252 273.272C212.896 275.327 212.611 277.388 212.386 279.601L213.252 273.272Z" fill="#FFB28B"/>
<path d="M217.906 273.582C217.55 275.638 217.264 277.698 217.039 279.911L217.906 273.582Z" fill="#FFB28B"/>
<path d="M99.103 264.765C98.7472 266.821 98.4619 268.881 98.2366 271.094L99.103 264.765Z" fill="#FFB28B"/>
<path d="M103.758 265.076C103.402 267.132 103.117 269.192 102.892 271.405L103.758 265.076Z" fill="#FFB28B"/>
<path d="M149.414 163.14L147.045 167.251C146.129 169.704 146.997 167.933 147.276 168.178L151.662 171.114L194.383 172.791L195.482 170.882L194.053 164.936L149.414 163.14Z" fill="#FFB28B"/>
<path d="M169.018 204.852C166.742 204.712 164.693 206.525 164.521 208.902C164.349 211.279 166.045 213.323 168.394 213.467C170.67 213.607 172.719 211.794 172.891 209.417C173.063 207.04 171.294 204.992 169.018 204.852Z" fill="#FFB28B"/>
<path d="M169.738 124.56L169.827 133.518L179.112 135.656L179.736 127.04L169.738 124.56Z" fill="#FFB28B"/>
<path d="M182.052 79.2938C182.126 79.2984 182.341 79.3862 182.414 79.3908C185.163 80.1572 187.711 81.658 189.544 83.8614C197.944 94.234 198.9 117.737 193.911 119.372C188.701 120.992 162.052 119.054 152.49 115.553C151.704 115.206 151.17 114.427 151.161 113.53C151.633 101.912 154.676 93.5126 158.927 87.8011C164.535 80.6798 173.637 77.2827 182.052 79.2938Z" fill="#FFB28B"/>
<path d="M175.392 86.5008C167.635 86.0229 162.76 93.4666 161.833 106.291C160.906 119.116 166.877 130.058 174.561 130.531C182.317 131.009 187.61 120.836 188.537 108.011C189.893 92.3088 183.148 86.9787 175.392 86.5008Z" fill="#FFB28B"/>
<path d="M182.648 81.39C182.648 81.39 189.542 88.894 189.593 89.1953C189.651 89.4224 193.569 103.45 189.294 101.473C181.891 97.9619 177.926 89.6694 177.926 89.6694L177.236 85.9753L182.648 81.39Z" fill="#FFB28B"/>
<path d="M175.503 130.962C180.663 130.832 183.245 126.671 185.019 123.502C185.261 123.219 185.355 122.927 185.513 122.787C190.148 114.654 189.35 101.27 189.32 100.672C189.325 100.598 189.268 100.371 189.122 100.362C189.048 100.357 183.501 97.7061 179.958 91.7515C179.901 91.5245 179.608 91.5065 179.524 91.6503C179.299 91.711 179.277 92.0076 179.418 92.0908C182.689 97.7307 187.578 100.341 188.718 100.858C188.809 102.652 189.169 114.966 185.032 122.311C184.791 122.594 184.696 122.886 184.539 123.025C182.775 126.046 180.434 129.924 175.646 130.002C175.353 129.984 174.981 130.036 174.688 130.018C166.923 129.539 164.208 120.283 163.677 118.463C163.682 118.388 160.787 110.611 163.244 100.035C163.26 99.8122 163.198 99.6593 162.983 99.5716C162.763 99.5581 162.611 99.6232 162.522 99.8412C159.986 110.487 162.741 118.181 162.923 118.714C163.437 120.757 166.351 130.324 174.556 130.829C174.906 131.074 175.126 131.087 175.503 130.962Z" fill="#FFB28B"/>
<path d="M165.969 105.174C165.969 105.174 162.824 102.819 161.887 96.424C165.607 78.6116 180.714 83.6417 180.983 86.0439C181.177 88.4415 180.134 91.6576 180.134 91.6576C176.942 101.153 165.969 105.174 165.969 105.174Z" fill="#FFB28B"/>
<path d="M163.821 111.151C164.788 109.034 166.648 107.873 168.705 108.075C170.836 108.281 171.717 110.437 171.999 111.656C171.982 111.88 172.203 111.893 172.277 111.898C172.498 111.912 172.514 111.687 172.52 111.613C172.207 109.792 170.942 107.837 168.811 107.631C166.607 107.42 164.52 108.642 163.385 111.049C163.295 111.269 163.363 111.348 163.579 111.436L163.652 111.441C163.669 111.217 163.742 111.221 163.821 111.151Z" fill="#FFB28B"/>
<path d="M179.244 111.283C179.541 110.25 180.964 108.987 182.454 108.854C183.501 108.694 184.879 109.079 185.765 111.16C185.822 111.388 186.043 111.402 186.128 111.257C186.354 111.196 186.37 110.972 186.228 110.888C185.08 108.341 183.397 108.087 182.423 108.252C180.633 108.442 179.052 109.845 178.666 111.097C178.65 111.321 178.718 111.4 178.865 111.409C178.865 111.409 178.865 111.409 178.939 111.414C179.007 111.493 179.086 111.423 179.244 111.283Z" fill="#FFB28B"/>
<path d="M167.052 109.552C167.122 108.587 167.767 107.808 168.5 107.853C169.16 107.893 169.766 108.676 169.691 109.714C169.621 110.679 168.975 111.459 168.242 111.413C167.442 111.29 166.988 110.442 167.052 109.552Z" fill="#FFB28B"/>
<path d="M181.31 110.503C181.379 109.539 182.025 108.759 182.758 108.804C183.417 108.844 184.023 109.627 183.948 110.665C183.878 111.63 183.233 112.41 182.5 112.365C181.772 112.245 181.245 111.393 181.31 110.503Z" fill="#FFB28B"/>
<path d="M185.831 106.936C185.189 106.595 184.053 105.922 183.105 105.713C182.816 105.619 182.447 105.596 182.31 105.437L182.294 105.662L182.22 105.658L182.237 105.433C182.163 105.428 181.947 105.339 181.873 105.335L181.773 105.705L181.699 105.701L181.726 105.326L181.652 105.321C181.068 105.21 180.793 105.946 181.287 106.278C181.503 106.367 181.861 106.54 182.229 106.563C183.256 106.702 185.009 107.036 185.889 107.166C185.894 107.091 186.052 106.95 185.831 106.936Z" fill="#FFB28B"/>
<path d="M164.511 105.243C165.271 104.987 166.789 104.474 168.049 104.477C168.418 104.5 168.792 104.447 169.087 104.466L169.066 104.768L169.287 104.782L169.303 104.555C169.525 104.569 169.599 104.573 169.746 104.583L169.787 105.04L170.009 105.054L170.041 104.601C170.115 104.605 170.115 104.605 170.115 104.605C170.784 104.571 171.004 105.647 170.255 105.752C169.955 105.809 169.586 105.786 169.143 105.759C167.963 105.685 165.823 105.552 164.79 105.488C164.416 105.54 164.427 105.389 164.511 105.243Z" fill="#FFB28B"/>
<path d="M158.36 96.0571L165.235 94.6916L167.752 104.684C167.752 104.684 163.029 106.853 159.912 107.183L158.36 96.0571Z" fill="#FFB28B"/>
<path d="M181.392 85.6758C181.319 85.6713 181.166 85.7365 181.156 85.885C180.833 87.2822 180.59 88.6096 180.2 89.928C179.809 91.2464 179.272 92.5558 178.735 93.8652C178.057 95.0913 177.457 96.2477 176.564 97.386C175.75 98.4546 174.867 99.4444 173.77 100.346C171.722 102.159 169.334 103.579 166.895 104.696C165.672 105.292 164.382 105.81 163.102 106.178C161.738 106.691 160.532 107.064 159.173 107.503C159.1 107.498 159.094 107.572 159.084 107.721C159.078 107.795 159.152 107.8 159.298 107.809C160.651 107.445 161.931 107.076 163.29 106.637C164.643 106.273 165.86 105.751 167.229 105.164C169.742 104.051 172.204 102.637 174.325 100.828C176.378 98.9407 178.164 96.6641 179.458 94.0589C180.142 92.7585 180.606 91.4446 180.928 90.0474C181.324 88.6548 181.567 87.3273 181.816 85.9256C181.528 85.8333 181.465 85.6803 181.392 85.6758Z" fill="#FFB28B"/>
<path d="M178.414 123.635C178.419 123.56 178.43 123.411 178.436 123.337C178.452 123.113 178.236 123.025 178.163 123.021L173.232 122.717C173.011 122.703 172.932 122.773 172.916 122.997C172.911 123.071 172.9 123.22 172.894 123.295C172.781 124.859 173.867 126.198 175.486 126.298C176.958 126.389 178.301 125.199 178.414 123.635Z" fill="#FFB28B"/>
<path d="M177.826 123.597C177.734 124.866 176.638 125.699 175.46 125.626C174.282 125.553 173.394 124.523 173.407 123.324L177.826 123.597Z" fill="#FFB28B"/>
<path d="M176.026 118.012C176.244 118.026 176.332 117.808 176.27 117.656L175.807 112.945C175.823 112.723 175.611 112.635 175.461 112.7C175.243 112.687 175.155 112.904 175.216 113.057L175.68 117.768C175.742 117.92 175.881 118.003 176.026 118.012Z" fill="#FFB28B"/>
<path d="M195.017 163.355L190.959 155.436L193.914 163.361L195.017 163.355Z" fill="#262961"/>
<path d="M149.686 158.419L153.979 152.949L150.757 158.857L149.686 158.419Z" fill="#262961"/>
<path d="M176.79 129.525C177.065 130.808 178.933 142.619 179.614 142.363L169.177 143.21L170.25 128.377L176.79 129.525Z" fill="#FFB28B"/>
<path d="M225.861 266.71C217.421 264.765 201.014 264.579 201.014 264.579L200.126 266.623L198.193 277.002C198.193 277.002 215.482 281.367 224.172 281.903C224.614 281.93 225.129 281.962 225.503 281.91C226.245 281.88 226.934 281.548 227.419 280.978C230.924 277.52 230.849 272.417 228.604 268.679C227.79 267.654 226.955 266.928 225.861 266.71Z" fill="white" stroke="#262961" stroke-width="0.740372" stroke-miterlimit="10"/>
<path d="M195.712 263.635L198.859 263.903C200.54 264.081 202.015 265.066 203.018 266.47C204.016 267.947 204.463 269.912 204.177 271.832C203.991 273.386 203.302 274.759 202.201 275.735C201.099 276.71 199.815 277.153 198.506 276.923L193.768 276.259L195.712 263.635Z" fill="#FFB28B" stroke="#262961" stroke-width="0.930796" stroke-miterlimit="10"/>
<path d="M91.4675 256.965C100.034 256.143 116.944 258.611 116.944 258.611L117.529 260.747L117.805 271.264C117.805 271.264 100.01 272.866 91.3409 272.032C90.899 272.005 90.3889 271.898 89.9578 271.722C89.3004 271.606 88.6645 271.192 88.2658 270.567C85.2375 266.406 86.4467 260.93 89.788 257.686C90.1886 257.261 90.873 257.003 91.4675 256.965Z" fill="white" stroke="#262961" stroke-width="0.740372" stroke-miterlimit="10"/>
<path d="M122.311 258.398L119.158 258.204C117.472 258.1 115.868 258.896 114.604 260.085C113.334 261.348 112.608 263.241 112.474 265.095C112.361 266.654 112.919 268.104 113.724 269.197C114.675 270.299 115.878 270.969 117.203 270.976L121.985 271.047L122.311 258.398Z" fill="#FFB28B" stroke="#262961" stroke-width="0.930796" stroke-miterlimit="10"/>
<path d="M131.226 227.622L129.824 247.03L178.819 259.948L197.449 240.627L194.902 226.749L131.226 227.622Z" fill="#262961"/>
<path d="M231.575 234.568L231.575 234.568C234.78 244.022 229.099 254.081 218.905 256.709C188.345 264.59 152.808 273.472 120.66 273.303L120.66 273.301L120.661 273.296L120.661 273.291L120.662 273.285L120.662 273.28L120.662 273.274L120.663 273.269L120.663 273.263L120.664 273.258L120.664 273.252L120.664 273.247L120.665 273.242L120.665 273.236L120.666 273.231L120.666 273.225L120.666 273.22L120.667 273.214L120.667 273.209L120.668 273.204L120.668 273.198L120.668 273.193L120.669 273.187L120.669 273.182L120.669 273.176L120.67 273.171L120.67 273.166L120.671 273.16L120.671 273.155L120.671 273.149L120.672 273.144L120.672 273.139L120.673 273.133L120.673 273.128L120.673 273.122L120.674 273.117L120.674 273.112L120.675 273.106L120.675 273.101L120.675 273.095L120.676 273.09L120.676 273.085L120.677 273.079L120.677 273.074L120.677 273.068L120.678 273.063L120.678 273.058L120.678 273.052L120.679 273.047L120.679 273.041L120.68 273.036L120.68 273.031L120.68 273.025L120.681 273.02L120.681 273.014L120.682 273.009L120.682 273.004L120.682 272.998L120.683 272.993L120.683 272.988L120.684 272.982L120.684 272.977L120.684 272.971L120.685 272.966L120.685 272.961L120.685 272.955L120.686 272.95L120.686 272.944L120.687 272.939L120.687 272.934L120.687 272.928L120.688 272.923L120.688 272.918L120.689 272.912L120.689 272.907L120.689 272.902L120.69 272.896L120.69 272.891L120.691 272.885L120.691 272.88L120.691 272.875L120.692 272.869L120.692 272.864L120.692 272.859L120.693 272.853L120.693 272.848L120.694 272.843L120.694 272.837L120.694 272.832L120.695 272.826L120.695 272.821L120.696 272.816L120.696 272.81L120.696 272.805L120.697 272.8L120.697 272.794L120.697 272.789L120.698 272.784L120.698 272.778L120.699 272.773L120.699 272.768L120.699 272.762L120.7 272.757L120.7 272.751L120.701 272.746L120.701 272.741L120.701 272.735L120.702 272.73L120.702 272.725L120.703 272.719L120.703 272.714L120.703 272.709L120.704 272.703L120.704 272.698L120.704 272.693L120.705 272.687L120.705 272.682L120.706 272.677L120.706 272.671L120.706 272.666L120.707 272.661L120.707 272.655L120.708 272.65L120.708 272.645L120.708 272.639L120.709 272.634L120.709 272.629L120.709 272.623L120.71 272.618L120.71 272.613L120.711 272.607L120.711 272.602L120.711 272.597L120.712 272.591L120.712 272.586L120.713 272.581L120.713 272.575L120.713 272.57L120.714 272.565L120.714 272.559L120.714 272.554L120.715 272.549L120.715 272.543L120.716 272.538L120.716 272.533L120.716 272.527L120.717 272.522L120.717 272.517L120.718 272.511L120.718 272.506L120.718 272.501L120.719 272.495L120.719 272.49L120.719 272.485L120.72 272.479L120.72 272.474L120.721 272.469L120.721 272.463L120.721 272.458L120.722 272.453L120.722 272.447L120.723 272.442L120.723 272.437L120.723 272.431L120.724 272.426L120.724 272.421L120.724 272.415L120.725 272.41L120.725 272.405L120.726 272.399L120.726 272.394L120.726 272.389L120.727 272.383L120.727 272.378L120.728 272.373L120.728 272.367L120.728 272.362L120.729 272.357L120.729 272.351L120.729 272.346L120.73 272.341L120.73 272.335L120.731 272.33L120.731 272.325L120.731 272.319L120.732 272.314L120.732 272.309L120.733 272.303L120.733 272.298L120.733 272.293L120.734 272.287L120.734 272.282L120.734 272.277L120.735 272.271L120.735 272.266L120.736 272.261L120.736 272.255L120.736 272.25L120.737 272.245L120.737 272.239L120.738 272.234L120.738 272.229L120.738 272.223L120.739 272.218L120.739 272.213L120.739 272.207L120.74 272.202L120.74 272.197L120.741 272.191L120.741 272.186L120.741 272.181L120.742 272.175L120.742 272.17L120.743 272.165L120.743 272.159L120.743 272.154L120.744 272.149L120.744 272.143L120.745 272.138L120.745 272.133L120.745 272.127L120.746 272.122L120.746 272.117L120.746 272.111L120.747 272.106L120.747 272.1L120.748 272.095L120.748 272.09L120.748 272.084L120.749 272.079L120.749 272.074L120.75 272.068L120.75 272.063L120.75 272.058L120.751 272.052L120.751 272.047L120.751 272.042L120.752 272.036L120.752 272.031L120.753 272.026L120.753 272.02L120.753 272.015L120.754 272.01L120.754 272.004L120.755 271.999L120.755 271.993L120.755 271.988L120.756 271.983L120.756 271.977L120.756 271.972L120.757 271.967L120.757 271.961L120.758 271.956L120.758 271.951L120.758 271.945L120.759 271.94L120.759 271.935L120.76 271.929L120.76 271.924L120.76 271.918L120.761 271.913L120.761 271.908L120.762 271.902L120.762 271.897L120.762 271.892L120.763 271.886L120.763 271.881L120.763 271.875L120.764 271.87L120.764 271.865L120.765 271.859L120.765 271.854L120.765 271.849L120.766 271.843L120.766 271.838L120.767 271.832L120.767 271.827L120.767 271.822L120.768 271.816L120.768 271.811L120.769 271.806L120.769 271.8L120.769 271.795L120.77 271.789L120.77 271.784L120.77 271.779L120.771 271.773L120.771 271.768L120.772 271.762L120.772 271.757L120.772 271.752L120.773 271.746L120.773 271.741L120.774 271.735L120.774 271.73L120.774 271.725L120.775 271.719L120.775 271.714L120.776 271.708L120.776 271.703L120.776 271.698L120.777 271.692L120.777 271.687L120.777 271.681L120.778 271.676L120.778 271.671L120.779 271.665L120.779 271.66L120.779 271.654L120.78 271.649L120.78 271.644L120.781 271.638L120.781 271.633L120.781 271.627L120.782 271.622L120.782 271.616L120.783 271.611L120.783 271.606L120.783 271.6L120.784 271.595L120.784 271.589L120.785 271.584L120.785 271.578L120.785 271.573L120.786 271.568L120.786 271.562L120.786 271.557L120.787 271.551L120.787 271.546L120.788 271.54L120.788 271.535L120.788 271.53L120.789 271.524L120.789 271.519L120.79 271.513L120.79 271.508L120.79 271.502L120.791 271.497L120.791 271.491L120.792 271.486L120.792 271.48L120.792 271.475L120.793 271.47L120.793 271.464L120.794 271.459L120.794 271.453L120.794 271.448L120.795 271.442L120.795 271.437L120.796 271.431L120.796 271.426L120.796 271.42L120.797 271.415L120.797 271.409L120.798 271.404L120.798 271.398L120.798 271.393L120.799 271.387L120.799 271.382L120.799 271.376L120.8 271.371L120.8 271.366L120.801 271.36L120.801 271.355L120.801 271.349L120.802 271.344L120.802 271.338L120.803 271.333L120.803 271.327L120.803 271.322L120.804 271.316L120.804 271.311L120.805 271.305L120.805 271.3L120.805 271.294L120.806 271.288L120.806 271.283L120.807 271.277L120.807 271.272L120.807 271.266L120.808 271.261L120.808 271.255L120.809 271.25L120.809 271.244L120.809 271.239L120.81 271.233L120.81 271.228L120.811 271.222L120.811 271.217L120.811 271.211L120.812 271.206L120.812 271.2L120.813 271.194L120.813 271.189L120.813 271.183L120.814 271.178L120.814 271.172L120.815 271.167L120.815 271.161L120.815 271.156L120.816 271.15L120.816 271.144L120.817 271.139L120.817 271.133L120.817 271.128L120.818 271.122L120.818 271.117L120.819 271.111L120.819 271.105L120.819 271.1L120.82 271.094L120.82 271.089L120.821 271.083L120.821 271.078L120.821 271.072L120.822 271.066L120.822 271.061L120.823 271.055L120.823 271.05L120.824 271.044L120.824 271.038L120.824 271.033L120.825 271.027L120.825 271.022L120.826 271.016L120.826 271.016L120.826 271.006C121.03 266.938 121.077 262.634 120.253 258.607C141.573 254.371 164.384 246.777 181.915 240.204C190.747 236.892 198.243 233.839 203.538 231.601C206.186 230.481 208.284 229.566 209.724 228.925C210.444 228.604 211.001 228.351 211.38 228.175C211.569 228.087 211.716 228.018 211.818 227.968C211.868 227.943 211.91 227.922 211.943 227.905C211.958 227.896 211.977 227.886 211.995 227.875C211.998 227.873 212.002 227.871 212.006 227.869C215.762 225.953 219.94 225.505 223.527 226.589C227.112 227.672 230.13 230.291 231.575 234.568Z" fill="#04AACC" stroke="#262961" stroke-width="0.930815"/>
<path d="M195.01 276.251L195.005 276.326C194.994 276.477 195.062 276.557 195.051 276.707C171.157 273.571 145.605 265.719 125.168 257.729C124.595 257.467 124.091 257.285 123.586 257.102C120.999 256.035 120.211 255.684 118.644 254.832C117.861 254.405 116.868 253.815 115.449 252.971C113.531 251.87 110.835 250.267 106.494 247.882C102.868 245.844 99.7431 243.004 97.9881 239.645C96.233 236.285 95.711 232.245 97.216 227.801C98.9063 222.839 102.087 219.783 105.879 218.504C109.665 217.301 113.984 217.946 117.941 220.534C138.853 234.224 160.832 246.468 189.973 258.927C193.705 260.518 196.576 261.753 198.879 262.652L198.873 262.727C196.432 266.811 195.217 271.349 195.01 276.251Z" fill="#00C3EB" stroke="#262961" stroke-width="0.930796"/>
<path d="M170.054 128.582L180.743 120.612L181.599 122.971C181.599 122.971 180.23 127.722 180.119 128.236C179.998 128.898 179.565 134.898 180.019 137.753C180.473 140.608 200.714 145.503 201.428 145.77C203.564 146.646 206.715 147.659 207.407 154.323C208.279 162.56 209.472 171.413 209.915 180.517C210.726 196.711 204.301 201.447 204.023 211.399C198.577 213.741 198.431 216.783 192.985 219.125L194.218 184.755C194.231 180.515 194.397 172.119 194.397 172.119C194.45 171.378 194.203 166.676 193.525 163.881" fill="#FFB28B"/>
<path d="M170.054 128.582L180.743 120.612L181.599 122.971C181.599 122.971 180.23 127.722 180.119 128.236C179.998 128.898 179.565 134.898 180.019 137.753C180.473 140.608 200.714 145.503 201.428 145.77C203.564 146.646 206.715 147.659 207.407 154.323C208.279 162.56 209.472 171.413 209.915 180.517C210.726 196.711 204.301 201.447 204.023 211.399C198.577 213.741 198.431 216.783 192.985 219.125L194.218 184.755C194.231 180.515 194.397 172.119 194.397 172.119C194.45 171.378 194.203 166.676 193.525 163.881" stroke="#2B2D60" stroke-width="0.740372" stroke-miterlimit="10"/>
<path d="M178.965 128.954L169.514 119.74L168.326 121.973C168.326 121.973 169.73 126.896 169.766 127.419C169.791 128.09 169.358 134.09 168.498 136.864C167.638 139.638 146.139 141.957 145.394 142.134C143.151 142.739 139.881 143.356 138.238 149.876C136.19 157.934 133.73 166.636 131.259 175.486C128.284 186.239 134.547 196.967 133.393 206.865C138.455 209.856 138.163 212.889 143.225 215.88L146.833 183.143C147.43 178.939 148.471 170.596 148.471 170.596C148.525 169.855 149.445 165.225 150.519 162.538" fill="#FFB28B"/>
<path d="M178.965 128.954L169.514 119.74L168.326 121.973C168.326 121.973 169.73 126.896 169.766 127.419C169.791 128.09 169.358 134.09 168.498 136.864C167.638 139.638 146.139 141.957 145.394 142.134C143.151 142.739 139.881 143.356 138.238 149.876C136.19 157.934 133.73 166.636 131.259 175.486C128.284 186.239 134.547 196.967 133.393 206.865C138.455 209.856 138.163 212.889 143.225 215.88L146.833 183.143C147.43 178.939 148.471 170.596 148.471 170.596C148.525 169.855 149.445 165.225 150.519 162.538" stroke="#2B2D60" stroke-width="0.740372" stroke-miterlimit="10"/>
<path d="M151.472 158.068C151.472 158.068 144.965 167.792 145.956 174.405C145.956 174.405 146.78 181.306 148.377 185.648C149.979 189.916 146.887 206.254 146.887 206.254L140.75 225.085L188.731 232.211C190.175 222.398 189.759 227.137 190.943 216.861C191.925 208.36 191.104 199.375 191.883 190.637C192.278 186.194 195.365 181.098 195.691 176.577C195.906 173.612 196.034 171.833 195.319 168.513C190.541 160.401 185.837 152.293 181.059 144.181L162.698 143.05L151.472 158.068Z" fill="#3AFFDC" stroke="#262961" stroke-width="0.930796" stroke-miterlimit="10"/>
<path d="M199.654 238.669L130.804 234.43C126.538 234.167 123.418 230.311 123.725 226.067L126.828 183.181C127.146 178.788 130.93 175.506 135.049 175.76L203.973 180.003C208.239 180.266 211.359 184.123 211.052 188.366L207.949 231.252C207.642 235.496 203.847 238.927 199.654 238.669Z" fill="white" stroke="#262961" stroke-width="1.85539" stroke-miterlimit="10"/>
<path d="M146.718 167.516C146.718 167.516 147.189 166.123 147.88 164.743C151.232 157.238 155.7 151.674 158.942 146.708C160.529 144.186 162.179 141.817 163.766 139.295L166.09 138.839C166.09 138.839 173.116 143.913 182.434 139.771L184.588 140.652C185.426 142.351 188.231 149.561 188.723 150.938C191.104 156.85 191.848 158.842 192.669 160.764C193.549 162.914 194.863 166.214 195.659 170.531L146.718 167.516Z" fill="#3AFFDC" stroke="#262961" stroke-width="0.930796" stroke-miterlimit="10"/>
<path d="M164.011 139.405L165.922 138.547L165.968 138.925L165.852 139.518L164.011 139.405Z" fill="#262961"/>
<path d="M213.498 269.578C213.142 271.634 212.857 273.694 212.632 275.907" stroke="#262961" stroke-width="0.930796" stroke-miterlimit="10" stroke-linecap="round"/>
<path d="M218.152 269.888C217.796 271.944 217.511 274.005 217.286 276.217" stroke="#262961" stroke-width="0.930796" stroke-miterlimit="10" stroke-linecap="round"/>
<path d="M99.3494 261.071C98.9937 263.127 98.7083 265.188 98.4831 267.4" stroke="#262961" stroke-width="0.930796" stroke-miterlimit="10" stroke-linecap="round"/>
<path d="M104.004 261.382C103.649 263.438 103.363 265.498 103.138 267.711" stroke="#262961" stroke-width="0.930796" stroke-miterlimit="10" stroke-linecap="round"/>
<path d="M149.414 163.14L147.045 167.251C146.129 169.704 146.997 167.933 147.276 168.178L151.662 171.114L194.383 172.791L195.482 170.882L194.053 164.936L149.414 163.14Z" fill="#3AFFDC"/>
<path d="M168.394 213.467C170.67 213.607 172.719 211.794 172.891 209.417C173.063 207.04 171.367 204.996 169.018 204.852C166.742 204.712 164.693 206.525 164.521 208.902C164.349 211.279 166.045 213.323 168.394 213.467Z" fill="#262961" stroke="#262961" stroke-width="0.930796" stroke-miterlimit="10"/>
<path d="M169.886 122.344L169.235 131.331L179.408 133.449L179.885 124.824L169.886 122.344Z" fill="#262961"/>
<path d="M158.996 87.8796C154.593 93.6563 151.707 101.916 151.23 113.608C151.165 114.5 151.767 115.358 152.559 115.631C162.115 119.206 188.69 121.14 193.905 119.445C198.81 117.955 197.933 94.3821 189.539 83.9354C187.779 81.7366 185.163 80.157 182.409 79.4649C182.335 79.4604 182.12 79.3725 182.047 79.368C173.637 77.2826 164.535 80.6796 158.996 87.8796Z" fill="#FFFDC6" stroke="#2B2D60" stroke-width="0.740372" stroke-miterlimit="10"/>
<path d="M188.754 108.1C187.826 120.924 182.461 131.093 174.777 130.619C167.094 130.146 161.123 119.205 162.05 106.38C162.977 93.5552 167.852 86.1116 175.608 86.5895C183.151 86.9798 189.895 92.3098 188.754 108.1Z" fill="#FFB28B"/>
<path d="M177.384 85.9851L178.074 89.6793C178.074 89.6793 182.038 97.9719 189.441 101.483C193.711 103.535 189.877 89.3626 189.741 89.2052C189.684 88.9781 182.796 81.3998 182.796 81.3998L177.384 85.9851Z" fill="#FFFDC6"/>
<path d="M179.698 91.7694C179.625 91.765 179.552 91.7607 179.473 91.8306C179.316 91.9704 179.227 92.1889 179.361 92.3462C182.685 97.9171 187.697 100.529 188.753 101.115C188.839 102.911 189.243 115.172 184.953 122.527C184.784 122.815 184.622 123.029 184.454 123.318C182.609 126.416 180.27 130.231 175.423 130.315C175.131 130.298 174.761 130.35 174.469 130.333C166.657 129.866 163.897 120.673 163.379 118.777C163.384 118.702 160.44 110.99 162.998 100.323C163.014 100.101 162.953 99.9477 162.739 99.8603L162.666 99.8559C162.52 99.8472 162.363 99.9871 162.279 100.131C159.727 110.724 162.446 118.497 162.632 118.956C163.139 121.001 166.096 130.504 174.346 130.997C174.638 131.014 175.003 131.036 175.373 130.984C180.591 130.847 183.176 126.674 185.021 123.575C185.189 123.287 185.352 123.073 185.52 122.785C190.231 114.709 189.399 101.303 189.371 100.704C189.382 100.555 189.314 100.477 189.174 100.394C189.101 100.389 183.5 97.8164 179.911 91.8567C179.911 91.8567 179.844 91.7781 179.698 91.7694Z" fill="#2B2D60"/>
<path d="M179.992 91.5741C179.992 91.5741 181.035 88.358 180.84 85.9604C180.645 83.5628 165.465 78.5281 161.744 96.3405C162.681 102.735 165.826 105.091 165.826 105.091C165.826 105.091 176.941 101.153 179.992 91.5741Z" fill="#FFFDC6"/>
<path d="M163.519 111.209L163.445 111.205C163.23 111.116 163.241 110.967 163.251 110.818C164.387 108.411 166.4 107.184 168.678 107.399C170.809 107.606 172.068 109.635 172.386 111.381C172.37 111.605 172.291 111.676 172.144 111.667C171.923 111.653 171.854 111.574 171.865 111.424C171.651 110.285 170.703 108.05 168.572 107.843C166.515 107.641 164.66 108.728 163.688 110.92C163.74 111.223 163.666 111.218 163.519 111.209Z" fill="#262961"/>
<path d="M178.934 111.488C178.86 111.483 178.86 111.483 178.934 111.488C178.713 111.474 178.655 111.245 178.661 111.171C179.047 109.919 180.628 108.515 182.418 108.326C183.392 108.161 185.07 108.489 186.223 110.962C186.292 111.041 186.202 111.261 186.123 111.331C186.044 111.401 185.828 111.313 185.76 111.233C184.8 109.148 183.422 108.763 182.448 108.928C180.959 109.061 179.462 110.32 179.239 111.357C179.087 111.422 179.008 111.492 178.934 111.488Z" fill="#262961"/>
<path d="M168.001 112.807C168.661 112.848 169.374 112.146 169.449 111.108C169.519 110.143 168.992 109.291 168.259 109.246C167.599 109.205 166.886 109.906 166.811 110.945C166.887 111.919 167.341 112.766 168.001 112.807Z" fill="#262961"/>
<path d="M182.406 113.768C183.066 113.809 183.779 113.107 183.855 112.069C183.924 111.104 183.397 110.252 182.664 110.207C182.004 110.167 181.291 110.868 181.216 111.906C181.146 112.871 181.673 113.723 182.406 113.768Z" fill="#262961"/>
<path d="M185.82 107.088C184.867 106.954 183.187 106.623 182.16 106.484C181.792 106.462 181.428 106.364 181.218 106.2C180.644 105.938 180.993 105.206 181.583 105.242L181.657 105.247L181.556 105.618L181.63 105.622L181.731 105.251C181.804 105.256 182.025 105.27 182.094 105.349L182.078 105.574L182.151 105.579L182.168 105.354C182.462 105.372 182.752 105.465 182.962 105.629C183.905 105.914 185.047 106.512 185.689 106.854C186.052 106.952 185.894 107.093 185.82 107.088Z" fill="#262961"/>
<path d="M164.489 105.542C165.522 105.606 167.736 105.744 168.842 105.813C169.285 105.84 169.654 105.863 169.954 105.806C170.635 105.621 170.489 104.55 169.814 104.66L169.74 104.655L169.708 105.108L169.487 105.094L169.445 104.637C169.224 104.623 169.15 104.618 169.003 104.609L168.986 104.836L168.765 104.822L168.787 104.52C168.491 104.502 168.117 104.554 167.748 104.531C166.636 104.538 165.117 105.05 164.211 105.297C164.426 105.386 164.416 105.537 164.489 105.542Z" fill="#262961"/>
<path d="M159.917 107.109C163.102 106.858 167.757 104.611 167.757 104.611L165.24 94.6179L158.365 95.9834L159.917 107.109Z" fill="#FFFDC6"/>
<path d="M181.52 85.9061C181.345 87.3123 181.028 88.6352 180.632 90.0279C180.237 91.4206 179.773 92.7345 179.163 94.0393C177.942 96.6491 176.229 98.9302 174.029 100.808C171.976 102.696 169.446 104.032 166.933 105.145C165.711 105.741 164.358 106.105 162.994 106.618C161.641 106.982 160.356 107.425 159.002 107.789C158.929 107.785 158.782 107.776 158.788 107.701C158.793 107.627 158.804 107.479 158.877 107.483C160.23 107.119 161.515 106.676 162.806 106.159C164.17 105.646 165.382 105.199 166.599 104.677C169.117 103.489 171.5 102.144 173.474 100.327C174.498 99.4203 175.454 98.435 176.268 97.3665C177.083 96.2979 177.834 95.0763 178.439 93.8457C179.118 92.6196 179.582 91.3057 179.904 89.9085C180.294 88.5901 180.69 87.1974 180.86 85.8655C180.865 85.7912 180.949 85.6472 181.096 85.6563C181.463 85.6788 181.526 85.8318 181.52 85.9061Z" fill="#262961"/>
<path d="M175.954 118.007C175.881 118.003 175.669 117.915 175.685 117.693L175.222 112.983C175.238 112.761 175.315 112.691 175.466 112.626C175.683 112.64 175.75 112.718 175.812 112.871L176.275 117.581C176.332 117.808 176.244 118.025 175.954 118.007C176.026 118.012 176.026 118.012 175.954 118.007Z" fill="#262961"/>
<path d="M178.575 123.505C178.384 124.094 176.693 124.967 175.167 124.572" stroke="#2B2D60" stroke-width="0.740372" stroke-miterlimit="10" stroke-linecap="round" stroke-linejoin="round"/>
<path d="M193.241 141.738C190.5 141.094 186.866 139.925 183.728 138.318L193.5 138.007C194.019 139.446 194.727 142.088 193.241 141.738Z" fill="#D9F6FC"/>
<path d="M161.225 60.5074C161.951 51.3322 154.485 44.5495 145.593 44.0457C132.734 43.317 127.749 50.5164 127.023 59.6915C126.297 68.8667 135.964 75.9441 144.856 76.448C153.748 76.9519 160.499 69.6825 161.225 60.5074Z" fill="white"/>
<path d="M161.225 60.5074C161.951 51.3322 154.485 44.5495 145.593 44.0457C132.734 43.317 127.749 50.5164 127.023 59.6915C126.297 68.8667 135.964 75.9441 144.856 76.448C153.748 76.9519 160.499 69.6825 161.225 60.5074Z" fill="#F4259A" fill-opacity="0.6"/>
<path d="M163.213 75.4421C163.213 75.4421 157.644 74.2382 157.706 68.4021L152.995 71.5156C153.031 71.4835 154.699 76.9396 163.213 75.4421Z" fill="white"/>
<path d="M163.213 75.4421C163.213 75.4421 157.644 74.2382 157.706 68.4021L152.995 71.5156C153.031 71.4835 154.699 76.9396 163.213 75.4421Z" fill="#F4259A" fill-opacity="0.6"/>
<path d="M132.397 73.3055L132.397 73.3056C135.847 76.2704 140.579 78.2174 145.042 78.4764C148.453 78.6742 151.687 77.7496 154.474 75.7874C156.966 77.9825 160.572 77.91 163.157 77.4515L163.159 77.4512L163.565 77.3728L163.571 77.1868L163.189 77.0985C163.189 77.0984 163.189 77.0984 163.189 77.0984C163.184 77.0962 163.178 77.0942 163.173 77.0925C163.168 77.0909 163.163 77.0891 163.157 77.0872C163.15 77.0849 163.142 77.0825 163.133 77.0798C163.112 77.0734 163.086 77.0655 163.055 77.0559C163.037 77.0504 163.017 77.0442 162.995 77.0374C162.878 77.0005 162.711 76.9454 162.508 76.868C162.102 76.713 161.554 76.4689 160.975 76.1034C159.826 75.3779 158.56 74.177 158.048 72.2486C160.088 69.47 161.344 66.073 161.629 62.3845C161.965 58.026 160.439 53.9013 157.33 50.7804C154.347 47.7703 150.232 45.9948 145.768 45.7359C139.685 45.3831 134.986 46.7805 131.759 49.8824L131.759 49.8828C128.965 52.5978 127.361 56.5063 126.974 61.5297C126.642 65.8283 128.57 70.0105 132.397 73.3055ZM157.65 72.2777C158.444 75.3973 161.07 76.7467 162.349 77.2286C159.856 77.5555 156.752 77.3995 154.565 75.4298L154.538 75.3986L154.475 75.3254L154.402 75.3908L154.37 75.4195C151.673 77.3872 148.428 78.3121 145.07 78.1173C140.649 77.8609 135.987 75.9661 132.6 73.0293L132.6 73.029C128.839 69.8004 126.973 65.7422 127.297 61.5484C127.679 56.591 129.268 52.7661 131.982 50.125C135.088 47.1038 139.723 45.7459 145.708 46.093C150.128 46.3494 154.132 48.1033 157.086 51.0118C160.127 54.059 161.602 58.0946 161.273 62.3639C160.99 66.0317 159.773 69.3724 157.711 72.1231L157.682 72.1485L157.653 72.1746L157.65 72.2134L157.647 72.2472L157.646 72.2627L157.65 72.2777Z" fill="#262961" stroke="#262961" stroke-width="0.190425"/>
<path d="M137.643 62.9924L137.643 62.9924L137.643 62.9934C137.652 63.1926 137.793 63.3824 137.941 63.5143C138.09 63.6476 138.289 63.7607 138.468 63.7718L151.242 64.5626C151.595 64.5844 151.909 64.2851 151.935 63.9319C151.96 63.5793 151.693 63.2446 151.341 63.2216L138.591 62.1142L138.591 62.1141L138.587 62.1139C138.429 62.1041 138.193 62.1401 137.995 62.2693C137.787 62.4047 137.629 62.6381 137.643 62.9924Z" fill="white" stroke="white" stroke-width="0.285637"/>
<path d="M140.338 59.0925L140.338 59.0925L140.334 59.0923C140.208 59.0845 140.014 59.1148 139.851 59.2246C139.677 59.3414 139.548 59.5423 139.567 59.8428C139.578 60.0185 139.69 60.1785 139.808 60.289C139.926 60.3986 140.085 60.4928 140.232 60.5019L149.862 61.0957C150.017 61.1053 150.161 61.0548 150.269 60.9498C150.376 60.8457 150.437 60.6984 150.449 60.5299C150.46 60.3806 150.4 60.2372 150.313 60.1316C150.226 60.027 150.097 59.9421 149.948 59.9322L140.338 59.0925Z" fill="white" stroke="white" stroke-width="0.285637"/>
<path fill-rule="evenodd" clip-rule="evenodd" d="M120.733 31.0043C111.946 30.4883 103.58 36.2736 102.894 45.2921C102.618 48.9225 103.342 52.3606 104.877 55.2101C103.199 59.0222 98.9625 59.4364 98.9625 59.4364C103.261 60.7373 105.98 59.9013 107.59 58.8262C109.896 61.07 112.951 62.5074 116.556 62.7191C125.343 63.2351 135.908 57.4432 136.596 48.3909C137.285 39.3387 133.465 31.752 120.733 31.0043Z" fill="white"/>
<path fill-rule="evenodd" clip-rule="evenodd" d="M120.733 31.0043C111.946 30.4883 103.58 36.2736 102.894 45.2921C102.618 48.9225 103.342 52.3606 104.877 55.2101C103.199 59.0222 98.9625 59.4364 98.9625 59.4364C103.261 60.7373 105.98 59.9013 107.59 58.8262C109.896 61.07 112.951 62.5074 116.556 62.7191C125.343 63.2351 135.908 57.4432 136.596 48.3909C137.285 39.3387 133.465 31.752 120.733 31.0043Z" fill="#FFB28B" fill-opacity="0.8"/>
<path d="M98.5955 61.303L98.5936 61.3029L98.5856 61.3038L98.1825 61.3484L98.1681 61.5356L98.5579 61.6257C102.949 62.9245 105.732 62.0376 107.317 60.9728C109.715 63.202 112.745 64.4896 116.122 64.6855C120.519 64.9406 125.438 63.5873 129.343 61.0836L129.344 61.0829C133.574 58.2892 136.091 54.3986 136.417 50.1679C136.799 45.2119 135.806 41.1865 133.482 38.2425C130.791 34.8311 126.378 32.9391 120.395 32.592C115.964 32.335 111.68 33.6235 108.3 36.1961C108.3 36.1961 108.3 36.1961 108.3 36.1961L108.357 36.2713L98.5955 61.303ZM98.5955 61.303L98.6013 61.3025C98.6095 61.3016 98.6216 61.3002 98.6377 61.2982C98.6697 61.2941 98.7165 61.2874 98.7765 61.2776C98.8963 61.258 99.0682 61.2255 99.2788 61.1748C99.7002 61.0732 100.276 60.8986 100.899 60.6071C102.136 60.0286 103.557 58.9923 104.344 57.1565L98.5955 61.303ZM107.218 60.6341C104.784 62.3058 101.715 62.104 99.354 61.4964C100.684 61.172 103.439 60.1656 104.703 57.1952L104.709 57.1807L104.71 57.165L104.713 57.1312L104.716 57.0924L104.691 57.0632L104.667 57.0348C103.075 54.1057 102.379 50.6879 102.657 47.088C102.981 42.8863 105.059 39.0906 108.47 36.4856L108.47 36.4854C111.778 33.9408 116.013 32.6985 120.334 32.9491C126.252 33.2924 130.541 35.134 133.158 38.4537L133.233 38.394L133.158 38.4537C135.414 41.3147 136.372 45.253 135.995 50.1434C135.677 54.2697 133.24 58.0445 129.086 60.7799L129.086 60.7799C125.314 63.2679 120.468 64.6109 116.114 64.3584C112.789 64.1655 109.782 62.8781 107.441 60.6518L107.413 60.6197L107.368 60.5669L107.304 60.5951L107.235 60.6251L107.226 60.6288L107.218 60.6341Z" fill="#262961" stroke="#262961" stroke-width="0.190425"/>
<path d="M125.702 50.4963L125.703 50.4953C125.767 50.146 125.644 49.8953 125.457 49.7355C125.279 49.5831 125.05 49.5183 124.892 49.5085L124.889 49.5084L112.263 49.0099C111.911 48.9891 111.598 49.2878 111.573 49.6404C111.545 50.0226 111.807 50.3636 112.166 50.3858L124.773 51.1659C124.952 51.177 125.166 51.0895 125.333 50.9757C125.498 50.8632 125.665 50.6926 125.702 50.4963Z" fill="white" stroke="white" stroke-width="0.285637"/>
<path d="M123.59 46.3639L123.59 46.3639L123.586 46.3637L114.04 46.0218C113.747 46.0048 113.513 46.246 113.491 46.5547C113.481 46.6964 113.526 46.8373 113.606 46.9455C113.685 47.0537 113.809 47.1412 113.961 47.1506L123.491 47.7387C123.638 47.7478 123.809 47.674 123.941 47.5797C124.074 47.4847 124.209 47.3399 124.245 47.167C124.306 46.8761 124.219 46.6668 124.06 46.535C123.913 46.4129 123.722 46.3721 123.59 46.3639Z" fill="white" stroke="white" stroke-width="0.285637"/>
<path d="M233.304 74.9942L233.071 74.6371C233.071 74.6371 233.591 74.2943 234.396 73.7394L234.629 74.0965C233.824 74.6514 233.304 74.9942 233.304 74.9942ZM235.982 73.0524L235.767 72.7603C236.224 72.4339 236.6 72.059 236.976 71.684L237.255 71.9597C236.815 72.3511 236.376 72.7425 235.982 73.0524ZM261.678 64.9699C261.55 65.0028 261.423 65.0356 261.231 65.0849L261.126 64.6949C261.636 64.5635 262.209 64.4157 262.719 64.2843L262.825 64.6743C262.506 64.7564 262.06 64.8714 261.678 64.9699ZM259.702 65.4791C259.192 65.6105 258.601 65.6933 258.091 65.8247L257.986 65.4347C258.513 65.3683 259.023 65.2369 259.597 65.0891L259.702 65.4791ZM264.4 64.1987L264.295 63.8087C264.805 63.6773 265.297 63.4809 265.853 63.2681L265.958 63.6581C265.466 63.8545 264.974 64.0508 264.4 64.1987ZM238.4 70.8999L238.121 70.6242C238.496 70.2493 238.872 69.8743 239.23 69.4344L239.509 69.7101C239.197 70.0686 238.839 70.5085 238.4 70.8999ZM256.445 66.0403C255.918 66.1067 255.327 66.1896 254.799 66.256L254.758 65.8496C255.285 65.7832 255.813 65.7168 256.404 65.6339L256.445 66.0403ZM267.516 63.1175L267.347 62.7439C267.839 62.5475 268.332 62.3511 268.888 62.1383L269.057 62.5119C268.565 62.7083 268.009 62.9211 267.516 63.1175ZM253.2 66.3902C252.672 66.4566 252.127 66.458 251.582 66.4594L251.541 66.053C252.086 66.0516 252.613 65.9852 253.158 65.9838L253.2 66.3902ZM270.533 61.9227L270.364 61.5492C270.857 61.3528 271.331 61.0914 271.823 60.895L271.993 61.2685C271.564 61.4485 271.008 61.6613 270.533 61.9227ZM273.498 60.533L273.329 60.1594C273.803 59.898 274.296 59.7017 274.77 59.4403L274.939 59.8138C274.511 59.9938 273.973 60.2716 273.498 60.533ZM249.901 66.5451C249.356 66.5465 248.811 66.5479 248.249 66.4843L248.271 66.0615C248.816 66.0601 249.378 66.1237 249.923 66.1223L249.901 66.5451ZM240.602 68.4552L240.259 68.196C240.617 67.756 240.911 67.3325 241.206 66.909L241.549 67.1683C241.3 67.5104 240.96 68.0153 240.602 68.4552ZM276.41 58.9482L276.177 58.5911C276.651 58.3297 277.126 58.0684 277.583 57.742L277.816 58.0991C277.359 58.4255 276.884 58.6869 276.41 58.9482ZM246.596 66.4235C246.034 66.36 245.471 66.2964 244.972 66.2164L244.994 65.7936C245.557 65.8571 246.056 65.9372 246.601 65.9357L246.596 66.4235ZM279.222 57.25L279.007 56.9578C279.464 56.6315 279.939 56.3701 280.332 56.0601L280.565 56.4172C280.154 56.6622 279.697 56.9886 279.222 57.25ZM243.348 66.0092C242.786 65.9456 242.27 65.8006 241.707 65.737L241.81 65.3628C241.955 65.3949 242.1 65.4271 242.182 65.4756C242.412 65.0686 242.626 64.5965 242.839 64.1244L243.228 64.3023C243.061 64.6929 242.847 65.165 242.617 65.5721C242.907 65.6364 243.179 65.6357 243.406 65.7164L243.348 66.0092ZM240.094 65.3185C239.578 65.1735 238.997 65.0449 238.481 64.8999L238.584 64.5257C239.101 64.6706 239.617 64.8156 240.134 64.9606L240.094 65.3185ZM243.797 62.626L243.425 62.5132C243.557 61.9925 243.689 61.4719 243.821 60.9512L244.192 61.0641C244.043 61.5198 243.929 62.1054 243.797 62.626ZM236.96 64.3185C236.426 64.1085 235.893 63.8985 235.422 63.6721L235.589 63.2814C236.06 63.5078 236.594 63.7178 237.11 63.8628L236.96 64.3185ZM233.884 63.0257C233.396 62.7343 232.862 62.5243 232.438 62.2164L232.623 61.8908C233.111 62.1822 233.581 62.4086 234.069 62.7L233.884 63.0257ZM244.344 59.3564L243.927 59.325C243.913 58.7722 243.9 58.2194 243.887 57.6666L244.287 57.6331C244.382 58.2344 244.395 58.7872 244.344 59.3564ZM231.021 61.2608C230.579 60.888 230.155 60.5801 229.713 60.2073L229.979 59.9302C230.357 60.3195 230.781 60.6273 231.223 61.0001L231.021 61.2608ZM244.039 55.959L243.656 56.0575C243.621 55.9275 243.569 55.7326 243.533 55.6026C243.428 55.2126 243.34 54.8877 243.171 54.5141L243.536 54.3506C243.705 54.7241 243.81 55.1141 243.898 55.439C243.951 55.634 244.004 55.829 244.039 55.959ZM228.562 58.9746C228.166 58.5203 227.835 58.0496 227.584 57.6275L227.931 57.399C228.199 57.8861 228.514 58.2918 228.909 58.746L228.562 58.9746ZM242.558 53.0036C242.29 52.5165 242.022 52.0294 241.754 51.5423L242.101 51.3138C242.433 51.7844 242.701 52.2715 242.905 52.775L242.558 53.0036ZM226.762 56.1013C226.576 55.6627 226.389 55.2242 226.266 54.7693C226.231 54.6393 226.213 54.5743 226.195 54.5093L226.578 54.4107C226.595 54.4757 226.63 54.6057 226.648 54.6707C226.771 55.1257 226.877 55.5156 227.063 55.9542L226.762 56.1013ZM240.776 50.1953C240.659 50.0167 240.479 49.8546 240.363 49.676C240.147 49.3839 239.95 49.1568 239.752 48.9297L240.018 48.6526C240.215 48.8797 240.431 49.1718 240.646 49.4639C240.763 49.6425 240.943 49.8046 241.059 49.9832L240.776 50.1953ZM226.393 52.7202L225.993 52.7538C225.98 52.201 226.031 51.6318 226.081 51.0626L226.435 51.1104C226.384 51.6796 226.398 52.2324 226.393 52.7202ZM238.6 47.6969C238.159 47.3241 237.717 46.9513 237.31 46.7084L237.495 46.3828C237.919 46.6906 238.361 47.0634 238.802 47.4363L238.6 47.6969ZM226.848 49.6135L226.477 49.5006C226.672 48.9635 226.949 48.475 227.226 47.9865L227.551 48.1808C227.257 48.6043 227.044 49.0764 226.848 49.6135ZM235.928 45.8828C235.458 45.6564 234.924 45.4464 234.425 45.3664L234.528 44.9921C235.045 45.1371 235.579 45.3471 236.113 45.5571L235.928 45.8828ZM228.562 46.8774L228.283 46.6017C228.659 46.2268 229.116 45.9004 229.637 45.5576L229.87 45.9147C229.331 46.1925 228.938 46.5025 228.562 46.8774ZM232.801 45.1592C232.256 45.1606 231.793 45.2106 231.283 45.342L231.219 45.3584L231.114 44.9684L231.177 44.952C231.687 44.8206 232.215 44.7542 232.76 44.7528L232.801 45.1592Z" fill="#F4259A"/>
</svg>
