<svg width="316" height="69" viewBox="0 0 316 69" fill="none" xmlns="http://www.w3.org/2000/svg">
<path fill-rule="evenodd" clip-rule="evenodd" d="M91.7571 20.294C87.1884 21.5811 84.7453 24.5894 84.7453 28.9283C84.7453 31.121 85.8239 33.3728 87.5188 34.7197C88.1884 35.2514 90.4219 36.2984 92.4824 37.0466C94.5429 37.7944 96.6024 38.7574 97.059 39.1863C99.086 41.0905 97.3181 44.004 94.1445 43.9891C92.3831 43.9808 89.8712 42.9985 88.6284 41.8318L87.8418 41.0933L85.5814 43.3233L83.3209 45.5533L84.6028 46.6716C87.1355 48.8812 92.1884 50.1285 96.1005 49.5097C99.0486 49.0431 101.098 48.0199 102.678 46.224C104.208 44.4862 104.808 42.7677 104.808 40.1195C104.808 36.1569 102.496 33.8283 96.6194 31.8705C93.0545 30.6827 91.6633 29.6841 91.6633 28.3123C91.6633 25.3351 97.1061 24.5247 99.8418 27.0944L100.673 27.8757L102.932 25.6457L105.19 23.4157L104.105 22.5011C101.455 20.2691 95.5768 19.2182 91.7571 20.294ZM195.871 20.2954C189.855 21.9875 186.003 26.2144 185.013 32.2119C183.617 40.6619 189.139 48.252 197.643 49.5754C202.111 50.2707 207.58 48.7373 210.132 46.0739L211.162 44.9995L208.863 42.7563L206.564 40.5135L205.582 41.436C204.182 42.7508 202.66 43.3049 200.449 43.3049C196.043 43.3049 192.885 40.3786 192.419 35.8643C192.01 31.8958 193.696 28.4949 196.853 26.9214C199.768 25.4686 203.572 25.8969 205.579 27.9041C206.164 28.489 206.294 28.4195 208.553 26.3116C209.852 25.0992 210.929 24.0297 210.946 23.9346C211.019 23.5299 207.776 21.404 206.088 20.7502C203.672 19.8146 198.413 19.5804 195.871 20.2954ZM226.31 20.3171C221.837 21.5216 218.609 24.1255 216.766 28.0158C215.715 30.2351 215.668 30.5177 215.668 34.6574C215.668 38.8024 215.714 39.0777 216.773 41.3129C222.107 52.574 239.669 52.574 245.003 41.3129C246.062 39.0777 246.107 38.8024 246.107 34.6574C246.107 30.5177 246.061 30.2351 245.01 28.0158C243.136 24.0622 239.915 21.497 235.318 20.2999C232.867 19.6613 228.715 19.6693 226.31 20.3171ZM113.455 34.6574V48.8393H116.914H120.373V34.6574V20.4756H116.914H113.455V34.6574ZM127.983 23.4157V26.3559H131.961H135.938V37.5976V48.8393H139.397H142.856V37.5976V26.3559H146.834H150.812V23.4157V20.4756H139.397H127.983V23.4157ZM158.422 34.6574V48.8393H168.467H178.512L178.411 45.9857L178.311 43.132L171.639 43.0379L164.966 42.9441L165.067 40.0978L165.167 37.2517L171.148 37.1569L177.129 37.0621L177.029 34.3897L176.928 31.7173L170.961 31.6225L164.994 31.5281V28.9418V26.3559H171.393H177.792V23.4157V20.4756H168.107H158.422V34.6574ZM253.89 34.6277V48.8393H257.349H260.808V43.3049V37.7705H261.938C263.039 37.7705 263.141 37.9061 266.046 43.2185L269.026 48.6664L273.046 48.8393C275.258 48.9345 277.066 48.9293 277.066 48.8276C277.066 48.7262 275.441 45.9749 273.455 42.7141L269.845 36.7854L270.807 36.4499C272.261 35.9432 274.33 33.9684 275.037 32.4122C275.819 30.69 275.871 27.48 275.145 25.7395C274.359 23.8543 272.689 22.3054 270.511 21.4424C268.794 20.7613 267.815 20.6672 261.241 20.5486L253.89 20.4161V34.6277ZM284.329 34.6574V48.8393H294.36H304.392V45.8992V42.959H297.819H291.247V40.0189V37.0787H297.142H303.037L302.936 34.398L302.835 31.7173L297.041 31.6225L291.247 31.5277V28.9418V26.3559H297.474H303.7V23.4157V20.4756H294.015H284.329V34.6574ZM311.137 20.8751C309.715 21.6523 309.185 23.1957 309.795 24.7837C310.11 25.6059 311.907 26.4306 312.797 26.1618C313.956 25.8121 315.46 24.2445 315.46 23.387C315.46 22.5095 313.324 20.47 312.422 20.4859C312.095 20.4918 311.517 20.6668 311.137 20.8751ZM313.856 21.6883C314.783 22.615 314.889 23.6077 314.166 24.5814C312.82 26.3915 309.926 25.5956 309.926 23.4157C309.926 21.5911 312.589 20.4209 313.856 21.6883ZM311.357 23.4794C311.382 24.3956 311.471 24.7952 311.554 24.3669C311.739 23.4026 312.228 23.359 312.52 24.2805C312.891 25.4486 313.256 25.0501 313.233 23.5022C313.214 22.1618 313.128 22.0224 312.261 21.9228C311.334 21.8159 311.311 21.8564 311.357 23.4794ZM312.867 22.5534C312.986 22.745 312.833 22.9979 312.527 23.1151C311.865 23.369 311.496 23.0892 311.814 22.5741C312.101 22.1092 312.587 22.0999 312.867 22.5534ZM233.615 26.4354C236.947 27.4309 239.263 31.3762 238.933 35.4935C238.544 40.3385 235.357 43.3731 230.681 43.3509C227.577 43.3361 225.161 41.7902 223.58 38.8082C222.603 36.966 222.678 32.2116 223.714 30.2628C225.559 26.7907 229.59 25.2327 233.615 26.4354ZM267.614 26.9096C268.388 27.4852 268.612 27.9549 268.693 29.1691C268.779 30.4503 268.647 30.8422 267.888 31.5558C267.089 32.306 266.608 32.4236 263.894 32.5298L260.808 32.6509V29.295V25.9391L263.723 26.0608C266.016 26.157 266.847 26.3379 267.614 26.9096Z" fill="white"/>
<path fill-rule="evenodd" clip-rule="evenodd" d="M28.0833 1.20946C24.7392 1.96456 22.6115 2.71481 19.6077 4.19802C11.9547 7.97698 5.60849 14.9887 2.78941 22.7797C1.13947 27.339 0.650024 30.1208 0.650024 34.9388C0.650024 44.0892 3.81362 52.0601 10.0274 58.5665C14.3978 63.1424 19.2359 66.1078 25.45 68.0196C28.3746 68.9196 28.9508 68.9774 34.9622 68.9774C40.9698 68.9774 41.5509 68.9189 44.462 68.0224C59.5405 63.3787 69.2595 50.4119 69.2595 34.9388C69.2595 21.7856 61.9894 9.95864 50.3627 4.19769C45.307 1.69234 42.1625 0.963518 35.827 0.828271C31.8792 0.744217 29.6592 0.853529 28.0833 1.20946ZM41.4651 10.7611C47.9819 12.4055 53.9417 17.2308 57.2641 23.5532C60.8642 30.4041 60.8642 39.4736 57.2641 46.3244C50.6688 58.875 35.617 63.5741 23.0875 56.9947C19.2272 54.9678 14.9433 50.6935 12.9333 46.8637C7.23872 36.0132 9.82535 23.0547 19.192 15.5089C25.5676 10.3723 33.3503 8.71374 41.4651 10.7611ZM50.1818 23.5528C48.1842 24.8662 46.425 25.9831 46.2728 26.0354C46.1202 26.0876 46.4315 27.0616 46.9646 28.1996C47.8065 29.998 47.9314 30.677 47.9186 33.3823C47.9002 37.1788 47.1617 39.2601 44.6478 42.5988C42.7135 45.1677 38.8799 48.2777 35.9999 49.6146C33.7426 50.6623 34.3939 50.7817 37.1653 49.828C44.1244 47.4337 48.5692 42.5697 50.0092 35.7731C50.2876 34.4583 50.5184 33.0322 50.5218 32.604C50.5277 31.842 50.6114 31.8257 54.5439 31.8257H58.5605L58.3177 30.5286C57.6819 27.1332 55.15 21.4885 54.1545 21.2474C53.967 21.2021 52.1794 22.2395 50.1818 23.5528ZM51.7961 33.44C51.6692 33.5666 51.5654 34.1228 51.5654 34.6759C51.5654 35.229 51.1763 36.8406 50.701 38.2567C49.2856 42.4728 47.0535 45.5804 43.738 47.9515C37.7938 52.2023 29.8813 53.3597 22.6828 51.0314C22.3023 50.9083 22.5358 51.1248 23.2016 51.5122C25.1141 52.6253 28.5299 53.5838 31.4527 53.8277C38.7128 54.4333 46.5329 50.5901 50.3551 44.5382C50.9258 43.6347 51.5177 42.8955 51.6709 42.8952C51.8241 42.8948 52.8867 43.531 54.0324 44.3092C55.178 45.0872 56.1914 45.6478 56.2841 45.5548C57.307 44.532 59.2461 35.1405 58.7183 33.7652C58.5436 33.3093 57.9216 33.2093 55.2658 33.2093C53.4841 33.2093 51.9227 33.3131 51.7961 33.44ZM50.7155 46.3331C46.0479 52.6914 37.9622 56.1134 30.1777 55.0242C24.717 54.2604 19.3711 51.5278 15.6593 47.6032C14.6711 46.5583 13.8623 45.8125 13.8623 45.9464C13.8623 46.5583 16.5977 50.1746 18.4023 51.9484C25.4009 58.8283 36.2483 60.6173 45.1932 56.3673C48.8432 54.6329 52.6833 51.2974 54.8321 47.9948C55.5626 46.872 55.3613 46.5188 53.3468 45.3867L51.976 44.616L50.7155 46.3331Z" fill="#E52A15"/>
</svg>
