<svg width="332" height="68" viewBox="0 0 332 68" fill="none" xmlns="http://www.w3.org/2000/svg">
<path d="M42.0754 67.704H11.8672C9.00263 67.704 6.91931 65.6284 7.70055 62.515L13.4297 47.7264C13.6901 45.6508 15.513 44.3535 17.3359 44.3535H36.3463C38.4296 44.3535 39.9921 45.6508 40.5129 47.7264L46.2421 62.515C47.0233 65.6284 44.94 67.704 42.0754 67.704Z" fill="#122861"/>
<path d="M7.70291 31.3812H46.2444C48.5882 31.3812 50.4111 33.1974 50.4111 35.273C50.4111 37.3486 48.5882 39.1647 46.2444 39.1647H7.70291C5.35917 39.1647 3.53625 37.3486 3.53625 35.273C3.53625 33.1974 5.35917 31.3812 7.70291 31.3812Z" fill="#122861"/>
<path d="M29.577 25.1544C29.577 20.7438 30.0979 17.371 31.3999 14.7765C32.9624 9.84692 36.8687 4.39849 39.4728 2.32289C42.077 -0.0121494 45.9832 -1.04995 49.8895 1.80399C54.0561 4.39849 53.7957 11.1442 50.1499 13.2198C46.7645 15.2954 42.8582 16.3332 37.9103 19.4466C35.5666 21.0033 33.4833 23.0788 31.3999 25.4139C30.6187 26.7111 29.577 26.1922 29.577 25.1544Z" fill="#122861"/>
<path d="M24.3687 25.1543C24.3687 20.7437 23.8479 17.3708 22.5458 14.7763C20.9833 9.8468 17.0771 4.39837 14.4729 2.32277C11.8688 -0.0122715 7.96253 -1.05007 4.05629 1.80387C-0.110358 4.39837 0.150056 11.1441 3.53546 13.2196C6.92086 15.2952 10.8271 16.333 15.775 19.4464C18.1187 21.0031 20.2021 23.0787 22.2854 25.4138C23.3271 26.711 24.3687 26.1921 24.3687 25.1543Z" fill="#122861"/>
<path d="M154.833 25.4141C155.614 26.1924 155.875 26.9708 155.875 28.268V54.7318C155.875 55.7696 155.614 56.8074 154.833 57.3263C154.052 58.1047 153.27 58.3641 152.229 58.3641C151.187 58.3641 150.145 58.1047 149.625 57.3263C148.843 56.548 148.583 55.7696 148.583 54.7318C147.541 56.0291 146.239 57.0669 144.416 57.8452C142.593 58.6236 140.77 59.1425 138.948 59.1425C136.083 59.1425 133.479 58.3641 131.135 56.8074C128.791 55.2507 126.968 53.1751 125.666 50.5807C124.364 47.9862 123.583 44.8728 123.583 41.7594C123.583 38.3865 124.364 35.5326 125.666 32.6786C126.968 30.0842 128.791 28.0086 131.135 26.4519C133.479 24.8952 136.083 24.1168 138.687 24.1168C140.77 24.1168 142.593 24.3763 144.156 25.1546C145.979 25.933 147.281 26.7113 148.583 28.0086C148.583 26.9708 148.843 25.933 149.625 25.4141C150.406 24.6357 151.187 24.3763 152.229 24.3763C153.27 24.3763 154.312 24.8952 154.833 25.4141ZM146.239 49.2834C148.062 47.2078 148.843 44.8728 148.843 41.7594C148.843 38.646 148.062 36.3109 146.239 34.2353C144.416 32.1597 142.333 31.122 139.729 31.122C137.125 31.122 134.781 32.1597 133.218 34.2353C131.395 36.3109 130.614 38.646 130.614 41.7594C130.614 44.8728 131.395 47.2078 133.218 49.2834C134.781 51.359 137.125 52.1373 139.729 52.1373C142.333 52.1373 144.677 51.0996 146.239 49.2834Z" fill="#122861"/>
<path d="M193.631 13.9982C194.412 14.7766 194.673 15.5549 194.673 16.5927V54.7318C194.673 55.7696 194.412 56.8074 193.631 57.3263C192.85 58.1046 192.068 58.3641 191.027 58.3641C189.985 58.3641 188.943 58.1046 188.423 57.3263C187.641 56.5479 187.381 55.7696 187.381 54.7318C186.339 56.029 185.037 57.0668 183.214 57.8452C181.391 58.6235 179.568 59.1424 177.746 59.1424C174.881 59.1424 172.277 58.3641 169.933 57.0668C167.589 55.5101 165.766 53.694 164.464 51.0995C163.162 48.505 162.381 45.651 162.381 42.2782C162.381 38.9054 163.162 36.0514 164.464 33.4569C165.766 30.8624 167.589 28.7868 169.933 27.4896C172.277 25.9329 174.881 25.414 177.485 25.414C179.568 25.414 181.391 25.6734 182.954 26.4518C184.777 27.2301 186.079 28.0085 187.381 29.3057V17.1116C187.381 16.0738 187.641 15.036 188.423 14.5171C189.204 13.7388 189.985 13.4793 191.027 13.4793C192.068 12.9604 193.11 13.2199 193.631 13.9982ZM185.037 49.5428C186.86 47.4672 187.641 45.1321 187.641 42.2782C187.641 39.4243 186.86 36.8298 185.037 35.0136C183.214 32.938 181.131 32.1597 178.527 32.1597C175.923 32.1597 173.579 33.1975 172.016 35.0136C170.193 37.0892 169.412 39.4243 169.412 42.2782C169.412 45.1321 170.193 47.7266 172.016 49.5428C173.579 51.6184 175.923 52.3967 178.527 52.3967C181.131 52.3967 183.475 51.3589 185.037 49.5428Z" fill="#122861"/>
<path d="M231.917 25.4141C232.698 26.1924 232.959 26.9708 232.959 28.268V54.7318C232.959 55.7696 232.698 56.8074 231.917 57.3263C231.136 58.1047 230.355 58.3641 229.313 58.3641C228.271 58.3641 227.23 58.1047 226.709 57.3263C225.928 56.548 225.667 55.7696 225.667 54.7318C224.626 56.0291 223.324 57.0669 221.501 57.8452C219.678 58.6236 217.855 59.1425 216.032 59.1425C213.167 59.1425 210.563 58.3641 208.219 56.8074C205.876 55.2507 204.053 53.1751 202.751 50.5807C201.449 47.9862 200.667 44.8728 200.667 41.7594C200.667 38.3865 201.449 35.5326 202.751 32.6786C204.053 30.0842 205.876 28.0086 208.219 26.4519C210.563 24.8952 213.167 24.1168 215.771 24.1168C217.855 24.1168 219.678 24.3763 221.24 25.1546C223.063 25.933 224.365 26.7113 225.667 28.0086C225.667 26.9708 225.928 25.933 226.709 25.4141C227.49 24.6357 228.271 24.3763 229.313 24.3763C230.355 24.3763 231.136 24.8952 231.917 25.4141ZM223.323 49.2834C225.146 47.2078 225.928 44.8728 225.928 41.7594C225.928 38.646 225.146 36.3109 223.323 34.2353C221.501 32.1597 219.417 31.122 216.813 31.122C214.209 31.122 211.865 32.1597 210.303 34.2353C208.48 36.3109 207.699 38.646 207.699 41.7594C207.699 44.8728 208.48 47.2078 210.303 49.2834C211.865 51.359 214.209 52.1373 216.813 52.1373C219.417 52.1373 221.501 51.0996 223.323 49.2834Z" fill="#122861"/>
<path d="M264.204 27.2298C266.548 28.7864 268.371 30.6026 269.673 33.1971C270.975 35.7916 271.756 38.6455 271.756 42.0184C271.756 45.3912 270.975 48.2451 269.673 50.8396C268.371 53.4341 266.548 55.5097 264.204 56.807C261.861 58.3637 259.256 58.8826 256.652 58.8826C254.569 58.8826 252.746 58.3637 250.923 57.5853C249.1 56.807 247.798 55.7692 246.496 54.7314V54.9908C246.496 56.0286 246.236 57.0664 245.454 57.5853C244.673 58.3637 243.892 58.6231 242.85 58.6231C241.809 58.6231 240.767 58.3637 240.246 57.5853C239.465 56.807 239.204 56.0286 239.204 54.9908V16.8518C239.204 15.814 239.465 14.7762 240.246 14.2573C241.027 13.4789 241.809 13.2195 242.85 13.2195C243.892 13.2195 244.934 13.4789 245.454 14.2573C246.236 15.0356 246.496 15.814 246.496 16.8518V29.8242C247.538 28.527 248.84 27.4892 250.663 26.7108C252.486 25.6731 254.309 25.4136 256.132 25.4136C259.517 24.8947 262.121 25.6731 264.204 27.2298ZM262.121 49.5424C263.944 47.4668 264.725 45.1318 264.725 42.2778C264.725 39.4239 263.944 36.8294 262.121 35.0132C260.559 32.9376 258.215 32.1593 255.611 32.1593C253.006 32.1593 250.663 33.1971 249.1 35.0132C247.277 37.0888 246.496 39.4239 246.496 42.2778C246.496 45.1318 247.277 47.7262 249.1 49.5424C250.923 51.618 253.006 52.3963 255.611 52.3963C258.215 52.3963 260.559 51.3585 262.121 49.5424Z" fill="#122861"/>
<path d="M330.613 25.4141C331.394 26.1924 331.655 26.9708 331.655 28.268V54.7318C331.655 55.7696 331.394 56.8074 330.613 57.3263C329.832 58.1047 329.051 58.3641 328.009 58.3641C326.967 58.3641 325.926 58.1047 325.405 57.3263C324.624 56.548 324.363 55.7696 324.363 54.7318C323.322 56.0291 322.019 57.0669 320.197 57.8452C318.374 58.6236 316.551 59.1425 314.728 59.1425C311.863 59.1425 309.259 58.3641 306.915 56.8074C304.572 55.2507 302.749 53.1751 301.447 50.5807C300.145 47.9862 299.363 44.8728 299.363 41.7594C299.363 38.3865 300.145 35.5326 301.447 32.6786C302.749 30.0842 304.572 28.0086 306.915 26.4519C309.259 24.8952 311.863 24.1168 314.467 24.1168C316.551 24.1168 318.374 24.3763 319.936 25.1546C321.759 25.933 323.061 26.7113 324.363 28.0086C324.363 26.9708 324.624 25.933 325.405 25.4141C326.186 24.6357 326.967 24.3763 328.009 24.3763C329.051 24.3763 330.092 24.8952 330.613 25.4141ZM322.019 49.2834C323.842 47.2078 324.624 44.8728 324.624 41.7594C324.624 38.646 323.842 36.3109 322.019 34.2353C320.197 32.1597 318.113 31.122 315.509 31.122C312.905 31.122 310.561 32.1597 308.999 34.2353C307.176 36.3109 306.395 38.646 306.395 41.7594C306.395 44.8728 307.176 47.2078 308.999 49.2834C310.561 51.359 312.905 52.1373 315.509 52.1373C318.113 52.1373 320.457 51.0996 322.019 49.2834Z" fill="#122861"/>
<path d="M287.385 35.2734C286.343 34.2356 285.822 32.9383 285.822 31.6411C285.822 30.0844 286.343 28.7871 287.385 28.0088C288.426 26.971 289.728 26.7115 291.03 26.7115C292.593 26.7115 293.635 27.2304 294.676 28.0088C295.718 29.0466 296.239 30.0844 296.239 31.6411C296.239 33.1978 295.718 34.495 294.676 35.2734C293.635 36.3112 292.333 36.8301 291.03 36.8301C289.728 36.8301 288.426 36.3112 287.385 35.2734Z" fill="#122861"/>
<path d="M286.08 30.0848V55.5108C286.08 56.5486 285.82 57.5864 285.038 58.1053C284.257 58.8837 283.476 59.1431 282.434 59.1431C281.393 59.1431 280.351 58.8837 279.83 58.1053C279.049 57.327 278.789 56.5486 278.789 55.5108V33.1982C277.747 33.1982 276.966 32.9388 276.184 32.1604C275.403 31.3821 275.143 30.6037 275.143 29.8254C275.143 28.7876 275.403 28.0092 276.184 27.4903C276.705 26.9714 277.747 26.712 278.528 26.4525H278.789H282.174H282.695C283.736 26.4525 284.518 26.712 285.299 27.4903C285.82 28.0092 286.08 29.047 286.08 30.0848Z" fill="#122861"/>
<path d="M116.291 46.1694C117.853 47.7261 118.114 50.0611 116.551 51.6178C112.384 56.2879 106.395 59.1419 99.6241 59.1419C87.1242 59.1419 76.7075 49.0233 76.7075 36.5698C76.7075 24.1162 86.8637 13.9977 99.6241 13.9977C106.395 13.9977 112.384 16.8516 116.551 21.5217C118.114 23.0784 117.853 25.6729 116.291 26.9701C114.728 28.5268 112.124 28.2674 110.822 26.7107C107.957 23.5973 104.051 21.7812 99.6241 21.7812C91.2908 21.7812 84.52 28.5268 84.52 36.5698C84.52 44.8722 91.2908 51.3584 99.6241 51.3584C104.051 51.3584 107.957 49.5422 110.822 46.4289C112.124 44.8722 114.728 44.8722 116.291 46.1694Z" fill="#122861"/>
</svg>
