<svg width="60" height="52" viewBox="0 0 60 52" fill="none" xmlns="http://www.w3.org/2000/svg">
<path d="M38.454 2.14039C38.9453 2.42305 42.4552 4.49452 43.6642 7.51875C44.9729 10.7879 42.3375 12.0366 42.3086 14.6992C42.2388 20.869 56.2646 24.8849 59.3405 31.9416C62.8361 39.9598 52.0658 51.5844 35.7872 51.4822C24.327 51.4121 10.081 45.5277 3.51202 35.9889C-3.55883 25.7228 1.89769 16.4982 3.92317 13.0745C5.09676 11.0893 8.46814 6.12576 16.0137 3.01229C18.1169 2.14575 29.972 -2.74768 38.454 2.14039Z" fill="white"/>
<path d="M38.454 2.14039C38.9453 2.42305 42.4552 4.49452 43.6642 7.51875C44.9729 10.7879 42.3375 12.0366 42.3086 14.6992C42.2388 20.869 56.2646 24.8849 59.3405 31.9416C62.8361 39.9598 52.0658 51.5844 35.7872 51.4822C24.327 51.4121 10.081 45.5277 3.51202 35.9889C-3.55883 25.7228 1.89769 16.4982 3.92317 13.0745C5.09676 11.0893 8.46814 6.12576 16.0137 3.01229C18.1169 2.14575 29.972 -2.74768 38.454 2.14039Z" fill="#3AFFDC" fill-opacity="0.6"/>
<path fill-rule="evenodd" clip-rule="evenodd" d="M30.2585 0.0883036C23.1674 0.836148 17.1204 5.75987 14.9316 12.5679C13.8768 15.8488 13.8079 19.4751 14.7353 22.9128C15.1137 24.316 15.9616 26.2695 16.6803 27.394C16.8426 27.648 16.9738 27.9043 16.9721 27.9635C16.9703 28.0228 15.398 30.358 13.478 33.1527C13.058 33.764 12.6554 34.3517 12.2826 34.897C11.4259 36.15 12.4988 37.8028 13.9909 37.5247C16.1787 37.117 17.9961 36.8141 18.0293 36.8517C18.0626 36.8893 18.4147 38.6744 18.8115 40.8187C19.2816 43.3581 20.3812 43.6522 21.8439 41.5238C22.1599 41.0639 22.5192 40.5398 22.9277 39.9426C24.724 37.3164 26.1998 35.1606 26.2074 35.1518C26.2148 35.1431 26.6146 35.2529 27.0956 35.3959C28.886 35.9282 29.7668 36.041 32.1319 36.041C33.9803 36.041 34.4188 36.0142 35.2888 35.848C36.1435 35.6848 37.4277 35.3556 37.9143 35.1753C38.0102 35.1398 38.9163 36.3983 41.2697 39.8362C41.6554 40.3995 42.035 40.9506 42.3931 41.4682C43.5766 43.1789 45.0726 42.8641 45.451 40.8187C45.8478 38.6744 46.201 36.8882 46.236 36.8493C46.2712 36.8104 48.0894 37.1126 50.2767 37.5207C51.7657 37.7986 52.8375 36.1481 51.9823 34.898C51.6092 34.3525 51.2062 33.7645 50.7859 33.1527C48.8659 30.358 47.2936 28.0228 47.2918 27.9635C47.2901 27.9043 47.4213 27.648 47.5836 27.394C48.3878 26.1357 49.1767 24.2519 49.6093 22.5572C51.6821 14.4372 47.9762 6.06475 40.5426 2.074C37.5801 0.483603 33.6695 -0.271513 30.2585 0.0883036ZM34.7804 2.87853C42.3028 4.1693 47.8175 10.9589 47.5218 18.5656C47.3677 22.5303 45.911 25.9491 43.1783 28.7597C40.1736 31.8498 36.3816 33.4557 32.0881 33.4561C27.9989 33.4564 24.2356 31.8944 21.2843 28.9717C17.1243 24.8521 15.664 18.7661 17.4996 13.1986C17.8701 12.0748 18.8779 10.0893 19.556 9.14742C22.1732 5.51237 26.099 3.22406 30.5988 2.71093C31.6123 2.59537 33.5925 2.67475 34.7804 2.87853ZM34.2561 16.6603L28.891 22.0254L26.7441 19.8799L25.5174 18.6539C25.0092 18.1461 24.1855 18.1462 23.6774 18.6542C23.1695 19.1622 23.1696 19.9858 23.6776 20.4937L25.8462 22.6617L28.9349 25.7494L35.2212 19.4626L40.5659 14.1175C41.0857 13.5976 41.085 12.7546 40.5644 12.2355C40.0432 11.716 39.1998 11.7166 38.6794 12.237L34.2561 16.6603ZM19.6036 31.0372C20.6033 31.9967 21.9605 33.0304 22.9872 33.6144C23.3881 33.8423 23.7065 34.0609 23.695 34.1001C23.6349 34.3028 21.0411 37.9963 20.9951 37.9445C20.9654 37.9111 20.7696 36.9474 20.5602 35.803C20.2625 34.1764 20.1507 33.7222 20.0475 33.7222C19.9337 33.7222 16.4264 34.3598 15.9847 34.4608C15.8976 34.4807 15.8403 34.4551 15.8574 34.4039C15.8974 34.2837 18.673 30.2221 18.7168 30.2196C18.735 30.2187 19.1341 30.5865 19.6036 31.0372ZM46.9778 32.2662C47.7465 33.3908 48.3895 34.3527 48.4065 34.4039C48.4236 34.4551 48.3663 34.4797 48.2792 34.4587C47.8866 34.364 44.3571 33.7222 44.2284 33.7222C44.1096 33.7222 44.018 34.0853 43.7037 35.803C43.4943 36.9474 43.2985 37.9111 43.2688 37.9445C43.2228 37.9963 40.629 34.3028 40.5689 34.1001C40.5574 34.0609 40.8853 33.8369 41.2978 33.6022C42.362 32.9967 43.6259 32.0324 44.6293 31.0604C45.104 30.6005 45.5123 30.2235 45.5364 30.2228C45.5605 30.2221 46.2091 31.1416 46.9778 32.2662Z" fill="#262961"/>
</svg>
