<svg width="60" height="56" viewBox="0 0 60 56" fill="none" xmlns="http://www.w3.org/2000/svg">
<path d="M57.0561 11.7052C57.3843 12.2004 59.6963 15.7818 59.0505 18.9237C58.3543 22.321 54.8685 21.9478 53.1771 24.1314C49.2549 29.1897 61.1532 39.981 59.9082 47.4482C58.494 55.9331 40.178 59.7938 23.5235 51.0342C11.7974 44.8688 0.838997 32.417 0.0457355 21.0383C-0.809148 8.79162 10.5518 4.08113 14.7687 2.33301C17.2129 1.31894 23.7731 -0.983625 33.4656 0.466273C36.1664 0.871488 51.3957 3.148 57.0561 11.7052Z" fill="white"/>
<path d="M57.0561 11.7052C57.3843 12.2004 59.6963 15.7818 59.0505 18.9237C58.3543 22.321 54.8685 21.9478 53.1771 24.1314C49.2549 29.1897 61.1532 39.981 59.9082 47.4482C58.494 55.9331 40.178 59.7938 23.5235 51.0342C11.7974 44.8688 0.838997 32.417 0.0457355 21.0383C-0.809148 8.79162 10.5518 4.08113 14.7687 2.33301C17.2129 1.31894 23.7731 -0.983625 33.4656 0.466273C36.1664 0.871488 51.3957 3.148 57.0561 11.7052Z" fill="#3AFFDC" fill-opacity="0.6"/>
<mask id="path-2-outside-1_17_3107" maskUnits="userSpaceOnUse" x="6.8374" y="14.249" width="51" height="33" fill="black">
<rect fill="white" x="6.8374" y="14.249" width="51" height="33"/>
<path fill-rule="evenodd" clip-rule="evenodd" d="M31.6916 15.2816C30.7671 15.3651 29.6699 15.7154 28.8381 16.1926C28.0729 16.6316 26.7903 17.8885 26.3484 18.6324C25.0546 20.8107 25.041 23.7032 26.3145 25.8332C26.7707 26.5961 27.6693 27.5752 28.2989 27.9955C28.6152 28.2065 28.7338 28.3338 28.6436 28.3651C27.8502 28.6401 27.1576 28.9182 26.7225 29.1362C26.0828 29.4566 24.6852 30.3595 24.5159 30.5616C24.4484 30.6423 24.3577 30.7083 24.3144 30.7083C24.2712 30.7083 23.9016 30.4706 23.493 30.1802C22.85 29.7229 21.7864 29.1532 21.2079 28.956C21.0573 28.9047 21.1385 28.7812 21.7375 28.1502C23.1686 26.6426 23.6604 24.8539 23.1682 22.9464C21.9673 18.2936 15.7745 17.2213 13.0884 21.2011C12.4199 22.1915 12.1522 23.0715 12.1541 24.2721C12.1566 25.8982 12.7372 27.2498 13.8939 28.3225L14.4846 28.8703L13.942 29.0879C12.7542 29.5643 11.8897 30.1548 10.8018 31.233C8.92585 33.092 8.03302 35.0768 7.896 37.6927C7.86414 38.3018 8.34941 38.8131 8.95931 38.8131H13.8134H19.7896L19.7356 40.0765C19.6721 41.5634 19.8175 42.4239 20.2948 43.387C20.7122 44.229 21.7668 45.2686 22.5942 45.6537C23.8056 46.2174 23.5405 46.2028 32.5472 46.2028H40.8222L41.5073 45.9893C42.7742 45.5944 44.0391 44.5359 44.6299 43.3761C45.1025 42.4483 45.2266 41.7206 45.1762 40.1719L45.132 38.8131H51.146H56.0859C56.6699 38.8131 57.1347 38.3236 57.1044 37.7404C56.9994 35.7174 56.4558 34.1404 55.2816 32.4522C54.3398 31.098 52.5824 29.6805 51.1571 29.1254L50.5229 28.8784L51.2094 28.1891C52.3225 27.0717 52.8384 25.8151 52.837 24.2245C52.835 21.8671 51.312 19.7991 49.0009 19.0155C48.0383 18.6892 46.6521 18.6495 45.7294 18.922C43.7955 19.493 42.2371 21.1074 41.7848 23.0083C41.3448 24.8572 41.8753 26.7131 43.253 28.146L43.9523 28.8733L43.4199 29.0874C42.7677 29.3497 41.7333 29.9544 41.1798 30.3968C40.9531 30.578 40.7139 30.7058 40.6481 30.6808C40.5824 30.6559 40.1997 30.4016 39.7977 30.1157C38.9547 29.5163 37.5953 28.805 36.829 28.5621C36.538 28.4699 36.264 28.3741 36.2201 28.3493C36.1764 28.3244 36.3531 28.1622 36.613 27.9888C37.2337 27.5745 38.134 26.5918 38.5876 25.8332C39.8497 23.7222 39.8481 20.8541 38.5836 18.6895C38.1224 17.9 36.8606 16.6496 36.0639 16.1926C34.7874 15.4603 33.2526 15.1405 31.6916 15.2816ZM33.776 16.9368C35.7643 17.4474 37.3753 19.0567 37.8358 20.9923C38.4787 23.6953 36.9627 26.4542 34.2792 27.4646C33.4873 27.7627 32.0169 27.8355 31.1515 27.6192C30.0727 27.3498 29.3475 26.9369 28.5541 26.1406C27.3799 24.9623 26.898 23.8362 26.9046 22.287C26.9115 20.6759 27.3811 19.5671 28.5508 18.3999C29.3266 17.6257 30.1435 17.1494 31.082 16.9241C31.7914 16.7537 33.0869 16.7598 33.776 16.9368ZM18.8359 20.4322C21.1703 21.1231 22.3951 23.7349 21.3974 25.8943C20.6306 27.5545 18.8705 28.5185 17.1174 28.2387C14.9137 27.8871 13.3623 25.8105 13.7172 23.6877C14.1209 21.2737 16.5213 19.747 18.8359 20.4322ZM48.3755 20.4322C50.7052 21.1217 51.9327 23.7392 50.937 25.8943C50.1689 27.5571 48.4104 28.5186 46.6506 28.2377C44.8757 27.9545 43.5552 26.6409 43.2579 24.8631C43.0031 23.3394 43.7378 21.7559 45.102 20.8884C46.0402 20.2918 47.3056 20.1154 48.3755 20.4322ZM34.4529 29.5158C35.515 29.7172 36.531 30.0736 37.5947 30.6181C40.3653 32.0362 42.4101 34.565 43.2245 37.5806C43.4846 38.5436 43.7057 40.6191 43.6143 41.2393C43.3884 42.772 42.7035 43.7522 41.452 44.3338L40.9184 44.5818H32.451H23.9836L23.3792 44.3052C22.6085 43.9525 21.8274 43.1402 21.5169 42.3683C21.3187 41.8756 21.2961 41.6689 21.3052 40.4341C21.3118 39.5367 21.3725 38.7837 21.4781 38.2887C22.4465 33.7486 25.839 30.4221 30.4304 29.5107C31.2765 29.3428 33.5554 29.3456 34.4529 29.5158ZM19.844 30.1372C20.7206 30.3698 21.6971 30.8307 22.5097 31.3956C22.8176 31.6096 23.0695 31.7978 23.0695 31.8137C23.0695 31.8296 22.861 32.0916 22.6062 32.3958C21.6177 33.5763 20.9055 34.8478 20.3735 36.3817L20.1091 37.1445L14.7923 37.1692L9.47546 37.1938L9.53271 36.7154C9.56407 36.4523 9.71764 35.8697 9.87381 35.4207C10.8223 32.6937 13.1469 30.6629 16.0455 30.0292C17.1082 29.7968 18.7354 29.8431 19.844 30.1372ZM49.4689 30.1801C51.8009 30.8571 53.6262 32.3551 54.7021 34.4747C55.0339 35.1282 55.3436 36.0775 55.4409 36.7392L55.5076 37.1921H50.1315H44.7555L44.6361 36.7306C44.3386 35.5805 43.3316 33.7169 42.3541 32.5078L41.8432 31.8758L42.0544 31.6835C42.8282 30.9789 44.4456 30.2401 45.7519 29.9946C46.8451 29.7891 48.3873 29.8661 49.4689 30.1801Z"/>
</mask>
<path fill-rule="evenodd" clip-rule="evenodd" d="M31.6916 15.2816C30.7671 15.3651 29.6699 15.7154 28.8381 16.1926C28.0729 16.6316 26.7903 17.8885 26.3484 18.6324C25.0546 20.8107 25.041 23.7032 26.3145 25.8332C26.7707 26.5961 27.6693 27.5752 28.2989 27.9955C28.6152 28.2065 28.7338 28.3338 28.6436 28.3651C27.8502 28.6401 27.1576 28.9182 26.7225 29.1362C26.0828 29.4566 24.6852 30.3595 24.5159 30.5616C24.4484 30.6423 24.3577 30.7083 24.3144 30.7083C24.2712 30.7083 23.9016 30.4706 23.493 30.1802C22.85 29.7229 21.7864 29.1532 21.2079 28.956C21.0573 28.9047 21.1385 28.7812 21.7375 28.1502C23.1686 26.6426 23.6604 24.8539 23.1682 22.9464C21.9673 18.2936 15.7745 17.2213 13.0884 21.2011C12.4199 22.1915 12.1522 23.0715 12.1541 24.2721C12.1566 25.8982 12.7372 27.2498 13.8939 28.3225L14.4846 28.8703L13.942 29.0879C12.7542 29.5643 11.8897 30.1548 10.8018 31.233C8.92585 33.092 8.03302 35.0768 7.896 37.6927C7.86414 38.3018 8.34941 38.8131 8.95931 38.8131H13.8134H19.7896L19.7356 40.0765C19.6721 41.5634 19.8175 42.4239 20.2948 43.387C20.7122 44.229 21.7668 45.2686 22.5942 45.6537C23.8056 46.2174 23.5405 46.2028 32.5472 46.2028H40.8222L41.5073 45.9893C42.7742 45.5944 44.0391 44.5359 44.6299 43.3761C45.1025 42.4483 45.2266 41.7206 45.1762 40.1719L45.132 38.8131H51.146H56.0859C56.6699 38.8131 57.1347 38.3236 57.1044 37.7404C56.9994 35.7174 56.4558 34.1404 55.2816 32.4522C54.3398 31.098 52.5824 29.6805 51.1571 29.1254L50.5229 28.8784L51.2094 28.1891C52.3225 27.0717 52.8384 25.8151 52.837 24.2245C52.835 21.8671 51.312 19.7991 49.0009 19.0155C48.0383 18.6892 46.6521 18.6495 45.7294 18.922C43.7955 19.493 42.2371 21.1074 41.7848 23.0083C41.3448 24.8572 41.8753 26.7131 43.253 28.146L43.9523 28.8733L43.4199 29.0874C42.7677 29.3497 41.7333 29.9544 41.1798 30.3968C40.9531 30.578 40.7139 30.7058 40.6481 30.6808C40.5824 30.6559 40.1997 30.4016 39.7977 30.1157C38.9547 29.5163 37.5953 28.805 36.829 28.5621C36.538 28.4699 36.264 28.3741 36.2201 28.3493C36.1764 28.3244 36.3531 28.1622 36.613 27.9888C37.2337 27.5745 38.134 26.5918 38.5876 25.8332C39.8497 23.7222 39.8481 20.8541 38.5836 18.6895C38.1224 17.9 36.8606 16.6496 36.0639 16.1926C34.7874 15.4603 33.2526 15.1405 31.6916 15.2816ZM33.776 16.9368C35.7643 17.4474 37.3753 19.0567 37.8358 20.9923C38.4787 23.6953 36.9627 26.4542 34.2792 27.4646C33.4873 27.7627 32.0169 27.8355 31.1515 27.6192C30.0727 27.3498 29.3475 26.9369 28.5541 26.1406C27.3799 24.9623 26.898 23.8362 26.9046 22.287C26.9115 20.6759 27.3811 19.5671 28.5508 18.3999C29.3266 17.6257 30.1435 17.1494 31.082 16.9241C31.7914 16.7537 33.0869 16.7598 33.776 16.9368ZM18.8359 20.4322C21.1703 21.1231 22.3951 23.7349 21.3974 25.8943C20.6306 27.5545 18.8705 28.5185 17.1174 28.2387C14.9137 27.8871 13.3623 25.8105 13.7172 23.6877C14.1209 21.2737 16.5213 19.747 18.8359 20.4322ZM48.3755 20.4322C50.7052 21.1217 51.9327 23.7392 50.937 25.8943C50.1689 27.5571 48.4104 28.5186 46.6506 28.2377C44.8757 27.9545 43.5552 26.6409 43.2579 24.8631C43.0031 23.3394 43.7378 21.7559 45.102 20.8884C46.0402 20.2918 47.3056 20.1154 48.3755 20.4322ZM34.4529 29.5158C35.515 29.7172 36.531 30.0736 37.5947 30.6181C40.3653 32.0362 42.4101 34.565 43.2245 37.5806C43.4846 38.5436 43.7057 40.6191 43.6143 41.2393C43.3884 42.772 42.7035 43.7522 41.452 44.3338L40.9184 44.5818H32.451H23.9836L23.3792 44.3052C22.6085 43.9525 21.8274 43.1402 21.5169 42.3683C21.3187 41.8756 21.2961 41.6689 21.3052 40.4341C21.3118 39.5367 21.3725 38.7837 21.4781 38.2887C22.4465 33.7486 25.839 30.4221 30.4304 29.5107C31.2765 29.3428 33.5554 29.3456 34.4529 29.5158ZM19.844 30.1372C20.7206 30.3698 21.6971 30.8307 22.5097 31.3956C22.8176 31.6096 23.0695 31.7978 23.0695 31.8137C23.0695 31.8296 22.861 32.0916 22.6062 32.3958C21.6177 33.5763 20.9055 34.8478 20.3735 36.3817L20.1091 37.1445L14.7923 37.1692L9.47546 37.1938L9.53271 36.7154C9.56407 36.4523 9.71764 35.8697 9.87381 35.4207C10.8223 32.6937 13.1469 30.6629 16.0455 30.0292C17.1082 29.7968 18.7354 29.8431 19.844 30.1372ZM49.4689 30.1801C51.8009 30.8571 53.6262 32.3551 54.7021 34.4747C55.0339 35.1282 55.3436 36.0775 55.4409 36.7392L55.5076 37.1921H50.1315H44.7555L44.6361 36.7306C44.3386 35.5805 43.3316 33.7169 42.3541 32.5078L41.8432 31.8758L42.0544 31.6835C42.8282 30.9789 44.4456 30.2401 45.7519 29.9946C46.8451 29.7891 48.3873 29.8661 49.4689 30.1801Z" fill="#262961"/>
<path fill-rule="evenodd" clip-rule="evenodd" d="M31.6916 15.2816C30.7671 15.3651 29.6699 15.7154 28.8381 16.1926C28.0729 16.6316 26.7903 17.8885 26.3484 18.6324C25.0546 20.8107 25.041 23.7032 26.3145 25.8332C26.7707 26.5961 27.6693 27.5752 28.2989 27.9955C28.6152 28.2065 28.7338 28.3338 28.6436 28.3651C27.8502 28.6401 27.1576 28.9182 26.7225 29.1362C26.0828 29.4566 24.6852 30.3595 24.5159 30.5616C24.4484 30.6423 24.3577 30.7083 24.3144 30.7083C24.2712 30.7083 23.9016 30.4706 23.493 30.1802C22.85 29.7229 21.7864 29.1532 21.2079 28.956C21.0573 28.9047 21.1385 28.7812 21.7375 28.1502C23.1686 26.6426 23.6604 24.8539 23.1682 22.9464C21.9673 18.2936 15.7745 17.2213 13.0884 21.2011C12.4199 22.1915 12.1522 23.0715 12.1541 24.2721C12.1566 25.8982 12.7372 27.2498 13.8939 28.3225L14.4846 28.8703L13.942 29.0879C12.7542 29.5643 11.8897 30.1548 10.8018 31.233C8.92585 33.092 8.03302 35.0768 7.896 37.6927C7.86414 38.3018 8.34941 38.8131 8.95931 38.8131H13.8134H19.7896L19.7356 40.0765C19.6721 41.5634 19.8175 42.4239 20.2948 43.387C20.7122 44.229 21.7668 45.2686 22.5942 45.6537C23.8056 46.2174 23.5405 46.2028 32.5472 46.2028H40.8222L41.5073 45.9893C42.7742 45.5944 44.0391 44.5359 44.6299 43.3761C45.1025 42.4483 45.2266 41.7206 45.1762 40.1719L45.132 38.8131H51.146H56.0859C56.6699 38.8131 57.1347 38.3236 57.1044 37.7404C56.9994 35.7174 56.4558 34.1404 55.2816 32.4522C54.3398 31.098 52.5824 29.6805 51.1571 29.1254L50.5229 28.8784L51.2094 28.1891C52.3225 27.0717 52.8384 25.8151 52.837 24.2245C52.835 21.8671 51.312 19.7991 49.0009 19.0155C48.0383 18.6892 46.6521 18.6495 45.7294 18.922C43.7955 19.493 42.2371 21.1074 41.7848 23.0083C41.3448 24.8572 41.8753 26.7131 43.253 28.146L43.9523 28.8733L43.4199 29.0874C42.7677 29.3497 41.7333 29.9544 41.1798 30.3968C40.9531 30.578 40.7139 30.7058 40.6481 30.6808C40.5824 30.6559 40.1997 30.4016 39.7977 30.1157C38.9547 29.5163 37.5953 28.805 36.829 28.5621C36.538 28.4699 36.264 28.3741 36.2201 28.3493C36.1764 28.3244 36.3531 28.1622 36.613 27.9888C37.2337 27.5745 38.134 26.5918 38.5876 25.8332C39.8497 23.7222 39.8481 20.8541 38.5836 18.6895C38.1224 17.9 36.8606 16.6496 36.0639 16.1926C34.7874 15.4603 33.2526 15.1405 31.6916 15.2816ZM33.776 16.9368C35.7643 17.4474 37.3753 19.0567 37.8358 20.9923C38.4787 23.6953 36.9627 26.4542 34.2792 27.4646C33.4873 27.7627 32.0169 27.8355 31.1515 27.6192C30.0727 27.3498 29.3475 26.9369 28.5541 26.1406C27.3799 24.9623 26.898 23.8362 26.9046 22.287C26.9115 20.6759 27.3811 19.5671 28.5508 18.3999C29.3266 17.6257 30.1435 17.1494 31.082 16.9241C31.7914 16.7537 33.0869 16.7598 33.776 16.9368ZM18.8359 20.4322C21.1703 21.1231 22.3951 23.7349 21.3974 25.8943C20.6306 27.5545 18.8705 28.5185 17.1174 28.2387C14.9137 27.8871 13.3623 25.8105 13.7172 23.6877C14.1209 21.2737 16.5213 19.747 18.8359 20.4322ZM48.3755 20.4322C50.7052 21.1217 51.9327 23.7392 50.937 25.8943C50.1689 27.5571 48.4104 28.5186 46.6506 28.2377C44.8757 27.9545 43.5552 26.6409 43.2579 24.8631C43.0031 23.3394 43.7378 21.7559 45.102 20.8884C46.0402 20.2918 47.3056 20.1154 48.3755 20.4322ZM34.4529 29.5158C35.515 29.7172 36.531 30.0736 37.5947 30.6181C40.3653 32.0362 42.4101 34.565 43.2245 37.5806C43.4846 38.5436 43.7057 40.6191 43.6143 41.2393C43.3884 42.772 42.7035 43.7522 41.452 44.3338L40.9184 44.5818H32.451H23.9836L23.3792 44.3052C22.6085 43.9525 21.8274 43.1402 21.5169 42.3683C21.3187 41.8756 21.2961 41.6689 21.3052 40.4341C21.3118 39.5367 21.3725 38.7837 21.4781 38.2887C22.4465 33.7486 25.839 30.4221 30.4304 29.5107C31.2765 29.3428 33.5554 29.3456 34.4529 29.5158ZM19.844 30.1372C20.7206 30.3698 21.6971 30.8307 22.5097 31.3956C22.8176 31.6096 23.0695 31.7978 23.0695 31.8137C23.0695 31.8296 22.861 32.0916 22.6062 32.3958C21.6177 33.5763 20.9055 34.8478 20.3735 36.3817L20.1091 37.1445L14.7923 37.1692L9.47546 37.1938L9.53271 36.7154C9.56407 36.4523 9.71764 35.8697 9.87381 35.4207C10.8223 32.6937 13.1469 30.6629 16.0455 30.0292C17.1082 29.7968 18.7354 29.8431 19.844 30.1372ZM49.4689 30.1801C51.8009 30.8571 53.6262 32.3551 54.7021 34.4747C55.0339 35.1282 55.3436 36.0775 55.4409 36.7392L55.5076 37.1921H50.1315H44.7555L44.6361 36.7306C44.3386 35.5805 43.3316 33.7169 42.3541 32.5078L41.8432 31.8758L42.0544 31.6835C42.8282 30.9789 44.4456 30.2401 45.7519 29.9946C46.8451 29.7891 48.3873 29.8661 49.4689 30.1801Z" stroke="#262961" stroke-width="1.12086" mask="url(#path-2-outside-1_17_3107)"/>
</svg>
