<svg width="593" height="276" viewBox="0 0 593 276" fill="none" xmlns="http://www.w3.org/2000/svg">
<path d="M517.132 423.388L235.488 483.741C225.581 485.871 215.548 479.306 213.292 469.071L93.5225 -35.5473C91.1393 -45.5733 97.2273 -55.6031 107.135 -57.7325L388.778 -118.086C398.686 -120.216 408.718 -113.651 410.974 -103.416L530.703 401.03C533.127 411.229 527.039 421.258 517.132 423.388Z" fill="#2B2D60"/>
<path d="M500.908 408.827L243.516 463.964C234.451 465.912 225.385 459.687 223.126 450.182L110.651 -23.8892C108.393 -33.3941 113.931 -42.7583 122.829 -44.6705L380.22 -99.8072C389.285 -101.755 398.352 -95.5301 400.61 -86.0252L513.085 388.046C515.512 397.515 509.973 406.879 500.908 408.827Z" fill="#4FD6F1"/>
<path opacity="0.3" d="M137.127 89.4208L402.609 -86.5955L440.969 75.5955L173.214 241.299L137.127 89.4208Z" fill="white"/>
<path opacity="0.3" d="M188.954 315.099L454.462 139.058L492.824 301.275L231.861 462.782C231.861 462.782 230.171 463.15 225.548 458.653C222.146 455.343 221.111 450.452 221.111 450.452L188.954 315.099Z" fill="white"/>
<path d="M274.269 316.164C263.305 322.159 250.958 317.771 246.604 311.289C244.116 307.482 242.894 303.039 245.018 294.792L247.72 272.478L257.617 288.986L254.902 292.471C261.055 294.579 278.728 294.555 280.433 296.54C282.885 299.449 280.383 312.848 274.269 316.164ZM365.74 239.135C339.21 244.337 312.679 249.538 286.149 254.74C290.073 267.652 292.726 281.926 296.255 296.916C297.066 300.362 297.877 303.808 298.051 308.298L380.473 290.45L372.36 255.991L365.74 239.135ZM297.472 302.085C297.472 302.085 295.32 354.521 307.666 389.693L326.011 445.839L374.913 435.794L357.591 347.194L410.284 427.591L460.073 416.81C460.073 416.81 404.3 312.815 379.935 284.41C377.371 284.784 352.951 293.693 345.422 295.505C321.832 300.432 305.499 300.89 297.472 302.085ZM277.868 220.317L296.333 180.103L279.164 159.737L275.678 159.949L257.464 169.687C257.464 169.687 252.069 172.304 248.426 176.352C242.92 182.253 239.439 186.99 241.744 202.788L249.464 279.886L281.209 273.556L277.868 220.317ZM378.799 254.053C373.968 249.305 366.493 219.054 366.493 219.054L349.962 172.112L319.906 172.101L292.864 183.389L275.587 176.084L275.864 183.268L273.103 182.055L277.66 220.181L287.471 282.883C287.471 282.883 292.163 284.04 298.405 280.516C304.814 276.955 315.604 271.721 327.093 273.217C338.919 274.64 383.67 258.974 378.799 254.053ZM354.225 276.577L325.357 229.047C323.328 225.684 319.396 224.001 315.695 224.802L233.105 242.686C230.245 243.305 228.876 246.499 230.366 249.073L260.973 299.486C261.883 301.1 263.849 301.941 265.7 301.541L351.486 282.965C354.345 282.346 355.715 279.152 354.225 276.577ZM348.842 277.743L319.974 230.213C317.945 226.85 314.013 225.166 310.312 225.967L227.722 243.851C224.863 244.471 223.493 247.664 224.983 250.239L255.59 300.651C256.501 302.265 258.467 303.107 260.317 302.706L346.103 284.13C348.963 283.511 350.332 280.317 348.842 277.743ZM284.818 268.609C286.836 268.172 289.11 267.318 288.38 264.216C287.69 261.287 283.799 259.776 281.78 260.213C279.762 260.65 277.61 262.022 278.097 264.089C278.705 266.674 282.631 269.083 284.818 268.609ZM323.802 285.519L334.921 280.938L323.939 268.83C323.939 268.83 308.155 253.597 303.521 250.435C301.393 248.904 300.128 249.54 299.322 250.62C298.22 251.945 298.37 254.086 299.576 255.454C301.779 258.055 305.647 262.469 304.301 262.761C301.61 263.343 290.225 259.29 286.206 257.987C282.773 256.92 280.459 257.602 278.904 257.757C274.658 258.496 270.823 265.483 271.182 267.759C271.576 270.933 272.979 273.889 275.948 275.238C280.547 277.502 293.312 282.162 299.019 282.375C302.963 282.607 317.869 282.096 317.869 282.096L323.802 285.519ZM275.497 268.817C277.99 271.898 291.017 275.416 291.017 275.416L275.497 268.817ZM279.732 264.278C283.908 266.996 293.129 268.62 293.129 268.62L279.732 264.278ZM250.897 304.746C250.897 304.746 254.203 306.022 256.198 308.488C258.192 310.953 262.827 308.863 262.827 308.863C262.827 308.863 266.789 306.918 269.549 308.131C272.31 309.345 276.476 303.01 277.752 300.923C279.029 298.836 278.683 289.857 275.267 286.612C271.852 283.368 265.751 279.981 257.34 281.802C248.93 283.624 249.681 294.326 249.681 294.326C244.576 302.674 250.897 304.746 250.897 304.746ZM257.627 298.038C257.627 298.038 258.903 295.95 260.308 288.403L257.627 298.038ZM265.166 300.027C265.166 300.027 266.443 297.939 267.848 290.392L265.166 300.027ZM319.946 172.274L357.06 202.264L386.222 254.8C379.959 250.724 385.352 258.61 385.352 258.61L326.864 260.229C325.147 259.695 323.25 260.649 322.815 262.554L319.882 282.384C319.017 285.469 320.837 288.696 323.894 289.664L376.297 287.733C392.247 287.901 405.704 284.987 412.432 283.53C429.253 279.887 410.702 238.634 410.702 238.634C410.702 238.634 402.47 218.687 386.413 180.516C381.08 165.374 375.571 161.496 368.554 157.221C363.833 154.441 354.113 152.2 354.113 152.2L333.582 147.591L330.218 148.32L319.946 172.274ZM369.175 234.951L366.741 224.613L361.122 193.236L346.508 183.725L332.3 175.936L328.065 180.475L325.917 186.372L334.76 223.933L358.86 243.703L369.175 234.951ZM310.963 141.624L309.293 140.537L305.402 139.026L293.088 140.787C279.793 144.39 268.446 156.263 263.996 161.392C259.587 166.692 261.152 170.337 261.691 171.126C262.231 171.915 281.97 191.181 295.709 194.724C309.28 198.305 315.65 194.571 320.604 189.334C326.278 183.397 345.83 153.812 345.019 150.366C344.208 146.92 338.942 144.077 338.942 144.077C327.117 137.402 310.963 141.624 310.963 141.624L300.051 100.528C300.051 100.528 308.752 93.9359 306.127 86.5369C303.501 79.138 295.194 83.6529 294.486 88.1523L310.963 141.624ZM241.828 110.782C254.302 120.213 248.774 123.764 250.629 127.889C252.484 132.015 256.555 132.038 260.992 133.613C265.429 135.187 269.232 142.331 280.346 138.476C288.385 135.83 299.857 139.502 309.427 139.603C313.162 139.7 316.567 139.143 319.392 137.626C329.682 131.776 321.459 126.133 325.722 123.218C330.027 120.475 336.006 123.345 334.117 113.07C332.356 102.587 344.564 108.635 344.003 100.246C343.315 92.0652 336.656 95.318 335.091 91.6731C333.525 88.0283 349.349 83.1533 342.292 73.4543C335.775 64.544 329.282 78.2635 319.993 64.3398C319.205 63.243 317.384 60.0156 317.384 60.0156C316.103 57.5768 314.862 55.3104 313.83 53.1798C307.053 40.1609 302.287 32.6822 291.232 34.5328C278.495 36.7477 273.407 42.9197 273.407 42.9197C261.837 35.8277 243.863 36.8226 235.246 53.5369C229.531 64.5529 233.624 72.1773 235.808 82.2069C237.952 92.0642 230.23 102.066 241.828 110.782ZM299.415 167.665C307.42 164.121 315.89 155.044 315.89 155.044L312.007 142.304L301.574 109.252L299.555 114.941L291.697 136.38L292.676 139.79L299.415 167.665ZM241.828 110.782C254.302 120.213 248.774 123.764 250.629 127.889C252.484 132.015 256.555 132.038 260.992 133.613C265.429 135.187 269.232 142.331 280.346 138.476C288.385 135.83 299.857 139.502 309.427 139.603C313.162 139.7 316.567 139.143 319.392 137.626C329.682 131.776 321.459 126.133 325.722 123.218C330.027 120.475 336.006 123.345 334.117 113.07C332.356 102.587 344.564 108.635 344.003 100.246C343.315 92.0652 336.656 95.318 335.091 91.6731C333.525 88.0283 349.349 83.1533 342.292 73.4543C335.775 64.544 329.282 78.2635 319.993 64.3398C319.205 63.243 318.544 61.9374 317.674 60.496C317.634 60.3237 317.384 60.0156 317.384 60.0156C316.103 57.5768 314.862 55.3104 313.83 53.1798C307.053 40.1609 302.287 32.6822 291.232 34.5328C278.495 36.7477 273.407 42.9197 273.407 42.9197C261.837 35.8277 243.863 36.8226 235.246 53.5369C229.531 64.5529 233.624 72.1773 235.808 82.2069C237.952 92.0642 230.23 102.066 241.828 110.782ZM300.515 100.247C314.484 85.9947 300.247 76.583 294.868 87.5261C294.868 87.5261 287.392 113.591 300.515 100.247ZM250.784 109.023C259.879 131.138 274.909 146.172 288.303 140.737C301.696 135.301 306.544 112.341 297.449 90.2268C288.354 68.1126 275.091 57.5845 261.698 63.0198C248.432 68.2464 239.758 81.7138 250.784 109.023ZM294.062 88.6061C294.062 88.6061 299.991 82.252 299.478 68.0578C284.377 30.9469 253.471 47.5987 254.015 52.9133C254.35 58.092 257.991 64.5468 257.991 64.5468C269.342 87.9832 294.062 88.6061 294.062 88.6061ZM248.104 57.0905C248.104 57.0905 240.363 74.5207 240.276 74.9017C240.189 75.2827 245.251 108.049 245.577 98.9238C246.113 89.9349 261.145 68.934 261.145 68.934L260.068 62.1051L248.104 57.0905ZM307.125 133.583L300.138 100.147C300.138 100.147 309.379 94.3435 307.257 86.8353C305.305 79.2907 296.459 83.0169 295.373 87.4168L307.125 133.583ZM260.177 69.3248C254.607 77.9552 247.418 89.4712 246.894 97.0089C246.894 97.0089 253.281 121.883 266.113 133.59C271.408 138.057 278.541 143.575 288.135 140.773C299.579 137.571 304.575 127.254 304.245 121.349L260.177 69.3248ZM303.835 115.101C303.835 115.101 303.382 119.182 302.371 124.653C299.481 134.151 292.305 138.965 292.305 138.965C292.305 138.965 292.473 138.928 293.088 140.787C298.499 141.245 309.403 142.505 312.007 142.304L303.835 115.101ZM299.439 88.1662C294.822 88.0794 290.46 87.5752 285.937 86.3818C281.581 85.152 277.272 83.3689 273.474 80.7508C269.716 78.3051 266.132 75.0974 263.181 71.5716C260.229 68.0459 257.87 64.0299 255.637 59.8051C255.597 59.6328 255.22 59.5334 255.052 59.5698C254.884 59.6062 254.796 59.9872 254.837 60.1595C256.733 64.4571 259.133 68.6455 262.125 72.3435C265.117 76.0415 268.532 79.2857 272.54 82.0396C276.506 84.6212 280.856 86.5766 285.548 87.7336C290.072 88.927 294.769 89.3583 299.346 89.2728C299.682 89.2 299.81 88.9912 299.937 88.7825C300.024 88.4015 299.775 88.0933 299.439 88.1662ZM270.623 121.206C271.22 119.99 271.83 117.323 271.315 113.632L270.623 121.206ZM270.623 121.206C271.22 119.99 271.83 117.323 271.315 113.632L270.623 121.206ZM282.158 127.4C281.416 125.75 279.658 125.044 278.017 125.58C276.416 126.289 275.772 128.058 276.346 129.745C277.088 131.395 278.845 132.101 280.486 131.564C282.087 130.856 282.691 128.914 282.158 127.4ZM273.237 130.056C278.219 131.693 283.544 127.281 284.113 124.441L273.237 130.056ZM288.961 101.481C285.673 98.028 281.567 97.1063 278.069 98.7691C274.571 100.432 273.782 104.587 274.094 107.416L288.961 101.481ZM265.254 110.417C263.562 106.981 254.607 103.487 252.268 112.324L265.254 110.417ZM282.111 102.421C281.369 100.771 279.908 99.8197 278.771 100.247C277.634 100.674 277.158 102.407 277.9 104.057C278.642 105.707 280.103 106.658 281.24 106.231C282.377 105.804 282.853 104.071 282.111 102.421ZM260.295 111.129C259.553 109.479 258.092 108.527 256.955 108.955C255.818 109.382 255.342 111.115 256.084 112.765C256.826 114.415 258.287 115.366 259.424 114.939C260.561 114.512 261.037 112.779 260.295 111.129ZM249.462 106.412C250.854 105.568 253.807 103.842 255.367 102.961C255.999 102.643 256.423 102.189 256.719 101.944C257.397 101.072 256.441 100.012 255.512 100.575L255.344 100.612L255.634 101.092L255.507 101.301L255.176 100.648C255.008 100.684 254.712 100.93 254.544 100.966L254.793 101.274L254.665 101.483L254.416 101.175C253.952 101.456 253.488 101.738 253.024 102.019C251.504 103.073 249.978 104.852 249.172 105.932C249.253 106.276 249.294 106.449 249.462 106.412ZM282.78 92.4977C281.185 92.4809 278.332 92.3745 276.313 92.8116C275.64 92.9573 274.967 93.103 274.503 93.3846L274.584 93.7291L274.248 93.802L274.167 93.4574C273.83 93.5303 273.662 93.5667 273.326 93.6395L273.529 94.501L273.192 94.5739L272.989 93.7124L272.821 93.7488C271.684 94.1761 271.922 95.9354 273.18 96.0251C273.726 96.0881 274.398 95.9424 275.199 95.588C277.177 94.9786 281.092 93.5876 282.902 93.0146C283.198 92.7695 283.117 92.4249 282.78 92.4977ZM298.889 185.706C299.731 185.524 300.241 184.689 300.038 183.828C299.835 182.966 299 182.423 298.159 182.605C297.318 182.787 296.808 183.622 297.011 184.483C297.213 185.345 298.217 185.852 298.889 185.706ZM308.048 184.809C308.889 184.627 309.4 183.792 309.197 182.931C308.994 182.069 308.159 181.526 307.318 181.708C306.477 181.89 305.966 182.725 306.169 183.587C306.499 184.239 307.375 184.955 308.048 184.809ZM298.484 183.983C297.601 189.244 296.932 199.168 301.175 208.933L298.484 183.983ZM316.323 219.958C316.323 219.958 316.323 219.958 314.197 207.924C312.071 195.89 307.793 185.227 307.306 183.159L316.323 219.958ZM300.636 208.144C300.786 210.284 301.158 211.109 301.569 212.107C301.981 213.104 303.663 212.74 303.298 211.189C302.973 209.811 300.636 208.144 300.636 208.144ZM316.207 218.715C315.812 220.793 315.678 221.727 315.922 222.761C316.165 223.795 317.801 223.984 317.813 222.533C317.993 221.045 316.207 218.715 316.207 218.715ZM315.89 155.044C313.337 159.218 297.328 166.307 294.31 176.014Z" fill="#43459A"/>
<path d="M310.963 141.624L309.293 140.537L305.402 139.026L293.088 140.787C279.793 144.39 268.446 156.263 263.996 161.392C259.587 166.692 261.152 170.337 261.691 171.126C262.231 171.915 281.97 191.181 295.709 194.724C309.28 198.305 315.65 194.571 320.604 189.334C326.278 183.397 345.83 153.812 345.019 150.366C344.208 146.92 338.942 144.077 338.942 144.077C327.117 137.402 310.963 141.624 310.963 141.624ZM310.963 141.624L300.051 100.528C300.051 100.528 308.752 93.9359 306.127 86.5369C303.501 79.138 295.194 83.6529 294.486 88.1523L310.963 141.624ZM315.89 155.044C313.337 159.218 297.328 166.307 294.31 176.014M274.269 316.164C263.305 322.159 250.958 317.771 246.604 311.289C244.116 307.482 242.894 303.039 245.018 294.792L247.72 272.478L257.617 288.986L254.902 292.471C261.055 294.579 278.728 294.555 280.433 296.54C282.885 299.449 280.383 312.848 274.269 316.164ZM365.74 239.135C339.21 244.337 312.679 249.538 286.149 254.74C290.073 267.652 292.726 281.926 296.255 296.916C297.066 300.362 297.877 303.808 298.051 308.298L380.473 290.45L372.36 255.991L365.74 239.135ZM297.472 302.085C297.472 302.085 295.32 354.521 307.666 389.693L326.011 445.839L374.913 435.794L357.591 347.194L410.284 427.591L460.073 416.81C460.073 416.81 404.3 312.815 379.935 284.41C377.371 284.784 352.951 293.693 345.422 295.505C321.832 300.432 305.499 300.89 297.472 302.085ZM277.868 220.317L296.333 180.103L279.164 159.737L275.678 159.949L257.464 169.687C257.464 169.687 252.069 172.304 248.426 176.352C242.92 182.253 239.439 186.99 241.744 202.788L249.464 279.886L281.209 273.556L277.868 220.317ZM378.799 254.053C373.968 249.305 366.493 219.054 366.493 219.054L349.962 172.112L319.906 172.101L292.864 183.389L275.587 176.084L275.864 183.268L273.103 182.055L277.66 220.181L287.471 282.883C287.471 282.883 292.163 284.04 298.405 280.516C304.814 276.955 315.604 271.721 327.093 273.217C338.919 274.64 383.67 258.974 378.799 254.053ZM354.225 276.577L325.357 229.047C323.328 225.684 319.396 224.001 315.695 224.802L233.105 242.686C230.245 243.305 228.876 246.499 230.366 249.073L260.973 299.486C261.883 301.1 263.849 301.941 265.7 301.541L351.486 282.965C354.345 282.346 355.715 279.152 354.225 276.577ZM348.842 277.743L319.974 230.213C317.945 226.85 314.013 225.166 310.312 225.967L227.722 243.851C224.863 244.471 223.493 247.664 224.983 250.239L255.59 300.651C256.501 302.265 258.467 303.107 260.317 302.706L346.103 284.13C348.963 283.511 350.332 280.317 348.842 277.743ZM284.818 268.609C286.836 268.172 289.11 267.318 288.38 264.216C287.69 261.287 283.799 259.776 281.78 260.213C279.762 260.65 277.61 262.022 278.097 264.089C278.705 266.674 282.631 269.083 284.818 268.609ZM323.802 285.519L334.921 280.938L323.939 268.83C323.939 268.83 308.155 253.597 303.521 250.435C301.393 248.904 300.128 249.54 299.322 250.62C298.22 251.945 298.37 254.086 299.576 255.454C301.779 258.055 305.647 262.469 304.301 262.761C301.61 263.343 290.225 259.29 286.206 257.987C282.773 256.92 280.459 257.602 278.904 257.757C274.658 258.496 270.823 265.483 271.182 267.759C271.576 270.933 272.979 273.889 275.948 275.238C280.547 277.502 293.312 282.162 299.019 282.375C302.963 282.607 317.869 282.096 317.869 282.096L323.802 285.519ZM275.497 268.817C277.99 271.898 291.017 275.416 291.017 275.416L275.497 268.817ZM279.732 264.278C283.908 266.996 293.129 268.62 293.129 268.62L279.732 264.278ZM250.897 304.746C250.897 304.746 254.203 306.022 256.198 308.488C258.192 310.953 262.827 308.863 262.827 308.863C262.827 308.863 266.789 306.918 269.549 308.131C272.31 309.345 276.476 303.01 277.752 300.923C279.029 298.836 278.683 289.857 275.267 286.612C271.852 283.368 265.751 279.981 257.34 281.802C248.93 283.624 249.681 294.326 249.681 294.326C244.576 302.674 250.897 304.746 250.897 304.746ZM257.627 298.038C257.627 298.038 258.903 295.95 260.308 288.403L257.627 298.038ZM265.166 300.027C265.166 300.027 266.443 297.939 267.848 290.392L265.166 300.027ZM319.946 172.274L357.06 202.264L386.222 254.8C379.959 250.724 385.352 258.61 385.352 258.61L326.864 260.229C325.147 259.695 323.25 260.649 322.815 262.554L319.882 282.384C319.017 285.469 320.837 288.696 323.894 289.664L376.297 287.733C392.247 287.901 405.704 284.987 412.432 283.53C429.253 279.887 410.702 238.634 410.702 238.634C410.702 238.634 402.47 218.687 386.413 180.516C381.08 165.374 375.571 161.496 368.554 157.221C363.833 154.441 354.113 152.2 354.113 152.2L333.582 147.591L330.218 148.32L319.946 172.274ZM369.175 234.951L366.741 224.613L361.122 193.236L346.508 183.725L332.3 175.936L328.065 180.475L325.917 186.372L334.76 223.933L358.86 243.703L369.175 234.951ZM241.828 110.782C254.302 120.213 248.774 123.764 250.629 127.889C252.484 132.015 256.555 132.038 260.992 133.613C265.429 135.187 269.232 142.331 280.346 138.476C288.385 135.83 299.857 139.502 309.427 139.603C313.162 139.7 316.567 139.143 319.392 137.626C329.682 131.776 321.459 126.133 325.722 123.218C330.027 120.475 336.006 123.345 334.117 113.07C332.356 102.587 344.564 108.635 344.003 100.246C343.315 92.0652 336.656 95.318 335.091 91.6731C333.525 88.0283 349.349 83.1533 342.292 73.4543C335.775 64.544 329.282 78.2635 319.993 64.3398C319.205 63.243 317.384 60.0156 317.384 60.0156C316.103 57.5768 314.862 55.3104 313.83 53.1798C307.053 40.1609 302.287 32.6822 291.232 34.5328C278.495 36.7477 273.407 42.9197 273.407 42.9197C261.837 35.8277 243.863 36.8226 235.246 53.5369C229.531 64.5529 233.624 72.1773 235.808 82.2069C237.952 92.0642 230.23 102.066 241.828 110.782ZM299.415 167.665C307.42 164.121 315.89 155.044 315.89 155.044L312.007 142.304L301.574 109.252L299.555 114.941L291.697 136.38L292.676 139.79L299.415 167.665ZM241.828 110.782C254.302 120.213 248.774 123.764 250.629 127.889C252.484 132.015 256.555 132.038 260.992 133.613C265.429 135.187 269.232 142.331 280.346 138.476C288.385 135.83 299.857 139.502 309.427 139.603C313.162 139.7 316.567 139.143 319.392 137.626C329.682 131.776 321.459 126.133 325.722 123.218C330.027 120.475 336.006 123.345 334.117 113.07C332.356 102.587 344.564 108.635 344.003 100.246C343.315 92.0652 336.656 95.318 335.091 91.6731C333.525 88.0283 349.349 83.1533 342.292 73.4543C335.775 64.544 329.282 78.2635 319.993 64.3398C319.205 63.243 318.544 61.9374 317.674 60.496C317.634 60.3237 317.384 60.0156 317.384 60.0156C316.103 57.5768 314.862 55.3104 313.83 53.1798C307.053 40.1609 302.287 32.6822 291.232 34.5328C278.495 36.7477 273.407 42.9197 273.407 42.9197C261.837 35.8277 243.863 36.8226 235.246 53.5369C229.531 64.5529 233.624 72.1773 235.808 82.2069C237.952 92.0642 230.23 102.066 241.828 110.782ZM300.515 100.247C314.484 85.9947 300.247 76.583 294.868 87.5261C294.868 87.5261 287.392 113.591 300.515 100.247ZM250.784 109.023C259.879 131.138 274.909 146.172 288.303 140.737C301.696 135.301 306.544 112.341 297.449 90.2268C288.354 68.1126 275.091 57.5845 261.698 63.0198C248.432 68.2464 239.758 81.7138 250.784 109.023ZM294.062 88.6061C294.062 88.6061 299.991 82.252 299.478 68.0578C284.377 30.9469 253.471 47.5987 254.015 52.9133C254.35 58.092 257.991 64.5468 257.991 64.5468C269.342 87.9832 294.062 88.6061 294.062 88.6061ZM248.104 57.0905C248.104 57.0905 240.363 74.5207 240.276 74.9017C240.189 75.2827 245.251 108.049 245.577 98.9238C246.113 89.9349 261.145 68.934 261.145 68.934L260.068 62.1051L248.104 57.0905ZM307.125 133.583L300.138 100.147C300.138 100.147 309.379 94.3435 307.257 86.8353C305.305 79.2907 296.459 83.0169 295.373 87.4168L307.125 133.583ZM260.177 69.3248C254.607 77.9552 247.418 89.4712 246.894 97.0089C246.894 97.0089 253.281 121.883 266.113 133.59C271.408 138.057 278.541 143.575 288.135 140.773C299.579 137.571 304.575 127.254 304.245 121.349L260.177 69.3248ZM303.835 115.101C303.835 115.101 303.382 119.182 302.371 124.653C299.481 134.151 292.305 138.965 292.305 138.965C292.305 138.965 292.473 138.928 293.088 140.787C298.499 141.245 309.403 142.505 312.007 142.304L303.835 115.101ZM299.439 88.1662C294.822 88.0794 290.46 87.5752 285.937 86.3818C281.581 85.152 277.272 83.3689 273.474 80.7508C269.716 78.3051 266.132 75.0974 263.181 71.5716C260.229 68.0459 257.87 64.0299 255.637 59.8051C255.597 59.6328 255.22 59.5334 255.052 59.5698C254.884 59.6062 254.796 59.9872 254.837 60.1595C256.733 64.4571 259.133 68.6455 262.125 72.3435C265.117 76.0415 268.532 79.2857 272.54 82.0396C276.506 84.6212 280.856 86.5766 285.548 87.7336C290.072 88.927 294.769 89.3583 299.346 89.2728C299.682 89.2 299.81 88.9912 299.937 88.7825C300.024 88.4015 299.775 88.0933 299.439 88.1662ZM270.623 121.206C271.22 119.99 271.83 117.323 271.315 113.632L270.623 121.206ZM270.623 121.206C271.22 119.99 271.83 117.323 271.315 113.632L270.623 121.206ZM282.158 127.4C281.416 125.75 279.658 125.044 278.017 125.58C276.416 126.289 275.772 128.058 276.346 129.745C277.088 131.395 278.845 132.101 280.486 131.564C282.087 130.856 282.691 128.914 282.158 127.4ZM273.237 130.056C278.219 131.693 283.544 127.281 284.113 124.441L273.237 130.056ZM288.961 101.481C285.673 98.028 281.567 97.1063 278.069 98.7691C274.571 100.432 273.782 104.587 274.094 107.416L288.961 101.481ZM265.254 110.417C263.562 106.981 254.607 103.487 252.268 112.324L265.254 110.417ZM282.111 102.421C281.369 100.771 279.908 99.8197 278.771 100.247C277.634 100.674 277.158 102.407 277.9 104.057C278.642 105.707 280.103 106.658 281.24 106.231C282.377 105.804 282.853 104.071 282.111 102.421ZM260.295 111.129C259.553 109.479 258.092 108.527 256.955 108.955C255.818 109.382 255.342 111.115 256.084 112.765C256.826 114.415 258.287 115.366 259.424 114.939C260.561 114.512 261.037 112.779 260.295 111.129ZM249.462 106.412C250.854 105.568 253.807 103.842 255.367 102.961C255.999 102.643 256.423 102.189 256.719 101.944C257.397 101.072 256.441 100.012 255.512 100.575L255.344 100.612L255.634 101.092L255.507 101.301L255.176 100.648C255.008 100.684 254.712 100.93 254.544 100.966L254.793 101.274L254.665 101.483L254.416 101.175C253.952 101.456 253.488 101.738 253.024 102.019C251.504 103.073 249.978 104.852 249.172 105.932C249.253 106.276 249.294 106.449 249.462 106.412ZM282.78 92.4977C281.185 92.4809 278.332 92.3745 276.313 92.8116C275.64 92.9573 274.967 93.103 274.503 93.3846L274.584 93.7291L274.248 93.802L274.167 93.4574C273.83 93.5303 273.662 93.5667 273.326 93.6395L273.529 94.501L273.192 94.5739L272.989 93.7124L272.821 93.7488C271.684 94.1761 271.922 95.9354 273.18 96.0251C273.726 96.0881 274.398 95.9424 275.199 95.588C277.177 94.9786 281.092 93.5876 282.902 93.0146C283.198 92.7695 283.117 92.4249 282.78 92.4977ZM298.889 185.706C299.731 185.524 300.241 184.689 300.038 183.828C299.835 182.966 299 182.423 298.159 182.605C297.318 182.787 296.808 183.622 297.011 184.483C297.213 185.345 298.217 185.852 298.889 185.706ZM308.048 184.809C308.889 184.627 309.4 183.792 309.197 182.931C308.994 182.069 308.159 181.526 307.318 181.708C306.477 181.89 305.966 182.725 306.169 183.587C306.499 184.239 307.375 184.955 308.048 184.809ZM298.484 183.983C297.601 189.244 296.932 199.168 301.175 208.933L298.484 183.983ZM316.323 219.958C316.323 219.958 316.323 219.958 314.197 207.924C312.071 195.89 307.793 185.227 307.306 183.159L316.323 219.958ZM300.636 208.144C300.786 210.284 301.158 211.109 301.569 212.107C301.981 213.104 303.663 212.74 303.298 211.189C302.973 209.811 300.636 208.144 300.636 208.144ZM316.207 218.715C315.812 220.793 315.678 221.727 315.922 222.761C316.165 223.795 317.801 223.984 317.813 222.533C317.993 221.045 316.207 218.715 316.207 218.715Z" stroke="#262961" stroke-width="10.524" stroke-miterlimit="10"/>
<path d="M279.04 297.394C277.325 295.397 259.606 295.398 253.431 293.272L256.143 289.773L246.175 273.169L243.527 295.591C241.419 303.876 242.658 308.343 245.162 312.173C249.546 318.692 261.938 323.119 272.914 317.108C279.035 313.784 281.507 300.322 279.04 297.394Z" fill="#8586BD" stroke="#262961" stroke-width="1.75399" stroke-miterlimit="10"/>
<path d="M372.469 255.44L380.737 290.451L297.617 308.415C297.432 303.855 296.605 300.354 295.778 296.853C292.181 281.623 289.47 267.121 285.48 254C312.236 248.769 338.992 243.539 365.749 238.308L372.469 255.44Z" fill="#FFB28B" stroke="#262961" stroke-width="1.75399" stroke-miterlimit="10"/>
<path d="M296.324 300.111C296.324 300.111 294.306 352.959 306.812 388.427L325.406 445.042L374.529 434.981L356.873 345.656L410.056 426.76L460.069 415.959C460.069 415.959 403.724 311.066 379.156 282.404C376.581 282.778 352.061 291.726 344.499 293.541C320.803 298.476 304.389 298.917 296.324 300.111Z" fill="#262961" stroke="#2B2D60" stroke-width="1.83871" stroke-miterlimit="10" stroke-linecap="round" stroke-linejoin="round"/>
<path d="M277.383 221.271L295.748 180.975L278.522 160.527L275.036 160.734L256.842 170.471C256.842 170.471 251.453 173.087 247.82 177.141C242.328 183.049 238.859 187.794 241.205 203.639L249.126 280.959L280.861 274.66L277.383 221.271Z" fill="#8586BD" stroke="#262961" stroke-width="1.75399" stroke-miterlimit="10"/>
<path d="M379.328 254.363C374.464 249.576 366.873 219.109 366.873 219.109L350.142 171.827L319.959 171.778L292.834 183.108L275.464 175.731L275.762 182.963L272.986 181.738C272.986 181.738 273.472 211.672 276.093 230.685C278.959 251.478 287.695 283.271 287.695 283.271C287.695 283.271 292.41 284.442 298.668 280.901C305.095 277.324 315.915 272.069 327.457 273.59C339.337 275.038 384.233 259.323 379.328 254.363Z" fill="#3AFFDC" stroke="#262961" stroke-width="1.75399" stroke-miterlimit="10"/>
<path d="M378.446 254.949C373.526 249.978 365.69 218.487 365.69 218.487L348.555 169.585L318.231 169.346L291.057 180.869L273.555 173.148L273.904 180.614L271.107 179.333C271.107 179.333 271.8 210.228 274.564 229.868C277.586 251.345 286.581 284.211 286.581 284.211C286.581 284.211 291.327 285.449 297.59 281.834C304.022 278.183 314.857 272.827 326.464 274.468C338.409 276.037 383.408 260.099 378.446 254.949Z" fill="#F86FBC"/>
<path d="M272.207 224.171C272.207 224.171 272.843 228.393 273.6 231.02C274.053 232.594 274.954 234.994 274.954 234.994L272.212 235.572L272.207 224.171Z" fill="#2B2D60"/>
<path d="M257.041 299.239L225.861 247.442C224.567 245.179 225.749 242.454 228.138 241.945L311.337 224.202C314.756 223.473 318.427 225.077 320.343 228.279L320.344 228.28L349.761 277.131C351.055 279.393 349.874 282.118 347.485 282.628L261.066 301.057C259.544 301.382 258.008 300.655 257.041 299.239Z" fill="white" stroke="#262961" stroke-width="1.4032"/>
<path d="M318.757 230.469L318.758 230.47L348.117 279.184C349.406 281.436 348.223 284.159 345.829 284.672L259.342 303.21C257.818 303.537 256.281 302.813 255.318 301.402L224.2 249.75C222.911 247.498 224.093 244.775 226.488 244.262L309.752 226.415C313.176 225.681 316.847 227.277 318.757 230.469Z" fill="white" stroke="#262961" stroke-width="1.4032"/>
<path d="M277.949 264.45C277.771 263.709 278.038 263.079 278.635 262.538C279.249 261.98 280.17 261.57 281.099 261.372C281.898 261.201 283.207 261.419 284.43 262.071C285.641 262.717 286.611 263.705 286.904 264.926C287.072 265.628 287.06 266.153 286.956 266.548C286.853 266.938 286.652 267.242 286.375 267.493C285.794 268.021 284.883 268.314 283.88 268.528C283.487 268.612 282.957 268.573 282.337 268.388C281.724 268.205 281.068 267.892 280.448 267.483C279.182 266.649 278.204 265.512 277.949 264.45Z" fill="#DAEBE8" stroke="#262961" stroke-width="1.4032"/>
<path d="M317.091 282.575C317.091 282.575 302.056 283.066 298.077 282.822C292.319 282.596 279.391 277.667 274.787 275.536C271.789 274.162 270.197 271.196 269.962 267.938C269.763 265.59 273.615 258.507 277.726 257.802C279.464 257.611 281.627 256.959 285.093 258.049C289.32 259.342 300.644 263.514 303.357 262.927C304.714 262.634 300.93 257.936 298.573 255.504C297.353 254.112 297.237 252.115 298.304 250.597C299.115 249.503 300.431 249.035 302.54 250.417C307.221 253.635 323.181 269.124 323.181 269.124L334.289 281.432L323.083 286.06L317.091 282.575Z" fill="#FFB28B" stroke="#262961" stroke-width="1.75399" stroke-miterlimit="10"/>
<path d="M290.195 275.986C290.195 275.986 277.053 272.397 274.531 269.269" stroke="#262961" stroke-width="1.2278" stroke-miterlimit="10" stroke-linecap="round"/>
<path d="M292.413 269.148C292.413 269.148 283.098 267.475 278.876 264.7" stroke="#262961" stroke-width="1.2278" stroke-miterlimit="10" stroke-linecap="round"/>
<path d="M330.696 147.432L334.062 146.706L354.633 151.36C354.633 151.36 364.373 153.623 369.107 156.421C376.145 160.722 381.672 164.621 387.053 179.828C403.234 218.164 411.53 238.197 411.53 238.197C411.53 238.197 430.217 279.63 413.383 283.262C406.649 284.715 393.182 287.62 377.21 287.429L324.741 289.294C321.677 288.318 320.014 285.04 320.704 281.981L323.588 262.082C324.06 260.343 325.916 259.215 327.636 259.753L386.199 258.211C386.199 258.211 380.778 250.288 387.061 254.388L357.718 201.615L320.474 171.461L330.696 147.432Z" fill="#F86FBC" stroke="#262961" stroke-width="1.75399" stroke-miterlimit="10"/>
<path d="M370.862 234.601L368.413 224.255L362.742 192.854L348.151 183.309L333.967 175.487L329.755 180.018L327.626 185.913L336.484 223.333L360.556 243.162L370.862 234.601Z" fill="#F86FBC"/>
<path d="M294.801 88.6016C295.488 84.0784 303.781 79.5623 306.445 87.0117C309.109 94.461 300.431 101.065 300.431 101.065L311.551 142.431C311.551 142.431 327.7 138.232 339.441 145.19C339.441 145.19 344.725 148.066 345.554 151.534C346.382 155.002 326.953 184.699 321.303 190.653C316.369 195.906 310.012 199.642 296.41 196C282.809 192.359 262.791 172.959 262.247 172.165C261.704 171.37 259.91 167.562 264.507 162.381C268.895 157.063 280.238 145.329 293.528 141.745L305.845 140.01L309.747 141.542L311.424 142.64" fill="#8586BD"/>
<path d="M294.801 88.6016C295.488 84.0784 303.781 79.5623 306.445 87.0117C309.109 94.461 300.431 101.065 300.431 101.065L311.551 142.431C311.551 142.431 327.7 138.232 339.441 145.19C339.441 145.19 344.725 148.066 345.554 151.534C346.382 155.002 326.953 184.699 321.303 190.653C316.369 195.906 310.012 199.642 296.41 196C282.809 192.359 262.791 172.959 262.247 172.165C261.704 171.37 259.91 167.562 264.507 162.381C268.895 157.063 280.238 145.329 293.528 141.745L305.845 140.01L309.747 141.542L311.424 142.64" stroke="#262961" stroke-width="1.61104" stroke-miterlimit="10" stroke-linecap="round" stroke-linejoin="round"/>
<path d="M242.931 111.926C255.501 121.485 249.967 125.053 251.85 129.223C253.732 133.393 257.821 133.429 262.283 135.032C266.746 136.635 270.599 143.858 281.74 140C289.8 137.353 301.336 141.095 310.946 141.226C314.697 141.335 318.113 140.784 320.942 139.261C331.247 133.387 322.963 127.665 327.23 124.735C331.539 121.979 337.556 124.895 335.611 114.517C333.792 103.929 346.079 110.072 345.476 101.601C344.745 93.3411 338.074 96.6044 336.485 92.9203C334.896 89.2362 350.761 84.3631 343.629 74.5509C337.042 65.5364 330.588 79.3661 321.194 65.2823C320.397 64.1727 318.554 60.9092 318.554 60.9092C317.256 58.4435 315.999 56.1518 314.952 53.9979C308.085 40.8352 303.263 33.2712 292.171 35.1058C279.392 37.3029 274.313 43.5179 274.313 43.5179C262.662 36.3236 244.618 37.2733 236.046 54.1197C230.36 65.2226 234.507 72.9316 236.749 83.0628C238.949 93.02 231.243 103.093 242.931 111.926Z" fill="#FFFDC6"/>
<path d="M293.585 140.41L292.603 137L300.319 115.631L302.302 109.961L312.753 143.019L316.645 155.761C316.645 155.761 308.281 164.782 300.359 168.28L293.585 140.41Z" fill="#FFB28B" stroke="#262961" stroke-width="1.07397" stroke-miterlimit="10"/>
<path d="M242.931 111.926C255.501 121.485 249.967 125.053 251.85 129.223C253.732 133.393 257.821 133.429 262.283 135.032C266.746 136.635 270.599 143.858 281.74 140C289.8 137.353 301.336 141.095 310.946 141.226C314.697 141.335 318.113 140.784 320.942 139.261C331.247 133.387 322.963 127.665 327.23 124.735C331.539 121.979 337.556 124.895 335.611 114.517C333.792 103.929 346.079 110.072 345.476 101.601C344.745 93.3411 338.074 96.6044 336.485 92.9203C334.896 89.2362 350.761 84.3631 343.629 74.5509C337.042 65.5364 330.588 79.3661 321.194 65.2823C320.397 64.1727 319.727 62.8528 318.847 61.3951C318.806 61.2211 318.554 60.9092 318.554 60.9092C317.256 58.4435 315.999 56.1518 314.952 53.9979C308.085 40.8352 303.263 33.2712 292.171 35.1058C279.392 37.3029 274.313 43.5179 274.313 43.5179C262.662 36.3236 244.618 37.2733 236.046 54.1197C230.36 65.2226 234.507 72.9316 236.749 83.0628C238.949 93.02 231.243 103.093 242.931 111.926Z" stroke="#262961" stroke-width="1.61104" stroke-miterlimit="10"/>
<path d="M296.103 88.3592C301.44 77.3566 315.75 86.8756 301.822 101.184C288.739 114.582 296.103 88.3592 296.103 88.3592Z" fill="#FFB28B"/>
<path d="M251.685 110.26C260.87 132.482 275.947 147.618 289.295 142.206C302.643 136.794 307.377 113.767 298.193 91.5446C289.009 69.3225 275.717 58.7145 262.369 64.1265C249.148 69.3294 240.549 82.8172 251.685 110.26Z" fill="#FFB28B"/>
<path d="M259.192 65.8165C259.192 65.8165 255.512 59.3054 255.151 54.0891C254.79 48.8729 285.641 32.0214 300.786 69.475C301.2 83.8071 295.458 90.1523 295.458 90.1523C295.458 90.1523 270.681 89.4519 259.192 65.8165Z" fill="#FFFDC6"/>
<path d="M260.922 63.8357L262.027 70.6857C262.027 70.6857 247.131 91.6896 246.638 100.7C246.144 109.71 241.158 76.9798 241.243 76.5981C241.328 76.2164 248.969 58.7678 248.969 58.7678L260.922 63.8357Z" fill="#FFFDC6"/>
<path d="M308.38 134.2L301.41 100.841C301.41 100.841 310.523 95.1253 308.413 87.6304C306.469 80.1003 297.74 83.749 296.678 88.1245" stroke="#262961" stroke-width="1.61104" stroke-miterlimit="10" stroke-linecap="round" stroke-linejoin="round"/>
<path d="M305.267 122.746C305.624 128.676 300.68 139.02 289.261 142.2C279.688 144.983 272.535 139.421 267.224 134.919C254.346 123.123 247.848 98.126 247.848 98.126C248.295 90.3856 255.465 79.0173 260.99 70.3685" stroke="#262961" stroke-width="1.07397" stroke-miterlimit="10" stroke-linecap="round" stroke-linejoin="round"/>
<path d="M312.921 143.126C310.321 143.321 299.422 142.021 294.015 141.544C293.351 139.503 293.224 139.712 293.224 139.712C293.224 139.712 300.37 134.903 303.213 125.375C304.029 119.923 304.63 115.79 304.63 115.79L312.921 143.126Z" fill="#262961"/>
<path d="M300.759 89.6944C296.124 89.5929 291.744 89.0711 287.197 87.8533C282.819 86.5993 278.485 84.7871 274.66 82.1341C270.876 79.655 267.263 76.4076 264.284 72.8412C261.304 69.2748 258.916 65.2155 256.655 60.946C256.614 60.772 256.235 60.6706 256.066 60.7068C255.898 60.7431 255.812 61.1272 255.854 61.3012C257.777 65.6432 260.207 69.8765 263.228 73.6168C266.249 77.3572 269.693 80.6409 273.729 83.4316C277.723 86.0484 282.098 88.0345 286.813 89.2161C291.36 90.4338 296.078 90.8832 300.671 90.8107C301.008 90.7382 301.135 90.528 301.262 90.3178C301.348 89.9336 301.096 89.6219 300.759 89.6944Z" fill="#262961"/>
<path d="M271.912 114.933C272.435 118.621 271.84 121.281 271.252 122.492L271.912 114.933Z" fill="#FFB28B"/>
<path d="M271.912 114.933C272.435 118.621 271.84 121.281 271.252 122.492" stroke="#262961" stroke-width="1.07397" stroke-miterlimit="10" stroke-linecap="round" stroke-linejoin="round"/>
<path d="M281.078 132.531C279.475 133.242 277.666 132.35 276.913 130.683C276.161 129.016 276.967 127.196 278.57 126.486C280.174 125.776 281.982 126.667 282.735 128.334C283.319 130.038 282.723 131.995 281.078 132.531Z" fill="#F4259A"/>
<path d="M284.912 125.268C284.345 128.203 278.967 132.737 273.919 131.01" stroke="#262961" stroke-width="1.07397" stroke-miterlimit="10" stroke-linecap="round" stroke-linejoin="round"/>
<path d="M289.959 102.685C286.624 99.1316 282.472 98.1674 278.945 99.8538C275.417 101.54 274.636 105.793 274.962 108.693" stroke="#262961" stroke-width="1.01065" stroke-miterlimit="10" stroke-linecap="round" stroke-linejoin="round"/>
<path d="M265.861 112.042C264.137 108.488 255.066 104.833 252.729 113.932" stroke="#262961" stroke-width="1.02381" stroke-miterlimit="10" stroke-linecap="round" stroke-linejoin="round"/>
<path d="M284.366 105.219C283.231 105.645 281.597 104.72 281.015 103.024C280.433 101.327 280.732 99.6229 281.867 99.197C283.002 98.771 284.636 99.6953 285.218 101.392C285.968 103.053 285.5 104.793 284.366 105.219Z" fill="#262961"/>
<path d="M262.153 114.28C261.018 114.706 259.383 113.782 258.801 112.085C258.051 110.424 258.519 108.684 259.654 108.258C260.789 107.832 262.423 108.756 263.005 110.453C263.755 112.114 263.288 113.854 262.153 114.28Z" fill="#262961"/>
<path d="M249.955 108.129C251.358 107.272 254.333 105.52 255.906 104.626C256.543 104.303 256.969 103.841 257.267 103.591C257.949 102.703 256.979 101.614 256.044 102.186L255.874 102.222L256.169 102.715L256.04 102.928L255.704 102.259C255.534 102.295 255.237 102.545 255.067 102.581L255.32 102.898L255.192 103.11L254.939 102.794C254.471 103.08 254.003 103.366 253.536 103.652C252.005 104.722 250.471 106.535 249.661 107.636C249.744 107.989 249.785 108.166 249.955 108.129Z" fill="#262961"/>
<path d="M283.895 94.1096C282.062 94.6966 278.095 96.1259 276.091 96.7497C275.281 97.1156 274.599 97.2629 274.046 97.1918C272.77 97.0863 272.526 95.2327 273.677 94.7931L273.848 94.7562L274.055 95.6646L274.396 95.591L274.189 94.6825C274.53 94.6089 274.7 94.572 275.041 94.4983L275.124 94.8617L275.465 94.788L275.382 94.4246C275.893 94.3141 276.575 94.1667 277.215 93.8377C279.261 93.3956 282.283 93.3143 283.771 93.5646C284.153 93.6726 284.236 94.0359 283.895 94.1096Z" fill="#262961"/>
<path d="M268.19 145.001C265.837 144.046 263.15 142.433 262.101 141.746L260.405 145.761L262.698 151.656C265.509 149.836 270.542 145.956 268.19 145.001Z" fill="#84E2F5"/>
<path d="M299.167 186.283C300.012 186.1 300.523 185.259 300.316 184.391C300.11 183.523 299.269 182.974 298.424 183.157C297.579 183.339 297.069 184.18 297.275 185.048C297.481 185.917 298.491 186.429 299.167 186.283Z" fill="white"/>
<path d="M308.462 185.227C309.307 185.045 309.818 184.204 309.611 183.335C309.405 182.467 308.564 181.918 307.719 182.101C306.874 182.284 306.364 183.124 306.57 183.993C306.904 184.651 307.786 185.373 308.462 185.227Z" fill="white"/>
<path d="M298.663 184.549C297.784 189.773 297.111 199.635 301.299 209.374" stroke="#2B2D60" stroke-width="1.83871" stroke-miterlimit="10" stroke-linecap="round" stroke-linejoin="round"/>
<path d="M307.883 183.492C308.484 185.341 312.549 196.164 314.597 208.106C316.645 220.049 316.645 220.049 316.645 220.049" stroke="#2B2D60" stroke-width="1.83871" stroke-miterlimit="10" stroke-linecap="round" stroke-linejoin="round"/>
<path d="M300.675 208.547C300.829 210.688 301.2 211.514 301.613 212.512C302.025 213.51 303.701 213.149 303.334 211.598C303.007 210.219 300.675 208.547 300.675 208.547Z" fill="#2B2D60"/>
<path d="M316.328 218.825C315.939 220.901 315.807 221.834 316.052 222.868C316.296 223.902 317.926 224.095 317.935 222.644C318.111 221.158 316.328 218.825 316.328 218.825Z" fill="#2B2D60"/>
<path d="M316.531 155.407C313.964 159.645 297.822 166.818 294.798 176.682" stroke="#262961" stroke-width="1.75399" stroke-miterlimit="10" stroke-linecap="round" stroke-linejoin="round"/>
<circle r="3.06949" transform="matrix(0.974628 -0.223832 0.223837 0.974627 235.137 251.532)" fill="white" stroke="#262961" stroke-width="0.876997"/>
<circle r="1.4032" transform="matrix(0.974629 -0.223825 0.223844 0.974625 241.975 249.961)" fill="white" stroke="#262961" stroke-width="0.701598"/>
<path d="M372.361 50.2759L371.775 49.2998C371.775 49.2998 373.181 48.4418 375.356 47.0487L375.942 48.0248C373.767 49.4179 372.361 50.2759 372.361 50.2759ZM379.611 45.3868L379.066 44.5857C380.303 43.7647 381.328 42.8057 382.354 41.8466L383.069 42.6107C381.873 43.6067 380.678 44.6028 379.611 45.3868ZM448.267 26.5802C447.927 26.6542 447.587 26.7282 447.077 26.8392L446.831 25.7891C448.191 25.4931 449.721 25.1602 451.08 24.8642L451.327 25.9143C450.477 26.0993 449.287 26.3582 448.267 26.5802ZM442.998 27.7271C441.638 28.0231 440.068 28.181 438.708 28.477L438.462 27.4269C439.862 27.3059 441.222 27.01 442.752 26.677L442.998 27.7271ZM455.535 24.8144L455.289 23.7643C456.648 23.4683 457.967 22.9973 459.456 22.4894L459.702 23.5395C458.383 24.0105 457.065 24.4814 455.535 24.8144ZM386.187 39.9087L385.472 39.1446C386.498 38.1855 387.524 37.2265 388.508 36.0925L389.223 36.8565C388.368 37.7786 387.383 38.9126 386.187 39.9087ZM434.336 28.8768C432.935 28.9978 431.364 29.1557 429.963 29.2767L429.887 28.1896C431.288 28.0686 432.689 27.9477 434.259 27.7897L434.336 28.8768ZM463.869 22.2645L463.453 21.2514C464.772 20.7805 466.091 20.3095 467.579 19.8015L467.995 20.8146C466.677 21.2856 465.188 21.7936 463.869 22.2645ZM425.72 29.4645C424.319 29.5855 422.877 29.5314 421.436 29.4773L421.359 28.3902C422.801 28.4443 424.202 28.3234 425.644 28.3774L425.72 29.4645ZM471.952 19.4017L471.536 18.3886C472.854 17.9176 474.132 17.2716 475.451 16.8006L475.867 17.8137C474.718 18.2477 473.229 18.7557 471.952 19.4017ZM479.911 16.0137L479.495 15.0006C480.773 14.3547 482.091 13.8837 483.369 13.2377L483.785 14.2508C482.636 14.6848 481.189 15.3677 479.911 16.0137ZM416.981 29.5271C415.539 29.4731 414.098 29.419 412.615 29.1899L412.709 28.0658C414.15 28.1199 415.633 28.349 417.075 28.4031L416.981 29.5271ZM392.218 33.6294L391.333 32.9023C392.318 31.7683 393.133 30.6712 393.948 29.5742L394.833 30.3013C394.147 31.1863 393.203 32.4954 392.218 33.6294ZM487.747 12.1008L487.161 11.1247C488.439 10.4787 489.717 9.83267 490.953 9.01166L491.539 9.98776C490.303 10.8088 489.025 11.4548 487.747 12.1008ZM408.248 28.8527C406.766 28.6236 405.283 28.3946 403.97 28.1285L404.064 27.0044C405.547 27.2335 406.859 27.4996 408.301 27.5536L408.248 28.8527ZM495.332 7.87475L494.786 7.07368C496.023 6.25266 497.301 5.60667 498.368 4.82265L498.954 5.79876C497.846 6.40776 496.609 7.22876 495.332 7.87475ZM399.691 27.4043C398.209 27.1752 396.855 26.7341 395.372 26.505L395.677 25.5189C396.058 25.62 396.439 25.721 396.65 25.859C397.294 24.799 397.898 23.5639 398.502 22.3288L399.516 22.8439C399.041 23.867 398.437 25.102 397.793 26.1621C398.554 26.3641 399.275 26.3912 399.867 26.6302L399.691 27.4043ZM391.14 25.2187C389.787 24.7776 388.263 24.3736 386.909 23.9325L387.214 22.9464C388.567 23.3875 389.921 23.8286 391.275 24.2697L391.14 25.2187ZM401.163 18.4386L400.19 18.0986C400.583 16.7255 400.976 15.3524 401.368 13.9793L402.341 14.3194C401.907 15.5174 401.556 17.0655 401.163 18.4386ZM382.935 22.2222C381.54 21.6061 380.145 20.99 378.92 20.3369L379.395 19.3138C380.62 19.9669 382.015 20.583 383.369 21.0241L382.935 22.2222ZM374.906 18.4515C373.64 17.6234 372.245 17.0073 371.149 16.1422L371.665 15.2942C372.931 16.1223 374.156 16.7754 375.422 17.6035L374.906 18.4515ZM402.886 9.78604L401.785 9.65799C401.796 8.18387 401.808 6.70976 401.82 5.23565L402.881 5.18869C403.08 6.80082 403.068 8.27493 402.886 9.78604ZM367.48 13.4458C366.343 12.4057 365.247 11.5406 364.11 10.5005L364.837 9.79045C365.804 10.8676 366.9 11.7327 368.037 12.7728L367.48 13.4458ZM402.365 0.702321L401.345 0.924298C401.263 0.574265 401.14 0.0492248 401.058 -0.300804C400.812 -1.3509 400.607 -2.22597 400.191 -3.23907L401.17 -3.63606C401.586 -2.62297 401.832 -1.57287 402.037 -0.697792C402.16 -0.172748 402.283 0.352288 402.365 0.702321ZM361.168 7.09409C360.16 5.84195 359.322 4.55282 358.695 3.40171L359.633 2.8297C360.301 4.15583 361.098 5.26995 362.106 6.52209L361.168 7.09409ZM398.697 -7.32844C398.029 -8.65457 397.36 -9.9807 396.692 -11.3068L397.63 -11.8788C398.468 -10.5897 399.136 -9.26358 399.634 -7.90045L398.697 -7.32844ZM356.65 -0.751694C356.193 -1.9398 355.736 -3.12791 355.448 -4.35302C355.366 -4.70305 355.325 -4.87807 355.284 -5.05308L356.304 -5.27506C356.345 -5.10004 356.427 -4.75001 356.468 -4.575C356.755 -3.34989 357.001 -2.29979 357.459 -1.11168L356.65 -0.751694ZM394.219 -14.9992C393.926 -15.4873 393.463 -15.9383 393.17 -16.4264C392.625 -17.2275 392.121 -17.8535 391.617 -18.4796L392.344 -19.1896C392.848 -18.5636 393.393 -17.7625 393.938 -16.9614C394.231 -16.4733 394.694 -16.0223 394.987 -15.5342L394.219 -14.9992ZM355.959 -9.79842L354.898 -9.75146C354.909 -11.2256 355.091 -12.7367 355.273 -14.2478L356.205 -14.0827C356.023 -12.5716 356.011 -11.0975 355.959 -9.79842ZM388.675 -21.886C387.538 -22.9261 386.401 -23.9662 385.346 -24.6563L385.862 -25.5044C386.958 -24.6393 388.095 -23.5991 389.232 -22.559L388.675 -21.886ZM357.424 -18.027L356.451 -18.3671C357.014 -19.7771 357.788 -21.0492 358.561 -22.3213L359.405 -21.7692C358.591 -20.6721 357.987 -19.4371 357.424 -18.027ZM381.759 -27.0027C380.534 -27.6558 379.139 -28.2719 377.827 -28.5379L378.131 -29.524C379.485 -29.0829 380.88 -28.4668 382.275 -27.8507L381.759 -27.0027ZM362.189 -25.1343L361.474 -25.8984C362.5 -26.8575 363.737 -27.6785 365.144 -28.5365L365.73 -27.5604C364.282 -26.8774 363.215 -26.0934 362.189 -25.1343ZM373.548 -29.2622C372.106 -29.3162 370.876 -29.2323 369.516 -28.9363L369.346 -28.8993L369.1 -29.9494L369.27 -29.9864C370.629 -30.2824 372.03 -30.4033 373.472 -30.3493L373.548 -29.2622Z" fill="#FFFDC6"/>
<path d="M119.63 72.329C118.269 72.6257 116.738 72.9595 115.377 73.2562L115.131 72.2026C116.492 71.9059 117.853 71.6092 119.384 71.2754L119.63 72.329ZM123.713 71.439L123.467 70.3854C124.828 70.0887 126.148 69.6164 127.679 69.2826L127.925 70.3362C126.564 70.6329 125.244 71.1052 123.713 71.439ZM111.082 74.0077C109.68 74.1288 108.149 74.4626 106.747 74.5837L106.671 73.493C108.073 73.3719 109.434 73.0752 111.006 72.917L111.082 74.0077ZM132.097 69.0578L131.85 68.0042C133.171 67.532 134.532 67.2353 136.022 66.7259L136.438 67.7424C134.948 68.2518 133.417 68.5856 132.097 69.0578ZM102.371 74.984C100.969 75.1051 99.3966 75.2633 97.9535 75.2088L97.8776 74.1181C99.2796 73.997 100.682 73.8759 102.125 73.9304L102.371 74.984ZM140.398 66.3255L139.982 65.309C141.302 64.8367 142.622 64.3644 143.901 63.7166L144.317 64.7331C142.997 65.2054 141.677 65.6777 140.398 66.3255ZM93.7063 75.3964C92.2633 75.3419 90.8612 75.463 89.4181 75.4085L89.3422 74.3178C90.7853 74.3723 92.2283 74.4268 93.6304 74.3057L93.7063 75.3964ZM148.406 63.1035L147.99 62.087C149.269 61.4391 150.589 60.9668 151.868 60.3189L152.284 61.3355C150.964 61.8077 149.685 62.4556 148.406 63.1035ZM85.0479 75.0693C83.6049 75.0148 82.1208 74.7847 80.6777 74.7302L80.7719 73.6024C82.256 73.8325 83.699 73.887 85.1421 73.9415L85.0479 75.0693ZM156.121 59.3918L155.705 58.3753C156.984 57.7274 158.263 57.0795 159.542 56.4316L159.959 57.4481C158.68 58.096 157.401 58.7439 156.121 59.3918ZM163.796 55.5044L163.209 54.525C164.488 53.8771 165.726 53.0536 167.005 52.4057L167.592 53.3852C166.313 54.0331 165.034 54.681 163.796 55.5044ZM76.2665 74.2154C74.7824 73.9853 73.2983 73.7552 71.9844 73.488L72.1196 72.5358C73.4335 72.803 74.9176 73.0332 76.4017 73.2633L76.2665 74.2154ZM171.347 51.0903L170.76 50.1109C171.998 49.2874 173.277 48.6395 174.345 47.8531L174.932 48.8325C173.694 49.656 172.626 50.4424 171.347 51.0903ZM67.6613 72.585C66.1362 72.1793 64.8222 71.9121 63.4673 71.4693L63.7726 70.48C65.1276 70.9228 66.6527 71.3285 67.9666 71.5957L67.6613 72.585ZM178.687 46.5377L178.1 45.5582C179.338 44.7347 180.406 43.9483 181.644 43.1248L182.231 44.1043C180.993 44.9278 179.755 45.7513 178.687 46.5377ZM59.3614 69.9653C58.0064 69.5225 56.6105 68.904 55.2555 68.4612L55.5608 67.472C56.9568 68.0904 58.3118 68.5332 59.6667 68.976L59.3614 69.9653ZM185.774 41.6709L185.188 40.6914C186.426 39.868 187.494 39.0816 188.691 38.0825L189.236 38.8863C188.039 39.8854 186.971 40.6718 185.774 41.6709ZM192.61 36.49L192.024 35.5106C192.622 35.011 193.391 34.4744 193.989 33.9748L194.705 34.7416C193.977 35.4538 193.379 35.9534 192.61 36.49ZM51.0676 66.606C49.6716 65.9876 48.4458 65.3321 47.1789 64.5011L47.6544 63.4747C48.8802 64.1302 50.2762 64.7486 51.502 65.4041L51.0676 66.606ZM43.2903 62.3961C42.0234 61.565 40.7566 60.7339 39.6598 59.8657L40.3464 58.9779C41.4432 59.8461 42.71 60.6771 43.9769 61.5082L43.2903 62.3961ZM36.1175 56.9471C34.9798 55.9033 33.8421 54.8595 32.9155 53.9543L33.6431 53.242C34.6107 54.3229 35.7074 55.1911 36.8451 56.2348L36.1175 56.9471ZM29.8425 50.7488C28.8749 49.6679 27.8663 48.4114 27.0278 47.1179L27.7965 46.5812C28.5939 47.6992 29.6025 48.9557 30.5701 50.0365L29.8425 50.7488ZM24.5534 43.4128C23.885 42.0822 23.0466 40.7886 22.5073 39.2453L23.4871 38.8472C24.1555 40.1778 24.8238 41.5085 25.4922 42.8391L24.5534 43.4128ZM20.6724 35.2163C20.3033 33.6359 19.8051 32.2682 19.477 30.8634L20.4978 30.6409C20.8259 32.0457 21.3241 33.4134 21.6522 34.8182L20.6724 35.2163ZM19.6426 26.2138L18.5808 26.2607C18.4229 24.8188 18.2239 23.2013 18.2361 21.7223L19.2979 21.6754C19.3267 23.33 19.4847 24.7719 19.6426 26.2138ZM19.3754 17.4141L18.2726 17.2854C18.4549 15.7693 18.6372 14.2532 18.8605 12.9128L19.7932 13.0786C19.781 14.5575 19.5987 16.0736 19.3754 17.4141ZM20.9735 8.9459L19.9998 8.60453C20.3933 7.22698 20.7867 5.84943 21.3503 4.43479L22.324 4.77616C21.7604 6.1908 21.3669 7.56835 20.9735 8.9459ZM23.8856 0.744942L22.8709 0.22797C23.6456 -1.04815 24.2502 -2.28719 24.9839 -3.73891L25.8284 -3.18485C25.2649 -1.77022 24.4901 -0.494094 23.8856 0.744942ZM28.1936 -6.83761L27.349 -7.39167C28.1237 -8.6678 28.9395 -9.76831 29.9253 -10.9059L30.8109 -10.1763C29.784 -9.21426 28.8392 -7.90105 28.1936 -6.83761ZM33.2171 -13.6534L32.3315 -14.3831C33.3173 -15.5207 34.1331 -16.6212 35.1599 -17.5832L35.8754 -16.8165C35.1888 -15.9286 34.2029 -14.791 33.2171 -13.6534ZM39.0441 -20.0908L38.3287 -20.8575C39.3555 -21.8195 40.3824 -22.7815 41.5794 -23.7806L42.2948 -23.0139C41.268 -22.0519 40.071 -21.0528 39.0441 -20.0908ZM45.5866 -25.7614L44.8711 -26.5281C45.898 -27.4901 47.136 -28.3136 48.333 -29.3127L48.8783 -28.5089C47.8515 -27.5469 46.6545 -26.5478 45.5866 -25.7614ZM52.4222 -30.9423L51.8769 -31.7461C53.1149 -32.5696 54.1828 -33.356 55.4208 -34.1795L56.0072 -33.2001C54.7281 -32.5522 53.4901 -31.7287 52.4222 -30.9423ZM59.5511 -35.6334L58.9647 -36.6129C60.2027 -37.4364 61.4818 -38.0843 62.7198 -38.9077L63.3061 -37.9283C62.0681 -37.1048 60.7891 -36.4569 59.5511 -35.6334ZM66.932 -40.0105L66.3457 -40.9899C67.6247 -41.6378 68.8627 -42.4613 70.1417 -43.1092L70.7281 -42.1298C69.4491 -41.4819 68.17 -40.834 66.932 -40.0105ZM74.5241 -44.249L73.9378 -45.2285C75.2168 -45.8764 76.4958 -46.5242 77.7749 -47.1721L78.3612 -46.1927C77.0822 -45.5448 75.8031 -44.8969 74.5241 -44.249ZM279.326 -89.8156C279.326 -89.8156 277.713 -89.8331 275.038 -89.8036L274.962 -90.8943C277.807 -90.9608 279.421 -90.9434 279.421 -90.9434L279.326 -89.8156ZM82.2393 -47.9608L81.8231 -48.9773C83.1021 -49.6252 84.3811 -50.2731 85.7012 -50.7454L86.1173 -49.7288C84.7973 -49.2565 83.5183 -48.6087 82.2393 -47.9608ZM270.791 -89.6159C269.559 -89.5319 267.946 -89.5493 266.544 -89.4283L266.468 -90.519C268.04 -90.6771 269.483 -90.6226 270.885 -90.7437L270.791 -89.6159ZM262.168 -89.0279C260.765 -88.9068 259.363 -88.7857 257.75 -88.8032L257.674 -89.8939C259.246 -90.052 260.649 -90.1731 262.092 -90.1186L262.168 -89.0279ZM90.1245 -51.7096L89.7083 -52.7261C91.0284 -53.1984 92.3074 -53.8463 93.6274 -54.3186L94.0436 -53.3021C92.7236 -52.8298 91.4446 -52.1819 90.1245 -51.7096ZM253.374 -88.4028C251.972 -88.2817 250.57 -88.1606 248.998 -88.0025L248.922 -89.0932C250.324 -89.2143 251.896 -89.3724 253.298 -89.4935L253.374 -88.4028ZM97.9217 -55.0701L97.5055 -56.0866C98.8255 -56.5589 100.105 -57.2068 101.595 -57.7162L102.011 -56.6997C100.732 -56.0518 99.4119 -55.5795 97.9217 -55.0701ZM244.75 -87.8148C243.348 -87.6937 241.946 -87.5726 240.374 -87.4145L240.298 -88.5052C241.7 -88.6262 243.272 -88.7844 244.675 -88.9055L244.75 -87.8148ZM105.971 -58.1165L105.555 -59.1331C106.875 -59.6054 108.195 -60.0776 109.685 -60.587L110.101 -59.5705C108.74 -59.2738 107.42 -58.8015 105.971 -58.1165ZM236.209 -86.8756C234.807 -86.7545 233.405 -86.6334 231.833 -86.4753L231.757 -87.566C233.159 -87.687 234.731 -87.8452 236.133 -87.9663L236.209 -86.8756ZM114.02 -61.163L113.604 -62.1795C114.924 -62.6518 116.244 -63.1241 117.734 -63.6334L118.151 -62.6169C116.831 -62.1446 115.511 -61.6723 114.02 -61.163ZM227.627 -86.112C226.224 -85.9909 224.822 -85.8698 223.291 -85.5361L223.215 -86.6267C224.617 -86.7478 226.19 -86.906 227.551 -87.2027L227.627 -86.112ZM218.956 -84.9601C217.554 -84.839 216.193 -84.5423 214.621 -84.3842L214.375 -85.4378C215.777 -85.5588 217.308 -85.8926 218.71 -86.0137L218.956 -84.9601ZM122.322 -63.8953L121.906 -64.9118C123.226 -65.3841 124.546 -65.8564 126.077 -66.1901L126.493 -65.1736C124.962 -64.8399 123.642 -64.3676 122.322 -63.8953ZM210.456 -83.8453C209.053 -83.7242 207.692 -83.4275 206.12 -83.2693L205.874 -84.323C207.276 -84.444 208.807 -84.7778 210.209 -84.8989L210.456 -83.8453ZM130.453 -66.5905L130.207 -67.6441C131.527 -68.1164 132.888 -68.4131 134.378 -68.9224L134.624 -67.8688C133.134 -67.3595 131.814 -66.8872 130.453 -66.5905ZM201.996 -82.5549C200.635 -82.2582 199.233 -82.1371 197.702 -81.8033L197.456 -82.8569C198.817 -83.1536 200.389 -83.3118 201.75 -83.6085L201.996 -82.5549ZM138.667 -68.9345L138.42 -69.9881C139.782 -70.2848 141.272 -70.7942 142.633 -71.0909L142.879 -70.0373C141.518 -69.7406 140.157 -69.4439 138.667 -68.9345ZM193.367 -81.2274C192.006 -80.9307 190.603 -80.8096 189.072 -80.4758L188.826 -81.5294C190.187 -81.8261 191.759 -81.9843 193.12 -82.281L193.367 -81.2274ZM147.05 -71.3156L146.804 -72.3692C148.165 -72.6659 149.655 -73.1753 151.016 -73.472L151.262 -72.4184C149.772 -71.909 148.411 -71.6123 147.05 -71.3156ZM184.819 -79.5487C183.458 -79.252 182.097 -78.9553 180.525 -78.7971L180.279 -79.8508C181.64 -80.1474 183.171 -80.4812 184.573 -80.6023L184.819 -79.5487ZM155.345 -73.3084L155.099 -74.362C156.46 -74.6587 157.992 -74.9925 159.353 -75.2892L159.599 -74.2356C158.197 -74.1145 156.706 -73.6051 155.345 -73.3084ZM176.401 -78.0827C175.04 -77.786 173.678 -77.4893 172.147 -77.1555L171.901 -78.2091C173.262 -78.5058 174.793 -78.8396 176.155 -79.1363L176.401 -78.0827ZM163.811 -75.3383L163.565 -76.3919C164.926 -76.6886 166.117 -76.9482 167.478 -77.2449L167.648 -77.282L167.894 -76.2284L167.554 -76.1542C166.363 -75.8946 165.002 -75.5979 163.811 -75.3383Z" fill="#FFFDC6"/>
<path d="M206.723 24.3006L223.745 31.0428L230.308 -6.86499L206.723 24.3006Z" fill="#2B2D60"/>
<path d="M210.754 48.0565L230.194 -6.86223L206.668 24.2008L210.754 48.0565Z" fill="white"/>
<path d="M202.846 14.2025L211.892 17.7897L230.468 -6.86339L202.846 14.2025Z" fill="#2B2D60"/>
<path d="M230.499 -6.86309L208.857 16.9209L182.437 21.6958L230.499 -6.86309Z" fill="white"/>
</svg>
