<svg width="561" height="504" viewBox="0 0 561 504" fill="none" xmlns="http://www.w3.org/2000/svg">
<path d="M33.1343 314.871C33.1278 310.873 33.5318 282.091 53.6708 262.38C75.4312 241.063 99.3968 250.784 122.586 239.66C176.335 213.898 141.065 116.955 186.783 69.5097C238.73 15.5967 393.117 27.6769 473.51 120.863C530.123 186.458 550.321 292.579 500.559 370.451C447.009 454.266 339.924 462.287 300.178 465.262C277.137 466.992 217.344 468.827 152.722 439.035C134.721 430.725 33.1767 383.924 33.1343 314.871Z" fill="white"/>
<path d="M33.1343 314.871C33.1278 310.873 33.5318 282.091 53.6708 262.38C75.4312 241.063 99.3968 250.784 122.586 239.66C176.335 213.898 141.065 116.955 186.783 69.5097C238.73 15.5967 393.117 27.6769 473.51 120.863C530.123 186.458 550.321 292.579 500.559 370.451C447.009 454.266 339.924 462.287 300.178 465.262C277.137 466.992 217.344 468.827 152.722 439.035C134.721 430.725 33.1767 383.924 33.1343 314.871Z" fill="#3AFFDC" fill-opacity="0.15"/>
<mask id="mask0_408_969" style="mask-type:alpha" maskUnits="userSpaceOnUse" x="33" y="37" width="496" height="430">
<path d="M33.139 314.871C33.1324 310.873 33.5365 282.091 53.6755 262.38C75.4358 241.063 99.4014 250.784 122.591 239.66C176.34 213.898 141.069 116.955 186.788 69.5097C238.734 15.5967 393.122 27.6769 473.514 120.863C530.127 186.458 550.326 292.579 500.564 370.451C447.013 454.266 339.929 462.287 300.183 465.262C277.142 466.992 217.349 468.827 152.727 439.035C134.726 430.725 33.1814 383.924 33.139 314.871Z" fill="white"/>
<path d="M33.139 314.871C33.1324 310.873 33.5365 282.091 53.6755 262.38C75.4358 241.063 99.4014 250.784 122.591 239.66C176.34 213.898 141.069 116.955 186.788 69.5097C238.734 15.5967 393.122 27.6769 473.514 120.863C530.127 186.458 550.326 292.579 500.564 370.451C447.013 454.266 339.929 462.287 300.183 465.262C277.142 466.992 217.349 468.827 152.727 439.035C134.726 430.725 33.1814 383.924 33.139 314.871Z" fill="#3AFFDC" fill-opacity="0.15"/>
</mask>
<g mask="url(#mask0_408_969)">
<path d="M261.854 315.089C253.043 316.888 245.513 311.492 243.916 306.302C243.027 303.268 243.141 300.063 246.37 294.994L253.014 280.668L256.262 293.648L253.65 295.426C257.42 298.063 269.552 301.585 270.296 303.249C271.355 305.678 266.761 314.104 261.854 315.089ZM341.158 282.085C321.836 280.239 302.514 278.392 283.192 276.546C283.113 285.934 281.869 295.975 281.073 306.668C280.89 309.126 280.707 311.584 279.861 314.61L340.251 319.222L342.082 294.64L341.158 282.085ZM280.798 310.355C280.798 310.355 268.065 344.858 268.986 370.763L269.095 465.964L299.385 468.185L312.368 352.445L346.141 468.239L376.829 471.917C376.829 471.917 351.801 338.893 341.179 315.09C339.339 314.826 320.67 315.873 315.114 315.572C297.869 314.131 286.563 311.166 280.798 310.355ZM284.9 251.954L306.203 228.86L298.794 211.854L296.356 211.297L281.767 214.138C281.767 214.138 277.504 214.801 274.134 216.769C269.09 219.598 265.684 222.057 263.874 233.043L252.621 285.954L275.763 288.092L284.9 251.954ZM346.916 294.639C344.621 290.508 345.986 268.857 345.986 268.857L344.719 234.274L324.097 228.249L303.117 230.355L292.83 222.029L291.478 226.87L289.844 225.509L284.786 251.822L278.058 295.56C278.058 295.56 281.029 297.27 286.069 296.172C291.231 295.083 299.759 293.756 307.322 297.053C315.131 300.369 349.202 298.892 346.916 294.639ZM325.218 304.724L315.613 267.279C314.942 264.632 312.605 262.723 309.894 262.516L249.381 257.894C247.286 257.734 245.66 259.588 246.13 261.601L256.31 301.316C256.589 302.573 257.757 303.527 259.113 303.631L321.967 308.432C324.063 308.592 325.688 306.738 325.218 304.724ZM321.274 304.423L311.669 266.978C310.998 264.331 308.662 262.422 305.95 262.215L245.437 257.593C243.342 257.433 241.716 259.287 242.186 261.3L252.366 301.014C252.645 302.272 253.813 303.226 255.169 303.33L318.024 308.13C320.119 308.29 321.744 306.437 321.274 304.423ZM279.301 285.519C280.78 285.632 282.524 285.518 282.689 283.306C282.844 281.216 280.499 279.43 279.02 279.317C277.541 279.204 275.769 279.687 275.66 281.162C275.522 283.006 277.699 285.397 279.301 285.519ZM302.422 304.59L311.036 303.765L306.099 293.499C306.099 293.499 298.538 280.19 296.037 277.156C294.905 275.71 293.901 275.88 293.116 276.438C292.075 277.101 291.719 278.557 292.253 279.71C293.206 281.884 294.913 285.599 293.927 285.524C291.955 285.373 285.013 280.393 282.535 278.72C280.408 277.322 278.673 277.313 277.573 277.105C274.501 276.747 270.369 280.634 270.127 282.223C269.716 284.416 270.044 286.666 271.792 288.159C274.462 290.588 282.221 296.249 286.091 297.533C288.748 298.478 299.086 301.122 299.086 301.122L302.422 304.59ZM272.861 283.791C273.91 286.344 282.094 291.295 282.094 291.295L272.861 283.791ZM276.741 281.615C279.023 284.262 285.002 287.191 285.002 287.191L276.741 281.615ZM248.267 302.803C248.267 302.803 250.261 304.315 251.101 306.357C251.94 308.398 255.569 307.934 255.569 307.934C255.569 307.934 258.706 307.432 260.339 308.793C261.973 310.154 266.192 306.767 267.516 305.633C268.84 304.498 270.53 298.446 268.883 295.601C267.235 292.756 263.776 289.278 257.614 288.807C251.452 288.336 249.67 295.617 249.67 295.617C244.374 300.157 248.267 302.803 248.267 302.803ZM254.325 299.681C254.325 299.681 255.649 298.546 258.234 293.799L254.325 299.681ZM259.072 302.515C259.072 302.515 260.396 301.38 262.98 296.633L259.072 302.515ZM324.088 228.372L343.117 255.783L351.85 296.623C348.428 292.653 350.435 298.987 350.435 298.987L309.953 288.355C308.889 287.655 307.383 287.911 306.675 289.093L300.405 301.717C299.149 303.599 299.706 306.113 301.595 307.37L337.97 316.576C348.879 319.881 358.738 320.634 363.668 321.011C375.992 321.952 372.119 290.754 372.119 290.754C372.119 290.754 370.752 275.817 367.928 247.171C367.52 236.015 364.571 232.329 360.674 228.076C358.032 225.278 351.843 221.839 351.843 221.839L338.743 214.658L336.279 214.47L324.088 228.372ZM344.413 279.985L344.963 272.611L347.843 250.581L339.856 241.319L331.779 233.285L327.898 235.461L325.159 238.96L323.163 265.754L335.457 283.751L344.413 279.985ZM324.503 206.154L323.591 205.095L321.245 203.309L312.417 202.017C302.521 201.755 292.185 207.394 288.031 209.919C283.867 212.568 284.159 215.31 284.359 215.943C284.56 216.576 293.969 233.364 302.636 238.476C311.181 243.578 316.353 242.367 320.877 239.869C326.045 237.05 345.813 221.255 345.996 218.796C346.179 216.338 343.176 213.389 343.176 213.389C336.495 206.575 324.503 206.154 324.503 206.154L325.838 176.59C325.838 176.59 333.224 173.94 333.01 168.485C332.797 163.03 326.128 164.374 324.676 167.23L324.503 206.154ZM283.684 171.763C290.219 180.544 285.663 181.803 286.05 184.923C286.437 188.043 289.226 188.874 291.933 190.811C294.639 192.748 295.715 198.269 304.169 197.926C310.254 197.773 317.338 202.516 323.883 204.499C326.425 205.312 328.881 205.623 331.145 205.178C339.462 203.341 335.031 197.934 338.583 196.846C342.125 195.88 345.612 198.99 346.522 191.766C347.564 184.429 354.643 190.903 356.059 185.202C357.343 179.614 352.075 180.448 351.783 177.706C351.492 174.964 363.396 174.885 360.636 167.01C358.077 159.769 350.676 167.609 347.291 156.473C346.986 155.584 346.429 153.07 346.429 153.07C346.074 151.188 345.709 149.43 345.458 147.804C343.602 137.774 341.937 131.837 333.954 130.856C324.738 129.782 319.922 132.875 319.922 132.875C313.505 125.833 300.957 122.897 291.456 132.308C285.169 138.502 286.341 144.401 285.687 151.521C285.042 158.517 277.596 163.634 283.684 171.763ZM310.989 221.191C317.243 220.432 325.003 216.081 325.003 216.081L325.074 206.815L325.01 182.707L322.403 186.092L312.408 198.802L312.349 201.27L310.989 221.191ZM283.684 171.763C290.219 180.544 285.663 181.803 286.05 184.923C286.437 188.043 289.226 188.874 291.933 190.811C294.639 192.748 295.715 198.269 304.169 197.926C310.254 197.773 317.338 202.516 323.883 204.499C326.425 205.312 328.881 205.623 331.145 205.178C339.462 203.341 335.031 197.934 338.583 196.846C342.125 195.88 345.612 198.99 346.522 191.766C347.564 184.429 354.643 190.903 356.059 185.202C357.343 179.614 352.075 180.448 351.783 177.706C351.492 174.964 363.396 174.885 360.636 167.01C358.077 159.769 350.676 167.609 347.291 156.473C346.986 155.584 346.812 154.582 346.525 153.448C346.534 153.325 346.429 153.07 346.429 153.07C346.074 151.188 345.709 149.43 345.458 147.804C343.602 137.774 341.937 131.837 333.954 130.856C324.738 129.782 319.922 132.875 319.922 132.875C313.505 125.833 300.957 122.897 291.456 132.308C285.169 138.502 286.341 144.401 285.687 151.521C285.042 158.517 277.596 163.634 283.684 171.763ZM326.217 176.495C338.862 169.797 331.113 160.676 325.073 166.89C325.073 166.89 314.347 182.758 326.217 176.495ZM290.207 172.385C291.7 188.939 298.787 201.965 309.144 201.025C319.502 200.086 327.758 185.76 326.264 169.206C324.77 152.652 317.929 142.982 307.572 143.922C297.347 144.747 288.504 151.983 290.207 172.385ZM324.288 167.448C324.288 167.448 329.72 164.402 332.415 154.842C330.02 127.095 305.237 132 304.47 135.65C303.588 139.167 304.701 144.197 304.701 144.197C307.459 162.083 324.288 167.448 324.288 167.448ZM299.517 137.249C299.517 137.249 290.463 147.312 290.321 147.548C290.18 147.785 286.619 170.628 288.802 164.614C291.099 158.733 305.923 147.751 305.923 147.751L306.65 142.986L299.517 137.249ZM323.596 200.028L325.979 176.353C325.979 176.353 333.566 174.337 333.722 168.91C334.002 163.493 327.132 164.204 325.443 166.918L323.596 200.028ZM305.175 147.818C299.5 152.452 292.095 158.685 290.117 163.602C290.117 163.602 289.159 181.452 295.452 191.821C298.126 195.857 301.836 200.961 309.021 201.016C317.561 201.174 323.205 195.301 324.246 191.301L305.175 147.818ZM325.306 187.056C325.306 187.056 324.119 189.684 322.251 193.126C318.228 198.876 312.271 200.646 312.271 200.646C312.271 200.646 312.394 200.655 312.417 202.017C316.032 203.405 323.243 206.428 325.074 206.815L325.306 187.056ZM328.072 168.231C324.922 167.249 322.037 166.04 319.189 164.339C316.465 162.648 313.891 160.597 311.846 158.092C309.792 155.71 308.022 152.856 306.754 149.916C305.485 146.976 304.728 143.828 304.103 140.566C304.113 140.444 303.875 140.302 303.752 140.292C303.629 140.283 303.487 140.519 303.478 140.642C303.856 143.885 304.604 147.156 305.863 150.219C307.123 153.281 308.77 156.127 310.928 158.764C313.096 161.278 315.661 163.451 318.632 165.162C321.48 166.863 324.612 168.091 327.77 168.95C328.017 168.969 328.149 168.855 328.281 168.742C328.423 168.505 328.318 168.25 328.072 168.231ZM301.205 184.473C301.876 183.783 302.867 182.128 303.306 179.566L301.205 184.473ZM301.205 184.473C301.876 183.783 302.867 182.128 303.306 179.566L301.205 184.473ZM307.791 190.91C307.636 189.662 306.581 188.839 305.34 188.868C304.089 189.02 303.267 190.07 303.299 191.308C303.454 192.556 304.508 193.378 305.75 193.349C307 193.198 307.831 192.025 307.791 190.91ZM301.099 190.893C304.166 192.981 308.767 191.108 309.767 189.33L301.099 190.893ZM318.023 175.004C316.508 172.045 313.889 170.609 311.131 171.016C308.374 171.424 306.94 174.034 306.547 175.982L318.023 175.004ZM299.837 176.211C299.413 173.583 294.019 169.462 290.516 174.881L299.837 176.211ZM313.121 174.259C312.966 173.011 312.167 172.084 311.295 172.141C310.424 172.199 309.725 173.258 309.88 174.506C310.035 175.753 310.834 176.68 311.705 176.623C312.577 176.566 313.276 175.507 313.121 174.259ZM296.281 175.692C296.127 174.444 295.328 173.518 294.456 173.575C293.584 173.632 292.886 174.691 293.04 175.939C293.195 177.187 293.994 178.113 294.866 178.056C295.738 177.999 296.436 176.94 296.281 175.692ZM289.86 170.381C290.997 170.097 293.393 169.538 294.653 169.264C295.155 169.178 295.543 168.961 295.799 168.857C296.452 168.412 296.023 167.514 295.265 167.703L295.142 167.694L295.238 168.072L295.105 168.186L295.019 167.685C294.895 167.675 294.64 167.779 294.517 167.77L294.621 168.025L294.489 168.138L294.384 167.883C294.005 167.978 293.626 168.073 293.247 168.167C291.978 168.565 290.549 169.445 289.764 170.003C289.746 170.248 289.737 170.371 289.86 170.381ZM315.71 167.782C314.62 167.451 312.684 166.809 311.205 166.696C310.712 166.658 310.219 166.621 309.84 166.715L309.822 166.961L309.576 166.942L309.594 166.696C309.347 166.678 309.224 166.668 308.978 166.649L308.932 167.264L308.685 167.245L308.731 166.63L308.608 166.621C307.736 166.678 307.521 167.898 308.366 168.209C308.726 168.361 309.219 168.398 309.845 168.322C311.333 168.312 314.318 168.17 315.683 168.15C315.939 168.046 315.957 167.8 315.71 167.782ZM306.755 233.105C307.371 233.152 307.901 232.698 307.947 232.083C307.992 231.469 307.536 230.939 306.92 230.892C306.303 230.845 305.774 231.299 305.728 231.914C305.682 232.528 306.262 233.067 306.755 233.105ZM313.232 234.341C313.848 234.388 314.378 233.934 314.424 233.319C314.469 232.705 314.013 232.176 313.397 232.129C312.781 232.081 312.251 232.535 312.205 233.15C312.292 233.651 312.739 234.303 313.232 234.341ZM306.846 231.875C305.111 235.204 302.522 241.681 303.337 249.036L306.846 231.875ZM311.364 259.414C311.364 259.414 311.364 259.414 312.489 250.971C313.614 242.528 312.967 234.568 313.077 233.093L311.364 259.414ZM303.137 248.403C302.78 249.859 302.858 250.483 302.926 251.23C302.994 251.977 304.227 252.071 304.309 250.965C304.382 249.981 303.137 248.403 303.137 248.403ZM311.552 258.563C310.835 259.868 310.543 260.464 310.488 261.202C310.433 261.939 311.514 262.393 311.834 261.428C312.277 260.473 311.552 258.563 311.552 258.563ZM325.003 216.081C322.355 218.351 309.848 219.867 305.693 225.731L325.003 216.081Z" fill="#43459A"/>
<path d="M324.503 206.154L323.591 205.095L321.245 203.309L312.417 202.017M324.503 206.154C324.503 206.154 336.495 206.575 343.176 213.389C343.176 213.389 346.179 216.338 345.996 218.796C345.813 221.255 326.045 237.05 320.877 239.869C316.353 242.367 311.181 243.578 302.636 238.476C293.969 233.364 284.56 216.576 284.359 215.943C284.159 215.31 283.867 212.568 288.031 209.919C292.185 207.394 302.521 201.755 312.417 202.017M324.503 206.154L325.838 176.59C325.838 176.59 333.224 173.94 333.01 168.485C332.797 163.03 326.128 164.374 324.676 167.23L324.503 206.154ZM312.417 202.017C312.394 200.655 312.271 200.646 312.271 200.646C312.271 200.646 318.228 198.876 322.251 193.126C324.119 189.684 325.306 187.056 325.306 187.056L325.074 206.815M312.417 202.017C316.032 203.405 323.243 206.428 325.074 206.815M347.291 156.473C350.676 167.609 358.077 159.769 360.636 167.01C363.396 174.885 351.492 174.964 351.783 177.706C352.075 180.448 357.343 179.614 356.059 185.202C354.643 190.903 347.564 184.429 346.522 191.766C345.612 198.99 342.125 195.88 338.583 196.846C335.031 197.934 339.462 203.341 331.145 205.178C328.881 205.623 326.425 205.312 323.883 204.499C317.338 202.516 310.254 197.773 304.169 197.926C295.715 198.269 294.639 192.748 291.933 190.811C289.226 188.874 286.437 188.043 286.05 184.923C285.663 181.803 290.219 180.544 283.684 171.763C277.596 163.634 285.042 158.517 285.687 151.521C286.341 144.401 285.169 138.502 291.456 132.308C300.957 122.897 313.505 125.833 319.922 132.875C319.922 132.875 324.738 129.782 333.954 130.856C341.937 131.837 343.602 137.774 345.458 147.804C345.709 149.43 346.074 151.188 346.429 153.07M347.291 156.473C346.986 155.584 346.429 153.07 346.429 153.07M347.291 156.473C346.986 155.584 346.812 154.582 346.525 153.448C346.534 153.325 346.429 153.07 346.429 153.07M325.003 216.081C325.003 216.081 317.243 220.432 310.989 221.191L312.349 201.27L312.408 198.802L322.403 186.092L325.01 182.707L325.074 206.815M325.003 216.081L325.074 206.815M325.003 216.081C322.355 218.351 309.848 219.867 305.693 225.731M261.854 315.089C253.043 316.888 245.513 311.492 243.916 306.302C243.027 303.268 243.141 300.063 246.37 294.994L253.014 280.668L256.262 293.648L253.65 295.426C257.42 298.063 269.552 301.585 270.296 303.249C271.355 305.678 266.761 314.104 261.854 315.089ZM341.158 282.085C321.836 280.239 302.514 278.392 283.192 276.546C283.113 285.934 281.869 295.975 281.073 306.668C280.89 309.126 280.707 311.584 279.861 314.61L340.251 319.222L342.082 294.64L341.158 282.085ZM280.798 310.355C280.798 310.355 268.065 344.858 268.986 370.763L269.095 465.964L299.385 468.185L312.368 352.445L346.141 468.239L376.829 471.918C376.829 471.918 351.801 338.893 341.179 315.09C339.339 314.826 320.67 315.873 315.114 315.572C297.869 314.131 286.563 311.166 280.798 310.355ZM284.9 251.954L306.203 228.86L298.794 211.854L296.356 211.297L281.767 214.138C281.767 214.138 277.504 214.801 274.134 216.769C269.09 219.598 265.684 222.057 263.874 233.043L252.621 285.954L275.763 288.092L284.9 251.954ZM346.916 294.639C344.621 290.508 345.986 268.857 345.986 268.857L344.719 234.274L324.097 228.249L303.117 230.355L292.83 222.029L291.478 226.87L289.844 225.509L284.786 251.822L278.058 295.56C278.058 295.56 281.029 297.27 286.069 296.172C291.231 295.083 299.759 293.756 307.322 297.054C315.131 300.369 349.202 298.892 346.916 294.639ZM325.218 304.724L315.613 267.279C314.942 264.632 312.605 262.723 309.894 262.516L249.381 257.894C247.286 257.734 245.66 259.588 246.13 261.601L256.31 301.316C256.589 302.573 257.757 303.527 259.113 303.631L321.967 308.432C324.063 308.592 325.688 306.738 325.218 304.724ZM321.274 304.423L311.669 266.978C310.998 264.331 308.662 262.422 305.95 262.215L245.437 257.593C243.342 257.433 241.716 259.287 242.186 261.3L252.366 301.014C252.645 302.272 253.813 303.226 255.169 303.33L318.024 308.13C320.119 308.29 321.744 306.437 321.274 304.423ZM279.301 285.519C280.78 285.632 282.524 285.518 282.689 283.306C282.844 281.216 280.499 279.43 279.02 279.317C277.541 279.204 275.769 279.687 275.66 281.162C275.522 283.006 277.699 285.397 279.301 285.519ZM302.422 304.59L311.036 303.765L306.099 293.499C306.099 293.499 298.538 280.19 296.037 277.156C294.905 275.71 293.901 275.88 293.116 276.438C292.075 277.101 291.719 278.557 292.253 279.71C293.206 281.884 294.913 285.599 293.927 285.524C291.955 285.373 285.013 280.393 282.535 278.72C280.408 277.322 278.673 277.313 277.573 277.105C274.501 276.747 270.369 280.634 270.127 282.223C269.716 284.416 270.044 286.666 271.792 288.159C274.462 290.588 282.221 296.249 286.091 297.533C288.748 298.478 299.086 301.122 299.086 301.122L302.422 304.59ZM272.861 283.791C273.91 286.344 282.094 291.295 282.094 291.295L272.861 283.791ZM276.741 281.615C279.023 284.262 285.002 287.191 285.002 287.191L276.741 281.615ZM248.267 302.803C248.267 302.803 250.261 304.315 251.101 306.357C251.94 308.398 255.569 307.934 255.569 307.934C255.569 307.934 258.706 307.432 260.339 308.793C261.973 310.154 266.192 306.767 267.516 305.633C268.84 304.498 270.53 298.446 268.883 295.601C267.235 292.756 263.776 289.278 257.614 288.807C251.452 288.336 249.67 295.617 249.67 295.617C244.374 300.157 248.267 302.803 248.267 302.803ZM254.325 299.681C254.325 299.681 255.649 298.546 258.234 293.799L254.325 299.681ZM259.072 302.515C259.072 302.515 260.396 301.38 262.98 296.633L259.072 302.515ZM324.088 228.372L343.117 255.783L351.85 296.623C348.428 292.653 350.435 298.987 350.435 298.987L309.953 288.355C308.889 287.655 307.383 287.911 306.675 289.093L300.405 301.717C299.149 303.599 299.706 306.113 301.595 307.37L337.97 316.576C348.879 319.881 358.738 320.634 363.668 321.011C375.992 321.952 372.119 290.754 372.119 290.754C372.119 290.754 370.752 275.817 367.928 247.171C367.52 236.015 364.571 232.329 360.674 228.076C358.032 225.278 351.843 221.839 351.843 221.839L338.743 214.658L336.279 214.47L324.088 228.372ZM344.413 279.985L344.963 272.611L347.843 250.581L339.856 241.319L331.779 233.285L327.898 235.461L325.159 238.96L323.163 265.754L335.457 283.751L344.413 279.985ZM326.217 176.495C338.862 169.797 331.113 160.676 325.073 166.89C325.073 166.89 314.347 182.758 326.217 176.495ZM290.207 172.385C291.7 188.939 298.787 201.965 309.144 201.025C319.502 200.086 327.758 185.76 326.264 169.206C324.77 152.652 317.929 142.982 307.572 143.922C297.347 144.747 288.503 151.983 290.207 172.385ZM324.288 167.448C324.288 167.448 329.72 164.402 332.415 154.842C330.02 127.095 305.237 132 304.47 135.65C303.588 139.167 304.701 144.197 304.701 144.197C307.459 162.083 324.288 167.448 324.288 167.448ZM299.517 137.249C299.517 137.249 290.463 147.312 290.321 147.548C290.18 147.785 286.619 170.628 288.802 164.614C291.099 158.733 305.923 147.751 305.923 147.751L306.65 142.986L299.517 137.249ZM323.596 200.028L325.979 176.353C325.979 176.353 333.566 174.337 333.722 168.91C334.002 163.493 327.132 164.204 325.443 166.918L323.596 200.028ZM305.175 147.818C299.5 152.452 292.095 158.685 290.117 163.602C290.117 163.602 289.159 181.452 295.452 191.821C298.126 195.857 301.836 200.961 309.021 201.016C317.561 201.174 323.205 195.301 324.246 191.301L305.175 147.818ZM328.072 168.231C324.922 167.249 322.037 166.04 319.189 164.339C316.465 162.648 313.891 160.597 311.846 158.092C309.792 155.71 308.022 152.856 306.754 149.916C305.485 146.976 304.728 143.828 304.103 140.566C304.113 140.444 303.875 140.302 303.752 140.292C303.629 140.283 303.487 140.519 303.478 140.642C303.856 143.885 304.604 147.156 305.863 150.219C307.123 153.281 308.77 156.127 310.928 158.764C313.096 161.278 315.661 163.451 318.632 165.162C321.48 166.863 324.612 168.091 327.77 168.95C328.017 168.969 328.149 168.855 328.281 168.742C328.423 168.505 328.318 168.25 328.072 168.231ZM301.205 184.473C301.876 183.783 302.867 182.128 303.306 179.566L301.205 184.473ZM307.791 190.91C307.636 189.662 306.581 188.839 305.34 188.868C304.089 189.02 303.267 190.07 303.299 191.308C303.454 192.556 304.508 193.378 305.75 193.349C307 193.198 307.831 192.025 307.791 190.91ZM301.099 190.893C304.166 192.981 308.767 191.108 309.767 189.33L301.099 190.893ZM318.023 175.004C316.508 172.045 313.889 170.609 311.131 171.016C308.374 171.424 306.94 174.034 306.547 175.982L318.023 175.004ZM299.837 176.211C299.413 173.583 294.019 169.462 290.516 174.881L299.837 176.211ZM313.121 174.259C312.966 173.011 312.167 172.084 311.295 172.141C310.424 172.199 309.725 173.258 309.88 174.506C310.035 175.753 310.834 176.68 311.705 176.623C312.577 176.566 313.276 175.507 313.121 174.259ZM296.281 175.692C296.127 174.444 295.328 173.518 294.456 173.575C293.584 173.632 292.886 174.691 293.04 175.939C293.195 177.187 293.994 178.113 294.866 178.056C295.738 177.999 296.436 176.94 296.281 175.692ZM289.86 170.381C290.997 170.097 293.393 169.538 294.653 169.264C295.155 169.178 295.543 168.961 295.799 168.857C296.452 168.412 296.023 167.514 295.265 167.703L295.142 167.694L295.238 168.072L295.105 168.186L295.019 167.685C294.895 167.675 294.64 167.779 294.517 167.77L294.621 168.025L294.489 168.138L294.384 167.883C294.005 167.978 293.626 168.073 293.247 168.167C291.978 168.565 290.549 169.445 289.764 170.003C289.746 170.248 289.737 170.371 289.86 170.381ZM315.71 167.782C314.62 167.451 312.684 166.809 311.205 166.696C310.712 166.658 310.219 166.621 309.84 166.715L309.822 166.961L309.576 166.942L309.594 166.696C309.347 166.678 309.224 166.668 308.978 166.649L308.932 167.264L308.685 167.245L308.731 166.63L308.608 166.621C307.736 166.678 307.521 167.898 308.366 168.209C308.726 168.361 309.219 168.398 309.845 168.322C311.333 168.312 314.318 168.17 315.683 168.15C315.939 168.046 315.957 167.8 315.71 167.782ZM306.755 233.105C307.371 233.152 307.901 232.698 307.947 232.083C307.992 231.469 307.536 230.939 306.92 230.892C306.303 230.845 305.774 231.299 305.728 231.914C305.682 232.528 306.262 233.067 306.755 233.105ZM313.232 234.341C313.848 234.388 314.378 233.934 314.424 233.319C314.469 232.705 314.013 232.176 313.397 232.129C312.781 232.081 312.251 232.535 312.205 233.15C312.292 233.651 312.739 234.303 313.232 234.341ZM306.846 231.875C305.111 235.204 302.522 241.681 303.337 249.036L306.846 231.875ZM311.364 259.414C311.364 259.414 311.364 259.414 312.489 250.971C313.614 242.528 312.967 234.568 313.077 233.093L311.364 259.414ZM303.137 248.403C302.78 249.859 302.858 250.483 302.926 251.23C302.994 251.977 304.227 252.071 304.309 250.965C304.382 249.981 303.137 248.403 303.137 248.403ZM311.552 258.563C310.835 259.868 310.543 260.464 310.488 261.202C310.433 261.939 311.514 262.393 311.834 261.428C312.277 260.473 311.552 258.563 311.552 258.563Z" stroke="#262961" stroke-width="7.39917" stroke-miterlimit="10"/>
<path d="M270.416 303.32C269.672 301.657 257.543 298.131 253.774 295.495L256.384 293.719L253.132 280.746L246.497 295.06C243.272 300.124 243.159 303.327 244.049 306.36C245.647 311.547 253.176 316.942 261.982 315.148C266.886 314.166 271.475 305.748 270.416 303.32Z" fill="#43459A" stroke="#262961" stroke-width="1.23319" stroke-miterlimit="10"/>
<path d="M342.051 294.664L340.233 319.203L279.921 314.573C280.764 311.553 280.945 309.099 281.127 306.645C281.918 295.97 283.156 285.947 283.232 276.575C302.529 278.426 321.826 280.278 341.123 282.13L342.051 294.664Z" fill="#FFB28B" stroke="#262961" stroke-width="1.23319" stroke-miterlimit="10"/>
<path d="M280.648 310.413C280.648 310.413 267.933 344.891 268.864 370.781L269.016 468.256L299.207 468.303L312.225 352.492L346.035 468.377L376.713 471.196C376.713 471.196 351.639 338.964 341.011 315.171C339.172 314.906 320.509 315.944 314.955 315.641C297.715 314.194 286.411 311.226 280.648 310.413Z" fill="#00C3EB" stroke="#2B2D60" stroke-width="1.29276" stroke-miterlimit="10" stroke-linecap="round" stroke-linejoin="round"/>
<path d="M285.033 251.977L306.326 228.901L298.91 211.9L296.472 211.342L281.885 214.176C281.885 214.176 277.621 214.837 274.253 216.802C269.21 219.627 265.805 222.084 264 233.065L252.769 285.949L275.911 288.096L285.033 251.977Z" fill="#43459A" stroke="#262961" stroke-width="1.23319" stroke-miterlimit="10"/>
<path d="M346.954 294.611C344.658 290.482 346.013 268.85 346.013 268.85L344.733 234.295L324.123 228.267L303.159 230.362L292.875 222.039L291.526 226.875L289.893 225.515C289.893 225.515 283.798 245.383 281.506 258.463C279 272.767 278.143 295.502 278.143 295.502C278.143 295.502 281.113 297.212 286.149 296.117C291.307 295.031 299.828 293.709 307.387 297.007C315.193 300.323 349.24 298.862 346.954 294.611Z" fill="#3AFFDC" stroke="#262961" stroke-width="1.23319" stroke-miterlimit="10"/>
<path d="M345.577 294.605C343.282 290.343 344.69 267.976 344.69 267.976L343.483 232.257L322.81 226.072L301.763 228.287L291.46 219.706L290.095 224.709L288.458 223.307C288.458 223.307 282.296 243.861 279.967 257.388C277.42 272.18 276.508 295.686 276.508 295.686C276.508 295.686 279.485 297.447 284.542 296.303C289.723 295.169 298.278 293.782 305.858 297.174C313.685 300.584 347.862 298.994 345.577 294.605Z" fill="#3AFFDC"/>
<path d="M280.877 252.957C280.877 252.957 280.414 255.901 280.377 257.804C280.355 258.945 280.466 260.724 280.466 260.724L278.436 260.569L280.877 252.957Z" fill="#2B2D60"/>
<path d="M312.805 266.095L312.805 266.097L322.438 303.432C322.826 305.1 321.483 306.654 319.71 306.516L256.922 301.661C255.798 301.574 254.911 300.796 254.559 299.706L244.353 260.122C243.965 258.454 245.308 256.901 247.081 257.038L307.529 261.712C310.033 261.906 312.186 263.668 312.805 266.095Z" fill="white" stroke="#262961" stroke-width="0.986555"/>
<path d="M252.982 300.839L242.789 261.239C242.401 259.57 243.745 258.016 245.517 258.152L305.956 262.81C308.46 263.003 310.612 264.765 311.23 267.194L311.23 267.195L320.85 304.541C320.85 304.542 320.85 304.544 320.851 304.545C321.239 306.215 319.895 307.769 318.122 307.633L255.344 302.794C254.22 302.708 253.333 301.929 252.982 300.839Z" fill="white" stroke="#262961" stroke-width="0.986555"/>
<path d="M276.243 281.233C276.28 280.73 276.588 280.371 277.12 280.131C277.665 279.885 278.388 279.796 279.071 279.849C279.665 279.895 280.519 280.299 281.215 280.966C281.906 281.629 282.349 282.462 282.287 283.304C282.252 283.792 282.131 284.128 281.977 284.363C281.825 284.595 281.623 284.755 281.377 284.866C280.859 285.1 280.166 285.113 279.432 285.056C278.821 285.008 277.987 284.494 277.295 283.693C276.607 282.896 276.189 281.965 276.243 281.233Z" fill="#E2FFFA" stroke="#262961" stroke-width="0.986555"/>
<path d="M298.898 301.114C298.898 301.114 288.572 298.47 285.918 297.526C282.052 296.242 274.31 290.465 271.633 288.162C269.887 286.67 269.435 284.414 269.968 282.234C270.333 280.657 274.458 276.778 277.403 277.128C278.624 277.345 280.234 277.345 282.358 278.742C284.957 280.423 291.769 285.388 293.739 285.54C294.723 285.615 293.15 281.792 292.064 279.734C291.531 278.583 291.877 277.252 292.925 276.469C293.709 275.912 294.703 275.865 295.843 277.186C298.342 280.216 305.899 293.507 305.899 293.507L310.833 303.758L302.231 304.579L298.898 301.114Z" fill="#FFB28B" stroke="#262961" stroke-width="1.23319" stroke-miterlimit="10"/>
<path d="M282.183 291.331C282.183 291.331 274.008 286.384 272.958 283.835" stroke="#262961" stroke-width="0.863236" stroke-miterlimit="10" stroke-linecap="round"/>
<path d="M285.088 287.222C285.088 287.222 279.116 284.297 276.837 281.654" stroke="#262961" stroke-width="0.863236" stroke-miterlimit="10" stroke-linecap="round"/>
<path d="M249.799 295.684C249.799 295.684 251.576 288.413 257.733 288.885C263.889 289.358 267.347 292.834 268.993 295.676C270.64 298.519 268.954 304.563 267.632 305.696C266.31 306.829 262.097 310.21 260.464 308.85C258.831 307.49 255.698 307.99 255.698 307.99C255.698 307.99 252.073 308.452 251.233 306.412C250.394 304.372 248.401 302.861 248.401 302.861C248.401 302.861 244.51 300.217 249.799 295.684Z" fill="#FFB28B" stroke="#262961" stroke-width="1.23319" stroke-miterlimit="10"/>
<path d="M258.362 293.869C255.779 298.614 254.455 299.748 254.455 299.748" stroke="#262961" stroke-width="0.863236" stroke-miterlimit="10" stroke-linecap="round"/>
<path d="M263.094 296.699C260.511 301.444 259.187 302.578 259.187 302.578" stroke="#262961" stroke-width="0.863236" stroke-miterlimit="10" stroke-linecap="round"/>
<path d="M336.241 214.456L338.706 214.645L351.805 221.828C351.805 221.828 357.993 225.268 360.636 228.066C364.535 232.318 367.483 236.004 367.896 247.154C370.732 275.786 372.104 290.716 372.104 290.716C372.104 290.716 375.99 321.899 363.668 320.953C358.739 320.575 348.881 319.818 337.974 316.51L301.605 307.293C299.715 306.037 299.281 303.532 300.412 301.643L306.676 289.028C307.374 287.97 308.889 287.592 309.952 288.291L350.429 298.935C350.429 298.935 348.419 292.604 351.843 296.573L343.095 255.751L324.059 228.346L336.241 214.456Z" fill="#3AFFDC" stroke="#262961" stroke-width="1.23319" stroke-miterlimit="10"/>
<path d="M344.431 279.947L344.978 272.574L347.851 250.55L339.856 241.286L331.77 233.251L327.888 235.424L325.148 238.921L323.172 265.587L335.48 283.585L344.431 279.947Z" fill="#3AFFDC"/>
<path d="M324.632 167.222C326.082 164.37 332.75 163.032 332.968 168.482C333.185 173.933 325.802 176.574 325.802 176.574L324.491 206.109C324.491 206.109 336.482 206.54 343.036 213.467C343.036 213.467 346.041 216.416 345.86 218.871C345.679 221.327 325.924 237.092 320.759 239.904C316.237 242.396 311.066 243.602 302.518 238.497C293.97 233.393 284.425 216.603 284.224 215.97C284.023 215.337 283.615 212.466 287.89 209.955C292.052 207.312 302.373 201.811 312.269 202.08L321.098 203.378L323.445 205.164L324.358 206.223" fill="#43459A"/>
<path d="M324.632 167.222C326.082 164.37 332.75 163.032 332.968 168.482C333.185 173.933 325.802 176.574 325.802 176.574L324.491 206.109C324.491 206.109 336.482 206.54 343.036 213.467C343.036 213.467 346.041 216.416 345.86 218.871C345.679 221.327 325.924 237.092 320.759 239.904C316.237 242.396 311.066 243.602 302.518 238.497C293.97 233.393 284.425 216.603 284.224 215.97C284.023 215.337 283.615 212.466 287.89 209.955C292.052 207.312 302.373 201.811 312.269 202.08L321.098 203.378L323.445 205.164L324.358 206.223" stroke="#262961" stroke-width="1.13269" stroke-miterlimit="10" stroke-linecap="round" stroke-linejoin="round"/>
<path d="M283.849 171.665C290.387 180.44 285.835 181.693 286.225 184.809C286.614 187.925 289.402 188.757 292.109 190.694C294.815 192.631 295.895 198.145 304.344 197.809C310.426 197.661 317.509 202.404 324.052 204.39C326.594 205.203 329.049 205.516 331.311 205.074C339.623 203.246 335.189 197.843 338.738 196.759C342.278 195.798 345.765 198.906 346.669 191.693C347.705 184.367 354.785 190.838 356.196 185.145C357.474 179.566 352.21 180.394 351.916 177.656C351.623 174.918 363.521 174.848 360.756 166.982C358.193 159.748 350.802 167.572 347.41 156.448C347.104 155.56 346.546 153.048 346.546 153.048C346.189 151.169 345.823 149.413 345.571 147.789C343.708 137.77 342.04 131.84 334.06 130.855C324.848 129.774 320.037 132.859 320.037 132.859C313.618 125.822 301.075 122.879 291.586 132.269C285.308 138.45 286.484 144.343 285.835 151.452C285.196 158.438 277.758 163.542 283.849 171.665Z" fill="#FFFDC6"/>
<path d="M312.44 201.221L312.498 198.753L322.506 186.053L325.116 182.67L325.199 206.776L325.136 216.04C325.136 216.04 317.361 220.385 311.093 221.138L312.44 201.221Z" fill="#FFB28B" stroke="#262961" stroke-width="0.755085" stroke-miterlimit="10"/>
<path d="M283.849 171.665C290.387 180.44 285.835 181.693 286.225 184.809C286.614 187.925 289.402 188.757 292.109 190.694C294.815 192.631 295.895 198.145 304.344 197.809C310.426 197.661 317.509 202.404 324.052 204.39C326.594 205.203 329.049 205.516 331.311 205.074C339.623 203.246 335.189 197.843 338.738 196.759C342.278 195.798 345.765 198.906 346.669 191.693C347.705 184.367 354.785 190.838 356.196 185.145C357.474 179.566 352.21 180.394 351.916 177.656C351.623 174.918 363.521 174.848 360.756 166.982C358.193 159.748 350.802 167.572 347.41 156.448C347.104 155.56 346.93 154.559 346.642 153.426C346.651 153.303 346.546 153.048 346.546 153.048C346.189 151.169 345.823 149.413 345.571 147.789C343.708 137.77 342.04 131.84 334.06 130.855C324.848 129.774 320.037 132.859 320.037 132.859C313.618 125.822 301.075 122.879 291.586 132.269C285.308 138.45 286.484 144.343 285.835 151.452C285.196 158.438 277.758 163.542 283.849 171.665Z" stroke="#262961" stroke-width="1.13269" stroke-miterlimit="10"/>
<path d="M325.193 166.827C331.227 160.625 338.981 169.742 326.344 176.423C314.482 182.669 325.193 166.827 325.193 166.827Z" fill="#FFB28B"/>
<path d="M290.358 172.328C291.866 188.872 298.965 201.895 309.326 200.964C319.687 200.034 327.935 185.724 326.427 169.18C324.92 152.636 318.069 142.967 307.708 143.897C297.479 144.714 288.638 151.938 290.358 172.328Z" fill="#FFB28B"/>
<path d="M304.865 144.129C304.865 144.129 303.748 139.104 304.627 135.592C305.505 132.079 330.287 127.076 332.581 154.786C329.771 164.324 324.465 167.372 324.465 167.372C324.465 167.372 307.636 161.999 304.865 144.129Z" fill="#FFFDC6"/>
<path d="M306.98 142.968L306.256 147.73C306.256 147.73 291.431 158.694 289.137 164.57C286.843 170.446 290.502 147.751 290.644 147.515C290.785 147.279 299.837 137.229 299.837 137.229L306.98 142.968Z" fill="#FFFDC6"/>
<path d="M323.699 199.963L326.072 176.288C326.072 176.288 333.688 174.278 333.84 168.851C334.117 163.433 327.22 164.139 325.526 166.852" stroke="#262961" stroke-width="1.13269" stroke-miterlimit="10" stroke-linecap="round" stroke-linejoin="round"/>
<path d="M324.549 191.271C323.51 195.267 317.87 201.131 309.327 200.966C302.14 200.906 298.425 195.803 295.747 191.767C289.445 181.401 290.388 163.564 290.388 163.564C292.372 158.53 299.765 152.43 305.438 147.804" stroke="#262961" stroke-width="0.755085" stroke-miterlimit="10" stroke-linecap="round" stroke-linejoin="round"/>
<path d="M325.197 206.768C323.366 206.379 316.149 203.353 312.532 201.962C312.518 200.479 312.385 200.592 312.385 200.592C312.385 200.592 318.343 198.828 322.362 193.086C324.105 189.638 325.414 187.022 325.414 187.022L325.197 206.768Z" fill="#262961"/>
<path d="M328.237 168.165C325.089 167.181 322.204 165.971 319.356 164.27C316.632 162.579 314.057 160.528 312.012 158.025C309.957 155.645 308.185 152.792 306.915 149.855C305.645 146.918 304.886 143.774 304.259 140.516C304.268 140.393 304.031 140.251 303.908 140.242C303.784 140.232 303.643 140.468 303.634 140.591C304.015 143.83 304.765 147.097 306.026 150.157C307.287 153.217 308.935 156.06 311.095 158.695C313.264 161.208 315.829 163.381 318.8 165.091C321.648 166.792 324.779 168.021 327.936 168.882C328.183 168.901 328.315 168.788 328.447 168.675C328.589 168.439 328.484 168.184 328.237 168.165Z" fill="#262961"/>
<path d="M303.465 179.535C303.028 182.096 302.036 183.75 301.363 184.439L303.465 179.535Z" fill="#FFB28B"/>
<path d="M303.465 179.535C303.028 182.096 302.036 183.75 301.363 184.439" stroke="#262961" stroke-width="0.755085" stroke-miterlimit="10" stroke-linecap="round" stroke-linejoin="round"/>
<path d="M305.906 193.191C304.656 193.341 303.611 192.396 303.455 191.15C303.299 189.904 304.243 188.866 305.493 188.715C306.743 188.565 307.788 189.509 307.944 190.756C307.977 191.993 307.147 193.163 305.906 193.191Z" fill="#F4259A"/>
<path d="M310.043 189.193C309.046 190.962 304.453 192.823 301.389 190.742" stroke="#262961" stroke-width="0.755085" stroke-miterlimit="10" stroke-linecap="round" stroke-linejoin="round"/>
<path d="M318.166 174.956C316.65 172.005 314.033 170.571 311.28 170.975C308.527 171.379 307.097 173.98 306.706 175.921" stroke="#262961" stroke-width="0.710567" stroke-miterlimit="10" stroke-linecap="round" stroke-linejoin="round"/>
<path d="M300.016 176.178C299.59 173.559 294.201 169.45 290.708 174.845" stroke="#262961" stroke-width="0.719815" stroke-miterlimit="10" stroke-linecap="round" stroke-linejoin="round"/>
<path d="M311.86 176.573C310.988 176.629 310.065 175.694 310.033 174.456C310 173.219 310.575 172.152 311.447 172.095C312.319 172.039 313.241 172.975 313.274 174.212C313.43 175.459 312.732 176.517 311.86 176.573Z" fill="#262961"/>
<path d="M295.056 178.027C294.184 178.083 293.261 177.148 293.228 175.91C293.073 174.663 293.77 173.606 294.642 173.549C295.514 173.493 296.437 174.429 296.47 175.666C296.626 176.913 295.928 177.971 295.056 178.027Z" fill="#262961"/>
<path d="M290.067 170.349C291.202 170.067 293.595 169.511 294.853 169.239C295.354 169.154 295.741 168.937 295.997 168.834C296.648 168.391 296.219 167.495 295.462 167.683L295.339 167.674L295.435 168.051L295.303 168.164L295.216 167.665C295.093 167.655 294.838 167.759 294.715 167.749L294.82 168.004L294.688 168.117L294.583 167.862C294.205 167.956 293.826 168.05 293.448 168.144C292.181 168.54 290.755 169.416 289.971 169.972C289.953 170.217 289.944 170.339 290.067 170.349Z" fill="#262961"/>
<path d="M315.844 167.976C314.482 167.994 311.502 168.134 310.017 168.142C309.393 168.217 308.9 168.179 308.54 168.029C307.697 167.718 307.911 166.506 308.781 166.45L308.904 166.46L308.859 167.07L309.105 167.089L309.15 166.479C309.396 166.497 309.519 166.507 309.765 166.526L309.747 166.77L309.993 166.789L310.011 166.545C310.38 166.573 310.872 166.611 311.374 166.527C312.85 166.64 314.914 167.167 315.871 167.609C316.108 167.751 316.09 167.995 315.844 167.976Z" fill="#262961"/>
<path d="M294.715 198.911C293.309 197.815 291.815 196.218 291.244 195.557L289.215 197.869L289.514 202.214C291.834 201.569 296.121 200.007 294.715 198.911Z" fill="#E2FFFA"/>
<path d="M306.853 233.087C307.469 233.135 307.998 232.682 308.043 232.068C308.089 231.454 307.632 230.925 307.016 230.877C306.4 230.83 305.871 231.283 305.826 231.897C305.781 232.511 306.36 233.049 306.853 233.087Z" fill="white"/>
<path d="M313.314 234.317C313.93 234.364 314.459 233.911 314.504 233.297C314.549 232.683 314.093 232.154 313.477 232.107C312.861 232.059 312.332 232.513 312.287 233.126C312.374 233.627 312.821 234.279 313.314 234.317Z" fill="white"/>
<path d="M306.947 231.864C305.204 235.192 302.604 241.669 303.429 249.027" stroke="#2B2D60" stroke-width="1.29276" stroke-miterlimit="10" stroke-linecap="round" stroke-linejoin="round"/>
<path d="M313.27 233.079C313.294 234.441 313.822 242.519 312.686 250.966C311.551 259.412 311.551 259.412 311.551 259.412" stroke="#2B2D60" stroke-width="1.29276" stroke-miterlimit="10" stroke-linecap="round" stroke-linejoin="round"/>
<path d="M303.218 248.398C302.862 249.853 302.94 250.477 303.009 251.224C303.078 251.971 304.312 252.066 304.394 250.96C304.467 249.977 303.218 248.398 303.218 248.398Z" fill="#2B2D60"/>
<path d="M311.611 258.555C310.894 259.859 310.602 260.455 310.548 261.192C310.493 261.929 311.577 262.383 311.896 261.419C312.339 260.465 311.611 258.555 311.611 258.555Z" fill="#2B2D60"/>
<path d="M325.081 216.063C322.437 218.327 309.947 219.836 305.8 225.687" stroke="#262961" stroke-width="1.23319" stroke-miterlimit="10" stroke-linecap="round" stroke-linejoin="round"/>
</g>
<path d="M252.319 318.145C244.598 315.584 241.368 310.311 240.718 307.994L238.166 309.039L233.12 318.552L239.419 325.21C246.937 323.922 260.041 320.706 252.319 318.145Z" fill="#E2FFFA"/>
<circle cx="250.248" cy="263.574" r="2.15809" transform="rotate(4.31321 250.248 263.574)" fill="white" stroke="#262961" stroke-width="0.616597"/>
<circle cx="255.17" cy="263.945" r="0.986555" transform="rotate(4.31321 255.17 263.945)" fill="white" stroke="#262961" stroke-width="0.493278"/>
<path d="M385.94 150.041L385.748 149.286C385.748 149.286 386.883 149.002 388.652 148.52L388.843 149.276C387.074 149.758 385.94 150.041 385.94 150.041ZM391.887 148.274L391.687 147.641C392.699 147.348 393.597 146.923 394.494 146.498L394.818 147.14C393.797 147.556 392.776 147.971 391.887 148.274ZM442.405 149.541C442.159 149.523 441.913 149.504 441.544 149.476L441.599 148.739C442.583 148.814 443.69 148.899 444.675 148.974L444.62 149.711C444.005 149.664 443.143 149.598 442.405 149.541ZM438.591 149.25C437.606 149.175 436.508 148.967 435.524 148.892L435.578 148.156C436.554 148.354 437.538 148.429 438.645 148.514L438.591 149.25ZM447.705 149.823L447.76 149.087C448.744 149.162 449.738 149.114 450.854 149.076L450.8 149.813C449.806 149.86 448.813 149.908 447.705 149.823ZM397.502 145.987L397.179 145.345C398.077 144.92 398.975 144.495 399.882 143.947L400.205 144.589C399.43 145.023 398.523 145.571 397.502 145.987ZM432.475 148.289C431.5 148.091 430.401 147.884 429.426 147.686L429.604 146.959C430.579 147.157 431.554 147.355 432.653 147.562L432.475 148.289ZM453.894 149.802L453.826 149.056C454.819 149.009 455.813 148.961 456.929 148.923L456.998 149.669C456.004 149.716 454.888 149.755 453.894 149.802ZM426.51 146.969C425.534 146.771 424.568 146.45 423.602 146.13L423.78 145.403C424.746 145.723 425.721 145.921 426.687 146.242L426.51 146.969ZM459.978 149.526L459.91 148.78C460.903 148.733 461.906 148.563 462.9 148.515L462.968 149.261C462.097 149.318 460.981 149.356 459.978 149.526ZM466.09 148.882L466.021 148.136C467.024 147.966 468.018 147.919 469.02 147.748L469.088 148.494C468.218 148.551 467.092 148.712 466.09 148.882ZM420.572 145.281C419.606 144.96 418.64 144.64 417.683 144.196L417.983 143.478C418.95 143.799 419.907 144.243 420.873 144.563L420.572 145.281ZM402.917 143.068L402.471 142.417C403.378 141.869 404.162 141.311 404.945 140.754L405.392 141.405C404.74 141.849 403.824 142.52 402.917 143.068ZM472.229 147.87L472.037 147.115C473.04 146.945 474.043 146.774 475.054 146.481L475.246 147.236C474.234 147.53 473.231 147.7 472.229 147.87ZM414.793 143.111C413.836 142.668 412.879 142.224 412.046 141.79L412.347 141.073C413.303 141.516 414.137 141.95 415.103 142.271L414.793 143.111ZM478.263 146.603L478.062 145.97C479.074 145.677 480.077 145.507 480.965 145.205L481.157 145.96C480.277 146.14 479.265 146.433 478.263 146.603ZM409.298 140.469C408.341 140.026 407.516 139.469 406.559 139.026L406.974 138.44C407.211 138.582 407.448 138.723 407.562 138.856C408.223 138.289 408.893 137.599 409.563 136.91L410.141 137.448C409.604 138.024 408.934 138.713 408.273 139.28C408.747 139.563 409.23 139.724 409.58 139.997L409.298 140.469ZM403.962 137.346C403.137 136.789 402.189 136.223 401.364 135.666L401.779 135.081C402.604 135.638 403.429 136.194 404.254 136.751L403.962 137.346ZM412.188 134.889L411.6 134.473C412.157 133.652 412.713 132.83 413.269 132.009L413.857 132.424C413.31 133.123 412.744 134.067 412.188 134.889ZM399.031 133.76C398.216 133.08 397.4 132.401 396.708 131.731L397.245 131.155C397.938 131.825 398.754 132.504 399.578 133.061L399.031 133.76ZM394.384 129.702C393.7 128.909 392.885 128.229 392.324 127.446L392.853 126.992C393.536 127.785 394.229 128.455 394.912 129.248L394.384 129.702ZM415.183 129.563L414.463 129.261C414.783 128.298 415.102 127.334 415.421 126.371L416.15 126.55C415.945 127.646 415.626 128.609 415.183 129.563ZM390.406 124.954C389.855 124.048 389.294 123.264 388.743 122.358L389.386 122.037C389.814 122.933 390.374 123.717 390.926 124.623L390.406 124.954ZM416.748 123.51L416.009 123.454C416.028 123.208 416.055 122.84 416.073 122.595C416.128 121.858 416.174 121.244 416.106 120.498L416.853 120.432C416.921 121.178 416.867 121.914 416.821 122.528C416.793 122.896 416.766 123.265 416.748 123.51ZM387.468 119.545C387.049 118.525 386.753 117.515 386.57 116.637L387.327 116.448C387.5 117.449 387.805 118.336 388.224 119.356L387.468 119.545ZM415.956 117.524C415.783 116.524 415.61 115.523 415.437 114.522L416.193 114.333C416.49 115.343 416.663 116.344 416.712 117.335L415.956 117.524ZM386.061 113.512C386.001 112.643 385.942 111.775 386.006 110.916C386.025 110.67 386.034 110.547 386.043 110.425L386.781 110.481C386.772 110.604 386.754 110.849 386.745 110.972C386.681 111.831 386.626 112.568 386.685 113.436L386.061 113.512ZM414.54 111.615C414.444 111.237 414.225 110.85 414.13 110.472C413.929 109.84 413.72 109.33 413.51 108.82L414.153 108.499C414.362 109.009 414.563 109.641 414.763 110.274C414.859 110.651 415.078 111.038 415.173 111.416L414.54 111.615ZM387.502 107.45L386.773 107.271C387.092 106.308 387.534 105.354 387.976 104.4L388.573 104.693C388.131 105.647 387.812 106.61 387.502 107.45ZM412.235 106.007C411.683 105.101 411.132 104.195 410.563 103.534L411.091 103.081C411.652 103.864 412.203 104.77 412.754 105.676L412.235 106.007ZM390.233 102.351L389.645 101.936C390.324 101.123 391.117 100.443 391.91 99.7634L392.366 100.292C391.582 100.849 390.912 101.539 390.233 102.351ZM408.626 101.287C407.934 100.617 407.118 99.9378 406.284 99.5038L406.699 98.9183C407.524 99.475 408.339 100.155 409.155 100.834L408.626 101.287ZM394.964 98.6388L394.64 97.9969C395.538 97.5717 396.55 97.2787 397.685 96.9951L397.876 97.7504C396.751 97.9113 395.862 98.2137 394.964 98.6388ZM403.536 98.1829C402.57 97.8622 401.718 97.6736 400.734 97.5984L400.611 97.589L400.665 96.8525L400.789 96.8619C401.773 96.9371 402.748 97.1351 403.714 97.4558L403.536 98.1829Z" fill="#FCB28D"/>
<path d="M211.789 111.386C210.805 111.311 209.698 111.227 208.714 111.151L208.768 110.415C209.753 110.49 210.737 110.566 211.844 110.65L211.789 111.386ZM214.742 111.612L214.797 110.876C215.781 110.951 216.775 110.903 217.882 110.988L217.827 111.724C216.843 111.649 215.85 111.697 214.742 111.612ZM205.647 110.794C204.672 110.596 203.564 110.511 202.589 110.313L202.767 109.587C203.742 109.784 204.727 109.86 205.825 110.067L205.647 110.794ZM220.921 111.714L220.976 110.977C221.97 110.93 222.954 111.005 224.07 110.967L224.138 111.713C223.022 111.751 221.915 111.666 220.921 111.714ZM199.541 109.71C198.566 109.512 197.468 109.305 196.502 108.985L196.679 108.258C197.655 108.456 198.63 108.654 199.596 108.974L199.541 109.71ZM227.119 111.57L227.05 110.824C228.044 110.777 229.037 110.729 230.04 110.559L230.108 111.305C229.115 111.352 228.121 111.4 227.119 111.57ZM193.585 108.268C192.619 107.948 191.644 107.75 190.678 107.429L190.856 106.702C191.822 107.023 192.788 107.343 193.763 107.541L193.585 108.268ZM233.22 111.049L233.152 110.303C234.155 110.133 235.148 110.085 236.151 109.915L236.219 110.661C235.226 110.708 234.223 110.879 233.22 111.049ZM187.789 106.345C186.823 106.024 185.866 105.581 184.9 105.26L185.201 104.543C186.158 104.986 187.124 105.307 188.09 105.627L187.789 106.345ZM239.227 110.15L239.158 109.405C240.161 109.234 241.163 109.064 242.166 108.894L242.234 109.64C241.232 109.81 240.229 109.98 239.227 110.15ZM245.242 109.129L245.051 108.374C246.053 108.204 247.065 107.911 248.067 107.74L248.259 108.495C247.256 108.666 246.254 108.836 245.242 109.129ZM182.021 104.053C181.064 103.61 180.107 103.166 179.273 102.732L179.565 102.138C180.399 102.572 181.356 103.015 182.313 103.458L182.021 104.053ZM251.285 107.739L251.093 106.984C252.105 106.691 253.108 106.521 253.996 106.219L254.187 106.974C253.176 107.267 252.287 107.569 251.285 107.739ZM176.535 101.289C175.587 100.723 174.753 100.289 173.929 99.7327L174.343 99.1474C175.168 99.704 176.116 100.27 176.95 100.704L176.535 101.289ZM257.213 106.218L257.022 105.463C258.034 105.17 258.923 104.867 259.934 104.574L260.125 105.329C259.114 105.622 258.102 105.915 257.213 106.218ZM171.464 97.9402C170.639 97.3836 169.823 96.7042 168.999 96.1476L169.414 95.5623C170.229 96.2416 171.054 96.7982 171.878 97.3548L171.464 97.9402ZM263.037 104.441L262.846 103.686C263.858 103.393 264.747 103.091 265.767 102.675L265.968 103.308C264.947 103.723 264.058 104.026 263.037 104.441ZM268.757 102.41L268.565 101.655C269.076 101.447 269.709 101.249 270.22 101.041L270.543 101.683C269.901 102.004 269.39 102.212 268.757 102.41ZM166.552 94.1097C165.737 93.4304 165.044 92.7604 164.361 91.9678L164.899 91.3919C165.591 92.0618 166.407 92.7411 167.099 93.411L166.552 94.1097ZM162.169 89.826C161.486 89.0333 160.803 88.2407 160.242 87.4575L160.894 87.0136C161.454 87.7969 162.138 88.5895 162.821 89.3821L162.169 89.826ZM158.456 84.853C157.905 83.947 157.354 83.0411 156.917 82.2673L157.559 81.9462C157.987 82.8427 158.548 83.6259 159.099 84.5319L158.456 84.853ZM155.509 79.5683C155.081 78.6717 154.662 77.6525 154.366 76.6426L154.999 76.4442C155.305 77.3314 155.724 78.3506 156.152 79.2471L155.509 79.5683ZM153.469 73.7358C153.296 72.7354 153 71.7255 152.959 70.6118L153.706 70.5454C153.879 71.5459 154.052 72.5463 154.225 73.5468L153.469 73.7358ZM152.563 67.6198C152.646 66.5155 152.596 65.5244 152.669 64.5428L153.407 64.5991C153.334 65.5808 153.384 66.5718 153.311 67.5535L152.563 67.6198ZM153.758 61.5409L153.029 61.3618C153.225 60.3895 153.431 59.2946 153.75 58.3317L154.479 58.5108C154.151 59.5964 153.955 60.5686 153.758 61.5409ZM155.427 55.7449L154.707 55.4431C155.15 54.4897 155.592 53.5362 156.025 52.7055L156.622 52.9979C156.303 53.9607 155.86 54.9142 155.427 55.7449ZM158.29 50.5338L157.702 50.1187C158.258 49.2973 158.815 48.476 159.494 47.664L160.081 48.0791C159.402 48.8911 158.846 49.7124 158.29 50.5338ZM161.987 45.7566L161.408 45.2188C162.201 44.5389 162.871 43.8497 163.673 43.0471L164.129 43.5755C163.45 44.3875 162.657 45.0673 161.987 45.7566ZM166.499 41.6587L166.043 41.1302C166.836 40.4504 167.62 39.8932 168.527 39.3455L168.974 39.9966C168.076 40.4217 167.16 41.0921 166.499 41.6587ZM171.334 38.2025L170.888 37.5514C171.795 37.0036 172.579 36.4465 173.477 36.0214L173.8 36.6631C173.148 37.107 172.241 37.6547 171.334 38.2025ZM176.635 35.152L176.311 34.5103C177.209 34.0852 178.107 33.6602 179.128 33.2445L179.451 33.8863C178.553 34.3113 177.532 34.727 176.635 35.152ZM182.258 32.7432L181.935 32.1015C182.833 31.6765 183.844 31.3835 184.865 30.9679L185.066 31.6002C184.168 32.0253 183.147 32.4409 182.258 32.7432ZM187.978 30.712L187.777 30.0797C188.789 29.7867 189.678 29.4844 190.689 29.1915L190.881 29.9465C189.878 30.1167 188.866 30.4097 187.978 30.712ZM193.793 29.0583L193.601 28.3033C194.613 28.0103 195.616 27.8401 196.627 27.5472L196.818 28.3022C195.807 28.5951 194.804 28.7654 193.793 29.0583ZM199.712 27.6594L199.521 26.9044C200.524 26.7341 201.535 26.4412 202.538 26.271L202.729 27.026C201.726 27.1962 200.724 27.3665 199.712 27.6594ZM205.746 26.3926L205.555 25.6376C206.557 25.4673 207.56 25.2971 208.562 25.1269L208.753 25.8819C207.751 26.0521 206.748 26.2224 205.746 26.3926ZM354.047 37.1034C354.047 37.1034 352.958 36.7734 351.14 36.2643L351.318 35.5374C353.259 36.0559 354.348 36.3859 354.348 36.3859L354.047 37.1034ZM211.752 25.4939L211.684 24.7483C212.686 24.578 213.689 24.4078 214.682 24.3603L214.75 25.1059C213.757 25.1535 212.754 25.3237 211.752 25.4939ZM348.224 35.5479C347.372 35.3594 346.283 35.0294 345.308 34.8315L345.485 34.1047C346.584 34.312 347.55 34.6326 348.525 34.8305L348.224 35.5479ZM342.259 34.2285C341.284 34.0306 340.309 33.8327 339.22 33.5027L339.398 32.7759C340.496 32.9832 341.471 33.181 342.437 33.5016L342.259 34.2285ZM217.881 24.6046L217.813 23.859C218.806 23.8115 219.809 23.6412 220.802 23.5937L220.87 24.3394C219.877 24.3869 218.875 24.5571 217.881 24.6046ZM336.171 32.8996C335.196 32.7018 334.221 32.5039 333.123 32.2966L333.301 31.5697C334.276 31.7676 335.374 31.9749 336.349 32.1728L336.171 32.8996ZM223.869 23.9514L223.801 23.2057C224.794 23.1582 225.797 22.988 226.913 22.9498L226.981 23.6955C225.979 23.8657 224.985 23.9132 223.869 23.9514ZM330.207 31.5802C329.232 31.3823 328.257 31.1844 327.158 30.9771L327.336 30.2503C328.311 30.4482 329.41 30.6555 330.385 30.8534L330.207 31.5802ZM229.962 23.5529L229.893 22.8073C230.887 22.7597 231.88 22.7122 232.997 22.6741L233.065 23.4197C232.081 23.3446 231.087 23.3921 229.962 23.5529ZM324.224 30.5062C323.249 30.3083 322.274 30.1104 321.175 29.9031L321.353 29.1763C322.328 29.3742 323.427 29.5815 324.402 29.7793L324.224 30.5062ZM236.054 23.1545L235.986 22.4088C236.979 22.3613 237.973 22.3138 239.089 22.2756L239.157 23.0213C238.164 23.0688 237.171 23.1163 236.054 23.1545ZM318.25 29.3095C317.275 29.1116 316.3 28.9137 315.192 28.8291L315.37 28.1023C316.345 28.3001 317.444 28.5074 318.428 28.5826L318.25 29.3095ZM312.135 28.3487C311.16 28.1508 310.175 28.0757 309.077 27.8684L309.132 27.1321C310.107 27.33 311.215 27.4146 312.19 27.6125L312.135 28.3487ZM242.252 23.0108L242.183 22.2652C243.177 22.2176 244.17 22.1701 245.278 22.2547L245.346 23.0003C244.238 22.9158 243.245 22.9633 242.252 23.0108ZM306.143 27.3974C305.168 27.1995 304.183 27.1244 303.085 26.9171L303.14 26.1808C304.115 26.3787 305.222 26.4633 306.198 26.6612L306.143 27.3974ZM248.326 22.8578L248.381 22.1215C249.374 22.074 250.358 22.1492 251.475 22.1111L251.42 22.8473C250.304 22.8854 249.31 22.933 248.326 22.8578ZM300.141 26.5688C299.157 26.4936 298.182 26.2957 297.075 26.2112L297.13 25.4749C298.114 25.5501 299.212 25.7574 300.196 25.8326L300.141 26.5688ZM254.382 22.9501L254.437 22.2139C255.421 22.2891 256.538 22.251 257.522 22.3261L257.467 23.0624C256.483 22.9872 255.498 22.912 254.382 22.9501ZM294.017 25.7308C293.033 25.6556 292.058 25.4577 290.951 25.3732L291.005 24.6369C291.99 24.7121 293.088 24.9194 294.072 24.9946L294.017 25.7308ZM260.561 23.0519L260.616 22.3157C261.6 22.3908 262.717 22.3527 263.701 22.4279L263.646 23.1641C262.53 23.2023 261.545 23.1271 260.561 23.0519ZM287.875 25.1382C286.89 25.063 285.906 24.9878 284.808 24.7806L284.863 24.0443C285.847 24.1195 286.954 24.2041 287.929 24.402L287.875 25.1382ZM266.599 23.3897L266.654 22.6535C267.638 22.7286 268.745 22.8132 269.73 22.8884L269.675 23.6246C268.7 23.4267 267.583 23.4649 266.599 23.3897ZM281.864 24.4323C280.88 24.3571 279.896 24.2819 278.788 24.1974L278.843 23.4611C279.828 23.5363 280.935 23.6209 281.919 23.6961L281.864 24.4323ZM272.76 23.7369L272.815 23.0006C273.799 23.0758 274.66 23.1416 275.644 23.2168L275.767 23.2262L275.713 23.9624L275.467 23.9436C274.605 23.8778 273.621 23.8027 272.76 23.7369Z" fill="#FCB28D"/>
<path d="M280.374 98.3725L290.572 106.196L303.23 82.468L280.374 98.3725Z" fill="#2B2D60"/>
<path d="M278.02 115.002L303.234 82.4705L280.366 98.3804L278.02 115.002Z" fill="white"/>
<path d="M279.967 90.7967L285.356 94.9118L303.237 82.4674L279.967 90.7967Z" fill="#2B2D60"/>
<path d="M303.238 82.483L283.61 93.5444L264.709 91.4793L303.238 82.483Z" fill="white"/>
</svg>
