<svg width="457" height="414" viewBox="0 0 457 414" fill="none" xmlns="http://www.w3.org/2000/svg">
<path d="M456.876 165.321C456.654 169.165 454.637 196.806 435.083 214.205C413.953 233.024 392.582 221.83 370.728 230.739C320.076 251.366 346.799 347.289 302.253 389.382C251.639 437.214 111.073 413.704 42.8504 317.916C-5.19387 250.488 -17.6014 146.903 32.3851 75.8674C86.1777 -0.589975 184.614 -0.0505186 221.15 0.151457C242.331 0.263648 297.144 3.10643 354.565 36.7297C370.559 46.1061 460.789 98.9265 456.876 165.321Z" fill="white"/>
<path d="M456.876 165.321C456.654 169.165 454.637 196.806 435.083 214.205C413.953 233.024 392.582 221.83 370.728 230.739C320.076 251.366 346.799 347.289 302.253 389.382C251.639 437.214 111.073 413.704 42.8504 317.916C-5.19387 250.488 -17.6014 146.903 32.3851 75.8674C86.1777 -0.589975 184.614 -0.0505186 221.15 0.151457C242.331 0.263648 297.144 3.10643 354.565 36.7297C370.559 46.1061 460.789 98.9265 456.876 165.321Z" fill="#00C3EB" fill-opacity="0.15"/>
<path d="M193.09 201.721C193.09 201.721 184.794 214.022 186.135 222.436C186.135 222.436 187.263 231.213 189.363 236.746C191.47 242.185 187.641 262.922 187.641 262.922L178.036 300.86L239.961 310.345C241.729 297.886 243.111 289.846 244.538 276.796C245.723 266 244.579 254.573 245.499 243.475C245.965 237.832 249.896 231.383 250.274 225.639C250.522 221.873 250.671 219.613 249.717 215.387C243.48 205.035 237.337 194.688 231.1 184.336L207.418 182.734L193.09 201.721ZM223.031 171.59L225.043 184.21L229.469 181.767C229.469 181.767 227.668 173.133 226.522 171.826L223.031 171.59ZM288.679 340.5C277.852 337.971 256.838 337.59 256.838 337.59L255.721 340.162L253.344 353.243C253.344 353.243 275.527 358.904 286.66 359.657C287.227 359.696 287.887 359.74 288.365 359.678C289.315 359.648 290.195 359.234 290.811 358.519C295.266 354.187 295.121 347.745 292.21 343.009C291.159 341.708 290.082 340.784 288.679 340.5ZM247.714 352.389L253.816 353.274C255.508 353.483 257.243 353.033 258.557 351.798C259.964 350.569 260.743 348.825 261.061 346.86C261.317 344.419 260.811 342.02 259.52 340.041C258.222 338.156 256.315 336.892 254.145 336.746L250.094 336.377L247.714 352.389ZM114.783 328.833C110.624 332.996 109.033 339.888 112.956 345.071C113.473 345.862 114.291 346.391 115.134 346.542C115.694 346.675 116.354 346.719 116.908 346.946C127.922 348.069 150.79 346.211 150.79 346.211L150.242 332.933L149.472 330.233C149.472 330.233 127.795 326.97 116.833 327.931C116.178 327.792 115.305 328.111 114.783 328.833ZM156.428 329.663L152.371 329.389C150.201 329.242 148.145 330.238 146.53 331.737C144.909 333.329 143.993 335.726 143.838 338.08C143.708 340.058 144.439 341.904 145.485 343.299C146.719 344.706 148.273 345.568 149.978 345.589L156.129 345.721L156.428 329.663ZM167.857 285.607L166.246 310.088L229.115 326.824L252.791 302.606L249.302 285.062L167.857 285.607ZM296.086 299.955C292.176 288.814 281.059 286.359 270.918 290.686C270.805 290.962 207.571 318.652 152.779 328.944C153.954 334.13 154.456 339.461 154.198 344.834C154.117 346.058 154.049 347.094 153.968 348.318C195.437 348.947 241.177 337.949 280.39 328.212C292.727 325.074 300.394 312.257 296.086 299.955ZM250.481 352.103C250.783 346.071 252.193 340.491 254.993 335.384C255.106 335.108 255.118 334.92 255.326 334.65C252.274 333.498 248.492 331.918 243.427 329.684C206.088 313.823 177.826 298.292 150.914 280.961C140.555 274.208 127.928 277.42 123.582 290.178C119.706 301.549 126.389 310.891 135.904 316.075C155.469 326.95 150.127 324.603 160.006 328.581C186.527 338.887 219.508 348.968 250.413 353.139C250.52 352.957 250.544 352.58 250.481 352.103ZM266.49 290.292L269.75 240.765C270.115 235.209 265.878 230.478 260.594 230.12L172.186 224.14C166.714 223.77 162.07 228.09 161.717 233.457L158.458 282.985C158.092 288.54 162.33 293.272 167.613 293.629L256.021 299.609C261.292 300.155 266.125 295.847 266.49 290.292ZM250.417 217.704C249.362 212.147 247.64 208.059 246.493 205.333C245.428 202.802 244.45 200.371 241.342 192.879C240.604 191.126 236.036 182.778 235.034 180.724L232.467 179.416C220.565 184.569 212.218 177.479 212.218 177.479L209.244 178.034C207.247 181.02 205.143 184.188 203.133 187.362C199.026 193.61 193.353 200.604 189.129 210.059C188.257 211.797 187.667 213.555 187.667 213.555L250.411 217.798L250.417 217.704ZM211.892 178.119L212.036 177.372L211.972 176.895L209.533 177.959L211.892 178.119ZM272.908 343.973C272.452 346.59 272.09 349.214 271.809 352.033L272.908 343.973ZM278.852 344.375C278.396 346.993 278.034 349.616 277.753 352.435L278.852 344.375ZM127.115 332.977C126.659 335.594 126.296 338.218 126.016 341.036L127.115 332.977ZM133.059 333.379C132.603 335.996 132.24 338.62 131.96 341.438L133.059 333.379ZM190.864 208.191L187.875 213.285C186.727 216.328 187.819 214.132 188.178 214.44L193.811 218.131L248.426 220.596L249.814 218.231L247.933 210.821L190.864 208.191ZM215.981 261.434C213.056 261.236 210.441 263.519 210.243 266.532C210.045 269.545 212.243 272.152 215.262 272.357C218.187 272.554 220.801 270.272 220.999 267.259C221.198 264.246 218.905 261.632 215.981 261.434ZM216.747 159.059L216.941 170.516L228.888 173.31L229.601 162.482L216.747 159.059ZM232.377 101.572C232.471 101.579 232.748 101.692 232.843 101.699C236.378 102.694 239.664 104.619 242.038 107.428C252.919 120.648 254.37 150.443 247.982 152.47C241.31 154.478 207.086 151.785 194.778 147.264C193.765 146.817 193.073 145.824 193.053 144.688C193.547 129.967 197.374 119.35 202.776 112.149C209.906 103.174 221.556 98.949 232.377 101.572ZM223.82 110.641C213.818 109.964 207.607 119.38 206.535 135.669C205.463 151.959 213.263 165.916 223.17 166.586C233.172 167.263 239.895 154.382 240.967 138.093C242.564 118.151 233.821 111.317 223.82 110.641ZM233.16 104.084C233.16 104.084 242.1 113.674 242.17 114.057C242.246 114.346 247.421 132.193 241.902 129.644C232.344 125.12 227.163 114.555 227.163 114.555L226.24 109.859L233.16 104.084ZM224.366 167.14C231.008 167.022 234.292 161.759 236.546 157.75C236.854 157.392 236.973 157.022 237.174 156.846C243.064 146.558 241.908 129.55 241.864 128.79C241.87 128.696 241.794 128.407 241.605 128.395C241.511 128.388 234.344 124.972 229.726 117.377C229.65 117.088 229.273 117.062 229.166 117.244C228.877 117.319 228.852 117.696 229.034 117.803C233.3 124.995 239.618 128.355 241.09 129.022C241.225 131.301 241.806 146.945 236.551 156.237C236.243 156.594 236.124 156.965 235.923 157.14C233.681 160.961 230.705 165.867 224.541 165.923C224.163 165.897 223.685 165.959 223.308 165.934C213.307 165.257 209.723 153.476 209.022 151.159C209.028 151.065 205.226 141.161 208.288 127.749C208.307 127.466 208.225 127.272 207.948 127.158C207.665 127.139 207.47 127.221 207.357 127.497C204.194 140.997 207.814 150.794 208.054 151.472C208.736 154.072 212.578 166.248 223.146 166.963C223.599 167.277 223.882 167.297 224.366 167.14ZM212.031 134.244C212.031 134.244 207.965 131.226 206.699 123.102C211.312 100.526 230.785 107.045 231.153 110.096C231.426 113.141 230.116 117.214 230.116 117.214C226.102 129.238 212.031 134.244 212.031 134.244ZM209.252 141.906C210.47 139.246 212.839 137.798 215.475 138.071C218.205 138.35 219.352 141.076 219.725 142.615C219.706 142.897 219.99 142.916 220.084 142.923C220.367 142.942 220.386 142.659 220.392 142.565C219.974 140.267 218.337 137.792 215.607 137.512C212.782 137.227 210.123 138.749 208.692 141.774C208.579 142.05 208.667 142.15 208.944 142.264L209.039 142.27C209.057 141.988 209.151 141.994 209.252 141.906ZM228.952 142.104C229.321 140.805 231.131 139.225 233.037 139.07C234.376 138.877 236.144 139.375 237.298 142.006C237.374 142.295 237.657 142.314 237.763 142.132C238.053 142.057 238.071 141.775 237.889 141.668C236.395 138.446 234.237 138.111 232.992 138.31C230.703 138.534 228.692 140.289 228.209 141.864C228.191 142.147 228.279 142.247 228.467 142.26C228.467 142.26 228.467 142.26 228.562 142.266C228.65 142.367 228.75 142.279 228.952 142.104ZM213.364 139.914C213.444 138.69 214.267 137.706 215.211 137.769C216.06 137.827 216.847 138.826 216.76 140.144C216.68 141.368 215.857 142.353 214.913 142.289C213.881 142.125 213.289 141.044 213.364 139.914ZM231.573 141.146C231.654 139.922 232.477 138.937 233.42 139.001C234.27 139.059 235.057 140.058 234.97 141.376C234.889 142.6 234.067 143.585 233.123 143.521C232.186 143.363 231.499 142.276 231.573 141.146ZM237.368 136.62C236.544 136.186 235.084 135.331 233.869 135.059C233.498 134.94 233.026 134.908 232.85 134.707L232.832 134.989L232.737 134.983L232.756 134.7C232.661 134.694 232.385 134.58 232.29 134.574L232.165 135.039L232.071 135.032L232.102 134.561L232.007 134.555C231.259 134.41 230.914 135.332 231.549 135.753C231.826 135.867 232.285 136.087 232.757 136.119C234.072 136.302 236.318 136.738 237.444 136.909C237.45 136.815 237.651 136.639 237.368 136.62ZM210.125 134.399C211.093 134.086 213.03 133.461 214.64 133.475C215.112 133.507 215.59 133.445 215.967 133.47L215.943 133.847L216.226 133.866L216.244 133.583C216.527 133.603 216.622 133.609 216.81 133.622L216.868 134.193L217.151 134.212L217.188 133.647C217.282 133.654 217.282 133.654 217.282 133.654C218.137 133.617 218.428 134.961 217.472 135.085C217.089 135.154 216.617 135.122 216.051 135.084C214.541 134.981 211.805 134.796 210.484 134.707C210.006 134.769 210.018 134.581 210.125 134.399ZM202.176 122.701L211.005 121.029L214.339 133.738C214.339 133.738 208.284 136.45 204.278 136.841L202.176 122.701ZM231.656 109.657C231.561 109.651 231.366 109.732 231.354 109.921C230.953 111.691 230.653 113.373 230.164 115.042C229.675 116.711 228.997 118.368 228.32 120.024C227.459 121.574 226.7 123.036 225.563 124.472C224.526 125.821 223.402 127.069 222 128.203C219.386 130.486 216.331 132.265 213.206 133.662C211.641 134.407 209.987 135.052 208.346 135.508C206.598 136.147 205.052 136.609 203.31 137.154C203.216 137.147 203.209 137.241 203.197 137.43C203.191 137.524 203.285 137.53 203.474 137.543C205.209 137.093 206.85 136.636 208.592 136.092C210.328 135.642 211.887 134.991 213.641 134.258C216.86 132.868 220.009 131.095 222.718 128.819C225.338 126.443 227.612 123.57 229.251 120.276C230.117 118.633 230.7 116.97 231.101 115.2C231.596 113.436 231.897 111.754 232.203 109.978C231.832 109.858 231.75 109.664 231.656 109.657ZM227.91 157.922C227.917 157.828 227.929 157.64 227.935 157.546C227.954 157.263 227.677 157.15 227.583 157.143L221.261 156.716C220.978 156.697 220.877 156.784 220.859 157.067C220.853 157.161 220.84 157.349 220.834 157.444C220.704 159.421 222.108 161.124 224.184 161.264C226.071 161.392 227.78 159.9 227.91 157.922ZM227.156 157.871C227.05 159.472 225.655 160.512 224.145 160.41C222.636 160.308 221.49 159.001 221.495 157.488L227.156 157.871ZM224.878 150.718C225.161 150.738 225.274 150.461 225.192 150.267L224.545 144.265C224.563 143.982 224.286 143.869 224.091 143.95C223.808 143.931 223.695 144.207 223.777 144.402L224.425 150.404C224.507 150.599 224.689 150.706 224.878 150.718ZM249.22 208.544L243.914 198.443L247.798 208.542L249.22 208.544ZM191.26 202.164L196.738 195.253L192.644 202.731L191.26 202.164ZM225.805 165.441C226.171 167.073 228.689 182.092 229.563 181.773L216.136 182.756L217.375 163.925L225.805 165.441ZM288.679 340.5C277.852 337.971 256.838 337.59 256.838 337.59L255.721 340.162L253.344 353.243C253.344 353.243 275.527 358.904 286.66 359.657C287.227 359.696 287.887 359.74 288.365 359.678C289.315 359.648 290.195 359.234 290.811 358.519C295.266 354.187 295.121 347.745 292.21 343.009C291.159 341.708 290.082 340.784 288.679 340.5ZM250.094 336.377L254.145 336.746C256.309 336.987 258.216 338.251 259.52 340.041C260.818 341.926 261.411 344.425 261.061 346.86C260.837 348.831 259.964 350.569 258.557 351.798C257.149 353.027 255.502 353.578 253.816 353.274L247.714 352.389L250.094 336.377ZM116.939 327.749C127.901 326.788 149.579 330.051 149.579 330.051L150.349 332.751L150.802 346.023C150.802 346.023 128.029 347.887 116.921 346.758C116.354 346.719 115.7 346.581 115.146 346.354C114.303 346.202 113.485 345.674 112.969 344.883C109.051 339.605 110.548 332.708 114.796 328.644C115.305 328.111 116.178 327.792 116.939 327.749ZM156.428 329.663L152.371 329.389C150.201 329.242 148.145 330.238 146.53 331.737C144.909 333.329 143.993 335.726 143.838 338.08C143.708 340.058 144.439 341.904 145.485 343.299C146.719 344.706 148.273 345.568 149.978 345.589L156.129 345.721L156.428 329.663ZM167.857 285.607L166.246 310.088L229.115 326.824L252.791 302.606L249.396 285.069L167.857 285.607ZM295.502 300.199C299.74 312.118 292.28 324.666 280.327 327.735C241.309 337.391 195.858 348.314 154.666 347.798C154.912 342.612 154.498 337.383 153.311 332.384C180.565 327.229 209.809 317.763 232.331 309.64C243.692 305.49 253.324 301.697 260.14 298.942C263.547 297.565 266.276 296.425 268.131 295.605C269.011 295.191 269.79 294.866 270.275 294.709C270.469 294.628 270.664 294.547 270.859 294.465C270.954 294.472 270.96 294.377 271.054 294.384C271.054 294.384 271.054 294.384 271.149 294.39C276.027 292.261 281.178 291.758 285.538 293.188C290.008 291.504 293.584 294.773 295.502 300.199ZM249.915 352.065L249.909 352.159C249.896 352.347 249.984 352.448 249.972 352.636C219.35 348.484 186.558 338.416 160.314 328.224C159.577 327.89 158.929 327.657 158.281 327.424C154.959 326.065 153.946 325.618 151.932 324.536C150.925 323.995 149.648 323.246 147.823 322.177C145.356 320.781 141.888 318.749 136.306 315.723C131.643 313.138 127.614 309.555 125.333 305.334C123.052 301.113 122.342 296.053 124.224 290.505C126.337 284.312 130.378 280.518 135.219 278.954C140.055 277.484 145.591 278.331 150.682 281.608C177.594 298.939 205.856 314.469 243.289 330.337C248.084 332.363 251.771 333.937 254.729 335.083L254.722 335.177C251.639 340.265 250.129 345.932 249.915 352.065ZM216.602 164.156L230.341 154.114L231.47 157.123C231.47 157.123 229.746 163.154 229.608 163.806C229.458 164.647 228.956 172.274 229.57 175.91C230.184 179.545 256.393 185.952 257.318 186.298C260.086 187.431 264.17 188.748 265.128 197.23C266.333 207.715 267.961 218.985 268.62 230.568C269.823 251.173 261.564 257.14 261.3 269.796C254.283 272.726 254.124 276.593 247.107 279.523L248.372 235.819C248.348 230.427 248.482 219.749 248.482 219.749C248.544 218.807 248.18 212.824 247.277 209.264L216.602 164.156ZM192.24 207.433C190.879 210.84 189.734 216.721 189.672 217.662C189.672 217.662 188.405 228.264 187.675 233.605L183.326 275.209C176.755 271.36 177.104 267.506 170.533 263.657C171.93 251.078 163.734 237.377 167.475 223.727C170.584 212.494 173.68 201.448 176.248 191.218C178.31 182.941 182.529 182.186 185.422 181.435C186.384 181.217 214.238 178.467 215.228 174.94C216.219 171.413 216.714 163.88 216.776 162.938C216.725 162.273 214.864 155.999 214.864 155.999L216.377 153.17L228.679 164.973L192.24 207.433ZM193.09 201.721C193.09 201.721 184.794 214.022 186.135 222.436C186.135 222.436 187.263 231.213 189.363 236.746C191.47 242.185 187.641 262.922 187.641 262.922L180.219 282.092L242.144 291.577C243.912 279.118 243.111 289.846 244.538 276.796C245.723 266 244.579 254.573 245.499 243.475C245.965 237.832 249.896 231.383 250.274 225.639C250.522 221.873 250.671 219.613 249.717 215.387C243.48 205.035 237.337 194.688 231.1 184.336L207.418 182.734L193.09 201.721ZM255.914 299.791L167.601 293.818C162.128 293.447 158.092 288.54 158.445 283.173L161.705 233.646C162.07 228.09 166.89 223.971 172.174 224.329L260.581 230.309C266.054 230.679 270.09 235.586 269.737 240.953L266.478 290.48C266.125 295.847 261.292 300.155 255.914 299.791ZM187.485 213.448C187.485 213.448 188.074 211.69 188.947 209.953C193.171 200.497 198.843 193.503 202.951 187.255C204.96 184.081 207.052 181.101 209.061 177.927L212.036 177.372C212.036 177.372 221.087 183.848 232.988 178.694L235.757 179.827C236.847 181.982 240.51 191.12 241.153 192.866C244.262 200.359 245.233 202.883 246.304 205.32C247.452 208.046 249.167 212.229 250.229 217.692L187.485 213.448ZM209.533 177.959L211.972 176.895L212.036 177.372L211.892 178.119L209.533 177.959ZM272.908 343.973C272.452 346.59 272.09 349.214 271.809 352.033L272.908 343.973ZM278.852 344.375C278.396 346.993 278.034 349.616 277.753 352.435L278.852 344.375ZM127.115 332.977C126.659 335.594 126.296 338.218 126.016 341.036L127.115 332.977ZM133.059 333.379C132.603 335.996 132.24 338.62 131.96 341.438L133.059 333.379ZM190.864 208.191L187.875 213.285C186.727 216.328 187.819 214.132 188.178 214.44L193.811 218.131L248.426 220.596L249.814 218.231L247.933 210.821L190.864 208.191ZM215.262 272.357C218.187 272.554 220.801 270.272 220.999 267.259C221.198 264.246 219 261.638 215.981 261.434C213.056 261.236 210.441 263.519 210.243 266.532C210.045 269.545 212.243 272.152 215.262 272.357ZM216.933 156.234L216.184 167.627L229.269 170.404L229.799 159.469L216.933 156.234ZM202.864 112.25C197.267 119.532 193.642 129.974 193.141 144.789C193.066 145.919 193.847 147.012 194.867 147.364C207.168 151.979 241.298 154.666 247.976 152.564C254.257 150.719 252.907 120.836 242.031 107.522C239.752 104.719 236.378 102.694 232.836 101.793C232.742 101.786 232.465 101.673 232.371 101.667C221.556 98.949 209.906 103.174 202.864 112.25ZM241.244 138.206C240.172 154.496 233.354 167.37 223.447 166.7C213.54 166.03 205.74 152.072 206.812 135.783C207.884 119.493 214.095 110.077 224.096 110.754C233.821 111.317 242.564 118.151 241.244 138.206ZM226.429 109.871L227.352 114.568C227.352 114.568 232.532 125.133 242.091 129.657C247.603 132.3 242.535 114.271 242.359 114.07C242.283 113.781 233.348 104.097 233.348 104.097L226.429 109.871ZM223.039 167.145C212.377 166.424 208.44 154.241 207.752 151.735C207.506 151.151 203.893 141.26 207.049 127.854C207.068 127.572 207.357 127.497 207.64 127.516C207.923 127.535 207.999 127.824 207.98 128.106C204.824 141.512 208.632 151.322 208.714 151.517C209.409 153.928 213.093 165.621 223.189 166.304C223.566 166.33 224.038 166.361 224.422 166.293C230.686 166.149 233.656 161.337 235.992 157.523C236.206 157.159 236.413 156.89 236.627 156.526C242.071 147.247 241.389 131.69 241.254 129.411C239.876 128.751 233.369 125.379 229.01 118.179C228.833 117.978 228.946 117.702 229.147 117.527C229.348 117.351 229.625 117.465 229.802 117.666C234.514 125.267 241.782 128.596 241.876 128.602C242.059 128.709 242.147 128.81 242.134 128.998C242.179 129.758 243.341 146.671 237.451 156.96C237.238 157.324 237.03 157.593 236.817 157.957C234.481 161.771 231.19 167.129 224.454 167.241C223.982 167.209 223.511 167.177 223.039 167.145ZM229.933 117.107C229.933 117.107 231.244 113.034 230.97 109.989C230.697 106.944 211.129 100.419 206.516 122.995C207.782 131.119 211.848 134.137 211.848 134.137C211.848 134.137 226.102 129.238 229.933 117.107ZM208.868 141.975L208.774 141.968C208.497 141.855 208.51 141.667 208.522 141.478C209.953 138.454 212.518 136.925 215.436 137.217C218.166 137.496 219.798 140.066 220.222 142.27C220.203 142.552 220.102 142.64 219.914 142.627C219.631 142.608 219.543 142.508 219.555 142.319C219.271 140.881 218.035 138.055 215.305 137.776C212.669 137.503 210.306 138.856 209.082 141.611C209.151 141.994 209.057 141.988 208.868 141.975ZM228.556 142.361C228.461 142.354 228.461 142.354 228.556 142.361C228.272 142.341 228.197 142.053 228.203 141.958C228.686 140.383 230.697 138.628 232.986 138.404C234.231 138.205 236.383 138.634 237.883 141.762C237.971 141.862 237.858 142.139 237.757 142.226C237.657 142.314 237.38 142.201 237.292 142.1C236.044 139.462 234.276 138.964 233.031 139.164C231.125 139.319 229.221 140.892 228.945 142.198C228.75 142.279 228.65 142.367 228.556 142.361ZM214.607 144.065C215.456 144.123 216.367 143.239 216.454 141.92C216.534 140.696 215.848 139.609 214.904 139.546C214.055 139.488 213.144 140.372 213.057 141.691C213.165 142.927 213.758 144.008 214.607 144.065ZM233.005 145.31C233.854 145.367 234.766 144.483 234.852 143.165C234.933 141.941 234.246 140.854 233.303 140.79C232.454 140.733 231.542 141.617 231.456 142.935C231.375 144.159 232.062 145.246 233.005 145.31ZM237.356 136.808C236.135 136.631 233.984 136.202 232.669 136.018C232.197 135.986 231.732 135.86 231.461 135.653C230.725 135.319 231.164 134.403 231.919 134.454L232.013 134.461L231.888 134.925L231.982 134.932L232.108 134.467C232.202 134.474 232.485 134.493 232.573 134.593L232.555 134.876L232.649 134.882L232.668 134.6C233.045 134.625 233.416 134.745 233.687 134.952C234.895 135.318 236.361 136.079 237.186 136.513C237.651 136.639 237.45 136.815 237.356 136.808ZM210.1 134.776C211.421 134.865 214.252 135.056 215.667 135.152C216.233 135.19 216.705 135.222 217.089 135.154C217.956 134.929 217.76 133.591 216.899 133.722L216.804 133.716L216.767 134.281L216.484 134.262L216.427 133.69C216.144 133.671 216.049 133.665 215.861 133.652L215.842 133.934L215.559 133.915L215.584 133.539C215.206 133.513 214.728 133.575 214.257 133.544C212.835 133.542 210.899 134.168 209.742 134.468C210.018 134.581 210.006 134.769 210.1 134.776ZM204.284 136.747C208.379 136.456 214.345 133.644 214.345 133.644L211.011 120.934L202.182 122.607L204.284 136.747ZM231.826 109.953C231.614 111.735 231.219 113.411 230.724 115.174C230.229 116.938 229.645 118.601 228.873 120.251C227.329 123.551 225.15 126.43 222.341 128.794C219.72 131.17 216.483 132.843 213.264 134.233C211.698 134.978 209.963 135.428 208.215 136.067C206.479 136.517 204.832 137.067 203.096 137.518C203.002 137.511 202.813 137.498 202.82 137.404C202.826 137.31 202.838 137.122 202.932 137.128C204.668 136.678 206.315 136.127 207.969 135.483C209.717 134.844 211.27 134.287 212.829 133.636C216.054 132.152 219.103 130.467 221.623 128.178C222.93 127.037 224.149 125.795 225.185 124.447C226.222 123.098 227.176 121.555 227.942 119.999C228.802 118.449 229.386 116.786 229.786 115.016C230.275 113.347 230.771 111.584 230.976 109.895C230.983 109.801 231.089 109.619 231.278 109.632C231.75 109.664 231.832 109.858 231.826 109.953ZM224.784 150.712C224.689 150.706 224.412 150.592 224.431 150.31L223.784 144.308C223.802 144.025 223.903 143.937 224.098 143.856C224.381 143.875 224.469 143.976 224.551 144.17L225.198 150.173C225.274 150.461 225.161 150.738 224.784 150.712C224.878 150.718 224.878 150.718 224.784 150.712ZM228.112 157.747C227.873 158.487 225.717 159.571 223.76 159.06L228.112 157.747Z" fill="#FFB28B"/>
<path d="M187.641 262.922C187.641 262.922 191.47 242.185 189.363 236.746C187.263 231.213 186.135 222.436 186.135 222.436C184.794 214.022 193.09 201.721 193.09 201.721L207.418 182.734L231.1 184.336C237.337 194.688 243.48 205.035 249.717 215.387C250.671 219.613 250.522 221.873 250.274 225.639C249.896 231.383 245.965 237.832 245.499 243.475C244.579 254.573 245.723 266 244.538 276.796M187.641 262.922L178.036 300.86L239.961 310.345C241.729 297.886 243.111 289.846 244.538 276.796M187.641 262.922L180.219 282.092L242.144 291.577C243.912 279.118 243.111 289.846 244.538 276.796M253.816 353.274L247.714 352.389L250.094 336.377L254.145 336.746M253.816 353.274C255.508 353.483 257.243 353.033 258.557 351.798M253.816 353.274C255.502 353.578 257.149 353.027 258.557 351.798M258.557 351.798C259.964 350.569 260.743 348.825 261.061 346.86M258.557 351.798C259.964 350.569 260.837 348.831 261.061 346.86M261.061 346.86C261.317 344.419 260.811 342.02 259.52 340.041M261.061 346.86C261.411 344.425 260.818 341.926 259.52 340.041M259.52 340.041C258.222 338.156 256.315 336.892 254.145 336.746M259.52 340.041C258.216 338.251 256.309 336.987 254.145 336.746M167.857 285.607L166.246 310.088L229.115 326.824L252.791 302.606M167.857 285.607L249.302 285.062L252.791 302.606M167.857 285.607L249.396 285.069L252.791 302.606M212.036 177.372L211.892 178.119L209.533 177.959L211.972 176.895L212.036 177.372ZM212.036 177.372L209.061 177.927C207.052 181.101 204.96 184.081 202.951 187.255C198.843 193.503 193.171 200.497 188.947 209.953C188.074 211.69 187.485 213.448 187.485 213.448L250.229 217.692C249.167 212.229 247.452 208.046 246.304 205.32C245.233 202.883 244.262 200.359 241.153 192.866C240.51 191.12 236.847 181.982 235.757 179.827L232.988 178.694C221.087 183.848 212.036 177.372 212.036 177.372ZM215.981 261.434C213.056 261.236 210.441 263.519 210.243 266.532C210.045 269.545 212.243 272.152 215.262 272.357C218.187 272.554 220.801 270.272 220.999 267.259M215.981 261.434C218.905 261.632 221.198 264.246 220.999 267.259M215.981 261.434C219 261.638 221.198 264.246 220.999 267.259M228.556 142.361C228.461 142.354 228.461 142.354 228.556 142.361ZM228.556 142.361C228.272 142.341 228.197 142.053 228.203 141.958C228.686 140.383 230.697 138.628 232.986 138.404C234.231 138.205 236.383 138.634 237.883 141.762C237.971 141.862 237.858 142.139 237.757 142.226C237.657 142.314 237.38 142.201 237.292 142.1C236.044 139.462 234.276 138.964 233.031 139.164C231.125 139.319 229.221 140.892 228.945 142.198C228.75 142.279 228.65 142.367 228.556 142.361ZM224.784 150.712C224.689 150.706 224.412 150.592 224.431 150.31L223.784 144.308C223.802 144.025 223.903 143.937 224.098 143.856C224.381 143.875 224.469 143.976 224.551 144.17L225.198 150.173C225.274 150.461 225.161 150.738 224.784 150.712ZM224.784 150.712C224.878 150.718 224.878 150.718 224.784 150.712ZM228.112 157.747C227.873 158.487 225.717 159.571 223.76 159.06M223.031 171.59L225.043 184.21L229.469 181.767C229.469 181.767 227.668 173.133 226.522 171.826L223.031 171.59ZM288.679 340.5C277.852 337.971 256.838 337.59 256.838 337.59L255.721 340.162L253.344 353.243C253.344 353.243 275.527 358.904 286.66 359.657C287.227 359.696 287.887 359.74 288.365 359.678C289.315 359.648 290.195 359.234 290.811 358.519C295.266 354.187 295.121 347.745 292.21 343.009C291.159 341.708 290.082 340.784 288.679 340.5ZM114.783 328.833C110.624 332.996 109.033 339.888 112.956 345.071C113.473 345.862 114.291 346.391 115.134 346.542C115.694 346.675 116.354 346.719 116.908 346.946C127.922 348.069 150.79 346.211 150.79 346.211L150.242 332.933L149.472 330.233C149.472 330.233 127.795 326.97 116.833 327.931C116.178 327.792 115.305 328.111 114.783 328.833ZM156.428 329.663L152.371 329.389C150.201 329.242 148.145 330.238 146.53 331.737C144.909 333.329 143.993 335.726 143.838 338.08C143.708 340.058 144.439 341.904 145.485 343.299C146.719 344.706 148.273 345.568 149.978 345.589L156.129 345.721L156.428 329.663ZM296.086 299.955C292.176 288.814 281.059 286.359 270.918 290.686C270.806 290.962 207.571 318.652 152.779 328.944C153.954 334.13 154.456 339.461 154.198 344.834C154.117 346.058 154.049 347.094 153.968 348.318C195.437 348.947 241.177 337.949 280.39 328.212C292.727 325.074 300.394 312.257 296.086 299.955ZM250.481 352.103C250.783 346.071 252.193 340.491 254.993 335.384C255.106 335.108 255.118 334.92 255.326 334.65C252.274 333.498 248.492 331.918 243.427 329.684C206.088 313.823 177.826 298.292 150.914 280.961C140.555 274.208 127.928 277.42 123.582 290.178C119.706 301.549 126.389 310.891 135.904 316.075C155.469 326.95 150.127 324.603 160.006 328.581C186.527 338.887 219.508 348.968 250.413 353.139C250.52 352.957 250.544 352.58 250.481 352.103ZM266.49 290.292L269.75 240.765C270.115 235.209 265.878 230.478 260.594 230.12L172.186 224.14C166.714 223.77 162.07 228.09 161.717 233.457L158.458 282.985C158.092 288.54 162.33 293.272 167.613 293.629L256.021 299.609C261.292 300.155 266.125 295.847 266.49 290.292ZM250.417 217.704C249.362 212.147 247.64 208.059 246.493 205.333C245.428 202.802 244.45 200.371 241.342 192.879C240.604 191.126 236.036 182.778 235.034 180.724L232.467 179.416C220.565 184.569 212.218 177.479 212.218 177.479L209.244 178.034C207.247 181.02 205.143 184.188 203.133 187.362C199.026 193.61 193.353 200.604 189.129 210.059C188.257 211.797 187.667 213.555 187.667 213.555L250.411 217.798L250.417 217.704ZM272.908 343.973C272.452 346.59 272.09 349.214 271.809 352.033L272.908 343.973ZM278.852 344.375C278.396 346.993 278.034 349.616 277.753 352.435L278.852 344.375ZM127.115 332.977C126.659 335.594 126.296 338.218 126.016 341.036L127.115 332.977ZM133.059 333.379C132.603 335.996 132.24 338.62 131.96 341.438L133.059 333.379ZM190.864 208.191L187.875 213.285C186.727 216.328 187.819 214.132 188.178 214.44L193.811 218.131L248.426 220.596L249.814 218.231L247.933 210.821L190.864 208.191ZM216.747 159.059L216.941 170.516L228.888 173.31L229.601 162.482L216.747 159.059ZM232.377 101.572C232.471 101.579 232.748 101.692 232.843 101.699C236.378 102.694 239.664 104.619 242.038 107.428C252.919 120.648 254.37 150.443 247.982 152.47C241.31 154.478 207.086 151.785 194.778 147.264C193.765 146.817 193.073 145.824 193.053 144.688C193.547 129.967 197.374 119.35 202.776 112.149C209.906 103.174 221.556 98.949 232.377 101.572ZM223.82 110.641C213.818 109.964 207.607 119.38 206.535 135.669C205.463 151.959 213.263 165.916 223.17 166.586C233.172 167.263 239.895 154.382 240.967 138.093C242.564 118.151 233.821 111.317 223.82 110.641ZM233.16 104.084C233.16 104.084 242.1 113.674 242.17 114.057C242.246 114.346 247.421 132.193 241.902 129.644C232.344 125.12 227.163 114.555 227.163 114.555L226.24 109.859L233.16 104.084ZM224.366 167.14C231.008 167.022 234.292 161.759 236.546 157.75C236.854 157.392 236.973 157.022 237.174 156.846C243.064 146.558 241.908 129.55 241.864 128.79C241.87 128.696 241.794 128.407 241.605 128.395C241.511 128.388 234.344 124.972 229.726 117.377C229.65 117.088 229.273 117.062 229.166 117.244C228.877 117.319 228.852 117.696 229.034 117.803C233.3 124.995 239.618 128.355 241.09 129.022C241.225 131.301 241.806 146.945 236.551 156.237C236.243 156.594 236.124 156.965 235.923 157.14C233.681 160.961 230.705 165.867 224.541 165.923C224.163 165.897 223.685 165.959 223.308 165.934C213.307 165.257 209.723 153.476 209.022 151.159C209.028 151.065 205.226 141.161 208.288 127.749C208.307 127.466 208.225 127.272 207.948 127.158C207.665 127.139 207.47 127.221 207.357 127.497C204.194 140.997 207.814 150.794 208.054 151.472C208.736 154.072 212.578 166.248 223.146 166.963C223.599 167.277 223.882 167.297 224.366 167.14ZM212.031 134.244C212.031 134.244 207.965 131.226 206.699 123.102C211.312 100.526 230.785 107.045 231.153 110.096C231.426 113.141 230.116 117.214 230.116 117.214C226.102 129.238 212.031 134.244 212.031 134.244ZM209.252 141.906C210.47 139.246 212.839 137.798 215.475 138.071C218.205 138.35 219.352 141.076 219.725 142.615C219.706 142.897 219.99 142.916 220.084 142.923C220.367 142.942 220.386 142.659 220.392 142.565C219.974 140.267 218.337 137.792 215.607 137.512C212.782 137.227 210.123 138.749 208.692 141.774C208.579 142.05 208.667 142.15 208.944 142.264L209.039 142.27C209.057 141.988 209.151 141.994 209.252 141.906ZM228.952 142.104C229.321 140.805 231.131 139.225 233.037 139.07C234.376 138.877 236.144 139.375 237.298 142.006C237.374 142.295 237.657 142.314 237.763 142.132C238.053 142.057 238.071 141.775 237.889 141.668C236.395 138.446 234.237 138.111 232.992 138.31C230.703 138.534 228.692 140.289 228.209 141.864C228.191 142.147 228.279 142.247 228.467 142.26C228.467 142.26 228.467 142.26 228.562 142.266C228.65 142.367 228.75 142.279 228.952 142.104ZM213.364 139.914C213.444 138.69 214.267 137.706 215.211 137.769C216.06 137.827 216.847 138.826 216.76 140.144C216.68 141.368 215.857 142.353 214.913 142.289C213.881 142.125 213.289 141.044 213.364 139.914ZM231.573 141.146C231.654 139.922 232.477 138.937 233.42 139.001C234.27 139.059 235.057 140.058 234.97 141.376C234.889 142.6 234.067 143.585 233.123 143.521C232.186 143.363 231.499 142.276 231.573 141.146ZM237.368 136.62C236.544 136.186 235.084 135.331 233.869 135.059C233.498 134.94 233.026 134.908 232.85 134.707L232.832 134.989L232.737 134.983L232.756 134.7C232.661 134.694 232.385 134.58 232.29 134.574L232.165 135.039L232.071 135.032L232.102 134.561L232.007 134.555C231.259 134.41 230.914 135.332 231.549 135.754C231.826 135.867 232.285 136.087 232.757 136.119C234.072 136.302 236.318 136.738 237.444 136.909C237.45 136.815 237.651 136.639 237.368 136.62ZM210.125 134.399C211.093 134.086 213.03 133.461 214.64 133.475C215.112 133.507 215.59 133.445 215.967 133.47L215.943 133.847L216.226 133.866L216.244 133.583C216.527 133.603 216.622 133.609 216.81 133.622L216.868 134.193L217.151 134.212L217.188 133.647C217.282 133.654 217.282 133.654 217.282 133.654C218.137 133.617 218.428 134.961 217.472 135.085C217.089 135.154 216.617 135.122 216.051 135.084C214.541 134.981 211.805 134.796 210.484 134.707C210.006 134.769 210.018 134.581 210.125 134.399ZM202.176 122.701L211.005 121.029L214.339 133.738C214.339 133.738 208.284 136.45 204.278 136.841L202.176 122.701ZM231.656 109.657C231.561 109.651 231.366 109.732 231.354 109.921C230.953 111.691 230.653 113.373 230.164 115.042C229.675 116.711 228.997 118.368 228.32 120.024C227.459 121.574 226.7 123.036 225.563 124.472C224.526 125.821 223.402 127.069 222 128.203C219.386 130.486 216.331 132.265 213.206 133.662C211.641 134.407 209.987 135.052 208.346 135.508C206.598 136.147 205.052 136.609 203.31 137.154C203.216 137.147 203.209 137.241 203.197 137.43C203.191 137.524 203.285 137.53 203.474 137.543C205.209 137.093 206.85 136.636 208.592 136.092C210.328 135.642 211.887 134.991 213.641 134.258C216.86 132.868 220.009 131.095 222.718 128.819C225.338 126.443 227.612 123.57 229.251 120.276C230.117 118.633 230.7 116.97 231.101 115.2C231.596 113.436 231.897 111.754 232.203 109.978C231.832 109.858 231.75 109.664 231.656 109.657ZM227.91 157.922C227.917 157.828 227.929 157.64 227.935 157.546C227.954 157.263 227.677 157.15 227.583 157.143L221.261 156.716C220.978 156.697 220.877 156.784 220.859 157.067C220.853 157.161 220.84 157.349 220.834 157.444C220.704 159.421 222.108 161.124 224.184 161.264C226.071 161.392 227.78 159.9 227.91 157.922ZM227.156 157.871C227.05 159.472 225.655 160.512 224.145 160.41C222.636 160.308 221.49 159.001 221.495 157.488L227.156 157.871ZM224.878 150.718C225.161 150.738 225.274 150.461 225.192 150.267L224.545 144.265C224.563 143.982 224.286 143.869 224.091 143.95C223.808 143.931 223.695 144.207 223.777 144.402L224.425 150.404C224.507 150.599 224.689 150.706 224.878 150.718ZM249.22 208.544L243.914 198.443L247.798 208.542L249.22 208.544ZM191.26 202.164L196.738 195.253L192.644 202.731L191.26 202.164ZM225.805 165.441C226.171 167.073 228.689 182.092 229.563 181.773L216.136 182.756L217.375 163.925L225.805 165.441ZM116.939 327.749C127.901 326.788 149.579 330.051 149.579 330.051L150.349 332.751L150.802 346.023C150.802 346.023 128.029 347.887 116.921 346.758C116.354 346.719 115.7 346.581 115.146 346.354C114.303 346.202 113.485 345.674 112.969 344.883C109.051 339.605 110.548 332.708 114.796 328.644C115.305 328.111 116.178 327.792 116.939 327.749ZM295.502 300.199C299.74 312.118 292.28 324.666 280.327 327.735C241.309 337.391 195.858 348.314 154.666 347.798C154.912 342.612 154.498 337.383 153.311 332.384C180.565 327.229 209.809 317.763 232.331 309.64C243.692 305.49 253.324 301.697 260.14 298.942C263.547 297.565 266.276 296.425 268.131 295.605C269.011 295.191 269.79 294.866 270.275 294.709C270.469 294.628 270.664 294.547 270.859 294.465C270.954 294.472 270.96 294.377 271.054 294.384C271.054 294.384 271.054 294.384 271.149 294.39C276.027 292.261 281.178 291.758 285.538 293.188C290.008 291.504 293.584 294.773 295.502 300.199ZM249.915 352.065L249.909 352.159C249.896 352.347 249.984 352.448 249.972 352.636C219.35 348.484 186.558 338.416 160.314 328.224C159.577 327.89 158.929 327.657 158.281 327.424C154.959 326.065 153.946 325.618 151.932 324.536C150.925 323.995 149.648 323.246 147.823 322.177C145.356 320.781 141.888 318.749 136.306 315.723C131.643 313.138 127.614 309.555 125.333 305.334C123.052 301.113 122.342 296.053 124.224 290.505C126.337 284.312 130.378 280.518 135.219 278.954C140.055 277.484 145.591 278.331 150.682 281.608C177.594 298.939 205.856 314.469 243.289 330.337C248.084 332.363 251.771 333.937 254.729 335.083L254.722 335.177C251.639 340.265 250.129 345.932 249.915 352.065ZM216.602 164.156L230.341 154.114L231.47 157.123C231.47 157.123 229.746 163.154 229.608 163.806C229.458 164.647 228.956 172.274 229.57 175.91C230.184 179.545 256.393 185.952 257.318 186.298C260.086 187.431 264.17 188.748 265.128 197.23C266.333 207.715 267.961 218.985 268.62 230.568C269.823 251.173 261.564 257.14 261.3 269.796C254.283 272.726 254.124 276.593 247.107 279.523L248.372 235.819C248.348 230.427 248.482 219.749 248.482 219.749C248.544 218.807 248.18 212.824 247.277 209.264L216.602 164.156ZM192.24 207.433C190.879 210.84 189.734 216.721 189.672 217.662C189.672 217.662 188.405 228.264 187.675 233.605L183.326 275.209C176.755 271.36 177.104 267.506 170.533 263.657C171.93 251.078 163.734 237.377 167.475 223.727C170.584 212.494 173.68 201.448 176.248 191.218C178.31 182.941 182.529 182.186 185.422 181.435C186.384 181.217 214.238 178.467 215.228 174.94C216.219 171.413 216.714 163.88 216.776 162.938C216.725 162.273 214.864 155.999 214.864 155.999L216.377 153.17L228.679 164.973L192.24 207.433ZM255.914 299.791L167.601 293.818C162.128 293.447 158.092 288.54 158.445 283.173L161.705 233.646C162.07 228.09 166.89 223.971 172.174 224.329L260.581 230.309C266.054 230.679 270.09 235.586 269.737 240.953L266.478 290.48C266.125 295.847 261.292 300.155 255.914 299.791ZM216.933 156.234L216.184 167.627L229.269 170.404L229.799 159.469L216.933 156.234ZM202.864 112.25C197.267 119.532 193.642 129.974 193.141 144.789C193.066 145.919 193.847 147.012 194.867 147.364C207.168 151.979 241.298 154.666 247.976 152.564C254.257 150.719 252.907 120.836 242.031 107.522C239.752 104.719 236.378 102.694 232.836 101.793C232.742 101.786 232.465 101.673 232.371 101.667C221.556 98.949 209.906 103.174 202.864 112.25ZM241.244 138.206C240.172 154.496 233.354 167.37 223.447 166.7C213.54 166.03 205.74 152.072 206.812 135.783C207.884 119.493 214.095 110.077 224.096 110.754C233.821 111.317 242.564 118.151 241.244 138.206ZM226.429 109.871L227.352 114.568C227.352 114.568 232.532 125.133 242.091 129.657C247.603 132.3 242.535 114.271 242.359 114.07C242.283 113.781 233.348 104.097 233.348 104.097L226.429 109.871ZM223.039 167.145C212.377 166.424 208.44 154.241 207.752 151.735C207.506 151.151 203.893 141.26 207.049 127.854C207.068 127.572 207.357 127.497 207.64 127.516C207.923 127.535 207.999 127.824 207.98 128.106C204.824 141.512 208.632 151.322 208.714 151.517C209.409 153.928 213.093 165.621 223.189 166.304C223.566 166.33 224.038 166.361 224.422 166.293C230.686 166.149 233.656 161.337 235.992 157.523C236.206 157.159 236.413 156.89 236.627 156.526C242.071 147.247 241.389 131.69 241.254 129.411C239.876 128.751 233.369 125.379 229.01 118.179C228.833 117.978 228.946 117.702 229.147 117.527C229.348 117.351 229.625 117.465 229.802 117.666C234.514 125.267 241.782 128.596 241.876 128.602C242.059 128.709 242.147 128.81 242.134 128.998C242.179 129.758 243.341 146.671 237.451 156.96C237.238 157.324 237.03 157.593 236.817 157.957C234.481 161.771 231.19 167.129 224.454 167.241C223.982 167.209 223.511 167.177 223.039 167.145ZM229.933 117.107C229.933 117.107 231.244 113.034 230.97 109.989C230.697 106.944 211.129 100.419 206.516 122.995C207.782 131.119 211.848 134.137 211.848 134.137C211.848 134.137 226.102 129.238 229.933 117.107ZM208.868 141.975L208.774 141.968C208.497 141.855 208.51 141.667 208.522 141.478C209.953 138.454 212.518 136.925 215.436 137.217C218.166 137.496 219.798 140.066 220.222 142.27C220.203 142.552 220.102 142.64 219.914 142.627C219.631 142.608 219.543 142.508 219.555 142.319C219.271 140.881 218.035 138.055 215.305 137.776C212.669 137.503 210.306 138.856 209.082 141.611C209.151 141.994 209.057 141.988 208.868 141.975ZM214.607 144.065C215.456 144.123 216.367 143.239 216.454 141.92C216.534 140.696 215.848 139.609 214.904 139.546C214.055 139.488 213.144 140.372 213.057 141.691C213.165 142.927 213.758 144.008 214.607 144.065ZM233.005 145.31C233.854 145.367 234.766 144.483 234.852 143.165C234.933 141.941 234.246 140.854 233.303 140.79C232.454 140.733 231.542 141.617 231.456 142.935C231.375 144.159 232.062 145.246 233.005 145.31ZM237.356 136.808C236.135 136.631 233.984 136.202 232.669 136.018C232.197 135.986 231.732 135.86 231.461 135.653C230.725 135.319 231.164 134.403 231.919 134.454L232.013 134.461L231.888 134.925L231.982 134.932L232.108 134.467C232.202 134.474 232.485 134.493 232.573 134.593L232.555 134.876L232.649 134.882L232.668 134.6C233.045 134.625 233.416 134.745 233.687 134.952C234.895 135.318 236.361 136.079 237.186 136.513C237.651 136.639 237.45 136.815 237.356 136.808ZM210.1 134.776C211.421 134.865 214.252 135.056 215.667 135.152C216.233 135.19 216.705 135.222 217.089 135.154C217.956 134.929 217.76 133.591 216.899 133.722L216.804 133.716L216.767 134.281L216.484 134.262L216.427 133.69C216.144 133.671 216.049 133.665 215.861 133.652L215.842 133.934L215.559 133.915L215.584 133.539C215.206 133.513 214.728 133.575 214.257 133.544C212.835 133.542 210.899 134.168 209.742 134.468C210.018 134.581 210.006 134.769 210.1 134.776ZM204.284 136.747C208.379 136.456 214.345 133.644 214.345 133.644L211.011 120.934L202.182 122.607L204.284 136.747ZM231.826 109.953C231.614 111.735 231.219 113.411 230.724 115.174C230.229 116.938 229.645 118.601 228.873 120.251C227.329 123.551 225.15 126.43 222.341 128.794C219.72 131.17 216.483 132.843 213.264 134.233C211.698 134.978 209.963 135.428 208.215 136.067C206.479 136.517 204.832 137.067 203.096 137.518C203.002 137.511 202.813 137.498 202.82 137.404C202.826 137.31 202.838 137.122 202.932 137.128C204.668 136.678 206.315 136.127 207.969 135.483C209.717 134.844 211.27 134.287 212.829 133.636C216.054 132.152 219.103 130.467 221.623 128.178C222.93 127.037 224.149 125.795 225.185 124.447C226.222 123.098 227.176 121.555 227.942 119.999C228.802 118.449 229.386 116.786 229.786 115.016C230.275 113.347 230.771 111.584 230.976 109.895C230.983 109.801 231.089 109.619 231.278 109.632C231.75 109.664 231.832 109.858 231.826 109.953Z" stroke="#2B2D60" stroke-width="4.72183" stroke-miterlimit="10"/>
<path d="M193.056 201.719C193.056 201.719 184.756 214.023 186.098 222.438C186.098 222.438 187.227 231.218 189.328 236.752C191.435 242.191 187.605 262.933 187.605 262.933L177.685 305.587L239.64 315.074C241.408 302.612 243.101 289.862 244.529 276.809C245.714 266.011 244.57 254.582 245.49 243.482C245.957 237.838 249.889 231.387 250.268 225.642C250.516 221.875 250.664 219.615 249.71 215.388C243.47 205.034 237.324 194.686 231.085 184.331L207.391 182.729L193.056 201.719Z" fill="#FFB28B"/>
<path d="M223.06 171.538L225.074 184.161L229.5 181.717C229.5 181.717 227.699 173.081 226.552 171.774L223.06 171.538Z" fill="#FFB28B"/>
<path d="M288.463 340.522C277.645 337.996 256.648 337.615 256.648 337.615L255.532 340.185L253.157 353.25C253.157 353.25 275.322 358.905 286.446 359.657C287.012 359.696 287.672 359.74 288.149 359.678C289.098 359.648 289.977 359.235 290.593 358.521C295.044 354.193 294.899 347.759 291.991 343.028C290.941 341.729 289.865 340.806 288.463 340.522Z" fill="#FFB28B"/>
<path d="M247.536 352.419L253.637 353.305C255.329 353.514 257.065 353.064 258.378 351.829C259.785 350.6 260.563 348.856 260.882 346.891C261.138 344.45 260.632 342.051 259.341 340.072C258.044 338.188 256.137 336.924 253.967 336.777L249.916 336.409L247.536 352.419Z" fill="#FFB28B"/>
<path d="M114.777 329C110.621 333.159 109.032 340.042 112.952 345.219C113.468 346.01 114.286 346.537 115.128 346.689C115.687 346.821 116.347 346.866 116.9 347.092C127.906 348.214 150.754 346.358 150.754 346.358L150.207 333.096L149.438 330.399C149.438 330.399 127.778 327.14 116.825 328.099C116.171 327.961 115.298 328.28 114.777 329Z" fill="#FFB28B"/>
<path d="M156.386 329.8L152.329 329.525C150.159 329.379 148.103 330.374 146.489 331.873C144.868 333.465 143.952 335.862 143.797 338.216C143.667 340.193 144.398 342.039 145.443 343.434C146.678 344.842 148.232 345.703 149.936 345.724L156.087 345.856L156.386 329.8Z" fill="#FFB28B"/>
<path d="M167.5 290.389L165.89 314.843L228.708 331.56L252.365 307.37L248.878 289.846L167.5 290.389Z" fill="#FFB28B"/>
<path d="M295.911 300.023C292.003 288.896 280.896 286.444 270.764 290.766C270.651 291.042 207.47 318.698 152.724 328.977C153.898 334.157 154.4 339.481 154.141 344.848C154.06 346.071 153.992 347.105 153.912 348.328C195.346 348.957 241.048 337.972 280.228 328.246C292.555 325.112 300.215 312.311 295.911 300.023Z" fill="#FFB28B"/>
<path d="M250.361 352.141C250.663 346.115 252.071 340.542 254.869 335.441C254.982 335.165 254.994 334.977 255.202 334.708C252.152 333.557 248.374 331.979 243.313 329.747C206.004 313.904 177.765 298.391 150.875 281.079C140.524 274.333 127.907 277.542 123.565 290.286C119.692 301.644 126.369 310.976 135.877 316.153C155.426 327.017 150.088 324.672 159.959 328.646C186.459 338.94 219.412 349.009 250.293 353.176C250.399 352.994 250.424 352.618 250.361 352.141Z" fill="#FFB28B"/>
<path d="M266.106 294.999L269.673 240.801C270.038 235.249 265.803 230.521 260.523 230.163L172.171 224.188C166.702 223.818 162.062 228.135 161.709 233.498L158.142 287.697C157.776 293.249 162.011 297.977 167.291 298.334L255.643 304.31C260.911 304.855 265.74 300.551 266.106 294.999Z" fill="#FFB28B"/>
<path d="M250.416 217.656C249.361 212.104 247.641 208.019 246.494 205.295C245.429 202.766 244.453 200.338 241.347 192.851C240.61 191.101 236.045 182.76 235.043 180.708L232.478 179.4C220.585 184.549 212.244 177.465 212.244 177.465L209.271 178.02C207.276 181.003 205.173 184.168 203.165 187.34C199.061 193.583 193.392 200.57 189.172 210.018C188.3 211.754 187.711 213.51 187.711 213.51L250.409 217.75L250.416 217.656Z" fill="#FFB28B"/>
<path d="M211.942 178.085L212.086 177.338L212.022 176.861L209.585 177.925L211.942 178.085Z" fill="#FFB28B"/>
<path d="M272.394 348.695C271.936 351.315 271.571 353.94 271.29 356.761L272.394 348.695Z" fill="#FFB28B"/>
<path d="M278.328 349.092C277.869 351.711 277.505 354.337 277.223 357.157L278.328 349.092Z" fill="#FFB28B"/>
<path d="M126.793 337.846C126.334 340.465 125.97 343.091 125.688 345.911L126.793 337.846Z" fill="#FFB28B"/>
<path d="M132.73 338.241C132.271 340.861 131.907 343.486 131.626 346.307L132.73 338.241Z" fill="#FFB28B"/>
<path d="M190.896 208.196L187.91 213.271C186.764 216.304 187.855 214.116 188.213 214.422L193.84 218.1L248.393 220.556L249.779 218.199L247.9 210.817L190.896 208.196Z" fill="#FFB28B"/>
<path d="M215.933 261.455C213.009 261.258 210.395 263.539 210.197 266.551C209.999 269.564 212.196 272.171 215.214 272.375C218.138 272.573 220.751 270.291 220.95 267.279C221.148 264.267 218.857 261.653 215.933 261.455Z" fill="#FFB28B"/>
<path d="M216.799 159.006L216.998 170.366L228.941 173.159L229.66 162.24L216.799 159.006Z" fill="#FFB28B"/>
<path d="M232.461 101.501C232.555 101.507 232.832 101.621 232.926 101.627C236.46 102.622 239.744 104.546 242.117 107.354C252.994 120.569 254.444 150.353 248.059 152.38C241.39 154.387 207.181 151.694 194.879 147.175C193.866 146.728 193.174 145.736 193.154 144.6C193.649 129.885 197.473 119.272 202.873 112.074C209.999 103.102 221.645 98.8786 232.461 101.501Z" fill="#FFB28B"/>
<path d="M223.893 110.565C213.89 109.888 207.677 119.305 206.605 135.596C205.533 151.887 213.335 165.846 223.244 166.517C233.247 167.193 239.972 154.311 241.044 138.02C242.641 118.076 233.897 111.241 223.893 110.565Z" fill="#FFB28B"/>
<path d="M233.246 103.984C233.246 103.984 242.186 113.573 242.256 113.956C242.331 114.245 247.506 132.091 241.988 129.543C232.43 125.019 227.25 114.455 227.25 114.455L226.327 109.758L233.246 103.984Z" fill="#FFB28B"/>
<path d="M224.439 167.069C231.081 166.951 234.365 161.687 236.619 157.678C236.927 157.321 237.046 156.951 237.248 156.775C243.137 146.486 241.982 129.478 241.937 128.719C241.943 128.625 241.868 128.336 241.679 128.323C241.585 128.317 234.417 124.9 229.799 117.305C229.723 117.016 229.346 116.991 229.239 117.172C228.95 117.247 228.925 117.624 229.108 117.731C233.373 124.924 239.691 128.283 241.164 128.95C241.298 131.229 241.88 146.874 236.624 156.165C236.316 156.523 236.197 156.893 235.996 157.069C233.754 160.889 230.778 165.795 224.614 165.851C224.237 165.826 223.759 165.888 223.381 165.863C213.38 165.186 209.795 153.405 209.095 151.088C209.101 150.994 205.299 141.089 208.361 127.677C208.38 127.395 208.298 127.2 208.021 127.087C207.738 127.068 207.543 127.149 207.43 127.425C204.267 140.925 207.887 150.722 208.127 151.401C208.809 154 212.651 166.177 223.219 166.892C223.672 167.206 223.955 167.225 224.439 167.069Z" fill="#FFB28B"/>
<path d="M212.131 134.163C212.131 134.163 208.065 131.146 206.799 123.022C211.412 100.449 230.882 106.967 231.249 110.018C231.523 113.063 230.212 117.135 230.212 117.135C226.2 129.157 212.131 134.163 212.131 134.163Z" fill="#FFB28B"/>
<path d="M209.345 141.841C210.562 139.184 212.929 137.739 215.563 138.011C218.29 138.29 219.437 141.012 219.809 142.548C219.791 142.83 220.073 142.849 220.168 142.856C220.45 142.875 220.469 142.593 220.475 142.499C220.058 140.204 218.422 137.732 215.694 137.453C212.872 137.168 210.216 138.688 208.786 141.708C208.673 141.984 208.761 142.085 209.038 142.198L209.132 142.204C209.151 141.922 209.245 141.928 209.345 141.841Z" fill="#FFB28B"/>
<path d="M229.015 142.02C229.384 140.722 231.193 139.144 233.097 138.99C234.435 138.797 236.201 139.294 237.354 141.922C237.43 142.211 237.712 142.23 237.819 142.048C238.108 141.973 238.127 141.691 237.944 141.584C236.452 138.367 234.296 138.032 233.052 138.231C230.765 138.454 228.755 140.208 228.273 141.781C228.254 142.063 228.342 142.163 228.531 142.176C228.531 142.176 228.531 142.176 228.625 142.182C228.713 142.283 228.814 142.195 229.015 142.02Z" fill="#FFB28B"/>
<path d="M213.451 139.851C213.531 138.627 214.354 137.643 215.298 137.707C216.147 137.764 216.934 138.763 216.847 140.081C216.767 141.305 215.944 142.29 215 142.226C213.969 142.062 213.376 140.981 213.451 139.851Z" fill="#FFB28B"/>
<path d="M231.634 141.064C231.715 139.84 232.538 138.856 233.481 138.92C234.33 138.977 235.117 139.976 235.031 141.294C234.95 142.518 234.127 143.503 233.184 143.439C232.247 143.281 231.56 142.194 231.634 141.064Z" fill="#FFB28B"/>
<path d="M237.428 136.531C236.604 136.098 235.146 135.245 233.933 134.974C233.562 134.855 233.091 134.823 232.914 134.622L232.896 134.904L232.802 134.898L232.82 134.616C232.726 134.61 232.449 134.497 232.355 134.49L232.23 134.954L232.136 134.947L232.167 134.477L232.072 134.471C231.324 134.326 230.98 135.247 231.615 135.667C231.891 135.78 232.35 136 232.822 136.031C234.135 136.215 236.379 136.649 237.504 136.82C237.51 136.726 237.711 136.55 237.428 136.531Z" fill="#FFB28B"/>
<path d="M210.226 134.332C211.193 134.02 213.128 133.397 214.736 133.411C215.207 133.443 215.685 133.381 216.062 133.406L216.037 133.781L216.32 133.801L216.338 133.519C216.621 133.538 216.715 133.544 216.904 133.557L216.961 134.127L217.244 134.146L217.281 133.583C217.375 133.589 217.375 133.589 217.375 133.589C218.229 133.552 218.52 134.892 217.565 135.016C217.182 135.084 216.711 135.053 216.145 135.014C214.637 134.913 211.904 134.728 210.584 134.639C210.107 134.701 210.119 134.513 210.226 134.332Z" fill="#FFB28B"/>
<path d="M202.279 122.639L211.107 120.966L214.44 133.675C214.44 133.675 208.386 136.386 204.381 136.777L202.279 122.639Z" fill="#FFB28B"/>
<path d="M231.746 109.582C231.652 109.576 231.457 109.657 231.445 109.845C231.044 111.615 230.744 113.297 230.255 114.966C229.766 116.635 229.089 118.291 228.411 119.947C227.551 121.497 226.792 122.958 225.655 124.394C224.619 125.743 223.494 126.99 222.093 128.125C219.48 130.407 216.425 132.186 213.302 133.582C211.737 134.327 210.084 134.972 208.443 135.428C206.695 136.067 205.149 136.529 203.408 137.073C203.313 137.067 203.307 137.161 203.295 137.35C203.289 137.444 203.383 137.45 203.572 137.463C205.307 137.013 206.947 136.556 208.689 136.012C210.424 135.562 211.982 134.911 213.736 134.179C216.954 132.789 220.103 131.016 222.811 128.741C225.431 126.365 227.704 123.493 229.342 120.199C230.208 118.556 230.791 116.893 231.192 115.124C231.687 113.36 231.987 111.679 232.293 109.903C231.922 109.783 231.84 109.588 231.746 109.582Z" fill="#FFB28B"/>
<path d="M227.961 157.863C227.967 157.769 227.98 157.58 227.986 157.486C228.004 157.204 227.728 157.091 227.633 157.085L221.316 156.657C221.033 156.638 220.933 156.726 220.914 157.008C220.908 157.102 220.896 157.29 220.89 157.384C220.76 159.36 222.163 161.061 224.237 161.202C226.123 161.329 227.831 159.838 227.961 157.863Z" fill="#FFB28B"/>
<path d="M227.205 157.812C227.1 159.411 225.705 160.45 224.197 160.348C222.689 160.246 221.544 158.941 221.549 157.43L227.205 157.812Z" fill="#FFB28B"/>
<path d="M224.942 150.652C225.226 150.672 225.339 150.395 225.257 150.201L224.608 144.196C224.627 143.913 224.35 143.8 224.154 143.881C223.871 143.862 223.758 144.138 223.84 144.333L224.488 150.338C224.57 150.533 224.753 150.64 224.942 150.652Z" fill="#FFB28B"/>
<path d="M249.199 208.49L243.892 198.389L247.778 208.488L249.199 208.49Z" fill="#262961"/>
<path d="M191.306 202.163L196.784 195.25L192.69 202.729L191.306 202.163Z" fill="#262961"/>
<path d="M225.842 165.391C226.208 167.024 228.726 182.043 229.6 181.724L216.172 182.707L217.412 163.875L225.842 165.391Z" fill="#FFB28B"/>
<path d="M288.463 340.522C277.645 337.996 256.648 337.615 256.648 337.615L255.532 340.185L253.157 353.25C253.157 353.25 275.322 358.905 286.446 359.657C287.012 359.696 287.672 359.74 288.149 359.678C289.098 359.648 289.977 359.235 290.593 358.521C295.044 354.193 294.899 347.759 291.991 343.028C290.941 341.729 289.865 340.806 288.463 340.522Z" fill="white" stroke="#262961" stroke-width="0.944366" stroke-miterlimit="10"/>
<path d="M249.916 336.409L253.967 336.777C256.131 337.018 258.037 338.282 259.341 340.072C260.638 341.957 261.232 344.456 260.882 346.891C260.658 348.862 259.785 350.6 258.378 351.829C256.97 353.058 255.323 353.608 253.637 353.305L247.536 352.419L249.916 336.409Z" fill="#FFB28B" stroke="#262961" stroke-width="1.18726" stroke-miterlimit="10"/>
<path d="M116.939 327.917C127.892 326.958 149.551 330.217 149.551 330.217L150.32 332.914L150.773 346.17C150.773 346.17 128.019 348.032 116.92 346.904C116.354 346.865 115.7 346.727 115.147 346.5C114.305 346.349 113.487 345.821 112.971 345.031C109.057 339.759 110.552 332.87 114.797 328.812C115.305 328.279 116.178 327.96 116.939 327.917Z" fill="white" stroke="#262961" stroke-width="0.944366" stroke-miterlimit="10"/>
<path d="M156.386 329.8L152.329 329.525C150.159 329.379 148.103 330.374 146.489 331.873C144.868 333.465 143.952 335.862 143.797 338.216C143.667 340.193 144.398 342.039 145.443 343.434C146.678 344.842 148.232 345.703 149.936 345.724L156.087 345.856L156.386 329.8Z" fill="#FFB28B" stroke="#262961" stroke-width="1.18726" stroke-miterlimit="10"/>
<path d="M167.5 290.389L165.89 314.843L228.708 331.56L252.365 307.37L248.973 289.852L167.5 290.389Z" fill="#262961"/>
<path d="M295.837 300.061L295.837 300.062C300.022 311.987 292.862 324.608 279.838 327.832C240.813 337.49 195.428 348.368 154.294 347.87L154.294 347.869L154.294 347.862L154.295 347.855L154.295 347.848L154.295 347.841L154.296 347.835L154.296 347.828L154.297 347.821L154.297 347.814L154.298 347.807L154.298 347.8L154.299 347.793L154.299 347.787L154.3 347.78L154.3 347.773L154.3 347.766L154.301 347.759L154.301 347.752L154.302 347.746L154.302 347.739L154.303 347.732L154.303 347.725L154.304 347.718L154.304 347.711L154.304 347.705L154.305 347.698L154.305 347.691L154.306 347.684L154.306 347.677L154.307 347.671L154.307 347.664L154.308 347.657L154.308 347.65L154.309 347.643L154.309 347.636L154.309 347.63L154.31 347.623L154.31 347.616L154.311 347.609L154.311 347.602L154.312 347.596L154.312 347.589L154.313 347.582L154.313 347.575L154.313 347.568L154.314 347.562L154.314 347.555L154.315 347.548L154.315 347.541L154.316 347.535L154.316 347.528L154.317 347.521L154.317 347.514L154.317 347.507L154.318 347.501L154.318 347.494L154.319 347.487L154.319 347.48L154.32 347.474L154.32 347.467L154.321 347.46L154.321 347.453L154.321 347.446L154.322 347.44L154.322 347.433L154.323 347.426L154.323 347.419L154.324 347.413L154.324 347.406L154.325 347.399L154.325 347.392L154.325 347.386L154.326 347.379L154.326 347.372L154.327 347.365L154.327 347.358L154.328 347.352L154.328 347.345L154.329 347.338L154.329 347.331L154.329 347.325L154.33 347.318L154.33 347.311L154.331 347.304L154.331 347.298L154.332 347.291L154.332 347.284L154.333 347.277L154.333 347.271L154.333 347.264L154.334 347.257L154.334 347.25L154.335 347.244L154.335 347.237L154.336 347.23L154.336 347.224L154.337 347.217L154.337 347.21L154.337 347.203L154.338 347.197L154.338 347.19L154.339 347.183L154.339 347.176L154.34 347.17L154.34 347.163L154.341 347.156L154.341 347.149L154.341 347.143L154.342 347.136L154.342 347.129L154.343 347.122L154.343 347.116L154.344 347.109L154.344 347.102L154.345 347.096L154.345 347.089L154.345 347.082L154.346 347.075L154.346 347.069L154.347 347.062L154.347 347.055L154.348 347.048L154.348 347.042L154.349 347.035L154.349 347.028L154.349 347.022L154.35 347.015L154.35 347.008L154.351 347.001L154.351 346.995L154.352 346.988L154.352 346.981L154.353 346.975L154.353 346.968L154.353 346.961L154.354 346.954L154.354 346.948L154.355 346.941L154.355 346.934L154.356 346.928L154.356 346.921L154.357 346.914L154.357 346.907L154.357 346.901L154.358 346.894L154.358 346.887L154.359 346.881L154.359 346.874L154.36 346.867L154.36 346.86L154.36 346.854L154.361 346.847L154.361 346.84L154.362 346.834L154.362 346.827L154.363 346.82L154.363 346.813L154.364 346.807L154.364 346.8L154.364 346.793L154.365 346.787L154.365 346.78L154.366 346.773L154.366 346.766L154.367 346.76L154.367 346.753L154.368 346.746L154.368 346.74L154.368 346.733L154.369 346.726L154.369 346.719L154.37 346.713L154.37 346.706L154.371 346.699L154.371 346.693L154.372 346.686L154.372 346.679L154.372 346.672L154.373 346.666L154.373 346.659L154.374 346.652L154.374 346.646L154.375 346.639L154.375 346.632L154.376 346.625L154.376 346.619L154.376 346.612L154.377 346.605L154.377 346.599L154.378 346.592L154.378 346.585L154.379 346.578L154.379 346.572L154.379 346.565L154.38 346.558L154.38 346.552L154.381 346.545L154.381 346.538L154.382 346.531L154.382 346.525L154.383 346.518L154.383 346.511L154.383 346.504L154.384 346.498L154.384 346.491L154.385 346.484L154.385 346.478L154.386 346.471L154.386 346.464L154.387 346.457L154.387 346.451L154.387 346.444L154.388 346.437L154.388 346.431L154.389 346.424L154.389 346.417L154.39 346.41L154.39 346.404L154.391 346.397L154.391 346.39L154.391 346.383L154.392 346.377L154.392 346.37L154.393 346.363L154.393 346.357L154.394 346.35L154.394 346.343L154.395 346.336L154.395 346.33L154.395 346.323L154.396 346.316L154.396 346.309L154.397 346.303L154.397 346.296L154.398 346.289L154.398 346.282L154.399 346.276L154.399 346.269L154.399 346.262L154.4 346.256L154.4 346.249L154.401 346.242L154.401 346.235L154.402 346.229L154.402 346.222L154.403 346.215L154.403 346.208L154.403 346.202L154.404 346.195L154.404 346.188L154.405 346.181L154.405 346.175L154.406 346.168L154.406 346.161L154.407 346.154L154.407 346.148L154.407 346.141L154.408 346.134L154.408 346.127L154.409 346.12L154.409 346.114L154.41 346.107L154.41 346.1L154.411 346.093L154.411 346.087L154.411 346.08L154.412 346.073L154.412 346.066L154.413 346.06L154.413 346.053L154.414 346.046L154.414 346.039L154.415 346.033L154.415 346.026L154.415 346.019L154.416 346.012L154.416 346.005L154.417 345.999L154.417 345.992L154.418 345.985L154.418 345.978L154.419 345.972L154.419 345.965L154.419 345.958L154.42 345.951L154.42 345.944L154.421 345.938L154.421 345.931L154.422 345.924L154.422 345.917L154.423 345.91L154.423 345.904L154.423 345.897L154.424 345.89L154.424 345.883L154.425 345.876L154.425 345.87L154.426 345.863L154.426 345.856L154.427 345.849L154.427 345.842L154.428 345.836L154.428 345.829L154.428 345.822L154.429 345.815L154.429 345.808L154.43 345.801L154.43 345.795L154.431 345.788L154.431 345.781L154.432 345.774L154.432 345.767L154.432 345.761L154.433 345.754L154.433 345.747L154.434 345.74L154.434 345.733L154.435 345.726L154.435 345.72L154.436 345.713L154.436 345.706L154.437 345.699L154.437 345.692L154.437 345.685L154.438 345.679L154.438 345.672L154.439 345.665L154.439 345.658L154.44 345.651L154.44 345.644L154.441 345.637L154.441 345.631L154.441 345.624L154.442 345.617L154.442 345.61L154.443 345.603L154.443 345.596L154.444 345.589L154.444 345.582L154.445 345.576L154.445 345.569L154.446 345.562L154.446 345.555L154.446 345.548L154.447 345.541L154.447 345.534L154.448 345.527L154.448 345.521L154.449 345.514L154.449 345.507L154.45 345.5L154.45 345.493L154.451 345.486L154.451 345.479L154.451 345.472L154.452 345.465L154.452 345.458L154.453 345.452L154.453 345.445L154.454 345.438L154.454 345.431L154.455 345.424L154.455 345.417L154.456 345.41L154.456 345.403L154.456 345.396L154.457 345.389L154.457 345.382L154.458 345.375L154.458 345.368L154.459 345.362L154.459 345.355L154.46 345.348L154.46 345.341L154.461 345.334L154.461 345.327L154.461 345.32L154.462 345.313L154.462 345.306L154.463 345.299L154.463 345.292L154.464 345.285L154.464 345.278L154.465 345.271L154.465 345.264L154.466 345.257L154.466 345.25L154.467 345.243L154.467 345.236L154.467 345.229L154.468 345.222L154.468 345.215L154.469 345.208L154.469 345.201L154.47 345.194L154.47 345.187L154.471 345.18L154.471 345.173L154.472 345.166L154.472 345.159L154.472 345.152L154.473 345.145L154.473 345.138L154.474 345.131L154.474 345.124L154.475 345.117L154.475 345.11L154.476 345.103L154.476 345.096L154.477 345.089L154.477 345.082L154.478 345.075L154.478 345.068L154.479 345.061L154.479 345.054L154.479 345.047L154.48 345.04L154.48 345.033L154.481 345.026L154.481 345.019L154.482 345.012L154.482 345.005L154.483 344.998L154.483 344.998L154.483 344.984C154.706 339.865 154.725 334.446 153.635 329.365C180.869 324.216 209.981 314.851 232.347 306.725C243.615 302.631 253.176 298.85 259.93 296.077C263.307 294.69 265.982 293.556 267.819 292.76C268.737 292.362 269.446 292.049 269.929 291.83C270.171 291.721 270.358 291.635 270.487 291.573C270.551 291.543 270.606 291.516 270.647 291.495C270.667 291.484 270.691 291.472 270.714 291.458C270.717 291.456 270.722 291.453 270.727 291.45C275.516 289.069 280.861 288.541 285.464 289.939C290.064 291.337 293.948 294.664 295.837 300.061Z" fill="#04AACC" stroke="#262961" stroke-width="1.18728"/>
<path d="M249.599 352.477L249.593 352.571C249.58 352.761 249.669 352.862 249.656 353.052C219.049 348.886 186.277 338.762 160.05 328.509C159.314 328.173 158.667 327.939 158.019 327.705C154.699 326.337 153.686 325.887 151.674 324.798C150.668 324.254 149.391 323.501 147.568 322.425C145.103 321.019 141.638 318.975 136.06 315.93C131.4 313.328 127.375 309.721 125.097 305.47C122.819 301.219 122.113 296.121 123.996 290.532C126.112 284.291 130.153 280.468 134.993 278.889C139.827 277.406 145.36 278.256 150.448 281.554C177.338 298.998 205.58 314.628 242.988 330.592C247.78 332.631 251.465 334.214 254.42 335.366L254.414 335.461C251.329 340.588 249.816 346.298 249.599 352.477Z" fill="#00C3EB" stroke="#262961" stroke-width="1.18726"/>
<path d="M216.556 164.103L230.304 154.059L231.434 157.068C231.434 157.068 229.709 163.1 229.571 163.753C229.421 164.594 228.919 172.223 229.533 175.86C230.147 179.496 256.374 185.905 257.299 186.251C260.07 187.384 264.156 188.701 265.115 197.186C266.321 207.673 267.95 218.947 268.609 230.533C269.813 251.143 261.549 257.111 261.284 269.77C254.263 272.701 254.103 276.569 247.082 279.5L248.348 235.785C248.324 230.391 248.458 219.71 248.458 219.71C248.52 218.768 248.155 212.784 247.252 209.222" fill="#FFB28B"/>
<path d="M216.556 164.103L230.304 154.059L231.434 157.068C231.434 157.068 229.709 163.1 229.571 163.753C229.421 164.594 228.919 172.223 229.533 175.86C230.147 179.496 256.374 185.905 257.299 186.251C260.07 187.384 264.156 188.701 265.115 197.186C266.321 207.673 267.95 218.947 268.609 230.533C269.813 251.143 261.549 257.111 261.284 269.77C254.263 272.701 254.103 276.569 247.082 279.5L248.348 235.785C248.324 230.391 248.458 219.71 248.458 219.71C248.52 218.768 248.155 212.784 247.252 209.222" stroke="#2B2D60" stroke-width="0.944366" stroke-miterlimit="10"/>
<path d="M228.733 164.966L216.423 153.16L214.909 155.99C214.909 155.99 216.772 162.265 216.823 162.931C216.862 163.785 216.359 171.414 215.274 174.935C214.189 178.457 186.411 181.214 185.448 181.433C182.554 182.183 178.331 182.938 176.269 191.218C173.699 201.451 170.601 212.499 167.49 223.735C163.746 237.389 171.948 251.093 170.55 263.675C177.125 267.525 176.776 271.38 183.351 275.23L187.703 233.616C188.434 228.273 189.701 217.669 189.701 217.669C189.763 216.727 190.909 210.845 192.271 207.436" fill="#FFB28B"/>
<path d="M228.733 164.966L216.423 153.16L214.909 155.99C214.909 155.99 216.772 162.265 216.823 162.931C216.862 163.785 216.359 171.414 215.274 174.935C214.189 178.457 186.411 181.214 185.448 181.433C182.554 182.183 178.331 182.938 176.269 191.218C173.699 201.451 170.601 212.499 167.49 223.735C163.746 237.389 171.948 251.093 170.55 263.675C177.125 267.525 176.776 271.38 183.351 275.23L187.703 233.616C188.434 228.273 189.701 217.669 189.701 217.669C189.763 216.727 190.909 210.845 192.271 207.436" stroke="#2B2D60" stroke-width="0.944366" stroke-miterlimit="10"/>
<path d="M193.064 201.717C193.064 201.717 184.766 214.02 186.108 222.435C186.108 222.435 187.236 231.213 189.337 236.747C191.443 242.186 187.614 262.926 187.614 262.926L179.88 286.807L241.821 296.293C243.589 283.832 243.098 289.853 244.526 276.802C245.71 266.004 244.567 254.576 245.487 243.477C245.953 237.833 249.885 231.383 250.263 225.639C250.511 221.872 250.66 219.612 249.706 215.385C243.467 205.032 237.323 194.684 231.084 184.33L207.396 182.728L193.064 201.717Z" fill="#3AFFDC" stroke="#262961" stroke-width="1.18726" stroke-miterlimit="10"/>
<path d="M255.537 304.492L167.28 298.523C161.811 298.153 157.777 293.249 158.13 287.885L161.697 233.687C162.062 228.135 166.879 224.019 172.16 224.376L260.511 230.352C265.98 230.722 270.014 235.626 269.661 240.989L266.094 295.188C265.741 300.551 260.911 304.856 255.537 304.492Z" fill="white" stroke="#262961" stroke-width="2.3666" stroke-miterlimit="10"/>
<path d="M187.529 213.403C187.529 213.403 188.118 211.647 188.99 209.911C193.21 200.463 198.879 193.476 202.983 187.233C204.991 184.061 207.081 181.084 209.089 177.913L212.062 177.358C212.062 177.358 221.106 183.828 232.999 178.679L235.766 179.811C236.855 181.964 240.516 191.094 241.159 192.839C244.265 200.325 245.235 202.848 246.306 205.282C247.452 208.006 249.166 212.185 250.227 217.643L187.529 213.403Z" fill="#3AFFDC" stroke="#262961" stroke-width="1.18726" stroke-miterlimit="10"/>
<path d="M209.585 177.925L212.022 176.861L212.086 177.338L211.942 178.085L209.585 177.925Z" fill="#262961"/>
<path d="M272.707 343.985C272.248 346.604 271.884 349.229 271.602 352.05" stroke="#262961" stroke-width="1.18726" stroke-miterlimit="10" stroke-linecap="round"/>
<path d="M278.641 344.38C278.182 346.999 277.818 349.625 277.536 352.445" stroke="#262961" stroke-width="1.18726" stroke-miterlimit="10" stroke-linecap="round"/>
<path d="M127.105 333.134C126.646 335.753 126.282 338.379 126.001 341.199" stroke="#262961" stroke-width="1.18726" stroke-miterlimit="10" stroke-linecap="round"/>
<path d="M133.043 333.53C132.584 336.15 132.22 338.775 131.938 341.596" stroke="#262961" stroke-width="1.18726" stroke-miterlimit="10" stroke-linecap="round"/>
<path d="M190.896 208.196L187.91 213.271C186.764 216.304 187.855 214.116 188.213 214.422L193.84 218.1L248.393 220.556L249.779 218.199L247.9 210.817L190.896 208.196Z" fill="#3AFFDC"/>
<path d="M215.214 272.375C218.138 272.573 220.751 270.291 220.95 267.279C221.148 264.267 218.951 261.66 215.933 261.455C213.009 261.258 210.395 263.539 210.197 266.551C209.999 269.564 212.196 272.171 215.214 272.375Z" fill="#262961" stroke="#262961" stroke-width="1.18726" stroke-miterlimit="10"/>
<path d="M216.986 156.18L216.237 167.57L229.317 170.346L229.847 159.413L216.986 156.18Z" fill="#262961"/>
<path d="M202.959 112.174C197.364 119.453 193.741 129.892 193.24 144.701C193.166 145.83 193.946 146.923 194.965 147.276C207.261 151.889 241.376 154.575 248.051 152.474C254.329 150.629 252.98 120.757 242.109 107.448C239.83 104.647 236.459 102.622 232.918 101.721C232.824 101.715 232.547 101.601 232.453 101.595C221.643 98.8783 209.998 103.101 202.959 112.174Z" fill="#FFFDC6" stroke="#2B2D60" stroke-width="0.944366" stroke-miterlimit="10"/>
<path d="M241.322 138.133C240.249 154.424 233.43 167.3 223.521 166.629C213.612 165.959 205.81 152 206.882 135.709C207.955 119.418 214.167 110.002 224.171 110.678C233.897 111.241 242.642 118.076 241.322 138.133Z" fill="#FFB28B"/>
<path d="M226.515 109.771L227.437 114.468C227.437 114.468 232.618 125.032 242.175 129.556C247.687 132.199 242.619 114.17 242.443 113.969C242.367 113.68 233.433 103.997 233.433 103.997L226.515 109.771Z" fill="#FFFDC6"/>
<path d="M229.388 117.383C229.294 117.377 229.199 117.371 229.099 117.458C228.898 117.634 228.785 117.91 228.961 118.111C233.332 125.216 239.844 128.589 241.216 129.345C241.352 131.623 242.041 147.176 236.598 156.45C236.384 156.814 236.177 157.083 235.964 157.447C233.622 161.353 230.652 166.162 224.391 166.209C224.013 166.184 223.535 166.246 223.157 166.22C213.056 165.533 209.365 153.841 208.67 151.43C208.676 151.336 204.767 141.521 207.926 128.026C207.944 127.744 207.862 127.549 207.585 127.436L207.491 127.429C207.302 127.416 207.101 127.592 206.994 127.774C203.841 141.174 207.461 151.065 207.707 151.649C208.39 154.248 212.34 166.335 223.008 167.061C223.385 167.086 223.857 167.118 224.335 167.056C231.075 166.947 234.358 161.687 236.7 157.781C236.914 157.417 237.121 157.147 237.334 156.784C243.311 146.601 242.054 129.591 242.009 128.831C242.021 128.643 241.933 128.542 241.75 128.436C241.656 128.429 234.383 125.098 229.665 117.497C229.665 117.497 229.577 117.396 229.388 117.383Z" fill="#2B2D60"/>
<path d="M230.033 117.028C230.033 117.028 231.343 112.956 231.07 109.912C230.796 106.867 211.232 100.342 206.62 122.915C207.885 131.039 211.951 134.057 211.951 134.057C211.951 134.057 226.202 129.158 230.033 117.028Z" fill="#FFFDC6"/>
<path d="M208.964 141.909L208.87 141.903C208.593 141.79 208.605 141.602 208.618 141.413C210.048 138.393 212.61 136.866 215.526 137.158C218.254 137.437 219.884 140.003 220.307 142.204C220.289 142.486 220.188 142.574 220 142.561C219.717 142.542 219.629 142.441 219.641 142.253C219.357 140.817 218.122 137.995 215.395 137.716C212.761 137.443 210.4 138.795 209.177 141.546C209.247 141.928 209.152 141.922 208.964 141.909Z" fill="#262961"/>
<path d="M228.618 142.276C228.524 142.27 228.524 142.27 228.618 142.276C228.335 142.257 228.26 141.969 228.266 141.875C228.748 140.302 230.757 138.549 233.044 138.325C234.289 138.126 236.438 138.555 237.937 141.678C238.025 141.779 237.912 142.055 237.812 142.142C237.711 142.23 237.435 142.117 237.347 142.016C236.1 139.382 234.333 138.885 233.089 139.084C231.185 139.239 229.283 140.81 229.007 142.114C228.813 142.195 228.712 142.283 228.618 142.276Z" fill="#262961"/>
<path d="M214.692 144.004C215.541 144.061 216.452 143.177 216.539 141.859C216.619 140.635 215.932 139.548 214.989 139.484C214.14 139.427 213.229 140.311 213.142 141.629C213.25 142.866 213.842 143.946 214.692 144.004Z" fill="#262961"/>
<path d="M233.067 145.229C233.916 145.286 234.827 144.402 234.914 143.084C234.994 141.86 234.308 140.773 233.364 140.71C232.515 140.652 231.604 141.536 231.517 142.854C231.436 144.078 232.123 145.165 233.067 145.229Z" fill="#262961"/>
<path d="M237.416 136.72C236.197 136.543 234.048 136.115 232.734 135.931C232.263 135.9 231.798 135.774 231.528 135.567C230.792 135.234 231.231 134.32 231.985 134.371L232.079 134.377L231.954 134.84L232.048 134.847L232.174 134.383C232.268 134.39 232.551 134.409 232.639 134.509L232.62 134.791L232.714 134.797L232.733 134.516C233.11 134.541 233.481 134.66 233.751 134.868C234.958 135.232 236.423 135.992 237.246 136.425C237.711 136.551 237.51 136.726 237.416 136.72Z" fill="#262961"/>
<path d="M210.199 134.708C211.519 134.797 214.346 134.988 215.76 135.083C216.325 135.121 216.797 135.153 217.18 135.085C218.046 134.86 217.85 133.527 216.99 133.658L216.896 133.652L216.858 134.215L216.576 134.196L216.519 133.626C216.236 133.607 216.142 133.601 215.953 133.588L215.935 133.869L215.652 133.85L215.677 133.475C215.3 133.45 214.822 133.512 214.351 133.48C212.931 133.478 210.997 134.102 209.841 134.401C210.117 134.514 210.105 134.702 210.199 134.708Z" fill="#262961"/>
<path d="M204.389 136.683C208.482 136.392 214.448 133.58 214.448 133.58L211.115 120.871L202.287 122.544L204.389 136.683Z" fill="#FFFDC6"/>
<path d="M231.922 109.878C231.71 111.661 231.316 113.336 230.821 115.099C230.326 116.862 229.743 118.525 228.971 120.175C227.427 123.475 225.248 126.353 222.44 128.716C219.82 131.092 216.583 132.765 213.365 134.154C211.8 134.9 210.065 135.35 208.318 135.988C206.582 136.438 204.935 136.988 203.2 137.438C203.106 137.432 202.917 137.419 202.924 137.325C202.93 137.231 202.942 137.043 203.037 137.049C204.772 136.599 206.419 136.049 208.072 135.404C209.819 134.766 211.372 134.209 212.931 133.558C216.155 132.074 219.203 130.389 221.722 128.1C223.029 126.96 224.248 125.718 225.284 124.37C226.32 123.022 227.274 121.479 228.04 119.923C228.9 118.373 229.483 116.711 229.884 114.941C230.373 113.272 230.868 111.509 231.073 109.821C231.08 109.727 231.186 109.545 231.375 109.558C231.847 109.59 231.929 109.784 231.922 109.878Z" fill="#262961"/>
<path d="M224.848 150.646C224.753 150.639 224.476 150.526 224.494 150.243L223.846 144.239C223.864 143.956 223.965 143.868 224.16 143.787C224.444 143.806 224.532 143.906 224.614 144.101L225.263 150.106C225.339 150.395 225.226 150.671 224.848 150.646C224.942 150.652 224.942 150.652 224.848 150.646Z" fill="#262961"/>
<path d="M228.158 157.685C227.92 158.424 225.765 159.506 223.811 158.997" stroke="#2B2D60" stroke-width="0.944366" stroke-miterlimit="10" stroke-linecap="round" stroke-linejoin="round"/>
<path d="M246.862 180.914C243.359 180.087 238.713 178.591 234.697 176.544L247.175 176.198C247.845 178.02 248.762 181.363 246.862 180.914Z" fill="#D9F6FC"/>
<path d="M206.338 77.5971C207.086 66.054 197.296 57.3814 185.791 56.5918C169.154 55.45 162.859 64.4304 162.11 75.9735C161.361 87.5166 174.003 96.5988 185.508 97.3884C197.013 98.178 205.589 89.1402 206.338 77.5971Z" fill="white"/>
<path d="M206.338 77.5971C207.086 66.054 197.296 57.3814 185.791 56.5918C169.154 55.45 162.859 64.4304 162.11 75.9735C161.361 87.5166 174.003 96.5988 185.508 97.3884C197.013 98.178 205.589 89.1402 206.338 77.5971Z" fill="#F4259A" fill-opacity="0.6"/>
<path d="M208.7 96.3673C208.7 96.3673 201.505 94.7622 201.465 87.4486L195.463 91.2695C195.509 91.2298 197.768 98.097 208.7 96.3673Z" fill="white"/>
<path d="M208.7 96.3673C208.7 96.3673 201.505 94.7622 201.465 87.4486L195.463 91.2695C195.509 91.2298 197.768 98.097 208.7 96.3673Z" fill="#F4259A" fill-opacity="0.6"/>
<path d="M168.321 64.0369C172.27 60.2757 178.221 58.6336 185.94 59.1612C191.641 59.5508 196.833 61.822 200.691 65.5322C204.662 69.4183 206.632 74.5259 206.282 79.9001C205.981 84.5175 204.471 88.7088 201.861 92.1442L201.825 92.1757L201.787 92.2088L201.784 92.2591L201.781 92.3017L201.78 92.322L201.785 92.3417C202.861 96.2805 206.26 98.0211 207.919 98.6496C204.713 99.0231 200.712 98.7783 197.86 96.264L197.826 96.2244L197.746 96.1333L197.655 96.2127L197.614 96.2484C194.172 98.6879 190.006 99.8053 185.674 99.5092C179.971 99.1194 173.93 96.661 169.515 92.9085L169.514 92.9081C164.611 88.7822 162.138 83.6401 162.482 78.3615C162.888 72.1203 164.869 67.3244 168.321 64.0369ZM168.321 64.0369L168.237 63.9488L168.321 64.0369ZM169.262 93.2583L169.262 93.2583C173.759 97.0467 179.889 99.5712 185.644 99.9646C190.042 100.265 194.194 99.1483 197.752 96.7164C201.001 99.5213 205.645 99.4843 208.97 98.9453L208.972 98.945L209.493 98.8522L209.499 98.6144L209.005 98.4973C209.004 98.4972 209.004 98.4971 209.004 98.497C208.997 98.4943 208.99 98.4917 208.984 98.4895C208.97 98.485 208.952 98.4793 208.932 98.4729C208.921 98.4695 208.909 98.4658 208.896 98.4618C208.858 98.45 208.81 98.4354 208.753 98.4174C208.602 98.3691 208.385 98.2971 208.123 98.1965C207.597 97.995 206.886 97.6791 206.133 97.2096C204.639 96.2778 202.989 94.7458 202.295 92.31C204.875 88.8386 206.436 84.576 206.738 79.9313C207.096 74.4417 205.058 69.2196 200.997 65.2397C197.1 61.4011 191.768 59.102 186.012 58.7087C178.169 58.1726 172.138 59.8629 168.034 63.7236L168.033 63.724C164.48 67.1042 162.48 72.0068 162.068 78.3332C161.716 83.7477 164.273 89.0483 169.262 93.2583Z" fill="#262961" stroke="#262961" stroke-width="0.242892"/>
<path d="M175.942 80.4172L175.942 80.4172L175.942 80.4186C175.949 80.5468 176.003 80.668 176.071 80.7714C176.141 80.8763 176.232 80.974 176.332 81.0579C176.524 81.2205 176.778 81.3573 177.003 81.3725L193.313 82.4738C193.753 82.5036 194.16 82.1533 194.189 81.7128C194.218 81.2731 193.862 80.8719 193.423 80.841L177.14 79.359L177.14 79.359L177.136 79.3587C176.937 79.3452 176.638 79.3852 176.387 79.538C176.123 79.6984 175.919 79.9814 175.942 80.4172Z" fill="white" stroke="white" stroke-width="0.364338"/>
<path d="M179.37 75.504L179.37 75.5039L179.366 75.5036C179.208 75.4929 178.962 75.5264 178.755 75.6567C178.534 75.7954 178.367 76.0403 178.396 76.4119C178.413 76.6308 178.562 76.8274 178.713 76.961C178.865 77.0952 179.068 77.209 179.252 77.2214L191.549 78.0524C191.742 78.0655 191.924 78.008 192.062 77.8817C192.199 77.7559 192.277 77.5753 192.291 77.3674C192.303 77.1807 192.222 77.0035 192.108 76.8747C191.995 76.7463 191.83 76.6443 191.645 76.631L179.37 75.504Z" fill="white" stroke="white" stroke-width="0.364338"/>
<path fill-rule="evenodd" clip-rule="evenodd" d="M154.134 39.8927C142.805 39.1201 132.115 46.3103 131.373 57.689C131.069 62.3471 132.094 66.7683 134.187 70.4237C132.142 75.3443 126.587 75.8177 126.587 75.8177C132.301 77.5658 135.823 76.4329 137.848 75.0431C140.827 77.795 144.709 79.5736 149.247 79.8831C160.576 80.6557 174.098 73.4874 174.844 62.0661C175.589 50.6448 170.55 41.0122 154.134 39.8927Z" fill="white"/>
<path fill-rule="evenodd" clip-rule="evenodd" d="M154.134 39.8927C142.805 39.1201 132.115 46.3103 131.373 57.689C131.069 62.3471 132.094 66.7683 134.187 70.4237C132.142 75.3443 126.587 75.8177 126.587 75.8177C132.301 77.5658 135.823 76.4329 137.848 75.0431C140.827 77.795 144.709 79.5736 149.247 79.8831C160.576 80.6557 174.098 73.4874 174.844 62.0661C175.589 50.6448 170.55 41.0122 154.134 39.8927Z" fill="#FFB28B" fill-opacity="0.8"/>
<path d="M137.193 77.1222C134.086 79.1914 130.13 78.8928 127.078 78.0928C128.788 77.7023 132.313 76.4737 133.888 72.7537L133.896 72.7348L133.897 72.7143L133.9 72.6717L133.903 72.6214L133.87 72.5835L133.838 72.5474C131.737 68.8324 130.781 64.5153 131.076 59.9836C131.421 54.6947 134.033 49.9429 138.382 46.711L138.382 46.7108C142.601 43.5535 148.037 42.0511 153.611 42.432C161.244 42.9537 166.805 45.3395 170.234 49.5628L170.328 49.4864L170.234 49.5628C173.191 53.2021 174.493 58.179 174.092 64.3356C173.754 69.5292 170.68 74.2494 165.374 77.6346L165.374 77.6347C160.556 80.7137 154.335 82.3338 148.719 81.9499C144.43 81.6568 140.531 79.9887 137.476 77.1475L137.44 77.1066L137.382 77.041L137.302 77.0744L137.214 77.1112L137.203 77.1157L137.193 77.1222ZM126.091 77.836L126.089 77.8358L126.079 77.8368L125.56 77.8869L125.545 78.126L126.049 78.2455C131.73 79.9487 135.3 78.8717 137.323 77.5531C140.452 80.3995 144.379 82.068 148.734 82.3657C154.404 82.7531 160.719 81.1219 165.706 78.0254L165.708 78.0245C171.11 74.5675 174.286 69.7016 174.633 64.3726C175.04 58.1314 173.691 53.0424 170.645 49.2967C167.117 44.9571 161.399 42.5068 153.684 41.9795C147.971 41.5891 142.473 43.1481 138.163 46.3393C133.669 49.6495 131.018 54.5088 130.663 59.9553C130.363 64.5568 131.317 68.9488 133.427 72.6988C132.445 74.9984 130.633 76.2827 129.049 76.9933C128.25 77.3513 127.512 77.5628 126.97 77.6845C126.7 77.7453 126.479 77.7837 126.324 77.8066C126.247 77.8181 126.187 77.8258 126.146 77.8305C126.125 77.8328 126.11 77.8344 126.099 77.8353L126.091 77.836Z" fill="#262961" stroke="#262961" stroke-width="0.242892"/>
<path d="M160.713 64.5824L160.713 64.5811C160.793 64.1522 160.628 63.8443 160.388 63.6498C160.159 63.4647 159.868 63.3849 159.668 63.3714L159.668 63.3714L159.665 63.3712L143.548 62.6227C143.109 62.5942 142.703 62.944 142.674 63.3837C142.643 63.8588 142.992 64.2678 143.44 64.298L159.536 65.3851C159.761 65.4003 160.031 65.2989 160.243 65.1636C160.352 65.0938 160.456 65.0093 160.538 64.9146C160.62 64.8213 160.689 64.7085 160.713 64.5824Z" fill="white" stroke="white" stroke-width="0.364338"/>
<path d="M158.007 59.339L158.007 59.339L158.003 59.3388L145.817 58.813C145.453 58.7897 145.148 59.0719 145.123 59.4588C145.111 59.6351 145.173 59.8092 145.277 59.9418C145.381 60.0747 145.539 60.1795 145.729 60.1924L157.897 61.0144C158.082 61.0269 158.298 60.9414 158.466 60.8289C158.633 60.7168 158.807 60.542 158.852 60.3273C158.889 60.1542 158.882 59.9994 158.834 59.8644C158.787 59.729 158.703 59.6258 158.606 59.5495C158.417 59.4013 158.175 59.3504 158.007 59.339Z" fill="white" stroke="white" stroke-width="0.364338"/>
<path d="M297.542 95.7687L297.249 95.3228C297.249 95.3228 297.921 94.8828 298.96 94.1713L299.252 94.6172C298.214 95.3288 297.542 95.7687 297.542 95.7687ZM301.001 93.2808L300.73 92.9165C301.321 92.4982 301.807 92.0201 302.294 91.542L302.647 91.8847C302.078 92.3845 301.51 92.8843 301.001 93.2808ZM334.017 82.6927C333.853 82.7361 333.69 82.7795 333.444 82.8446L333.316 82.3553C333.97 82.1817 334.707 81.9864 335.361 81.8128L335.49 82.3021C335.081 82.4106 334.508 82.5625 334.017 82.6927ZM331.481 83.3654C330.826 83.539 330.068 83.6528 329.413 83.8264L329.285 83.3371C329.961 83.245 330.615 83.0714 331.352 82.8761L331.481 83.3654ZM337.514 81.678L337.385 81.1887C338.04 81.0151 338.673 80.7599 339.388 80.4831L339.517 80.9724C338.884 81.2275 338.251 81.4827 337.514 81.678ZM304.13 90.5319L303.777 90.1892C304.264 89.7111 304.751 89.233 305.216 88.6733L305.569 89.016C305.164 89.4724 304.698 90.0321 304.13 90.5319ZM327.303 84.1242C326.627 84.2163 325.87 84.33 325.194 84.4221L325.147 83.9111C325.823 83.819 326.499 83.727 327.257 83.6132L327.303 84.1242ZM341.52 80.2668L341.309 79.7991C341.942 79.544 342.575 79.2888 343.29 79.012L343.501 79.4796C342.868 79.7347 342.153 80.0116 341.52 80.2668ZM323.144 84.6167C322.468 84.7087 321.77 84.7192 321.073 84.7297L321.026 84.2187C321.723 84.2082 322.399 84.1162 323.097 84.1057L323.144 84.6167ZM345.4 78.7141L345.19 78.2465C345.823 77.9913 346.435 77.6546 347.068 77.3995L347.278 77.8671C346.727 78.1005 346.012 78.3774 345.4 78.7141ZM349.217 76.9168L349.006 76.4492C349.618 76.1125 350.251 75.8573 350.863 75.5206L351.073 75.9882C350.522 76.2217 349.828 76.5801 349.217 76.9168ZM318.92 84.8645C318.222 84.875 317.525 84.8855 316.806 84.8144L316.841 84.2817C317.538 84.2712 318.257 84.3423 318.955 84.3318L318.92 84.8645ZM306.987 87.4185L306.552 87.0976C307.018 86.5379 307.402 85.9999 307.785 85.462L308.22 85.7829C307.897 86.2176 307.452 86.8589 306.987 87.4185ZM352.969 74.8749L352.676 74.4289C353.288 74.0922 353.9 73.7555 354.49 73.3373L354.782 73.7832C354.192 74.2014 353.58 74.5381 352.969 74.8749ZM314.692 84.7644C313.973 84.6933 313.254 84.6223 312.617 84.5295L312.652 83.9968C313.371 84.0679 314.008 84.1606 314.705 84.1501L314.692 84.7644ZM356.596 72.6915L356.325 72.3271C356.915 71.9089 357.527 71.5721 358.035 71.1756L358.328 71.6215C357.798 71.9365 357.208 72.3548 356.596 72.6915ZM310.542 84.2947C309.823 84.2236 309.164 84.0493 308.445 83.9783L308.584 83.5054C308.769 83.5436 308.954 83.5817 309.057 83.6416C309.359 83.1253 309.639 82.5275 309.92 81.9297L310.415 82.1474C310.195 82.6419 309.914 83.2397 309.612 83.756C309.983 83.8323 310.331 83.8271 310.62 83.9251L310.542 84.2947ZM306.388 83.4771C305.729 83.3027 304.989 83.1501 304.33 82.9758L304.468 82.503C305.127 82.6773 305.786 82.8516 306.444 83.0259L306.388 83.4771ZM311.17 80.0277L310.697 79.8915C310.874 79.2339 311.051 78.5762 311.228 77.9185L311.702 78.0547C311.503 78.6308 311.347 79.37 311.17 80.0277ZM302.393 82.2681C301.713 82.0123 301.033 81.7564 300.435 81.4788L300.655 80.9843C301.253 81.2618 301.933 81.5177 302.592 81.692L302.393 82.2681ZM298.477 80.6896C297.857 80.3305 297.177 80.0746 296.639 79.6938L296.881 79.2808C297.5 79.6399 298.099 79.9174 298.718 80.2766L298.477 80.6896ZM311.923 75.9021L311.389 75.8692C311.381 75.1734 311.373 74.4776 311.365 73.7818L311.878 73.7331C311.989 74.4888 311.997 75.1846 311.923 75.9021ZM294.841 78.5132C294.281 78.0508 293.744 77.67 293.184 77.2077L293.529 76.8545C294.006 77.3386 294.544 77.7194 295.104 78.1817L294.841 78.5132ZM311.587 71.6292L311.096 71.7594C311.053 71.5963 310.989 71.3516 310.946 71.1885C310.817 70.6992 310.71 70.2915 310.499 69.8238L310.969 69.6121C311.179 70.0797 311.308 70.569 311.415 70.9768C311.48 71.2214 311.544 71.4661 311.587 71.6292ZM291.73 75.6739C291.231 75.1083 290.814 74.521 290.501 73.9935L290.949 73.7002C291.284 74.3092 291.68 74.815 292.178 75.3806L291.73 75.6739ZM309.739 67.9317C309.404 67.3227 309.068 66.7137 308.733 66.1046L309.181 65.8113C309.598 66.3986 309.934 67.0077 310.187 67.6384L309.739 67.9317ZM289.473 72.0849C289.241 71.5357 289.009 70.9866 288.859 70.4157C288.816 70.2526 288.795 70.1711 288.773 70.0895L289.264 69.9593C289.286 70.0409 289.329 70.204 289.35 70.2855C289.5 70.8564 289.629 71.3457 289.861 71.8949L289.473 72.0849ZM307.503 64.4242C307.357 64.2013 307.129 64 306.983 63.7771C306.712 63.4127 306.463 63.1299 306.213 62.8471L306.558 62.4939C306.807 62.7767 307.078 63.1411 307.349 63.5055C307.495 63.7284 307.723 63.9297 307.869 64.1526L307.503 64.4242ZM289.055 67.8337L288.543 67.8823C288.535 67.1865 288.609 66.469 288.683 65.7515L289.135 65.8061C289.061 66.5236 289.069 67.2194 289.055 67.8337ZM304.759 61.3133C304.2 60.851 303.641 60.3886 303.124 60.0894L303.366 59.6763C303.904 60.0572 304.463 60.5195 305.022 60.9819L304.759 61.3133ZM289.687 63.9146L289.214 63.7785C289.473 63.0991 289.835 62.4796 290.197 61.8601L290.611 62.0995C290.227 62.6374 289.946 63.2353 289.687 63.9146ZM301.369 59.0719C300.77 58.7943 300.09 58.5385 299.453 58.4457L299.591 57.9728C300.25 58.1471 300.93 58.403 301.61 58.6589L301.369 59.0719ZM291.925 60.4422L291.572 60.0995C292.059 59.6214 292.65 59.2031 293.322 58.7632L293.614 59.2091C292.921 59.5675 292.412 59.9641 291.925 60.4422ZM297.378 58.2109C296.681 58.2214 296.086 58.2917 295.432 58.4653L295.35 58.487L295.221 57.9977L295.303 57.976C295.958 57.8024 296.634 57.7103 297.331 57.6998L297.378 58.2109Z" fill="#F4259A"/>
</svg>
