<svg width="436" height="752" viewBox="0 0 436 752" fill="none" xmlns="http://www.w3.org/2000/svg">
<circle cx="-0.500244" cy="376.5" r="273.996" fill="white"/>
<path d="M-1.0954 649.952C46.4569 649.96 93.1927 637.593 134.517 614.066C175.841 590.539 210.331 556.662 234.596 515.767L-1.04758 375.952L-1.0954 649.952Z" fill="white"/>
<path d="M-0.0953999 649.952C47.4569 649.96 94.1927 637.593 135.517 614.066C176.841 590.539 211.331 556.662 235.596 515.767L208.52 499.702C187.044 535.899 156.517 565.883 119.941 586.707C83.3645 607.531 41.9986 618.477 -0.0899051 618.47L-0.0953999 649.952Z" fill="white"/>
<path d="M-0.0953999 649.952C47.4569 649.96 94.1927 637.593 135.517 614.066C176.841 590.539 211.331 556.662 235.596 515.767L208.52 499.702C187.044 535.899 156.517 565.883 119.941 586.707C83.3645 607.531 41.9986 618.477 -0.0899051 618.47L-0.0953999 649.952Z" fill="#33CFEF" fill-opacity="0.8"/>
<g filter="url(#filter0_d_2801_20248)">
<path d="M235.248 515.409C260.33 473.064 273.545 424.744 273.502 375.528C273.459 326.312 260.16 278.015 235.004 235.714L-0.498286 375.767L235.248 515.409Z" fill="white"/>
</g>
<path d="M235.248 515.409C260.33 473.064 273.545 424.744 273.502 375.528C273.459 326.312 260.16 278.015 235.004 235.714L207.944 251.806C230.211 289.247 241.981 331.994 242.019 375.555C242.057 419.117 230.361 461.884 208.16 499.364L235.248 515.409Z" fill="white"/>
<path d="M235.248 515.409C260.33 473.064 273.545 424.744 273.502 375.528C273.459 326.312 260.16 278.015 235.004 235.714L207.944 251.806C230.211 289.247 241.981 331.994 242.019 375.555C242.057 419.117 230.361 461.884 208.16 499.364L235.248 515.409Z" fill="#F651AE" fill-opacity="0.8"/>
<g filter="url(#filter1_d_2801_20248)">
<path d="M235.08 235.715C210.795 194.832 176.289 160.972 134.953 137.465C93.6174 113.958 46.8755 101.614 -0.676736 101.645L-0.495029 375.645L235.08 235.715Z" fill="white"/>
</g>
<path d="M235.08 235.715C210.795 194.832 176.289 160.972 134.953 137.465C93.6174 113.958 46.8755 101.614 -0.676736 101.645L-0.655862 133.128C41.4326 133.1 82.8038 144.026 119.39 164.832C155.976 185.638 186.518 215.607 208.012 251.793L235.08 235.715Z" fill="#6BEAD3"/>
<g filter="url(#filter2_d_2801_20248)">
<path d="M-236.072 236.573C-211.788 195.69 -177.282 161.831 -135.946 138.324C-94.6111 114.818 -47.8698 102.474 -0.318228 102.505L-0.499953 376.501L-236.072 236.573Z" fill="white"/>
</g>
<g filter="url(#filter3_d_2801_20248)">
<path d="M-236.072 516.429C-211.788 557.312 -177.282 591.171 -135.946 614.678C-94.6111 638.184 -47.8698 650.528 -0.318228 650.497L-0.499953 376.501L-236.072 516.429Z" fill="white"/>
</g>
<path d="M161.642 343.776L161.642 343.776C162.67 343.676 165.49 343.705 166.789 343.827C172.809 344.394 178.417 346.636 183.186 350.382C183.766 350.837 184.96 351.927 185.844 352.806L186.967 353.922L186.997 349.667L187.031 344.735L187.032 344.624L187.107 344.543L187.399 344.228C187.399 344.228 187.399 344.228 187.399 344.228C187.841 343.75 188.59 343.59 189.191 343.843L189.191 343.843C189.205 343.848 189.219 343.854 189.233 343.86C189.39 343.925 189.592 344.008 189.737 344.22C189.884 344.436 189.954 344.752 189.999 345.228C190.086 346.163 190.085 347.943 190.085 351.452L190.085 351.846C190.085 354.194 190.075 355.943 190.053 357.131C190.042 357.724 190.029 358.18 190.012 358.501C190.003 358.662 189.994 358.792 189.984 358.89C189.978 358.939 189.972 358.984 189.965 359.022C189.96 359.054 189.95 359.104 189.929 359.15L189.929 359.15C189.874 359.272 189.779 359.395 189.682 359.497C189.583 359.601 189.463 359.703 189.342 359.776M161.642 343.776L189.196 359.532M161.642 343.776C155.923 344.333 151.097 346.015 146.717 348.985C142.017 352.173 138.367 356.396 135.883 361.521L136.139 361.645M161.642 343.776L161.67 344.059C155.993 344.611 151.213 346.279 146.876 349.221C142.218 352.38 138.601 356.565 136.139 361.645M189.342 359.776L189.196 359.532M189.342 359.776C189.342 359.776 189.342 359.776 189.342 359.776L189.196 359.532M189.342 359.776C189.219 359.85 189.074 359.893 188.851 359.923C188.631 359.954 188.311 359.974 187.823 359.988C186.844 360.016 185.144 360.021 182.107 360.021C181.915 360.021 181.728 360.021 181.545 360.021C178.177 360.021 176.464 360.022 175.56 359.925C175.089 359.875 174.774 359.794 174.558 359.624C174.361 359.469 174.276 359.258 174.208 359.086C174.2 359.065 174.192 359.045 174.184 359.026L174.184 359.026C173.913 358.368 174.114 357.624 174.673 357.177M189.196 359.532C188.888 359.716 188.184 359.737 182.107 359.737C175.946 359.737 174.971 359.751 174.628 359.292C174.553 359.192 174.509 359.069 174.447 358.918C174.225 358.38 174.388 357.77 174.851 357.4M174.673 357.177L174.851 357.4M174.673 357.177C174.674 357.177 174.674 357.177 174.674 357.177L174.851 357.4M174.673 357.177L174.851 357.4M136.139 361.645L135.883 361.521C134.331 364.722 133.391 367.864 132.87 371.578L133.152 371.617L136.139 361.645ZM165.307 362.444C164.74 362.378 164.058 362.331 163.792 362.339C158.79 362.496 154.402 365.41 152.272 369.988C149.941 374.998 151.03 381 154.972 384.872L165.307 362.444ZM165.307 362.444C166.773 362.615 168.108 362.996 169.384 363.608M165.307 362.444L169.384 363.608M169.384 363.608L169.261 363.864C168.014 363.266 166.71 362.894 165.274 362.727C164.709 362.661 164.045 362.616 163.8 362.624L163.8 362.624C158.908 362.777 154.615 365.626 152.53 370.108C150.25 375.008 151.315 380.881 155.171 384.669C156.285 385.763 157.247 386.436 158.686 387.126C163.398 389.385 168.957 388.42 172.776 384.669C176.631 380.881 177.697 375.008 175.417 370.108C174.097 367.269 172.065 365.208 169.261 363.864L169.384 363.608ZM191.851 369.634L191.571 369.683C191.48 369.164 191.455 368.746 191.544 368.403C191.639 368.038 191.855 367.787 192.17 367.589L191.851 369.634ZM191.851 369.634L191.571 369.683C192.335 374.037 192.296 377.899 191.453 381.754C190.573 385.783 188.605 389.949 185.985 393.325C185.106 394.457 182.643 396.957 181.528 397.849C174.474 403.494 165.497 405.42 156.801 403.157C152.985 402.164 149.066 400.105 145.955 397.457C145.392 396.978 144.493 396.104 143.733 395.321C143.353 394.93 143.011 394.566 142.765 394.287C142.733 394.251 142.703 394.216 142.674 394.183M191.851 369.634C192.621 374.02 192.582 377.92 191.731 381.815C190.842 385.886 188.854 390.091 186.209 393.499C185.317 394.649 182.838 397.165 181.706 398.071C174.582 403.771 165.512 405.718 156.729 403.432C152.871 402.428 148.913 400.348 145.771 397.674C144.805 396.852 142.9 394.918 142.319 394.202C142.382 394.197 142.469 394.192 142.58 394.187C142.61 394.186 142.641 394.184 142.674 394.183M191.851 369.634C191.672 368.613 191.788 368.165 192.321 367.83L191.851 369.634ZM153.763 391.964L153.763 391.964C154.034 392.622 153.833 393.366 153.273 393.813M153.763 391.964L147.466 393.839C145.16 393.839 143.184 393.868 142.451 393.909C142.46 393.921 142.47 393.934 142.482 393.95C142.529 394.011 142.594 394.09 142.674 394.183M153.763 391.964C153.755 391.945 153.747 391.925 153.739 391.904C153.67 391.732 153.586 391.521 153.389 391.366C153.172 391.196 152.855 391.115 152.381 391.065C151.472 390.969 149.749 390.969 146.359 390.969C146.171 390.969 145.978 390.969 145.779 390.969H138.97H138.851M153.763 391.964L138.851 390.969M153.273 393.813L153.096 393.591L153.273 393.813C153.273 393.813 153.273 393.813 153.273 393.813ZM153.273 393.813C153.176 393.891 153.072 393.96 152.882 394.007C152.712 394.049 152.476 394.073 152.112 394.089C151.378 394.121 150.037 394.123 147.466 394.123C146.005 394.123 144.677 394.135 143.715 394.154C143.288 394.162 142.934 394.172 142.674 394.183M138.851 390.969L138.768 391.054M138.851 390.969L138.768 391.054M138.768 391.054L138.356 391.473L137.943 391.891L137.862 391.974M138.768 391.054L137.862 391.974M137.862 391.974L137.862 392.091M137.862 391.974L137.862 392.091M137.862 392.091L137.862 396.627C137.862 399.124 137.898 402.304 137.942 403.697L138.022 406.221L138.026 406.332M137.862 392.091L138.026 406.332M138.026 406.332L138.103 406.411M138.026 406.332L138.103 406.411M138.103 406.411L138.512 406.827C138.689 407.007 138.845 407.158 139.039 407.231C139.241 407.307 139.447 407.286 139.673 407.256L139.673 407.255M138.103 406.411L139.673 407.255M139.673 407.255C139.884 407.227 140.071 407.174 140.246 407.079C140.421 406.984 140.568 406.855 140.712 406.693L140.712 406.693M139.673 407.255L140.712 406.693M140.712 406.693L141.063 406.293L141.135 406.211M140.712 406.693L141.135 406.211M141.135 406.211L141.134 406.101M141.135 406.211L141.134 406.101M141.134 406.101L141.068 401.252L141.011 397.1L142.111 398.193L142.312 397.991M141.134 406.101L142.312 397.991M142.312 397.991L142.111 398.193C143.747 399.818 145.077 400.929 146.717 402.037L146.876 401.801L146.717 402.037C153.985 406.945 163.084 408.498 171.688 406.303C174.82 405.504 178.547 403.833 181.17 402.052C184.869 399.541 188.179 396.097 190.575 392.266C192.09 389.845 193.6 386.24 194.321 383.324C195.489 378.608 195.602 373.284 194.621 368.969L194.344 369.032L194.621 368.969C194.47 368.304 194.15 367.784 193.7 367.517C193.234 367.24 192.684 367.265 192.17 367.589L142.312 397.991ZM185.631 356.785C185.57 356.791 185.484 356.796 185.373 356.802C185.343 356.803 185.311 356.805 185.277 356.806C185.349 356.89 185.409 356.961 185.454 357.02C185.472 357.043 185.487 357.063 185.499 357.08L185.631 356.785ZM185.8 357.043C185.8 357.056 185.701 357.068 185.518 357.079C185.516 357.069 185.515 357.057 185.515 357.043C185.515 356.921 185.589 356.849 185.617 356.827C185.627 356.818 185.638 356.811 185.647 356.805C185.745 356.927 185.8 357.011 185.8 357.043ZM150.918 366.475L150.918 366.475C149.744 368.257 148.913 370.251 148.466 372.358C148.304 373.119 148.226 374.316 148.226 375.495C148.226 376.674 148.304 377.871 148.466 378.632C149.154 381.875 150.523 384.424 152.846 386.79C155.126 389.112 157.708 390.541 160.881 391.236C161.632 391.4 162.812 391.479 163.973 391.479C165.135 391.479 166.315 391.4 167.066 391.236C170.262 390.536 172.774 389.146 175.104 386.787C177.391 384.472 178.798 381.851 179.481 378.632C179.643 377.871 179.72 376.674 179.72 375.495C179.72 374.316 179.643 373.119 179.481 372.358C178.798 369.139 177.391 366.518 175.104 364.203C172.816 361.887 170.414 360.534 167.311 359.816L167.247 360.093L167.311 359.816C166.779 359.693 165.753 359.591 164.757 359.535C163.761 359.479 162.747 359.466 162.239 359.531C159.676 359.863 157.222 360.794 155.083 362.246L155.243 362.481L155.083 362.246C154.476 362.659 153.634 363.415 152.852 364.209C152.07 365.003 151.325 365.858 150.918 366.475ZM168.917 369.632L168.917 369.633C168.867 369.669 168.798 369.737 168.728 369.808C168.651 369.887 168.553 369.992 168.435 370.119C168.201 370.374 167.888 370.723 167.519 371.141C166.781 371.977 165.817 373.092 164.803 374.283L161.324 378.373L159.98 376.995L159.776 377.193L159.98 376.995C159.01 376.001 158.406 375.407 157.963 375.063C157.739 374.889 157.543 374.77 157.352 374.695C157.155 374.619 156.976 374.595 156.792 374.595C156.204 374.595 155.739 374.92 155.5 375.38C155.263 375.837 155.249 376.422 155.529 376.956C155.556 377.009 155.603 377.07 155.645 377.123C155.693 377.183 155.754 377.255 155.826 377.336C155.971 377.501 156.164 377.711 156.39 377.951C156.841 378.431 157.426 379.034 158.016 379.631C158.605 380.227 159.201 380.818 159.674 381.272C159.91 381.499 160.117 381.694 160.277 381.838C160.358 381.911 160.428 381.972 160.486 382.019C160.537 382.061 160.598 382.109 160.652 382.137C160.93 382.28 161.258 382.326 161.561 382.296C161.862 382.266 162.17 382.157 162.394 381.953C162.583 381.781 163.222 381.056 164.056 380.089C164.899 379.111 165.959 377.864 167.002 376.625C168.045 375.385 169.072 374.154 169.848 373.208C170.236 372.735 170.563 372.333 170.797 372.036C170.914 371.888 171.01 371.765 171.079 371.672C171.113 371.625 171.143 371.584 171.166 371.551C171.184 371.525 171.212 371.481 171.23 371.439L171.23 371.439C171.518 370.751 171.264 369.975 170.628 369.581L170.628 369.581C170.345 369.406 170.059 369.306 169.76 369.315C169.46 369.323 169.183 369.44 168.917 369.632Z" fill="#F874BE" stroke="#F874BE" stroke-width="0.568724"/>
<path fill-rule="evenodd" clip-rule="evenodd" d="M47.6105 500.153C46.8796 500.381 45.9419 501.105 45.4618 501.813C44.6557 503.001 44.7037 501.716 44.7037 522.114C44.7037 540.38 44.7068 540.627 44.95 541.407C45.2781 542.459 46.1885 543.457 47.2736 543.953L48.0345 544.301L64.0935 544.334L80.1525 544.366L79.6835 547.093C79.1206 550.368 79.1087 551.256 79.6179 552.019C80.0505 552.666 80.7192 553.003 81.5495 552.991C81.902 552.986 82.3569 552.919 82.5606 552.841C82.7644 552.764 84.4621 551.904 86.3335 550.93C88.6883 549.706 89.8571 549.161 90.1294 549.161C90.3986 549.161 91.4254 549.631 93.3815 550.65C98.0815 553.099 97.859 552.999 98.594 553C99.9997 553.001 100.916 552.161 100.999 550.796C101.035 550.192 100.447 546.088 100.116 544.645C100.059 544.395 100.096 544.387 101.722 544.34C103.237 544.295 103.455 544.26 104.147 543.948C105.242 543.455 106.147 542.46 106.475 541.387C106.718 540.59 106.721 540.388 106.689 521.865L106.656 503.148L106.334 502.467C105.903 501.556 105.144 500.765 104.312 500.36L103.628 500.028L75.892 500.006C52.2723 499.987 48.0747 500.009 47.6105 500.153ZM102.895 503.834C103.063 504.073 103.083 506.004 103.083 522.105C103.083 538.205 103.063 540.137 102.895 540.375C102.716 540.628 102.623 540.642 101.091 540.642H99.4757L99.3534 539.952C99.2861 539.573 99.1359 538.668 99.0196 537.942L98.808 536.623L99.4183 535.698C102.167 531.531 101.823 526.186 98.5648 522.431C97.1182 520.764 95.3452 519.643 93.091 518.971C92.1207 518.681 91.8013 518.645 90.1841 518.64C88.0694 518.633 86.9817 518.859 85.3171 519.652C80.299 522.042 77.7977 527.754 79.4883 532.963C79.81 533.955 80.4628 535.258 81.0101 536.001L81.4358 536.579L81.0988 538.61L80.7619 540.642H64.7381H48.7143L48.5258 540.375C48.3572 540.137 48.3373 538.205 48.3373 522.105C48.3373 506.004 48.3572 504.073 48.5258 503.834L48.7143 503.567H75.7103H102.706L102.895 503.834ZM53.4788 510.575C52.3979 511.043 52.0307 512.358 52.7151 513.31C53.2516 514.057 51.6191 514.006 75.0807 514.006H96.5071L96.9186 513.734C98.0248 513.002 97.9965 511.555 96.8597 510.714L96.5252 510.466L75.1867 510.441C57.6313 510.419 53.7827 510.443 53.4788 510.575ZM53.1697 520.637C52.0635 521.369 52.0919 522.816 53.2287 523.657C53.5587 523.901 53.6845 523.905 62.881 523.937C72.0807 523.968 72.2051 523.966 72.6875 523.722C73.3045 523.41 73.6502 522.86 73.6508 522.189C73.6514 521.567 73.4255 521.101 72.9196 520.679L72.5427 520.365H63.0619H53.5813L53.1697 520.637ZM92.3031 522.547C94.4633 523.196 96.4073 525.026 97.1448 527.105C98.6608 531.377 96.1144 535.88 91.622 536.87C88.3698 537.587 84.9647 535.933 83.4521 532.903C82.0075 530.009 82.5286 526.743 84.8011 524.449C86.7598 522.472 89.6299 521.744 92.3031 522.547ZM85.3597 539.61C86.7901 540.314 88.2737 540.637 90.0854 540.64C91.9049 540.643 93.5434 540.282 94.9557 539.569C95.242 539.424 95.4904 539.323 95.5076 539.344C95.5507 539.397 97.0228 548.367 96.9918 548.388C96.9781 548.398 95.798 547.796 94.3697 547.05C92.2959 545.968 91.6062 545.665 90.9481 545.549C89.5145 545.295 88.8817 545.482 85.8775 547.05C84.4491 547.796 83.2661 548.395 83.2489 548.382C83.209 548.352 84.6961 539.322 84.741 539.322C84.7593 539.322 85.0378 539.452 85.3597 539.61Z" fill="#5CD9F2"/>
<path d="M49.5288 205.132L49.5288 205.132L49.1903 206.213V229.527V252.841L49.5288 253.922L49.3472 253.979L49.5288 253.922C50.509 257.052 52.9832 259.503 56.1449 260.474L56.089 260.656L56.1449 260.474L57.2369 260.81H65.6123H73.9593L74.416 260.51L74.5203 260.669L74.416 260.51C74.7864 260.268 75.034 260.012 75.1914 259.713C75.3491 259.413 75.4246 259.054 75.4246 258.589C75.4246 258.255 75.4101 258.052 75.3676 257.885C75.3263 257.723 75.2558 257.584 75.123 257.386L75.2812 257.28L75.123 257.386C74.9536 257.132 74.6092 256.796 74.3731 256.65L74.3731 256.65L73.9436 256.386L65.9127 256.325L57.8287 256.263L57.7928 256.263L57.7595 256.249L57.0441 255.963C55.6118 255.39 54.5251 254.265 54.0188 252.828C53.9567 252.652 53.9151 252.443 53.884 251.906C53.8528 251.368 53.8314 250.488 53.8168 248.96C53.7874 245.904 53.7845 240.244 53.7845 229.527C53.7845 218.81 53.7874 213.149 53.8168 210.093C53.8314 208.566 53.8528 207.685 53.884 207.148C53.9151 206.611 53.9567 206.401 54.0188 206.225C54.5251 204.788 55.6118 203.663 57.0441 203.09C57.0441 203.09 57.0442 203.09 57.0442 203.09L57.7595 202.804L57.7935 202.79H57.8302H74.1847H90.5392H90.5758L90.6099 202.804L91.3132 203.086L91.2425 203.262L91.3132 203.086C92.6555 203.623 93.7432 204.7 94.2864 206.031L94.1103 206.103L94.2864 206.031L94.5708 206.728L94.5847 206.762L94.5849 206.799L94.647 220.789L94.709 234.722L95.0108 235.174C95.4159 235.78 95.9901 236.12 96.7429 236.194L96.743 236.194C97.0155 236.221 97.181 236.222 97.3435 236.186C97.5088 236.15 97.6841 236.075 97.9712 235.925M49.5288 205.132L98.0592 236.094M49.5288 205.132C50.0905 203.338 51.2169 201.65 52.6355 200.474M49.5288 205.132L52.6355 200.474M97.9712 235.925L98.0592 236.094M97.9712 235.925C97.9712 235.925 97.9712 235.925 97.9712 235.925L98.0592 236.094M97.9712 235.925C98.242 235.784 98.4084 235.675 98.5404 235.545C98.6721 235.415 98.7795 235.254 98.917 234.994L99.2412 234.379M98.0592 236.094C98.6123 235.805 98.8035 235.617 99.0853 235.082L99.4315 234.426M99.2412 234.379L99.2412 234.426L99.4315 234.426M99.2412 234.379L99.2396 220.736C99.2388 214.264 99.2352 210.828 99.204 208.877C99.1728 206.924 99.114 206.471 99.0068 205.956C98.5875 203.944 97.6653 202.301 96.1576 200.883C94.707 199.518 93.2773 198.782 91.2758 198.373C90.8779 198.291 90.1854 198.242 87.7746 198.217C85.3719 198.191 81.2787 198.188 74.0967 198.192C67.4071 198.196 63.3062 198.206 60.796 198.233C59.5407 198.246 58.6849 198.263 58.1028 198.286C57.5155 198.309 57.2197 198.337 57.0748 198.368C55.2443 198.762 53.9713 199.367 52.6355 200.474M99.2412 234.379L99.2632 234.337L99.4315 234.426M99.4315 234.426L52.6355 200.474M60.1047 217.114L59.9958 217.27L60.1047 217.114C59.4844 216.681 59.0776 215.933 59.0776 215.257C59.0776 214.309 59.7772 213.344 60.635 213.084C60.6371 213.084 60.64 213.083 60.6439 213.083C60.6577 213.082 60.678 213.08 60.7055 213.078C60.7601 213.075 60.8374 213.072 60.9369 213.068C61.1355 213.061 61.4178 213.055 61.7751 213.048C62.4895 213.035 63.5005 213.023 64.7339 213.013C67.2005 212.992 70.555 212.978 74.2017 212.975L87.4175 212.964L88.0391 213.286L88.1265 213.117L88.0391 213.286C88.301 213.421 88.4634 213.528 88.5934 213.657C88.7233 213.785 88.8308 213.946 88.9675 214.205C89.1808 214.61 89.2772 214.929 89.2772 215.237C89.2772 215.546 89.1808 215.865 88.9675 216.27C88.8304 216.53 88.7231 216.69 88.5929 216.819C88.4626 216.948 88.2994 217.055 88.035 217.191L88.1224 217.36L88.035 217.191L87.4093 217.515L73.9909 217.482L60.5855 217.449L60.1047 217.114ZM88.035 227.046L88.1224 227.215L88.035 227.046L87.4093 227.37L73.9909 227.337L60.5855 227.304L60.1047 226.969L59.9958 227.125L60.1047 226.969C59.4844 226.536 59.0776 225.788 59.0776 225.112C59.0776 224.163 59.7773 223.199 60.635 222.939C60.6371 222.938 60.64 222.938 60.6439 222.938C60.6577 222.936 60.678 222.935 60.7055 222.933C60.7601 222.93 60.8374 222.926 60.9369 222.923C61.1355 222.916 61.4178 222.909 61.7751 222.903C62.4895 222.89 63.5005 222.878 64.7339 222.867C67.2005 222.847 70.555 222.832 74.2017 222.829L87.4175 222.819L88.0391 223.14L88.1265 222.971L88.0391 223.14C88.301 223.276 88.4634 223.382 88.5934 223.511C88.7233 223.64 88.8308 223.801 88.9675 224.06C89.1808 224.464 89.2772 224.784 89.2772 225.092C89.2772 225.401 89.1808 225.72 88.9675 226.124C88.8304 226.384 88.7231 226.545 88.5929 226.674C88.4626 226.802 88.2994 226.909 88.035 227.046ZM88.6641 256.209L88.6641 256.209C88.8171 256.163 88.9547 256.079 89.1641 255.864C89.3696 255.654 89.6585 255.303 90.1133 254.708C91.025 253.515 92.6252 251.309 95.6004 247.191C97.3498 244.77 98.9707 242.552 100.173 240.928C100.774 240.117 101.27 239.454 101.625 238.99C101.802 238.757 101.944 238.575 102.045 238.449C102.096 238.386 102.135 238.339 102.164 238.306C102.17 238.299 102.176 238.292 102.181 238.287C102.185 238.283 102.188 238.279 102.191 238.276C102.337 238.195 102.606 238.068 102.799 237.99C103.317 237.78 104.14 237.881 104.761 238.263C105.693 238.836 106.058 239.971 105.634 240.92C105.634 240.92 105.634 240.92 105.634 240.922L105.631 240.927C105.628 240.932 105.625 240.938 105.621 240.945C105.612 240.961 105.6 240.98 105.585 241.004C105.556 241.053 105.515 241.116 105.463 241.195C105.36 241.351 105.217 241.562 105.039 241.821C104.682 242.34 104.188 243.046 103.6 243.878C102.424 245.542 100.875 247.708 99.312 249.879C97.7493 252.049 96.1727 254.223 94.9412 255.903C94.3253 256.743 93.796 257.458 93.3979 257.988C92.9953 258.524 92.736 258.857 92.6538 258.943C92.0377 259.592 91.1689 260.155 90.2229 260.514L90.2904 260.692C89.7142 260.911 89.2751 260.979 88.3627 260.988C87.0923 261.001 86.3195 260.839 85.3157 260.35L85.399 260.179C85.399 260.179 85.399 260.179 85.399 260.179C84.5438 259.762 84.2872 259.544 79.7879 255.271C77.6626 253.253 76.5231 252.15 75.9123 251.428C75.6082 251.068 75.4453 250.814 75.3563 250.599C75.2693 250.388 75.248 250.203 75.2471 249.968C75.246 249.656 75.37 249.272 75.5782 248.916C75.7861 248.56 76.0637 248.256 76.3443 248.094C77.002 247.712 77.482 247.604 78.0269 247.783C78.5983 247.969 79.266 248.476 80.2653 249.423C81.0592 250.175 82.9768 251.994 84.5265 253.465C85.3548 254.252 86.0953 254.931 86.6539 255.42C86.9329 255.664 87.1681 255.862 87.3469 256.003C87.436 256.074 87.5133 256.132 87.5761 256.174C87.6074 256.195 87.6373 256.214 87.6647 256.229C87.6892 256.243 87.7232 256.26 87.76 256.269L87.8059 256.084L87.76 256.269C87.8797 256.299 88.0391 256.302 88.1922 256.291C88.3489 256.28 88.5183 256.252 88.6641 256.209ZM59.0776 234.966C59.0776 234.018 59.7765 233.054 60.6399 232.79C60.6398 232.79 60.6397 232.79 60.6397 232.79C60.6398 232.791 60.6518 232.788 60.6848 232.786C60.722 232.782 60.7738 232.779 60.8404 232.776C60.9733 232.769 61.1593 232.763 61.393 232.758C61.8603 232.746 62.5141 232.736 63.3071 232.729C64.8928 232.713 67.0324 232.707 69.343 232.713L77.6905 232.735L78.1473 233.034C78.5162 233.276 78.7639 233.532 78.9216 233.83C79.0797 234.13 79.1557 234.487 79.1557 234.947C79.1557 235.406 79.0797 235.764 78.9216 236.063C78.7638 236.362 78.5161 236.617 78.1472 236.859L77.6905 237.159H69.1364H60.5853L60.1047 236.823C59.4844 236.391 59.0776 235.643 59.0776 234.966Z" fill="#6BEAD3" stroke="white" stroke-width="0.38055"/>
<circle cx="351.5" cy="173.5" r="7.5" fill="white" stroke="#6BEAD3" stroke-width="6"/>
<circle cx="425.5" cy="378.5" r="7.5" fill="white" stroke="#F874BE" stroke-width="6"/>
<circle cx="351.5" cy="563.5" r="7.5" fill="white" stroke="#5CD9F2" stroke-width="6"/>
<defs>
<filter id="filter0_d_2801_20248" x="-9.3778" y="231.909" width="291.759" height="297.452" filterUnits="userSpaceOnUse" color-interpolation-filters="sRGB">
<feFlood flood-opacity="0" result="BackgroundImageFix"/>
<feColorMatrix in="SourceAlpha" type="matrix" values="0 0 0 0 0 0 0 0 0 0 0 0 0 0 0 0 0 0 127 0" result="hardAlpha"/>
<feOffset dy="5.07401"/>
<feGaussianBlur stdDeviation="4.43976"/>
<feComposite in2="hardAlpha" operator="out"/>
<feColorMatrix type="matrix" values="0 0 0 0 0 0 0 0 0 0 0 0 0 0 0 0 0 0 0.15 0"/>
<feBlend mode="normal" in2="BackgroundImageFix" result="effect1_dropShadow_2801_20248"/>
<feBlend mode="normal" in="SourceGraphic" in2="effect1_dropShadow_2801_20248" result="shape"/>
</filter>
<filter id="filter1_d_2801_20248" x="-9.55627" y="97.839" width="253.516" height="291.759" filterUnits="userSpaceOnUse" color-interpolation-filters="sRGB">
<feFlood flood-opacity="0" result="BackgroundImageFix"/>
<feColorMatrix in="SourceAlpha" type="matrix" values="0 0 0 0 0 0 0 0 0 0 0 0 0 0 0 0 0 0 127 0" result="hardAlpha"/>
<feOffset dy="5.07401"/>
<feGaussianBlur stdDeviation="4.43976"/>
<feComposite in2="hardAlpha" operator="out"/>
<feColorMatrix type="matrix" values="0 0 0 0 0 0 0 0 0 0 0 0 0 0 0 0 0 0 0.15 0"/>
<feBlend mode="normal" in2="BackgroundImageFix" result="effect1_dropShadow_2801_20248"/>
<feBlend mode="normal" in="SourceGraphic" in2="effect1_dropShadow_2801_20248" result="shape"/>
</filter>
<filter id="filter2_d_2801_20248" x="-239.877" y="98.7004" width="253.513" height="291.755" filterUnits="userSpaceOnUse" color-interpolation-filters="sRGB">
<feFlood flood-opacity="0" result="BackgroundImageFix"/>
<feColorMatrix in="SourceAlpha" type="matrix" values="0 0 0 0 0 0 0 0 0 0 0 0 0 0 0 0 0 0 127 0" result="hardAlpha"/>
<feOffset dx="5.07401" dy="5.07401"/>
<feGaussianBlur stdDeviation="4.43976"/>
<feComposite in2="hardAlpha" operator="out"/>
<feColorMatrix type="matrix" values="0 0 0 0 0 0 0 0 0 0 0 0 0 0 0 0 0 0 0.15 0"/>
<feBlend mode="normal" in2="BackgroundImageFix" result="effect1_dropShadow_2801_20248"/>
<feBlend mode="normal" in="SourceGraphic" in2="effect1_dropShadow_2801_20248" result="shape"/>
</filter>
<filter id="filter3_d_2801_20248" x="-239.877" y="372.694" width="253.513" height="291.755" filterUnits="userSpaceOnUse" color-interpolation-filters="sRGB">
<feFlood flood-opacity="0" result="BackgroundImageFix"/>
<feColorMatrix in="SourceAlpha" type="matrix" values="0 0 0 0 0 0 0 0 0 0 0 0 0 0 0 0 0 0 127 0" result="hardAlpha"/>
<feOffset dx="5.07401" dy="5.07401"/>
<feGaussianBlur stdDeviation="4.43976"/>
<feComposite in2="hardAlpha" operator="out"/>
<feColorMatrix type="matrix" values="0 0 0 0 0 0 0 0 0 0 0 0 0 0 0 0 0 0 0.15 0"/>
<feBlend mode="normal" in2="BackgroundImageFix" result="effect1_dropShadow_2801_20248"/>
<feBlend mode="normal" in="SourceGraphic" in2="effect1_dropShadow_2801_20248" result="shape"/>
</filter>
</defs>
</svg>
