<svg width="561" height="504" viewBox="0 0 561 504" fill="none" xmlns="http://www.w3.org/2000/svg">
<path d="M33.1387 315.368C33.1322 311.37 33.5362 282.588 53.6752 262.877C75.4355 241.56 99.4012 251.281 122.591 240.157C176.34 214.396 141.069 117.452 186.788 70.0068C238.734 16.0938 393.121 28.1739 473.514 121.36C530.127 186.955 550.325 293.076 500.563 370.948C447.013 454.763 339.929 462.784 300.183 465.759C277.141 467.489 217.348 469.324 152.727 439.532C134.725 431.222 33.1811 384.421 33.1387 315.368Z" fill="white"/>
<path d="M33.1387 315.368C33.1322 311.37 33.5362 282.588 53.6752 262.877C75.4355 241.56 99.4012 251.281 122.591 240.157C176.34 214.396 141.069 117.452 186.788 70.0068C238.734 16.0938 393.121 28.1739 473.514 121.36C530.127 186.955 550.325 293.076 500.563 370.948C447.013 454.763 339.929 462.784 300.183 465.759C277.141 467.489 217.348 469.324 152.727 439.532C134.725 431.222 33.1811 384.421 33.1387 315.368Z" fill="#FDDEF0"/>
<mask id="mask0_1244_14696" style="mask-type:alpha" maskUnits="userSpaceOnUse" x="33" y="37" width="496" height="430">
<path d="M33.1387 315.368C33.1322 311.37 33.5362 282.588 53.6752 262.877C75.4355 241.56 99.4012 251.281 122.591 240.157C176.34 214.396 141.069 117.452 186.788 70.0068C238.734 16.0938 393.121 28.1739 473.514 121.36C530.127 186.955 550.325 293.076 500.563 370.948C447.013 454.763 339.929 462.784 300.183 465.759C277.141 467.489 217.348 469.324 152.727 439.532C134.725 431.222 33.1811 384.421 33.1387 315.368Z" fill="white"/>
<path d="M33.1387 315.368C33.1322 311.37 33.5362 282.588 53.6752 262.877C75.4355 241.56 99.4012 251.281 122.591 240.157C176.34 214.396 141.069 117.452 186.788 70.0068C238.734 16.0938 393.121 28.1739 473.514 121.36C530.127 186.955 550.325 293.076 500.563 370.948C447.013 454.763 339.929 462.784 300.183 465.759C277.141 467.489 217.348 469.324 152.727 439.532C134.725 431.222 33.1811 384.421 33.1387 315.368Z" fill="#FDDEF0"/>
</mask>
<g mask="url(#mask0_1244_14696)">
<path d="M261.854 315.592C253.044 317.391 245.513 311.995 243.917 306.805C243.027 303.771 243.142 300.566 246.37 295.497L253.015 281.171L256.262 294.151L253.651 295.929C257.421 298.566 269.553 302.088 270.297 303.752C271.355 306.181 266.761 314.607 261.854 315.592ZM341.159 282.588C321.837 280.742 302.515 278.895 283.193 277.049C283.113 286.437 281.87 296.478 281.073 307.171C280.89 309.629 280.707 312.087 279.862 315.113L340.252 319.725L342.083 295.143L341.159 282.588ZM280.799 310.858C280.799 310.858 268.065 345.361 268.987 371.266L269.095 466.467L299.385 468.688L312.369 352.948L346.141 468.742L376.829 472.42C376.829 472.42 351.801 339.396 341.179 315.593C339.34 315.329 320.67 316.376 315.115 316.075C297.87 314.634 286.564 311.669 280.799 310.858ZM284.9 252.457L306.204 229.363L298.794 212.357L296.357 211.8L281.768 214.641C281.768 214.641 277.504 215.304 274.135 217.272C269.09 220.1 265.685 222.56 263.875 233.546L252.621 286.457L275.764 288.595L284.9 252.457ZM346.917 295.142C344.622 291.011 345.986 269.36 345.986 269.36L344.72 234.777L324.098 228.752L303.118 230.858L292.831 222.532L291.479 227.373L289.845 226.012L284.786 252.325L278.058 296.063C278.058 296.063 281.029 297.773 286.069 296.675C291.232 295.586 299.759 294.259 307.322 297.556C315.132 300.872 349.203 299.395 346.917 295.142ZM325.219 305.227L315.613 267.782C314.943 265.135 312.606 263.226 309.894 263.019L249.381 258.397C247.286 258.237 245.661 260.091 246.13 262.104L256.311 301.819C256.589 303.076 257.757 304.03 259.113 304.134L321.968 308.935C324.063 309.095 325.688 307.241 325.219 305.227ZM321.275 304.926L311.669 267.481C310.999 264.834 308.662 262.925 305.951 262.718L245.437 258.096C243.342 257.936 241.717 259.789 242.187 261.803L252.367 301.517C252.645 302.775 253.814 303.729 255.169 303.833L318.024 308.633C320.119 308.793 321.745 306.94 321.275 304.926ZM279.302 286.022C280.781 286.135 282.524 286.021 282.689 283.809C282.845 281.719 280.499 279.933 279.02 279.82C277.541 279.707 275.77 280.19 275.66 281.665C275.523 283.509 277.7 285.9 279.302 286.022ZM302.423 305.093L311.036 304.268L306.1 294.002C306.1 294.002 298.539 280.693 296.038 277.659C294.906 276.213 293.902 276.383 293.116 276.941C292.076 277.603 291.719 279.06 292.253 280.213C293.207 282.387 294.913 286.102 293.927 286.027C291.955 285.876 285.013 280.896 282.535 279.223C280.408 277.825 278.674 277.816 277.574 277.608C274.502 277.25 270.37 281.137 270.127 282.726C269.716 284.919 270.044 287.169 271.792 288.662C274.462 291.091 282.221 296.752 286.092 298.036C288.748 298.981 299.087 301.625 299.087 301.625L302.423 305.093ZM272.861 284.294C273.911 286.846 282.094 291.798 282.094 291.798L272.861 284.294ZM276.742 282.118C279.024 284.765 285.003 287.694 285.003 287.694L276.742 282.118ZM248.268 303.306C248.268 303.306 250.262 304.818 251.101 306.859C251.941 308.901 255.57 308.437 255.57 308.437C255.57 308.437 258.706 307.935 260.34 309.296C261.974 310.656 266.192 307.27 267.516 306.135C268.84 305 270.53 298.949 268.883 296.104C267.236 293.259 263.777 289.781 257.614 289.31C251.452 288.839 249.67 296.12 249.67 296.12C244.374 300.66 248.268 303.306 248.268 303.306ZM254.325 300.184C254.325 300.184 255.649 299.049 258.234 294.302L254.325 300.184ZM259.072 303.018C259.072 303.018 260.396 301.883 262.981 297.136L259.072 303.018ZM324.089 228.875L343.118 256.286L351.851 297.125C348.428 293.156 350.435 299.49 350.435 299.49L309.953 288.858C308.89 288.158 307.383 288.414 306.676 289.596L300.406 302.22C299.15 304.102 299.706 306.616 301.596 307.873L337.97 317.079C348.879 320.384 358.739 321.137 363.668 321.514C375.993 322.455 372.119 291.257 372.119 291.257C372.119 291.257 370.753 276.32 367.929 247.674C367.52 236.518 364.572 232.832 360.675 228.579C358.032 225.781 351.843 222.342 351.843 222.342L338.744 215.161L336.279 214.973L324.089 228.875ZM344.414 280.488L344.963 273.114L347.843 251.084L339.857 241.822L331.779 233.788L327.899 235.964L325.159 239.463L323.163 266.257L335.457 284.254L344.414 280.488ZM324.504 206.657L323.591 205.598L321.245 203.812L312.417 202.52C302.521 202.258 292.186 207.897 288.031 210.422C283.868 213.071 284.159 215.813 284.36 216.446C284.561 217.079 293.97 233.867 302.637 238.979C311.181 244.081 316.353 242.87 320.877 240.372C326.045 237.553 345.813 221.758 345.996 219.299C346.18 216.841 343.177 213.892 343.177 213.892C336.495 207.078 324.504 206.657 324.504 206.657L325.838 177.093C325.838 177.093 333.224 174.443 333.011 168.988C332.798 163.533 326.128 164.877 324.676 167.733L324.504 206.657ZM283.684 172.266C290.219 181.047 285.663 182.306 286.051 185.426C286.438 188.546 289.227 189.377 291.933 191.314C294.64 193.251 295.716 198.772 304.17 198.429C310.255 198.275 317.338 203.019 323.883 205.002C326.426 205.815 328.881 206.126 331.146 205.681C339.463 203.844 335.032 198.437 338.583 197.349C342.126 196.383 345.612 199.493 346.522 192.269C347.565 184.932 354.643 191.406 356.059 185.705C357.343 180.117 352.075 180.951 351.784 178.209C351.492 175.467 363.397 175.388 360.637 167.513C358.077 160.272 350.677 168.112 347.292 156.976C346.986 156.087 346.43 153.573 346.43 153.573C346.074 151.691 345.709 149.933 345.459 148.307C343.603 138.276 341.938 132.34 333.954 131.359C324.738 130.284 319.922 133.378 319.922 133.378C313.506 126.336 300.958 123.4 291.457 132.811C285.17 139.005 286.342 144.904 285.688 152.024C285.043 159.02 277.597 164.137 283.684 172.266ZM310.989 221.694C317.243 220.935 325.004 216.584 325.004 216.584L325.074 207.318L325.011 183.21L322.404 186.595L312.409 199.305L312.349 201.773L310.989 221.694ZM283.684 172.266C290.219 181.047 285.663 182.306 286.051 185.426C286.438 188.546 289.227 189.377 291.933 191.314C294.64 193.251 295.716 198.772 304.17 198.429C310.255 198.275 317.338 203.019 323.883 205.002C326.426 205.815 328.881 206.126 331.146 205.681C339.463 203.844 335.032 198.437 338.583 197.349C342.126 196.383 345.612 199.493 346.522 192.269C347.565 184.932 354.643 191.406 356.059 185.705C357.343 180.117 352.075 180.951 351.784 178.209C351.492 175.467 363.397 175.388 360.637 167.513C358.077 160.272 350.677 168.112 347.292 156.976C346.986 156.087 346.813 155.085 346.526 153.951C346.535 153.828 346.43 153.573 346.43 153.573C346.074 151.691 345.709 149.933 345.459 148.307C343.603 138.276 341.938 132.34 333.954 131.359C324.738 130.284 319.922 133.378 319.922 133.378C313.506 126.336 300.958 123.4 291.457 132.811C285.17 139.005 286.342 144.904 285.688 152.024C285.043 159.02 277.597 164.137 283.684 172.266ZM326.217 176.998C338.863 170.3 331.114 161.179 325.073 167.393C325.073 167.393 314.348 183.261 326.217 176.998ZM290.207 172.888C291.701 189.442 298.787 202.468 309.145 201.528C319.502 200.589 327.758 186.263 326.264 169.709C324.77 153.154 317.93 143.485 307.572 144.424C297.347 145.25 288.504 152.486 290.207 172.888ZM324.288 167.951C324.288 167.951 329.721 164.905 332.416 155.345C330.02 127.598 305.238 132.503 304.47 136.153C303.588 139.67 304.701 144.7 304.701 144.7C307.459 162.586 324.288 167.951 324.288 167.951ZM299.517 137.752C299.517 137.752 290.463 147.815 290.322 148.051C290.18 148.288 286.62 171.131 288.803 165.117C291.1 159.235 305.924 148.254 305.924 148.254L306.65 143.489L299.517 137.752ZM323.597 200.531L325.98 176.856C325.98 176.856 333.567 174.84 333.723 169.413C334.003 163.996 327.133 164.707 325.443 167.421L323.597 200.531ZM305.175 148.32C299.5 152.955 292.095 159.188 290.118 164.105C290.118 164.105 289.16 181.955 295.452 192.324C298.127 196.36 301.837 201.464 309.021 201.519C317.562 201.677 323.205 195.804 324.247 191.804L305.175 148.32ZM325.307 187.559C325.307 187.559 324.119 190.187 322.252 193.629C318.229 199.379 312.272 201.149 312.272 201.149C312.272 201.149 312.395 201.158 312.417 202.52C316.032 203.908 323.244 206.931 325.074 207.318L325.307 187.559ZM328.072 168.734C324.923 167.752 322.038 166.543 319.19 164.842C316.465 163.151 313.891 161.1 311.847 158.595C309.793 156.213 308.022 153.359 306.754 150.419C305.486 147.479 304.729 144.331 304.104 141.069C304.113 140.946 303.876 140.805 303.752 140.795C303.629 140.786 303.488 141.022 303.478 141.145C303.857 144.388 304.605 147.659 305.864 150.722C307.123 153.784 308.77 156.63 310.929 159.267C313.097 161.781 315.662 163.954 318.633 165.665C321.481 167.365 324.612 168.593 327.771 169.453C328.017 169.472 328.149 169.358 328.282 169.245C328.423 169.008 328.319 168.753 328.072 168.734ZM301.205 184.976C301.877 184.286 302.868 182.631 303.306 180.069L301.205 184.976ZM301.205 184.976C301.877 184.286 302.868 182.631 303.306 180.069L301.205 184.976ZM307.791 191.412C307.636 190.165 306.582 189.342 305.34 189.371C304.089 189.523 303.268 190.573 303.299 191.811C303.454 193.059 304.509 193.881 305.75 193.852C307.001 193.701 307.832 192.528 307.791 191.412ZM301.099 191.396C304.166 193.484 308.768 191.611 309.768 189.833L301.099 191.396ZM318.024 175.507C316.509 172.548 313.889 171.112 311.132 171.519C308.375 171.927 306.941 174.537 306.548 176.484L318.024 175.507ZM299.838 176.714C299.414 174.085 294.019 169.965 290.517 175.384L299.838 176.714ZM313.121 174.762C312.966 173.514 312.168 172.587 311.296 172.644C310.424 172.701 309.725 173.761 309.88 175.008C310.035 176.256 310.834 177.183 311.706 177.126C312.578 177.069 313.276 176.009 313.121 174.762ZM296.282 176.195C296.127 174.947 295.328 174.021 294.457 174.078C293.585 174.135 292.886 175.194 293.041 176.442C293.196 177.69 293.995 178.616 294.866 178.559C295.738 178.502 296.437 177.443 296.282 176.195ZM289.861 170.884C290.997 170.6 293.394 170.041 294.654 169.766C295.156 169.681 295.544 169.464 295.799 169.36C296.452 168.915 296.023 168.017 295.266 168.206L295.142 168.197L295.238 168.575L295.106 168.688L295.019 168.187C294.896 168.178 294.64 168.282 294.517 168.273L294.622 168.528L294.49 168.641L294.385 168.386C294.006 168.481 293.627 168.576 293.248 168.67C291.979 169.068 290.55 169.947 289.765 170.506C289.746 170.751 289.737 170.874 289.861 170.884ZM315.711 168.284C314.62 167.954 312.685 167.312 311.206 167.199C310.713 167.161 310.22 167.123 309.841 167.218L309.823 167.464L309.576 167.445L309.594 167.199C309.348 167.18 309.225 167.171 308.978 167.152L308.932 167.767L308.686 167.748L308.732 167.133L308.608 167.124C307.737 167.181 307.522 168.401 308.366 168.712C308.727 168.864 309.22 168.901 309.845 168.825C311.333 168.815 314.319 168.673 315.683 168.653C315.939 168.549 315.957 168.303 315.711 168.284ZM306.755 233.607C307.372 233.655 307.901 233.201 307.947 232.586C307.993 231.971 307.536 231.442 306.92 231.395C306.304 231.348 305.774 231.802 305.729 232.417C305.683 233.031 306.262 233.57 306.755 233.607ZM313.232 234.844C313.849 234.891 314.378 234.437 314.424 233.822C314.47 233.208 314.013 232.679 313.397 232.631C312.781 232.584 312.251 233.038 312.206 233.653C312.292 234.154 312.739 234.806 313.232 234.844ZM306.847 232.378C305.112 235.707 302.522 242.184 303.338 249.539L306.847 232.378ZM311.365 259.917C311.365 259.917 311.365 259.917 312.49 251.474C313.614 243.031 312.968 235.071 313.078 233.596L311.365 259.917ZM303.137 248.906C302.781 250.362 302.858 250.986 302.927 251.733C302.995 252.48 304.227 252.574 304.31 251.468C304.383 250.484 303.137 248.906 303.137 248.906ZM311.552 259.066C310.835 260.371 310.543 260.967 310.488 261.705C310.433 262.442 311.515 262.895 311.835 261.931C312.278 260.976 311.552 259.066 311.552 259.066ZM325.004 216.584C322.356 218.853 309.848 220.37 305.693 226.233L325.004 216.584Z" fill="#43459A"/>
<path d="M324.504 206.657L323.591 205.598L321.245 203.812L312.417 202.52M324.504 206.657C324.504 206.657 336.495 207.078 343.177 213.892C343.177 213.892 346.18 216.841 345.996 219.299C345.813 221.758 326.045 237.553 320.877 240.372C316.353 242.87 311.181 244.081 302.637 238.979C293.97 233.867 284.561 217.079 284.36 216.446C284.159 215.813 283.868 213.071 288.031 210.422C292.186 207.897 302.521 202.258 312.417 202.52M324.504 206.657L325.838 177.093C325.838 177.093 333.224 174.443 333.011 168.988C332.798 163.533 326.128 164.877 324.676 167.733L324.504 206.657ZM312.417 202.52C312.395 201.158 312.272 201.149 312.272 201.149C312.272 201.149 318.229 199.379 322.252 193.629C324.119 190.187 325.307 187.559 325.307 187.559L325.074 207.318M312.417 202.52C316.032 203.908 323.244 206.931 325.074 207.318M347.292 156.976C350.677 168.112 358.077 160.272 360.637 167.513C363.397 175.388 351.492 175.467 351.784 178.209C352.075 180.951 357.343 180.117 356.059 185.705C354.643 191.406 347.565 184.932 346.522 192.269C345.612 199.493 342.126 196.383 338.583 197.349C335.032 198.437 339.463 203.844 331.146 205.681C328.881 206.126 326.426 205.815 323.883 205.002C317.338 203.019 310.255 198.275 304.17 198.429C295.716 198.772 294.64 193.251 291.933 191.314C289.227 189.377 286.438 188.546 286.051 185.426C285.663 182.306 290.219 181.047 283.684 172.266C277.597 164.137 285.043 159.02 285.688 152.024C286.342 144.904 285.17 139.005 291.457 132.811C300.958 123.4 313.506 126.336 319.922 133.378C319.922 133.378 324.738 130.284 333.954 131.359C341.938 132.34 343.603 138.276 345.459 148.307C345.709 149.933 346.074 151.691 346.43 153.573M347.292 156.976C346.986 156.087 346.43 153.573 346.43 153.573M347.292 156.976C346.986 156.087 346.813 155.085 346.526 153.951C346.535 153.828 346.43 153.573 346.43 153.573M325.004 216.584C325.004 216.584 317.243 220.935 310.989 221.694L312.349 201.773L312.409 199.305L322.404 186.595L325.011 183.21L325.074 207.318M325.004 216.584L325.074 207.318M325.004 216.584C322.356 218.853 309.848 220.37 305.693 226.233M261.854 315.592C253.044 317.391 245.513 311.995 243.917 306.805C243.027 303.771 243.142 300.566 246.37 295.497L253.015 281.171L256.262 294.151L253.651 295.929C257.421 298.566 269.553 302.088 270.297 303.752C271.355 306.181 266.761 314.607 261.854 315.592ZM341.159 282.588C321.837 280.742 302.515 278.895 283.193 277.049C283.113 286.437 281.87 296.478 281.073 307.171C280.89 309.629 280.707 312.087 279.862 315.113L340.252 319.725L342.083 295.143L341.159 282.588ZM280.799 310.858C280.799 310.858 268.065 345.361 268.987 371.266L269.095 466.467L299.386 468.688L312.369 352.948L346.141 468.742L376.829 472.42C376.829 472.42 351.801 339.396 341.179 315.593C339.34 315.329 320.67 316.376 315.115 316.075C297.87 314.634 286.564 311.669 280.799 310.858ZM284.9 252.457L306.204 229.363L298.794 212.357L296.357 211.8L281.768 214.641C281.768 214.641 277.504 215.304 274.135 217.272C269.09 220.1 265.685 222.56 263.875 233.546L252.621 286.457L275.764 288.595L284.9 252.457ZM346.917 295.142C344.622 291.011 345.986 269.36 345.986 269.36L344.72 234.777L324.098 228.752L303.118 230.858L292.831 222.532L291.479 227.373L289.845 226.012L284.786 252.325L278.058 296.063C278.058 296.063 281.029 297.773 286.069 296.675C291.232 295.586 299.759 294.259 307.322 297.556C315.132 300.872 349.203 299.395 346.917 295.142ZM325.219 305.227L315.613 267.782C314.943 265.135 312.606 263.226 309.894 263.019L249.381 258.397C247.286 258.237 245.661 260.091 246.13 262.104L256.311 301.819C256.589 303.076 257.757 304.03 259.113 304.134L321.968 308.935C324.063 309.095 325.688 307.241 325.219 305.227ZM321.275 304.926L311.669 267.481C310.999 264.834 308.662 262.925 305.951 262.718L245.437 258.096C243.342 257.936 241.717 259.79 242.187 261.803L252.367 301.517C252.645 302.775 253.814 303.729 255.169 303.833L318.024 308.633C320.119 308.793 321.745 306.94 321.275 304.926ZM279.302 286.022C280.781 286.135 282.524 286.021 282.689 283.809C282.845 281.719 280.499 279.933 279.02 279.82C277.541 279.707 275.77 280.19 275.66 281.665C275.523 283.509 277.7 285.9 279.302 286.022ZM302.423 305.093L311.036 304.268L306.1 294.002C306.1 294.002 298.539 280.693 296.038 277.659C294.906 276.213 293.902 276.383 293.116 276.941C292.076 277.603 291.719 279.06 292.253 280.213C293.207 282.387 294.913 286.102 293.927 286.027C291.955 285.876 285.013 280.896 282.535 279.223C280.408 277.825 278.674 277.816 277.574 277.608C274.502 277.25 270.37 281.137 270.127 282.726C269.716 284.919 270.044 287.169 271.792 288.662C274.462 291.091 282.221 296.752 286.092 298.036C288.748 298.981 299.087 301.625 299.087 301.625L302.423 305.093ZM272.861 284.294C273.911 286.846 282.094 291.798 282.094 291.798L272.861 284.294ZM276.742 282.118C279.024 284.765 285.003 287.694 285.003 287.694L276.742 282.118ZM248.268 303.306C248.268 303.306 250.262 304.818 251.101 306.859C251.941 308.901 255.57 308.437 255.57 308.437C255.57 308.437 258.706 307.935 260.34 309.296C261.974 310.656 266.192 307.27 267.516 306.135C268.84 305 270.53 298.949 268.883 296.104C267.236 293.259 263.777 289.781 257.614 289.31C251.452 288.839 249.67 296.12 249.67 296.12C244.374 300.66 248.268 303.306 248.268 303.306ZM254.325 300.184C254.325 300.184 255.649 299.049 258.234 294.302L254.325 300.184ZM259.072 303.018C259.072 303.018 260.396 301.883 262.981 297.136L259.072 303.018ZM324.089 228.875L343.118 256.286L351.851 297.125C348.428 293.156 350.435 299.49 350.435 299.49L309.953 288.858C308.89 288.158 307.383 288.414 306.676 289.596L300.406 302.22C299.15 304.102 299.706 306.616 301.596 307.873L337.97 317.079C348.879 320.384 358.739 321.137 363.668 321.514C375.993 322.455 372.119 291.257 372.119 291.257C372.119 291.257 370.753 276.32 367.929 247.674C367.52 236.518 364.572 232.832 360.675 228.579C358.032 225.781 351.843 222.342 351.843 222.342L338.744 215.161L336.279 214.973L324.089 228.875ZM344.414 280.488L344.963 273.114L347.843 251.084L339.857 241.822L331.779 233.788L327.899 235.964L325.159 239.463L323.163 266.257L335.457 284.254L344.414 280.488ZM326.217 176.998C338.863 170.3 331.114 161.179 325.073 167.393C325.073 167.393 314.348 183.261 326.217 176.998ZM290.207 172.888C291.701 189.442 298.787 202.468 309.145 201.528C319.502 200.589 327.758 186.263 326.264 169.709C324.77 153.154 317.93 143.485 307.572 144.424C297.347 145.25 288.504 152.486 290.207 172.888ZM324.288 167.951C324.288 167.951 329.721 164.905 332.416 155.345C330.02 127.598 305.238 132.503 304.47 136.153C303.588 139.67 304.701 144.7 304.701 144.7C307.459 162.586 324.288 167.951 324.288 167.951ZM299.517 137.752C299.517 137.752 290.463 147.815 290.322 148.051C290.18 148.288 286.62 171.131 288.803 165.117C291.1 159.235 305.924 148.254 305.924 148.254L306.65 143.489L299.517 137.752ZM323.597 200.531L325.98 176.856C325.98 176.856 333.567 174.84 333.723 169.413C334.003 163.996 327.133 164.707 325.443 167.421L323.597 200.531ZM305.175 148.32C299.5 152.955 292.095 159.188 290.118 164.105C290.118 164.105 289.16 181.955 295.452 192.324C298.127 196.36 301.837 201.464 309.021 201.519C317.562 201.677 323.205 195.804 324.247 191.804L305.175 148.32ZM328.072 168.734C324.923 167.752 322.038 166.543 319.19 164.842C316.465 163.151 313.891 161.1 311.847 158.595C309.793 156.213 308.022 153.359 306.754 150.419C305.486 147.479 304.729 144.331 304.104 141.069C304.113 140.946 303.876 140.805 303.752 140.795C303.629 140.786 303.488 141.022 303.478 141.145C303.857 144.388 304.605 147.659 305.864 150.722C307.123 153.784 308.77 156.63 310.929 159.267C313.097 161.781 315.662 163.954 318.633 165.665C321.481 167.365 324.612 168.593 327.771 169.453C328.017 169.472 328.149 169.358 328.282 169.245C328.423 169.008 328.319 168.753 328.072 168.734ZM301.205 184.976C301.877 184.286 302.868 182.631 303.306 180.069L301.205 184.976ZM307.791 191.412C307.636 190.165 306.582 189.342 305.34 189.371C304.089 189.523 303.268 190.573 303.299 191.811C303.454 193.059 304.509 193.881 305.75 193.852C307.001 193.701 307.832 192.528 307.791 191.412ZM301.099 191.396C304.166 193.484 308.768 191.611 309.768 189.833L301.099 191.396ZM318.024 175.507C316.509 172.548 313.889 171.112 311.132 171.519C308.375 171.927 306.941 174.537 306.548 176.484L318.024 175.507ZM299.838 176.714C299.414 174.085 294.019 169.965 290.517 175.384L299.838 176.714ZM313.121 174.762C312.966 173.514 312.168 172.587 311.296 172.644C310.424 172.701 309.725 173.761 309.88 175.008C310.035 176.256 310.834 177.183 311.706 177.126C312.578 177.069 313.276 176.009 313.121 174.762ZM296.282 176.195C296.127 174.947 295.328 174.021 294.457 174.078C293.585 174.135 292.886 175.194 293.041 176.442C293.196 177.69 293.995 178.616 294.866 178.559C295.738 178.502 296.437 177.443 296.282 176.195ZM289.861 170.884C290.997 170.6 293.394 170.041 294.654 169.766C295.156 169.681 295.544 169.464 295.799 169.36C296.452 168.915 296.023 168.017 295.266 168.206L295.142 168.197L295.238 168.575L295.106 168.688L295.019 168.187C294.896 168.178 294.64 168.282 294.517 168.273L294.622 168.528L294.49 168.641L294.385 168.386C294.006 168.481 293.627 168.576 293.248 168.67C291.979 169.068 290.55 169.947 289.765 170.506C289.746 170.751 289.737 170.874 289.861 170.884ZM315.711 168.284C314.62 167.954 312.685 167.312 311.206 167.199C310.713 167.161 310.22 167.123 309.841 167.218L309.823 167.464L309.576 167.445L309.594 167.199C309.348 167.18 309.225 167.171 308.978 167.152L308.932 167.767L308.686 167.748L308.732 167.133L308.608 167.124C307.737 167.181 307.522 168.401 308.366 168.712C308.727 168.864 309.22 168.901 309.845 168.825C311.333 168.815 314.319 168.673 315.683 168.653C315.939 168.549 315.957 168.303 315.711 168.284ZM306.755 233.607C307.372 233.655 307.901 233.201 307.947 232.586C307.993 231.971 307.536 231.442 306.92 231.395C306.304 231.348 305.774 231.802 305.729 232.417C305.683 233.031 306.262 233.57 306.755 233.607ZM313.232 234.844C313.849 234.891 314.378 234.437 314.424 233.822C314.47 233.208 314.013 232.679 313.397 232.631C312.781 232.584 312.251 233.038 312.206 233.653C312.292 234.154 312.739 234.806 313.232 234.844ZM306.847 232.378C305.112 235.707 302.522 242.184 303.338 249.539L306.847 232.378ZM311.365 259.917C311.365 259.917 311.365 259.917 312.49 251.474C313.614 243.031 312.968 235.071 313.078 233.596L311.365 259.917ZM303.137 248.906C302.781 250.362 302.858 250.986 302.927 251.733C302.995 252.48 304.227 252.574 304.31 251.468C304.383 250.484 303.137 248.906 303.137 248.906ZM311.552 259.066C310.835 260.371 310.543 260.967 310.488 261.705C310.433 262.442 311.515 262.895 311.835 261.931C312.278 260.976 311.552 259.066 311.552 259.066Z" stroke="#262961" stroke-width="7.39917" stroke-miterlimit="10"/>
<path d="M270.416 303.819C269.672 302.156 257.543 298.63 253.774 295.994L256.384 294.218L253.132 281.245L246.497 295.559C243.272 300.623 243.159 303.826 244.049 306.859C245.647 312.046 253.176 317.441 261.982 315.647C266.886 314.665 271.475 306.247 270.416 303.819Z" fill="#43459A" stroke="#262961" stroke-width="1.23319" stroke-miterlimit="10"/>
<path d="M342.052 295.166L340.234 319.705L279.922 315.075C280.764 312.055 280.946 309.601 281.128 307.147C281.919 296.472 283.157 286.449 283.233 277.077C302.53 278.928 321.827 280.78 341.124 282.632L342.052 295.166Z" fill="#FFB28B" stroke="#262961" stroke-width="1.23319" stroke-miterlimit="10"/>
<path d="M280.648 310.913C280.648 310.913 267.933 345.391 268.864 371.281L269.016 468.756L299.207 468.803L312.225 352.992L346.035 468.877L376.713 471.696C376.713 471.696 351.639 339.464 341.011 315.671C339.172 315.406 320.509 316.444 314.955 316.141C297.715 314.694 286.411 311.726 280.648 310.913Z" fill="#00C3EB" stroke="#2B2D60" stroke-width="1.29276" stroke-miterlimit="10" stroke-linecap="round" stroke-linejoin="round"/>
<path d="M285.033 252.475L306.326 229.399L298.91 212.398L296.472 211.84L281.885 214.674C281.885 214.674 277.622 215.335 274.254 217.3C269.211 220.125 265.806 222.582 264.001 233.563L252.769 286.447L275.912 288.594L285.033 252.475Z" fill="#43459A" stroke="#262961" stroke-width="1.23319" stroke-miterlimit="10"/>
<path d="M346.954 295.112C344.659 290.983 346.014 269.351 346.014 269.351L344.734 234.796L324.123 228.768L303.159 230.863L292.876 222.54L291.526 227.376L289.893 226.016C289.893 226.016 283.798 245.884 281.507 258.964C279.001 273.268 278.143 296.003 278.143 296.003C278.143 296.003 281.113 297.713 286.149 296.618C291.308 295.532 299.829 294.21 307.388 297.508C315.193 300.824 349.24 299.363 346.954 295.112Z" fill="#3AFFDC" stroke="#262961" stroke-width="1.23319" stroke-miterlimit="10"/>
<path d="M345.577 295.105C343.282 290.843 344.691 268.476 344.691 268.476L343.484 232.757L322.81 226.572L301.763 228.787L291.46 220.206L290.095 225.209L288.459 223.807C288.459 223.807 282.297 244.361 279.967 257.888C277.42 272.68 276.508 296.186 276.508 296.186C276.508 296.186 279.486 297.947 284.542 296.803C289.723 295.669 298.278 294.282 305.858 297.674C313.685 301.084 347.862 299.494 345.577 295.105Z" fill="#3AFFDC"/>
<path d="M280.878 253.459C280.878 253.459 280.414 256.403 280.377 258.306C280.355 259.447 280.467 261.226 280.467 261.226L278.436 261.071L280.878 253.459Z" fill="#2B2D60"/>
<path d="M312.805 266.597L312.805 266.599L322.438 303.934C322.826 305.602 321.483 307.156 319.71 307.018L256.922 302.163C255.798 302.076 254.911 301.298 254.559 300.208L244.353 260.624C243.965 258.956 245.308 257.403 247.081 257.54L307.529 262.214C310.033 262.408 312.186 264.17 312.805 266.597Z" fill="white" stroke="#262961" stroke-width="0.986555"/>
<path d="M252.982 301.343L242.789 261.743C242.402 260.074 243.745 258.52 245.518 258.656L305.957 263.314C308.46 263.507 310.613 265.269 311.23 267.698L311.231 267.699L320.85 305.045C320.85 305.046 320.851 305.048 320.851 305.049C321.239 306.719 319.895 308.273 318.123 308.136L255.345 303.298C254.221 303.212 253.334 302.433 252.982 301.343Z" fill="white" stroke="#262961" stroke-width="0.986555"/>
<path d="M276.243 281.741C276.28 281.238 276.588 280.879 277.12 280.639C277.665 280.392 278.388 280.304 279.071 280.357C279.665 280.403 280.519 280.807 281.215 281.474C281.906 282.137 282.349 282.97 282.287 283.812C282.252 284.3 282.131 284.636 281.977 284.871C281.825 285.102 281.623 285.263 281.377 285.374C280.859 285.608 280.166 285.62 279.432 285.564C278.821 285.516 277.987 285.002 277.295 284.201C276.607 283.404 276.189 282.473 276.243 281.741Z" fill="#E2FFFA" stroke="#262961" stroke-width="0.986555"/>
<path d="M298.899 301.614C298.899 301.614 288.573 298.97 285.919 298.026C282.053 296.742 274.311 290.965 271.634 288.662C269.888 287.17 269.436 284.914 269.969 282.734C270.334 281.157 274.459 277.278 277.404 277.628C278.625 277.845 280.235 277.845 282.359 279.242C284.958 280.923 291.77 285.888 293.74 286.04C294.724 286.115 293.151 282.292 292.065 280.234C291.532 279.083 291.878 277.752 292.926 276.969C293.71 276.412 294.704 276.365 295.844 277.686C298.343 280.716 305.9 294.007 305.9 294.007L310.834 304.258L302.232 305.079L298.899 301.614Z" fill="#FFB28B" stroke="#262961" stroke-width="1.23319" stroke-miterlimit="10"/>
<path d="M282.183 291.832C282.183 291.832 274.008 286.885 272.959 284.336" stroke="#262961" stroke-width="0.863236" stroke-miterlimit="10" stroke-linecap="round"/>
<path d="M285.09 287.72C285.09 287.72 279.118 284.795 276.838 282.152" stroke="#262961" stroke-width="0.863236" stroke-miterlimit="10" stroke-linecap="round"/>
<path d="M249.8 296.182C249.8 296.182 251.577 288.911 257.733 289.383C263.89 289.856 267.347 293.332 268.994 296.174C270.641 299.017 268.955 305.061 267.633 306.194C266.31 307.327 262.097 310.708 260.464 309.348C258.832 307.988 255.699 308.488 255.699 308.488C255.699 308.488 252.073 308.95 251.234 306.91C250.394 304.87 248.401 303.359 248.401 303.359C248.401 303.359 244.511 300.715 249.8 296.182Z" fill="#FFB28B" stroke="#262961" stroke-width="1.23319" stroke-miterlimit="10"/>
<path d="M258.362 294.37C255.779 299.115 254.455 300.249 254.455 300.249" stroke="#262961" stroke-width="0.863236" stroke-miterlimit="10" stroke-linecap="round"/>
<path d="M263.094 297.199C260.511 301.943 259.187 303.077 259.187 303.077" stroke="#262961" stroke-width="0.863236" stroke-miterlimit="10" stroke-linecap="round"/>
<path d="M336.241 214.957L338.706 215.146L351.805 222.329C351.805 222.329 357.994 225.769 360.637 228.567C364.535 232.819 367.484 236.505 367.897 247.655C370.732 276.287 372.104 291.217 372.104 291.217C372.104 291.217 375.99 322.4 363.668 321.454C358.739 321.076 348.882 320.319 337.974 317.011L301.605 307.794C299.715 306.538 299.281 304.033 300.413 302.144L306.676 289.529C307.374 288.471 308.889 288.093 309.952 288.792L350.429 299.436C350.429 299.436 348.42 293.105 351.843 297.074L343.095 256.252L324.06 228.847L336.241 214.957Z" fill="#3AFFDC" stroke="#262961" stroke-width="1.23319" stroke-miterlimit="10"/>
<path d="M344.431 280.447L344.978 273.074L347.851 251.05L339.856 241.786L331.77 233.751L327.888 235.924L325.148 239.421L323.171 266.087L335.48 284.085L344.431 280.447Z" fill="#3AFFDC"/>
<path d="M324.633 167.729C326.083 164.877 332.751 163.539 332.968 168.989C333.186 174.439 325.802 177.081 325.802 177.081L324.491 206.616C324.491 206.616 336.483 207.047 343.037 213.974C343.037 213.974 346.042 216.922 345.861 219.378C345.68 221.834 325.925 237.599 320.759 240.411C316.237 242.902 311.066 244.109 302.519 239.004C293.971 233.899 284.426 217.11 284.225 216.477C284.023 215.844 283.616 212.972 287.891 210.462C292.052 207.819 302.374 202.317 312.27 202.587L321.098 203.885L323.446 205.671L324.359 206.73" fill="#43459A"/>
<path d="M324.633 167.729C326.083 164.877 332.751 163.539 332.968 168.989C333.186 174.439 325.802 177.081 325.802 177.081L324.491 206.616C324.491 206.616 336.483 207.047 343.037 213.974C343.037 213.974 346.042 216.922 345.861 219.378C345.68 221.834 325.925 237.599 320.759 240.411C316.237 242.902 311.066 244.109 302.519 239.004C293.971 233.899 284.426 217.11 284.225 216.477C284.023 215.844 283.616 212.972 287.891 210.462C292.052 207.819 302.374 202.317 312.27 202.587L321.098 203.885L323.446 205.671L324.359 206.73" stroke="#262961" stroke-width="1.13269" stroke-miterlimit="10" stroke-linecap="round" stroke-linejoin="round"/>
<path d="M283.849 172.171C290.387 180.945 285.835 182.199 286.224 185.315C286.614 188.431 289.402 189.263 292.109 191.2C294.815 193.137 295.895 198.651 304.344 198.315C310.425 198.167 317.509 202.91 324.052 204.896C326.594 205.709 329.048 206.022 331.311 205.579C339.622 203.752 335.189 198.349 338.738 197.265C342.278 196.304 345.765 199.412 346.669 192.199C347.705 184.872 354.784 191.343 356.195 185.651C357.474 180.071 352.21 180.9 351.916 178.162C351.623 175.423 363.521 175.354 360.756 167.487C358.192 160.254 350.802 168.077 347.41 156.954C347.104 156.066 346.546 153.554 346.546 153.554C346.189 151.675 345.823 149.919 345.571 148.295C343.708 138.276 342.039 132.346 334.059 131.36C324.848 130.28 320.036 133.365 320.036 133.365C313.618 126.328 301.075 123.385 291.586 132.775C285.307 138.956 286.483 144.848 285.835 151.958C285.196 158.944 277.758 164.048 283.849 172.171Z" fill="#FFFDC6"/>
<path d="M312.441 201.726L312.499 199.259L322.507 186.559L325.117 183.176L325.2 207.282L325.137 216.546C325.137 216.546 317.362 220.89 311.094 221.644L312.441 201.726Z" fill="#FFB28B" stroke="#262961" stroke-width="0.755085" stroke-miterlimit="10"/>
<path d="M283.849 172.171C290.387 180.945 285.835 182.199 286.224 185.315C286.614 188.431 289.402 189.263 292.109 191.2C294.815 193.137 295.895 198.651 304.344 198.315C310.425 198.167 317.509 202.91 324.052 204.896C326.594 205.709 329.048 206.022 331.311 205.579C339.622 203.752 335.189 198.349 338.738 197.265C342.278 196.304 345.765 199.412 346.669 192.199C347.705 184.872 354.784 191.343 356.195 185.651C357.474 180.071 352.21 180.9 351.916 178.162C351.623 175.423 363.521 175.354 360.756 167.487C358.192 160.254 350.802 168.077 347.41 156.954C347.104 156.066 346.93 155.065 346.642 153.932C346.651 153.809 346.546 153.554 346.546 153.554C346.189 151.675 345.823 149.919 345.571 148.295C343.708 138.276 342.039 132.346 334.059 131.36C324.848 130.28 320.036 133.365 320.036 133.365C313.618 126.328 301.075 123.385 291.586 132.775C285.307 138.956 286.483 144.848 285.835 151.958C285.196 158.944 277.758 164.048 283.849 172.171Z" stroke="#262961" stroke-width="1.13269" stroke-miterlimit="10"/>
<path d="M325.192 167.334C331.227 161.132 338.981 170.249 326.344 176.93C314.482 183.176 325.192 167.334 325.192 167.334Z" fill="#FFB28B"/>
<path d="M290.36 172.833C291.867 189.378 298.967 202.4 309.327 201.47C319.688 200.54 327.936 186.23 326.429 169.686C324.921 153.141 318.07 143.473 307.709 144.403C297.481 145.22 288.64 152.444 290.36 172.833Z" fill="#FFB28B"/>
<path d="M304.865 144.632C304.865 144.632 303.749 139.607 304.627 136.094C305.506 132.582 330.288 127.579 332.581 155.289C329.771 164.827 324.466 167.874 324.466 167.874C324.466 167.874 307.637 162.502 304.865 144.632Z" fill="#FFFDC6"/>
<path d="M306.98 143.473L306.256 148.235C306.256 148.235 291.431 159.198 289.137 165.075C286.843 170.951 290.502 148.256 290.644 148.02C290.785 147.784 299.837 137.734 299.837 137.734L306.98 143.473Z" fill="#FFFDC6"/>
<path d="M323.699 200.469L326.073 176.794C326.073 176.794 333.688 174.784 333.841 169.357C334.117 163.939 327.221 164.645 325.527 167.358" stroke="#262961" stroke-width="1.13269" stroke-miterlimit="10" stroke-linecap="round" stroke-linejoin="round"/>
<path d="M324.55 191.774C323.511 195.77 317.871 201.634 309.328 201.469C302.141 201.409 298.426 196.306 295.748 192.27C289.446 181.904 290.39 164.067 290.39 164.067C292.373 159.033 299.766 152.933 305.439 148.307" stroke="#262961" stroke-width="0.755085" stroke-miterlimit="10" stroke-linecap="round" stroke-linejoin="round"/>
<path d="M325.198 207.274C323.366 206.885 316.15 203.858 312.533 202.468C312.518 200.985 312.386 201.098 312.386 201.098C312.386 201.098 318.344 199.334 322.363 193.592C324.105 190.144 325.414 187.528 325.414 187.528L325.198 207.274Z" fill="#262961"/>
<path d="M328.238 168.669C325.089 167.685 322.205 166.475 319.357 164.774C316.633 163.083 314.058 161.032 312.013 158.529C309.958 156.149 308.186 153.296 306.916 150.359C305.646 147.422 304.887 144.277 304.26 141.02C304.269 140.897 304.032 140.755 303.908 140.746C303.785 140.736 303.644 140.972 303.635 141.095C304.016 144.334 304.766 147.601 306.027 150.661C307.288 153.721 308.936 156.564 311.096 159.199C313.265 161.712 315.83 163.885 318.801 165.595C321.649 167.296 324.78 168.525 327.937 169.386C328.184 169.405 328.316 169.292 328.448 169.179C328.59 168.943 328.485 168.688 328.238 168.669Z" fill="#262961"/>
<path d="M303.466 180.039C303.028 182.601 302.036 184.255 301.364 184.944L303.466 180.039Z" fill="#FFB28B"/>
<path d="M303.466 180.039C303.028 182.601 302.036 184.255 301.364 184.944" stroke="#262961" stroke-width="0.755085" stroke-miterlimit="10" stroke-linecap="round" stroke-linejoin="round"/>
<path d="M305.908 193.698C304.658 193.849 303.612 192.904 303.456 191.658C303.301 190.411 304.244 189.373 305.494 189.223C306.744 189.072 307.79 190.017 307.946 191.263C307.978 192.5 307.149 193.671 305.908 193.698Z" fill="#F4259A"/>
<path d="M310.043 189.697C309.046 191.466 304.454 193.327 301.39 191.246" stroke="#262961" stroke-width="0.755085" stroke-miterlimit="10" stroke-linecap="round" stroke-linejoin="round"/>
<path d="M318.166 175.462C316.651 172.511 314.034 171.077 311.281 171.481C308.528 171.885 307.098 174.486 306.707 176.427" stroke="#262961" stroke-width="0.710567" stroke-miterlimit="10" stroke-linecap="round" stroke-linejoin="round"/>
<path d="M300.016 176.685C299.591 174.066 294.201 169.956 290.709 175.352" stroke="#262961" stroke-width="0.719815" stroke-miterlimit="10" stroke-linecap="round" stroke-linejoin="round"/>
<path d="M311.861 177.082C310.989 177.138 310.067 176.202 310.034 174.965C310.001 173.728 310.576 172.661 311.448 172.604C312.32 172.548 313.243 173.484 313.275 174.721C313.431 175.968 312.733 177.025 311.861 177.082Z" fill="#262961"/>
<path d="M295.057 178.534C294.186 178.59 293.263 177.654 293.23 176.417C293.074 175.17 293.772 174.113 294.644 174.056C295.516 174 296.439 174.936 296.471 176.173C296.627 177.42 295.929 178.477 295.057 178.534Z" fill="#262961"/>
<path d="M290.068 170.855C291.202 170.572 293.595 170.017 294.853 169.745C295.355 169.66 295.742 169.443 295.997 169.34C296.649 168.897 296.22 168.001 295.463 168.189L295.34 168.18L295.436 168.557L295.304 168.67L295.217 168.17C295.094 168.161 294.839 168.264 294.716 168.255L294.821 168.51L294.689 168.623L294.584 168.368C294.205 168.462 293.827 168.556 293.449 168.65C292.182 169.046 290.755 169.922 289.972 170.478C289.954 170.723 289.945 170.845 290.068 170.855Z" fill="#262961"/>
<path d="M315.845 168.484C314.482 168.502 311.503 168.641 310.017 168.65C309.393 168.725 308.901 168.687 308.541 168.537C307.698 168.226 307.912 167.014 308.782 166.958L308.905 166.967L308.86 167.578L309.106 167.597L309.151 166.986C309.397 167.005 309.52 167.015 309.766 167.034L309.748 167.278L309.994 167.297L310.012 167.053C310.381 167.081 310.873 167.119 311.374 167.034C312.851 167.148 314.915 167.675 315.872 168.117C316.109 168.258 316.091 168.503 315.845 168.484Z" fill="#262961"/>
<path d="M294.715 199.415C293.309 198.319 291.816 196.722 291.245 196.061L289.215 198.373L289.515 202.718C291.834 202.073 296.122 200.511 294.715 199.415Z" fill="#E2FFFA"/>
<path d="M306.854 233.584C307.47 233.632 307.999 233.179 308.044 232.565C308.089 231.951 307.633 231.422 307.017 231.374C306.401 231.327 305.872 231.78 305.827 232.394C305.781 233.008 306.361 233.546 306.854 233.584Z" fill="white"/>
<path d="M313.315 234.815C313.931 234.862 314.46 234.409 314.505 233.795C314.55 233.181 314.094 232.652 313.478 232.605C312.862 232.557 312.333 233.011 312.288 233.624C312.374 234.125 312.822 234.777 313.315 234.815Z" fill="white"/>
<path d="M306.947 232.361C305.204 235.689 302.604 242.166 303.429 249.524" stroke="#2B2D60" stroke-width="1.29276" stroke-miterlimit="10" stroke-linecap="round" stroke-linejoin="round"/>
<path d="M313.271 233.578C313.295 234.94 313.823 243.018 312.687 251.465C311.552 259.912 311.552 259.912 311.552 259.912" stroke="#2B2D60" stroke-width="1.29276" stroke-miterlimit="10" stroke-linecap="round" stroke-linejoin="round"/>
<path d="M303.219 248.898C302.863 250.353 302.941 250.977 303.01 251.724C303.079 252.471 304.313 252.566 304.394 251.46C304.467 250.477 303.219 248.898 303.219 248.898Z" fill="#2B2D60"/>
<path d="M311.612 259.055C310.895 260.359 310.603 260.955 310.548 261.692C310.494 262.429 311.577 262.883 311.897 261.919C312.34 260.965 311.612 259.055 311.612 259.055Z" fill="#2B2D60"/>
<path d="M325.081 216.562C322.438 218.826 309.948 220.335 305.801 226.186" stroke="#262961" stroke-width="1.23319" stroke-miterlimit="10" stroke-linecap="round" stroke-linejoin="round"/>
</g>
<path d="M252.32 318.641C244.598 316.08 241.368 310.807 240.718 308.491L238.166 309.535L233.12 319.048L239.42 325.706C246.937 324.418 260.042 321.202 252.32 318.641Z" fill="#E2FFFA"/>
<circle cx="250.249" cy="264.071" r="2.15809" transform="rotate(4.31321 250.249 264.071)" fill="white" stroke="#262961" stroke-width="0.616597"/>
<circle cx="255.17" cy="264.444" r="0.986555" transform="rotate(4.31321 255.17 264.444)" fill="white" stroke="#262961" stroke-width="0.493278"/>
<path d="M385.938 150.539L385.747 149.784C385.747 149.784 386.882 149.5 388.65 149.018L388.841 149.774C387.073 150.256 385.938 150.539 385.938 150.539ZM391.886 148.772L391.685 148.139C392.697 147.846 393.595 147.421 394.493 146.996L394.816 147.638C393.795 148.054 392.775 148.469 391.886 148.772ZM442.404 150.039C442.158 150.021 441.911 150.002 441.542 149.974L441.597 149.237C442.581 149.312 443.689 149.397 444.673 149.472L444.618 150.209C444.003 150.162 443.142 150.096 442.404 150.039ZM438.589 149.748C437.605 149.673 436.507 149.465 435.522 149.39L435.577 148.654C436.552 148.852 437.537 148.927 438.644 149.012L438.589 149.748ZM447.704 150.321L447.759 149.585C448.743 149.66 449.736 149.612 450.853 149.574L450.798 150.311C449.805 150.358 448.811 150.406 447.704 150.321ZM397.501 146.485L397.177 145.843C398.075 145.418 398.973 144.993 399.88 144.445L400.204 145.087C399.429 145.522 398.522 146.069 397.501 146.485ZM432.473 148.787C431.498 148.589 430.4 148.382 429.425 148.184L429.603 147.457C430.578 147.655 431.553 147.853 432.651 148.06L432.473 148.787ZM453.893 150.3L453.824 149.554C454.818 149.507 455.811 149.459 456.928 149.421L456.996 150.167C456.003 150.214 454.886 150.253 453.893 150.3ZM426.508 147.467C425.533 147.269 424.567 146.948 423.601 146.628L423.779 145.901C424.745 146.221 425.72 146.419 426.686 146.74L426.508 147.467ZM459.977 150.024L459.908 149.278C460.902 149.231 461.905 149.061 462.898 149.013L462.966 149.759C462.096 149.816 460.979 149.854 459.977 150.024ZM466.088 149.38L466.02 148.634C467.023 148.464 468.016 148.417 469.019 148.246L469.087 148.992C468.217 149.049 467.091 149.21 466.088 149.38ZM420.57 145.779C419.604 145.458 418.638 145.138 417.681 144.694L417.982 143.977C418.948 144.297 419.905 144.741 420.871 145.061L420.57 145.779ZM402.916 143.566L402.469 142.915C403.376 142.367 404.16 141.809 404.944 141.252L405.39 141.904C404.739 142.347 403.823 143.018 402.916 143.566ZM472.227 148.368L472.036 147.613C473.039 147.443 474.041 147.272 475.053 146.979L475.244 147.735C474.232 148.028 473.23 148.198 472.227 148.368ZM414.792 143.609C413.835 143.166 412.878 142.722 412.044 142.288L412.345 141.571C413.302 142.014 414.136 142.448 415.102 142.769L414.792 143.609ZM478.261 147.101L478.061 146.468C479.073 146.175 480.075 146.005 480.964 145.703L481.155 146.458C480.276 146.638 479.264 146.931 478.261 147.101ZM409.296 140.968C408.339 140.524 407.515 139.967 406.558 139.524L406.972 138.938C407.209 139.08 407.446 139.221 407.56 139.354C408.221 138.787 408.891 138.097 409.561 137.408L410.14 137.946C409.602 138.522 408.932 139.212 408.271 139.778C408.745 140.061 409.228 140.222 409.579 140.495L409.296 140.968ZM403.96 137.844C403.136 137.287 402.188 136.721 401.363 136.164L401.778 135.579C402.603 136.136 403.427 136.692 404.252 137.249L403.96 137.844ZM412.187 135.387L411.599 134.971C412.155 134.15 412.711 133.328 413.267 132.507L413.855 132.922C413.308 133.621 412.743 134.565 412.187 135.387ZM399.03 134.258C398.214 133.578 397.399 132.899 396.706 132.229L397.244 131.653C397.937 132.323 398.752 133.002 399.577 133.559L399.03 134.258ZM394.382 130.2C393.699 129.407 392.883 128.727 392.323 127.944L392.851 127.49C393.535 128.283 394.228 128.953 394.911 129.746L394.382 130.2ZM415.182 130.061L414.462 129.759C414.781 128.796 415.1 127.833 415.42 126.869L416.149 127.049C415.943 128.144 415.624 129.107 415.182 130.061ZM390.405 125.452C389.853 124.546 389.293 123.762 388.742 122.856L389.384 122.535C389.813 123.432 390.373 124.215 390.924 125.121L390.405 125.452ZM416.746 124.008L416.008 123.952C416.026 123.706 416.054 123.338 416.072 123.093C416.127 122.356 416.172 121.742 416.104 120.997L416.852 120.93C416.92 121.676 416.865 122.413 416.819 123.026C416.792 123.394 416.765 123.763 416.746 124.008ZM387.466 120.043C387.047 119.023 386.751 118.013 386.569 117.135L387.325 116.946C387.498 117.947 387.804 118.834 388.223 119.854L387.466 120.043ZM415.954 118.023C415.781 117.022 415.608 116.021 415.435 115.02L416.192 114.831C416.488 115.841 416.661 116.842 416.711 117.833L415.954 118.023ZM386.059 114.01C386 113.142 385.941 112.273 386.005 111.414C386.023 111.168 386.032 111.046 386.041 110.923L386.78 110.979C386.771 111.102 386.752 111.347 386.743 111.47C386.679 112.329 386.624 113.066 386.683 113.934L386.059 114.01ZM414.538 112.113C414.443 111.735 414.224 111.348 414.128 110.97C413.928 110.338 413.718 109.828 413.509 109.318L414.151 108.997C414.361 109.507 414.561 110.139 414.762 110.772C414.857 111.149 415.076 111.536 415.172 111.914L414.538 112.113ZM387.5 107.948L386.771 107.769C387.09 106.806 387.533 105.852 387.975 104.898L388.572 105.191C388.13 106.145 387.81 107.108 387.5 107.948ZM412.233 106.505C411.682 105.599 411.131 104.693 410.561 104.032L411.09 103.579C411.65 104.362 412.202 105.268 412.753 106.174L412.233 106.505ZM390.231 102.849L389.643 102.434C390.323 101.621 391.116 100.941 391.909 100.261L392.364 100.79C391.58 101.347 390.91 102.037 390.231 102.849ZM408.625 101.785C407.932 101.115 407.117 100.436 406.283 100.002L406.698 99.4163C407.522 99.9731 408.338 100.653 409.154 101.332L408.625 101.785ZM394.962 99.1369L394.639 98.495C395.537 98.0698 396.549 97.7768 397.683 97.4932L397.875 98.2484C396.749 98.4093 395.86 98.7117 394.962 99.1369ZM403.535 98.6809C402.569 98.3602 401.717 98.1716 400.732 98.0964L400.609 98.087L400.664 97.3506L400.787 97.36C401.771 97.4352 402.747 97.6331 403.713 97.9538L403.535 98.6809Z" fill="#3AFFDC"/>
<path d="M211.789 111.885C210.804 111.81 209.697 111.726 208.713 111.65L208.768 110.914C209.752 110.989 210.736 111.065 211.843 111.149L211.789 111.885ZM214.741 112.111L214.796 111.375C215.781 111.45 216.774 111.402 217.881 111.487L217.826 112.223C216.842 112.148 215.849 112.196 214.741 112.111ZM205.646 111.293C204.671 111.095 203.564 111.01 202.589 110.812L202.766 110.086C203.742 110.283 204.726 110.359 205.824 110.566L205.646 111.293ZM220.921 112.213L220.975 111.476C221.969 111.429 222.953 111.504 224.07 111.466L224.138 112.212C223.021 112.25 221.914 112.165 220.921 112.213ZM199.54 110.209C198.565 110.011 197.467 109.804 196.501 109.484L196.679 108.757C197.654 108.955 198.629 109.153 199.595 109.473L199.54 110.209ZM227.118 112.069L227.05 111.323C228.043 111.276 229.037 111.228 230.039 111.058L230.107 111.804C229.114 111.851 228.121 111.899 227.118 112.069ZM193.585 108.767C192.619 108.447 191.643 108.249 190.677 107.928L190.855 107.201C191.821 107.522 192.787 107.843 193.762 108.04L193.585 108.767ZM233.22 111.548L233.152 110.802C234.154 110.632 235.147 110.585 236.15 110.414L236.218 111.16C235.225 111.207 234.222 111.378 233.22 111.548ZM187.789 106.844C186.823 106.523 185.866 106.08 184.9 105.759L185.201 105.042C186.157 105.485 187.123 105.806 188.089 106.126L187.789 106.844ZM239.226 110.649L239.158 109.904C240.16 109.733 241.163 109.563 242.165 109.393L242.234 110.139C241.231 110.309 240.228 110.479 239.226 110.649ZM245.241 109.628L245.05 108.873C246.052 108.703 247.064 108.41 248.067 108.239L248.258 108.994C247.255 109.165 246.253 109.335 245.241 109.628ZM182.02 104.552C181.063 104.109 180.106 103.665 179.272 103.231L179.564 102.637C180.398 103.071 181.355 103.514 182.312 103.957L182.02 104.552ZM251.284 108.238L251.093 107.483C252.104 107.19 253.107 107.02 253.996 106.718L254.187 107.473C253.175 107.766 252.286 108.068 251.284 108.238ZM176.534 101.788C175.586 101.222 174.753 100.788 173.928 100.232L174.343 99.6464C175.167 100.203 176.115 100.769 176.949 101.203L176.534 101.788ZM257.213 106.717L257.021 105.962C258.033 105.669 258.922 105.366 259.933 105.073L260.125 105.829C259.113 106.121 258.101 106.414 257.213 106.717ZM171.463 98.4392C170.638 97.8826 169.823 97.2033 168.998 96.6467L169.413 96.0613C170.228 96.7406 171.053 97.2973 171.878 97.8539L171.463 98.4392ZM263.037 104.94L262.845 104.185C263.857 103.892 264.746 103.59 265.767 103.174L265.967 103.807C264.946 104.222 264.058 104.525 263.037 104.94ZM268.756 102.909L268.565 102.154C269.075 101.946 269.709 101.748 270.219 101.54L270.542 102.182C269.9 102.503 269.389 102.711 268.756 102.909ZM166.551 94.6087C165.736 93.9294 165.043 93.2595 164.36 92.4668L164.898 91.8909C165.59 92.5608 166.406 93.2401 167.098 93.9101L166.551 94.6087ZM162.169 90.325C161.485 89.5324 160.802 88.7397 160.241 87.9565L160.893 87.5127C161.454 88.2959 162.137 89.0885 162.82 89.8811L162.169 90.325ZM158.456 85.352C157.904 84.4461 157.353 83.5401 156.916 82.7663L157.559 82.4452C157.987 83.3417 158.547 84.1249 159.098 85.0309L158.456 85.352ZM155.508 80.0673C155.08 79.1708 154.661 78.1515 154.365 77.1417L154.999 76.9432C155.304 77.8304 155.723 78.8496 156.151 79.7462L155.508 80.0673ZM153.468 74.2348C153.295 73.2344 152.999 72.2245 152.958 71.1108L153.706 71.0445C153.879 72.0449 154.052 73.0454 154.225 74.0458L153.468 74.2348ZM152.563 68.1188C152.645 67.0145 152.595 66.0234 152.668 65.0418L153.406 65.0982C153.333 66.0798 153.383 67.0709 153.31 68.0525L152.563 68.1188ZM153.758 62.0399L153.029 61.8608C153.225 60.8885 153.43 59.7936 153.749 58.8307L154.478 59.0098C154.15 60.0954 153.954 61.0676 153.758 62.0399ZM155.427 56.244L154.707 55.9422C155.149 54.9887 155.591 54.0352 156.024 53.2045L156.621 53.4969C156.302 54.4598 155.86 55.4132 155.427 56.244ZM158.289 51.0328L157.702 50.6177C158.258 49.7964 158.814 48.975 159.493 48.1631L160.081 48.5782C159.402 49.3901 158.846 50.2115 158.289 51.0328ZM161.986 46.2556L161.407 45.7178C162.2 45.0379 162.87 44.3487 163.673 43.5461L164.128 44.0745C163.449 44.8865 162.656 45.5663 161.986 46.2556ZM166.498 42.1577L166.043 41.6293C166.836 40.9494 167.619 40.3923 168.526 39.8445L168.973 40.4956C168.075 40.9207 167.159 41.5911 166.498 42.1577ZM171.334 38.7015L170.887 38.0504C171.794 37.5026 172.578 36.9455 173.476 36.5204L173.799 37.1622C173.148 37.606 172.241 38.1537 171.334 38.7015ZM176.634 35.651L176.311 35.0093C177.208 34.5843 178.106 34.1592 179.127 33.7436L179.45 34.3853C178.553 34.8103 177.532 35.226 176.634 35.651ZM182.258 33.2423L181.934 32.6005C182.832 32.1755 183.844 31.8826 184.864 31.4669L185.065 32.0992C184.167 32.5243 183.146 32.9399 182.258 33.2423ZM187.977 31.211L187.777 30.5787C188.788 30.2858 189.677 29.9834 190.689 29.6905L190.88 30.4455C189.877 30.6158 188.866 30.9087 187.977 31.211ZM193.792 29.5573L193.601 28.8023C194.612 28.5094 195.615 28.3391 196.626 28.0462L196.818 28.8012C195.806 29.0942 194.803 29.2644 193.792 29.5573ZM199.711 28.1584L199.52 27.4034C200.523 27.2332 201.534 26.9402 202.537 26.77L202.728 27.525C201.726 27.6953 200.723 27.8655 199.711 28.1584ZM205.745 26.8916L205.554 26.1366C206.556 25.9664 207.559 25.7961 208.561 25.6259L208.753 26.3809C207.75 26.5512 206.748 26.7214 205.745 26.8916ZM354.047 37.6024C354.047 37.6024 352.958 37.2724 351.139 36.7633L351.317 36.0365C353.258 36.555 354.347 36.8849 354.347 36.8849L354.047 37.6024ZM211.751 25.9929L211.683 25.2473C212.686 25.0771 213.688 24.9068 214.681 24.8593L214.75 25.605C213.756 25.6525 212.754 25.8227 211.751 25.9929ZM348.223 36.0469C347.371 35.8584 346.282 35.5285 345.307 35.3306L345.485 34.6037C346.583 34.811 347.549 35.1316 348.524 35.3295L348.223 36.0469ZM342.258 34.7275C341.283 34.5296 340.308 34.3317 339.219 34.0017L339.397 33.2749C340.495 33.4822 341.47 33.6801 342.436 34.0007L342.258 34.7275ZM217.88 25.1037L217.812 24.358C218.806 24.3105 219.808 24.1403 220.802 24.0927L220.87 24.8384C219.876 24.8859 218.874 25.0561 217.88 25.1037ZM336.171 33.3987C335.196 33.2008 334.22 33.0029 333.122 32.7956L333.3 32.0688C334.275 32.2666 335.373 32.4739 336.349 32.6718L336.171 33.3987ZM223.868 24.4504L223.8 23.7048C224.793 23.6572 225.796 23.487 226.912 23.4489L226.981 24.1945C225.978 24.3647 224.985 24.4123 223.868 24.4504ZM330.206 32.0792C329.231 31.8813 328.256 31.6835 327.158 31.4762L327.335 30.7493C328.311 30.9472 329.409 31.1545 330.384 31.3524L330.206 32.0792ZM229.961 24.0519L229.893 23.3063C230.886 23.2588 231.879 23.2112 232.996 23.1731L233.064 23.9188C232.08 23.8436 231.086 23.8911 229.961 24.0519ZM324.223 31.0052C323.248 30.8073 322.273 30.6094 321.175 30.4021L321.353 29.6753C322.328 29.8732 323.426 30.0805 324.401 30.2784L324.223 31.0052ZM236.053 23.6535L235.985 22.9078C236.979 22.8603 237.972 22.8128 239.089 22.7747L239.157 23.5203C238.163 23.5678 237.17 23.6154 236.053 23.6535ZM318.249 29.8085C317.274 29.6106 316.299 29.4127 315.192 29.3281L315.37 28.6013C316.345 28.7992 317.443 29.0065 318.427 29.0816L318.249 29.8085ZM312.134 28.8478C311.159 28.6499 310.175 28.5747 309.077 28.3674L309.131 27.6312C310.107 27.8291 311.214 27.9136 312.189 28.1115L312.134 28.8478ZM242.251 23.5098L242.183 22.7642C243.176 22.7167 244.169 22.6691 245.277 22.7537L245.345 23.4994C244.238 23.4148 243.244 23.4623 242.251 23.5098ZM306.142 27.8964C305.167 27.6986 304.183 27.6234 303.084 27.4161L303.139 26.6798C304.114 26.8777 305.222 26.9623 306.197 27.1602L306.142 27.8964ZM248.325 23.3568L248.38 22.6206C249.373 22.573 250.358 22.6482 251.474 22.6101L251.419 23.3463C250.303 23.3845 249.309 23.432 248.325 23.3568ZM300.141 27.0678C299.156 26.9927 298.181 26.7948 297.074 26.7102L297.129 25.9739C298.113 26.0491 299.211 26.2564 300.196 26.3316L300.141 27.0678ZM254.381 23.4492L254.436 22.7129C255.42 22.7881 256.537 22.75 257.521 22.8252L257.466 23.5614C256.482 23.4862 255.498 23.411 254.381 23.4492ZM294.016 26.2298C293.032 26.1546 292.057 25.9568 290.95 25.8722L291.005 25.1359C291.989 25.2111 293.087 25.4184 294.071 25.4936L294.016 26.2298ZM260.56 23.5509L260.615 22.8147C261.6 22.8899 262.716 22.8517 263.7 22.9269L263.645 23.6632C262.529 23.7013 261.545 23.6261 260.56 23.5509ZM287.874 25.6372C286.89 25.5621 285.905 25.4869 284.807 25.2796L284.862 24.5433C285.846 24.6185 286.954 24.7031 287.929 24.901L287.874 25.6372ZM266.598 23.8887L266.653 23.1525C267.637 23.2277 268.745 23.3122 269.729 23.3874L269.674 24.1237C268.699 23.9258 267.582 23.9639 266.598 23.8887ZM281.864 24.9313C280.879 24.8561 279.895 24.781 278.788 24.6964L278.843 23.9601C279.827 24.0353 280.934 24.1199 281.918 24.1951L281.864 24.9313ZM272.759 24.2359L272.814 23.4997C273.798 23.5748 274.659 23.6406 275.644 23.7158L275.767 23.7252L275.712 24.4614L275.466 24.4426C274.605 24.3769 273.62 24.3017 272.759 24.2359Z" fill="#3AFFDC"/>
<path d="M280.376 98.8813L290.574 106.705L303.232 82.9768L280.376 98.8813Z" fill="#2B2D60"/>
<path d="M278.019 115.508L303.233 82.9763L280.365 98.8862L278.019 115.508Z" fill="white"/>
<path d="M279.97 91.3055L285.359 95.4206L303.24 82.9761L279.97 91.3055Z" fill="#2B2D60"/>
<path d="M303.241 82.9839L283.613 94.0454L264.712 91.9803L303.241 82.9839Z" fill="white"/>
</svg>
